<svg id="btn_send" xmlns="http://www.w3.org/2000/svg" xmlns:xlink="http://www.w3.org/1999/xlink" width="15" height="15" viewBox="0 0 15 15">
  <defs>
    <clipPath id="clip-path">
      <rect id="사각형_86" data-name="사각형 86" width="15" height="15" fill="#009ae8"/>
    </clipPath>
  </defs>
  <g id="icon_send" clip-path="url(#clip-path)">
    <path id="send" d="M17.962,3.439a.59.59,0,0,0-.749-.426L3.362,7.9a.586.586,0,0,0-.38.514.6.6,0,0,0,.331.55l5.364,2.5,2.618-2.618c.518-.518,1.346.283.815.815L9.491,12.286s2.5,5.359,2.505,5.367a.617.617,0,0,0,.52.33.6.6,0,0,0,.543-.384l4.888-13.85a.539.539,0,0,0,.014-.309Z" transform="translate(-2.981 -2.983)" fill="#009ae8"/>
  </g>
</svg>
