<svg xmlns="http://www.w3.org/2000/svg" xmlns:xlink="http://www.w3.org/1999/xlink" width="14" height="14" viewBox="0 0 14 14">
  <defs>
    <clipPath id="clip-path">
      <rect id="사각형_26010" data-name="사각형 26010" width="14" height="14" transform="translate(1390 252)" fill="#009ae8"/>
    </clipPath>
  </defs>
  <g id="btn_reset" transform="translate(-1390 -252)" clip-path="url(#clip-path)">
    <g id="refresh" transform="translate(1390 252)">
      <g id="그룹_19639" data-name="그룹 19639" transform="translate(0.772)">
        <g id="그룹_19638" data-name="그룹 19638">
          <path id="패스_9105" data-name="패스 9105" d="M14.275,1.931a.547.547,0,0,0-.594.495l-.072.795A6.9,6.9,0,0,0,1.6,3.8a.547.547,0,1,0,.974.5,5.814,5.814,0,0,1,10.114-.482l-.78-.557a.547.547,0,1,0-.636.89l2.365,1.689a.547.547,0,0,0,.862-.4l.266-2.913A.547.547,0,0,0,14.275,1.931Z" transform="translate(-1.544)" fill="#009ae8"/>
        </g>
      </g>
      <g id="그룹_19641" data-name="그룹 19641" transform="translate(0 8.064)">
        <g id="그룹_19640" data-name="그룹 19640">
          <path id="패스_9106" data-name="패스 9106" d="M12.93,17.531a.547.547,0,0,0-.736.238,5.814,5.814,0,0,1-10.114.482l.78.557a.547.547,0,0,0,.636-.89L1.13,16.23a.547.547,0,0,0-.862.4L0,19.538a.547.547,0,1,0,1.089.1l.072-.795a6.9,6.9,0,0,0,12-.576A.547.547,0,0,0,12.93,17.531Z" transform="translate(0 -16.128)" fill="#009ae8"/>
        </g>
      </g>
    </g>
  </g>
</svg>
