<svg xmlns="http://www.w3.org/2000/svg" xmlns:xlink="http://www.w3.org/1999/xlink" width="16" height="16" viewBox="0 0 16 16">
  <defs>
    <clipPath id="clip-path">
      <rect id="사각형_25627" data-name="사각형 25627" width="16" height="16" transform="translate(80 524)" fill="#fff"/>
    </clipPath>
  </defs>
  <g id="icon_waiting" transform="translate(-80 -524)" clip-path="url(#clip-path)">
    <g id="loading" transform="translate(80.191 524)">
      <g id="그룹_271" data-name="그룹 271" transform="translate(3.312)">
        <path id="패스_358" data-name="패스 358" d="M9.116,1.136a3.818,3.818,0,1,0,3.818,3.818A3.818,3.818,0,0,0,9.116,1.136Z" transform="translate(-5.298 -1.136)" fill="#fff"/>
        <path id="패스_359" data-name="패스 359" d="M15.318,10.227a.545.545,0,0,1,.545.545v1.455a.545.545,0,0,1-1.091,0V10.773A.545.545,0,0,1,15.318,10.227Z" transform="translate(-7.193 -2.955)" fill="#fff"/>
        <path id="패스_360" data-name="패스 360" d="M20.045,15.773a.545.545,0,0,1-.545.545H18.045a.545.545,0,0,1,0-1.091H19.5A.545.545,0,0,1,20.045,15.773Z" transform="translate(-7.739 -3.955)" fill="#fff"/>
        <path id="패스_361" data-name="패스 361" d="M13.436,17.457a.545.545,0,0,1-.076.768l-1.125.922a.545.545,0,1,1-.691-.844l1.125-.922A.545.545,0,0,1,13.436,17.457Z" transform="translate(-6.507 -4.361)" fill="#fff"/>
        <path id="패스_362" data-name="패스 362" d="M18.89,12.245a.546.546,0,0,1-.076.768l-1.125.922A.545.545,0,1,1,17,13.09l1.125-.922A.545.545,0,0,1,18.89,12.245Z" transform="translate(-7.598 -3.318)" fill="#fff"/>
        <path id="패스_363" data-name="패스 363" d="M18.89,19.07a.546.546,0,0,0-.076-.768l-1.125-.922a.545.545,0,1,0-.691.844l1.125.922A.546.546,0,0,0,18.89,19.07Z" transform="translate(-7.598 -4.361)" fill="#fff"/>
        <path id="패스_364" data-name="패스 364" d="M13.436,13.858a.545.545,0,0,0-.076-.768l-1.125-.922a.545.545,0,1,0-.691.844l1.125.922A.545.545,0,0,0,13.436,13.858Z" transform="translate(-6.507 -3.318)" fill="#fff"/>
        <path id="패스_365" data-name="패스 365" d="M12.773,15.773a.545.545,0,0,1-.545.545H10.773a.545.545,0,1,1,0-1.091h1.455A.545.545,0,0,1,12.773,15.773Z" transform="translate(-6.284 -3.955)" fill="#fff"/>
        <path id="패스_366" data-name="패스 366" d="M15.318,17.955a.545.545,0,0,1,.545.545v1.455a.545.545,0,0,1-1.091,0V18.5A.545.545,0,0,1,15.318,17.955Z" transform="translate(-7.193 -4.5)" fill="#fff"/>
      </g>
      <path id="패스_367" data-name="패스 367" d="M9.16,11.665A13.743,13.743,0,0,0,1.8,13.242a1.206,1.206,0,0,0-.64,1.065v2.67A1.273,1.273,0,0,0,2.431,18.25H8.976a1.091,1.091,0,0,1,.185-1.495l.746-.611H8.959a1.091,1.091,0,1,1,0-2.182h.947l-.746-.611a1.092,1.092,0,0,1,0-1.688Z" transform="translate(-1.159 -3.236)" fill="#fff"/>
    </g>
  </g>
</svg>
