<svg xmlns="http://www.w3.org/2000/svg" xmlns:xlink="http://www.w3.org/1999/xlink" width="16" height="16" viewBox="0 0 16 16">
  <defs>
    <clipPath id="clip-path">
      <rect id="사각형_25625" data-name="사각형 25625" width="16" height="16" transform="translate(91 314)" fill="#8ad0f5"/>
    </clipPath>
  </defs>
  <g id="icon_schedule" transform="translate(-91 -314)" clip-path="url(#clip-path)">
    <g id="calendar_2_" data-name="calendar (2)" transform="translate(91 314.125)">
      <g id="그룹_264" data-name="그룹 264" transform="translate(2.395)">
        <g id="그룹_263" data-name="그룹 263">
          <path id="패스_354" data-name="패스 354" d="M3.509.156a.511.511,0,0,0-.515.508V2.776a.515.515,0,0,0,1.03,0V.664A.511.511,0,0,0,3.509.156Z" transform="translate(-2.994 -0.156)" fill="#8ad0f5"/>
        </g>
      </g>
      <g id="그룹_266" data-name="그룹 266" transform="translate(12.575)">
        <g id="그룹_265" data-name="그룹 265">
          <path id="패스_355" data-name="패스 355" d="M16.234.156a.511.511,0,0,0-.515.508V2.776a.515.515,0,0,0,1.03,0V.664A.511.511,0,0,0,16.234.156Z" transform="translate(-15.719 -0.156)" fill="#8ad0f5"/>
        </g>
      </g>
      <g id="그룹_268" data-name="그룹 268" transform="translate(0 1.313)">
        <g id="그룹_267" data-name="그룹 267">
          <path id="패스_356" data-name="패스 356" d="M14.933,1.8H14.1V3.1a1.015,1.015,0,0,1-2.03,0V1.8H3.925V3.1a1.015,1.015,0,0,1-2.03,0V1.8H1.068A1.062,1.062,0,0,0,0,2.852v2.3H16v-2.3A1.062,1.062,0,0,0,14.933,1.8Z" transform="translate(0 -1.797)" fill="#8ad0f5"/>
        </g>
      </g>
      <g id="그룹_270" data-name="그룹 270" transform="translate(0 5.17)">
        <g id="그룹_269" data-name="그룹 269">
          <path id="패스_357" data-name="패스 357" d="M0,6.619v9.525A1.062,1.062,0,0,0,1.068,17.2H14.933A1.062,1.062,0,0,0,16,16.144V6.619Zm7.6,7.933H3.694v-.817l1.733-1.741a9.285,9.285,0,0,0,.825-.924,1.138,1.138,0,0,0,.245-.678.765.765,0,0,0-.261-.584.938.938,0,0,0-.662-.241,1.365,1.365,0,0,0-1.169.72l-.777-.45a2.85,2.85,0,0,1,.83-.85A2.155,2.155,0,0,1,5.626,8.7a1.889,1.889,0,0,1,1.254.454,1.53,1.53,0,0,1,.539,1.238,1.674,1.674,0,0,1-.229.842,5.621,5.621,0,0,1-.842,1.03l-1.34,1.365H7.6v.924Zm4.168-.478a2.145,2.145,0,0,1-1.488.543,2.345,2.345,0,0,1-1.839-.768l.515-.7a2.183,2.183,0,0,0,.176.156,2.255,2.255,0,0,0,.454.241,1.838,1.838,0,0,0,.752.152,1.229,1.229,0,0,0,.744-.245.831.831,0,0,0,.335-.715.846.846,0,0,0-.355-.728,1.5,1.5,0,0,0-.9-.257,2.108,2.108,0,0,0-1.034.27l-.409-.442V8.83H12V9.7H9.594v1.406a1.675,1.675,0,0,1,.817-.2,2.091,2.091,0,0,1,1.381.482,1.61,1.61,0,0,1,.581,1.308A1.763,1.763,0,0,1,11.768,14.073Z" transform="translate(0 -6.619)" fill="#8ad0f5"/>
        </g>
      </g>
    </g>
  </g>
</svg>
