<svg xmlns="http://www.w3.org/2000/svg" xmlns:xlink="http://www.w3.org/1999/xlink" width="16" height="16" viewBox="0 0 16 16">
  <defs>
    <clipPath id="clip-path">
      <rect id="사각형_25614" data-name="사각형 25614" width="16" height="16" transform="translate(-3539 -2215)" fill="#333"/>
    </clipPath>
  </defs>
  <g id="icon_handup_topbar" transform="translate(3539 2215)" clip-path="url(#clip-path)">
    <path id="hold" d="M14.707,7.346a.619.619,0,0,0-.556-.3,2.71,2.71,0,0,0-1.418.467A4.732,4.732,0,0,0,11.3,9.1a.571.571,0,0,1-.394.288c0-.036,0-.078,0-.117,0-.084,0-.184,0-.294v-6a1.084,1.084,0,1,0-2.167,0v4.2a.135.135,0,1,1-.271,0V1.084a1.084,1.084,0,0,0-2.167,0V7.178a.135.135,0,0,1-.271,0V2.3a.948.948,0,1,0-1.9,0V7.72a.135.135,0,0,1-.271,0V4.334a.949.949,0,0,0-1.9,0V11.7C2.222,15.489,4.546,16,6.784,16a4.915,4.915,0,0,0,4.341-2.39c.106-.171.391-.62.73-1.152.847-1.331,1.557-2.449,1.662-2.648a3.277,3.277,0,0,1,.754-1,2.082,2.082,0,0,0,.5-.651A1.019,1.019,0,0,0,14.707,7.346Z" transform="translate(-3539.392 -2215)" fill="#333"/>
  </g>
</svg>
