<svg xmlns="http://www.w3.org/2000/svg" xmlns:xlink="http://www.w3.org/1999/xlink" width="16" height="16" viewBox="0 0 16 16">
  <defs>
    <clipPath id="clip-path">
      <rect id="사각형_26257" data-name="사각형 26257" width="16" height="16" transform="translate(5 1895)" fill="#333"/>
    </clipPath>
  </defs>
  <g id="icon_timer_topbar" transform="translate(-5 -1895)" clip-path="url(#clip-path)">
    <g id="clock_3_" data-name="clock (3)" transform="translate(5 1895)">
      <g id="그룹_19717" data-name="그룹 19717">
        <path id="패스_9184" data-name="패스 9184" d="M8,0a8,8,0,1,0,8,8A8,8,0,0,0,8,0Zm3.459,9.521H8.067c-.011,0-.022,0-.033,0s-.022,0-.033,0a.553.553,0,0,1-.553-.553V3.32a.553.553,0,1,1,1.107,0V8.415h2.905a.553.553,0,0,1,0,1.107Z" fill="#333"/>
      </g>
    </g>
  </g>
</svg>
