<svg xmlns="http://www.w3.org/2000/svg" width="16" height="16" viewBox="0 0 16 16">
  <g id="icon_playbtn" transform="translate(-897.25 -7)">
    <g id="패스_9188" data-name="패스 9188" transform="translate(897.25 7)" fill="none">
      <path d="M8,0A8,8,0,1,1,0,8,8,8,0,0,1,8,0Z" stroke="none"/>
      <path d="M 8 1.199999809265137 C 4.250470161437988 1.199999809265137 1.199999809265137 4.250470161437988 1.199999809265137 8 C 1.199999809265137 11.74952983856201 4.250470161437988 14.80000019073486 8 14.80000019073486 C 11.74952983856201 14.80000019073486 14.80000019073486 11.74952983856201 14.80000019073486 8 C 14.80000019073486 4.250470161437988 11.74952983856201 1.199999809265137 8 1.199999809265137 M 8 0 C 12.41827964782715 0 16 3.581720352172852 16 8 C 16 12.41827964782715 12.41827964782715 16 8 16 C 3.581720352172852 16 0 12.41827964782715 0 8 C 0 3.581720352172852 3.581720352172852 0 8 0 Z" stroke="none" fill="#333"/>
    </g>
    <path id="다각형_1" data-name="다각형 1" d="M3.659,1.308a1,1,0,0,1,1.682,0L8.01,5.459A1,1,0,0,1,7.168,7H1.832A1,1,0,0,1,.99,5.459Z" transform="translate(910.068 10.5) rotate(90)" fill="#333"/>
  </g>
</svg>
