<svg xmlns="http://www.w3.org/2000/svg" xmlns:xlink="http://www.w3.org/1999/xlink" width="11" height="11" viewBox="0 0 11 11">
  <defs>
    <clipPath id="clip-path">
      <rect id="사각형_27071" data-name="사각형 27071" width="11" height="11" transform="translate(307 183)" fill="#fff"/>
    </clipPath>
  </defs>
  <g id="img_lock" transform="translate(-307 -183)" clip-path="url(#clip-path)">
    <path id="자물쇠" d="M18.927,11.76H17.578V10.03a2.754,2.754,0,1,0-5.508,0v1.73H10.721a.371.371,0,0,0-.371.371v5.775a.371.371,0,0,0,.371.371h8.2a.371.371,0,0,0,.371-.371V12.13A.362.362,0,0,0,18.927,11.76ZM12.85,10.03a1.977,1.977,0,1,1,3.954,0v1.73H12.85Z" transform="translate(297.678 175.724)" fill="#fff"/>
  </g>
</svg>
