<svg xmlns="http://www.w3.org/2000/svg" xmlns:xlink="http://www.w3.org/1999/xlink" width="98.613" height="31.58" viewBox="0 0 98.613 31.58">
  <defs>
    <linearGradient id="linear-gradient" x1="0.191" y1="0.782" x2="0.847" y2="0.183" gradientUnits="objectBoundingBox">
      <stop offset="0" stop-color="#363c63"/>
      <stop offset="1" stop-color="#263e62"/>
    </linearGradient>
  </defs>
  <g id="img_im_logo" transform="translate(0 0)">
    <path id="패스_1" data-name="패스 1" d="M28.846,12.5a8.365,8.365,0,0,0-.72-3.368,9.675,9.675,0,0,0-1.578-2.395,13.376,13.376,0,0,0-3.1-2.633c-1.494-.938-3.021-1.82-4.566-2.672A10.954,10.954,0,0,0,17.126.6c-.38-.129-.76-.261-1.145-.375A5.462,5.462,0,0,0,13.495.08a10.872,10.872,0,0,0-1.779.528,7.238,7.238,0,0,0-.994.425q-2.836,1.5-5.546,3.219A12.6,12.6,0,0,0,2.5,6.514,10.62,10.62,0,0,0,.979,8.607,8.434,8.434,0,0,0,0,12.51c0,.6,0,1.194,0,1.792q0,.738,0,1.476,0,.5,0,1c0,.755,0,1.51,0,2.265a8.445,8.445,0,0,0,.977,3.923,10.745,10.745,0,0,0,1.576,2.153,13.326,13.326,0,0,0,2.913,2.39q2.359,1.469,4.8,2.795a10.026,10.026,0,0,0,1.6.718q.464.157.932.3a5.131,5.131,0,0,0,2.763.117c.6-.146,1.186-.353,1.771-.556a6.26,6.26,0,0,0,.876-.39c1.71-.9,3.378-1.885,5.027-2.895a13.966,13.966,0,0,0,3.752-3.3,8.326,8.326,0,0,0,1.849-5.209C28.857,16.893,28.847,14.694,28.846,12.5ZM6.672,9.239q0-.017,0-.033c0-.01,0-.02,0-.031a.056.056,0,0,1,0-.009.04.04,0,0,1,0,0c0-.008,0-.016,0-.024,0-.036.007-.072.013-.107s.008-.046.012-.069.01-.046.016-.069l.007-.026.007-.026.008-.025.008-.025c.007-.022.015-.045.024-.067s.016-.04.024-.06L6.8,8.651l.006-.013.013-.028.014-.028.014-.028c.01-.019.02-.037.03-.055l.038-.061L6.942,8.4l0-.006.026-.036.017-.022.023-.028.021-.025.021-.024.022-.024L7.1,8.209,7.115,8.2l.013-.013q.051-.05.1-.094l.027-.021.027-.021.027-.02.022-.015a1.357,1.357,0,0,1,.208-.119l.026-.011.005,0,.016-.007.064-.024.018-.006.054-.017.012,0c.026-.007.052-.013.078-.019l.019,0H7.84l.035-.006h.007l.033,0h.021l.056,0,.039,0h.088c.035,0,.069,0,.1.008l.026,0,.033,0,.057.01.028.006.044.01.044.011.014,0,.043.012h0l.037.012.017.006h0l.039.014.038.015.009,0,.045.02.042.02h0l.036.019.01.006.037.021L8.86,8h0l.015.009.019.013.017.012c.022.016.044.032.065.049l.008.007a1.315,1.315,0,0,1,.193.194l.028.036.028.038.024.036,0,.006.019.03.022.036.013.022,0,0,.011.02.01.019.016.031.014.03.008.018c.009.019.017.038.025.058l.011.026.013.035c.007.018.013.036.019.054l.008.025.013.04.006.019.005.019.009.039.007.033.006.033.005.033c0,.029.008.057.012.086s.008.061.012.092c0,.009,0,.017,0,.026s0,.027.006.041a1.537,1.537,0,0,1-.523,1.16,1.37,1.37,0,0,1-1.9-.065l-.02-.021-.02-.021-.02-.022-.016-.019-.009-.011-.015-.018-.022-.027L6.975,10.2l-.016-.021-.033-.048-.015-.024L6.9,10.086l-.009-.015-.008-.013-.007-.013-.013-.023L6.845,10c-.011-.022-.022-.045-.033-.068a1.56,1.56,0,0,1-.064-.167l0-.011-.008-.026-.009-.034c0-.011-.006-.022-.009-.034l-.007-.03,0-.019c0-.012,0-.023-.007-.035l0-.02q0-.017-.006-.033l0-.016c0-.005,0-.01,0-.016s0-.036-.006-.054,0-.017,0-.025a0,0,0,0,1,0,0c0-.008,0-.016,0-.024h0c0-.02,0-.04,0-.06v0c0-.014,0-.028,0-.042S6.671,9.252,6.672,9.239Zm15.644,1.716q0,2.381,0,4.762,0,3.175,0,6.35c0,.12,0,.241,0,.361,0,.014,0,.028,0,.042s0,.055,0,.083,0,.055,0,.083,0,.027,0,.041,0,.026,0,.039,0,.008,0,.012,0,.02,0,.029,0,.015,0,.022,0,.041-.006.061q-.008.082-.022.162c0,.018-.006.035-.01.052l0,.014s0,.009,0,.014l-.006.025,0,.012-.01.038c-.006.02-.012.04-.019.06s-.014.04-.021.059-.015.039-.024.058l-.023.05-.017.035-.011.021-.022.04,0,0-.02.034-.006.01-.022.034-.028.04-.029.039-.029.036-.04.047q-.035.039-.073.075l-.026.024-.033.03-.03.025-.033.026-.034.025-.034.024-.024.016q-.043.028-.088.053l-.022.012-.026.013-.027.013q-.046.022-.094.041l-.02.008-.032.011-.025.008-.075.022h0l-.057.013-.021,0-.009,0-.021,0-.039.006-.017,0-.067.008-.025,0-.026,0h-.072l-.082,0a1.268,1.268,0,0,1-.139-.016l-.031-.006-.056-.012-.034-.009-.033-.009-.013,0-.021-.007-.053-.018-.054-.021-.045-.02-.008,0c-.033-.015-.065-.031-.1-.049l-.024-.014-.048-.029c-.03-.019-.059-.039-.087-.06l-.019-.014a1.45,1.45,0,0,1-.116-.1l-.02-.02-.02-.02-.02-.02-.019-.021L19.8,23.7l-.017-.02-.013-.016-.024-.03-.019-.026c-.026-.035-.05-.071-.072-.108l-.015-.025-.018-.033,0-.005L19.6,23.4l-.017-.036-.018-.041-.017-.042-.011-.028q-.007-.019-.013-.038l-.008-.024-.011-.036c-.005-.019-.01-.038-.015-.057l-.007-.029c0-.015-.006-.03-.009-.045-.006-.03-.01-.06-.015-.09,0-.015,0-.03-.006-.046-.007-.061-.011-.122-.012-.184q0-.046,0-.091,0-4.584,0-9.168v-.254H19.42l-.014,0-.011,0-.011,0-.02.011-.008.006,0,0-.007.006,0,0,0,0-.012.014-.007.01-.007.01-.007.01-.007.009-.011.013,0,0-1.455,1.645-1.454,1.645-.246.277L16,17.008l-.123.138-.106.121-.01.012-.077.089h0l-.057.067-.006.007-.034.039-.019.022-.031.034-.025.026-.033.033-.028.027-.021.019,0,0-.019.017-.007.006-.016.013-.043.034-.035.026q-.04.028-.082.054l-.044.026-.044.024q-.047.024-.1.045l-.015.006L15,17.9l-.011,0-.058.021-.021.007-.053.016-.016,0-.064.015-.018,0-.065.011-.037,0h-.011l-.042,0-.035,0L14.5,18h-.053l-.033,0-.034,0h-.015l-.029,0-.022,0-.031,0-.088-.016-.04-.009-.037-.01-.022-.006-.039-.012-.036-.012h0l-.044-.016h0l-.038-.015-.005,0-.043-.019-.044-.021-.044-.022-.376-.195-.376-.194-.424-.217-.33-.168-.377-.191-.377-.191-.755-.382-1.006-.51h0c-.066-.034-.134-.065-.245-.119v.278q0,1.664,0,3.328t0,3.328c0,.083,0,.165-.01.247,0,.026-.005.052-.009.078s0,.034-.007.051l0,.021L9.5,23c0,.013,0,.026-.008.039l0,.023c0,.013-.006.027-.01.04l0,.019,0,.009-.007.024,0,.006-.011.034-.013.039q-.019.052-.041.1l-.015.033-.024.048,0,0-.024.044-.018.031-.023.037-.015.023-.02.029-.02.028q-.041.056-.087.108-.028.031-.056.06l-.025.025-.026.024q-.035.032-.071.061l-.021.016A1.415,1.415,0,0,1,8.817,24l-.021.012-.031.017-.026.014-.044.021-.026.012-.037.016-.017.007-.073.027-.036.011-.037.011-.019.005-.019,0-.007,0-.035.008-.027.005-.023,0-.04.007-.036,0-.018,0-.043,0H8.2l-.04,0H8.08a1.536,1.536,0,0,1-.158-.009,1.468,1.468,0,0,1-1.237-1.263c0-.018,0-.035-.006-.052s0-.028,0-.041,0-.037,0-.056,0-.026,0-.039h0c0-.016,0-.033,0-.049,0-.036,0-.072,0-.108q0-1.065,0-2.13h0q0-1.668,0-3.336,0-1.809,0-3.619c0-.014,0-.028,0-.042s0-.056,0-.084,0-.028,0-.042c0-.035,0-.071,0-.106s0-.07.008-.105a.008.008,0,0,1,0,0q0-.02,0-.04c0-.014,0-.028.005-.042s0-.028.006-.041.009-.055.015-.082.012-.054.019-.081.018-.063.028-.094l.011-.03c.015-.04.031-.08.048-.118l.013-.028c.009-.019.018-.037.028-.055l.03-.054.024-.039.025-.038.012-.017.012-.017.029-.039.037-.046.024-.028.035-.038.02-.021.021-.02.021-.02.021-.02.04-.034.013-.011.036-.028.025-.019.031-.022.062-.04.032-.019.072-.038.034-.017.035-.016.035-.015.028-.011.028-.01.035-.012L7.71,11.8l.032-.009h0l.035-.009.023-.005.049-.01.064-.01.038,0,.046,0h.107a1.438,1.438,0,0,1,.66.162c1.724.889,3.457,1.761,5.187,2.639.066.033.133.065.212.1h0l.039-.042.039-.041.056-.061.019-.021L19.7,8.394c.05-.056.1-.113.15-.167l.028-.028.055-.052c.019-.017.037-.033.056-.048L20,8.089l.017-.014.023-.017.027-.02.038-.026.03-.02.03-.019.031-.018.031-.017.016-.008.016-.008.025-.012c.028-.014.057-.026.086-.038l.033-.013.032-.011h0l.067-.021.051-.013.025-.006.028-.006.031-.006.069-.01.034,0,.069-.005c.031,0,.062,0,.093,0a1.263,1.263,0,0,1,.142.01l.024,0,.023,0,.07.013.023.005.023.005.046.012.045.014.023.008.021.007a1.3,1.3,0,0,1,.133.056l.021.011.064.034.024.014.027.016.02.013.032.021.04.028.039.03.019.016.025.021q.037.032.072.067l.022.022.012.013.014.015.017.019.033.039.027.033.021.028q.026.035.05.073l.016.026.025.043.012.021.017.031.018.035.022.047c.011.024.021.047.03.071s.012.032.018.047.011.032.016.048.01.032.015.048.009.032.013.049,0,.016.006.024.007.033.011.049.009.049.013.074l0,.025c0,.008,0,.017,0,.025s0,.014,0,.02q.006.053.01.106c0,.008,0,.017,0,.026,0,.026,0,.051,0,.077s0,.036,0,.054Q22.316,10.161,22.316,10.955Z" transform="translate(0 0)" fill="url(#linear-gradient)"/>
    <path id="패스_2" data-name="패스 2" d="M1611.4,807.208a1.569,1.569,0,0,1-.058.462,1.006,1.006,0,0,1-1.945-.138,2.065,2.065,0,0,1-.028-.365q0-3.259,0-6.519v-.237l-.053-.008c-.042.061-.085.122-.127.184l-2.516,3.749a2.43,2.43,0,0,1-.155.216,1.013,1.013,0,0,1-1.585-.012c-.056-.068-.1-.143-.153-.217l-2.505-3.732c-.041-.061-.085-.12-.148-.209a1.091,1.091,0,0,0-.034.148c0,.068,0,.136,0,.2q0,3.188,0,6.376a2.92,2.92,0,0,1-.017.367,1.009,1.009,0,0,1-2-.01,2.392,2.392,0,0,1-.013-.285q0-5.037,0-10.075a1.477,1.477,0,0,1,.038-.4.974.974,0,0,1,.8-.729.946.946,0,0,1,.974.377c.154.2.287.414.428.623l3.293,4.877c.042.062.086.121.146.207.056-.077.1-.139.147-.2l3.556-5.291c.053-.079.1-.16.165-.234a.992.992,0,0,1,1.1-.32,1,1,0,0,1,.69.9c0,.061,0,.122,0,.184Q1611.406,802.15,1611.4,807.208Z" transform="translate(-1567.366 -779.701)" fill="#293e62"/>
    <path id="패스_3" data-name="패스 3" d="M4394.721,804.794c.047-.028.1-.053.143-.08a4.481,4.481,0,0,0-2.153-8.4c-.729-.007-1.458,0-2.187,0-.409,0-.818,0-1.227,0a1.02,1.02,0,0,0-1.044.924,2.089,2.089,0,0,0-.008.265q0,5.007,0,10.014c0,.068,0,.136,0,.2a1.02,1.02,0,0,0,1.922.435,1.113,1.113,0,0,0,.112-.534c0-.688,0-1.376,0-2.064v-.279h.231c.524,0,1.05,0,1.574,0a.4.4,0,0,1,.321.134c.436.46.878.913,1.319,1.369.525.544,1.045,1.093,1.579,1.629a1,1,0,0,0,1.677-.418,1.016,1.016,0,0,0-.274-1.069q-.936-.957-1.87-1.917c-.051-.052-.1-.108-.144-.159C4394.708,804.815,4394.711,804.8,4394.721,804.794Zm-.033-2.576-.033.046c-.045.061-.093.119-.144.175l-.044.047-.022.023-.022.023-.068.065-.023.021-.014.013-.032.028-.056.046-.025.021-.04.03h0l-.035.026c-.024.018-.05.036-.075.053l-.029.019-.068.042-.022.013-.068.039-.028.015-.028.015-.023.012-.031.015-.043.02-.03.014-.03.013-.039.016-.033.013h0l-.039.015-.016.005-.043.015-.048.015h0l-.021.006-.008,0-.033.01-.05.013c-.074.019-.15.035-.226.046l-.016,0-.054.007-.054.006-.052,0-.072,0-.055,0c-.8.02-1.593,0-2.39,0h-.014c-.018,0-.038-.005-.068-.01l-.015,0h-.011v-4.866a1.714,1.714,0,0,1,.177-.019c.749,0,1.5-.011,2.248,0,.085,0,.169.007.252.017.042,0,.083.01.124.017a2.5,2.5,0,0,1,.469.125c.038.014.075.029.111.045l.054.024.043.02.024.012.04.02.052.028.039.022.03.018.018.011.024.015c.031.019.061.038.09.059l.041.029.029.022.029.022c.029.022.058.045.086.068l.044.038c.029.026.058.052.085.079l.042.041.04.042.04.043.036.041.01.012.029.035h0l.031.039.01.013.03.039.034.047h0c.022.032.043.064.064.1h0c.011.016.021.033.03.05s.017.027.024.041c.021.037.042.075.061.113s.034.07.049.106h0c.016.036.031.072.045.109.006.015.012.03.018.046s0,.013.006.019.009.024.013.037.012.036.017.054l.008.025h0c0,.012.007.024.01.036v0s0,.01,0,.015a.056.056,0,0,1,0,.009l.01.038s0,0,0,.006c.011.038.019.076.026.114,0,.023.009.046.013.069s0,.03.007.045h0v.022c0,.015,0,.03.006.046,0,.04.009.082.012.123,0,.021,0,.041,0,.062s0,.042,0,.063q0,.067,0,.135c0,.08-.008.159-.018.238,0,.019-.005.039-.008.058s-.006.039-.01.058-.006.038-.011.058c-.011.057-.025.114-.041.17,0,.019-.01.037-.016.056-.011.037-.022.073-.036.11-.006.018-.013.036-.02.054s-.014.036-.021.053l-.022.053c-.007.015-.013.03-.021.046l-.027.058c-.017.034-.034.068-.053.1l-.028.049C4394.774,802.093,4394.732,802.157,4394.688,802.218Z" transform="translate(-4298.578 -780.045)" fill="#293e62"/>
    <path id="패스_4" data-name="패스 4" d="M3889.269,807.353a1.023,1.023,0,0,1-.966.847c-.061,0-.122,0-.184,0h-6.458a1.823,1.823,0,0,1-.285-.016,1.016,1.016,0,0,1-.879-.979c0-.047,0-.1,0-.143q0-5.057,0-10.114a1.782,1.782,0,0,1,.027-.325,1.006,1.006,0,0,1,1-.831c.974,0,1.948,0,2.923,0q1.9,0,3.8,0a1.022,1.022,0,0,1,.087,2.041c-.081,0-.163,0-.245,0h-5.508a25.511,25.511,0,0,0-.028,2.869c.081,0,.166.014.251.014q1.8,0,3.6,0a1.749,1.749,0,0,1,.385.03,1.025,1.025,0,0,1-.19,2.016c-.075,0-.15,0-.225,0h-3.825v3.371h.254q2.677,0,5.355,0a1.447,1.447,0,0,1,.46.068A1.01,1.01,0,0,1,3889.269,807.353Z" transform="translate(-3801.214 -779.542)" fill="#293e62"/>
    <path id="패스_5" data-name="패스 5" d="M2243.41,807.568q-1.643-3.738-3.282-7.478-.611-1.393-1.222-2.785a1.012,1.012,0,0,0-1.852,0c-.017.037-.032.075-.049.112l-4.125,9.4c-.126.287-.259.571-.374.862a1.019,1.019,0,1,0,1.888.768q.479-1.1.962-2.208c.03-.068.062-.134.094-.2h5.062c.033.072.066.138.1.207q.456,1.048.912,2.1a2.22,2.22,0,0,0,.115.239,1.017,1.017,0,0,0,1.022.5,1.038,1.038,0,0,0,.853-.778A1.087,1.087,0,0,0,2243.41,807.568Zm-7.024-3.587v0a.051.051,0,0,1,0-.007.027.027,0,0,0,0-.005h0v-.009h0l0,0v-.005h0v0l0-.011a.071.071,0,0,1,0-.009h0v0l0-.011h0l0-.014h0l.005-.015v0h0l.005-.014.014-.036,0-.007h0l0-.006,0-.011.006-.016.012-.029.007-.017.012-.031s0,0,0-.006h0l.026-.063.006-.014h0v0l.005-.012v0s0-.009.005-.013h0l0-.008.009-.022.012-.031h0l0-.008.01-.024h0l.007-.016.035-.084.022-.053,0-.01.007-.017.011-.027.016-.037.058-.137.015-.035.015-.036.031-.073c.006-.012.01-.025.016-.037l.032-.075.033-.076.083-.2.052-.12c.409-.949.882-2.015.963-2.142.055.062.53,1.111.949,2.069l.053.121.035.08.034.079.017.039.1.229c.08.186.154.358.216.507.029.069.056.133.079.191l.02.048.027.066.009.02.015.038.007.018.013.033.015.042.008.023a.356.356,0,0,1,.011.038C2239.43,804.005,2236.647,804.018,2236.385,803.98Z" transform="translate(-2186.81 -780.432)" fill="#293e62"/>
    <path id="패스_6" data-name="패스 6" d="M2861.315,807.34a3.675,3.675,0,0,1-2.246,1.311,4.533,4.533,0,0,1-2.857-.3,3.6,3.6,0,0,1-2.125-2.922c-.017-.121-.011-.245-.018-.367a1.011,1.011,0,0,1,.977-1.047,1.029,1.029,0,0,1,1.059,1,2.193,2.193,0,0,0,.1.579,1.591,1.591,0,0,0,1.137,1.024,2.687,2.687,0,0,0,1.649-.042,1.645,1.645,0,0,0,1.089-1.879.968.968,0,0,0-.427-.671,3.155,3.155,0,0,0-.63-.33c-.5-.178-1.011-.323-1.514-.49-.387-.129-.776-.258-1.153-.413a3.7,3.7,0,0,1-1.189-.78,2.77,2.77,0,0,1-.837-1.772,3.425,3.425,0,0,1,.68-2.462,3.48,3.48,0,0,1,2.284-1.344c.267-.047.541-.06.688-.076a4.054,4.054,0,0,1,2.574.774,3.363,3.363,0,0,1,1.355,2.737,1.022,1.022,0,0,1-2.044.013,1.458,1.458,0,0,0-1.285-1.442,2.461,2.461,0,0,0-1.192.06,1.425,1.425,0,0,0-1.037,1.524.774.774,0,0,0,.324.61,2.349,2.349,0,0,0,.514.288c.485.177.977.339,1.471.492a10.936,10.936,0,0,1,1.4.5,4.143,4.143,0,0,1,1.119.743,3.028,3.028,0,0,1,.939,1.986A3.637,3.637,0,0,1,2861.315,807.34Z" transform="translate(-2795.75 -780.091)" fill="#293e62"/>
    <path id="패스_7" data-name="패스 7" d="M3336.863,797.452a.986.986,0,0,1-.962.954c-.865.014-1.73,0-2.6.006h-.27v9.128c0,.075,0,.15,0,.225a1.029,1.029,0,0,1-2.057-.017c0-.082,0-.163,0-.245v-9.074c-.091-.006-.169-.016-.247-.016-.824,0-1.649,0-2.473,0a1.461,1.461,0,0,1-.364-.035,1,1,0,0,1-.744-1.062,1.018,1.018,0,0,1,.972-.933c.068-.005.136,0,.2,0h7.357a2.045,2.045,0,0,1,.345.024A1,1,0,0,1,3336.863,797.452Z" transform="translate(-3259.159 -780.116)" fill="#293e62"/>
    <path id="패스_8" data-name="패스 8" d="M4288.125,252.621c-.109.372-.23.741-.348,1.11q-1.078,3.384-2.159,6.768a1.532,1.532,0,0,1-.07.192.473.473,0,0,1-.417.285.458.458,0,0,1-.448-.229,1.442,1.442,0,0,1-.111-.24q-.945-2.349-1.887-4.7c-.032-.079-.067-.157-.1-.235l-.042,0c-.028.066-.056.132-.083.2l-1.911,4.756a1.792,1.792,0,0,1-.081.187.508.508,0,0,1-.905-.027,2.478,2.478,0,0,1-.106-.309q-1.2-3.785-2.4-7.57a2,2,0,0,1-.065-.236.54.54,0,0,1,.344-.6.532.532,0,0,1,.625.3,1.522,1.522,0,0,1,.06.174l1.961,6.189c.024.077.053.153.1.28.048-.109.081-.176.109-.246q.918-2.3,1.834-4.61a1.813,1.813,0,0,1,.081-.188.492.492,0,0,1,.469-.271.462.462,0,0,1,.439.281c.071.155.131.314.194.472l1.733,4.321c.027.066.059.13.108.238.04-.11.066-.178.088-.246l1.966-6.208c.017-.052.03-.1.051-.155a.525.525,0,0,1,.625-.331A.534.534,0,0,1,4288.125,252.621Z" transform="translate(-4189.595 -246.799)" fill="#293e62"/>
    <path id="패스_9" data-name="패스 9" d="M2481.734,257.29a.527.527,0,0,0,.575-.571,5.15,5.15,0,0,0-.405-2.049,3.843,3.843,0,0,0-4.237-2.375,3.731,3.731,0,0,0-2.785,1.936,5.037,5.037,0,0,0-.416,4.087,4.036,4.036,0,0,0,4.187,2.944,3.94,3.94,0,0,0,3.226-1.98.529.529,0,0,0,.037-.073.523.523,0,1,0-.948-.44,2.907,2.907,0,0,1-3.053,1.407,3.177,3.177,0,0,1-2.628-2.885h5.651C2481.2,257.291,2481.468,257.294,2481.734,257.29Zm-.992-1.072h-.544l-.592.005H2478l-.994,0H2477l-.333,0h-.318l-.225,0h-.134l-.145,0h-.2l-.135,0-.048,0h-.015l-.044,0h-.1l-.019,0h0c0-.009,0-.018,0-.028s0-.01,0-.015,0-.036.007-.055,0-.028.006-.041,0-.038.008-.056,0-.019,0-.028l.006-.032c.009-.045.018-.089.028-.133q.007-.033.015-.065c0-.019.009-.038.014-.057q.014-.057.031-.113h0q.032-.112.071-.22h0l.02-.054c.008-.023.017-.046.026-.068l.034-.082.023-.053v0l.025-.055.011-.022.018-.036.013-.027.023-.045.008-.015.024-.044c.014-.027.03-.054.045-.08s.045-.075.068-.111a3.249,3.249,0,0,1,.322-.422l.046-.05.047-.049.048-.049a2.9,2.9,0,0,1,2.028-.809h.1l.105.006.027,0,.119.012.044.006.044.006c.073.011.146.025.219.042l.039.009.021.006.034.009.067.019.027.008.07.022.037.013a2.775,2.775,0,0,1,.3.124l.041.02.036.019q.066.035.13.073l.072.045q.06.038.118.08l.073.054.044.034.03.024.043.036.029.026.03.027.01.009.031.029.034.034.035.034.034.035.033.036.027.03.008.009.03.034.032.038.063.078c.021.027.041.054.06.081.039.055.078.113.114.172q.028.045.054.091l.046.084.044.084.021.043c.021.043.041.085.06.129l.019.043c.012.029.025.058.036.087l.021.056v0c.007.019.014.037.02.056l.015.043.021.064.012.038c0,.012.007.024.011.036l.016.054c.006.021.012.042.017.063l.012.046c0,.011.006.021.008.032.013.053.025.106.035.159,0,.02.008.04.012.06s0,.026.007.04,0,.012,0,.019.005.031.008.047l0,.03c0,.014,0,.027.006.04s.007.047.01.071a.233.233,0,0,1-.007.057h-.209l-.077,0-.069,0Z" transform="translate(-2423.659 -247.091)" fill="#293e62"/>
    <path id="패스_10" data-name="패스 10" d="M3809.054,257.561a.547.547,0,0,0,.622-.63,5.129,5.129,0,0,0-.4-1.969,3.915,3.915,0,0,0-6.936-.621,4.6,4.6,0,0,0-.709,2.045,4.969,4.969,0,0,0,.427,2.788,4.063,4.063,0,0,0,7.1.518,1.172,1.172,0,0,0,.137-.249.526.526,0,0,0-.248-.647.5.5,0,0,0-.653.154,1.208,1.208,0,0,0-.078.12,3.022,3.022,0,0,1-4.711.525,3.461,3.461,0,0,1-.907-1.709c-.021-.1-.033-.2-.054-.326h6.416Zm-6.4-1.2.013-.077c0-.019.007-.038.011-.057s.007-.038.011-.057.008-.038.012-.057.008-.038.013-.057.012-.049.018-.073.011-.044.017-.065.011-.042.018-.063.007-.025.011-.037l.013-.042c0-.011.007-.022.01-.033l.016-.048c0-.015.01-.03.016-.045s.019-.054.029-.081l.011-.029c.013-.034.026-.068.041-.1,0,0,0,0,0,0,.007-.017.014-.033.021-.05s.025-.057.038-.085l.013-.027c.006-.014.013-.028.021-.042v0l.021-.042.024-.045.027-.049.02-.034c.02-.036.042-.071.064-.107l.029-.046.03-.046.032-.045c.011-.017.024-.034.037-.051l.028-.038.034-.044.007-.008.028-.035.036-.044.033-.038,0,0,.037-.042.078-.083.04-.041c.028-.028.056-.055.085-.081l.058-.053a2.679,2.679,0,0,1,.36-.268l.111-.065a2.974,2.974,0,0,1,1.484-.369h.049a2.946,2.946,0,0,1,.437.046l.064.013.067.015c.043.01.087.021.13.033l.042.012c.043.013.086.027.129.042l.084.031.042.017.083.036.041.019c.056.026.111.054.165.084l.034.019q.083.047.164.1l.037.025.039.027h0l.036.027.037.028.035.027c.038.03.076.062.112.095l.035.032.034.031a2.863,2.863,0,0,1,.322.364l.012.016c.037.05.072.1.107.155l.032.05.031.051.027.046.021.038c.021.038.041.077.061.116.007.013.013.026.019.039l.02.039c.006.013.012.026.019.039l.026.058.009.021.024.06c.033.08.063.161.09.243.005.015.01.03.015.045l.011.036a.161.161,0,0,1,.006.021q.008.025.015.05c.009.028.017.057.024.086,0,.01.005.02.008.03s.011.044.016.066.006.024.008.036.008.033.011.049.005.023.007.035.009.045.014.067c0,0,0,.009,0,.014s.006.032.009.048a.184.184,0,0,1,0,.023c0,.014.005.029.007.043a.729.729,0,0,1,.008.122s0,.01,0,.015,0,.01,0,.016a.077.077,0,0,1,0,.009c0,.007,0,.014-.006.022a.047.047,0,0,0,0,.008h-5.92A.653.653,0,0,1,3802.654,256.361Z" transform="translate(-3723.922 -247.362)" fill="#293e62"/>
    <path id="패스_11" data-name="패스 11" d="M1743.11,260.49a1.126,1.126,0,0,1-.024.243.484.484,0,0,1-.485.387.489.489,0,0,1-.489-.409,1.682,1.682,0,0,1-.016-.285q0-2.2,0-4.394a3.387,3.387,0,0,0-.234-1.339,2.314,2.314,0,0,0-1.75-1.5,2.447,2.447,0,0,0-2.508.97,2.72,2.72,0,0,0-.576,1.567c-.009.156-.01.313-.01.47q0,2.115,0,4.231a1.51,1.51,0,0,1-.022.3.5.5,0,0,1-.973-.018,1.4,1.4,0,0,1-.016-.244q0-3.863,0-7.726a1.7,1.7,0,0,1,.006-.184.5.5,0,0,1,1,0c.014.128.007.259.01.388,0,.073.006.145.011.263l.189-.173a3.538,3.538,0,0,1,3.975-.567,3.465,3.465,0,0,1,1.726,2.157,4.565,4.565,0,0,1,.192,1.371Q1743.113,258.242,1743.11,260.49Z" transform="translate(-1700.53 -246.942)" fill="#293e62"/>
    <path id="패스_12" data-name="패스 12" d="M3233.353,252.575a1.44,1.44,0,0,1-.062.173q-1.533,3.906-3.065,7.813a.517.517,0,0,1-.429.384.509.509,0,0,1-.555-.356c-.155-.385-.3-.773-.454-1.16q-1.311-3.357-2.622-6.715a.968.968,0,0,1-.062-.194.508.508,0,0,1,.367-.583.48.48,0,0,1,.6.295c.21.517.411,1.038.615,1.557q.967,2.461,1.934,4.922c.029.074.063.146.095.219h.047c.035-.087.071-.174.105-.262l2.48-6.309c.015-.038.029-.076.045-.114a.49.49,0,0,1,.611-.307A.533.533,0,0,1,3233.353,252.575Z" transform="translate(-3160.175 -246.77)" fill="#293e62"/>
    <path id="패스_13" data-name="패스 13" d="M2164.4,152.954a.865.865,0,0,1-.154.214,2.081,2.081,0,0,1-3.135-.129,2.216,2.216,0,0,1-.488-1.441q0-2.739,0-5.478v-.287c-.171,0-.318.006-.466,0a.519.519,0,0,1-.488-.671.5.5,0,0,1,.483-.369c.136,0,.272,0,.408-.008.012,0,.024-.011.053-.027,0-.063.009-.136.009-.209,0-.45,0-.9,0-1.349a1.156,1.156,0,0,1,.017-.223.51.51,0,0,1,1.011.033,1.353,1.353,0,0,1,.006.184q0,.674,0,1.349v.238c.093,0,.166.01.239.01q.787,0,1.574,0a.508.508,0,0,1,.508.308.519.519,0,0,1-.441.731c-.109.01-.218,0-.327,0h-1.538c-.006.076-.015.128-.015.181q0,2.821,0,5.641a1.076,1.076,0,0,0,.853,1.08,1,1,0,0,0,.944-.259c.04-.037.073-.08.113-.118a.494.494,0,0,1,.651-.073A.521.521,0,0,1,2164.4,152.954Z" transform="translate(-2115.519 -139.631)" fill="#293e62"/>
    <path id="패스_14" data-name="패스 14" d="M2953.9,253.408a3.354,3.354,0,0,0-.586.071,2.515,2.515,0,0,0-1.819,1.817,3.068,3.068,0,0,0-.13.927q0,2.248,0,4.5a1.9,1.9,0,0,1,0,.2.506.506,0,0,1-.525.466.5.5,0,0,1-.479-.489c0-.061,0-.123,0-.184q0-3.842,0-7.683c0-.061,0-.123,0-.184a.5.5,0,0,1,1.006-.008c.01.156,0,.313,0,.47a.632.632,0,0,0,.022.1l.179-.159a3.411,3.411,0,0,1,2.313-.884.5.5,0,0,1,.514.357A.525.525,0,0,1,2953.9,253.408Z" transform="translate(-2890.063 -247.211)" fill="#293e62"/>
    <path id="패스_15" data-name="패스 15" d="M3665.31,253q0,3.84,0,7.679a1.8,1.8,0,0,1-.009.224.5.5,0,0,1-.492.453.519.519,0,0,1-.522-.451,1.492,1.492,0,0,1-.005-.2q0-1.94,0-3.881t0-3.86a.92.92,0,0,1,.04-.3.507.507,0,0,1,.978.115A1.714,1.714,0,0,1,3665.31,253Z" transform="translate(-3589.401 -247.174)" fill="#293e62"/>
    <path id="패스_16" data-name="패스 16" d="M1603.847,260.938a.5.5,0,0,1-.489.456.513.513,0,0,1-.522-.448,1.625,1.625,0,0,1-.006-.2q0-3.87,0-7.74a1.586,1.586,0,0,1,0-.184.52.52,0,0,1,.525-.447.5.5,0,0,1,.489.459c.007.074,0,.15,0,.225q0,1.92,0,3.839,0,1.9,0,3.8A2.407,2.407,0,0,1,1603.847,260.938Z" transform="translate(-1570.075 -247.215)" fill="#293e62"/>
    <path id="패스_17" data-name="패스 17" d="M3663.244,155.338a.563.563,0,0,1-1.125-.015.563.563,0,1,1,1.125.015Z" transform="translate(-3587.284 -151.595)" fill="#293e62"/>
    <path id="패스_18" data-name="패스 18" d="M1601.709,155.319a.547.547,0,0,1-.546.564.554.554,0,0,1-.572-.541.572.572,0,0,1,.558-.582A.565.565,0,0,1,1601.709,155.319Z" transform="translate(-1567.884 -151.596)" fill="#293e62"/>
    <path id="패스_19" data-name="패스 19" d="M328.654,388.351v.278q0,3.326,0,6.651a1.844,1.844,0,0,1-.093.642,1.434,1.434,0,0,1-1.52.956,1.468,1.468,0,0,1-1.237-1.262,2.849,2.849,0,0,1-.02-.346q0-4.539,0-9.079a2.591,2.591,0,0,1,.066-.666,1.419,1.419,0,0,1,2.036-.917c1.724.888,3.457,1.759,5.187,2.637.066.034.133.065.213.1.053-.057.1-.11.153-.165l5.383-6.087c.05-.056.1-.113.15-.167a1.4,1.4,0,0,1,2.295.35,1.737,1.737,0,0,1,.169.789q0,6.345-.006,12.69a5.688,5.688,0,0,1-.041.935,1.43,1.43,0,0,1-1.484,1.191,1.455,1.455,0,0,1-1.295-1.1,2.069,2.069,0,0,1-.05-.484q0-4.58,0-9.16c0-.081,0-.162,0-.254-.092,0-.119.069-.16.114q-1.456,1.643-2.909,3.287c-.262.3-.529.587-.783.888a1.423,1.423,0,0,1-1.791.34c-1.335-.693-2.68-1.366-4.021-2.047C328.833,388.436,328.766,388.4,328.654,388.351Z" transform="translate(-319.121 -372.696)" fill="#fff"/>
    <path id="패스_20" data-name="패스 20" d="M329.048,382.066a1.538,1.538,0,0,1-.523,1.161,1.369,1.369,0,0,1-1.9-.065,1.553,1.553,0,0,1-.039-2.129,1.325,1.325,0,0,1,1.336-.42,1.4,1.4,0,0,1,1.057,1.032A3.3,3.3,0,0,1,329.048,382.066Z" transform="translate(-319.509 -372.796)" fill="#65b1e3"/>
    <rect id="사각형_2" data-name="사각형 2" height="4.866" transform="translate(91.715 18.323)" fill="#293e62"/>
    <path id="패스_21" data-name="패스 21" d="M2426.084,1117.8c.005-.041.121-.329.289-.728-.167.4-.284.688-.289.728Z" transform="translate(-2376.507 -1094.245)" fill="#293e62"/>
    <path id="패스_22" data-name="패스 22" d="M2443.744,1101.667l.062-.146Z" transform="translate(-2393.806 -1079.012)" fill="#293e62"/>
    <path id="패스_23" data-name="패스 23" d="M2526.244,435.094c.01-.073.018-.148.031-.223-.012.074-.02.15-.03.223Z" transform="translate(-2474.62 -425.985)" fill="#293e62"/>
    <path id="패스_24" data-name="패스 24" d="M2527.76,426.955c.009-.045.018-.089.028-.133-.01.044-.019.088-.028.133l-.006.032C2527.756,426.976,2527.758,426.965,2527.76,426.955Z" transform="translate(-2476.099 -418.1)" fill="#293e62"/>
    <path id="패스_25" data-name="패스 25" d="M2530.154,402.346a3.8,3.8,0,0,1,.136-.444A3.914,3.914,0,0,0,2530.154,402.346Z" transform="translate(-2478.45 -393.689)" fill="#293e62"/>
    <path id="패스_26" data-name="패스 26" d="M2549.2,370.461q-.035.055-.068.111C2549.156,370.535,2549.179,370.5,2549.2,370.461Z" transform="translate(-2497.042 -362.891)" fill="#293e62"/>
    <path id="패스_27" data-name="패스 27" d="M2578.344,447.141h0Z" transform="translate(-2525.655 -438.004)" fill="#293e62"/>
    <path id="패스_28" data-name="패스 28" d="M2593.9,447.262l.333,0Z" transform="translate(-2540.898 -438.122)" fill="#293e62"/>
    <path id="패스_29" data-name="패스 29" d="M2659.274,447.422h0Z" transform="translate(-2604.932 -438.278)" fill="#293e62"/>
    <path id="패스_30" data-name="패스 30" d="M2610.684,447.362l.994,0Z" transform="translate(-2557.335 -438.22)" fill="#293e62"/>
    <path id="패스_31" data-name="패스 31" d="M3864.274,395.352c.013-.034.026-.068.041-.1C3864.3,395.284,3864.287,395.318,3864.274,395.352Z" transform="translate(-3785.324 -387.174)" fill="#293e62"/>
    <path id="패스_32" data-name="패스 32" d="M3894.9,346q.037-.042.077-.083Z" transform="translate(-3815.328 -338.852)" fill="#293e62"/>
  </g>
</svg>
