<svg xmlns="http://www.w3.org/2000/svg" width="12.844" height="12.844" viewBox="0 0 12.844 12.844"><defs><style>.a{fill:#999;}</style></defs><path class="a" d="M-2056.827,467.14v-1.085a1.214,1.214,0,0,0,.047-.162,6.287,6.287,0,0,1,4.532-5.376,11.6,11.6,0,0,1,1.358-.284h.97a1.873,1.873,0,0,0,.191.046,6.261,6.261,0,0,1,5.395,4.347,11.731,11.731,0,0,1,.351,1.657v.856c-.016.072-.038.143-.048.215a6.281,6.281,0,0,1-4.263,5.348,11.836,11.836,0,0,1-1.625.374h-.97a1.44,1.44,0,0,0-.192-.046,6.346,6.346,0,0,1-5.464-4.537C-2056.675,468.054-2056.735,467.592-2056.827,467.14Zm12.013-.66a5.6,5.6,0,0,0-6.261-5.386,5.61,5.61,0,0,0-4.894,6.232,5.606,5.606,0,0,0,6.24,4.885A5.6,5.6,0,0,0-2044.814,466.48Z" transform="translate(2056.827 -460.233)"/><path class="a" d="M-1979.6,493.471c0,.664.011,1.328-.007,1.991a.885.885,0,0,1-.161.5c-.536.667-1.091,1.319-1.652,1.965a.544.544,0,0,1-.354.2.54.54,0,0,1-.371-.209c-.124-.176-.044-.363.092-.523.485-.572.974-1.141,1.444-1.726a.8.8,0,0,0,.165-.46c.013-1.26.008-2.521.007-3.781,0-.251.054-.466.342-.52s.489.132.493.482C-1979.6,492.086-1979.6,492.779-1979.6,493.471Z" transform="translate(1986.457 -489.131)"/></svg>