<svg id="img_highlight_marker" xmlns="http://www.w3.org/2000/svg" xmlns:xlink="http://www.w3.org/1999/xlink" width="25" height="25" viewBox="0 0 25 25">
  <defs>
    <linearGradient id="linear-gradient" x1="0.863" y1="0.141" x2="0" y2="1" gradientUnits="objectBoundingBox">
      <stop offset="0" stop-color="#21e5db"/>
      <stop offset="1" stop-color="#1379df"/>
    </linearGradient>
  </defs>
  <path id="패스_1902" data-name="패스 1902" d="M6.18,12.437l7.18,7.84a.5.5,0,0,0,.336.138.36.36,0,0,0,.273-.113l.018-.02,9.782-12.5a.717.717,0,0,0,.157-.438A.506.506,0,0,0,23.8,7l-5.211-5.69a.4.4,0,0,0-.305-.136.646.646,0,0,0-.421.176L6.137,11.73l-.022.024a.405.405,0,0,0-.094.278.62.62,0,0,0,.12.364l.039.04ZM19.771,8.4a.51.51,0,0,1,.763,0,.631.631,0,0,1,0,.833L15.342,14.9a.51.51,0,0,1-.763,0,.631.631,0,0,1,0-.833L19.771,8.4ZM16.65,5a.51.51,0,0,1,.763,0,.631.631,0,0,1,0,.833L12.223,11.5a.51.51,0,0,1-.763,0,.631.631,0,0,1,0-.833L16.65,5ZM6.237,23.505,5.026,24.827a.51.51,0,0,1-.472.164L.483,24.5a.579.579,0,0,1-.476-.649A.612.612,0,0,1,.162,23.5h0L3.2,20.186l-.218-.238a.631.631,0,0,1,0-.833l.954-1.042,0,0,.014-.016a1.025,1.025,0,0,0,.11-.138,1.118,1.118,0,0,0,.087-.167A5.97,5.97,0,0,0,4.2,15.616h0c-.018-.213-.033-.411-.041-.547a2.445,2.445,0,0,1,1.036-2.113,1.9,1.9,0,0,1-.242-.913,1.624,1.624,0,0,1,.4-1.12c.026-.029.061-.062.106-.1L17.183.442A1.664,1.664,0,0,1,18.282,0,1.426,1.426,0,0,1,19.35.48L24.56,6.17A1.722,1.722,0,0,1,25,7.345a1.959,1.959,0,0,1-.417,1.2L14.8,21.046c-.031.04-.057.071-.073.089a1.379,1.379,0,0,1-1.044.453,1.509,1.509,0,0,1-.828-.26c-.515.631-1.036,1.255-1.935,1.131-.185-.011-.338-.027-.5-.042v0a4.565,4.565,0,0,0-1.959.056.892.892,0,0,0-.153.1.913.913,0,0,0-.108.1.277.277,0,0,1-.033.038l-.954,1.042a.51.51,0,0,1-.763,0l-.218-.24ZM4.121,19.529l.218.238,2.279,2.488.218.238.588-.642a2.033,2.033,0,0,1,.262-.247,2.148,2.148,0,0,1,.326-.207,5.02,5.02,0,0,1,2.5-.156v0c.2.02.385.038.488.044l.045,0c.352.051.686-.355,1.017-.762L5.92,13.819c-.372.362-.747.729-.7,1.113l0,.047c.01.191.024.358.039.533h0a6.531,6.531,0,0,1-.144,2.733,2.263,2.263,0,0,1-.189.355,2.035,2.035,0,0,1-.242.3l0,0-.574.624Z" transform="translate(-0.004)" fill="url(#linear-gradient)"/>
</svg>
