<svg xmlns="http://www.w3.org/2000/svg" xmlns:xlink="http://www.w3.org/1999/xlink" width="47" height="47" viewBox="0 0 47 47"><defs><style>.a{fill:none;}.b{stroke:#fff;stroke-width:2px;fill:url(#a);}.c{clip-path:url(#b);}.d{fill:#d7ecff;}.d,.e,.g,.h{isolation:isolate;}.e{fill:#fbfcfe;}.f{fill:#fff;}.g{fill:#d6ecff;}.h{fill:#5673b1;}</style><linearGradient id="a" x1="0.793" y1="0.126" x2="0.114" y2="0.81" gradientUnits="objectBoundingBox"><stop offset="0" stop-color="#1489dd"/><stop offset="1" stop-color="#24ffda"/></linearGradient><clipPath id="b"><circle class="a" cx="22.5" cy="22.5" r="22.5"/></clipPath></defs><g transform="translate(1 1)"><circle class="b" cx="22.5" cy="22.5" r="22.5" transform="translate(0)"/><g transform="translate(0 0)"><g class="c"><g transform="translate(9.642 9.98)"><rect class="d" width="6.395" height="6.655" transform="translate(9.73 21.114)"/><path class="e" d="M-660.072,421.747a8.235,8.235,0,0,1,8.1-8.368,8.235,8.235,0,0,1,8.1,8.368Z" transform="translate(664.903 -386.721)"/><path class="f" d="M-652.25,337.155a8.284,8.284,0,0,0-7.617-5.026h-.8a2.722,2.722,0,0,0-2.136-1.443V328.15a1.361,1.361,0,0,0,1.089-1.333,1.361,1.361,0,0,0-1.361-1.36,1.361,1.361,0,0,0-1.361,1.36,1.361,1.361,0,0,0,1.089,1.333v2.536a2.721,2.721,0,0,0-2.136,1.443h-.944a8.285,8.285,0,0,0-7.617,5.026,2.722,2.722,0,0,0-1.959,2.611,2.719,2.719,0,0,0,1.486,2.422,8.284,8.284,0,0,0,8.09,6.507h6.565a8.284,8.284,0,0,0,8.09-6.507,2.719,2.719,0,0,0,1.486-2.422A2.722,2.722,0,0,0-652.25,337.155Z" transform="translate(676.007 -325.456)"/><rect class="g" width="17.008" height="8.572" rx="4.286" transform="translate(4.423 10.67)"/><ellipse class="h" cx="1.361" cy="1.361" rx="1.361" ry="1.361" transform="translate(7.821 13.595)"/><ellipse class="h" cx="1.361" cy="1.361" rx="1.361" ry="1.361" transform="translate(15.313 13.595)"/><path class="d" d="M-673.422,355.748h0a7.992,7.992,0,0,1,7.934-8.283h-.944a8.284,8.284,0,0,0-7.617,5.026,2.722,2.722,0,0,0-1.959,2.611,2.719,2.719,0,0,0,1.486,2.422,8.284,8.284,0,0,0,8.09,6.507h1.293A8.283,8.283,0,0,1-673.422,355.748Z" transform="translate(676.007 -340.792)"/></g></g></g></g></svg>