<svg xmlns="http://www.w3.org/2000/svg" width="56" height="56" viewBox="0 0 56 56"><defs><style>.a{fill:#fff;}.b{fill:#137dde;}</style></defs><g transform="translate(-1541 -115)"><circle class="a" cx="28" cy="28" r="28" transform="translate(1541 115)"/><g transform="translate(1555.754 129.977)"><path class="b" d="M22.946,18.807h-3.2a.534.534,0,1,1,0-1.067h3.2a1.6,1.6,0,0,0,1.6-1.6V8.668a1.6,1.6,0,0,0-1.6-1.6H2.668a1.6,1.6,0,0,0-1.6,1.6v7.471a1.6,1.6,0,0,0,1.6,1.6h3.2a.534.534,0,1,1,0,1.067h-3.2A2.671,2.671,0,0,1,0,16.139V8.668A2.671,2.671,0,0,1,2.668,6H22.946a2.671,2.671,0,0,1,2.668,2.668v7.471A2.671,2.671,0,0,1,22.946,18.807Z" transform="translate(0 0.404)"/><path class="b" d="M14.937,21.067h-6.4a.534.534,0,1,1,0-1.067h6.4a.534.534,0,1,1,0,1.067Z" transform="translate(0.538 1.345)"/><path class="b" d="M14.937,19.067h-6.4a.534.534,0,0,1,0-1.067h6.4a.534.534,0,0,1,0,1.067Z" transform="translate(0.538 1.211)"/><path class="b" d="M10.668,17.067H8.534a.534.534,0,1,1,0-1.067h2.135a.534.534,0,1,1,0,1.067Z" transform="translate(0.538 1.076)"/><path class="b" d="M19.408,7.471a.534.534,0,0,1-.534-.534V2.668a1.6,1.6,0,0,0-1.6-1.6H7.668a1.6,1.6,0,0,0-1.6,1.6V6.937A.534.534,0,1,1,5,6.937V2.668A2.671,2.671,0,0,1,7.668,0h9.605a2.671,2.671,0,0,1,2.668,2.668V6.937A.534.534,0,0,1,19.408,7.471Z" transform="translate(0.336)"/><path class="b" d="M17.273,24.74H7.668A2.671,2.671,0,0,1,5,22.072V13.534A.534.534,0,0,1,5.534,13H19.408a.534.534,0,0,1,.534.534v8.538A2.671,2.671,0,0,1,17.273,24.74ZM6.067,14.067v8a1.6,1.6,0,0,0,1.6,1.6h9.605a1.6,1.6,0,0,0,1.6-1.6v-8Z" transform="translate(0.336 0.874)"/></g></g></svg>