<svg xmlns="http://www.w3.org/2000/svg" width="11.367" height="15.381" viewBox="0 0 11.367 15.381"><defs><style>.a{fill:#999;}</style></defs><path class="a" d="M-1795.885,490.486c-.007-.264-.013-.527-.018-.79a1.368,1.368,0,0,0-.561-1.117,1.524,1.524,0,0,0-1.36-.185l-.037.012a.451.451,0,0,1-.1.025s-.017-.006-.049-.051a1.389,1.389,0,0,0-1.746-.519l-.037.015-.013.005a1.45,1.45,0,0,0-1.64-.644v-.216q0-.455,0-.909c0-.708,0-1.44,0-2.161a1.407,1.407,0,0,0-1.072-1.4,1.443,1.443,0,0,0-1.605.647,1.725,1.725,0,0,0-.22.935q0,2.077,0,4.154v.8c-.041-.085-.082-.169-.124-.253a1.462,1.462,0,0,0-1.981-.712,1.451,1.451,0,0,0-.621,1.968l.521,1.111c.326.7.663,1.415,1,2.121.116.244.228.5.336.744a11.3,11.3,0,0,0,.919,1.793,4.337,4.337,0,0,0,3.742,2.022,5.813,5.813,0,0,0,.857-.066,4.533,4.533,0,0,0,3.746-3.91A26.673,26.673,0,0,0-1795.885,490.486Zm-7.412.812c0-.025,0-.05,0-.075q0-1.527,0-3.054v-1.685q0-1.2,0-2.4a.622.622,0,0,1,.145-.453.359.359,0,0,1,.271-.094c.105,0,.385.011.385.535q0,1.4,0,2.807v1.43c0,.028,0,.056,0,.084a1.875,1.875,0,0,0,.007.257.531.531,0,0,0,.522.506.5.5,0,0,0,.534-.493.554.554,0,0,1,.045-.177.369.369,0,0,1,.407-.255.355.355,0,0,1,.354.349c.009.1.011.2.013.311s.005.249.019.375a.486.486,0,0,0,.514.449h.01a.481.481,0,0,0,.5-.41l.01-.055c.008-.047.015-.09.026-.132a.378.378,0,0,1,.417-.33c.079,0,.321.011.384.371a2.071,2.071,0,0,1,.015.4c0,.058,0,.116,0,.174a.493.493,0,0,0,.479.538.5.5,0,0,0,.562-.452c.005-.029.01-.057.014-.086a.381.381,0,0,1,.436-.38c.227,0,.375.191.377.475,0,.522,0,1.054,0,1.568,0,.584,0,1.188,0,1.783a3.286,3.286,0,0,1-.235,1.274,3.569,3.569,0,0,1-3.024,2.379,3.425,3.425,0,0,1-3.289-1.458,2.832,2.832,0,0,1-.325-.611c-.036-.084-.073-.169-.112-.252-.67-1.417-1.383-2.927-2.243-4.752-.086-.182-.187-.51.1-.658a.405.405,0,0,1,.186-.051.292.292,0,0,1,.092.015.645.645,0,0,1,.331.356c.248.507.49,1.027.725,1.53l.233.5.024.052c.1.226.26.568.69.473C-1803.286,491.884-1803.293,491.517-1803.3,491.3Z" transform="translate(1807.227 -482.504)"/></svg>