<svg xmlns="http://www.w3.org/2000/svg" xmlns:xlink="http://www.w3.org/1999/xlink" width="40" height="40" viewBox="0 0 40 40">
  <defs>
    <clipPath id="clip-path">
      <rect id="사각형_26137" data-name="사각형 26137" width="24" height="24" transform="translate(-20689 -23220)" fill="#fff"/>
    </clipPath>
  </defs>
  <g id="img_profile" transform="translate(-1492 -30)">
    <circle id="타원_544" data-name="타원 544" cx="20" cy="20" r="20" transform="translate(1492 30)" fill="#ebebeb"/>
    <g id="img_company" transform="translate(22189 23258)" clip-path="url(#clip-path)">
      <g id="그룹_19965" data-name="그룹 19965" transform="translate(-21909.426 -24785.75)">
        <rect id="사각형_26135" data-name="사각형 26135" width="5.403" height="2.255" transform="translate(1227.881 1567.75)" fill="#fff"/>
        <rect id="사각형_26136" data-name="사각형 26136" width="15.791" height="1.258" transform="translate(1224.427 1586.121)" fill="#fff"/>
        <path id="패스_9340" data-name="패스 9340" d="M1227.971,1572.021V1589.4h12.049v-17.375Zm3.034,1.32h1.864v1.863h-1.864Zm0,3.136h1.864v1.863h-1.864Zm0,3.136h1.864v1.863h-1.864Zm5.109,8.524h-4.238v-5.058h4.238Zm.87-6.661h-1.863v-1.863h1.863Zm0-3.136h-1.863v-1.863h1.863Zm0-3.136h-1.863v-1.863h1.863Z" transform="translate(-1.673 -2.016)" fill="#fff"/>
      </g>
    </g>
  </g>
</svg>
