<svg xmlns="http://www.w3.org/2000/svg" xmlns:xlink="http://www.w3.org/1999/xlink" width="16" height="16" viewBox="0 0 16 16">
  <defs>
    <clipPath id="clip-path">
      <rect id="사각형_70" data-name="사각형 70" width="16" height="16" transform="translate(641 21)" fill="#333" stroke="#707070" stroke-width="1"/>
    </clipPath>
  </defs>
  <g id="icon_resize" transform="translate(-641 -21)" clip-path="url(#clip-path)">
    <g id="resize" transform="translate(641 21)">
      <path id="패스_9252" data-name="패스 9252" d="M5.656,10.344h4.687V5.656H5.656Zm.937-3.75H9.406V9.406H6.594Z"/>
      <path id="패스_9253" data-name="패스 9253" d="M1.907,12.219H3.119L0,15.337.663,16l3.119-3.119v1.212h.937V11.281H1.907Z"/>
      <path id="패스_9254" data-name="패스 9254" d="M14.093,3.781H12.881L16,.663,15.337,0,12.219,3.119V1.907h-.937V4.719h2.812Z"/>
      <path id="패스_9255" data-name="패스 9255" d="M3.781,3.119.663,0,0,.663,3.119,3.781H1.907v.937H4.719V1.907H3.781Z"/>
      <path id="패스_9256" data-name="패스 9256" d="M14.093,12.219v-.937H11.281v2.812h.937V12.881L15.337,16,16,15.337l-3.119-3.119Z"/>
    </g>
  </g>
</svg>
