<svg xmlns="http://www.w3.org/2000/svg" xmlns:xlink="http://www.w3.org/1999/xlink" width="15" height="15" viewBox="0 0 15 15"><defs><style>.a,.c{fill:#fff;}.a{stroke:#fff;}.b{clip-path:url(#a);}</style><clipPath id="a"><rect class="a" width="15" height="15"/></clipPath></defs><g transform="translate(-32.04 -648.04)"><g class="b" transform="translate(32.04 648.04)"><g transform="translate(0 0)"><path class="c" d="M7.031,14.062H.938V.938H7.031a.469.469,0,0,0,0-.937H.469A.469.469,0,0,0,0,.469V14.531A.469.469,0,0,0,.469,15H7.031a.469.469,0,0,0,0-.937Z" transform="translate(0 0)"/><path class="c" d="M15.083,7.423,11.848,4.142a.465.465,0,0,0-.663,0,.476.476,0,0,0,0,.669l2.438,2.473H3.97a.473.473,0,0,0,0,.947h9.653L11.186,10.7a.476.476,0,0,0,0,.669.465.465,0,0,0,.663,0l3.234-3.281A.479.479,0,0,0,15.083,7.423Z" transform="translate(-0.219 -0.25)"/></g></g></g></svg>