<svg xmlns="http://www.w3.org/2000/svg" width="16" height="16" viewBox="0 0 16 16">
  <g id="icon_rec_topbar" transform="translate(-1297 -22.049)">
    <g id="패스_9188" data-name="패스 9188" transform="translate(1297 22.049)" fill="none">
      <path d="M8,0A8,8,0,1,1,0,8,8,8,0,0,1,8,0Z" stroke="none"/>
      <path d="M 8 1.199999809265137 C 4.250470161437988 1.199999809265137 1.199999809265137 4.250470161437988 1.199999809265137 8 C 1.199999809265137 11.74952983856201 4.250470161437988 14.80000019073486 8 14.80000019073486 C 11.74952983856201 14.80000019073486 14.80000019073486 11.74952983856201 14.80000019073486 8 C 14.80000019073486 4.250470161437988 11.74952983856201 1.199999809265137 8 1.199999809265137 M 8 0 C 12.41827964782715 0 16 3.581720352172852 16 8 C 16 12.41827964782715 12.41827964782715 16 8 16 C 3.581720352172852 16 0 12.41827964782715 0 8 C 0 3.581720352172852 3.581720352172852 0 8 0 Z" stroke="none" fill="#e63232"/>
    </g>
    <circle id="타원_55" data-name="타원 55" cx="4" cy="4" r="4" transform="translate(1301 26.049)" fill="#e63232"/>
  </g>
</svg>
