<svg xmlns="http://www.w3.org/2000/svg" xmlns:xlink="http://www.w3.org/1999/xlink" width="16" height="16" viewBox="0 0 16 16">
  <defs>
    <clipPath id="clip-path">
      <rect id="사각형_25608" data-name="사각형 25608" width="16" height="16" transform="translate(-3611 -2215)" fill="#333"/>
    </clipPath>
  </defs>
  <g id="icon_setting" transform="translate(3611 2215)" clip-path="url(#clip-path)">
    <path id="cogwheel" d="M15.4,9.784l0,0-1.025-.942a6.715,6.715,0,0,0,0-1.679L15.4,6.216a1.012,1.012,0,0,0,.187-1.237L14.457,3.023a1,1,0,0,0-1.171-.455l-1.331.42a6.1,6.1,0,0,0-1.45-.842L10.2.781A1,1,0,0,0,9.227,0H6.96a1,1,0,0,0-.972.78L5.681,2.147a6.1,6.1,0,0,0-1.45.842L2.9,2.569a1,1,0,0,0-1.167.451L.6,4.983A1.011,1.011,0,0,0,.788,6.219l1.025.942A6.814,6.814,0,0,0,1.76,8a6.945,6.945,0,0,0,.053.839L.785,9.784A1.012,1.012,0,0,0,.6,11.02l1.131,1.956a1,1,0,0,0,1.171.455l1.331-.42a6.1,6.1,0,0,0,1.45.842l.307,1.365A1,1,0,0,0,6.96,16H9.227a1,1,0,0,0,.972-.78l.307-1.367a6.075,6.075,0,0,0,1.45-.842l1.332.42a1,1,0,0,0,1.167-.451l1.136-1.964A1.011,1.011,0,0,0,15.4,9.784ZM8.093,11.333A3.333,3.333,0,1,1,11.427,8a3.337,3.337,0,0,1-3.333,3.333Z" transform="translate(-3611.094 -2215)" fill="#333"/>
  </g>
</svg>
