<svg xmlns="http://www.w3.org/2000/svg" xmlns:xlink="http://www.w3.org/1999/xlink" width="16" height="16" viewBox="0 0 16 16">
  <defs>
    <clipPath id="clip-path">
      <rect id="사각형_25605" data-name="사각형 25605" width="16" height="16" transform="translate(-3719 -2215)" fill="#333"/>
    </clipPath>
  </defs>
  <g id="icon_mic" transform="translate(3719 2215)" clip-path="url(#clip-path)">
    <g id="microphone-black-shape_1_" data-name="microphone-black-shape (1)" transform="translate(-3716.539 -2215)">
      <g id="그룹_250" data-name="그룹 250" transform="translate(0)">
        <path id="패스_330" data-name="패스 330" d="M9.231,11.077A3.085,3.085,0,0,0,12.307,8V3.077A2.962,2.962,0,0,0,11.4.9,3.064,3.064,0,0,0,7.058.9a2.963,2.963,0,0,0-.9,2.173V8a3.086,3.086,0,0,0,3.077,3.077Z" transform="translate(-3.692)" fill="#333"/>
        <path id="패스_331" data-name="패스 331" d="M13.971,7.875a.615.615,0,0,0-1.048.433V9.538a4.149,4.149,0,0,1-1.265,3.043,4.148,4.148,0,0,1-3.043,1.264,4.149,4.149,0,0,1-3.043-1.264A4.148,4.148,0,0,1,4.308,9.538V8.308A.612.612,0,0,0,3.26,7.875a.591.591,0,0,0-.183.433V9.538a5.341,5.341,0,0,0,1.418,3.7,5.37,5.37,0,0,0,3.5,1.8v1.269H5.538a.615.615,0,0,0,0,1.231h6.154a.615.615,0,0,0,0-1.231H9.231V15.038a5.37,5.37,0,0,0,3.5-1.8,5.34,5.34,0,0,0,1.419-3.7V8.308A.591.591,0,0,0,13.971,7.875Z" transform="translate(-3.077 -1.538)" fill="#333"/>
      </g>
    </g>
  </g>
</svg>
