<svg xmlns="http://www.w3.org/2000/svg" xmlns:xlink="http://www.w3.org/1999/xlink" width="12" height="12" viewBox="0 0 12 12">
  <defs>
    <clipPath id="clip-path">
      <rect id="사각형_25965" data-name="사각형 25965" width="12" height="12" transform="translate(1272 135)" fill="#333"/>
    </clipPath>
  </defs>
  <g id="icon_logout" transform="translate(-1272 -135)" clip-path="url(#clip-path)">
    <g id="logout_2_" data-name="logout (2)" transform="translate(1272.476 135.494)">
      <g id="그룹_19575" data-name="그룹 19575">
        <g id="그룹_19574" data-name="그룹 19574">
          <path id="패스_9072" data-name="패스 9072" d="M5.506,10.118H1.377a.459.459,0,0,1-.459-.459V1.4A.459.459,0,0,1,1.377.941h4.13a.459.459,0,0,0,0-.918H1.377A1.378,1.378,0,0,0,0,1.4V9.659a1.378,1.378,0,0,0,1.377,1.377h4.13a.459.459,0,1,0,0-.918Z" transform="translate(0 -0.023)" fill="#333"/>
        </g>
      </g>
      <g id="그룹_19577" data-name="그룹 19577" transform="translate(3.671 2.294)">
        <g id="그룹_19576" data-name="그룹 19576">
          <path id="패스_9073" data-name="패스 9073" d="M11.893,5.815,9.1,3.062a.459.459,0,0,0-.644.653l1.994,1.968H5.11a.459.459,0,0,0,0,.918h5.342L8.459,8.569a.459.459,0,1,0,.644.653l2.79-2.753a.459.459,0,0,0,0-.653Z" transform="translate(-4.651 -2.93)" fill="#333"/>
        </g>
      </g>
    </g>
  </g>
</svg>
