<svg xmlns="http://www.w3.org/2000/svg" xmlns:xlink="http://www.w3.org/1999/xlink" width="40" height="40" viewBox="0 0 40 40">
  <defs>
    <clipPath id="clip-path">
      <rect id="사각형_26604" data-name="사각형 26604" width="18" height="18" transform="translate(0.083 0.083)" fill="#fff" stroke="#707070" stroke-width="1"/>
    </clipPath>
  </defs>
  <g id="img_bubble_deco" transform="translate(-137 -780)">
    <circle id="타원_678" data-name="타원 678" cx="20" cy="20" r="20" transform="translate(137 780)" fill="#fff" opacity="0.12"/>
    <g id="마스크_그룹_340" data-name="마스크 그룹 340" transform="translate(147.917 790.917)" clip-path="url(#clip-path)">
      <g id="speech-bubbles" transform="translate(0 -0.029)">
        <path id="패스_9235" data-name="패스 9235" d="M5.9,0A5.877,5.877,0,0,0,1.309,9.575L.208,11.8H5.9A5.9,5.9,0,0,0,5.9,0ZM4.289,6.434H3.217V5.362H4.289Zm2.145,0H5.362V5.362H6.434Zm2.145,0H7.506V5.362H8.579Z" fill="#fff"/>
        <path id="패스_9236" data-name="패스 9236" d="M21.044,15.147a5.906,5.906,0,0,0-5.461-5.882,6.983,6.983,0,0,1-6.319,6.319,5.906,5.906,0,0,0,5.882,5.461h5.69l-1.1-2.22A5.859,5.859,0,0,0,21.044,15.147Zm-7.506.536H12.466V14.611h1.072Zm2.145,0H14.611V14.611h1.072Zm2.145,0H16.755V14.611h1.072Z" transform="translate(-2.744 -2.744)" fill="#fff"/>
      </g>
    </g>
  </g>
</svg>
