<svg xmlns="http://www.w3.org/2000/svg" xmlns:xlink="http://www.w3.org/1999/xlink" width="52" height="52" viewBox="0 0 52 52">
  <defs>
    <clipPath id="clip-path">
      <rect id="사각형_26717" data-name="사각형 26717" width="24" height="24" transform="translate(843 143)" fill="#333"/>
    </clipPath>
  </defs>
  <g id="img_profile" transform="translate(-969 -305)">
    <circle id="타원_657" data-name="타원 657" cx="26" cy="26" r="26" transform="translate(969 305)" fill="#fff" opacity="0.07"/>
    <g id="마스크_그룹_349" data-name="마스크 그룹 349" transform="translate(140 176)" clip-path="url(#clip-path)">
      <g id="user" transform="translate(843.975 143.363)">
        <path id="패스_9250" data-name="패스 9250" d="M13.445,11.251A5.443,5.443,0,0,0,17.422,9.6,5.443,5.443,0,0,0,19.07,5.625a5.444,5.444,0,0,0-1.648-3.977A5.444,5.444,0,0,0,13.445,0,5.443,5.443,0,0,0,9.467,1.648,5.443,5.443,0,0,0,7.819,5.625,5.443,5.443,0,0,0,9.467,9.6,5.444,5.444,0,0,0,13.445,11.251Zm0,0" transform="translate(-2.502 0)" fill="#333"/>
        <path id="패스_9251" data-name="패스 9251" d="M21.834,29.122a13.274,13.274,0,0,0-.213-1.525,11.232,11.232,0,0,0-.408-1.534,7.282,7.282,0,0,0-.685-1.43A5.477,5.477,0,0,0,19.5,23.393a4.627,4.627,0,0,0-1.484-.858,5.526,5.526,0,0,0-1.895-.315,2.019,2.019,0,0,0-1.027.4c-.308.185-.668.4-1.07.635a6.407,6.407,0,0,1-1.384.561,5.818,5.818,0,0,1-3.386,0,6.392,6.392,0,0,1-1.383-.561c-.4-.234-.758-.448-1.071-.635a2.016,2.016,0,0,0-1.027-.4,5.518,5.518,0,0,0-1.894.316,4.623,4.623,0,0,0-1.484.858,5.478,5.478,0,0,0-1.033,1.239,7.3,7.3,0,0,0-.685,1.43A11.258,11.258,0,0,0,.265,27.6a13.227,13.227,0,0,0-.213,1.526C.018,29.584,0,30.063,0,30.548A3.847,3.847,0,0,0,1.294,33.58,4.9,4.9,0,0,0,4.628,34.7H17.259a4.9,4.9,0,0,0,3.334-1.119,3.845,3.845,0,0,0,1.294-3.033c0-.486-.018-.966-.053-1.426Zm0,0" transform="translate(0 -11.424)" fill="#333"/>
      </g>
    </g>
  </g>
</svg>
