<svg xmlns="http://www.w3.org/2000/svg" xmlns:xlink="http://www.w3.org/1999/xlink" width="20" height="20" viewBox="0 0 20 20">
  <defs>
    <clipPath id="clip-path">
      <rect id="사각형_25932" data-name="사각형 25932" width="20" height="20" fill="#fff"/>
    </clipPath>
  </defs>
  <g id="img_crown" clip-path="url(#clip-path)">
    <path id="crown" d="M13.883,46.874a.422.422,0,0,1-.011.123l-.891,3.644a.407.407,0,0,1-.391.314l-5.349.028H1.891a.407.407,0,0,1-.393-.314L.606,47.011A.422.422,0,0,1,.6,46.884a.872.872,0,0,1,.255-1.7.861.861,0,0,1,.851.87.875.875,0,0,1-.311.671l1.116,1.149a1.494,1.494,0,0,0,2.283-.158l1.834-2.483a.876.876,0,0,1-.249-.614.851.851,0,1,1,1.7,0,.876.876,0,0,1-.236.6l0,0,1.821,2.49a1.509,1.509,0,0,0,1.212.621,1.487,1.487,0,0,0,1.07-.453l1.123-1.148a.875.875,0,0,1-.318-.677.851.851,0,1,1,1.133.819Zm-.989,5.405a.41.41,0,0,0-.405-.414H2.008a.41.41,0,0,0-.405.414v.994a.41.41,0,0,0,.405.414H12.489a.41.41,0,0,0,.405-.414Z" transform="translate(2.71 -38.749)" fill="#fff"/>
  </g>
</svg>
