<svg xmlns="http://www.w3.org/2000/svg" xmlns:xlink="http://www.w3.org/1999/xlink" width="40" height="40" viewBox="0 0 40 40">
  <defs>
    <clipPath id="clip-path">
      <rect id="사각형_27282" data-name="사각형 27282" width="40" height="40" transform="translate(293 592)" fill="#fff" stroke="#707070" stroke-width="1"/>
    </clipPath>
    <clipPath id="clip-path-2">
      <rect id="사각형_27281" data-name="사각형 27281" width="32" height="32" transform="translate(-0.021 -0.021)" fill="none"/>
    </clipPath>
  </defs>
  <g id="icon_tendency20" transform="translate(-293 -592)" clip-path="url(#clip-path)">
    <g id="그룹_21187" data-name="그룹 21187" transform="translate(297.021 596.021)">
      <g id="그룹_21186" data-name="그룹 21186" transform="translate(0 0)" clip-path="url(#clip-path-2)">
        <path id="패스_10614" data-name="패스 10614" d="M18.286,23.841c0,1.663,0,3.326,0,4.989a.782.782,0,0,1-.311.7H13.981a.815.815,0,0,1-.312-.729c0-2.12-.037-4.242.015-6.361a4.256,4.256,0,0,0-2.794-3.926,4.9,4.9,0,0,0-1.559-.263c-.739-.011-1.476,0-2.214-.009-.224,0-.28.075-.278.286.01.873,0,1.747,0,2.619,0,.247-.011.5-.269.616s-.47-.017-.669-.192Q3.123,19.141.334,16.719A4.672,4.672,0,0,1,0,16.357v-.312c.806-.794,1.69-1.5,2.538-2.247,1.131-1,2.273-1.979,3.408-2.97.21-.184.427-.31.694-.118a.588.588,0,0,1,.2.531c0,.737.009,1.476,0,2.214,0,.231.059.3.295.3.873,0,1.745-.012,2.619.017a9.03,9.03,0,0,1,3.708.953l.205.1s4.929,2,4.619,9.019" transform="translate(0 2.432)" fill="#f7b854"/>
        <path id="패스_10615" data-name="패스 10615" d="M11.734,14.108a2.005,2.005,0,0,0-.252.8.373.373,0,0,0,.227.241,8.572,8.572,0,0,1,2.092,1.61A20.7,20.7,0,0,1,15.231,18.4c.092.117.165.275.356.258,0-.154,0-.309.007-.462a4.479,4.479,0,0,1,.052-1.1,4.237,4.237,0,0,1,3.3-3.625,19.6,19.6,0,0,1,3.386-.122c.162-.006.149.1.15.209v1.246c0,.53-.009,1.061,0,1.59a.467.467,0,0,0,.465.516.663.663,0,0,0,.457-.236c1.232-1.069,2.468-2.133,3.691-3.212.745-.659,1.535-1.266,2.225-1.988v-.312c-.136-.14-.263-.29-.411-.418q-2.749-2.4-5.5-4.786c-.188-.165-.379-.31-.64-.2-.281.119-.29.377-.29.633,0,.686-.016,1.372.007,2.058.01.31-.054.43-.4.413-.633-.031-1.267,0-1.9-.01a9.137,9.137,0,0,0-3.386.565c-.383.147-.757.322-1.15.49,0,0-2.308.756-3.922,4.193" transform="translate(2.631 1.312)" fill="#4777e2"/>
        <path id="패스_10616" data-name="패스 10616" d="M14.179,0a2.1,2.1,0,0,1,.434.395q2.423,2.731,4.848,5.459c.166.187.318.372.206.638-.118.281-.369.3-.628.3-.822,0-1.645.006-2.466,0-.208,0-.264.061-.263.264.009.937,0,1.872,0,2.809l-.021.016a.48.48,0,0,1-.2.194,18.019,18.019,0,0,0-3.263,2.72,6.776,6.776,0,0,0-.7.833c-.077.112-.14.264-.326.237,0-.665-.012-1.33-.014-1.994,0-1.6,0-3.2,0-4.8,0-.215-.058-.284-.278-.28-.82.012-1.641,0-2.461.006-.25,0-.49-.022-.61-.28s.015-.451.183-.64q2.447-2.745,4.885-5.5A2.081,2.081,0,0,1,13.929,0Z" transform="translate(1.926 0)" fill="#cc3840"/>
        <path id="패스_10617" data-name="패스 10617" d="M11.176,12.016a3.542,3.542,0,0,0,.66-.772A18.764,18.764,0,0,1,14.8,8.579a6.476,6.476,0,0,1,.859-.548c0,.383,0,.768.012,1.152a.385.385,0,0,1-.219.4,7.749,7.749,0,0,0-2.076,1.707,7.868,7.868,0,0,0-1.765,3.1,3.7,3.7,0,0,1-.311,1.126c-.189-.042-.118-.2-.119-.3-.01-1.024-.014-2.049-.018-3.074,0-.039.009-.079.014-.118" transform="translate(2.558 1.84)" fill="#ba3342"/>
        <path id="패스_10618" data-name="패스 10618" d="M11.273,14.328a3.1,3.1,0,0,1,.311-1.125c.333.293.746.463,1.1.725a13.7,13.7,0,0,1,2.4,2.4,2.791,2.791,0,0,0,.551.621v3.922a9.68,9.68,0,0,0-.681-2.382A8.61,8.61,0,0,0,12.712,15.4a16.182,16.182,0,0,0-1.439-1.072" transform="translate(2.583 3.025)" fill="#3668c1"/>
      </g>
    </g>
  </g>
</svg>
