<svg xmlns="http://www.w3.org/2000/svg" xmlns:xlink="http://www.w3.org/1999/xlink" width="40" height="40" viewBox="0 0 40 40">
  <defs>
    <clipPath id="clip-path">
      <rect id="사각형_27233" data-name="사각형 27233" width="40" height="40" transform="translate(264 864)" fill="#fff" stroke="#707070" stroke-width="1"/>
    </clipPath>
    <clipPath id="clip-path-2">
      <rect id="사각형_27232" data-name="사각형 27232" width="24.951" height="27.509" transform="translate(0 0)" fill="none"/>
    </clipPath>
  </defs>
  <g id="icon_tendency01" transform="translate(-264 -864)" clip-path="url(#clip-path)">
    <g id="그룹_21156" data-name="그룹 21156" transform="translate(272 870)">
      <g id="그룹_21155" data-name="그룹 21155" clip-path="url(#clip-path-2)">
        <path id="패스_10516" data-name="패스 10516" d="M24.754,16.983A1.721,1.721,0,0,0,23.38,15.3a1.721,1.721,0,0,0,1.365-1.861,1.821,1.821,0,0,0-1.857-1.546H15.556c2.669-3.242,2.25-7.3.816-7.786a1.364,1.364,0,0,0-1.941.926c-.562,1.122-.188,3.5-3.552,6.088C7.4,13.8,7.217,14.737,7.019,14.98a.738.738,0,0,1-.618.176v10.7l2.78.22a26.613,26.613,0,0,0,10.879-.137,10.593,10.593,0,0,1,2.643-.352h.238a1.784,1.784,0,0,0,1.789-1.432,1.72,1.72,0,0,0-1.7-2.009,1.721,1.721,0,1,0,0-3.441,1.721,1.721,0,0,0,1.721-1.721" fill="#ffb2aa"/>
        <path id="패스_10517" data-name="패스 10517" d="M4.165,27.509H.63A.63.63,0,0,1,0,26.88V14.256a.629.629,0,0,1,.63-.629H4.165a.628.628,0,0,1,.629.629V26.88a.629.629,0,0,1-.629.629" fill="#eb626c"/>
        <rect id="사각형_27231" data-name="사각형 27231" width="1.618" height="11.176" transform="translate(4.794 14.98)" fill="#fff"/>
        <path id="패스_10518" data-name="패스 10518" d="M3.427,16.215A1.03,1.03,0,1,0,2.4,17.244a1.029,1.029,0,0,0,1.029-1.029" fill="#fff"/>
        <path id="패스_10520" data-name="패스 10520" d="M8.957,7.712c-.987-.381-1.168-.69-1.391-2.376-.223,1.686-.4,1.995-1.391,2.376.987.381,1.168.69,1.391,2.376.223-1.686.4-1.995,1.391-2.376" transform="translate(1.772 0.225)" fill="#f8a059"/>
        <path id="패스_10522" data-name="패스 10522" d="M7.473,4.466C5.617,3.751,5.277,3.17,4.858,0,4.44,3.17,4.1,3.751,2.244,4.466c1.856.716,2.2,1.3,2.614,4.466.42-3.17.759-3.751,2.615-4.466" transform="translate(0.928 0.345)" fill="#ffc739"/>
      </g>
    </g>
  </g>
</svg>
