<svg xmlns="http://www.w3.org/2000/svg" xmlns:xlink="http://www.w3.org/1999/xlink" width="58" height="60" viewBox="0 0 58 60">
  <defs>
    <linearGradient id="linear-gradient" x1="-0.048" y1="0.139" x2="1.08" y2="0.916" gradientUnits="objectBoundingBox">
      <stop offset="0" stop-color="#54adff"/>
      <stop offset="1" stop-color="#2eeee3"/>
    </linearGradient>
    <radialGradient id="radial-gradient" cx="0.5" cy="0.5" r="0.5" gradientUnits="objectBoundingBox">
      <stop offset="0" stop-color="#144788" stop-opacity="0.302"/>
      <stop offset="1" stop-color="#144788" stop-opacity="0"/>
    </radialGradient>
    <clipPath id="clip-path">
      <path id="합치기_20" data-name="합치기 20" d="M24.981,0h.039a25,25,0,0,1,0,50h-.039a25,25,0,0,1,0-50Z" transform="translate(1607.781 968.471)" fill="url(#linear-gradient)"/>
    </clipPath>
    <filter id="사각형_26330" x="22.802" y="28.631" width="16.56" height="16.908" filterUnits="userSpaceOnUse">
      <feOffset dx="2" input="SourceAlpha"/>
      <feGaussianBlur stdDeviation="1.5" result="blur"/>
      <feFlood flood-color="#144788" flood-opacity="0.2"/>
      <feComposite operator="in" in2="blur"/>
      <feComposite in="SourceGraphic"/>
    </filter>
    <filter id="패스_9498" x="17.011" y="35.523" width="28.142" height="18.943" filterUnits="userSpaceOnUse">
      <feOffset dx="2" input="SourceAlpha"/>
      <feGaussianBlur stdDeviation="1.5" result="blur-2"/>
      <feFlood flood-color="#144788" flood-opacity="0.2"/>
      <feComposite operator="in" in2="blur-2"/>
      <feComposite in="SourceGraphic"/>
    </filter>
    <filter id="패스_9499" x="11.3" y="2.65" width="39.4" height="36.613" filterUnits="userSpaceOnUse">
      <feOffset dx="2" input="SourceAlpha"/>
      <feGaussianBlur stdDeviation="1.5" result="blur-3"/>
      <feFlood flood-color="#144788" flood-opacity="0.2"/>
      <feComposite operator="in" in2="blur-3"/>
      <feComposite in="SourceGraphic"/>
    </filter>
  </defs>
  <g id="img_robot" transform="translate(-259 -2134)">
    <ellipse id="타원_615" data-name="타원 615" cx="29" cy="9.5" rx="29" ry="9.5" transform="translate(259 2175)" fill="url(#radial-gradient)"/>
    <g id="합치기_19" data-name="합치기 19" transform="translate(263 2134)" stroke-linecap="round" stroke-linejoin="bevel" fill="url(#linear-gradient)">
      <path d="M 25.01929092407227 48.99994277954102 L 24.98070907592773 48.99994277954102 C 21.74297904968262 48.99994277954102 18.60261917114258 48.36556243896484 15.64686965942383 47.11442184448242 C 12.79141044616699 45.90573501586914 10.22671031951904 44.17516326904297 8.024040222167969 41.97079467773438 C 5.821310043334961 39.76636505126953 4.092030048370361 37.19960403442383 2.884210109710693 34.34179306030273 C 1.633939981460571 31.3835334777832 1 28.24049377441406 1 24.99997329711914 C 1 21.75946235656738 1.633939981460571 18.61641311645508 2.884210109710693 15.65815353393555 C 4.092030048370361 12.80035305023193 5.821310043334961 10.23358345031738 8.024040222167969 8.029163360595703 C 10.22671031951904 5.824783325195312 12.79141044616699 4.094213485717773 15.64686965942383 2.885523319244385 C 18.60261917114258 1.634383320808411 21.74297904968262 1.000003337860107 24.98070907592773 1.000003337860107 L 25.01929092407227 1.000003337860107 C 28.25691032409668 1.000003337860107 31.39719009399414 1.634383320808411 34.35292053222656 2.885523319244385 C 37.20838165283203 4.094213485717773 39.77307891845703 5.824793338775635 41.97578048706055 8.029163360595703 C 44.17855072021484 10.23360347747803 45.90787887573242 12.80037307739258 47.11571884155273 15.65816307067871 C 48.36603927612305 18.6164436340332 49 21.75948333740234 49 24.99997329711914 C 49 28.2404727935791 48.36603927612305 31.38351249694824 47.11571884155273 34.34178161621094 C 45.90787887573242 37.1995849609375 44.17855072021484 39.76634216308594 41.97578048706055 41.97078323364258 C 39.77307891845703 44.17516326904297 37.20838165283203 45.90573501586914 34.35292053222656 47.11442184448242 C 31.39719009399414 48.36556243896484 28.25691032409668 48.99994277954102 25.01929092407227 48.99994277954102 Z" stroke="none"/>
      <path d="M 24.98070907592773 2.000003814697266 C 21.87763023376465 2.000003814697266 18.8684196472168 2.607772827148438 16.03667831420898 3.806423187255859 C 13.30043029785156 4.964641571044922 10.84259033203125 6.623191833496094 8.731418609619141 8.735992431640625 C 6.620151519775391 10.84889221191406 4.9627685546875 13.30882263183594 3.805328369140625 16.04745483398438 C 2.607398986816406 18.88186264038086 2 21.89392280578613 2 24.99997329711914 C 2 28.10602378845215 2.607398986816406 31.11809349060059 3.805328369140625 33.9525032043457 C 4.9627685546875 36.69112396240234 6.620151519775391 39.15105438232422 8.731418609619141 41.26395416259766 C 10.84259033203125 43.37675476074219 13.30043029785156 45.03530120849609 16.03667831420898 46.19353485107422 C 18.8684196472168 47.39217376708984 21.87763023376465 47.99994277954102 24.98070907592773 47.99994277954102 L 25.01929092407227 47.99994277954102 C 28.12224960327148 47.99994277954102 31.13138961791992 47.39218139648438 33.96311187744141 46.19353485107422 C 36.69934844970703 45.03529357910156 39.15721130371094 43.37674331665039 41.26840972900391 41.26394271850586 C 43.37971878051758 39.15103149414062 45.03713989257812 36.69109344482422 46.19461059570312 33.95248413085938 C 47.392578125 31.11806297302246 48 28.10600280761719 48 24.99997329711914 C 48 21.89394378662109 47.392578125 18.88188362121582 46.19461059570312 16.0474739074707 C 45.03713989257812 13.30885314941406 43.37971878051758 10.84892272949219 41.26840972900391 8.736003875732422 C 39.15721130371094 6.623203277587891 36.69934844970703 4.964653015136719 33.96311187744141 3.806411743164062 C 31.13138961791992 2.607772827148438 28.12224960327148 2.000003814697266 25.01929092407227 2.000003814697266 L 24.98070907592773 2.000003814697266 M 24.98070907592773 3.814697265625e-06 L 25.01929092407227 3.814697265625e-06 C 38.8153190612793 3.814697265625e-06 50 11.19287490844727 50 24.99997329711914 C 50 38.80708312988281 38.8153190612793 49.99994277954102 25.01929092407227 49.99994277954102 L 24.98070907592773 49.99994277954102 C 11.18418884277344 49.99994277954102 0 38.80708312988281 0 24.99997329711914 C 0 11.19287490844727 11.18418884277344 3.814697265625e-06 24.98070907592773 3.814697265625e-06 Z" stroke="none" fill="#fff"/>
    </g>
    <g id="마스크_그룹_3" data-name="마스크 그룹 3" transform="translate(-1344.781 1165.529)" clip-path="url(#clip-path)">
      <g id="img_robot-2" data-name="img_robot" transform="translate(1617.58 975.621)">
        <g id="그룹_20225" data-name="그룹 20225">
          <g transform="matrix(1, 0, 0, 1, -13.8, -7.15)" filter="url(#사각형_26330)" style="isolation: isolate">
            <rect id="사각형_26330-2" data-name="사각형 26330" width="7.56" height="7.908" transform="translate(25.3 33.13)" fill="#d7ecff"/>
          </g>
          <g transform="matrix(1, 0, 0, 1, -13.8, -7.15)" filter="url(#패스_9498)" style="isolation: isolate">
            <path id="패스_9498-2" data-name="패스 9498" d="M-660.072,423.323a9.762,9.762,0,0,1,9.57-9.944,9.763,9.763,0,0,1,9.571,9.944Z" transform="translate(679.58 -373.36)" fill="#fbfcfe"/>
          </g>
          <g transform="matrix(1, 0, 0, 1, -13.8, -7.15)" filter="url(#패스_9499)">
            <path id="패스_9499-2" data-name="패스 9499" d="M-647.922,339.357a9.793,9.793,0,0,0-9-5.972h-.952a3.217,3.217,0,0,0-2.525-1.714v-3.014a1.616,1.616,0,0,0,1.287-1.585,1.613,1.613,0,0,0-1.609-1.617,1.613,1.613,0,0,0-1.609,1.617,1.616,1.616,0,0,0,1.287,1.585v3.014a3.217,3.217,0,0,0-2.525,1.714h-1.116a9.793,9.793,0,0,0-9,5.972,3.232,3.232,0,0,0-2.315,3.1,3.232,3.232,0,0,0,1.756,2.878,9.8,9.8,0,0,0,9.563,7.732h7.761a9.8,9.8,0,0,0,9.564-7.732,3.232,3.232,0,0,0,1.756-2.878A3.231,3.231,0,0,0-647.922,339.357Z" transform="translate(689.81 -318.31)" fill="#fff"/>
          </g>
          <rect id="사각형_26331" data-name="사각형 26331" width="20.106" height="10.186" rx="5.093" transform="translate(5.229 13.161)" fill="#d6ecff" style="isolation: isolate"/>
          <ellipse id="타원_613" data-name="타원 613" cx="1.608" cy="1.617" rx="1.608" ry="1.617" transform="translate(9.245 16.658)" fill="#5673b1" style="isolation: isolate"/>
          <ellipse id="타원_614" data-name="타원 614" cx="1.608" cy="1.617" rx="1.608" ry="1.617" transform="translate(18.102 16.658)" fill="#5673b1" style="isolation: isolate"/>
          <path id="패스_9500" data-name="패스 9500" d="M-672.951,357.307h0c0-5.436,3.971-9.842,9.379-9.842h-1.116a9.792,9.792,0,0,0-9,5.972,3.232,3.232,0,0,0-2.315,3.1,3.233,3.233,0,0,0,1.756,2.878,9.8,9.8,0,0,0,9.563,7.732h1.528A9.817,9.817,0,0,1-672.951,357.307Z" transform="translate(676.007 -339.536)" fill="#d7ecff" style="isolation: isolate"/>
        </g>
      </g>
    </g>
  </g>
</svg>
