<svg xmlns="http://www.w3.org/2000/svg" xmlns:xlink="http://www.w3.org/1999/xlink" width="215" height="111.565" viewBox="0 0 215 111.565">
  <defs>
    <filter id="패스_10474" x="15" y="13.566" width="178" height="97.999" filterUnits="userSpaceOnUse">
      <feOffset dy="3" input="SourceAlpha"/>
      <feGaussianBlur stdDeviation="3" result="blur"/>
      <feFlood flood-opacity="0.102"/>
      <feComposite operator="in" in2="blur"/>
      <feComposite in="SourceGraphic"/>
    </filter>
    <filter id="패스_10474-2" x="15" y="13.566" width="178" height="97.999" filterUnits="userSpaceOnUse">
      <feOffset dy="2" input="SourceAlpha"/>
      <feGaussianBlur stdDeviation="2" result="blur-2"/>
      <feFlood flood-opacity="0.102" result="color"/>
      <feComposite operator="out" in="SourceGraphic" in2="blur-2"/>
      <feComposite operator="in" in="color"/>
      <feComposite operator="in" in2="SourceGraphic"/>
    </filter>
    <filter id="패스_10475">
      <feOffset dx="3" dy="2" input="SourceAlpha"/>
      <feGaussianBlur stdDeviation="3" result="blur-3"/>
      <feFlood flood-opacity="0.161" result="color-2"/>
      <feComposite operator="out" in="SourceGraphic" in2="blur-3"/>
      <feComposite operator="in" in="color-2"/>
      <feComposite operator="in" in2="SourceGraphic"/>
    </filter>
  </defs>
  <g id="img_score03" transform="translate(-91.518 -1361)">
    <g id="img_score_graph03" transform="translate(19206.518 18878.701)">
      <text id="미흡" transform="translate(-19115 -17438.875)" fill="#fff" font-size="10" font-family="SpoqaHanSansNeo-Regular, Spoqa Han Sans Neo" letter-spacing="-0.02em" opacity="0.999"><tspan x="0" y="0">미흡</tspan></text>
      <text id="보통" transform="translate(-19045.646 -17507.701)" fill="#fff" font-size="10" font-family="SpoqaHanSansNeo-Bold, Spoqa Han Sans Neo" font-weight="700" letter-spacing="-0.02em" opacity="0.999"><tspan x="0" y="0">보통</tspan></text>
      <text id="다소_미흡" data-name="다소
미흡" transform="translate(-19098.5 -17491.771)" fill="#fff" font-size="10" font-family="SpoqaHanSansNeo-Regular, Spoqa Han Sans Neo" letter-spacing="-0.02em" opacity="0.999"><tspan x="0" y="0">다소</tspan><tspan x="0" y="14">미흡</tspan></text>
      <text id="양호" transform="translate(-18997.4 -17507.701)" fill="#fff" font-size="10" font-family="SpoqaHanSansNeo-Regular, Spoqa Han Sans Neo" letter-spacing="-0.02em" opacity="0.999"><tspan x="0" y="0">양호</tspan></text>
      <text id="우수" transform="translate(-18944.5 -17484.725)" fill="#fff" font-size="10" font-family="SpoqaHanSansNeo-Regular, Spoqa Han Sans Neo" letter-spacing="-0.02em" opacity="0.999"><tspan x="0" y="0">우수</tspan></text>
      <text id="최우수" transform="translate(-18928 -17438.875)" fill="#fff" font-size="10" font-family="SpoqaHanSansNeo-Regular, Spoqa Han Sans Neo" letter-spacing="-0.02em" opacity="0.999"><tspan x="0" y="0">최우수</tspan></text>
      <line id="선_229" data-name="선 229" y2="4.127" transform="translate(-19012.521 -17506.262)" fill="none" stroke="#fff" stroke-linecap="round" stroke-width="1"/>
      <line id="선_230" data-name="선 230" x2="2.064" y2="3.575" transform="translate(-19055.402 -17494.449)" fill="none" stroke="#fff" stroke-linecap="round" stroke-width="1"/>
      <line id="선_231" data-name="선 231" x2="3.575" y2="2.064" transform="translate(-19086.93 -17462.916)" fill="none" stroke="#fff" stroke-linecap="round" stroke-width="1"/>
      <line id="선_232" data-name="선 232" x2="4" transform="translate(-19101 -17417.701)" fill="none" stroke="#fff" stroke-linecap="round" stroke-width="1"/>
      <line id="선_233" data-name="선 233" x1="4" transform="translate(-18928 -17417.701)" fill="none" stroke="#fff" stroke-linecap="round" stroke-width="1"/>
      <line id="선_234" data-name="선 234" x1="3.575" y2="2.064" transform="translate(-18941.645 -17462.916)" fill="none" stroke="#fff" stroke-linecap="round" stroke-width="1"/>
      <line id="선_235" data-name="선 235" x1="2.064" y2="3.575" transform="translate(-18971.705 -17494.449)" fill="none" stroke="#fff" stroke-linecap="round" stroke-width="1"/>
    </g>
    <g id="img_score03-2" data-name="img_score03" transform="translate(115.518 1380.566)">
      <g data-type="innerShadowGroup">
        <g transform="matrix(1, 0, 0, 1, -24, -19.57)" filter="url(#패스_10474)">
          <path id="패스_10474-3" data-name="패스 10474" d="M128.525,80a48.525,48.525,0,0,0-97.049,0H0a80,80,0,0,1,160,0Z" transform="translate(24 19.57)" fill="#edebec"/>
        </g>
        <g transform="matrix(1, 0, 0, 1, -24, -19.57)" filter="url(#패스_10474-2)">
          <path id="패스_10474-4" data-name="패스 10474" d="M128.525,80a48.525,48.525,0,0,0-97.049,0H0a80,80,0,0,1,160,0Z" transform="translate(24 19.57)" fill="#fff"/>
        </g>
      </g>
      <g data-type="innerShadowGroup">
        <path id="패스_10475-2" data-name="패스 10475" d="M76.946,31.539,74.972.132C74.5.161,74.033.2,73.563.24c-.74.059-1.481.111-2.218.191-.346.038-.687.09-1.032.131a79.973,79.973,0,0,0-30.673,10.33c-.146.085-.3.167-.441.253-.838.5-1.66,1.018-2.48,1.545-.274.176-.551.348-.822.527-.706.466-1.4.952-2.088,1.44-.37.262-.744.521-1.109.789-.6.439-1.187.9-1.774,1.352-.435.338-.872.673-1.3,1.02-.521.422-1.032.859-1.543,1.3-.468.4-.936.8-1.4,1.209s-.935.856-1.4,1.29-.938.879-1.4,1.33-.89.9-1.33,1.351-.888.917-1.321,1.385-.877.972-1.309,1.462c-.4.455-.8.91-1.191,1.374-.45.536-.888,1.081-1.323,1.628-.342.429-.685.859-1.018,1.3-.467.611-.921,1.231-1.368,1.854-.274.38-.548.761-.814,1.146-.488.7-.96,1.416-1.424,2.134-.2.313-.405.627-.6.943q-.753,1.206-1.465,2.438c-.136.237-.274.473-.409.712Q9.557,42.021,8.848,43.4c-.085.167-.17.332-.256.5q-.747,1.481-1.436,2.993l-.144.319q-.71,1.588-1.355,3.2c-.026.068-.054.136-.08.2q-.653,1.656-1.233,3.342l-.055.16q-.576,1.69-1.078,3.406c-.021.071-.039.142-.06.212q-.486,1.68-.9,3.384c-.029.121-.055.243-.084.363q-.386,1.627-.707,3.272c-.041.212-.075.426-.114.639-.188,1.012-.362,2.028-.51,3.048C.786,68.8.747,69.161.7,69.519.584,70.409.468,71.3.382,72.2c-.058.6-.093,1.2-.138,1.8-.05.677-.111,1.352-.144,2.033-.063,1.3-.1,2.611-.1,3.929H31.473A48.518,48.518,0,0,1,76.946,31.539Z" transform="translate(0 -0.133)" fill="#a8d70f"/>
        <g transform="matrix(1, 0, 0, 1, -24, -19.57)" filter="url(#패스_10475)">
          <path id="패스_10475-3" data-name="패스 10475" d="M76.946,31.539,74.972.132C74.5.161,74.033.2,73.563.24c-.74.059-1.481.111-2.218.191-.346.038-.687.09-1.032.131a79.973,79.973,0,0,0-30.673,10.33c-.146.085-.3.167-.441.253-.838.5-1.66,1.018-2.48,1.545-.274.176-.551.348-.822.527-.706.466-1.4.952-2.088,1.44-.37.262-.744.521-1.109.789-.6.439-1.187.9-1.774,1.352-.435.338-.872.673-1.3,1.02-.521.422-1.032.859-1.543,1.3-.468.4-.936.8-1.4,1.209s-.935.856-1.4,1.29-.938.879-1.4,1.33-.89.9-1.33,1.351-.888.917-1.321,1.385-.877.972-1.309,1.462c-.4.455-.8.91-1.191,1.374-.45.536-.888,1.081-1.323,1.628-.342.429-.685.859-1.018,1.3-.467.611-.921,1.231-1.368,1.854-.274.38-.548.761-.814,1.146-.488.7-.96,1.416-1.424,2.134-.2.313-.405.627-.6.943q-.753,1.206-1.465,2.438c-.136.237-.274.473-.409.712Q9.557,42.021,8.848,43.4c-.085.167-.17.332-.256.5q-.747,1.481-1.436,2.993l-.144.319q-.71,1.588-1.355,3.2c-.026.068-.054.136-.08.2q-.653,1.656-1.233,3.342l-.055.16q-.576,1.69-1.078,3.406c-.021.071-.039.142-.06.212q-.486,1.68-.9,3.384c-.029.121-.055.243-.084.363q-.386,1.627-.707,3.272c-.041.212-.075.426-.114.639-.188,1.012-.362,2.028-.51,3.048C.786,68.8.747,69.161.7,69.519.584,70.409.468,71.3.382,72.2c-.058.6-.093,1.2-.138,1.8-.05.677-.111,1.352-.144,2.033-.063,1.3-.1,2.611-.1,3.929H31.473A48.518,48.518,0,0,1,76.946,31.539Z" transform="translate(24 19.43)" fill="#fff"/>
        </g>
      </g>
    </g>
  </g>
</svg>
