<svg xmlns="http://www.w3.org/2000/svg" xmlns:xlink="http://www.w3.org/1999/xlink" width="215" height="111.566" viewBox="0 0 215 111.566">
  <defs>
    <filter id="패스_10470" x="15" y="13.566" width="178" height="98" filterUnits="userSpaceOnUse">
      <feOffset dy="3" input="SourceAlpha"/>
      <feGaussianBlur stdDeviation="3" result="blur"/>
      <feFlood flood-opacity="0.102"/>
      <feComposite operator="in" in2="blur"/>
      <feComposite in="SourceGraphic"/>
    </filter>
    <filter id="패스_10470-2" x="15" y="13.566" width="178" height="98" filterUnits="userSpaceOnUse">
      <feOffset dy="2" input="SourceAlpha"/>
      <feGaussianBlur stdDeviation="2" result="blur-2"/>
      <feFlood flood-opacity="0.102" result="color"/>
      <feComposite operator="out" in="SourceGraphic" in2="blur-2"/>
      <feComposite operator="in" in="color"/>
      <feComposite operator="in" in2="SourceGraphic"/>
    </filter>
    <filter id="패스_10468">
      <feOffset dx="3" dy="2" input="SourceAlpha"/>
      <feGaussianBlur stdDeviation="3" result="blur-3"/>
      <feFlood flood-opacity="0.161" result="color-2"/>
      <feComposite operator="out" in="SourceGraphic" in2="blur-3"/>
      <feComposite operator="in" in="color-2"/>
      <feComposite operator="in" in2="SourceGraphic"/>
    </filter>
  </defs>
  <g id="img_score01" transform="translate(-89.5 -1106.299)">
    <g id="img_score_graph01" transform="translate(19204.5 18624)">
      <text id="미흡" transform="translate(-19115 -17438.875)" fill="#fff" font-size="10" font-family="SpoqaHanSansNeo-Bold, Spoqa Han Sans Neo" font-weight="700" letter-spacing="-0.02em" opacity="0.999"><tspan x="0" y="0">미흡</tspan></text>
      <text id="보통" transform="translate(-19045.646 -17507.701)" fill="#fff" font-size="10" font-family="SpoqaHanSansNeo-Regular, Spoqa Han Sans Neo" letter-spacing="-0.02em" opacity="0.999"><tspan x="0" y="0">보통</tspan></text>
      <text id="다소_미흡" data-name="다소
미흡" transform="translate(-19098.5 -17491.771)" fill="#fff" font-size="10" font-family="SpoqaHanSansNeo-Regular, Spoqa Han Sans Neo" letter-spacing="-0.02em" opacity="0.999"><tspan x="0" y="0">다소</tspan><tspan x="0" y="14">미흡</tspan></text>
      <text id="양호" transform="translate(-18997.4 -17507.701)" fill="#fff" font-size="10" font-family="SpoqaHanSansNeo-Regular, Spoqa Han Sans Neo" letter-spacing="-0.02em" opacity="0.999"><tspan x="0" y="0">양호</tspan></text>
      <text id="우수" transform="translate(-18944.5 -17484.725)" fill="#fff" font-size="10" font-family="SpoqaHanSansNeo-Regular, Spoqa Han Sans Neo" letter-spacing="-0.02em" opacity="0.999"><tspan x="0" y="0">우수</tspan></text>
      <text id="최우수" transform="translate(-18928 -17438.875)" fill="#fff" font-size="10" font-family="SpoqaHanSansNeo-Regular, Spoqa Han Sans Neo" letter-spacing="-0.02em" opacity="0.999"><tspan x="0" y="0">최우수</tspan></text>
      <line id="선_229" data-name="선 229" y2="4.127" transform="translate(-19012.521 -17506.262)" fill="none" stroke="#fff" stroke-linecap="round" stroke-width="1"/>
      <line id="선_230" data-name="선 230" x2="2.064" y2="3.575" transform="translate(-19055.402 -17494.449)" fill="none" stroke="#fff" stroke-linecap="round" stroke-width="1"/>
      <line id="선_231" data-name="선 231" x2="3.575" y2="2.064" transform="translate(-19086.93 -17462.916)" fill="none" stroke="#fff" stroke-linecap="round" stroke-width="1"/>
      <line id="선_232" data-name="선 232" x2="4" transform="translate(-19101 -17417.701)" fill="none" stroke="#fff" stroke-linecap="round" stroke-width="1"/>
      <line id="선_233" data-name="선 233" x1="4" transform="translate(-18928 -17417.701)" fill="none" stroke="#fff" stroke-linecap="round" stroke-width="1"/>
      <line id="선_234" data-name="선 234" x1="3.575" y2="2.064" transform="translate(-18941.645 -17462.916)" fill="none" stroke="#fff" stroke-linecap="round" stroke-width="1"/>
      <line id="선_235" data-name="선 235" x1="2.064" y2="3.575" transform="translate(-18971.705 -17494.449)" fill="none" stroke="#fff" stroke-linecap="round" stroke-width="1"/>
    </g>
    <g id="img_score01-2" data-name="img_score01" transform="translate(113.5 1125.865)">
      <g data-type="innerShadowGroup">
        <g transform="matrix(1, 0, 0, 1, -24, -19.57)" filter="url(#패스_10470)">
          <path id="패스_10470-3" data-name="패스 10470" d="M128.525,80a48.525,48.525,0,0,0-97.049,0H0a80,80,0,0,1,160,0Z" transform="translate(24 19.57)" fill="#edebec"/>
        </g>
        <g transform="matrix(1, 0, 0, 1, -24, -19.57)" filter="url(#패스_10470-2)">
          <path id="패스_10470-4" data-name="패스 10470" d="M128.525,80a48.525,48.525,0,0,0-97.049,0H0a80,80,0,0,1,160,0Z" transform="translate(24 19.57)" fill="#fff"/>
        </g>
      </g>
      <g data-type="innerShadowGroup">
        <path id="패스_10468-2" data-name="패스 10468" d="M37.467,46.771,9.894,31.613A79.991,79.991,0,0,0,0,70.15H31.473A48.289,48.289,0,0,1,37.467,46.771Z" transform="translate(0 9.85)" fill="#a8d70f"/>
        <g transform="matrix(1, 0, 0, 1, -24, -19.57)" filter="url(#패스_10468)">
          <path id="패스_10468-3" data-name="패스 10468" d="M37.467,46.771,9.894,31.613A79.991,79.991,0,0,0,0,70.15H31.473A48.289,48.289,0,0,1,37.467,46.771Z" transform="translate(24 29.42)" fill="#fff"/>
        </g>
      </g>
    </g>
  </g>
</svg>
