<svg xmlns="http://www.w3.org/2000/svg" width="42" height="42" viewBox="0 0 42 42">
  <g id="img_im_robot" transform="translate(-460 -2010)">
    <path id="패스_10031" data-name="패스 10031" d="M20.984,0h.033a21,21,0,0,1,0,42h-.033a21,21,0,0,1,0-42" transform="translate(460 2010)" fill="#0068ed"/>
    <path id="패스_10032" data-name="패스 10032" d="M34.584,21.293a9.524,9.524,0,0,0-8.756-5.714H24.9a3.129,3.129,0,0,0-2.455-1.64V11.056a1.564,1.564,0,1,0-.63,0V13.94a3.127,3.127,0,0,0-2.456,1.64H18.279a9.523,9.523,0,0,0-8.752,5.714,3.08,3.08,0,0,0-.54,5.722,9.5,9.5,0,0,0,9.3,7.4h7.547a9.5,9.5,0,0,0,9.3-7.4,3.078,3.078,0,0,0-.55-5.722" transform="translate(458.948 2008.521)" fill="#fff"/>
    <path id="패스_10033" data-name="패스 10033" d="M17.99,23.572H28.765a4.873,4.873,0,0,1,0,9.746H17.99a4.873,4.873,0,1,1,0-9.746" transform="translate(457.698 2006.121)" fill="#d6ecff"/>
    <path id="패스_10034" data-name="패스 10034" d="M19.658,27.52a1.547,1.547,0,1,1-1.539,1.547,1.542,1.542,0,0,1,1.539-1.547" transform="translate(457.066 2005.563)" fill="#5673b1"/>
    <path id="패스_10035" data-name="패스 10035" d="M30.053,27.52a1.547,1.547,0,1,1-1.539,1.547,1.542,1.542,0,0,1,1.539-1.547" transform="translate(455.383 2005.563)" fill="#5673b1"/>
    <path id="패스_10036" data-name="패스 10036" d="M10.193,26.285h0c0-5.2,3.8-9.417,8.974-9.417H18.1a9.368,9.368,0,0,0-8.616,5.714A3.1,3.1,0,0,0,8.948,28.3,9.381,9.381,0,0,0,18.1,35.7h1.462a9.394,9.394,0,0,1-9.371-9.416Z" transform="translate(458.95 2007.095)" fill="#d7ecff"/>
  </g>
</svg>
