<svg xmlns="http://www.w3.org/2000/svg" xmlns:xlink="http://www.w3.org/1999/xlink" width="180" height="180" viewBox="0 0 180 180">
  <defs>
    <clipPath id="clip-path">
      <rect id="사각형_27414" data-name="사각형 27414" width="180" height="180" transform="translate(-324 -18707)" fill="#fff"/>
    </clipPath>
    <clipPath id="clip-path-2">
      <rect id="사각형_27377" data-name="사각형 27377" width="142.259" height="160.479" fill="none"/>
    </clipPath>
  </defs>
  <g id="img_mbti08_intp" transform="translate(324 18707)" clip-path="url(#clip-path)">
    <g id="그룹_21253" data-name="그룹 21253" transform="translate(-305 -18697)">
      <rect id="사각형_27376" data-name="사각형 27376" width="37.601" height="3.761" transform="translate(16.921 94.335)" fill="#b57f5f"/>
      <g id="그룹_21252" data-name="그룹 21252" transform="translate(0 0)">
        <g id="그룹_21251" data-name="그룹 21251" clip-path="url(#clip-path-2)">
          <path id="패스_10921" data-name="패스 10921" d="M6.995,91.486a1.884,1.884,0,0,1-1.747-2.579L18.735,55.2a1.88,1.88,0,0,1,3.491,1.4L8.742,90.3a1.884,1.884,0,0,1-1.747,1.182" transform="translate(2.406 25.411)" fill="#c38c66"/>
          <path id="패스_10922" data-name="패스 10922" d="M47.109,91.486A1.882,1.882,0,0,1,45.362,90.3L31.876,56.592a1.881,1.881,0,0,1,3.492-1.4L48.854,88.907a1.883,1.883,0,0,1-1.745,2.579" transform="translate(14.933 25.412)" fill="#c38c66"/>
          <path id="패스_10923" data-name="패스 10923" d="M35.368,55.195a1.881,1.881,0,0,0-3.492,1.4l1.8,4.5q1.791-.618,3.494-1.4Z" transform="translate(14.933 25.412)" fill="#b57f5f"/>
          <path id="패스_10924" data-name="패스 10924" d="M17.4,54.147a1.885,1.885,0,0,0-2.444,1.047l-1.8,4.5q1.707.781,3.492,1.4l1.8-4.5A1.881,1.881,0,0,0,17.4,54.147" transform="translate(6.188 25.411)" fill="#b57f5f"/>
          <path id="패스_10925" data-name="패스 10925" d="M57.308,5.973V1.1a1.1,1.1,0,0,0-1.87-.775l-8.86,8.86a1.876,1.876,0,0,0-.55,1.329v6.742h6.741A1.875,1.875,0,0,0,54.1,16.7l8.86-8.86a1.1,1.1,0,0,0-.773-1.87Z" transform="translate(21.655 0)" fill="#ffe09f"/>
          <path id="패스_10926" data-name="패스 10926" d="M54.1,14.792l8.86-8.86a1.1,1.1,0,0,0-.773-1.87H57.308L46.028,15.343h6.741a1.88,1.88,0,0,0,1.329-.551" transform="translate(21.655 1.911)" fill="#f6d190"/>
          <path id="패스_10927" data-name="패스 10927" d="M71.443,44.9A35.721,35.721,0,1,1,35.721,9.176,35.721,35.721,0,0,1,71.443,44.9" transform="translate(0 4.317)" fill="#e5646e"/>
          <path id="패스_10928" data-name="패스 10928" d="M59.034,41.89A26.321,26.321,0,1,1,32.713,15.569,26.32,26.32,0,0,1,59.034,41.89" transform="translate(3.008 7.325)" fill="#fff"/>
          <path id="패스_10929" data-name="패스 10929" d="M46.626,38.883A16.921,16.921,0,1,1,29.706,21.962,16.921,16.921,0,0,1,46.626,38.883" transform="translate(6.015 10.332)" fill="#e5646e"/>
          <path id="패스_10930" data-name="패스 10930" d="M34.219,35.875a7.521,7.521,0,1,1-7.521-7.52,7.52,7.52,0,0,1,7.521,7.52" transform="translate(9.023 13.34)" fill="#fff"/>
          <path id="패스_10931" data-name="패스 10931" d="M24.893,47.98a1.879,1.879,0,0,1-1.329-3.209l37.6-37.6a1.88,1.88,0,1,1,2.659,2.659l-37.6,37.6a1.872,1.872,0,0,1-1.329.551" transform="translate(10.827 3.114)" fill="#d19a6e"/>
          <path id="패스_10932" data-name="패스 10932" d="M38.541,74.889A35.719,35.719,0,0,1,11.912,15.36,35.72,35.72,0,1,0,62.349,65.8a35.6,35.6,0,0,1-23.808,9.092" transform="translate(0 7.226)" fill="#db4655"/>
          <path id="패스_10933" data-name="패스 10933" d="M32.965,28.156a1.881,1.881,0,0,0-2.659,0L23.564,34.9a1.88,1.88,0,0,0,2.659,2.659l6.742-6.742a1.881,1.881,0,0,0,0-2.659" transform="translate(10.827 12.988)" fill="#857e87"/>
          <path id="패스_10934" data-name="패스 10934" d="M26.773,34.071a1.879,1.879,0,1,1-1.879-1.881,1.88,1.88,0,0,1,1.879,1.881" transform="translate(10.827 15.144)" fill="#6f6571"/>
          <path id="패스_10935" data-name="패스 10935" d="M75.707,48.265a6.127,6.127,0,1,0-6.127,6.127,6.128,6.128,0,0,0,6.127-6.127" transform="translate(29.852 19.825)" fill="#fcc3ac"/>
          <path id="패스_10936" data-name="패스 10936" d="M40.286,48.265a6.127,6.127,0,1,0-6.127,6.127,6.128,6.128,0,0,0,6.127-6.127" transform="translate(13.188 19.825)" fill="#fcc3ac"/>
          <path id="패스_10937" data-name="패스 10937" d="M109.068,109.4a13.464,13.464,0,0,1-5.532,7.739,10.949,10.949,0,0,1-6,1.779c-7.663-.043-15.325-.037-22.988-.05a4.459,4.459,0,0,1-3.913-4.622c-.1-4.835-.124-9.671.009-14.5a5.049,5.049,0,0,1,5.039-5.013c1.625-.094,3.256-.012,4.883-.034,1.75-.024,1.86-.134,1.913-1.825a8.514,8.514,0,0,1,.118-1.619c1.244-3.107,3.634-4.322,6.254-3.181a4.78,4.78,0,0,1,2.613,3.047c1.438,4.119.441,3.713,5.066,3.592,5.038-.131,10.634,3.092,12.042,8.092.029.1.124.106.229.024a.983.983,0,0,1,.269.038Z" transform="translate(33.191 41.236)" fill="#ffceb6"/>
          <path id="패스_10938" data-name="패스 10938" d="M44.557,57.163a45.276,45.276,0,0,0,4.955,6.61,26.132,26.132,0,0,0,41.169-5.417c.244-.419.565-.8.848-1.193,3.457.175,6.93-.24,10.377.266a21.233,21.233,0,0,1,16.58,11.608c2.419,4.632,4.375,9.505,6.538,14.271-.153.644-.746.746-1.225.96-3.789,1.694-7.6,3.344-11.378,5.058-.55.249-1.145.663-1.772.109a3.219,3.219,0,0,1-.237-1.5c-.068-2.376,0-4.751-.034-7.126-.021-1.594-.15-1.768-1.654-1.769-10.495-.015-20.989-.074-31.483.031a8.455,8.455,0,0,0-7.371,4.3c-.26.422-.466.872-.688,1.315-.3.6-.412,1.545-1.179,1.57-.837.028-.826-.971-1.09-1.554a8.885,8.885,0,0,0-8.642-5.652c-10.148-.044-20.3-.018-30.443-.013-2.084,0-2.11.044-2.123,2.2-.013,2.226.041,4.454-.026,6.68a3.353,3.353,0,0,1-.224,1.5c-.543.568-1.116.213-1.623-.016-3.745-1.688-7.516-3.317-11.258-5.013-.663-.3-1.579-.528-1.3-1.634,1.878-4.136,3.676-8.313,5.651-12.4,4.16-8.617,11.1-12.962,20.657-13.15,2.325-.046,4.651-.025,6.976-.035" transform="translate(5.279 26.893)" fill="#2279e8"/>
          <path id="패스_10939" data-name="패스 10939" d="M79.151,81.233q7.08-3.145,14.159-6.289c3.367,7.511,7.317,14.778,9.729,22.692A40.858,40.858,0,0,1,105,108.8c-.026.194-.051.387-.1.784-.491-.982-.887-1.819-1.323-2.632a9.2,9.2,0,0,0-1.675-2.24,12.145,12.145,0,0,0-8.627-3.609c-1.522-.024-3.3.557-4.494-.257-1.144-.782-1.119-2.639-1.612-4.02a4.1,4.1,0,0,0-3.642-2.819,3.984,3.984,0,0,0-3.747,1.948,11.546,11.546,0,0,0-.609,1,2.094,2.094,0,0,1-.516-1.784q-.035-6.077,0-12.153a2.154,2.154,0,0,1,.5-1.793" transform="translate(36.993 35.259)" fill="#fcc3ac"/>
          <path id="패스_10940" data-name="패스 10940" d="M20.885,79.855c.019-.506.037-1.012.056-1.518a2.668,2.668,0,0,1,1.967-.463q17.048-.018,34.094,0a3.228,3.228,0,0,1,2,.391,3.21,3.21,0,0,1,.429,2.135q.015,20.478,0,40.955a2.727,2.727,0,0,1-.484,2.107l-29.656.012c-.021-.648.568-.748.946-1.01a4.518,4.518,0,0,0,2.112-3.87c.029-4.648.066-9.3-.013-13.946a4.258,4.258,0,0,0-4.4-4.438c-1.828-.087-3.66.018-5.489-.043-1.581-.051-1.9-.376-1.95-1.953-.032-.938-.051-1.878-.006-2.819-.09-4.428-.04-8.855-.04-13.281a3.121,3.121,0,0,1,.437-2.259" transform="translate(9.614 36.633)" fill="#8b5942"/>
          <path id="패스_10941" data-name="패스 10941" d="M91.319,79.859q.007,7.866.013,15.73c-.012.1-.028.2-.035.294-.093,1.222.512,2.816-.232,3.575-.813.828-2.431.221-3.7.275-1.134.049-2.272-.024-3.406.021a4.641,4.641,0,0,0-4.545,4.561q-.082,7.33,0,14.659c.026,2.316,1.562,3.594,3.494,4.5l-29.656-.012a2.521,2.521,0,0,1-.484-1.956q-.015-20.674,0-41.35a2.966,2.966,0,0,1,.388-1.853,3.211,3.211,0,0,1,2.135-.431q16.924-.015,33.847,0a2.894,2.894,0,0,1,2.12.465c.018.507.037,1.015.054,1.522" transform="translate(24.824 36.633)" fill="#8b5942"/>
          <path id="패스_10942" data-name="패스 10942" d="M29.106,90.987c.013.147.034.294.04.443.043,1.175-.359,2.723.238,3.429.709.84,2.315.224,3.529.281,1.182.056,2.37-.024,3.554.022a4.649,4.649,0,0,1,4.554,4.558q.084,7.33,0,14.662c-.029,2.306-1.544,3.606-3.491,4.5-8.017.012-16.035.126-24.05,0C8.29,118.8,3.011,113.158,3.028,107.968c0-1.707-.338-3.447.247-5.13.162.175.254.037.288-.093,1.322-4.861,6.789-8.226,11.314-7.923,3.156.21,5.013-.416,5.869-3.891a4.278,4.278,0,0,1,6.738-2.478,3.742,3.742,0,0,1,1.623,2.534" transform="translate(1.379 41.225)" fill="#ffceb6"/>
          <path id="패스_10943" data-name="패스 10943" d="M29,97.131c-.2-.335-.394-.678-.609-1.006a4.087,4.087,0,0,0-7.164.332,11.711,11.711,0,0,0-1.14,3.348,1.613,1.613,0,0,1-1.917,1.52,21.218,21.218,0,0,0-5.023.115c-5.089.966-7.586,3.162-9.849,8.364-.057-.366-.094-.6-.129-.823A46.186,46.186,0,0,1,7,92.508c2.581-6.027,5.366-11.967,8.063-17.944-.007.866.734.962,1.287,1.21q6.324,2.832,12.661,5.633L29,97.131" transform="translate(1.489 35.08)" fill="#fcc3ac"/>
          <path id="패스_10944" data-name="패스 10944" d="M56.147,78.4q0,22.531,0,45.061h-9.52V78.4a1.559,1.559,0,0,1,1.32-.5q3.439-.079,6.88,0a1.563,1.563,0,0,1,1.32.5" transform="translate(21.936 36.632)" fill="#986852"/>
          <path id="패스_10945" data-name="패스 10945" d="M68.32,81.3H58.8l-29.1-.049-8.908-.015c-.007-2.772.015-5.542-.038-8.313-.016-.873.194-1.2,1.145-1.2,10.887.034,21.775-.015,32.662.046,4.178.022,7.673,3.111,8.81,7.526.646-.131.544-.75.7-1.151a9.463,9.463,0,0,1,9.229-6.4c10.492-.007,20.984.028,31.475-.038,1.368-.009,1.65.4,1.6,1.662-.1,2.619-.043,5.244-.05,7.867q-18.113.007-36.226.016c-.594,0-1.187.031-1.779.047" transform="translate(9.763 33.735)" fill="#f1e0c7"/>
          <path id="패스_10946" data-name="패스 10946" d="M59.058,89.2H57.01a24.5,24.5,0,0,1-24.5-24.505v-20.4a24.5,24.5,0,0,1,24.5-24.5h2.048a24.5,24.5,0,0,1,24.505,24.5v20.4A24.505,24.505,0,0,1,59.058,89.2" transform="translate(15.293 9.311)" fill="#ffceb6"/>
          <path id="패스_10947" data-name="패스 10947" d="M74.947,40.76H32A11.338,11.338,0,0,1,20.662,29.421v-.947A11.338,11.338,0,0,1,32,17.135H74.947A11.338,11.338,0,0,1,86.286,28.474v.947A11.338,11.338,0,0,1,74.947,40.76" transform="translate(9.721 8.061)" fill="#3d3d3d"/>
          <path id="패스_10948" data-name="패스 10948" d="M58.149,40.76,71.5,52.923V28.111A10.976,10.976,0,0,0,60.522,17.135H58.553Z" transform="translate(27.357 8.061)" fill="#3d3d3d"/>
          <path id="패스_10949" data-name="패스 10949" d="M33.752,98.384H20.886a3.125,3.125,0,1,1,0-6.249H33.752a3.125,3.125,0,0,1,0,6.249" transform="translate(8.356 43.347)" fill="#ffceb6"/>
          <path id="패스_10950" data-name="패스 10950" d="M33.752,106.884H20.886a3.125,3.125,0,1,1,0-6.249H33.752a3.125,3.125,0,0,1,0,6.249" transform="translate(9.798 47.345)" fill="#ffceb6"/>
          <path id="패스_10951" data-name="패스 10951" d="M33.752,111.134H20.886a3.125,3.125,0,1,1,0-6.249H33.752a3.125,3.125,0,0,1,0,6.249" transform="translate(8.356 48.959)" fill="#ffceb6"/>
          <path id="패스_10952" data-name="패스 10952" d="M36.693,102.634H20.886a3.125,3.125,0,1,1,0-6.249H36.693a3.125,3.125,0,0,1,0,6.249" transform="translate(8.356 45.346)" fill="#ffceb6"/>
          <path id="패스_10953" data-name="패스 10953" d="M71.886,98.384H84.752a3.125,3.125,0,1,0,0-6.249H71.886a3.125,3.125,0,1,0,0,6.249" transform="translate(32.35 43.347)" fill="#ffceb6"/>
          <path id="패스_10954" data-name="패스 10954" d="M71.886,106.884H84.752a3.125,3.125,0,1,0,0-6.249H71.886a3.125,3.125,0,1,0,0,6.249" transform="translate(30.554 47.345)" fill="#ffceb6"/>
          <path id="패스_10955" data-name="패스 10955" d="M71.886,111.134H84.752a3.125,3.125,0,1,0,0-6.249H71.886a3.125,3.125,0,1,0,0,6.249" transform="translate(32.35 48.959)" fill="#ffceb6"/>
          <path id="패스_10956" data-name="패스 10956" d="M69.886,102.634H85.693a3.125,3.125,0,1,0,0-6.249H69.886a3.125,3.125,0,1,0,0,6.249" transform="translate(31.409 45.346)" fill="#ffceb6"/>
        </g>
      </g>
    </g>
  </g>
</svg>
