<svg xmlns="http://www.w3.org/2000/svg" xmlns:xlink="http://www.w3.org/1999/xlink" width="180" height="180" viewBox="0 0 180 180">
  <defs>
    <clipPath id="clip-path">
      <rect id="사각형_27412" data-name="사각형 27412" width="180" height="180" transform="translate(-723 -18708)" fill="#fff"/>
    </clipPath>
    <clipPath id="clip-path-2">
      <rect id="사각형_27356" data-name="사각형 27356" width="166.508" height="157.641" fill="none"/>
    </clipPath>
  </defs>
  <g id="img_mbti06_isfp" transform="translate(723 18708)" clip-path="url(#clip-path)">
    <g id="그룹_21240" data-name="그룹 21240" transform="translate(-716 -18697)">
      <g id="그룹_21239" data-name="그룹 21239" clip-path="url(#clip-path-2)">
        <path id="패스_10792" data-name="패스 10792" d="M160.973,96.521a11.107,11.107,0,0,1-4.9,3.53,2.553,2.553,0,0,1-3.482-2.578,9.93,9.93,0,0,1,6.842-9.242,2.553,2.553,0,0,1,3.482,2.578,11.115,11.115,0,0,1-1.947,5.712" fill="#7bba84"/>
        <path id="패스_10793" data-name="패스 10793" d="M147.57,86.575a11.109,11.109,0,0,1,4.295,4.239,2.553,2.553,0,0,1-1.962,3.862,9.929,9.929,0,0,1-10.252-5.208,2.553,2.553,0,0,1,1.963-3.862,11.112,11.112,0,0,1,5.956.969" fill="#7bba84"/>
        <path id="패스_10794" data-name="패스 10794" d="M164.508,113.985a1.994,1.994,0,0,1-1.427-.6c-22.8-23.219-14.607-53.217-14.247-54.483A2,2,0,0,1,152.682,60c-.081.288-7.887,29.063,13.253,50.588a2,2,0,0,1-1.427,3.4" fill="#7bba84"/>
        <path id="패스_10795" data-name="패스 10795" d="M112.441,80.468c-.142-4.821-.323-9.659-.081-14.469.56-11.1-2.47-20.946-9.947-29.214-4.474-4.947-9.181-9.693-13.928-14.382A34.382,34.382,0,0,1,80.1,9.662c-.969-2.645-1.985-5.284-3.209-7.816C76.488,1.006,75.3-.085,74.6,0c-.859.11-1.69,1.248-2.313,2.1A5.311,5.311,0,0,0,71.6,4.287c-.289,1.667-.522,3.346-.728,5.025-.394,3.2-.518,6.429-3.417,8.731-2.641,2.1-3.3,4.821-1.743,7.962a4.307,4.307,0,0,1-.67,4.883c-.478.6-.97,1.2-1.413,1.828a4.336,4.336,0,0,0-.083,5.04c.367.557.766,1.093,1.153,1.637,1.636,2.3,1.547,3.18-.519,5.128-1.938,1.828-2.33,4.461-.88,6.333a7.564,7.564,0,0,0,1.658,1.6,2.994,2.994,0,0,1,1.155,3.9,12.9,12.9,0,0,0-.44,1.633,5.78,5.78,0,0,0,1.766,6.013c.914.8,1.791,1.65,2.685,2.477l43.436,16.115a2.288,2.288,0,0,1-1.121-2.117" fill="#e1edff"/>
        <path id="패스_10796" data-name="패스 10796" d="M152.758,83.451c-.92.5-1.36.81-1.85,1.01-2.09.85-4.18,1.72-6.3,2.48a5.894,5.894,0,0,0-.58.24l1.52-8.38a7.458,7.458,0,0,0,4.04,3.3c.92.35,1.82.77,3.17,1.35" fill="#fcc973"/>
        <path id="패스_10797" data-name="패스 10797" d="M145.548,78.8l-1.52,8.38a4.744,4.744,0,0,0-2.55,2.72c-1.08,2.88-2.22,5.74-3.1,8.68-2.48,8.23-7.36,14.82-13.64,20.49-11.81,10.67-25.8,16.52-41.39,18.88-8.32,1.26-16.65,2.46-24.92,4.01a45.4,45.4,0,0,0-5.94,1.54l-19.75,5.12-23.93,6.2a11.162,11.162,0,0,0-3.53-.3c-.55-.01-1.09.32-1.64.34a3.447,3.447,0,0,1-3.37-2.01,2.307,2.307,0,0,1,1.01-3.08,47.5,47.5,0,0,1,6.97-4.45c8.65-4.02,17.49-7.62,26.08-11.76a147.608,147.608,0,0,0,33.5-22.25c.27-.24.54-.49.83-.77l.1.1c5.07-4.33,16-16,16-16-30,0-69.47-38.93-69.47-38.93q-4.62-3.99-9.26-7.97c.06-.16.11-.31.17-.47a3.2,3.2,0,0,1,1.14-.07c1.7.57,3.4,1.16,5.06,1.82,9.94,3.91,19.95,7.56,30.42,9.82,5.6,1.21,11.22,2.41,16.77,3.88a92.9,92.9,0,0,1,8.79,3.24,7.092,7.092,0,0,0,1.75.51l43.43,16.11a1.624,1.624,0,0,0,.28.11,2.759,2.759,0,0,0,2.34-.52,7.777,7.777,0,0,0,1.5-1.53c1.68-2.01,3.23-4.13,5.01-6.04a16.648,16.648,0,0,1,9.49-5.04c4.06-.72,7.39.84,9.97,3.92a24.057,24.057,0,0,1,3.09,4.75c.1.2.2.39.31.57" fill="#f0f6ff"/>
        <path id="패스_10798" data-name="패스 10798" d="M8.808,154.821c2.25.79,4.4,1.86,6.59,2.82h3.09a29.435,29.435,0,0,0,10.17-4.52,5.4,5.4,0,0,1,1.85-.74l2.23-3.76Z" fill="#e1edff"/>
        <path id="패스_10799" data-name="패스 10799" d="M52.488,143.5a45.428,45.428,0,0,0-13.32,6.98,9.2,9.2,0,0,1-7.35,1.84,3.9,3.9,0,0,0-1.31.06l2.23-3.76Z" fill="#cce1ff"/>
        <path id="패스_10800" data-name="패스 10800" d="M68.411,110.171c-.036,0-.072,0-.108,0l.355.365.122-.116c-.16-.113-.269-.258-.369-.252" fill="#f0f6ff"/>
        <path id="패스_10801" data-name="패스 10801" d="M84.758,94.641c-30,0-69.466-38.932-69.466-38.932a1.092,1.092,0,0,1-.71.031c-.527-.054-1.057-.079-1.587-.116a4.487,4.487,0,0,0-.053,1.575,26.6,26.6,0,0,0,1.544,3.674,128.022,128.022,0,0,0,12.538,19C34.1,89,41.768,97.547,51.318,104.193c5.095,3.546,10.5,6.335,16.986,5.981.036,0,.071,0,.108,0,.1-.006.209.139.369.252l-.122.116.1.1c5.075-4.33,16-16,16-16" fill="#e1edff"/>
        <path id="패스_10802" data-name="패스 10802" d="M28.175,81.339,73.718,106l-6.661,5.985s-34.3-11.344-38.3-25.344c0,0-5.166-6.6-.583-5.3" fill="#cce1ff"/>
        <path id="패스_10803" data-name="패스 10803" d="M157.973,75.521a11.107,11.107,0,0,1-4.9,3.53,2.553,2.553,0,0,1-3.482-2.578,9.93,9.93,0,0,1,6.842-9.242,2.553,2.553,0,0,1,3.482,2.578,11.115,11.115,0,0,1-1.947,5.712" fill="#7bba84"/>
        <path id="패스_10804" data-name="패스 10804" d="M146.426,61.161a11.106,11.106,0,0,1,3.06,5.2,2.553,2.553,0,0,1-2.89,3.228,9.93,9.93,0,0,1-8.566-7.67,2.553,2.553,0,0,1,2.89-3.228,11.112,11.112,0,0,1,5.506,2.469" fill="#7bba84"/>
        <path id="패스_10805" data-name="패스 10805" d="M137.686,83.428a3.1,3.1,0,0,1-2.192-.906.81.81,0,0,1,1.146-1.144,1.481,1.481,0,0,0,2.091,0,.81.81,0,0,1,1.146,1.144,3.1,3.1,0,0,1-2.192.906" transform="translate(-0.928 -0.437)" fill="#212121"/>
      </g>
    </g>
  </g>
</svg>
