<svg xmlns="http://www.w3.org/2000/svg" xmlns:xlink="http://www.w3.org/1999/xlink" width="215" height="112" viewBox="0 0 215 112">
  <defs>
    <filter id="패스_10480" x="15" y="14" width="178" height="98" filterUnits="userSpaceOnUse">
      <feOffset dy="3" input="SourceAlpha"/>
      <feGaussianBlur stdDeviation="3" result="blur"/>
      <feFlood flood-opacity="0.102"/>
      <feComposite operator="in" in2="blur"/>
      <feComposite in="SourceGraphic"/>
    </filter>
    <filter id="패스_10480-2" x="15" y="14" width="178" height="98" filterUnits="userSpaceOnUse">
      <feOffset dy="2" input="SourceAlpha"/>
      <feGaussianBlur stdDeviation="2" result="blur-2"/>
      <feFlood flood-opacity="0.102" result="color"/>
      <feComposite operator="out" in="SourceGraphic" in2="blur-2"/>
      <feComposite operator="in" in="color"/>
      <feComposite operator="in" in2="SourceGraphic"/>
    </filter>
    <filter id="패스_10481">
      <feOffset dy="2" input="SourceAlpha"/>
      <feGaussianBlur stdDeviation="3" result="blur-3"/>
      <feFlood flood-opacity="0.161" result="color-2"/>
      <feComposite operator="out" in="SourceGraphic" in2="blur-3"/>
      <feComposite operator="in" in="color-2"/>
      <feComposite operator="in" in2="SourceGraphic"/>
    </filter>
  </defs>
  <g id="img_score06" transform="translate(-95.518 -1776.145)">
    <g id="img_score_graph06" transform="translate(19210.518 19293.846)">
      <text id="미흡" transform="translate(-19115 -17438.875)" fill="#fff" font-size="10" font-family="SpoqaHanSansNeo-Regular, Spoqa Han Sans Neo" letter-spacing="-0.02em" opacity="0.999"><tspan x="0" y="0">미흡</tspan></text>
      <text id="보통" transform="translate(-19045.646 -17507.701)" fill="#fff" font-size="10" font-family="SpoqaHanSansNeo-Regular, Spoqa Han Sans Neo" letter-spacing="-0.02em" opacity="0.999"><tspan x="0" y="0">보통</tspan></text>
      <text id="다소_미흡" data-name="다소
미흡" transform="translate(-19098.5 -17491.771)" fill="#fff" font-size="10" font-family="SpoqaHanSansNeo-Regular, Spoqa Han Sans Neo" letter-spacing="-0.02em" opacity="0.999"><tspan x="0" y="0">다소</tspan><tspan x="0" y="14">미흡</tspan></text>
      <text id="양호" transform="translate(-18997.4 -17507.701)" fill="#fff" font-size="10" font-family="SpoqaHanSansNeo-Regular, Spoqa Han Sans Neo" letter-spacing="-0.02em" opacity="0.999"><tspan x="0" y="0">양호</tspan></text>
      <text id="우수" transform="translate(-18944.5 -17484.725)" fill="#fff" font-size="10" font-family="SpoqaHanSansNeo-Regular, Spoqa Han Sans Neo" letter-spacing="-0.02em" opacity="0.999"><tspan x="0" y="0">우수</tspan></text>
      <text id="최우수" transform="translate(-18928 -17438.875)" fill="#fff" font-size="10" font-family="SpoqaHanSansNeo-Bold, Spoqa Han Sans Neo" font-weight="700" letter-spacing="-0.02em" opacity="0.999"><tspan x="0" y="0">최우수</tspan></text>
      <line id="선_229" data-name="선 229" y2="4.127" transform="translate(-19012.521 -17506.262)" fill="none" stroke="#fff" stroke-linecap="round" stroke-width="1"/>
      <line id="선_230" data-name="선 230" x2="2.064" y2="3.575" transform="translate(-19055.402 -17494.449)" fill="none" stroke="#fff" stroke-linecap="round" stroke-width="1"/>
      <line id="선_231" data-name="선 231" x2="3.575" y2="2.064" transform="translate(-19086.93 -17462.916)" fill="none" stroke="#fff" stroke-linecap="round" stroke-width="1"/>
      <line id="선_232" data-name="선 232" x2="4" transform="translate(-19101 -17417.701)" fill="none" stroke="#fff" stroke-linecap="round" stroke-width="1"/>
      <line id="선_233" data-name="선 233" x1="4" transform="translate(-18928 -17417.701)" fill="none" stroke="#fff" stroke-linecap="round" stroke-width="1"/>
      <line id="선_234" data-name="선 234" x1="3.575" y2="2.064" transform="translate(-18941.645 -17462.916)" fill="none" stroke="#fff" stroke-linecap="round" stroke-width="1"/>
      <line id="선_235" data-name="선 235" x1="2.064" y2="3.575" transform="translate(-18971.705 -17494.449)" fill="none" stroke="#fff" stroke-linecap="round" stroke-width="1"/>
    </g>
    <g id="img_score06-2" data-name="img_score06" transform="translate(119.518 1796.145)">
      <g data-type="innerShadowGroup">
        <g transform="matrix(1, 0, 0, 1, -24, -20)" filter="url(#패스_10480)">
          <path id="패스_10480-3" data-name="패스 10480" d="M128.525,80a48.525,48.525,0,0,0-97.049,0H0a80,80,0,0,1,160,0Z" transform="translate(24 20)" fill="#edebec"/>
        </g>
        <g transform="matrix(1, 0, 0, 1, -24, -20)" filter="url(#패스_10480-2)">
          <path id="패스_10480-4" data-name="패스 10480" d="M128.525,80a48.525,48.525,0,0,0-97.049,0H0a80,80,0,0,1,160,0Z" transform="translate(24 20)" fill="#fff"/>
        </g>
      </g>
      <g data-type="innerShadowGroup">
        <path id="패스_10481-2" data-name="패스 10481" d="M80,31.475A48.524,48.524,0,0,1,128.525,80H160q0-2.007-.1-3.988c-.05-1-.134-2-.22-2.993-.026-.3-.041-.609-.07-.91a79.9,79.9,0,0,0-15.224-39.582c-.047-.064-.092-.132-.139-.2-.656-.883-1.338-1.746-2.03-2.6-.135-.168-.262-.342-.4-.509-.631-.769-1.288-1.515-1.949-2.26-.207-.235-.4-.479-.615-.711-.751-.829-1.53-1.637-2.317-2.435q-.362-.366-.728-.728c-.805-.8-1.621-1.582-2.458-2.341-.227-.2-.466-.4-.7-.6-.75-.665-1.5-1.327-2.275-1.963-.164-.134-.334-.258-.5-.391-.859-.7-1.725-1.38-2.611-2.038-.066-.047-.132-.092-.2-.14A79.9,79.9,0,0,0,87.891.391c-.3-.029-.607-.043-.91-.07-1-.087-1.992-.17-2.993-.22Q82.005,0,80,0T76.012.1c-1,.05-2,.134-2.993.22-.3.026-.609.041-.91.07A79.9,79.9,0,0,0,32.5,15.63c-.056.042-.115.08-.172.122-.9.671-1.79,1.37-2.666,2.08-.146.118-.3.228-.441.346-.81.666-1.6,1.36-2.386,2.058-.193.172-.393.333-.584.506q-1.444,1.308-2.825,2.69t-2.69,2.825c-.174.191-.337.393-.509.588-.7.783-1.389,1.571-2.054,2.38-.122.148-.235.3-.355.452-.707.872-1.4,1.753-2.072,2.656-.042.056-.08.115-.122.172A79.9,79.9,0,0,0,.391,72.109c-.029.3-.043.607-.07.91-.087,1-.17,1.992-.22,2.993Q0,77.995,0,80H31.475A48.524,48.524,0,0,1,80,31.475Z" fill="#a8d70f"/>
        <g transform="matrix(1, 0, 0, 1, -24, -20)" filter="url(#패스_10481)">
          <path id="패스_10481-3" data-name="패스 10481" d="M80,31.475A48.524,48.524,0,0,1,128.525,80H160q0-2.007-.1-3.988c-.05-1-.134-2-.22-2.993-.026-.3-.041-.609-.07-.91a79.9,79.9,0,0,0-15.224-39.582c-.047-.064-.092-.132-.139-.2-.656-.883-1.338-1.746-2.03-2.6-.135-.168-.262-.342-.4-.509-.631-.769-1.288-1.515-1.949-2.26-.207-.235-.4-.479-.615-.711-.751-.829-1.53-1.637-2.317-2.435q-.362-.366-.728-.728c-.805-.8-1.621-1.582-2.458-2.341-.227-.2-.466-.4-.7-.6-.75-.665-1.5-1.327-2.275-1.963-.164-.134-.334-.258-.5-.391-.859-.7-1.725-1.38-2.611-2.038-.066-.047-.132-.092-.2-.14A79.9,79.9,0,0,0,87.891.391c-.3-.029-.607-.043-.91-.07-1-.087-1.992-.17-2.993-.22Q82.005,0,80,0T76.012.1c-1,.05-2,.134-2.993.22-.3.026-.609.041-.91.07A79.9,79.9,0,0,0,32.5,15.63c-.056.042-.115.08-.172.122-.9.671-1.79,1.37-2.666,2.08-.146.118-.3.228-.441.346-.81.666-1.6,1.36-2.386,2.058-.193.172-.393.333-.584.506q-1.444,1.308-2.825,2.69t-2.69,2.825c-.174.191-.337.393-.509.588-.7.783-1.389,1.571-2.054,2.38-.122.148-.235.3-.355.452-.707.872-1.4,1.753-2.072,2.656-.042.056-.08.115-.122.172A79.9,79.9,0,0,0,.391,72.109c-.029.3-.043.607-.07.91-.087,1-.17,1.992-.22,2.993Q0,77.995,0,80H31.475A48.524,48.524,0,0,1,80,31.475Z" transform="translate(24 20)" fill="#fff"/>
        </g>
      </g>
    </g>
  </g>
</svg>
