<svg xmlns="http://www.w3.org/2000/svg" xmlns:xlink="http://www.w3.org/1999/xlink" width="68" height="68" viewBox="0 0 68 68">
  <defs>
    <clipPath id="clip-path">
      <rect id="사각형_27319" data-name="사각형 27319" width="68" height="68" transform="translate(814 1498)" fill="#fff" stroke="#707070" stroke-width="1"/>
    </clipPath>
    <linearGradient id="linear-gradient" x1="0.5" x2="0.5" y2="1" gradientUnits="objectBoundingBox">
      <stop offset="0" stop-color="#2eeee3"/>
      <stop offset="1" stop-color="#54adff"/>
    </linearGradient>
    <filter id="패스_10716" x="16" y="18" width="36.402" height="34.023" filterUnits="userSpaceOnUse">
      <feOffset dy="1" input="SourceAlpha"/>
      <feGaussianBlur stdDeviation="1" result="blur"/>
      <feFlood flood-color="#144788" flood-opacity="0.2"/>
      <feComposite operator="in" in2="blur"/>
      <feComposite in="SourceGraphic"/>
    </filter>
    <filter id="패스_10716-2" x="16" y="18" width="36.402" height="34.023" filterUnits="userSpaceOnUse">
      <feOffset dy="-2" input="SourceAlpha"/>
      <feGaussianBlur stdDeviation="0.5" result="blur-2"/>
      <feFlood flood-color="#0068ed" flood-opacity="0.302" result="color"/>
      <feComposite operator="out" in="SourceGraphic" in2="blur-2"/>
      <feComposite operator="in" in="color"/>
      <feComposite operator="in" in2="SourceGraphic"/>
    </filter>
  </defs>
  <g id="PDF_img_arrow01_right" transform="translate(-814 -1498)" clip-path="url(#clip-path)">
    <g data-type="innerShadowGroup">
      <g transform="matrix(1, 0, 0, 1, 814, 1498)" filter="url(#패스_10716)">
        <path id="패스_10716-3" data-name="패스 10716" d="M1.5,0A24.549,24.549,0,0,1,25.966,22.959l1.876-1.876a1.5,1.5,0,1,1,2.121,2.122l-4.38,4.379a1.5,1.5,0,0,1-2.121,0l-4.38-4.379A1.5,1.5,0,1,1,21.2,21.083l1.732,1.732A21.538,21.538,0,0,0,1.5,3a1.5,1.5,0,0,1,0-3" transform="translate(19 20)" fill="url(#linear-gradient)"/>
      </g>
      <g transform="matrix(1, 0, 0, 1, 814, 1498)" filter="url(#패스_10716-2)">
        <path id="패스_10716-4" data-name="패스 10716" d="M1.5,0A24.549,24.549,0,0,1,25.966,22.959l1.876-1.876a1.5,1.5,0,1,1,2.121,2.122l-4.38,4.379a1.5,1.5,0,0,1-2.121,0l-4.38-4.379A1.5,1.5,0,1,1,21.2,21.083l1.732,1.732A21.538,21.538,0,0,0,1.5,3a1.5,1.5,0,0,1,0-3" transform="translate(19 20)" fill="#fff"/>
      </g>
    </g>
  </g>
</svg>
