<svg xmlns="http://www.w3.org/2000/svg" xmlns:xlink="http://www.w3.org/1999/xlink" width="215" height="112" viewBox="0 0 215 112">
  <defs>
    <filter id="패스_10478" x="16.098" y="14" width="178" height="98" filterUnits="userSpaceOnUse">
      <feOffset dy="3" input="SourceAlpha"/>
      <feGaussianBlur stdDeviation="3" result="blur"/>
      <feFlood flood-opacity="0.102"/>
      <feComposite operator="in" in2="blur"/>
      <feComposite in="SourceGraphic"/>
    </filter>
    <filter id="패스_10478-2" x="16.098" y="14" width="178" height="98" filterUnits="userSpaceOnUse">
      <feOffset dy="2" input="SourceAlpha"/>
      <feGaussianBlur stdDeviation="2" result="blur-2"/>
      <feFlood flood-opacity="0.102" result="color"/>
      <feComposite operator="out" in="SourceGraphic" in2="blur-2"/>
      <feComposite operator="in" in="color"/>
      <feComposite operator="in" in2="SourceGraphic"/>
    </filter>
    <filter id="패스_10479">
      <feOffset dx="1" dy="3" input="SourceAlpha"/>
      <feGaussianBlur stdDeviation="3" result="blur-3"/>
      <feFlood flood-opacity="0.161" result="color-2"/>
      <feComposite operator="out" in="SourceGraphic" in2="blur-3"/>
      <feComposite operator="in" in="color-2"/>
      <feComposite operator="in" in2="SourceGraphic"/>
    </filter>
  </defs>
  <g id="img_score05" transform="translate(-91 -1629.145)">
    <g id="img_score_graph05" transform="translate(19206 19146.846)">
      <text id="미흡" transform="translate(-19115 -17438.875)" fill="#fff" font-size="10" font-family="SpoqaHanSansNeo-Regular, Spoqa Han Sans Neo" letter-spacing="-0.02em" opacity="0.999"><tspan x="0" y="0">미흡</tspan></text>
      <text id="보통" transform="translate(-19045.646 -17507.701)" fill="#fff" font-size="10" font-family="SpoqaHanSansNeo-Regular, Spoqa Han Sans Neo" letter-spacing="-0.02em" opacity="0.999"><tspan x="0" y="0">보통</tspan></text>
      <text id="다소_미흡" data-name="다소
미흡" transform="translate(-19098.5 -17491.771)" fill="#fff" font-size="10" font-family="SpoqaHanSansNeo-Regular, Spoqa Han Sans Neo" letter-spacing="-0.02em" opacity="0.999"><tspan x="0" y="0">다소</tspan><tspan x="0" y="14">미흡</tspan></text>
      <text id="양호" transform="translate(-18997.4 -17507.701)" fill="#fff" font-size="10" font-family="SpoqaHanSansNeo-Regular, Spoqa Han Sans Neo" letter-spacing="-0.02em" opacity="0.999"><tspan x="0" y="0">양호</tspan></text>
      <text id="우수" transform="translate(-18944.5 -17484.725)" fill="#fff" font-size="10" font-family="SpoqaHanSansNeo-Bold, Spoqa Han Sans Neo" font-weight="700" letter-spacing="-0.02em" opacity="0.999"><tspan x="0" y="0">우수</tspan></text>
      <text id="최우수" transform="translate(-18928 -17438.875)" fill="#fff" font-size="10" font-family="SpoqaHanSansNeo-Regular, Spoqa Han Sans Neo" letter-spacing="-0.02em" opacity="0.999"><tspan x="0" y="0">최우수</tspan></text>
      <line id="선_229" data-name="선 229" y2="4.127" transform="translate(-19012.521 -17506.262)" fill="none" stroke="#fff" stroke-linecap="round" stroke-width="1"/>
      <line id="선_230" data-name="선 230" x2="2.064" y2="3.575" transform="translate(-19055.402 -17494.449)" fill="none" stroke="#fff" stroke-linecap="round" stroke-width="1"/>
      <line id="선_231" data-name="선 231" x2="3.575" y2="2.064" transform="translate(-19086.93 -17462.916)" fill="none" stroke="#fff" stroke-linecap="round" stroke-width="1"/>
      <line id="선_232" data-name="선 232" x2="4" transform="translate(-19101 -17417.701)" fill="none" stroke="#fff" stroke-linecap="round" stroke-width="1"/>
      <line id="선_233" data-name="선 233" x1="4" transform="translate(-18928 -17417.701)" fill="none" stroke="#fff" stroke-linecap="round" stroke-width="1"/>
      <line id="선_234" data-name="선 234" x1="3.575" y2="2.064" transform="translate(-18941.645 -17462.916)" fill="none" stroke="#fff" stroke-linecap="round" stroke-width="1"/>
      <line id="선_235" data-name="선 235" x1="2.064" y2="3.575" transform="translate(-18971.705 -17494.449)" fill="none" stroke="#fff" stroke-linecap="round" stroke-width="1"/>
    </g>
    <g id="img_score05-2" data-name="img_score05" transform="translate(116.098 1649.145)">
      <g data-type="innerShadowGroup">
        <g transform="matrix(1, 0, 0, 1, -25.1, -20)" filter="url(#패스_10478)">
          <path id="패스_10478-3" data-name="패스 10478" d="M128.525,80a48.525,48.525,0,0,0-97.049,0H0a80,80,0,0,1,160,0Z" transform="translate(25.1 20)" fill="#edebec"/>
        </g>
        <g transform="matrix(1, 0, 0, 1, -25.1, -20)" filter="url(#패스_10478-2)">
          <path id="패스_10478-4" data-name="패스 10478" d="M128.525,80a48.525,48.525,0,0,0-97.049,0H0a80,80,0,0,1,160,0Z" transform="translate(25.1 20)" fill="#fff"/>
        </g>
      </g>
      <g data-type="innerShadowGroup">
        <path id="패스_10479-2" data-name="패스 10479" d="M80,31.475a48.451,48.451,0,0,1,39.252,20.007l25.46-18.5c-.081-.113-.16-.23-.243-.341-.329-.449-.668-.888-1-1.327q-.6-.787-1.224-1.558c-.313-.387-.628-.772-.948-1.154-.488-.582-.988-1.154-1.491-1.722-.271-.306-.54-.615-.817-.918q-1.121-1.224-2.291-2.4c-.047-.047-.09-.1-.138-.144q-1.243-1.241-2.543-2.424c-.292-.268-.593-.526-.889-.79-.576-.511-1.155-1.018-1.746-1.512-.378-.316-.759-.628-1.141-.936q-.779-.63-1.572-1.235c-.433-.332-.864-.665-1.3-.988-.472-.346-.953-.682-1.433-1.019q-3.053-2.14-6.3-4c-.22-.126-.439-.256-.661-.38-.757-.422-1.521-.829-2.291-1.226-.2-.1-.4-.207-.6-.31-.824-.416-1.651-.821-2.489-1.209l-.189-.085a79.834,79.834,0,0,0-8.674-3.39q-1.4-.456-2.82-.855l-.376-.108q-1.361-.38-2.733-.712c-.174-.042-.35-.08-.525-.121C95.746,1.529,93.2,1.07,90.646.727,90.064.649,89.483.569,88.9.5c-.551-.062-1.1-.111-1.654-.161Q86.121.24,84.994.17C84.55.143,84.108.113,83.665.093,82.449.038,81.23,0,80,0h0c-1.229,0-2.449.038-3.664.093-.442.02-.885.05-1.329.077q-1.127.071-2.248.17c-.552.051-1.1.1-1.655.163-.586.066-1.166.146-1.748.223q-3.836.513-7.625,1.394c-.174.041-.349.079-.522.121q-1.373.33-2.736.712L58.1,3.06c-.944.269-1.885.552-2.821.856a79.834,79.834,0,0,0-8.674,3.39l-.189.085q-1.257.582-2.491,1.21c-.2.1-.4.2-.6.308-.77.4-1.536.8-2.292,1.226-.222.125-.441.254-.661.38q-3.244,1.849-6.3,4c-.48.337-.963.671-1.435,1.019-.438.323-.871.656-1.3.986q-.795.61-1.575,1.238c-.382.308-.762.618-1.138.934-.591.5-1.174,1-1.75,1.516-.3.262-.594.519-.885.786-.864.792-1.717,1.6-2.544,2.426-.045.043-.085.089-.13.134q-1.176,1.18-2.3,2.413c-.275.3-.543.61-.814.915q-.757.852-1.492,1.723c-.32.382-.635.767-.948,1.154q-.622.771-1.224,1.558c-.337.439-.675.879-1,1.327s-.67.935-1,1.406q-2.191,3.122-4.071,6.418c-.114.2-.232.4-.344.6-.426.765-.837,1.538-1.237,2.315-.1.2-.2.4-.3.6-.416.822-.82,1.651-1.205,2.487-.035.077-.07.156-.1.233a79.8,79.8,0,0,0-4.2,11.373c-.035.126-.072.252-.108.378q-.38,1.355-.712,2.725c-.038.161-.073.323-.111.484Q1.245,65.451.729,69.332c-.077.578-.156,1.155-.22,1.738-.063.556-.115,1.113-.165,1.672q-.1,1.115-.172,2.243c-.028.447-.059.893-.079,1.342C.038,77.545,0,78.767,0,80H31.476A48.524,48.524,0,0,1,80,31.475Z" fill="#a8d70f"/>
        <g transform="matrix(1, 0, 0, 1, -25.1, -20)" filter="url(#패스_10479)">
          <path id="패스_10479-3" data-name="패스 10479" d="M80,31.475a48.451,48.451,0,0,1,39.252,20.007l25.46-18.5c-.081-.113-.16-.23-.243-.341-.329-.449-.668-.888-1-1.327q-.6-.787-1.224-1.558c-.313-.387-.628-.772-.948-1.154-.488-.582-.988-1.154-1.491-1.722-.271-.306-.54-.615-.817-.918q-1.121-1.224-2.291-2.4c-.047-.047-.09-.1-.138-.144q-1.243-1.241-2.543-2.424c-.292-.268-.593-.526-.889-.79-.576-.511-1.155-1.018-1.746-1.512-.378-.316-.759-.628-1.141-.936q-.779-.63-1.572-1.235c-.433-.332-.864-.665-1.3-.988-.472-.346-.953-.682-1.433-1.019q-3.053-2.14-6.3-4c-.22-.126-.439-.256-.661-.38-.757-.422-1.521-.829-2.291-1.226-.2-.1-.4-.207-.6-.31-.824-.416-1.651-.821-2.489-1.209l-.189-.085a79.834,79.834,0,0,0-8.674-3.39q-1.4-.456-2.82-.855l-.376-.108q-1.361-.38-2.733-.712c-.174-.042-.35-.08-.525-.121C95.746,1.529,93.2,1.07,90.646.727,90.064.649,89.483.569,88.9.5c-.551-.062-1.1-.111-1.654-.161Q86.121.24,84.994.17C84.55.143,84.108.113,83.665.093,82.449.038,81.23,0,80,0h0c-1.229,0-2.449.038-3.664.093-.442.02-.885.05-1.329.077q-1.127.071-2.248.17c-.552.051-1.1.1-1.655.163-.586.066-1.166.146-1.748.223q-3.836.513-7.625,1.394c-.174.041-.349.079-.522.121q-1.373.33-2.736.712L58.1,3.06c-.944.269-1.885.552-2.821.856a79.834,79.834,0,0,0-8.674,3.39l-.189.085q-1.257.582-2.491,1.21c-.2.1-.4.2-.6.308-.77.4-1.536.8-2.292,1.226-.222.125-.441.254-.661.38q-3.244,1.849-6.3,4c-.48.337-.963.671-1.435,1.019-.438.323-.871.656-1.3.986q-.795.61-1.575,1.238c-.382.308-.762.618-1.138.934-.591.5-1.174,1-1.75,1.516-.3.262-.594.519-.885.786-.864.792-1.717,1.6-2.544,2.426-.045.043-.085.089-.13.134q-1.176,1.18-2.3,2.413c-.275.3-.543.61-.814.915q-.757.852-1.492,1.723c-.32.382-.635.767-.948,1.154q-.622.771-1.224,1.558c-.337.439-.675.879-1,1.327s-.67.935-1,1.406q-2.191,3.122-4.071,6.418c-.114.2-.232.4-.344.6-.426.765-.837,1.538-1.237,2.315-.1.2-.2.4-.3.6-.416.822-.82,1.651-1.205,2.487-.035.077-.07.156-.1.233a79.8,79.8,0,0,0-4.2,11.373c-.035.126-.072.252-.108.378q-.38,1.355-.712,2.725c-.038.161-.073.323-.111.484Q1.245,65.451.729,69.332c-.077.578-.156,1.155-.22,1.738-.063.556-.115,1.113-.165,1.672q-.1,1.115-.172,2.243c-.028.447-.059.893-.079,1.342C.038,77.545,0,78.767,0,80H31.476A48.524,48.524,0,0,1,80,31.475Z" transform="translate(25.1 20)" fill="#fff"/>
        </g>
      </g>
    </g>
  </g>
</svg>
