<svg xmlns="http://www.w3.org/2000/svg" xmlns:xlink="http://www.w3.org/1999/xlink" width="180" height="180" viewBox="0 0 180 180">
  <defs>
    <clipPath id="clip-path">
      <rect id="사각형_27419" data-name="사각형 27419" width="180" height="180" transform="translate(847 -18708)" fill="#fff"/>
    </clipPath>
  </defs>
  <g id="img_mbti13_estj" transform="translate(-847 18708)" clip-path="url(#clip-path)">
    <g id="그룹_21261" data-name="그룹 21261" transform="translate(852 -18695)">
      <g id="그룹_21265" data-name="그룹 21265">
        <path id="패스_11016" data-name="패스 11016" d="M109.444,153.292V131.047a6.537,6.537,0,0,1,6.537-6.537h54.235v28.782Z" fill="#e3ebff"/>
        <path id="패스_11017" data-name="패스 11017" d="M116.052,153.292v-7.905a1,1,0,0,1,2,0v7.905Z" fill="#b2bfff"/>
        <path id="패스_11018" data-name="패스 11018" d="M137.262,153.292l3.4-26.117h4.311l3.4,26.117Z" fill="#ff6476"/>
        <path id="패스_11019" data-name="패스 11019" d="M137.262,153.292l3.4-26.117h2.162l-3.366,26.117Z" fill="#f6556d"/>
        <path id="패스_11020" data-name="패스 11020" d="M133.795,124.518l8.9,8.9,8.9-8.9Z" fill="#ff6476"/>
        <path id="패스_11021" data-name="패스 11021" d="M151.6,124.509h-8.9l9.6,5.314Z" fill="#b2bfff"/>
        <path id="패스_11022" data-name="패스 11022" d="M133.094,129.824l8.176-4.527,1.423-.787H133.8Z" fill="#b2bfff"/>
        <rect id="사각형_27390" data-name="사각형 27390" width="17.668" height="12.819" transform="translate(133.864 111.693)" fill="#ffbdaa"/>
        <path id="패스_11023" data-name="패스 11023" d="M133.864,111.694v9.186a33.338,33.338,0,0,0,17.668-4.2v-4.99Z" fill="#efaa98"/>
        <path id="패스_11024" data-name="패스 11024" d="M148.53,105.5c0,.085.025.165.025.251a5.856,5.856,0,1,1-11.712,0c0-.086.021-.166.025-.251Z" fill="#fff"/>
        <path id="패스_11025" data-name="패스 11025" d="M125.553,91.347c2.4,0,4.34,2.267,4.34,5.064s-1.943,5.064-4.34,5.064-4.34-2.267-4.34-5.064,1.943-5.064,4.34-5.064" fill="#ffbdaa"/>
        <path id="패스_11026" data-name="패스 11026" d="M159.982,91.347c2.4,0,4.34,2.267,4.34,5.064s-1.943,5.064-4.34,5.064-4.34-2.267-4.34-5.064,1.943-5.064,4.34-5.064" fill="#ffbdaa"/>
        <path id="패스_11027" data-name="패스 11027" d="M124.969,90.89v9.32a17.926,17.926,0,1,0,35.851,0V90.89a17.926,17.926,0,1,0-35.851,0" fill="#ffbdaa"/>
        <path id="패스_11028" data-name="패스 11028" d="M99.733,153.292v-13.83a14.937,14.937,0,0,1,14.938-14.936h1.548v28.766Z" fill="#e3ebff"/>
        <path id="패스_11029" data-name="패스 11029" d="M82.605,126h9.947L98.1,148.187l-4.141,4.97h35.526l-.689-32.795c-.41-8.278-2.434-14.781-10.723-14.781H44.864l.887,47.576H81.2l-4.14-4.97Z" fill="#7dafff"/>
        <path id="패스_11030" data-name="패스 11030" d="M98.1,148.187,92.552,126H82.605L77.06,148.187l4.141,4.97H93.957Z" fill="#3d3d3d"/>
        <path id="패스_11031" data-name="패스 11031" d="M4.362,125.539c6.636,10.77,45.57,7.857,50.6-3.75.384-.886.973-31.6-3.66-43.838s-12.648-7.443-12.648-7.443c0-.155-.084-5.169-11.088-7.206-11.171-2.06-22.914,7.61-24.9,24.737-1.576,13.653-1.7,31.986,1.7,37.5" fill="#3d3d3d"/>
        <path id="패스_11032" data-name="패스 11032" d="M11.7,92.217c2.309,0,4.181,2.184,4.181,4.878s-1.872,4.877-4.181,4.877S7.521,99.789,7.521,97.1s1.872-4.878,4.181-4.878" fill="#ffbdaa"/>
        <path id="패스_11033" data-name="패스 11033" d="M44.87,92.217c2.309,0,4.181,2.184,4.181,4.878s-1.872,4.877-4.181,4.877-4.181-2.183-4.181-4.877,1.873-4.878,4.181-4.878" fill="#ffbdaa"/>
        <rect id="사각형_27391" data-name="사각형 27391" width="17.668" height="12.819" transform="translate(19.131 111.693)" fill="#ffbdaa"/>
        <path id="패스_11034" data-name="패스 11034" d="M19.131,111.694v9.186a33.337,33.337,0,0,0,17.668-4.2v-4.99Z" fill="#efaa98"/>
        <path id="패스_11035" data-name="패스 11035" d="M11.139,91.777v8.979a17.269,17.269,0,1,0,34.538,0V91.777a17.269,17.269,0,1,0-34.538,0" fill="#ffbdaa"/>
        <path id="패스_11036" data-name="패스 11036" d="M7.238,91.021A20.934,20.934,0,0,0,34.547,79.572l1.555-3.8L16.727,67.838Z" fill="#3d3d3d"/>
        <path id="패스_11037" data-name="패스 11037" d="M35.505,70.821l13.2,5.911v9.291l-2.775,6.193-2.729-1.222a15.265,15.265,0,0,1-7.7-20.173" fill="#3d3d3d"/>
        <path id="패스_11038" data-name="패스 11038" d="M0,153.292V124.641a6.562,6.562,0,0,1,1.238-.125h54.88a6.538,6.538,0,0,1,6.535,6.535v22.241Z" fill="#e3ebff"/>
        <path id="패스_11039" data-name="패스 11039" d="M16.824,124.516l11.145,22.663,11.125-22.663Z" fill="#b2bfff"/>
        <path id="패스_11040" data-name="패스 11040" d="M53.486,153.292v-7.905a1,1,0,0,1,2,0v7.905Z" fill="#b2bfff"/>
        <path id="패스_11041" data-name="패스 11041" d="M19.129,124.516l8.84,18.626,8.819-18.626Z" fill="#ffbdaa"/>
        <rect id="사각형_27392" data-name="사각형 27392" width="1.487" height="28.766" transform="translate(0 124.526)" fill="#e3ebff"/>
        <path id="패스_11042" data-name="패스 11042" d="M55.318,153.292V124.526h1.549A14.937,14.937,0,0,1,71.8,139.462v13.83Z" fill="#e3ebff"/>
        <path id="패스_11043" data-name="패스 11043" d="M103.175,153.157,99.5,105.593H128.06l1.8,47.564Z" fill="#548aff"/>
        <path id="패스_11044" data-name="패스 11044" d="M43.79,153.157l1.074-47.564H75.5l-3.677,47.564Z" fill="#548aff"/>
        <path id="패스_11045" data-name="패스 11045" d="M99.59,105.593H87.5l13.038,12.246Z" fill="#91c0ff"/>
        <path id="패스_11046" data-name="패스 11046" d="M74.6,117.839,86.25,107.408l1.932-1.815H75.5Z" fill="#91c0ff"/>
        <path id="패스_11047" data-name="패스 11047" d="M53.829,43.173c-2.865,7.8-.354,22.348,7.4,25.946,5.94,2.757,13.3-4.214,15.507-12.965,2.209-8.771-1.16-17.185-7.511-18.785s-12.278-2.686-15.4,5.8" fill="#3d3d3d"/>
        <path id="패스_11048" data-name="패스 11048" d="M98.761,48.361c-2.2,8.751,1.165,17.165,7.529,18.768s13.3-4.215,15.508-12.966c2.209-8.771-1.16-17.185-7.511-18.784S100.97,39.59,98.761,48.361" fill="#3d3d3d"/>
        <rect id="사각형_27393" data-name="사각형 27393" width="23.995" height="17.412" transform="translate(74.744 88.185)" fill="#ffbdaa"/>
        <path id="패스_11049" data-name="패스 11049" d="M74.744,88.187v12.476a45.262,45.262,0,0,0,24-5.7V88.187Z" fill="#efaa98"/>
        <path id="패스_11050" data-name="패스 11050" d="M63.331,60.385c3.235,0,5.858,3.059,5.858,6.832s-2.623,6.832-5.858,6.832-5.858-3.059-5.858-6.832,2.623-6.832,5.858-6.832" fill="#ffbdaa"/>
        <path id="패스_11051" data-name="패스 11051" d="M110.946,60.385c3.235,0,5.858,3.059,5.858,6.832s-2.623,6.832-5.858,6.832-5.858-3.059-5.858-6.832,2.623-6.832,5.858-6.832" fill="#ffbdaa"/>
        <path id="패스_11052" data-name="패스 11052" d="M62.539,37.069V72.347a24.2,24.2,0,1,0,48.407,0V37.069a1.5,1.5,0,0,0-1.53-1.49H64.069a1.5,1.5,0,0,0-1.53,1.49" fill="#ffbdaa"/>
        <path id="패스_11053" data-name="패스 11053" d="M53.474,44.427C51.27,53.178,54.639,61.592,61,63.195s13.3-4.215,15.508-12.966C78.72,41.458,75.351,33.044,69,31.445S55.683,35.656,53.474,44.427" fill="#3d3d3d"/>
        <path id="패스_11054" data-name="패스 11054" d="M89.054,17.283C74.859,18.783,64.205,28.374,65.3,38.7,66.384,49,78.808,56.15,93,54.65c14.227-1.5,28.927-8.087,27.839-18.388-1.091-10.323-17.561-20.482-31.788-18.979" fill="#3d3d3d"/>
        <path id="패스_11055" data-name="패스 11055" d="M20.117,153.157V131.813a26.219,26.219,0,0,1,26.209-26.22v47.564Z" fill="#548aff"/>
        <path id="패스_11056" data-name="패스 11056" d="M126.037,153.157V105.593a26.22,26.22,0,0,1,26.209,26.22v21.344Z" fill="#548aff"/>
        <path id="패스_11057" data-name="패스 11057" d="M87.305,0a1.816,1.816,0,0,0-1.846,1.838V5.529a1.846,1.846,0,1,0,3.692,0V1.838A1.815,1.815,0,0,0,87.305,0" fill="#ea6363"/>
        <path id="패스_11058" data-name="패스 11058" d="M76,6.077l2.617,2.6a1.845,1.845,0,0,0,2.617-2.6L78.618,3.46a1.761,1.761,0,0,0-1.294-.537A1.851,1.851,0,0,0,76,6.077Z" fill="#ea6363"/>
        <path id="패스_11059" data-name="패스 11059" d="M95.992,3.46,93.375,6.077a1.845,1.845,0,0,0,2.617,2.6l2.617-2.6a1.851,1.851,0,0,0-1.323-3.154,1.761,1.761,0,0,0-1.294.537" fill="#ea6363"/>
        <path id="패스_11068" data-name="패스 11068" d="M152.295,84.809H126.652a7.212,7.212,0,0,1,0-14.424h25.643a7.212,7.212,0,1,1,0,14.424" fill="#3d3d3d"/>
        <path id="패스_11069" data-name="패스 11069" d="M153.1,84.809l8.15,7.427V77.086a6.7,6.7,0,0,0-6.7-6.7h-1.2Z" fill="#3d3d3d"/>
        <path id="패스_11070" data-name="패스 11070" d="M82.605,126l-4.973-9.947,9.946-9.946,9.947,9.946L92.552,126Z" fill="#212121"/>
      </g>
    </g>
  </g>
</svg>
