<svg xmlns="http://www.w3.org/2000/svg" xmlns:xlink="http://www.w3.org/1999/xlink" width="120" height="120" viewBox="0 0 120 120">
  <defs>
    <clipPath id="clip-path">
      <rect id="사각형_26908" data-name="사각형 26908" width="120" height="120" transform="translate(1348 665)" fill="#fff" stroke="#707070" stroke-width="1"/>
    </clipPath>
  </defs>
  <g id="img_mirror" transform="translate(-1348 -665)" clip-path="url(#clip-path)">
    <g id="icon_mirror" transform="translate(1366.999 680.001)">
      <path id="패스_2659" data-name="패스 2659" d="M104.572,60.568a1.452,1.452,0,0,0,1.03-.427l11.654-11.654a1.457,1.457,0,0,0-2.06-2.06L103.542,58.081a1.457,1.457,0,0,0,1.03,2.487Z" transform="translate(-78.995 -38.717)" fill="#3b61d5"/>
      <path id="패스_2660" data-name="패스 2660" d="M137.542,56.5a1.456,1.456,0,0,0,2.06,0l8.012-8.012a1.457,1.457,0,0,0-2.06-2.06l-8.012,8.012A1.456,1.456,0,0,0,137.542,56.5Z" transform="translate(-100.613 -38.717)" fill="#3b61d5"/>
      <path id="패스_2661" data-name="패스 2661" d="M99.542,90.684a1.456,1.456,0,0,0,2.06,0l10.2-10.2a1.457,1.457,0,0,0-2.06-2.06l-10.2,10.2A1.456,1.456,0,0,0,99.542,90.684Z" transform="translate(-76.452 -59.063)" fill="#3b61d5"/>
      <path id="패스_2662" data-name="패스 2662" d="M140.283,74.427l-8.74,8.74a1.457,1.457,0,1,0,2.06,2.06l8.74-8.74a1.457,1.457,0,1,0-2.06-2.06Z" transform="translate(-96.798 -56.519)" fill="#3b61d5"/>
      <path id="패스_2663" data-name="패스 2663" d="M124.322,53.678h-7.431a30.582,30.582,0,0,0-60.888,0H48.572a1.457,1.457,0,0,0,0,2.913h2.913A35.007,35.007,0,0,0,82.077,91.27v16.307H70.423a7.218,7.218,0,0,0-7.107,5.827H58.769a1.457,1.457,0,0,0,0,2.913h53.9a1.457,1.457,0,1,0,0-2.913h-3.09a7.218,7.218,0,0,0-7.107-5.827H90.817V91.27a35.007,35.007,0,0,0,30.592-34.679h2.913a1.457,1.457,0,1,0,0-2.913ZM86.447,28.913A27.678,27.678,0,1,1,58.769,56.592,27.71,27.71,0,0,1,86.447,28.913ZM106.579,113.4H66.315a4.331,4.331,0,0,1,4.108-2.913h32.048A4.332,4.332,0,0,1,106.579,113.4ZM87.9,107.577H84.99V91.516c.484.02,2.43.02,2.913,0ZM86.447,88.64A32.085,32.085,0,0,1,54.4,56.592h1.457a30.592,30.592,0,0,0,61.183,0H118.5A32.085,32.085,0,0,1,86.447,88.64Z" transform="translate(-43.389 -26)" fill="#3b61d5"/>
      <path id="패스_2664" data-name="패스 2664" d="M43.648,53.162a1.453,1.453,0,0,0,.859-.28c.24-.176,5.9-4.348,5.9-7.568a4.8,4.8,0,0,0-4.64-4.943,4.389,4.389,0,0,0-2.122.548,4.393,4.393,0,0,0-2.122-.548,4.8,4.8,0,0,0-4.64,4.943c0,3.221,5.663,7.393,5.9,7.568A1.453,1.453,0,0,0,43.648,53.162ZM39.8,45.314a1.9,1.9,0,0,1,1.727-2.029,1.566,1.566,0,0,1,1.1.475,1.459,1.459,0,0,0,2.043,0,1.566,1.566,0,0,1,1.1-.475A1.9,1.9,0,0,1,47.5,45.314c0,.756-1.854,2.9-3.849,4.547C41.652,48.217,39.8,46.07,39.8,45.314Z" transform="translate(-36.885 -35.137)" fill="#3b61d5"/>
      <path id="패스_2665" data-name="패스 2665" d="M225.77,200.371a4.389,4.389,0,0,0-2.122.548,4.394,4.394,0,0,0-2.122-.548,4.8,4.8,0,0,0-4.64,4.943c0,3.221,5.663,7.393,5.9,7.568a1.456,1.456,0,0,0,1.718,0c.24-.176,5.9-4.348,5.9-7.568A4.8,4.8,0,0,0,225.77,200.371Zm-2.122,9.49c-2-1.645-3.849-3.791-3.849-4.547a1.9,1.9,0,0,1,1.727-2.029,1.566,1.566,0,0,1,1.1.475,1.459,1.459,0,0,0,2.043,0,1.566,1.566,0,0,1,1.1-.475,1.9,1.9,0,0,1,1.727,2.029c0,.756-1.853,2.9-3.849,4.547Z" transform="translate(-151.332 -136.868)" fill="#3b61d5"/>
      <path id="패스_2666" data-name="패스 2666" d="M74,203.394a1.493,1.493,0,1,0-1.493,1.493A1.493,1.493,0,0,0,74,203.394Z" transform="translate(-58.587 -137.841)" fill="#3b61d5"/>
    </g>
  </g>
</svg>
