<svg xmlns="http://www.w3.org/2000/svg" xmlns:xlink="http://www.w3.org/1999/xlink" width="361.3" height="326" viewBox="0 0 361.3 326"><defs><style>.a,.h,.o{fill:#fff;}.a{opacity:0.558;}.b,.k,.l,.n,.s,.t,.u{fill:none;}.c{clip-path:url(#a);}.d{fill:#2b2b2b;}.e{fill:#f0f5ff;}.f{fill:#ffa522;}.g{clip-path:url(#b);}.i{fill:#fbc09d;}.j{fill:#2c2328;}.k{stroke:#2c2328;stroke-width:1.102px;}.k,.l,.n,.s,.t,.u{stroke-linecap:round;stroke-linejoin:round;}.l{stroke:#af2b2b;stroke-width:0.735px;}.m{opacity:0.4;}.n{stroke:#7b84ff;stroke-width:1.47px;}.o{opacity:0.6;}.p{fill:#3b61d5;}.q{fill:rgba(255,255,255,0);}.r{fill:#ffab94;}.s,.t,.u{stroke:#ff6c45;stroke-width:2.205px;}.s{opacity:0.414;}.t{opacity:0.492;}.u{opacity:0.5;}.v{fill:#efeeed;}</style><clipPath id="a"><rect class="a" width="361.3" height="326" transform="translate(-3304.65 6894)"/></clipPath><clipPath id="b"><rect class="b" width="95.712" height="204.354" rx="9.08" transform="translate(88.223 4.909)"/></clipPath></defs><g class="c" transform="translate(3304.65 -6894)"><g transform="translate(-3250.21 6894)"><rect class="d" width="103.358" height="214.172" rx="9.08" transform="translate(84.398)"/><rect class="e" width="95.712" height="204.354" rx="9.08" transform="translate(88.223 4.909)"/><path class="f" d="M179.842,19.915h-49.6c-4.461,0-8.084,3.884-8.084,8.675V36.5a9.12,9.12,0,0,0,1.209,4.564c.173.294.349.584.511.882l4.828,8.977,3.09-5.75h48.051c4.464,0,8.084-3.88,8.084-8.672V28.591C187.926,23.8,184.306,19.915,179.842,19.915Z" transform="translate(-29.958 -4.913)"/><path class="f" d="M157.4,51.692h43.358a7.338,7.338,0,0,1,7.066,7.58v6.915a7.962,7.962,0,0,1-1.047,3.994c-.151.257-.3.507-.445.772l-4.237,7.838-2.7-5.023h-42a7.335,7.335,0,0,1-7.062-7.58V59.272A7.337,7.337,0,0,1,157.4,51.692Z" transform="translate(-29.958 -4.913)"/><g class="g"><path class="h" d="M115.51,134.176h41.154A22.135,22.135,0,0,1,178.8,156.311v52.137H93.375V156.311a22.135,22.135,0,0,1,22.135-22.135Z"/><path class="i" d="M189.3,113.54a3.943,3.943,0,0,0-3.307-3.888,19.938,19.938,0,0,0-39.114.018,3.943,3.943,0,0,0,0,7.742,19.96,19.96,0,0,0,11.608,14.411V140.1h15.907v-8.29a19.956,19.956,0,0,0,11.6-14.4,3.939,3.939,0,0,0,3.3-3.873Z" transform="translate(-29.958 -4.913)"/><path class="j" d="M165.919,97.005c-1.205,4.659-5.188,12.456-18.372,12.651a.654.654,0,0,0-.654.654v7.147A20.078,20.078,0,0,0,158.1,131.644a.654.654,0,0,1,.389.6l.081,19.107a5.431,5.431,0,0,1-5.431,5.453h-4.7c-2.859,0-11.3,0-9.524-9,.334-1.7.555-3.421.735-5.144l3.355-30.865a23.4,23.4,0,0,1,23.406-23.406h0a23.406,23.406,0,0,1,23.406,23.406L195,146.309a8.675,8.675,0,0,1-5.879,9.554,17.549,17.549,0,0,1-4.729.952h-4.409a5.431,5.431,0,0,1-5.446-5.449V132.232a.661.661,0,0,1,.367-.592,20.428,20.428,0,0,0,10.909-13.467.654.654,0,0,0-.573-.8c-2.884-.272-13.544-2.5-18.071-20.367a.654.654,0,0,0-1.249,0Z" transform="translate(-29.958 -4.913)"/><circle class="i" cx="3.601" cy="3.601" r="3.601" transform="translate(113.382 104.722)"/><circle class="j" cx="1.569" cy="1.569" r="1.569" transform="translate(129.193 108.785)"/><circle class="j" cx="1.569" cy="1.569" r="1.569" transform="translate(139.247 108.785)"/><path class="k" d="M161.517,110.325a9.947,9.947,0,0,0-4.7.367l-1.157.367" transform="translate(-29.958 -4.913)"/><path class="k" d="M168.69,110.325a9.947,9.947,0,0,1,4.7.367l1.157.367" transform="translate(-29.958 -4.913)"/><path class="l" d="M161.517,120.944l.514.522a5.431,5.431,0,0,0,7.871-.14l.349-.367" transform="translate(-29.958 -4.913)"/><g class="m"><path class="n" d="M166.261,88.881A18.993,18.993,0,0,0,155,92.493a19.288,19.288,0,0,0-8.451,14.33,18.093,18.093,0,0,0,.367,5.284c.191.944,0,1.29-.922,1.536a1.988,1.988,0,0,0-1.47,2.532q.735,2.877,1.6,5.732a1.98,1.98,0,0,0,2.646,1.323c.838-.276,1.128-.136,1.525.665.577,1.168,1.124,2.355,1.778,3.48a23.032,23.032,0,0,0,7.6,8.256,10.853,10.853,0,0,0,10.95.9,17.806,17.806,0,0,0,6.28-5.126,31.879,31.879,0,0,0,4.453-7.511c.334-.775.735-.981,1.47-.735a2.044,2.044,0,0,0,2.9-1.532q.735-2.642,1.47-5.288a2.048,2.048,0,0,0-1.613-2.737.927.927,0,0,1-.823-1.176c.029-.231.092-.459.121-.691a32.335,32.335,0,0,0,.367-3.307,18.1,18.1,0,0,0-5.46-13.36A19.347,19.347,0,0,0,166.261,88.881Z" transform="translate(-29.958 -4.913)"/><path class="n" d="M197.6,92.4a11.222,11.222,0,0,0-11.222-11.222" transform="translate(-29.958 -4.913)"/><path class="n" d="M186.382,145.291A11.218,11.218,0,0,0,197.6,134.073" transform="translate(-29.958 -4.913)"/><path class="n" d="M134.165,92.4a11.222,11.222,0,0,1,11.222-11.222" transform="translate(-29.958 -4.913)"/><path class="n" d="M145.387,145.291a11.218,11.218,0,0,1-11.218-11.218" transform="translate(-29.958 -4.913)"/></g></g><circle class="h" cx="2.047" cy="2.047" r="2.047" transform="translate(139.496 55.363)"/><circle class="h" cx="2.047" cy="2.047" r="2.047" transform="translate(147.077 55.363)"/><circle class="h" cx="2.047" cy="2.047" r="2.047" transform="translate(154.661 55.363)"/><circle class="h" cx="2.047" cy="2.047" r="2.047" transform="translate(114.371 25.695)"/><circle class="h" cx="2.047" cy="2.047" r="2.047" transform="translate(121.955 25.695)"/><circle class="h" cx="2.047" cy="2.047" r="2.047" transform="translate(129.535 25.695)"/><circle class="o" cx="10.454" cy="10.454" r="10.454" transform="translate(123.175 174.753)"/><circle class="p" cx="8.885" cy="8.885" r="8.885" transform="translate(124.744 176.45)"/><rect class="q" width="9.41" height="9.41" transform="translate(128.921 180.503)"/><path class="h" d="M163.586,190.986a1.5,1.5,0,0,0,1.5-1.5h0V187.61a1.5,1.5,0,1,0-3,0v1.874a1.5,1.5,0,0,0,1.5,1.5Z" transform="translate(-29.958 -4.913)"/><path class="h" d="M166.474,190.009a.412.412,0,1,0-.823,0,2.072,2.072,0,0,1-4.126,0,.415.415,0,0,0-.827,0,2.723,2.723,0,0,0,2.477,2.594v.783H162.3a.367.367,0,0,0-.367.334v.081a.367.367,0,0,0,.367.334h2.572a.367.367,0,0,0,.367-.334v-.081a.367.367,0,0,0-.367-.334H164V192.6a2.719,2.719,0,0,0,2.469-2.594Z" transform="translate(-29.958 -4.913)"/><path class="r" d="M75.807,228.267c-4.042-13.573-9.921-42.2,3.866-63.355a39.584,39.584,0,0,0,6.225-17.2c1.154-10.424,2.414-47.36,1.183-58.931a10.615,10.615,0,0,1,5.982-10.744h0c8.29-3.928,15.8,1.775,19.754,10.057,5.365,11.277,3.09,48.778,1.132,76.844a15.491,15.491,0,0,0,2.322,9.293c4.306,6.849,12.026,25.916,10.13,44.655l84.163.2a150.094,150.094,0,0,1-39.79,20.856,31.439,31.439,0,0,0-19.419,19.364l-1.279,3.674L74.521,244.145h0a22.047,22.047,0,0,0,1.286-15.877Z" transform="translate(-29.958 -4.913)"/><path class="r" d="M214.955,137.487l-15.12,2.392c-5.938.937-10.906-3.979-11.1-10.987h0c-.187-7.007,4.472-13.448,10.41-14.385l15.12-2.392c5.938-.941,10.906,3.979,11.1,10.987h0C225.541,130.1,220.882,136.546,214.955,137.487Z" transform="translate(-29.958 -4.913)"/><path class="r" d="M220.444,161.4l-14.731,2.818c-5.787,1.1-11.211-3.711-12.126-10.759h0c-.908-7.051,3.05-13.662,8.819-14.768l14.753-2.815c5.787-1.1,11.214,3.711,12.126,10.759h0C230.185,153.687,226.232,160.3,220.444,161.4Z" transform="translate(-29.958 -4.913)"/><path class="r" d="M220.444,187.422l-14.731,2.815c-5.787,1.1-11.211-3.711-12.126-10.759h0c-.908-7.048,3.05-13.658,8.819-14.764l14.753-2.818c5.787-1.1,11.214,3.711,12.126,10.762h0C230.185,179.706,226.232,186.316,220.444,187.422Z" transform="translate(-29.958 -4.913)"/><rect class="r" width="36.12" height="25.839" rx="12.919" transform="translate(166.301 182.017)"/><path class="s" d="M89.348,98.655l8.209-.875S99.3,77.7,89.348,77.872" transform="translate(-29.958 -4.913)"/><path class="t" d="M199.68,120.658a8.113,8.113,0,0,0-7.213,8.918h0a8.113,8.113,0,0,0,8.922,7.213l6.463-.687-.816-6.537" transform="translate(-29.958 -4.913)"/><path class="u" d="M208.94,159.577a8.113,8.113,0,0,1-10.355-4.935h0a8.113,8.113,0,0,1,4.935-10.355l6.191-2.2,1.723,6.394" transform="translate(-29.958 -4.913)"/><path class="u" d="M205.64,170.127a8.1,8.1,0,0,0-7.452,8.716h0a8.1,8.1,0,0,0,8.716,7.452l6.482-.507v-5.078" transform="translate(-29.958 -4.913)"/><path class="u" d="M207.768,209.024a8.11,8.11,0,0,1-7.511-8.675h0a8.106,8.106,0,0,1,8.672-7.5l6.552.474v8.819" transform="translate(-29.958 -4.913)"/><path class="v" d="M36.513,225.081,5.067,315.667,0,326H102.98L127.1,256.527Z"/></g></g></svg>