<svg xmlns="http://www.w3.org/2000/svg" xmlns:xlink="http://www.w3.org/1999/xlink" width="380" height="74" viewBox="0 0 380 74"><defs><style>.a,.m{fill:#fff;}.a{stroke:#707070;}.b,.i{fill:none;}.c{clip-path:url(#a);}.d,.j{fill:#4ec99d;}.d{opacity:0.41;}.d,.e,.g,.h,.i,.j,.k{isolation:isolate;}.f,.g,.h{fill:#3b61d5;}.h{opacity:0.05;}.i{stroke:#000470;stroke-miterlimit:10;stroke-width:2px;}.k{fill:#ff504c;}.l{clip-path:url(#b);}</style><clipPath id="a"><rect class="a" width="380" height="74" transform="translate(1527 866)"/></clipPath><clipPath id="b"><rect class="b" width="15.499" height="33.799" transform="translate(765.785 417.031)"/></clipPath></defs><g class="c" transform="translate(-1527 -866)"><g transform="translate(1126.11 474.437)"><rect class="d" width="117.807" height="7.623" transform="translate(423.809 457.973)"/><path d="M428.865,399.521a4.163,4.163,0,0,0,.228,1.355,5.338,5.338,0,0,0,.617,1.254,5.267,5.267,0,0,0,.913,1.038,4.112,4.112,0,0,0,1.122.708l-.552.792a4.461,4.461,0,0,1-.894-.552,5.8,5.8,0,0,1-1.446-1.679,6.22,6.22,0,0,1-.48-1.057,6.4,6.4,0,0,1-.468,1.128,6.934,6.934,0,0,1-.648,1,5.923,5.923,0,0,1-.78.828,4.227,4.227,0,0,1-.876.6l-.576-.792a4.369,4.369,0,0,0,1.1-.769,5.65,5.65,0,0,0,.912-1.116,6.027,6.027,0,0,0,.618-1.332,4.56,4.56,0,0,0,.228-1.4v-1.369h-2.5v-.8H431.4v.8h-2.531Zm4.968-3.277V407h-.984V396.244Z"/><path d="M445.353,400.769v.792h-9.78v-.792h7.236a11.016,11.016,0,0,0,.27-1.771c.027-.508.042-.974.042-1.4h-6.3v-.792h7.272v.792q0,.634-.036,1.391a11.373,11.373,0,0,1-.252,1.777Zm-8.568,2.255h7.344v3.829h-7.344Zm.972,3.037h5.4v-2.245h-5.4Z"/><path d="M454.317,402.376a4.389,4.389,0,0,1-1.608-1.044,4.74,4.74,0,0,1-1.044-1.62,4.957,4.957,0,0,1-1.044,1.734,4.676,4.676,0,0,1-1.644,1.146l-.516-.8a3.9,3.9,0,0,0,1.11-.63,4.42,4.42,0,0,0,.852-.906,4.085,4.085,0,0,0,.546-1.1,3.97,3.97,0,0,0,.192-1.23v-1.092h.984v1.092a3.531,3.531,0,0,0,.2,1.177,3.974,3.974,0,0,0,.552,1.044,4.317,4.317,0,0,0,.846.857,4.009,4.009,0,0,0,1.092.594Zm3.192,3.576v.8h-7.248V403.4h.984v2.556Zm-.324-1.824H456.2v-7.9h.984Z"/><path d="M468.645,402.424h-2.569v4.56H465.1v-4.56h-2.7v4.56h-.984v-4.56h-2.5v-.8H466a15.334,15.334,0,0,0,.294-2.225q.042-.942.042-1.663h-6.192v-.8h7.164v.8q0,.73-.041,1.669a16.391,16.391,0,0,1-.283,2.221h1.657Z"/><path d="M475.736,404.044c.513-.023,1.024-.056,1.536-.1s1.016-.092,1.513-.156l.071.732q-.9.144-1.824.234t-1.818.133c-.6.027-1.175.046-1.739.053s-1.1.012-1.591.012l-.144-.828q.684,0,1.447-.012c.507-.008,1.029-.019,1.565-.036v-1.154a2.686,2.686,0,0,1-1.529-.644,1.736,1.736,0,0,1-.571-1.342,1.792,1.792,0,0,1,.186-.823,1.866,1.866,0,0,1,.528-.632,2.427,2.427,0,0,1,.822-.4,3.776,3.776,0,0,1,1.057-.139,3.7,3.7,0,0,1,1.049.139,2.433,2.433,0,0,1,.816.4,1.869,1.869,0,0,1,.529.632,1.8,1.8,0,0,1,.185.823,1.737,1.737,0,0,1-.564,1.331,2.664,2.664,0,0,1-1.524.642Zm2.772-5.7h-6.54v-.792h2.784v-1.308h.984v1.308h2.772Zm-4.92,2.6a1.047,1.047,0,0,0,.456.894,2,2,0,0,0,1.2.33,1.977,1.977,0,0,0,1.188-.33,1.049,1.049,0,0,0,.456-.894,1.062,1.062,0,0,0-.456-.906,1.984,1.984,0,0,0-1.188-.33,2,2,0,0,0-1.2.33A1.059,1.059,0,0,0,473.588,400.948Zm6.865-4.7V407h-.985V396.244Z"/><path d="M485.3,401.968q-.8.036-1.559.049t-1.429.011l-.131-.8q.742,0,1.6-.007t1.758-.042q.9-.036,1.812-.1t1.764-.168l.084.706c-.48.072-.965.134-1.452.186s-.977.093-1.464.125v2.115H485.3Zm.385-1.548a4.1,4.1,0,0,1-1.075-.132,2.692,2.692,0,0,1-.839-.378,1.751,1.751,0,0,1-.546-.594,1.577,1.577,0,0,1-.192-.78,1.546,1.546,0,0,1,.192-.767,1.745,1.745,0,0,1,.546-.6,2.739,2.739,0,0,1,.839-.378,4.436,4.436,0,0,1,2.148,0,2.751,2.751,0,0,1,.841.378,1.755,1.755,0,0,1,.546.6,1.567,1.567,0,0,1,.191.767,1.6,1.6,0,0,1-.191.78,1.761,1.761,0,0,1-.546.594,2.7,2.7,0,0,1-.841.378A4.084,4.084,0,0,1,485.685,400.42Zm5.64,5.532v.8h-7.609v-3.132h.985v2.328Zm-5.64-8.556a2.225,2.225,0,0,0-1.243.312.971.971,0,0,0,0,1.668,2.628,2.628,0,0,0,2.484,0,.971.971,0,0,0,0-1.668A2.222,2.222,0,0,0,485.685,397.4Zm4.379,5.2v-6.36h.984v8.2h-.984v-1.1H487.88v-.732Z"/><path d="M498.3,397.384a8.925,8.925,0,0,1-.275,2.22,7.628,7.628,0,0,1-.864,2.052,8.078,8.078,0,0,1-1.512,1.806,9.788,9.788,0,0,1-2.232,1.482l-.54-.768a8.658,8.658,0,0,0,3.18-2.556,6.707,6.707,0,0,0,1.272-3.432h-3.949v-.8Zm4.513,4.032h-1.728V407H500.1V396.244h.984v4.368h1.728Z"/><path d="M506.415,396.76a3.447,3.447,0,0,1,1.13.179,2.794,2.794,0,0,1,.9.5,2.259,2.259,0,0,1,.589.779,2.369,2.369,0,0,1,.211,1.006,2.4,2.4,0,0,1-.211,1.017,2.242,2.242,0,0,1-.589.777,2.738,2.738,0,0,1-.9.5,3.394,3.394,0,0,1-1.13.18,3.344,3.344,0,0,1-1.125-.18,2.679,2.679,0,0,1-.884-.5,2.276,2.276,0,0,1-.583-.777,2.4,2.4,0,0,1-.21-1.017,2.369,2.369,0,0,1,.21-1.006,2.293,2.293,0,0,1,.583-.779,2.733,2.733,0,0,1,.884-.5A3.4,3.4,0,0,1,506.415,396.76Zm0,.8a2.173,2.173,0,0,0-.736.121,1.632,1.632,0,0,0,0,3.094,2.173,2.173,0,0,0,.736.121,2.209,2.209,0,0,0,.747-.121,1.707,1.707,0,0,0,.587-.342,1.6,1.6,0,0,0,.382-.531,1.632,1.632,0,0,0,.138-.679,1.612,1.612,0,0,0-.138-.669,1.592,1.592,0,0,0-.382-.53,1.693,1.693,0,0,0-.587-.343A2.209,2.209,0,0,0,506.415,397.564Zm-.186,4.98v1.32h4.992v-1.32h.971v4.309h-6.935v-4.309Zm0,3.517h4.992v-1.429h-4.992Zm5.963-9.817v5.773h-.984v-5.773Z"/><path d="M519.765,397.96h2.652v.792h-6.348v-.792h2.712v-1.6h.984Zm-.48,1.692a2.9,2.9,0,0,1,1.056.186,2.579,2.579,0,0,1,.834.515,2.243,2.243,0,0,1,.546.784,2.526,2.526,0,0,1,.192.993,2.562,2.562,0,0,1-.192,1.006,2.2,2.2,0,0,1-.546.778,2.551,2.551,0,0,1-.834.5,3.012,3.012,0,0,1-1.056.179,2.972,2.972,0,0,1-1.044-.179,2.462,2.462,0,0,1-.828-.5,2.226,2.226,0,0,1-.54-.778,2.562,2.562,0,0,1-.192-1.006,2.526,2.526,0,0,1,.192-.993,2.268,2.268,0,0,1,.54-.784,2.489,2.489,0,0,1,.828-.515A2.864,2.864,0,0,1,519.285,399.652Zm-.006,4.14a1.778,1.778,0,0,0,.68-.126,1.735,1.735,0,0,0,.536-.344,1.5,1.5,0,0,0,.355-.523,1.823,1.823,0,0,0,0-1.337,1.554,1.554,0,0,0-.355-.53,1.661,1.661,0,0,0-.536-.349,1.87,1.87,0,0,0-1.355,0,1.56,1.56,0,0,0-.885.879,1.837,1.837,0,0,0,0,1.337,1.538,1.538,0,0,0,.349.523,1.656,1.656,0,0,0,.536.344A1.793,1.793,0,0,0,519.279,403.792Zm6.906-2.3h-1.764V407h-.984V396.244h.984v4.416h1.764Z"/><path d="M532.1,402.2h-4.92v-5h4.92v.936h2.46v-1.884h.984v7.848h-.984v-2.856H532.1Zm-.972-4.236h-2.976v3.468h2.976Zm4.68,7.992v.8h-7.176V403.4h.984v2.556Zm-3.708-7.019v1.5h2.46v-1.5Z"/><path d="M537.284,404.584h1.188l-.732,2.424h-.887Z"/><g class="e"><path class="f" d="M425.963,419.179h15.316v10.6h-6.271V433.7h7.658v2.433h-18.09V433.7h7.658V429.78h-6.271Zm12.629,8.255v-5.909h-9.941v5.909Z"/><path class="f" d="M457.69,433.514v2.431H444.315v-2.431Zm-12.713-9a5.8,5.8,0,1,1,5.8,5.844A5.648,5.648,0,0,1,444.977,424.512Zm8.916,0c0-2.134-1.258-3.5-3.115-3.5s-3.114,1.365-3.114,3.5,1.259,3.5,3.114,3.5S453.893,426.645,453.893,424.512Zm4.65-6.016h2.773v18.622h-2.773Z"/><path class="f" d="M464.5,419.2h10.9l-.853,9.856H464.5Zm1.236,11.583h2.774v3.989h12.863v2.346H465.739Zm1.451-3.989h4.864l.469-5.333H467.19Zm8.7-5.866h2.389V418.5h2.773v13.737h-2.773v-4.65H475.51v-2.3h2.773v-2.048h-2.389Z"/><path class="f" d="M484.135,418.986H495.4V421.2h-2.773l3.2,7.039h-2.88l-3.178-7.167-3.178,7.167h-2.88l3.2-7.039h-2.772Zm3.967,12.245h9.855v-1.664h2.73v7.659H485.371v-7.659H488.1Zm9.855,2.218H488.1v1.515h9.855Zm-2.772-10.836h2.73V418.5h2.772v10.218h-2.772V424.96h-2.73Z"/><path class="f" d="M513.518,435.774V421.589h-4.139l1.45-2.538h5.525v16.723Z"/><path class="f" d="M524.57,433.642v-2.283c-2.41-.426-3.946-1.941-3.946-4.117,0-2.559,2.155-4.223,5.333-4.223s5.333,1.664,5.333,4.223c0,2.176-1.557,3.691-3.946,4.117v2.283h5.4v2.431H519.366v-2.431Zm-4.458-13.61h4.458v-2.069h2.774v2.069H531.8v2.346h-11.69Zm8.534,7.21c0-1.323-1.174-1.92-2.689-1.92s-2.687.6-2.687,1.92,1.172,1.92,2.687,1.92S528.646,428.564,528.646,427.242Zm4.948-8.746h2.773v18.622h-2.773Z"/><path class="f" d="M432.234,462.939v-5.333h-7.658V455.26h18.09v2.346h-7.658v5.333ZM425.963,444.7h15.316v8.512H425.963Zm12.629,6.251v-3.989h-9.941v3.989Z"/><path class="f" d="M448.283,451.526v2.262h12.735v2.347h-2.752v3.178H462.3v2.432h-18.09v-2.432h4.032v-3.178H445.6v-6.848h12.629v-2.24H445.6V444.7h15.316v6.826Zm2.645,7.787h4.65v-3.178h-4.65Z"/><path class="f" d="M475.1,456.839a5.248,5.248,0,1,1-10.495,0v-7.147a5.248,5.248,0,1,1,10.495,0Zm-7.807,0c0,1.9.96,2.965,2.559,2.965s2.561-1.067,2.561-2.965v-7.147c0-1.9-.96-2.964-2.561-2.964s-2.559,1.066-2.559,2.964ZM478.176,444.1h2.773v18.622h-2.773Z"/><path class="f" d="M488.251,444.4h8.533c2.176,0,3.819,1.28,3.819,3.286a3.223,3.223,0,0,1-2.859,3.2v1.835h3.818v2.3H483.473v-2.3h3.818v-1.835a3.222,3.222,0,0,1-2.858-3.2C484.433,445.682,486.075,444.4,488.251,444.4Zm0,11.9h8.533c2.176,0,3.819,1.3,3.819,3.3s-1.643,3.307-3.819,3.307h-8.533c-2.176,0-3.818-1.3-3.818-3.307S486.075,456.306,488.251,456.306Zm.128-7.552h8.277c.726,0,1.216-.384,1.216-1.066s-.49-1.068-1.216-1.068h-8.277c-.725,0-1.216.385-1.216,1.068S487.654,448.754,488.379,448.754Zm0,11.945h8.277a1.095,1.095,0,1,0,0-2.176h-8.277a1.095,1.095,0,1,0,0,2.176Zm1.6-7.977h5.078v-1.749h-5.078Z"/><path class="f" d="M510.763,462.939v-5.545H503.1v-2.347h12.907l.3-2.986H504.385v-2.219h12.159l.32-2.88H504.6V444.7h15.316l-1.088,10.347h2.368v2.347h-7.658v5.545Z"/><path class="f" d="M533.169,451.463v2.069h7.658v2.3h-18.09v-2.3H530.4v-2.069h-6.378v-2.176h2.175l.235-2.581h-2.453V444.53H539.59v2.176h-2.24l-.235,2.581h2.432v2.176Zm-9.045,5.546H526.9v3.456h12.756v2.261H524.124Zm4.843-7.722h5.375l.235-2.581H529.2Z"/><path class="f" d="M542.369,453.831v-2.219h18.09v2.219Zm4.778-9.515h8.534c2.175,0,3.818,1.216,3.818,3.158s-1.643,3.157-3.818,3.157h-8.534c-2.175,0-3.818-1.216-3.818-3.157S544.972,444.316,547.147,444.316Zm-.7,15.573v.981h12.841v2.048H543.756v-4.971h12.629v-.96H543.756V454.94h15.316v4.949Zm.831-11.434h8.278c.725,0,1.216-.341,1.216-.981s-.491-.982-1.216-.982h-8.278c-.724,0-1.215.342-1.215.982S546.551,448.455,547.275,448.455Z"/><path class="f" d="M586.706,459.313v2.432h-18.09v-2.432Zm-1.28-3.925H570v-10.6h15.316v2.368H572.733v5.867h12.693Z"/><path class="f" d="M591.6,459.377h9.6v2.347H588.911v-9.578h7.124l.448-4.907h-7.572v-2.346h10.474l-.854,9.513H591.6Zm8.319-11.093h2.773V444.1h2.773v18.622h-2.773v-5.759h-3.007V454.62h3.007v-3.989h-2.773Z"/><path class="f" d="M611.7,459.313v-4.586a5.192,5.192,0,0,1-2.858-4.672,5.465,5.465,0,0,1,5.781-5.355h4.607a5.465,5.465,0,0,1,5.782,5.355,5.231,5.231,0,0,1-2.859,4.672v4.586h3.819v2.432h-18.09v-2.432Zm2.923-6.25h4.607a3.008,3.008,0,1,0,0-6.016h-4.607a3.008,3.008,0,1,0,0,6.016Zm-.234,6.25h5.077v-3.9h-5.077Z"/><path class="f" d="M628.878,462.577v-3.264h3.243v3.264Zm.214-17.919h2.815v12.778h-2.815Z"/></g><path class="g" d="M741.613,430.449a10.273,10.273,0,0,0,10.274,10.274c.042,0,.084,0,.127,0V462.27H658.658V440.719c.039,0,.081,0,.123,0a10.276,10.276,0,1,0,0-20.552c-.042,0-.084,0-.123,0V404.08h93.356v16.094c-.043,0-.085,0-.127,0A10.276,10.276,0,0,0,741.613,430.449Z"/><path class="h" d="M601.041,444.916a3.224,3.224,0,0,0,4.333,1.415l.035-.019,3.06,6.027L582.361,465.6l-3.06-6.027.035-.017a3.223,3.223,0,1,0-2.919-5.747l-.034.018-2.285-4.5,26.108-13.257,2.285,4.5-.036.017A3.223,3.223,0,0,0,601.041,444.916Z"/><path class="h" d="M440.8,402.423a3.221,3.221,0,0,0,2.875,3.536.262.262,0,0,0,.04,0l-.693,6.724-29.127-3,.693-6.724.038.005a3.223,3.223,0,1,0,.661-6.412l-.038,0,.517-5.021,29.127,3-.518,5.021-.039-.005A3.223,3.223,0,0,0,440.8,402.423Z"/><path class="i" d="M738.3,427.476a10.274,10.274,0,0,0,10.275,10.274c.042,0,.084,0,.126,0V459.3H655.35V437.747c.038,0,.081,0,.123,0a10.276,10.276,0,1,0,0-20.552,1.225,1.225,0,0,0-.123,0V401.108h93.355V417.2c-.042,0-.084,0-.126,0A10.277,10.277,0,0,0,738.3,427.476Z"/><circle class="j" cx="2.325" cy="2.325" r="2.325" transform="translate(752.014 393.64)"/><circle class="k" cx="2.325" cy="2.325" r="2.325" transform="translate(653.025 456.973)"/><g class="l"><path class="h" d="M792.689,434.491a3.223,3.223,0,0,0,2.876,3.536l.039,0-.693,6.724-29.126-3,.693-6.723.038.005a3.223,3.223,0,0,0,.661-6.413l-.039,0,.518-5.022,29.126,3-.517,5.021a.276.276,0,0,0-.04-.005A3.223,3.223,0,0,0,792.689,434.491Z"/></g><path class="m" d="M682.005,445.012h-3.539v3.01h-1.32v-3.01h-3.48v-1.05h8.339Zm-1-2.03h-6.38v-3.72h6.38Zm-1.289-2.68h-3.79v1.64h3.79Z"/><path class="m" d="M692.205,445.932v1.08h-8.349v-1.08h2.12v-1.4h-1.151v-3.1h5.141v-.98h-5.151V439.4h6.451v3.06h-5.13v1.01h5.34v1.06h-1.29v1.4Zm-4.93,0h1.611v-1.4h-1.611Z"/><path class="m" d="M696.775,439.622a1.944,1.944,0,0,1,.92.22,2.09,2.09,0,0,1,.721.63,3.2,3.2,0,0,1,.47.985,5.016,5.016,0,0,1,0,2.59,3.184,3.184,0,0,1-.47.985,2.069,2.069,0,0,1-.721.63,2.034,2.034,0,0,1-1.84,0,2.081,2.081,0,0,1-.719-.63,3.16,3.16,0,0,1-.47-.985,5.016,5.016,0,0,1,0-2.59,3.171,3.171,0,0,1,.47-.985,2.1,2.1,0,0,1,.719-.63A1.952,1.952,0,0,1,696.775,439.622Zm0,.74a1.129,1.129,0,0,0-.6.17,1.521,1.521,0,0,0-.476.479,2.472,2.472,0,0,0-.309.753,4.432,4.432,0,0,0,0,1.971,2.537,2.537,0,0,0,.309.753,1.512,1.512,0,0,0,.476.485,1.129,1.129,0,0,0,.6.17,1.109,1.109,0,0,0,.6-.17,1.539,1.539,0,0,0,.47-.485,2.538,2.538,0,0,0,.309-.753,4.432,4.432,0,0,0,0-1.971,2.474,2.474,0,0,0-.309-.753,1.548,1.548,0,0,0-.47-.479A1.109,1.109,0,0,0,696.775,440.362Zm4.731-1.43v8.99h-.82v-8.99Z"/><path class="m" d="M712.475,443.372v.66h-8.121v-.66h2.011v-1.26a2.045,2.045,0,0,1-.82-.555,1.2,1.2,0,0,1-.28-.8,1.174,1.174,0,0,1,.22-.7,1.749,1.749,0,0,1,.63-.526,3.7,3.7,0,0,1,.989-.33,7.548,7.548,0,0,1,2.625,0,3.609,3.609,0,0,1,.991.33,1.755,1.755,0,0,1,.625.526,1.23,1.23,0,0,1-.065,1.489,2.017,2.017,0,0,1-.805.551v1.269Zm-4.06,1.33a5.018,5.018,0,0,1,2.253.415,1.27,1.27,0,0,1,0,2.365,6.367,6.367,0,0,1-4.5,0,1.266,1.266,0,0,1,0-2.365A5.021,5.021,0,0,1,708.415,444.7Zm-2.3-3.945q0,.477.614.752a5.374,5.374,0,0,0,3.382,0q.615-.275.614-.752t-.614-.756a5.449,5.449,0,0,0-3.382,0Q706.114,440.269,706.115,440.757Zm2.3,6.5a4.37,4.37,0,0,0,1.646-.248q.59-.249.589-.707t-.589-.706a5.568,5.568,0,0,0-3.293,0q-.588.249-.588.706t.588.707A4.38,4.38,0,0,0,708.42,447.252Zm-1.245-3.88h2.49v-1.05c-.186.033-.384.059-.59.075s-.427.025-.66.025-.443-.008-.65-.025-.4-.042-.59-.075Z"/><path class="m" d="M722.686,444.432h-3.641v3.47h-.819v-3.47h-3.651v-.67h5.941c.073-.32.13-.619.174-.9s.076-.547.095-.8l-5.34.259-.11-.69,5.5-.21c.014-.193.02-.381.02-.565v-.7h-5.26v-.67h6.051v.821q0,.35-.005.729t-.036.8c-.02.28-.051.579-.095.895s-.1.659-.185,1.025h1.361Z"/><path class="m" d="M732.865,443.792v.66h-8.11v-.66h3.66V442.7h-2.87v-.66h1.33V440h-1.359v-.66h6.58V440h-1.351v2.04h1.32v.66h-2.83v1.09Zm-6.24,3.24h5.351v.67h-6.17v-2.46h.819Zm1.07-4.99h2.231V440H727.7Z"/><g class="e"><path class="m" d="M688.206,425.071h-5.938l-.917-1.593v7.531h-2.528V416.642h9.933v2.2h-7.4v4.032h6.855Z"/><path class="m" d="M690.956,431.009v-10.7h2.382v1.613a3.663,3.663,0,0,1,3.518-1.76v2.566c-2.821,0-3.481,1.228-3.481,2.84v5.443Z"/><path class="m" d="M700.376,425.108a5.521,5.521,0,0,0-.019.569c0,2.419,1.5,3.353,3.117,3.353a2.554,2.554,0,0,0,2.381-1.21h2.493a4.95,4.95,0,0,1-4.874,3.372,5.23,5.23,0,0,1-5.425-5.515,5.3,5.3,0,0,1,5.333-5.553c2.73,0,5.149,2.181,5.149,5.791v.7h-7.092Zm.092-.512h5.607a2.636,2.636,0,0,0-2.693-2.346A2.868,2.868,0,0,0,700.468,424.6Z"/><path class="m" d="M712.619,425.108c-.018.184-.018.367-.018.569,0,2.419,1.5,3.353,3.116,3.353a2.556,2.556,0,0,0,2.382-1.21h2.492a4.95,4.95,0,0,1-4.874,3.372,5.23,5.23,0,0,1-5.425-5.515,5.3,5.3,0,0,1,5.333-5.553c2.73,0,5.149,2.181,5.149,5.791v.7h-7.091Zm.092-.512h5.607a2.636,2.636,0,0,0-2.693-2.346A2.868,2.868,0,0,0,712.711,424.6Z"/><path class="m" d="M723.817,432.035v-2.8H726.6v2.8ZM724,416.642h2.419v10.977H724Z"/></g></g></g></svg>