<svg xmlns="http://www.w3.org/2000/svg" xmlns:xlink="http://www.w3.org/1999/xlink" width="361.3" height="326" viewBox="0 0 361.3 326"><defs><style>.a,.l,.m{fill:#fff;}.a{opacity:0.558;}.b{clip-path:url(#a);}.c{fill:#bcd7e8;}.d{fill:#bdc2c6;}.e{fill:#fefefe;}.f{fill:#cbcbcb;}.g{fill:#7b84ff;}.h{fill:#efefef;}.i{fill:#bbbcc0;opacity:0.2;}.j{fill:#d7f5ff;opacity:0.15;}.k{opacity:0.22;}.m{opacity:0.31;}.n{fill:#353f8e;}.o{fill:#dedae8;}.p{fill:#83bce2;}.q{fill:#eaeaea;}.r{fill:#e9f6ff;}.s{fill:#cee4f2;}.t{fill:#7b85ff;}.u{fill:#c0c8ff;}.v{fill:#f3f4ff;opacity:0.16;}.w{fill:#fcc9a7;}.x{fill:#eab28c;}.y{fill:#161616;}.z{fill:#262626;}.aa{fill:#f7ece7;}.ab,.ae{fill:#ffbe55;}.ac{fill:#1b2633;}.ad{fill:#afafaf;}.ae,.ag{stroke:#ed9200;stroke-linecap:round;}.ae{stroke-miterlimit:10;stroke-width:0.218px;}.af{fill:#fffaf8;}.ag{fill:none;stroke-linejoin:round;stroke-width:0.327px;}.ah{fill:#1f252a;}.ai{fill:#a83949;}</style><clipPath id="a"><rect class="a" width="361.3" height="326" transform="translate(-2582.05 6894)"/></clipPath></defs><g class="b" transform="translate(2582.05 -6894)"><g transform="translate(-2558.913 6893.996)"><rect class="c" width="99.181" height="41.942" rx="11.144" transform="translate(237.847 23.804)"/><path class="d" d="M328.53,318.289c.044,1.957,0,3.922,0,5.879A18.162,18.162,0,0,1,312.3,342.254a33.988,33.988,0,0,1-4.206.244H126.476c-2.179,0-4.393.414-6.559-.222,4.3.157,8.446-.353,12.1-2.859,5.7-3.9,8.354-9.418,8.455-16.234.048-3.486.07-6.973,0-10.459-.035-1.412.475-1.9,1.809-1.743a7.184,7.184,0,0,0,.92,0H289.521c.737,0,1.469-.031,2.205-.048,9.862.022,19.729,0,29.591.092h7.239Z" transform="translate(-36.442 -45.01)"/><path class="e" d="M89.044,45.058H272.93c10.9,0,18.783,8.119,18.788,19.088V310.906a2.54,2.54,0,0,1-2.022.684c-.872.048-1.713.026-2.571.026H144.98c-4.057,0-3.7-.318-3.757,3.813-.044,3.669.218,7.352-.366,11.009-1.164,7.243-5.068,12.421-11.863,15.17-2.868,1.159-6.023.845-9.082.636a18.39,18.39,0,0,1-16.447-18.352c-.065-10.233-.035-20.483-.035-30.7V78.677c0-.793-.078-1.586-.118-2.38Z" transform="translate(-36.442 -45.01)"/><path class="d" d="M103.169,60.007c.1,1.551.231,3.051.231,4.563,0,3.922-.039,7.845-.065,11.741H68.945c-2.345,0-2.4,0-2.336-2.427.118-4.406-.436-8.834.288-13.209A18.269,18.269,0,0,1,84.821,45.036c1.4-.052,2.815,0,4.223.026C89.044,45.058,102.28,45.886,103.169,60.007Z" transform="translate(-36.442 -45.01)"/><rect class="f" width="12.861" height="12.861" rx="2.654" transform="translate(89.258 77.53)"/><rect class="f" width="132.002" height="3.678" rx="1.839" transform="translate(108.203 77.53)"/><rect class="f" width="132.002" height="3.678" rx="1.839" transform="translate(108.203 85.405)"/><rect class="f" width="132.002" height="3.678" rx="1.839" transform="translate(89.258 93.28)"/><rect class="f" width="73.499" height="3.678" rx="1.839" transform="translate(89.258 101.156)"/><rect class="f" width="12.861" height="12.861" rx="2.654" transform="translate(89.258 116.91)"/><rect class="f" width="132.002" height="3.678" rx="1.839" transform="translate(108.203 116.91)"/><rect class="f" width="87.811" height="3.678" rx="1.839" transform="translate(108.203 124.785)"/><rect class="f" width="132.002" height="3.678" rx="1.839" transform="translate(89.258 132.66)"/><rect class="f" width="73.499" height="3.678" rx="1.839" transform="translate(89.258 140.54)"/><rect class="f" width="12.861" height="12.861" rx="2.654" transform="translate(89.258 156.29)"/><rect class="f" width="132.002" height="3.678" rx="1.839" transform="translate(108.203 156.29)"/><rect class="f" width="114.064" height="3.678" rx="1.839" transform="translate(108.203 164.169)"/><rect class="f" width="139.572" height="3.678" rx="1.839" transform="translate(89.258 172.044)"/><rect class="f" width="58.01" height="3.678" rx="1.839" transform="translate(89.258 179.919)"/><rect class="f" width="12.861" height="12.861" rx="2.654" transform="translate(89.258 195.674)"/><rect class="f" width="68.91" height="3.678" rx="1.839" transform="translate(108.203 195.674)"/><rect class="f" width="132.002" height="3.678" rx="1.839" transform="translate(108.203 203.549)"/><rect class="f" width="102.729" height="3.678" rx="1.839" transform="translate(89.258 211.424)"/><rect class="f" width="73.499" height="3.678" rx="1.839" transform="translate(89.258 219.299)"/><rect class="g" width="64.918" height="8.119" rx="2.061" transform="translate(130.302 50.353)"/><path class="g" d="M131.353,133.174a.924.924,0,0,1-.658-.279l-5.251-5.382a.92.92,0,1,1,1.307-1.286l4.358,4.471,6.223-12.028a.92.92,0,0,1,1.634.845l-6.807,13.161a.937.937,0,0,1-.684.488Z" transform="translate(-36.442 -45.01)"/><path class="g" d="M131.353,171.273a.924.924,0,0,1-.658-.279l-5.252-5.387a.924.924,0,0,1,1.307-1.307l4.358,4.471,6.223-12.028a.92.92,0,0,1,1.634.845l-6.807,13.161a.937.937,0,0,1-.684.488Z" transform="translate(-36.442 -45.01)"/><path class="g" d="M131.353,210.639a.92.92,0,0,1-.658-.275l-5.251-5.387a.92.92,0,1,1,1.307-1.286l4.358,4.471,6.223-12.028a.927.927,0,0,1,1.647.85l-6.807,13.157a.937.937,0,0,1-.684.488.705.705,0,0,1-.135.009Z" transform="translate(-36.442 -45.01)"/><path class="h" d="M31.287,205.052l14.639,10.669,20.435-28.484L51.717,176.568Z"/><path class="g" d="M41.4,301.388l.166.122c4.62,3.364,10.411,3.286,12.935-.179l29.173-39.41L66.587,248.89,37.606,289.011C35.087,292.484,36.787,298.019,41.4,301.388Z" transform="translate(-36.442 -45.01)"/><path class="i" d="M63.685,190.784l-1.73,2.767-24.44,3.168,13.7-19.189Z"/><path class="g" d="M89.463,229.384a44.361,44.361,0,1,0-9.71-61.981A44.361,44.361,0,0,0,89.463,229.384Zm-4.715-58.329a38.164,38.164,0,1,1,8.363,53.321,38.164,38.164,0,0,1-8.363-53.321Z" transform="translate(-36.442 -45.01)"/><circle class="j" cx="38.164" cy="38.164" r="38.164" transform="translate(25.175 148.522) rotate(-45)"/><g class="k"><path class="l" d="M140.33,181.832a26.876,26.876,0,0,0-51.787,5.5c-.506,3.4-5.809,2.868-5.3-.536a32.607,32.607,0,0,1,26.584-27.351c13.606-2.38,27.19,4.667,33.771,16.648a29.536,29.536,0,0,1,1.639,3.608c1.233,3.194-3.643,5.352-4.885,2.135Z" transform="translate(-36.442 -45.01)"/></g><circle class="m" cx="3.513" cy="3.513" r="3.513" transform="translate(45.202 149.678) rotate(-14.41)"/><path class="n" d="M82.939,261.568l-16.26-12.394a1.373,1.373,0,0,1-.336-1.8l.118-.2a1.373,1.373,0,0,1,2.009-.362L84.621,259.38a1.368,1.368,0,0,1,.227,1.939h0A1.373,1.373,0,0,1,82.939,261.568Z" transform="translate(-36.442 -45.01)"/><path class="o" d="M80.537,207.693a37.763,37.763,0,1,0-2.366-19.424,37.763,37.763,0,0,0,2.366,19.424,1.015,1.015,0,0,1-1.883.758A39.8,39.8,0,1,1,101.212,230.7a40.234,40.234,0,0,1-22.557-22.248A1.016,1.016,0,0,1,80.537,207.693Z" transform="translate(-36.442 -45.01)"/><path class="p" d="M261.646,278.307v-1.133a4.925,4.925,0,0,0-4.929-4.925H230.107a4.925,4.925,0,0,0-4.946,4.925v76.149H328.953V284.84a3.922,3.922,0,0,0-3.9-3.922H264.279a2.615,2.615,0,0,1-2.632-2.611Z" transform="translate(-36.442 -45.01)"/><rect class="q" width="83.501" height="50.532" transform="translate(200.812 239.05)"/><rect class="l" width="83.501" height="50.532" transform="translate(198.864 241.002)"/><path class="r" d="M326.774,361.721H227.34a5.735,5.735,0,0,1-5.731-5.492L219.173,299.4a5.74,5.74,0,0,1,5.735-5.984h104.3a5.735,5.735,0,0,1,5.731,5.984l-2.419,56.816a5.735,5.735,0,0,1-5.748,5.5Z" transform="translate(-36.442 -45.01)"/><rect class="s" width="99.181" height="41.942" rx="11.144" transform="translate(200.315 6.053)"/><circle class="l" cx="5.687" cy="5.687" r="5.687" transform="translate(222.873 21.337)"/><circle class="l" cx="5.687" cy="5.687" r="5.687" transform="translate(244.218 21.337)"/><circle class="l" cx="5.687" cy="5.687" r="5.687" transform="translate(265.569 21.337)"/><rect class="t" width="1.421" height="12.617" transform="matrix(0.911, 0.412, -0.412, 0.911, 251.173, 128.735)"/><path class="t" d="M291.042,167.874a5.757,5.757,0,1,0,2.876,7.614A5.757,5.757,0,0,0,291.042,167.874Zm2.1,7.265a4.907,4.907,0,1,1-2.462-6.48,4.907,4.907,0,0,1,2.462,6.48Z" transform="translate(-36.442 -45.01)"/><path class="u" d="M290.684,168.658a4.907,4.907,0,1,0,2.454,6.494A4.907,4.907,0,0,0,290.684,168.658Z" transform="translate(-36.442 -45.01)"/><path class="v" d="M290.684,168.658a4.907,4.907,0,1,0,2.454,6.494A4.907,4.907,0,0,0,290.684,168.658Z" transform="translate(-36.442 -45.01)"/><rect class="w" width="6.332" height="6.842" transform="translate(242.832 140.083) rotate(22.93)"/><rect class="w" width="9.143" height="7.679" rx="1.229" transform="translate(251.826 136.455) rotate(112.93)"/><rect class="w" width="10.32" height="18.099" transform="translate(291.337 288.551) rotate(-49.44)"/><rect class="w" width="10.32" height="18.099" transform="translate(241.635 299.514) rotate(13.1)"/><rect class="x" width="10.32" height="2.24" transform="matrix(0.633, -0.775, 0.775, 0.633, 297.645, 293.987)"/><path class="y" d="M253.192,225.5l3.072,19.729,15.55,27.931,26.759,23.277,6.236-11.035-21.224-19.8-12.451-39.768Z"/><path class="z" d="M314.889,269.382s3.094,5.844-1.708,15.188l-14.918,28.463-11.37,43.145L275.6,352.255l8.11-43.651,14.382-34.045-8.455-4.053Z" transform="translate(-36.442 -45.01)"/><path class="aa" d="M295.831,239.5l.872-5.3h1.743l.845,5.143c6.184-2.114,7.2-13.684,7.2-13.684l-17.35.388S289.665,237.895,295.831,239.5Z" transform="translate(-36.442 -45.01)"/><path class="ab" d="M311.638,227.562a.257.257,0,0,0-.183-.218l-8.494-2.863h-.1l-10.381.436h-.074l-3.286,1.133,17.35-.388s-1.02,11.571-7.2,13.684a6.157,6.157,0,0,1-1.743.336,5.8,5.8,0,0,1-1.682-.183c-6.167-1.608-6.707-13.449-6.707-13.449a3.922,3.922,0,0,1-2.114.174,3.312,3.312,0,0,1-2.013-1.412l-.022-.026-5.9-6.236h0a33.79,33.79,0,0,1-2.916-3.8,2.092,2.092,0,0,1-.131-1.743l7.413-20.819a.266.266,0,0,0-.17-.344l-7.409-2.34a.27.27,0,0,0-.327.157l-9.531,23.882a3.974,3.974,0,0,0,.235,3.439h0a.157.157,0,0,0,.031.044l8.167,10.154c.571.715,1.172,1.408,1.791,2.079l5.84,6.289c.941,1.015,1.97,1.939,2.981,2.885a9.862,9.862,0,0,1,3.107,6.694l1.307,25.229a.274.274,0,0,0,.166.235c1.233.466,9.714,3.238,26.231-1.743a.27.27,0,0,0,.192-.283C315.73,265.525,311.926,230.26,311.638,227.562Z" transform="translate(-36.442 -45.01)"/><path class="ac" d="M296.694,234.208l-.872,5.3a5.8,5.8,0,0,0,1.682.183,6.158,6.158,0,0,0,1.743-.336l-.845-5.143Z" transform="translate(-36.442 -45.01)"/><circle class="w" cx="2.619" cy="2.619" r="2.619" transform="translate(265.037 167.73)"/><ellipse class="w" cx="5.343" cy="6.066" rx="5.343" ry="6.066" transform="translate(255.724 171.909)"/><path class="ad" d="M294.515,255.985l-2.38,25.456a1.87,1.87,0,0,0,1.512,2.013l29.2,5.578a1.87,1.87,0,0,0,2.21-1.63l2.672-24.174a1.865,1.865,0,0,0-1.434-2.027l-29.509-6.864a1.87,1.87,0,0,0-2.271,1.647Z" transform="translate(-36.442 -45.01)"/><path class="h" d="M295.731,257.293l-2.38,25.451a1.878,1.878,0,0,0,1.512,2.013l29.2,5.578a1.865,1.865,0,0,0,2.21-1.63l2.672-24.2a1.874,1.874,0,0,0-1.438-2.027l-29.487-6.838a1.874,1.874,0,0,0-2.288,1.647Z" transform="translate(-36.442 -45.01)"/><rect class="f" width="17.968" height="0.54" rx="0.109" transform="matrix(0.184, -0.983, 0.983, 0.184, 262.566, 234.657)"/><rect class="f" width="17.968" height="0.54" rx="0.109" transform="matrix(0.184, -0.983, 0.983, 0.184, 263.704, 234.873)"/><rect class="f" width="17.968" height="0.54" rx="0.109" transform="matrix(0.184, -0.983, 0.983, 0.184, 264.358, 237.616)"/><rect class="f" width="10.006" height="0.54" rx="0.109" transform="matrix(0.184, -0.983, 0.983, 0.184, 265.496, 237.828)"/><rect class="f" width="17.968" height="0.54" rx="0.109" transform="matrix(0.184, -0.983, 0.983, 0.184, 268.238, 235.717)"/><rect class="f" width="11.954" height="0.54" rx="0.109" transform="matrix(0.184, -0.983, 0.983, 0.184, 269.372, 235.93)"/><rect class="f" width="17.968" height="0.54" rx="0.109" transform="matrix(0.184, -0.983, 0.983, 0.184, 270.034, 238.681)"/><rect class="f" width="10.006" height="0.54" rx="0.109" transform="matrix(0.184, -0.983, 0.983, 0.184, 271.168, 238.892)"/><rect class="f" width="17.968" height="0.54" rx="0.109" transform="matrix(0.184, -0.983, 0.983, 0.184, 273.914, 236.781)"/><rect class="f" width="15.472" height="0.538" rx="0.109" transform="matrix(0.181, -0.984, 0.984, 0.181, 272.996, 236.751)"/><rect class="f" width="19.001" height="0.54" rx="0.109" transform="matrix(0.184, -0.983, 0.983, 0.184, 275.707, 239.745)"/><rect class="f" width="7.897" height="0.54" rx="0.109" transform="matrix(0.184, -0.983, 0.983, 0.184, 276.841, 239.952)"/><rect class="f" width="9.379" height="0.54" rx="0.109" transform="matrix(0.184, -0.983, 0.983, 0.184, 279.584, 237.845)"/><rect class="f" width="17.968" height="0.54" rx="0.109" transform="matrix(0.184, -0.983, 0.983, 0.184, 280.72, 238.056)"/><rect class="f" width="13.985" height="0.54" rx="0.109" transform="matrix(0.184, -0.983, 0.983, 0.184, 281.378, 240.805)"/><rect class="f" width="10.006" height="0.54" rx="0.109" transform="matrix(0.184, -0.983, 0.983, 0.184, 282.511, 241.015)"/><path class="w" d="M306.374,274.058l-8.668,6.415c-.222.2-.305.671.083.715,1.473.17,2.044-.27,3.242-.492s.654.963.3,1.434l-2.554,3.373,11,2.1L313.1,275.54Z" transform="translate(-36.442 -45.01)"/><line class="ae" y1="3.295" x2="2.584" transform="translate(264.701 237.315)"/><line class="ae" y1="3.295" x2="2.584" transform="translate(267.861 237.956)"/><line class="ae" y1="3.295" x2="2.584" transform="translate(270.445 238.544)"/><path class="ab" d="M310.457,227s5.883.806,8.629,8.158c1.386,3.717,2.811,7.409,4.532,11l3.922,8.171.131.475a3.321,3.321,0,0,1-.488,2.711L312.152,279.1l-7.13-4.219,11.592-18.574a3.587,3.587,0,0,0,0-3.8l-6.537-10.381Z" transform="translate(-36.442 -45.01)"/><path class="ac" d="M259.04,186.535l1.212,2.663h1.73l2.24-5.151h-6.293Z"/><path class="af" d="M266.41,178.651l-5.761,5.378L264.8,189.2l5.23-8.546Z"/><path class="ag" d="M311.167,229.671s-3.892,3.992,0,13.689" transform="translate(-36.442 -45.01)"/><path class="ah" d="M274.472,359.542l.257.057a1.085,1.085,0,0,1,.933,1.194h0a1.907,1.907,0,0,0,1.63,2.088l3.007.7a1.894,1.894,0,0,0,2.384-1.155l.148-.628a1.081,1.081,0,0,1,1.364-.658h0a1.081,1.081,0,0,1,.933,1.19l-1.643,7.051a2.53,2.53,0,0,1-3.186,1.543l-4.432-1.05a4.56,4.56,0,0,1-1.037-.384l-.231-.118a10.072,10.072,0,0,0-4.981-1.116h0a4.314,4.314,0,0,1-1.177-.113l-8.01-1.743a2.343,2.343,0,0,1-2.013-2.58h0a2.14,2.14,0,0,1,2.074-1.5l13.58-2.837A1.4,1.4,0,0,1,274.472,359.542Z" transform="translate(-36.442 -45.01)"/><path class="ah" d="M338.911,343.487l.183-.192a1.085,1.085,0,0,1,1.5-.2h0a1.877,1.877,0,0,0,2.615-.34l2.131-2.236a1.909,1.909,0,0,0,.222-2.641l-.471-.436a1.085,1.085,0,0,1,.126-1.508h0a1.076,1.076,0,0,1,1.5-.2l5.23,4.994a2.549,2.549,0,0,1-.292,3.526l-3.147,3.3a4.5,4.5,0,0,1-.872.7l-.222.139a10.085,10.085,0,0,0-3.486,3.717h0a4.424,4.424,0,0,1-.7.959l-5.574,6.01a2.35,2.35,0,0,1-3.242.436h0a2.127,2.127,0,0,1-.235-2.545l4.454-13.135a1.581,1.581,0,0,1,.275-.353Z" transform="translate(-36.442 -45.01)"/><path class="x" d="M302.142,222.262" transform="translate(-36.442 -45.01)"/><path class="x" d="M292.171,222.406a5.971,5.971,0,0,0,.24,2.515c.436,1.151,10.241-3.591,10.241-3.591Z" transform="translate(-36.442 -45.01)"/><circle class="w" cx="8.773" cy="8.773" r="8.773" transform="translate(251.479 161.101)"/><path class="af" d="M255.968,179.911l4.681,4.118-2.34,5.169-5.631-8.154Z"/><path class="ac" d="M298.629,209.345a.514.514,0,0,0-.819.044c-1.151,1.717-4.794,6.345-9.888,5.164-6.223-1.447-4.763-8.747,0-8.747,0,0,7.265-5.7,13.562-1.137,0,0,6.45,2.253,3.787,8.35l-1.168,2.863a18.987,18.987,0,0,0,0-3.617,1.133,1.133,0,0,0-1.168-.985,5.23,5.23,0,0,1-4.306-1.935Z" transform="translate(-36.442 -45.01)"/><circle class="ac" cx="0.741" cy="0.741" r="0.741" transform="translate(256.186 169.39)"/><circle class="ac" cx="0.741" cy="0.741" r="0.741" transform="translate(261.699 169.39)"/><path class="ac" d="M296.577,218.637h-2.205a.322.322,0,0,1-.248-.118.3.3,0,0,1-.065-.262l.906-4.755a.32.32,0,0,1,.628.122l-.837,4.358h1.822a.323.323,0,0,1,0,.641Z" transform="translate(-36.442 -45.01)"/><path class="ac" d="M297.8,213.237a.318.318,0,0,1-.061-.632l1.887-.375a2.654,2.654,0,0,1,2.044.436.319.319,0,0,1-.366.523,2.022,2.022,0,0,0-1.551-.322l-1.891.375Z" transform="translate(-36.442 -45.01)"/><path class="ai" d="M296.08,220.471a6.376,6.376,0,0,1-2.868-.689.32.32,0,1,1,.314-.558,5.635,5.635,0,0,0,4.977,0,.323.323,0,0,1,.436.131.318.318,0,0,1-.135.436,5.692,5.692,0,0,1-2.724.68Z" transform="translate(-36.442 -45.01)"/></g></g></svg>