<svg xmlns="http://www.w3.org/2000/svg" xmlns:xlink="http://www.w3.org/1999/xlink" width="361.3" height="326" viewBox="0 0 361.3 326"><defs><style>.a,.i{fill:none;}.b,.f,.g,.k{fill:#fff;}.b{stroke:#707070;}.c{clip-path:url(#a);}.d{clip-path:url(#b);}.e{fill:#f4f4f4;}.g{stroke:#7b84ff;stroke-miterlimit:10;stroke-width:4px;}.h,.l{fill:#333;}.i{stroke:#fff;stroke-linecap:round;stroke-linejoin:round;stroke-width:2px;}.j{fill:#202020;font-size:15px;font-family:SpoqaHanSans-Bold, SpoqaHanSans;font-weight:700;letter-spacing:-0.02em;}.k{stroke:#ddd;}.l{font-size:11px;font-family:SpoqaHanSans-Regular, SpoqaHanSans;}.m{fill:#7b84ff;}.n{stroke:none;}</style><clipPath id="a"><rect class="a" width="361.3" height="326" transform="translate(418 2335)"/></clipPath><clipPath id="b"><rect class="b" width="357" height="321"/></clipPath></defs><g transform="translate(-418 -2335)"><rect class="a" width="361.3" height="326" transform="translate(418 2335)"/><g class="c"><g class="d" transform="translate(420 2347)"><g transform="translate(7.146 9.914)"><g transform="translate(0 0)"><path class="e" d="M32.894,0H197.322a32.894,32.894,0,0,1,32.894,32.894V304.551a0,0,0,0,1,0,0H0a0,0,0,0,1,0,0V32.894A32.894,32.894,0,0,1,32.894,0Z" transform="translate(58.396)"/><path class="f" d="M12.608,0H195.076a12.608,12.608,0,0,1,12.608,12.608V290.638a3.621,3.621,0,0,1-3.621,3.621H3.621A3.621,3.621,0,0,1,0,290.638V12.608A12.608,12.608,0,0,1,12.608,0Z" transform="translate(69.662 11.137)"/><rect class="g" width="347.009" height="58.115" rx="9.803" transform="translate(0 51.098)"/><circle class="h" cx="19.952" cy="19.952" r="19.952" transform="translate(153.552 23.477)"/><path class="i" d="M581.879,632.282l5.591,5.591,10.206-16.578" transform="translate(-416.273 -586.155)"/></g><text class="j" transform="translate(174.03 86.133)"><tspan x="-157.635" y="0">Q. 자신을 표현할 수 있는 단어가 있다면 무엇인가요?</tspan></text><g class="k" transform="translate(79.361 125.699)"><rect class="n" width="189.959" height="61.631" rx="6"/><rect class="a" x="0.5" y="0.5" width="188.959" height="60.631" rx="5.5"/></g><text class="l" transform="translate(100.144 153.051)"><tspan x="0" y="0">Q. 자신의 단점을 극복하기 위해</tspan><tspan x="0" y="17">사용한 방법은 어떤 것이 있나요?</tspan></text><g class="k" transform="translate(79.361 198.551)"><rect class="n" width="189.959" height="61.631" rx="6"/><rect class="a" x="0.5" y="0.5" width="188.959" height="60.631" rx="5.5"/></g><text class="l" transform="translate(101.676 225.904)"><tspan x="0" y="0">Q. 친한 친구가 몇 명 정도면</tspan><tspan x="0" y="17">성공한 삶이라고 생각하시나요?</tspan></text><circle class="m" cx="2.955" cy="2.955" r="2.955" transform="translate(171.385 270.625)"/><circle class="m" cx="2.955" cy="2.955" r="2.955" transform="translate(171.385 279.912)"/><circle class="m" cx="2.955" cy="2.955" r="2.955" transform="translate(171.385 289.199)"/></g></g></g></g></svg>