<svg xmlns="http://www.w3.org/2000/svg" xmlns:xlink="http://www.w3.org/1999/xlink" width="477.029" height="301.509" viewBox="0 0 477.029 301.509"><defs><style>.a,.ad,.o,.r,.s,.y{fill:none;}.a{stroke:#c1c1c1;stroke-dasharray:4 4 4;}.a,.b,.p,.r,.s{stroke-miterlimit:10;}.a,.r{stroke-width:1.2px;}.b,.f,.h,.n,.v{fill:#fff;}.b,.c,.d,.e,.f,.g{stroke:#000;}.b,.c,.f,.g{stroke-width:1.5px;}.c,.y{stroke-linecap:round;}.c,.d,.e,.f,.g,.y{stroke-linejoin:round;}.e{fill:#2f2e40;}.i,.x{fill:#0069ff;}.j{fill:#003cd3;}.k{fill:#0033b2;}.l,.m{fill:#e4f0ff;}.m{stroke:#e4f0ff;}.n,.o{stroke:#2d2d2d;}.p{fill:#f9f9f9;stroke:#b5b5b5;stroke-width:0.3px;}.q,.w{fill:#005bde;}.q{opacity:0.29;}.r,.y{stroke:#0069ff;}.s{stroke:#00e894;stroke-width:2px;}.t{fill:#3e3e3e;font-family:SpoqaHanSansNeo-Regular, Spoqa Han Sans Neo;}.aa,.t,.z{font-size:4px;}.t,.u,.x{letter-spacing:-0.02em;}.u{fill:#2e2e2e;font-size:7px;}.aa,.u,.z{font-family:SpoqaHanSansNeo-Medium, Spoqa Han Sans Neo;font-weight:500;}.w{opacity:0.35;}.x{font-size:17px;font-family:SpoqaHanSansNeo-Bold, Spoqa Han Sans Neo;font-weight:700;}.y{stroke-width:3px;}.aa,.z{letter-spacing:-0.025em;}.aa{fill:#a8a8a8;}.ab{fill:#3b61d5;opacity:0.16;}.ac,.ae{stroke:none;}.ae{fill:#707070;}.af{filter:url(#g);}.ag{filter:url(#e);}.ah{filter:url(#c);}.ai{filter:url(#a);}</style><filter id="a" x="34.451" y="45" width="138" height="153" filterUnits="userSpaceOnUse"><feOffset dx="-5" dy="5" input="SourceAlpha"/><feGaussianBlur stdDeviation="4" result="b"/><feFlood flood-color="#b1b0b0" flood-opacity="0.161"/><feComposite operator="in" in2="b"/><feComposite in="SourceGraphic"/></filter><filter id="c" x="243.451" y="0" width="148" height="110" filterUnits="userSpaceOnUse"><feOffset dx="-5" dy="5" input="SourceAlpha"/><feGaussianBlur stdDeviation="4" result="d"/><feFlood flood-color="#b1b0b0" flood-opacity="0.161"/><feComposite operator="in" in2="d"/><feComposite in="SourceGraphic"/></filter><filter id="e" x="323.451" y="93" width="143" height="116" filterUnits="userSpaceOnUse"><feOffset dx="-5" dy="5" input="SourceAlpha"/><feGaussianBlur stdDeviation="4" result="f"/><feFlood flood-color="#b1b0b0" flood-opacity="0.161"/><feComposite operator="in" in2="f"/><feComposite in="SourceGraphic"/></filter><filter id="g" x="157.451" y="0" width="102" height="110" filterUnits="userSpaceOnUse"><feOffset dx="-5" dy="5" input="SourceAlpha"/><feGaussianBlur stdDeviation="4" result="h"/><feFlood flood-color="#b1b0b0" flood-opacity="0.161"/><feComposite operator="in" in2="h"/><feComposite in="SourceGraphic"/></filter></defs><g transform="translate(-433.549 -1486)"><g transform="translate(-29.461 31)"><path class="a" d="M705.6,135.794s-19.707,16.159-7.742,30.38c0,0,5.63,7.11,16.891,7.11,0,0,9.15-1.293,8.445-7.757,0,0-1.407-6.464-8.445-4.524s-6.334,10.342-2.112,15.513c0,0,17.6,21.33,70.381-4.525,26.041-14.22,39.4-34.58,62.639-44.6s54.9-1.293,64.751,5.171,35.191,44.6,77.419,38.136,85.865,2.586,105.572,44.6c0,0,4.927,9.7,19.707,10.342,0,0,21.818,1.939,14.78,28.44-7.014,26.412-33.577,18.508-34.487,10.989-1.407-11.635,20.253-17.282,43.479,1.463" transform="translate(-230.334 1426.696)"/><path class="a" d="M1098.709,166.174a19.9,19.9,0,0,1-15.571,7.11s-8.435-1.293-7.785-7.757c0,0,1.3-6.464,7.785-4.524s5.839,10.342,1.947,15.513c0,0-16.22,21.33-64.881-4.525-24.006-14.22-36.317-34.58-57.744-44.6s-50.606-1.293-59.69,5.171-61.083,40-100.01,33.534" transform="translate(-192.166 1416.811)"/><g transform="translate(610.594 1570.625)"><path class="b" d="M879.195,268l-3.717,4.526L873,274.466l7.433,5.82h1.92l3.655-4.526-2.478-6.466Z" transform="translate(-839.724 -141.862)"/><path class="b" d="M903.919,332.037l-.012,11.68-.69,4.911,9.438-.321,1.486-1.944-.036-11.618-6.012-5.5Z" transform="translate(-848.104 -166.111)"/><path class="c" d="M897.52,343.27s-16.731,8.081-15.816,9.2l27.764-.3s1.576-.356.763-2.491l-1.982-5.848S903.622,343.881,897.52,343.27Z" transform="translate(-842.128 -167.336)"/><path class="b" d="M952,229.143v4.386a6.189,6.189,0,0,0,6,6.362h58.1c3.314,0,4.555-.766,6-6.362l16.622-76.167a6.189,6.189,0,0,0-6-6.362H994.134c-3.314,0-3.832,2.3-6,6.362l-35.1,67.505A9.279,9.279,0,0,0,952,229.143Z" transform="translate(-861.633 -109.417)"/><path class="d" d="M920.414,232.212,897.3,299.441l9.7-.008,11.623-.01,18.087-53.877,43.7-.741V224.815Z" transform="translate(-847.048 -129.887)"/><path class="e" d="M906.269,210.5,877,248.08l13.008,15.9,23.849-35.412,51.311,11.348s15.177,5.273,19.513-7.735a24.986,24.986,0,0,0-5.42-21.681" transform="translate(-840.833 -125.916)"/><rect class="f" width="145.854" height="6.143" transform="translate(0 78.44)"/><g transform="translate(122.271 135.533)"><line class="b" y1="44.543" transform="translate(0 0)"/><line class="b" y2="44.543" transform="translate(6.143 0)"/></g><path class="g" d="M983.252,353.5h0a6.531,6.531,0,0,1,6.559-6.5h11.66a6.532,6.532,0,0,1,6.559,6.5h0" transform="translate(-870.298 -168.37)"/><path class="c" d="M938.819,96.018s-1.445,2.891.723,7.227a7.509,7.509,0,0,0,5.059,3.613s5.059,2.168,5.781,3.613c0,0,2.168,1.445.723,5.059l1.445,7.227s7.227-.723,9.395-5.059c0,0,2.168-4.887,0-7.141,0,0-.723-1.531,0-2.254,0,0,1.445-5.781-2.891-7.95,0,0-2.891-.723-2.891-1.445,0,0-2.168-4.336-7.227-1.445C948.937,97.464,943.155,89.514,938.819,96.018Z" transform="translate(-857.846 -93.46)"/><rect class="g" width="14.979" height="5.059" transform="translate(117.853 130.474)"/><path class="f" d="M940.292,109s-9.395,10.84-6.5,16.622c0,0,.723,3.613,7.227,3.613l-1.445,10.118,2.168,5.781L953.3,135.017l-2.891-10.84s3.613-.723,3.613-3.613a2.148,2.148,0,0,0-2.891-2.168,5.4,5.4,0,0,0-2.168,2.168l.723-5.782a22.768,22.768,0,0,1-4.336-2.168C944.011,111.817,942.1,109.452,940.292,109Z" transform="translate(-856.428 -97.769)"/><g transform="translate(60.538 84.222)"><rect class="h" width="5.781" height="94.408" transform="translate(9.627 0)"/><g transform="translate(0 0)"><g transform="translate(9.447)"><line class="b" y1="94.408"/><line class="b" y2="94.408" transform="translate(6.143)"/></g><path class="g" d="M910.723,353.5h0a6.532,6.532,0,0,1,6.559-6.5h11.66a6.531,6.531,0,0,1,6.559,6.5h0" transform="translate(-910.723 -252.592)"/></g></g><path class="f" d="M939.95,143.314s-5.059.723-6.5,3.613L932,154.155l8.672,31.076h41.515l3.291-4.336L981.143,165l-13.009-20.958s-.723-3.613-8.672-2.168c0,0-6.5.723-7.227,2.168,0,0-7.95,6.5-11.563,2.891A3.63,3.63,0,0,1,939.95,143.314Z" transform="translate(-856.086 -106.79)"/><path class="f" d="M980.168,179.782l5.059,7.95H973.7s-2.2-5.781-7.263-5.059c0,0-7.949,2.168-6.5,5.059,0,0,1.445,2.168,7.227,2.168,0,0,1.445,0,1.445.723v3.613h28.908s4.336-1.445,2.168-5.059L988.84,174Z" transform="translate(-863.783 -115.795)"/><g transform="translate(36.167 45.516)"><path d="M935.924,192.2H893.057a2.784,2.784,0,0,1-2.662-2.893L881,162.893A2.784,2.784,0,0,1,883.662,160H924.59c1.47,0,2.662,2.356,2.662,2.893l9.395,26.417C937.37,191.417,937.394,192.2,935.924,192.2Z" transform="translate(-878.109 -160)"/><path d="M956.863,200.891H892.33c-.68,0-1.445,0-1.445-.723v-.508c0-.679-.68-1.66,0-1.66l65.979.429a1.231,1.231,0,0,1,1.231,1.231h0A1.23,1.23,0,0,1,956.863,200.891Z" transform="translate(-880.766 -167.966)"/><path class="i" d="M929.985,192.2H889.057c-1.47,0-1.939-.785-2.662-2.893L877,162.893A2.784,2.784,0,0,1,879.662,160h40.929c1.47,0,2.662,2.356,2.662,2.893l9.395,26.417C933.37,191.417,931.455,192.2,929.985,192.2Z" transform="translate(-877 -160)"/><circle class="h" cx="2.891" cy="2.891" r="2.891" transform="translate(25.294 14.37)"/></g><path class="c" d="M868.567,273.278s-18.067-4.336-18.067-2.891l21.681,17.345s1.445.723,2.168-1.445l2.168-5.781S872.9,277.614,868.567,273.278Z" transform="translate(-833.486 -142.442)"/></g><g transform="translate(475.5 1539.653)"><path class="i" d="M700,125l3.661,7.322,4.393,3.661,4.393,8.786L730.02,125Z" transform="translate(-700 -125)"/><path class="j" d="M705,132.322v8.583l4.393-4.922L731.359,125Z" transform="translate(-701.339 -125)"/><path class="k" d="M705,144.922,709.393,140l1.015,2.03Z" transform="translate(-701.339 -129.017)"/></g><g transform="translate(916.533 1685.719) rotate(40)"><path class="i" d="M0,0,3.742,7.484l4.49,3.742,4.491,8.981L30.685,0Z" transform="translate(0 0)"/><path class="j" d="M0,7.484v8.774l4.49-5.031L26.943,0Z" transform="translate(3.742 0)"/><path class="k" d="M0,5.031,4.49,0,5.528,2.075Z" transform="translate(3.742 11.226)"/></g></g><g class="ai" transform="matrix(1, 0, 0, 1, 433.55, 1486)"><rect class="l" width="114" height="129" transform="translate(51.45 52)"/></g><g class="ah" transform="matrix(1, 0, 0, 1, 433.55, 1486)"><g class="m" transform="translate(260.45 7)"><rect class="ac" width="124" height="86"/><rect class="ad" x="0.5" y="0.5" width="123" height="85"/></g></g><g class="ag" transform="matrix(1, 0, 0, 1, 433.55, 1486)"><g class="m" transform="translate(340.45 100)"><rect class="ac" width="119" height="92"/><rect class="ad" x="0.5" y="0.5" width="118" height="91"/></g></g><g class="af" transform="matrix(1, 0, 0, 1, 433.55, 1486)"><g class="m" transform="translate(174.45 7)"><rect class="ac" width="78" height="86"/><rect class="ad" x="0.5" y="0.5" width="77" height="85"/></g></g><g class="n" transform="translate(537 1722)"><circle class="ac" cx="4" cy="4" r="4"/><circle class="ad" cx="4" cy="4" r="3.5"/></g><g class="n" transform="translate(857 1548)"><circle class="ac" cx="4" cy="4" r="4"/><circle class="ad" cx="4" cy="4" r="3.5"/></g><g transform="translate(-4 1)"><path class="o" d="M0,0H8" transform="translate(521 1692)"/><line class="o" y1="8" transform="translate(525 1688)"/></g><g transform="translate(322 -174)"><path class="o" d="M0,0H8" transform="translate(521 1692)"/><line class="o" y1="8" transform="translate(525 1688)"/></g><g transform="translate(-12.631 -9.295)"><g transform="translate(520.006 1586.289)"><g transform="translate(0 0)"><path class="p" d="M1328.251,449.2,1296,467.824v37.24l32.25,18.62,32.251-18.62v-37.24Z" transform="translate(-1296 -449.204)"/><path class="p" d="M1321.8,449.2,1296,464.1v29.792l25.8,14.9,25.8-14.9V464.1Z" transform="translate(-1289.55 -441.832)"/><path class="p" d="M1315.268,449.2,1296,460.328v22.248l19.268,11.124,19.267-11.124V460.328Z" transform="translate(-1283.1 -434.461)"/><path class="p" d="M1309.042,449.2,1296,456.734v15.06l13.042,7.53,13.042-7.53v-15.06Z" transform="translate(-1277.571 -427.089)"/></g><g transform="translate(7.509 7.447)"><path class="q" d="M1321.8,449.2l-18.688,18.259L1296,493.892,1321.8,505l25.8-11.11-2.993-28.476Z" transform="translate(-1296 -449.204)"/><path class="r" d="M1321.8,449.2l-18.688,18.259L1296,493.892,1321.8,505l25.8-11.11-2.993-28.476Z" transform="translate(-1296 -449.204)"/></g><path class="s" d="M1321.8,449.2l-22.374,16.757L1296,493.892l.041.029,25.759,18.233,22.807-20.12-4.095-24.3Z" transform="translate(-1288.493 -441.757)"/></g><g transform="translate(498.631 1577.745)"><text class="t" transform="translate(53 5.55)"><tspan x="-7.24" y="0">시선처리</tspan></text><text class="t" transform="translate(98 26.55)"><tspan x="-9.04" y="0">상체움직임</tspan></text><text class="t" transform="translate(94 65.55)"><tspan x="-5.44" y="0">제스처</tspan></text><text class="t" transform="translate(53 89.55)"><tspan x="-9.04" y="0">목소리크기</tspan></text><text class="t" transform="translate(11 65.55)"><tspan x="-7.648" y="0">목소리 톤</tspan></text><text class="t" transform="translate(12 26.55)"><tspan x="-7.24" y="0">발화속도</tspan></text></g></g><text class="u" transform="translate(512 1553)"><tspan x="-19.684" y="0">인터뷰 분석도</tspan></text><text class="u" transform="translate(794 1601)"><tspan x="-12.67" y="0">언어성향</tspan></text><text class="u" transform="translate(631 1508)"><tspan x="-15.82" y="0">응답신중성</tspan></text><text class="u" transform="translate(714 1508)"><tspan x="-12.67" y="0">종합등급</tspan></text><g transform="translate(799 1607)"><g class="v" transform="translate(0 0)"><path class="ac" d="M 68.83122253417969 62.90000152587891 L 0.1687740534543991 62.90000152587891 L 34.5 0.2081960886716843 L 68.83122253417969 62.90000152587891 Z"/><path class="ae" d="M 34.5 0.4163932800292969 L 0.3375473022460938 62.79999923706055 L 68.66245269775391 62.79999923706055 L 34.5 0.4163932800292969 M 34.5 0 L 69 63 L 0 63 L 34.5 0 Z"/></g><g class="v" transform="translate(8 12)"><path class="ac" d="M 52.82698440551758 45.90000152587891 L 0.1730169504880905 45.90000152587891 L 26.5 0.2003313153982162 L 52.82698440551758 45.90000152587891 Z"/><path class="ae" d="M 26.5 0.4006614685058594 L 0.3460350036621094 45.79999923706055 L 52.65396499633789 45.79999923706055 L 26.5 0.4006614685058594 M 26.5 0 L 53 46 L 0 46 L 26.5 0 Z"/></g><g class="v" transform="translate(19 23)"><path class="ac" d="M 30.83316802978516 28.89999961853027 L 0.1668347418308258 28.89999961853027 L 15.50000095367432 0.2121406495571136 L 30.83316802978516 28.89999961853027 Z"/><path class="ae" d="M 15.50000095367432 0.4242992401123047 L 0.33367919921875 28.79999923706055 L 30.66632270812988 28.79999923706055 L 15.50000095367432 0.4242992401123047 M 15.50000095367432 0 L 31 29 L 1.9073486328125e-06 29 L 15.50000095367432 0 Z"/></g><g class="v" transform="translate(19 23)"><path class="ac" d="M 30.83316802978516 28.89999961853027 L 0.1668347418308258 28.89999961853027 L 15.50000095367432 0.2121406495571136 L 30.83316802978516 28.89999961853027 Z"/><path class="ae" d="M 15.50000095367432 0.4242992401123047 L 0.33367919921875 28.79999923706055 L 30.66632270812988 28.79999923706055 L 15.50000095367432 0.4242992401123047 M 15.50000095367432 0 L 31 29 L 1.9073486328125e-06 29 L 15.50000095367432 0 Z"/></g></g><path class="w" d="M14.888-4.565,35.336,31.221-9.715,33.457Z" transform="translate(818.852 1630.939)"/><text class="t" transform="translate(834 1605)"><tspan x="-3.64" y="0">중립</tspan></text><text class="t" transform="translate(872 1669)"><tspan x="-3.64" y="0">부정</tspan></text><text class="t" transform="translate(793 1669)"><tspan x="-3.64" y="0">긍정</tspan></text><g transform="translate(-102.836 7.769)"><text class="x" transform="translate(749.429 1550.356)"><tspan x="-7.82" y="0">상</tspan></text><path class="y" d="M955.668,542.331a29.039,29.039,0,1,1,53.832,0" transform="translate(-232.748 1012.734)"/></g><g transform="translate(247.928 776)"><text class="z" transform="translate(454.982 798.001)"><tspan x="-2.334" y="0">A+</tspan></text><text class="aa" transform="translate(467.742 798.001)"><tspan x="-2.386" y="0">A0</tspan></text><text class="aa" transform="translate(480.993 798.001)"><tspan x="-2.424" y="0">B+</tspan></text><text class="aa" transform="translate(507.495 798.001)"><tspan x="-2.382" y="0">C+</tspan></text><text class="aa" transform="translate(533.507 798.001)"><tspan x="-2.488" y="0">D+</tspan></text><text class="aa" transform="translate(493.753 798.001)"><tspan x="-2.476" y="0">B0</tspan></text><text class="aa" transform="translate(519.274 798.001)"><tspan x="-2.434" y="0">C0</tspan></text><text class="aa" transform="translate(546.268 798.001)"><tspan x="-2.54" y="0">D0</tspan></text><text class="aa" transform="translate(559.991 798.001)"><tspan x="-1.132" y="0">F</tspan></text><rect class="i" width="34.95" height="7.12" rx="1" transform="translate(452 791.063) rotate(-90)"/><rect class="ab" width="31.067" height="7.12" rx="1" transform="translate(464.76 791.063) rotate(-90)"/><rect class="ab" width="34.95" height="7.12" rx="1" transform="translate(504.513 791.063) rotate(-90)"/><rect class="ab" width="28.174" height="7.12" rx="1" transform="translate(517.274 791.063) rotate(-90)"/><rect class="ab" width="25.201" height="7.12" rx="1" transform="translate(530.525 791.063) rotate(-90)"/><rect class="ab" width="36.102" height="7.12" rx="1" transform="translate(543.776 791.063) rotate(-90)"/><rect class="ab" width="31.067" height="7.12" rx="1" transform="translate(557.027 791.063) rotate(-90)"/><rect class="ab" width="38.505" height="7.12" rx="1" transform="translate(478.011 791.063) rotate(-90)"/><rect class="ab" width="49.063" height="7.12" rx="1" transform="translate(491.262 791.063) rotate(-90)"/></g></g></svg>