<svg xmlns="http://www.w3.org/2000/svg" width="290" height="156.002" viewBox="0 0 290 156.002"><defs><style>.a{fill:#3b61d5;}.b{fill:#fcfdff;}.c,.e,.g{fill:none;}.c{stroke:#3b61d5;stroke-linecap:round;stroke-linejoin:round;stroke-width:1.5px;}.d{fill:#fff;}.e{stroke:#f4f4f4;stroke-width:10px;}.f{fill:#f4f4f4;font-size:90px;font-family:SpoqaHanSansNeo-Medium, Spoqa Han Sans Neo;font-weight:500;letter-spacing:-0.05em;}.g{stroke:#fff;stroke-dasharray:4;}.h,.i{stroke:none;}.i{fill:#fff;}</style></defs><g transform="translate(-67 -845)"><path class="a" d="M290,167H218a11,11,0,1,0-22,0H0V11H196a11,11,0,0,0,22,0h72V167Z" transform="translate(67 834)"/><g transform="translate(9248 -4564)"><path class="b" d="M11,0A11,11,0,1,1,0,11,11,11,0,0,1,11,0Z" transform="translate(-8942 5476)"/><path class="c" d="M12382.373,5097.664l3.788,4.729,5.6-7.888" transform="translate(-21318.143 388.995)"/></g><g transform="translate(-369 517.251)"><g class="d" transform="translate(436 327.25)"><path class="h" d="M 195.5108642578125 156.0011138916016 L 0.5000349879264832 156.0001220703125 L 0.5000349879264832 0.9995072484016418 L 195.5110015869141 0.9995072484016418 C 195.6345672607422 3.87970757484436 196.817138671875 6.572119235992432 198.8722229003906 8.627285003662109 C 200.9282836914063 10.68326568603516 203.6205596923828 11.86585903167725 206.5000610351563 11.98866558074951 L 206.5 145.0101318359375 C 200.5555572509766 145.2657928466797 195.7659149169922 150.0560607910156 195.5108642578125 156.0011138916016 Z"/><path class="i" d="M 195.0413513183594 155.5011138916016 C 195.5234069824219 149.6794891357422 200.178955078125 145.0233306884766 206 144.5406799316406 L 206.0000610351563 12.45835208892822 C 203.1761627197266 12.22604370117188 200.5497741699219 11.01184272766113 198.5186767578125 8.980840682983398 C 196.4883728027344 6.950496196746826 195.2742614746094 4.324147701263428 195.0414123535156 1.499507308006287 L 1.000035047531128 1.499507308006287 L 1.000035047531128 155.5001220703125 L 195.0413513183594 155.5011138916016 M 196.0001678466797 156.5011138916016 L 195.9992065429688 156.5011138916016 L 3.499348895275034e-05 156.5001220703125 L 3.499348895275034e-05 0.4995072484016418 L 196.0002288818359 0.4995072484016418 C 196.0010833740234 3.433590650558472 197.1462860107422 6.194173812866211 199.2257843017578 8.27372932434082 C 201.3059234619141 10.35378456115723 204.0668334960938 11.49931240081787 207.0000305175781 11.49931240081787 C 207.2162322998047 11.49931240081787 207.4350891113281 11.49289608001709 207.6505126953125 11.48025703430176 C 207.4204254150391 11.50286865234375 207.2015380859375 11.51767349243164 207.0000610351563 11.52628517150879 L 207 145.4643402099609 C 209.9331512451172 145.4643402099609 212.6944580078125 146.6137237548828 214.7742004394531 148.6998138427734 C 216.1947326660156 150.1252899169922 217.1981506347656 151.8993072509766 217.6758728027344 153.8301239013672 C 217.1953887939453 151.9089813232422 216.1927032470703 150.1434783935547 214.7742004394531 148.7250061035156 C 212.6941528320313 146.6449584960938 209.9332580566406 145.4993896484375 207.0000305175781 145.4993896484375 C 200.9347076416016 145.4993896484375 196.0001678466797 150.4343109130859 196.0001678466797 156.5001220703125 L 196.0001678466797 156.5011138916016 Z"/></g><g transform="translate(524 395.23)"><line class="e" x2="25" y2="27" transform="translate(0 -0.48)"/><line class="e" y1="26" x2="25" transform="translate(0 -0.48)"/></g><text class="f" transform="translate(593 439.75)"><tspan x="-26.82" y="0">3</tspan></text><path class="g" d="M0,0V132" transform="translate(643.5 340.249)"/></g></g></svg>