<svg xmlns="http://www.w3.org/2000/svg" xmlns:xlink="http://www.w3.org/1999/xlink" width="124" height="124" viewBox="0 0 124 124"><defs><style>.a{fill:#fff;stroke:#707070;}.b{clip-path:url(#a);}.c,.h{fill:none;}.c{stroke:#362c29;stroke-linejoin:round;stroke-width:1.8px;}.d{fill:#1a1311;stroke:#1a1311;stroke-miterlimit:10;stroke-width:1.5px;}.e{fill:#3b61d5;stroke:#3b61d5;}.f{fill:#e06160;}.g{stroke:none;}</style><clipPath id="a"><rect class="a" width="124" height="124" transform="translate(1185 904)"/></clipPath></defs><g class="b" transform="translate(-1185 -904)"><g transform="translate(-123 497)"><g transform="translate(1344.569 439.766)"><path class="c" d="M1340.885,191.55s-29.691-.744-25.042,32.232l8.864-3.1s-6.529-20.455,17.025-24.009V201.3l9.587-8.017-10.413-6.859Z" transform="translate(-1315.349 -186.426)"/><path class="c" d="M1351.638,251.527s29.691.744,25.042-32.232l-8.863,3.1s6.529,20.455-17.026,24.009v-4.628l-9.587,8.016,10.414,6.86Z" transform="translate(-1323.219 -196.431)"/></g><g transform="matrix(0.951, -0.309, 0.309, 0.951, 1398.523, 444.73)"><rect class="d" width="0.148" height="0.148" transform="translate(3.702 0)"/><rect class="d" width="0.148" height="0.148" transform="translate(0 2.327) rotate(-60)"/><rect class="d" width="0.148" height="0.148" transform="translate(0.164 6.696) rotate(-120)"/><rect class="d" width="0.148" height="0.148" transform="translate(4.03 8.739) rotate(-180)"/><rect class="d" width="0.148" height="0.148" transform="translate(7.732 6.412) rotate(120)"/><rect class="d" width="0.148" height="0.148" transform="translate(7.568 2.042) rotate(60)"/></g><g transform="matrix(0.951, -0.309, 0.309, 0.951, 1334.514, 440.609)"><rect class="d" width="0.1" height="0.1" transform="translate(2.493 0)"/><rect class="d" width="0.1" height="0.1" transform="translate(0 1.567) rotate(-60)"/><rect class="d" width="0.1" height="0.1" transform="translate(0.111 4.51) rotate(-120)"/><rect class="d" width="0.1" height="0.1" transform="translate(2.715 5.886) rotate(-180)"/><rect class="d" width="0.1" height="0.1" transform="translate(5.208 4.319) rotate(120)"/><rect class="d" width="0.1" height="0.1" transform="translate(5.097 1.376) rotate(60)"/></g><g class="e" transform="matrix(0.951, -0.309, 0.309, 0.951, 1411.051, 453.826)"><circle class="g" cx="1.27" cy="1.27" r="1.27"/><circle class="h" cx="1.27" cy="1.27" r="0.77"/></g><circle class="f" cx="2.54" cy="2.54" r="2.54" transform="matrix(0.951, -0.309, 0.309, 0.951, 1327, 461.23)"/></g></g></svg>