<svg width="250" height="245" viewBox="0 0 250 245" fill="none" xmlns="http://www.w3.org/2000/svg">
<circle cx="128" cy="135" r="91" stroke="#EBEBEB" stroke-linecap="round" stroke-linejoin="round" stroke-dasharray="1 3"/>
<circle cx="128" cy="135" r="61" fill="white" fill-opacity="0.2" stroke="#EBEBEB" stroke-linecap="round" stroke-linejoin="round" stroke-dasharray="1 3"/>
<circle cx="128" cy="135" r="31" fill="white" fill-opacity="0.2" stroke="#EBEBEB" stroke-linecap="round" stroke-linejoin="round" stroke-dasharray="1 3"/>
<path d="M128 43V226" stroke="#EBEBEB"/>
<path d="M207 89L49.3834 180" stroke="#EBEBEB" stroke-width="0.8"/>
<path d="M49 89L206.617 180" stroke="#EBEBEB" stroke-width="0.8"/>
<path d="M132.67 134.31C132.67 133.276 132.493 131.946 131.845 130.799C131.131 129.534 129.84 128.53 127.97 128.53V132.53C128.144 132.53 128.199 132.568 128.206 132.573C128.225 132.585 128.284 132.628 128.362 132.766C128.542 133.084 128.67 133.644 128.67 134.31H132.67ZM127.97 128.53C126.13 128.53 124.839 129.504 124.117 130.766C123.462 131.91 123.28 133.246 123.28 134.31H127.28C127.28 133.614 127.413 133.06 127.588 132.754C127.664 132.622 127.72 132.582 127.737 132.572C127.743 132.568 127.797 132.53 127.97 132.53V128.53ZM123.28 134.31C123.28 135.374 123.462 136.709 124.118 137.851C124.843 139.113 126.135 140.08 127.97 140.08V136.08C127.795 136.08 127.74 136.042 127.733 136.038C127.717 136.028 127.661 135.989 127.587 135.859C127.413 135.556 127.28 135.006 127.28 134.31H123.28ZM127.97 140.08C129.804 140.08 131.096 139.115 131.824 137.856C132.484 136.714 132.67 135.379 132.67 134.31H128.67C128.67 135.001 128.536 135.551 128.361 135.854C128.285 135.985 128.228 136.026 128.21 136.037C128.202 136.042 128.145 136.08 127.97 136.08V140.08ZM127.53 134.31C127.53 134.513 127.521 134.736 127.495 134.948C127.468 135.167 127.43 135.326 127.393 135.423C127.354 135.528 127.355 135.464 127.47 135.362C127.534 135.305 127.621 135.249 127.726 135.209C127.831 135.169 127.918 135.16 127.97 135.16V139.16C128.801 139.16 129.543 138.869 130.122 138.357C130.659 137.881 130.963 137.298 131.142 136.82C131.488 135.89 131.53 134.884 131.53 134.31H127.53ZM127.97 135.16C128.025 135.16 128.114 135.17 128.22 135.21C128.326 135.25 128.412 135.307 128.476 135.363C128.589 135.464 128.589 135.526 128.549 135.419C128.512 135.321 128.473 135.162 128.446 134.943C128.419 134.731 128.41 134.51 128.41 134.31H124.41C124.41 134.891 124.456 135.896 124.803 136.823C124.982 137.3 125.286 137.881 125.821 138.356C126.397 138.867 127.138 139.16 127.97 139.16V135.16ZM128.41 134.31C128.41 134.107 128.419 133.884 128.445 133.672C128.472 133.453 128.51 133.294 128.547 133.197C128.586 133.092 128.585 133.156 128.47 133.258C128.406 133.315 128.319 133.371 128.214 133.411C128.109 133.451 128.022 133.46 127.97 133.46V129.46C127.139 129.46 126.397 129.751 125.818 130.263C125.281 130.739 124.977 131.322 124.798 131.8C124.452 132.73 124.41 133.736 124.41 134.31H128.41ZM127.97 133.46C127.918 133.46 127.831 133.451 127.726 133.411C127.621 133.371 127.534 133.315 127.47 133.258C127.355 133.156 127.354 133.092 127.393 133.197C127.43 133.294 127.468 133.453 127.495 133.672C127.521 133.884 127.53 134.107 127.53 134.31H131.53C131.53 133.736 131.488 132.73 131.142 131.8C130.963 131.322 130.659 130.739 130.122 130.263C129.543 129.751 128.801 129.46 127.97 129.46V133.46Z" fill="white"/>
<path d="M130.67 134.31C130.67 132.61 130.06 130.53 127.97 130.53C125.91 130.53 125.28 132.55 125.28 134.31C125.28 136.07 125.91 138.08 127.97 138.08C130.03 138.08 130.67 136.07 130.67 134.31ZM129.53 134.31C129.53 135.34 129.35 137.16 127.97 137.16C126.6 137.16 126.41 135.34 126.41 134.31C126.41 133.28 126.59 131.46 127.97 131.46C129.35 131.46 129.53 133.28 129.53 134.31Z" fill="#999999"/>
<path d="M119.124 42.04L117.581 43.3121L118.866 44.8713L120.412 43.5702L119.124 42.04ZM120.324 41.03L122.321 41.1474L122.594 36.5056L119.037 39.4998L120.324 41.03ZM120.314 46.04V48.04H122.314V46.04H120.314ZM118.774 46.04V44.04H116.774V46.04H118.774ZM118.774 47H116.774V49H118.774V47ZM122.804 47V49H124.804V47H122.804ZM122.804 46.04H124.804V44.04H122.804V46.04ZM121.414 46.04H119.414V48.04H121.414V46.04ZM121.414 39.59H123.414V37.59H121.414V39.59ZM120.514 39.59V37.59H119.776L119.215 38.0699L120.514 39.59ZM118.514 41.3L117.215 39.7799L115.722 41.0564L116.971 42.5721L118.514 41.3ZM120.412 43.5702L121.612 42.5602L119.037 39.4998L117.837 40.5098L120.412 43.5702ZM118.328 40.9126C118.314 41.1507 118.314 41.3789 118.314 41.53H122.314C122.314 41.3611 122.315 41.2493 122.321 41.1474L118.328 40.9126ZM118.314 41.53V46.04H122.314V41.53H118.314ZM120.314 44.04H118.774V48.04H120.314V44.04ZM116.774 46.04V47H120.774V46.04H116.774ZM118.774 49H122.804V45H118.774V49ZM124.804 47V46.04H120.804V47H124.804ZM122.804 44.04H121.414V48.04H122.804V44.04ZM123.414 46.04V39.59H119.414V46.04H123.414ZM121.414 37.59H120.514V41.59H121.414V37.59ZM119.215 38.0699L117.215 39.7799L119.814 42.8201L121.814 41.1101L119.215 38.0699ZM116.971 42.5721L117.581 43.3121L120.668 40.7679L120.058 40.0279L116.971 42.5721ZM130.971 43.31C130.971 42.2761 130.794 40.9458 130.147 39.7989C129.432 38.5342 128.142 37.53 126.271 37.53V41.53C126.446 41.53 126.5 41.5683 126.508 41.5729C126.526 41.5847 126.586 41.6282 126.664 41.7661C126.843 42.0842 126.971 42.6439 126.971 43.31H130.971ZM126.271 37.53C124.432 37.53 123.141 38.5038 122.418 39.7664C121.764 40.9101 121.581 42.2456 121.581 43.31H125.581C125.581 42.6144 125.714 42.0599 125.89 41.7536C125.965 41.6216 126.022 41.5817 126.038 41.5715C126.045 41.5676 126.099 41.53 126.271 41.53V37.53ZM121.581 43.31C121.581 44.3744 121.764 45.7088 122.42 46.8512C123.145 48.1133 124.436 49.08 126.271 49.08V45.08C126.097 45.08 126.041 45.042 126.035 45.038C126.019 45.028 125.963 44.9889 125.888 44.8588C125.714 44.5562 125.581 44.0056 125.581 43.31H121.581ZM126.271 49.08C128.105 49.08 129.398 48.1151 130.126 46.8557C130.786 45.7137 130.971 44.3787 130.971 43.31H126.971C126.971 44.0013 126.837 44.5513 126.662 44.8543C126.587 44.985 126.53 45.0255 126.512 45.0367C126.503 45.042 126.446 45.08 126.271 45.08V49.08ZM125.831 43.31C125.831 43.5134 125.822 43.7356 125.796 43.9479C125.77 44.1675 125.731 44.3259 125.695 44.423C125.656 44.5279 125.656 44.4643 125.772 44.362C125.836 44.3053 125.923 44.2486 126.028 44.209C126.132 44.1693 126.22 44.16 126.271 44.16V48.16C127.102 48.16 127.844 47.8693 128.423 47.3571C128.961 46.8813 129.265 46.2984 129.443 45.8195C129.789 44.8905 129.831 43.8843 129.831 43.31H125.831ZM126.271 44.16C126.326 44.16 126.415 44.1699 126.521 44.2101C126.627 44.2503 126.714 44.3073 126.777 44.3634C126.891 44.4645 126.89 44.5259 126.851 44.4194C126.814 44.3211 126.775 44.162 126.747 43.9431C126.721 43.7312 126.711 43.5103 126.711 43.31H122.711C122.711 43.891 122.757 44.8955 123.105 45.8231C123.284 46.3004 123.588 46.8812 124.122 47.3556C124.698 47.8666 125.439 48.16 126.271 48.16V44.16ZM126.711 43.31C126.711 43.1066 126.721 42.8844 126.746 42.6721C126.773 42.4525 126.812 42.2941 126.848 42.197C126.887 42.0921 126.887 42.1557 126.771 42.258C126.707 42.3147 126.62 42.3714 126.515 42.411C126.411 42.4507 126.323 42.46 126.271 42.46V38.46C125.441 38.46 124.699 38.7507 124.12 39.2629C123.582 39.7387 123.278 40.3216 123.1 40.8005C122.754 41.7295 122.711 42.7357 122.711 43.31H126.711ZM126.271 42.46C126.22 42.46 126.132 42.4507 126.028 42.411C125.923 42.3714 125.836 42.3147 125.772 42.258C125.656 42.1557 125.656 42.0921 125.695 42.197C125.731 42.2941 125.77 42.4525 125.796 42.6721C125.822 42.8844 125.831 43.1066 125.831 43.31H129.831C129.831 42.7357 129.789 41.7295 129.443 40.8005C129.265 40.3216 128.961 39.7387 128.423 39.2629C127.844 38.7507 127.102 38.46 126.271 38.46V42.46ZM136.729 43.31C136.729 42.2761 136.552 40.9458 135.904 39.7989C135.189 38.5342 133.899 37.53 132.029 37.53V41.53C132.203 41.53 132.257 41.5683 132.265 41.5729C132.283 41.5847 132.343 41.6282 132.421 41.7661C132.601 42.0842 132.729 42.6439 132.729 43.31H136.729ZM132.029 37.53C130.189 37.53 128.898 38.5038 128.175 39.7664C127.521 40.9101 127.339 42.2456 127.339 43.31H131.339C131.339 42.6144 131.471 42.0599 131.647 41.7536C131.722 41.6216 131.779 41.5817 131.795 41.5715C131.802 41.5676 131.856 41.53 132.029 41.53V37.53ZM127.339 43.31C127.339 44.3744 127.521 45.7088 128.177 46.8512C128.902 48.1133 130.193 49.08 132.029 49.08V45.08C131.854 45.08 131.799 45.042 131.792 45.038C131.776 45.028 131.72 44.9889 131.645 44.8588C131.471 44.5562 131.339 44.0056 131.339 43.31H127.339ZM132.029 49.08C133.862 49.08 135.155 48.1151 135.883 46.8557C136.543 45.7137 136.729 44.3787 136.729 43.31H132.729C132.729 44.0013 132.594 44.5513 132.419 44.8543C132.344 44.985 132.287 45.0255 132.269 45.0367C132.26 45.042 132.203 45.08 132.029 45.08V49.08ZM131.589 43.31C131.589 43.5134 131.579 43.7356 131.554 43.9479C131.527 44.1675 131.488 44.3259 131.452 44.423C131.413 44.5279 131.413 44.4643 131.529 44.362C131.593 44.3053 131.68 44.2486 131.785 44.209C131.89 44.1693 131.977 44.16 132.029 44.16V48.16C132.859 48.16 133.601 47.8693 134.18 47.3571C134.718 46.8813 135.022 46.2984 135.2 45.8195C135.546 44.8905 135.589 43.8843 135.589 43.31H131.589ZM132.029 44.16C132.083 44.16 132.172 44.1699 132.278 44.2101C132.384 44.2503 132.471 44.3073 132.534 44.3634C132.648 44.4645 132.647 44.5259 132.608 44.4194C132.571 44.3211 132.532 44.162 132.504 43.9431C132.478 43.7312 132.469 43.5103 132.469 43.31H128.469C128.469 43.891 128.514 44.8955 128.862 45.8231C129.041 46.3004 129.345 46.8812 129.88 47.3556C130.456 47.8666 131.196 48.16 132.029 48.16V44.16ZM132.469 43.31C132.469 43.1066 132.478 42.8844 132.504 42.6721C132.53 42.4525 132.569 42.2941 132.605 42.197C132.644 42.0921 132.644 42.1557 132.528 42.258C132.464 42.3147 132.377 42.3714 132.272 42.411C132.168 42.4507 132.08 42.46 132.029 42.46V38.46C131.198 38.46 130.456 38.7507 129.877 39.2629C129.339 39.7387 129.035 40.3216 128.857 40.8005C128.511 41.7295 128.469 42.7357 128.469 43.31H132.469ZM132.029 42.46C131.977 42.46 131.89 42.4507 131.785 42.411C131.68 42.3714 131.593 42.3147 131.529 42.258C131.413 42.1557 131.413 42.0921 131.452 42.197C131.488 42.2941 131.527 42.4525 131.554 42.6721C131.579 42.8844 131.589 43.1066 131.589 43.31H135.589C135.589 42.7357 135.546 41.7295 135.2 40.8005C135.022 40.3216 134.718 39.7387 134.18 39.2629C133.601 38.7507 132.859 38.46 132.029 38.46V42.46Z" fill="white"/>
<path d="M119.124 42.04L120.324 41.03C120.314 41.2 120.314 41.37 120.314 41.53V46.04H118.774V47H122.804V46.04H121.414V39.59H120.514L118.514 41.3L119.124 42.04ZM128.971 43.31C128.971 41.61 128.361 39.53 126.271 39.53C124.211 39.53 123.581 41.55 123.581 43.31C123.581 45.07 124.211 47.08 126.271 47.08C128.331 47.08 128.971 45.07 128.971 43.31ZM127.831 43.31C127.831 44.34 127.651 46.16 126.271 46.16C124.901 46.16 124.711 44.34 124.711 43.31C124.711 42.28 124.891 40.46 126.271 40.46C127.651 40.46 127.831 42.28 127.831 43.31ZM134.729 43.31C134.729 41.61 134.119 39.53 132.029 39.53C129.969 39.53 129.339 41.55 129.339 43.31C129.339 45.07 129.969 47.08 132.029 47.08C134.089 47.08 134.729 45.07 134.729 43.31ZM133.589 43.31C133.589 44.34 133.409 46.16 132.029 46.16C130.659 46.16 130.469 44.34 130.469 43.31C130.469 42.28 130.649 40.46 132.029 40.46C133.409 40.46 133.589 42.28 133.589 43.31Z" fill="#999999"/>
<path d="M112.948 7.7L113.443 6.765C111.485 6.413 109.89 4.884 109.89 3.3V2.552H108.691V3.3C108.691 4.851 107.096 6.413 105.138 6.765L105.622 7.7C107.239 7.381 108.636 6.325 109.285 4.972C109.934 6.325 111.331 7.381 112.948 7.7ZM113.828 9.636H104.83V10.571H113.828V9.636ZM121.561 5.599L115.5 5.83L115.643 6.754L121.506 6.457C121.451 7.205 121.341 7.964 121.132 8.855L122.254 8.954C122.694 6.875 122.694 5.5 122.694 4.059V2.86H115.775V3.773H121.583V4.059C121.583 4.576 121.594 5.071 121.561 5.599ZM123.706 9.625H114.73V10.56H123.706V9.625ZM132.813 1.914H131.68V7.403H132.813V1.914ZM130.778 6.919L130.646 5.995C129.205 6.226 127.973 6.292 126.257 6.292V5.192H129.656V2.376H125.113V3.3H128.545V4.334H125.135V7.216H125.971C127.874 7.216 129.227 7.183 130.778 6.919ZM131.691 7.865V8.888H127.434V7.865H126.301V11.726H132.813V7.865H131.691ZM131.691 9.779V10.813H127.434V9.779H131.691ZM142.525 8.074V7.161H136.794V5.797H142.228V4.906H136.794V3.63H142.448V2.717H135.639V8.074H142.525ZM143.537 9.702H134.528V10.626H143.537V9.702Z" fill="#999999"/>
<path d="M32.2732 62.914H31.1402V65.4H29.3032C29.0942 64.245 28.0712 63.453 26.7622 63.453C25.2992 63.453 24.1772 64.454 24.1772 65.862C24.1772 67.281 25.2992 68.293 26.7622 68.293C28.0712 68.293 29.0942 67.501 29.3032 66.324H31.1402V68.788H32.2732V62.914ZM26.7622 67.325C25.9152 67.325 25.2662 66.742 25.2662 65.862C25.2662 65.004 25.9152 64.41 26.7622 64.41C27.6092 64.41 28.2692 65.004 28.2692 65.862C28.2692 66.742 27.6092 67.325 26.7622 67.325ZM25.5742 69.294V70.207H31.1402V72.869H32.2732V69.294H25.5742ZM41.6993 65.202H43.0743V64.267H41.6993V62.903H40.5663V68.755H41.6993V67.347H43.0743V66.412H41.6993V65.202ZM39.3563 65.851C39.3563 64.443 38.2343 63.486 36.7053 63.486C35.1983 63.486 34.0653 64.443 34.0653 65.851C34.0653 67.248 35.1983 68.227 36.7053 68.227C38.2343 68.227 39.3563 67.248 39.3563 65.851ZM35.1763 65.851C35.1763 64.993 35.8253 64.432 36.7053 64.432C37.5963 64.432 38.2453 64.971 38.2453 65.851C38.2453 66.731 37.5963 67.27 36.7053 67.27C35.8253 67.27 35.1763 66.72 35.1763 65.851ZM38.4983 69.03C36.4633 69.03 35.1873 69.756 35.1873 70.944C35.1873 72.132 36.4633 72.847 38.4983 72.847C40.5443 72.847 41.8093 72.132 41.8093 70.944C41.8093 69.756 40.5443 69.03 38.4983 69.03ZM38.4983 71.945C37.0793 71.945 36.3093 71.604 36.3093 70.944C36.3093 70.284 37.0793 69.932 38.4983 69.932C39.9173 69.932 40.6873 70.284 40.6873 70.944C40.6873 71.604 39.9173 71.945 38.4983 71.945Z" fill="#999999"/>
<path d="M217.811 55.903H216.667V59.61H214.731C214.588 57.795 213.565 56.64 212.234 56.64C210.771 56.64 209.726 58.004 209.726 60.138C209.726 62.294 210.771 63.647 212.234 63.647C213.587 63.647 214.621 62.459 214.742 60.534H216.667V65.869H217.811V55.903ZM212.234 62.635C211.387 62.635 210.804 61.733 210.804 60.138C210.804 58.587 211.387 57.663 212.234 57.663C213.114 57.663 213.675 58.587 213.675 60.138C213.675 61.733 213.114 62.635 212.234 62.635ZM228.095 55.892H227.017V59.819H226.016V56.112H224.949V65.385H226.016V60.743H227.017V65.847H228.095V55.892ZM221.902 57.08H219.669V58.004H220.945C220.857 59.841 220.505 61.447 219.394 62.943L220.274 63.449C221.616 61.612 221.902 59.335 221.902 57.08ZM224.245 57.08H222.221V58.004H223.266C223.211 59.951 222.947 61.909 221.715 63.603L222.617 64.098C224.08 61.986 224.245 59.401 224.245 57.08ZM214.049 73.841C216.216 73.841 217.591 73.148 217.591 71.971C217.591 70.794 216.216 70.079 214.049 70.079C211.882 70.079 210.507 70.794 210.507 71.971C210.507 73.148 211.882 73.841 214.049 73.841ZM214.049 70.959C215.556 70.959 216.414 71.311 216.414 71.971C216.414 72.631 215.556 72.972 214.049 72.972C212.542 72.972 211.673 72.631 211.673 71.971C211.673 71.311 212.542 70.959 214.049 70.959ZM214.61 75.403H218.537V74.49H209.55V75.403H213.477V76.404H210.628V79.726H217.448V76.404H214.61V75.403ZM216.337 77.306V78.824H211.75V77.306H216.337ZM227.644 69.903H226.511V75.909H227.644V69.903ZM225.015 75.513L225.587 74.633C224.058 74.138 223.156 72.928 223.156 71.652V71.465H225.279V70.552H219.845V71.465H222.001V71.652C222.001 72.983 221.11 74.281 219.537 74.809L220.131 75.7C221.319 75.271 222.155 74.457 222.595 73.401C223.035 74.38 223.871 75.15 225.015 75.513ZM220.945 76.404V77.317H226.511V79.847H227.644V76.404H220.945ZM237.543 69.925H236.41V75.579H237.543V69.925ZM232.186 70.409C230.657 70.409 229.546 71.366 229.546 72.752C229.546 74.138 230.657 75.095 232.186 75.095C233.704 75.095 234.815 74.138 234.815 72.752C234.815 71.366 233.704 70.409 232.186 70.409ZM232.186 71.344C233.066 71.344 233.715 71.905 233.715 72.752C233.715 73.61 233.066 74.16 232.186 74.16C231.295 74.16 230.657 73.632 230.657 72.752C230.657 71.905 231.295 71.344 232.186 71.344ZM237.543 76.074H231.042V79.726H237.543V76.074ZM232.153 76.976H236.432V78.824H232.153V76.976Z" fill="#999999"/>
<path d="M33.0542 192.768H30.6232V190.634H32.2182V189.721H30.7882V186.685H32.2512V185.772H24.7822V186.685H26.2452V189.721H24.8152V190.634H26.4102V192.768H24.0452V193.703H33.0542V192.768ZM27.3782 189.721V186.685H29.6662V189.721H27.3782ZM27.5432 192.768V190.634H29.5012V192.768H27.5432ZM41.0393 187.411H39.2793V188.335H41.0393V190.832H42.1723V184.914H41.0393V187.411ZM39.2903 190.513L39.8513 189.622C38.3553 189.094 37.5193 187.895 37.5193 186.63V186.498H39.5873V185.585H34.2743V186.498H36.3753V186.641C36.3753 188.005 35.4843 189.325 33.9443 189.875L34.5273 190.777C35.7153 190.348 36.5403 189.49 36.9803 188.39C37.4093 189.358 38.1903 190.128 39.2903 190.513ZM38.8723 191.096C36.7933 191.096 35.5173 191.789 35.5173 192.977C35.5173 194.165 36.7933 194.858 38.8723 194.858C40.9403 194.858 42.2163 194.165 42.2163 192.977C42.2163 191.789 40.9403 191.096 38.8723 191.096ZM38.8723 193.978C37.4533 193.978 36.6503 193.637 36.6503 192.977C36.6503 192.317 37.4533 191.976 38.8723 191.976C40.2913 191.976 41.0833 192.317 41.0833 192.977C41.0833 193.637 40.2913 193.978 38.8723 193.978Z" fill="#999999"/>
<path d="M217.425 186.762V186.817C217.425 187.994 217.425 189.413 217.04 191.36L218.184 191.481C218.569 189.424 218.569 188.038 218.569 186.817V185.838H211.496V186.762H217.425ZM219.537 192.614H215.049V189.116H213.905V192.614H210.561V193.549H219.537V192.614ZM228.908 184.914H227.83V188.797H226.697V185.178H225.63V194.385H226.697V189.721H227.83V194.847H228.908V184.914ZM224.728 186.168H220.823V187.092H223.606C223.463 189.05 222.572 190.733 220.405 191.965L221.065 192.768C223.848 191.151 224.728 188.808 224.728 186.168ZM239.522 188.28V187.345H238.114V184.903H236.981V190.711H238.114V188.28H239.522ZM235.375 185.508H230.755V186.421H234.176C233.967 187.972 232.669 189.149 230.282 189.765L230.744 190.656C233.67 189.864 235.375 188.082 235.375 185.508ZM231.58 191.151V192.064H236.981V194.858H238.114V191.151H231.58ZM249.256 192.724H245.307V190.381H248.244V189.468H242.491V186.575H248.156V185.662H241.358V190.381H244.174V192.724H240.258V193.659H249.256V192.724Z" fill="#999999"/>
<path d="M113.003 232.903H111.859V242.869H113.003V232.903ZM108.493 235.367V233.739H107.36V235.367C107.36 237.27 106.326 239.195 104.742 239.899L105.413 240.845C106.612 240.262 107.492 239.107 107.943 237.644C108.394 239.019 109.263 240.086 110.407 240.625L111.067 239.723C109.505 239.019 108.493 237.204 108.493 235.367ZM121.825 236.082V240.306H122.958V232.914H121.825V235.147H119.812V236.082H121.825ZM119.988 238.744L120.593 237.864C119.108 237.336 118.272 236.016 118.272 234.696V233.519H117.117V234.674C117.117 236.148 116.259 237.534 114.708 238.095L115.313 238.975C116.457 238.535 117.282 237.655 117.722 236.544C118.151 237.556 118.921 238.348 119.988 238.744ZM123.189 241.736H117.634V239.525H116.49V242.66H123.189V241.736ZM132.45 237.248V233.222H131.328V234.377H126.906V233.222H125.784V237.248H132.45ZM131.328 235.246V236.357H126.906V235.246H131.328ZM133.627 238.084H124.618V238.997H128.644V240.768H129.777V238.997H133.627V238.084ZM126.851 241.736V239.943H125.718V242.66H132.626V241.736H126.851ZM143.537 240.735H139.566V238.689H142.712V237.776H141.271V234.718H142.734V233.805H135.265V234.718H136.728V237.776H135.298V238.689H138.433V240.735H134.517V241.67H143.537V240.735ZM137.861 237.776V234.718H140.149V237.776H137.861Z" fill="#999999"/>
</svg>
