<svg width="225" height="190" viewBox="0 0 225 190" fill="none" xmlns="http://www.w3.org/2000/svg">
<circle cx="103" cy="98" r="91" stroke="#EBEBEB" stroke-linecap="round" stroke-linejoin="round" stroke-dasharray="1 3"/>
<circle cx="103" cy="98" r="61" fill="white" fill-opacity="0.2" stroke="#EBEBEB" stroke-linecap="round" stroke-linejoin="round" stroke-dasharray="1 3"/>
<circle cx="103" cy="98" r="31" fill="white" fill-opacity="0.2" stroke="#EBEBEB" stroke-linecap="round" stroke-linejoin="round" stroke-dasharray="1 3"/>
<path d="M103 6V189" stroke="#EBEBEB"/>
<path d="M182 52L24.3834 143" stroke="#EBEBEB" stroke-width="0.8"/>
<path d="M24 52L181.617 143" stroke="#EBEBEB" stroke-width="0.8"/>
<path d="M105.67 97.31C105.67 95.61 105.06 93.53 102.97 93.53C100.91 93.53 100.28 95.55 100.28 97.31C100.28 99.07 100.91 101.08 102.97 101.08C105.03 101.08 105.67 99.07 105.67 97.31ZM104.53 97.31C104.53 98.34 104.35 100.16 102.97 100.16C101.6 100.16 101.41 98.34 101.41 97.31C101.41 96.28 101.59 94.46 102.97 94.46C104.35 94.46 104.53 96.28 104.53 97.31Z" fill="#999999"/>
<path d="M107.67 97.31C107.67 96.2761 107.493 94.9458 106.845 93.7989C106.131 92.5342 104.84 91.53 102.97 91.53V95.53C103.144 95.53 103.199 95.5683 103.206 95.5729C103.225 95.5847 103.284 95.6282 103.362 95.7661C103.542 96.0842 103.67 96.6439 103.67 97.31H107.67ZM102.97 91.53C101.13 91.53 99.8395 92.5038 99.1168 93.7664C98.4621 94.9101 98.28 96.2456 98.28 97.31H102.28C102.28 96.6144 102.413 96.0599 102.588 95.7536C102.664 95.6216 102.72 95.5817 102.737 95.5715C102.743 95.5676 102.797 95.53 102.97 95.53V91.53ZM98.28 97.31C98.28 98.3744 98.4621 99.7088 99.1182 100.851C99.8432 102.113 101.135 103.08 102.97 103.08V99.08C102.795 99.08 102.74 99.042 102.733 99.038C102.717 99.028 102.661 98.9889 102.587 98.8588C102.413 98.5562 102.28 98.0056 102.28 97.31H98.28ZM102.97 103.08C104.804 103.08 106.096 102.115 106.824 100.856C107.484 99.7137 107.67 98.3787 107.67 97.31H103.67C103.67 98.0013 103.536 98.5513 103.361 98.8543C103.285 98.985 103.228 99.0255 103.21 99.0367C103.202 99.042 103.145 99.08 102.97 99.08V103.08ZM102.53 97.31C102.53 97.5134 102.521 97.7356 102.495 97.9479C102.468 98.1675 102.43 98.3259 102.393 98.423C102.354 98.5279 102.355 98.4643 102.47 98.362C102.534 98.3053 102.621 98.2486 102.726 98.209C102.831 98.1693 102.918 98.16 102.97 98.16V102.16C103.801 102.16 104.543 101.869 105.122 101.357C105.659 100.881 105.963 100.298 106.142 99.8195C106.488 98.8905 106.53 97.8843 106.53 97.31H102.53ZM102.97 98.16C103.025 98.16 103.114 98.1699 103.22 98.2101C103.326 98.2503 103.412 98.3073 103.476 98.3634C103.589 98.4645 103.589 98.5259 103.549 98.4194C103.512 98.3211 103.473 98.162 103.446 97.9431C103.419 97.7312 103.41 97.5103 103.41 97.31H99.41C99.41 97.891 99.4558 98.8955 99.8034 99.8231C99.9823 100.3 100.286 100.881 100.821 101.356C101.397 101.867 102.138 102.16 102.97 102.16V98.16ZM103.41 97.31C103.41 97.1066 103.419 96.8844 103.445 96.6721C103.472 96.4525 103.51 96.2941 103.547 96.197C103.586 96.0921 103.585 96.1557 103.47 96.258C103.406 96.3147 103.319 96.3714 103.214 96.411C103.109 96.4507 103.022 96.46 102.97 96.46V92.46C102.139 92.46 101.397 92.7507 100.818 93.2629C100.281 93.7387 99.9768 94.3216 99.7984 94.8005C99.4522 95.7295 99.41 96.7357 99.41 97.31H103.41ZM102.97 96.46C102.918 96.46 102.831 96.4507 102.726 96.411C102.621 96.3714 102.534 96.3147 102.47 96.258C102.355 96.1557 102.354 96.0921 102.393 96.197C102.43 96.2941 102.468 96.4525 102.495 96.6721C102.521 96.8844 102.53 97.1066 102.53 97.31H106.53C106.53 96.7357 106.488 95.7295 106.142 94.8005C105.963 94.3216 105.659 93.7387 105.122 93.2629C104.543 92.7507 103.801 92.46 102.97 92.46V96.46Z" fill="white"/>
<path d="M95.8445 5.04L97.0445 4.03C97.0345 4.2 97.0345 4.37 97.0345 4.53V9.04H95.4945V10H99.5245V9.04H98.1345V2.59H97.2345L95.2345 4.3L95.8445 5.04ZM105.691 6.31C105.691 4.61 105.081 2.53 102.991 2.53C100.931 2.53 100.301 4.55 100.301 6.31C100.301 8.07 100.931 10.08 102.991 10.08C105.051 10.08 105.691 8.07 105.691 6.31ZM104.551 6.31C104.551 7.34 104.371 9.16 102.991 9.16C101.621 9.16 101.431 7.34 101.431 6.31C101.431 5.28 101.611 3.46 102.991 3.46C104.371 3.46 104.551 5.28 104.551 6.31ZM111.449 6.31C111.449 4.61 110.839 2.53 108.749 2.53C106.689 2.53 106.059 4.55 106.059 6.31C106.059 8.07 106.689 10.08 108.749 10.08C110.809 10.08 111.449 8.07 111.449 6.31ZM110.309 6.31C110.309 7.34 110.129 9.16 108.749 9.16C107.379 9.16 107.189 7.34 107.189 6.31C107.189 5.28 107.369 3.46 108.749 3.46C110.129 3.46 110.309 5.28 110.309 6.31Z" fill="#999999"/>
<path d="M95.8445 5.04L94.3012 6.31214L95.5864 7.87129L97.1323 6.57015L95.8445 5.04ZM97.0445 4.03L99.041 4.14745L99.3141 -0.494365L95.7566 2.49985L97.0445 4.03ZM97.0345 9.04V11.04H99.0345V9.04H97.0345ZM95.4945 9.04V7.04H93.4945V9.04H95.4945ZM95.4945 10H93.4945V12H95.4945V10ZM99.5245 10V12H101.524V10H99.5245ZM99.5245 9.04H101.524V7.04H99.5245V9.04ZM98.1345 9.04H96.1345V11.04H98.1345V9.04ZM98.1345 2.59H100.134V0.589999H98.1345V2.59ZM97.2345 2.59V0.589999H96.496L95.9347 1.06988L97.2345 2.59ZM95.2345 4.3L93.9347 2.77988L92.4417 4.05641L93.6912 5.57214L95.2345 4.3ZM97.1323 6.57015L98.3323 5.56015L95.7566 2.49985L94.5566 3.50985L97.1323 6.57015ZM95.0479 3.91255C95.0339 4.15069 95.0345 4.37887 95.0345 4.53H99.0345C99.0345 4.36113 99.035 4.24931 99.041 4.14745L95.0479 3.91255ZM95.0345 4.53V9.04H99.0345V4.53H95.0345ZM97.0345 7.04H95.4945V11.04H97.0345V7.04ZM93.4945 9.04V10H97.4945V9.04H93.4945ZM95.4945 12H99.5245V8H95.4945V12ZM101.524 10V9.04H97.5245V10H101.524ZM99.5245 7.04H98.1345V11.04H99.5245V7.04ZM100.134 9.04V2.59H96.1345V9.04H100.134ZM98.1345 0.589999H97.2345V4.59H98.1345V0.589999ZM95.9347 1.06988L93.9347 2.77988L96.5342 5.82012L98.5342 4.11012L95.9347 1.06988ZM93.6912 5.57214L94.3012 6.31214L97.3877 3.76785L96.7777 3.02785L93.6912 5.57214ZM107.691 6.31C107.691 5.27606 107.514 3.94582 106.867 2.79887C106.152 1.53422 104.862 0.53 102.991 0.53V4.53C103.166 4.53 103.22 4.5683 103.228 4.57293C103.246 4.58467 103.306 4.62822 103.384 4.76612C103.563 5.08418 103.691 5.64394 103.691 6.31H107.691ZM102.991 0.53C101.152 0.53 99.861 1.50383 99.1382 2.76643C98.4836 3.91013 98.3015 5.24561 98.3015 6.31H102.301C102.301 5.61439 102.434 5.05987 102.61 4.75357C102.685 4.62159 102.742 4.58165 102.758 4.57151C102.765 4.5676 102.819 4.53 102.991 4.53V0.53ZM98.3015 6.31C98.3015 7.37436 98.4835 8.70877 99.1397 9.85115C99.8647 11.1133 101.156 12.08 102.991 12.08V8.08C102.817 8.08 102.761 8.04203 102.755 8.038C102.739 8.028 102.683 7.98887 102.608 7.85885C102.434 7.55623 102.301 7.00564 102.301 6.31H98.3015ZM102.991 12.08C104.825 12.08 106.118 11.1151 106.846 9.85566C107.506 8.71372 107.691 7.37867 107.691 6.31H103.691C103.691 7.00133 103.557 7.55128 103.382 7.85434C103.307 7.98496 103.25 8.02554 103.232 8.03674C103.223 8.042 103.166 8.08 102.991 8.08V12.08ZM102.551 6.31C102.551 6.51345 102.542 6.73555 102.516 6.94795C102.49 7.16746 102.451 7.32585 102.415 7.42296C102.376 7.52787 102.376 7.46431 102.492 7.36196C102.556 7.30526 102.643 7.24864 102.748 7.20895C102.852 7.16933 102.94 7.16 102.991 7.16V11.16C103.822 11.16 104.564 10.8693 105.143 10.3571C105.681 9.88131 105.985 9.29838 106.163 8.81954C106.509 7.89047 106.551 6.88432 106.551 6.31H102.551ZM102.991 7.16C103.046 7.16 103.135 7.16992 103.241 7.21013C103.347 7.25032 103.434 7.30727 103.497 7.36343C103.611 7.46446 103.61 7.52586 103.571 7.41944C103.534 7.32115 103.495 7.16199 103.467 6.94311C103.441 6.73123 103.431 6.51029 103.431 6.31H99.4315C99.4315 6.89101 99.4773 7.89552 99.8249 8.82306C100.004 9.30039 100.308 9.88116 100.842 10.3556C101.418 10.8666 102.159 11.16 102.991 11.16V7.16ZM103.431 6.31C103.431 6.10655 103.441 5.88445 103.466 5.67205C103.493 5.45254 103.532 5.29414 103.568 5.19704C103.607 5.09213 103.607 5.15569 103.491 5.25804C103.427 5.31474 103.34 5.37136 103.235 5.41105C103.131 5.45067 103.043 5.46 102.991 5.46V1.46C102.161 1.46 101.419 1.75072 100.84 2.2629C100.302 2.73869 99.9983 3.32162 99.8198 3.80046C99.4737 4.72953 99.4315 5.73567 99.4315 6.31H103.431ZM102.991 5.46C102.94 5.46 102.852 5.45067 102.748 5.41105C102.643 5.37136 102.556 5.31474 102.492 5.25804C102.376 5.15569 102.376 5.09213 102.415 5.19704C102.451 5.29414 102.49 5.45254 102.516 5.67205C102.542 5.88445 102.551 6.10655 102.551 6.31H106.551C106.551 5.73567 106.509 4.72953 106.163 3.80046C105.985 3.32162 105.681 2.73869 105.143 2.2629C104.564 1.75072 103.822 1.46 102.991 1.46V5.46ZM113.449 6.31C113.449 5.27606 113.272 3.94582 112.624 2.79887C111.909 1.53422 110.619 0.53 108.749 0.53V4.53C108.923 4.53 108.977 4.5683 108.985 4.57293C109.003 4.58467 109.063 4.62822 109.141 4.76612C109.321 5.08418 109.449 5.64394 109.449 6.31H113.449ZM108.749 0.53C106.909 0.53 105.618 1.50383 104.895 2.76643C104.241 3.91013 104.059 5.24561 104.059 6.31H108.059C108.059 5.61439 108.191 5.05987 108.367 4.75357C108.442 4.62159 108.499 4.58165 108.515 4.57151C108.522 4.5676 108.576 4.53 108.749 4.53V0.53ZM104.059 6.31C104.059 7.37436 104.241 8.70877 104.897 9.85115C105.622 11.1133 106.913 12.08 108.749 12.08V8.08C108.574 8.08 108.519 8.04203 108.512 8.038C108.496 8.028 108.44 7.98887 108.365 7.85885C108.191 7.55623 108.059 7.00564 108.059 6.31H104.059ZM108.749 12.08C110.582 12.08 111.875 11.1151 112.603 9.85566C113.263 8.71372 113.449 7.37867 113.449 6.31H109.449C109.449 7.00133 109.314 7.55128 109.139 7.85434C109.064 7.98496 109.007 8.02554 108.989 8.03674C108.98 8.042 108.923 8.08 108.749 8.08V12.08ZM108.309 6.31C108.309 6.51345 108.299 6.73555 108.274 6.94795C108.247 7.16746 108.208 7.32585 108.172 7.42296C108.133 7.52787 108.133 7.46431 108.249 7.36196C108.313 7.30526 108.4 7.24864 108.505 7.20895C108.609 7.16933 108.697 7.16 108.749 7.16V11.16C109.579 11.16 110.321 10.8693 110.9 10.3571C111.438 9.88131 111.742 9.29838 111.92 8.81954C112.266 7.89047 112.309 6.88432 112.309 6.31H108.309ZM108.749 7.16C108.803 7.16 108.892 7.16992 108.998 7.21013C109.104 7.25032 109.191 7.30727 109.254 7.36343C109.368 7.46446 109.367 7.52586 109.328 7.41944C109.291 7.32115 109.252 7.16199 109.224 6.94311C109.198 6.73123 109.189 6.51029 109.189 6.31H105.189C105.189 6.89101 105.234 7.89552 105.582 8.82306C105.761 9.30039 106.065 9.88116 106.6 10.3556C107.176 10.8666 107.916 11.16 108.749 11.16V7.16ZM109.189 6.31C109.189 6.10655 109.198 5.88445 109.224 5.67205C109.25 5.45254 109.289 5.29414 109.325 5.19704C109.364 5.09213 109.364 5.15569 109.248 5.25804C109.184 5.31474 109.097 5.37136 108.992 5.41105C108.888 5.45067 108.8 5.46 108.749 5.46V1.46C107.918 1.46 107.176 1.75072 106.597 2.2629C106.059 2.73869 105.755 3.32162 105.577 3.80046C105.231 4.72953 105.189 5.73567 105.189 6.31H109.189ZM108.749 5.46C108.697 5.46 108.609 5.45067 108.505 5.41105C108.4 5.37136 108.313 5.31474 108.249 5.25804C108.133 5.15569 108.133 5.09213 108.172 5.19704C108.208 5.29414 108.247 5.45254 108.274 5.67205C108.299 5.88445 108.309 6.10655 108.309 6.31H112.309C112.309 5.73567 112.266 4.72953 111.92 3.80046C111.742 3.32162 111.438 2.73869 110.9 2.2629C110.321 1.75072 109.579 1.46 108.749 1.46V5.46Z" fill="white"/>
<path d="M91.7707 182.7L92.2657 181.765C90.3077 181.413 88.7127 179.884 88.7127 178.3V177.552H87.5137V178.3C87.5137 179.851 85.9187 181.413 83.9607 181.765L84.4447 182.7C86.0617 182.381 87.4587 181.325 88.1077 179.972C88.7567 181.325 90.1537 182.381 91.7707 182.7ZM92.6507 184.636H83.6527V185.571H92.6507V184.636ZM100.383 180.599L94.3219 180.83L94.4649 181.754L100.328 181.457C100.273 182.205 100.163 182.964 99.9539 183.855L101.076 183.954C101.516 181.875 101.516 180.5 101.516 179.059V177.86H94.5969V178.773H100.405V179.059C100.405 179.576 100.416 180.071 100.383 180.599ZM102.528 184.625H93.5519V185.56H102.528V184.625ZM111.635 176.914H110.502V182.403H111.635V176.914ZM109.6 181.919L109.468 180.995C108.027 181.226 106.795 181.292 105.079 181.292V180.192H108.478V177.376H103.935V178.3H107.367V179.334H103.957V182.216H104.793C106.696 182.216 108.049 182.183 109.6 181.919ZM110.513 182.865V183.888H106.256V182.865H105.123V186.726H111.635V182.865H110.513ZM110.513 184.779V185.813H106.256V184.779H110.513ZM121.347 183.074V182.161H115.616V180.797H121.05V179.906H115.616V178.63H121.27V177.717H114.461V183.074H121.347ZM122.359 184.702H113.35V185.626H122.359V184.702Z" fill="#999999"/>
<path d="M9.27986 176.914H8.14686V179.4H6.30986C6.10086 178.245 5.07786 177.453 3.76886 177.453C2.30586 177.453 1.18386 178.454 1.18386 179.862C1.18386 181.281 2.30586 182.293 3.76886 182.293C5.07786 182.293 6.10086 181.501 6.30986 180.324H8.14686V182.788H9.27986V176.914ZM3.76886 181.325C2.92186 181.325 2.27286 180.742 2.27286 179.862C2.27286 179.004 2.92186 178.41 3.76886 178.41C4.61586 178.41 5.27586 179.004 5.27586 179.862C5.27586 180.742 4.61586 181.325 3.76886 181.325ZM2.58086 183.294V184.207H8.14686V186.869H9.27986V183.294H2.58086ZM18.706 179.202H20.081V178.267H18.706V176.903H17.573V182.755H18.706V181.347H20.081V180.412H18.706V179.202ZM16.363 179.851C16.363 178.443 15.241 177.486 13.712 177.486C12.205 177.486 11.072 178.443 11.072 179.851C11.072 181.248 12.205 182.227 13.712 182.227C15.241 182.227 16.363 181.248 16.363 179.851ZM12.183 179.851C12.183 178.993 12.832 178.432 13.712 178.432C14.603 178.432 15.252 178.971 15.252 179.851C15.252 180.731 14.603 181.27 13.712 181.27C12.832 181.27 12.183 180.72 12.183 179.851ZM15.505 183.03C13.47 183.03 12.194 183.756 12.194 184.944C12.194 186.132 13.47 186.847 15.505 186.847C17.551 186.847 18.816 186.132 18.816 184.944C18.816 183.756 17.551 183.03 15.505 183.03ZM15.505 185.945C14.086 185.945 13.316 185.604 13.316 184.944C13.316 184.284 14.086 183.932 15.505 183.932C16.924 183.932 17.694 184.284 17.694 184.944C17.694 185.604 16.924 185.945 15.505 185.945Z" fill="#999999"/>
<path d="M192.811 162.903H191.667V166.61H189.731C189.588 164.795 188.565 163.64 187.234 163.64C185.771 163.64 184.726 165.004 184.726 167.138C184.726 169.294 185.771 170.647 187.234 170.647C188.587 170.647 189.621 169.459 189.742 167.534H191.667V172.869H192.811V162.903ZM187.234 169.635C186.387 169.635 185.804 168.733 185.804 167.138C185.804 165.587 186.387 164.663 187.234 164.663C188.114 164.663 188.675 165.587 188.675 167.138C188.675 168.733 188.114 169.635 187.234 169.635ZM203.095 162.892H202.017V166.819H201.016V163.112H199.949V172.385H201.016V167.743H202.017V172.847H203.095V162.892ZM196.902 164.08H194.669V165.004H195.945C195.857 166.841 195.505 168.447 194.394 169.943L195.274 170.449C196.616 168.612 196.902 166.335 196.902 164.08ZM199.245 164.08H197.221V165.004H198.266C198.211 166.951 197.947 168.909 196.715 170.603L197.617 171.098C199.08 168.986 199.245 166.401 199.245 164.08ZM189.049 180.841C191.216 180.841 192.591 180.148 192.591 178.971C192.591 177.794 191.216 177.079 189.049 177.079C186.882 177.079 185.507 177.794 185.507 178.971C185.507 180.148 186.882 180.841 189.049 180.841ZM189.049 177.959C190.556 177.959 191.414 178.311 191.414 178.971C191.414 179.631 190.556 179.972 189.049 179.972C187.542 179.972 186.673 179.631 186.673 178.971C186.673 178.311 187.542 177.959 189.049 177.959ZM189.61 182.403H193.537V181.49H184.55V182.403H188.477V183.404H185.628V186.726H192.448V183.404H189.61V182.403ZM191.337 184.306V185.824H186.75V184.306H191.337ZM202.644 176.903H201.511V182.909H202.644V176.903ZM200.015 182.513L200.587 181.633C199.058 181.138 198.156 179.928 198.156 178.652V178.465H200.279V177.552H194.845V178.465H197.001V178.652C197.001 179.983 196.11 181.281 194.537 181.809L195.131 182.7C196.319 182.271 197.155 181.457 197.595 180.401C198.035 181.38 198.871 182.15 200.015 182.513ZM195.945 183.404V184.317H201.511V186.847H202.644V183.404H195.945ZM212.543 176.925H211.41V182.579H212.543V176.925ZM207.186 177.409C205.657 177.409 204.546 178.366 204.546 179.752C204.546 181.138 205.657 182.095 207.186 182.095C208.704 182.095 209.815 181.138 209.815 179.752C209.815 178.366 208.704 177.409 207.186 177.409ZM207.186 178.344C208.066 178.344 208.715 178.905 208.715 179.752C208.715 180.61 208.066 181.16 207.186 181.16C206.295 181.16 205.657 180.632 205.657 179.752C205.657 178.905 206.295 178.344 207.186 178.344ZM212.543 183.074H206.042V186.726H212.543V183.074ZM207.153 183.976H211.432V185.824H207.153V183.976Z" fill="#999999"/>
<path d="M10.0609 184.768H7.62986V182.634H9.22486V181.721H7.79486V178.685H9.25786V177.772H1.78886V178.685H3.25186V181.721H1.82186V182.634H3.41686V184.768H1.05186V185.703H10.0609V184.768ZM4.38486 181.721V178.685H6.67286V181.721H4.38486ZM4.54986 184.768V182.634H6.50786V184.768H4.54986ZM18.046 179.411H16.286V180.335H18.046V182.832H19.179V176.914H18.046V179.411ZM16.297 182.513L16.858 181.622C15.362 181.094 14.526 179.895 14.526 178.63V178.498H16.594V177.585H11.281V178.498H13.382V178.641C13.382 180.005 12.491 181.325 10.951 181.875L11.534 182.777C12.722 182.348 13.547 181.49 13.987 180.39C14.416 181.358 15.197 182.128 16.297 182.513ZM15.879 183.096C13.8 183.096 12.524 183.789 12.524 184.977C12.524 186.165 13.8 186.858 15.879 186.858C17.947 186.858 19.223 186.165 19.223 184.977C19.223 183.789 17.947 183.096 15.879 183.096ZM15.879 185.978C14.46 185.978 13.657 185.637 13.657 184.977C13.657 184.317 14.46 183.976 15.879 183.976C17.298 183.976 18.09 184.317 18.09 184.977C18.09 185.637 17.298 185.978 15.879 185.978Z" fill="#999999"/>
<path d="M192.425 178.762V178.817C192.425 179.994 192.425 181.413 192.04 183.36L193.184 183.481C193.569 181.424 193.569 180.038 193.569 178.817V177.838H186.496V178.762H192.425ZM194.537 184.614H190.049V181.116H188.905V184.614H185.561V185.549H194.537V184.614ZM203.908 176.914H202.83V180.797H201.697V177.178H200.63V186.385H201.697V181.721H202.83V186.847H203.908V176.914ZM199.728 178.168H195.823V179.092H198.606C198.463 181.05 197.572 182.733 195.405 183.965L196.065 184.768C198.848 183.151 199.728 180.808 199.728 178.168ZM214.522 180.28V179.345H213.114V176.903H211.981V182.711H213.114V180.28H214.522ZM210.375 177.508H205.755V178.421H209.176C208.967 179.972 207.669 181.149 205.282 181.765L205.744 182.656C208.67 181.864 210.375 180.082 210.375 177.508ZM206.58 183.151V184.064H211.981V186.858H213.114V183.151H206.58ZM224.256 184.724H220.307V182.381H223.244V181.468H217.491V178.575H223.156V177.662H216.358V182.381H219.174V184.724H215.258V185.659H224.256V184.724Z" fill="#999999"/>
<path d="M91.8257 176.903H90.6817V186.869H91.8257V176.903ZM87.3157 179.367V177.739H86.1827V179.367C86.1827 181.27 85.1487 183.195 83.5647 183.899L84.2357 184.845C85.4347 184.262 86.3147 183.107 86.7657 181.644C87.2167 183.019 88.0857 184.086 89.2297 184.625L89.8897 183.723C88.3277 183.019 87.3157 181.204 87.3157 179.367ZM100.647 180.082V184.306H101.78V176.914H100.647V179.147H98.6339V180.082H100.647ZM98.8099 182.744L99.4149 181.864C97.9299 181.336 97.0939 180.016 97.0939 178.696V177.519H95.9389V178.674C95.9389 180.148 95.0809 181.534 93.5299 182.095L94.1349 182.975C95.2789 182.535 96.1039 181.655 96.5439 180.544C96.9729 181.556 97.7429 182.348 98.8099 182.744ZM102.011 185.736H96.4559V183.525H95.3119V186.66H102.011V185.736ZM111.272 181.248V177.222H110.15V178.377H105.728V177.222H104.606V181.248H111.272ZM110.15 179.246V180.357H105.728V179.246H110.15ZM112.449 182.084H103.44V182.997H107.466V184.768H108.599V182.997H112.449V182.084ZM105.673 185.736V183.943H104.54V186.66H111.448V185.736H105.673ZM122.359 184.735H118.388V182.689H121.534V181.776H120.093V178.718H121.556V177.805H114.087V178.718H115.55V181.776H114.12V182.689H117.255V184.735H113.339V185.67H122.359V184.735ZM116.683 181.776V178.718H118.971V181.776H116.683Z" fill="#999999"/>
</svg>
