<svg width="225" height="245" viewBox="0 0 225 245" fill="none" xmlns="http://www.w3.org/2000/svg">
<circle cx="103" cy="135" r="91" stroke="#EBEBEB" stroke-linecap="round" stroke-linejoin="round" stroke-dasharray="1 3"/>
<circle cx="103" cy="135" r="61" fill="white" fill-opacity="0.2" stroke="#EBEBEB" stroke-linecap="round" stroke-linejoin="round" stroke-dasharray="1 3"/>
<circle cx="103" cy="135" r="31" fill="white" fill-opacity="0.2" stroke="#EBEBEB" stroke-linecap="round" stroke-linejoin="round" stroke-dasharray="1 3"/>
<path d="M103 43V226" stroke="#EBEBEB"/>
<path d="M182 89L24.3834 180" stroke="#EBEBEB" stroke-width="0.8"/>
<path d="M24 89L181.617 180" stroke="#EBEBEB" stroke-width="0.8"/>
<path d="M105.67 134.31C105.67 132.61 105.06 130.53 102.97 130.53C100.91 130.53 100.28 132.55 100.28 134.31C100.28 136.07 100.91 138.08 102.97 138.08C105.03 138.08 105.67 136.07 105.67 134.31ZM104.53 134.31C104.53 135.34 104.35 137.16 102.97 137.16C101.6 137.16 101.41 135.34 101.41 134.31C101.41 133.28 101.59 131.46 102.97 131.46C104.35 131.46 104.53 133.28 104.53 134.31Z" fill="#999999"/>
<path d="M95.8445 42.04L97.0445 41.03C97.0345 41.2 97.0345 41.37 97.0345 41.53V46.04H95.4945V47H99.5245V46.04H98.1345V39.59H97.2345L95.2345 41.3L95.8445 42.04ZM105.691 43.31C105.691 41.61 105.081 39.53 102.991 39.53C100.931 39.53 100.301 41.55 100.301 43.31C100.301 45.07 100.931 47.08 102.991 47.08C105.051 47.08 105.691 45.07 105.691 43.31ZM104.551 43.31C104.551 44.34 104.371 46.16 102.991 46.16C101.621 46.16 101.431 44.34 101.431 43.31C101.431 42.28 101.611 40.46 102.991 40.46C104.371 40.46 104.551 42.28 104.551 43.31ZM111.449 43.31C111.449 41.61 110.839 39.53 108.749 39.53C106.689 39.53 106.059 41.55 106.059 43.31C106.059 45.07 106.689 47.08 108.749 47.08C110.809 47.08 111.449 45.07 111.449 43.31ZM110.309 43.31C110.309 44.34 110.129 46.16 108.749 46.16C107.379 46.16 107.189 44.34 107.189 43.31C107.189 42.28 107.369 40.46 108.749 40.46C110.129 40.46 110.309 42.28 110.309 43.31Z" fill="#999999"/>
<path d="M91.7707 7.7L92.2657 6.765C90.3077 6.413 88.7127 4.884 88.7127 3.3V2.552H87.5137V3.3C87.5137 4.851 85.9187 6.413 83.9607 6.765L84.4447 7.7C86.0617 7.381 87.4587 6.325 88.1077 4.972C88.7567 6.325 90.1537 7.381 91.7707 7.7ZM92.6507 9.636H83.6527V10.571H92.6507V9.636ZM100.383 5.599L94.3219 5.83L94.4649 6.754L100.328 6.457C100.273 7.205 100.163 7.964 99.9539 8.855L101.076 8.954C101.516 6.875 101.516 5.5 101.516 4.059V2.86H94.5969V3.773H100.405V4.059C100.405 4.576 100.416 5.071 100.383 5.599ZM102.528 9.625H93.5519V10.56H102.528V9.625ZM111.635 1.914H110.502V7.403H111.635V1.914ZM109.6 6.919L109.468 5.995C108.027 6.226 106.795 6.292 105.079 6.292V5.192H108.478V2.376H103.935V3.3H107.367V4.334H103.957V7.216H104.793C106.696 7.216 108.049 7.183 109.6 6.919ZM110.513 7.865V8.888H106.256V7.865H105.123V11.726H111.635V7.865H110.513ZM110.513 9.779V10.813H106.256V9.779H110.513ZM121.347 8.074V7.161H115.616V5.797H121.05V4.906H115.616V3.63H121.27V2.717H114.461V8.074H121.347ZM122.359 9.702H113.35V10.626H122.359V9.702Z" fill="#999999"/>
<path d="M9.27986 62.914H8.14686V65.4H6.30986C6.10086 64.245 5.07786 63.453 3.76886 63.453C2.30586 63.453 1.18386 64.454 1.18386 65.862C1.18386 67.281 2.30586 68.293 3.76886 68.293C5.07786 68.293 6.10086 67.501 6.30986 66.324H8.14686V68.788H9.27986V62.914ZM3.76886 67.325C2.92186 67.325 2.27286 66.742 2.27286 65.862C2.27286 65.004 2.92186 64.41 3.76886 64.41C4.61586 64.41 5.27586 65.004 5.27586 65.862C5.27586 66.742 4.61586 67.325 3.76886 67.325ZM2.58086 69.294V70.207H8.14686V72.869H9.27986V69.294H2.58086ZM18.706 65.202H20.081V64.267H18.706V62.903H17.573V68.755H18.706V67.347H20.081V66.412H18.706V65.202ZM16.363 65.851C16.363 64.443 15.241 63.486 13.712 63.486C12.205 63.486 11.072 64.443 11.072 65.851C11.072 67.248 12.205 68.227 13.712 68.227C15.241 68.227 16.363 67.248 16.363 65.851ZM12.183 65.851C12.183 64.993 12.832 64.432 13.712 64.432C14.603 64.432 15.252 64.971 15.252 65.851C15.252 66.731 14.603 67.27 13.712 67.27C12.832 67.27 12.183 66.72 12.183 65.851ZM15.505 69.03C13.47 69.03 12.194 69.756 12.194 70.944C12.194 72.132 13.47 72.847 15.505 72.847C17.551 72.847 18.816 72.132 18.816 70.944C18.816 69.756 17.551 69.03 15.505 69.03ZM15.505 71.945C14.086 71.945 13.316 71.604 13.316 70.944C13.316 70.284 14.086 69.932 15.505 69.932C16.924 69.932 17.694 70.284 17.694 70.944C17.694 71.604 16.924 71.945 15.505 71.945Z" fill="#999999"/>
<path d="M192.811 55.903H191.667V59.61H189.731C189.588 57.795 188.565 56.64 187.234 56.64C185.771 56.64 184.726 58.004 184.726 60.138C184.726 62.294 185.771 63.647 187.234 63.647C188.587 63.647 189.621 62.459 189.742 60.534H191.667V65.869H192.811V55.903ZM187.234 62.635C186.387 62.635 185.804 61.733 185.804 60.138C185.804 58.587 186.387 57.663 187.234 57.663C188.114 57.663 188.675 58.587 188.675 60.138C188.675 61.733 188.114 62.635 187.234 62.635ZM203.095 55.892H202.017V59.819H201.016V56.112H199.949V65.385H201.016V60.743H202.017V65.847H203.095V55.892ZM196.902 57.08H194.669V58.004H195.945C195.857 59.841 195.505 61.447 194.394 62.943L195.274 63.449C196.616 61.612 196.902 59.335 196.902 57.08ZM199.245 57.08H197.221V58.004H198.266C198.211 59.951 197.947 61.909 196.715 63.603L197.617 64.098C199.08 61.986 199.245 59.401 199.245 57.08ZM189.049 73.841C191.216 73.841 192.591 73.148 192.591 71.971C192.591 70.794 191.216 70.079 189.049 70.079C186.882 70.079 185.507 70.794 185.507 71.971C185.507 73.148 186.882 73.841 189.049 73.841ZM189.049 70.959C190.556 70.959 191.414 71.311 191.414 71.971C191.414 72.631 190.556 72.972 189.049 72.972C187.542 72.972 186.673 72.631 186.673 71.971C186.673 71.311 187.542 70.959 189.049 70.959ZM189.61 75.403H193.537V74.49H184.55V75.403H188.477V76.404H185.628V79.726H192.448V76.404H189.61V75.403ZM191.337 77.306V78.824H186.75V77.306H191.337ZM202.644 69.903H201.511V75.909H202.644V69.903ZM200.015 75.513L200.587 74.633C199.058 74.138 198.156 72.928 198.156 71.652V71.465H200.279V70.552H194.845V71.465H197.001V71.652C197.001 72.983 196.11 74.281 194.537 74.809L195.131 75.7C196.319 75.271 197.155 74.457 197.595 73.401C198.035 74.38 198.871 75.15 200.015 75.513ZM195.945 76.404V77.317H201.511V79.847H202.644V76.404H195.945ZM212.543 69.925H211.41V75.579H212.543V69.925ZM207.186 70.409C205.657 70.409 204.546 71.366 204.546 72.752C204.546 74.138 205.657 75.095 207.186 75.095C208.704 75.095 209.815 74.138 209.815 72.752C209.815 71.366 208.704 70.409 207.186 70.409ZM207.186 71.344C208.066 71.344 208.715 71.905 208.715 72.752C208.715 73.61 208.066 74.16 207.186 74.16C206.295 74.16 205.657 73.632 205.657 72.752C205.657 71.905 206.295 71.344 207.186 71.344ZM212.543 76.074H206.042V79.726H212.543V76.074ZM207.153 76.976H211.432V78.824H207.153V76.976Z" fill="#999999"/>
<path d="M10.0609 192.768H7.62986V190.634H9.22486V189.721H7.79486V186.685H9.25786V185.772H1.78886V186.685H3.25186V189.721H1.82186V190.634H3.41686V192.768H1.05186V193.703H10.0609V192.768ZM4.38486 189.721V186.685H6.67286V189.721H4.38486ZM4.54986 192.768V190.634H6.50786V192.768H4.54986ZM18.046 187.411H16.286V188.335H18.046V190.832H19.179V184.914H18.046V187.411ZM16.297 190.513L16.858 189.622C15.362 189.094 14.526 187.895 14.526 186.63V186.498H16.594V185.585H11.281V186.498H13.382V186.641C13.382 188.005 12.491 189.325 10.951 189.875L11.534 190.777C12.722 190.348 13.547 189.49 13.987 188.39C14.416 189.358 15.197 190.128 16.297 190.513ZM15.879 191.096C13.8 191.096 12.524 191.789 12.524 192.977C12.524 194.165 13.8 194.858 15.879 194.858C17.947 194.858 19.223 194.165 19.223 192.977C19.223 191.789 17.947 191.096 15.879 191.096ZM15.879 193.978C14.46 193.978 13.657 193.637 13.657 192.977C13.657 192.317 14.46 191.976 15.879 191.976C17.298 191.976 18.09 192.317 18.09 192.977C18.09 193.637 17.298 193.978 15.879 193.978Z" fill="#999999"/>
<path d="M192.425 186.762V186.817C192.425 187.994 192.425 189.413 192.04 191.36L193.184 191.481C193.569 189.424 193.569 188.038 193.569 186.817V185.838H186.496V186.762H192.425ZM194.537 192.614H190.049V189.116H188.905V192.614H185.561V193.549H194.537V192.614ZM203.908 184.914H202.83V188.797H201.697V185.178H200.63V194.385H201.697V189.721H202.83V194.847H203.908V184.914ZM199.728 186.168H195.823V187.092H198.606C198.463 189.05 197.572 190.733 195.405 191.965L196.065 192.768C198.848 191.151 199.728 188.808 199.728 186.168ZM214.522 188.28V187.345H213.114V184.903H211.981V190.711H213.114V188.28H214.522ZM210.375 185.508H205.755V186.421H209.176C208.967 187.972 207.669 189.149 205.282 189.765L205.744 190.656C208.67 189.864 210.375 188.082 210.375 185.508ZM206.58 191.151V192.064H211.981V194.858H213.114V191.151H206.58ZM224.256 192.724H220.307V190.381H223.244V189.468H217.491V186.575H223.156V185.662H216.358V190.381H219.174V192.724H215.258V193.659H224.256V192.724Z" fill="#999999"/>
<path d="M91.8257 232.903H90.6817V242.869H91.8257V232.903ZM87.3157 235.367V233.739H86.1827V235.367C86.1827 237.27 85.1487 239.195 83.5647 239.899L84.2357 240.845C85.4347 240.262 86.3147 239.107 86.7657 237.644C87.2167 239.019 88.0857 240.086 89.2297 240.625L89.8897 239.723C88.3277 239.019 87.3157 237.204 87.3157 235.367ZM100.647 236.082V240.306H101.78V232.914H100.647V235.147H98.6339V236.082H100.647ZM98.8099 238.744L99.4149 237.864C97.9299 237.336 97.0939 236.016 97.0939 234.696V233.519H95.9389V234.674C95.9389 236.148 95.0809 237.534 93.5299 238.095L94.1349 238.975C95.2789 238.535 96.1039 237.655 96.5439 236.544C96.9729 237.556 97.7429 238.348 98.8099 238.744ZM102.011 241.736H96.4559V239.525H95.3119V242.66H102.011V241.736ZM111.272 237.248V233.222H110.15V234.377H105.728V233.222H104.606V237.248H111.272ZM110.15 235.246V236.357H105.728V235.246H110.15ZM112.449 238.084H103.44V238.997H107.466V240.768H108.599V238.997H112.449V238.084ZM105.673 241.736V239.943H104.54V242.66H111.448V241.736H105.673ZM122.359 240.735H118.388V238.689H121.534V237.776H120.093V234.718H121.556V233.805H114.087V234.718H115.55V237.776H114.12V238.689H117.255V240.735H113.339V241.67H122.359V240.735ZM116.683 237.776V234.718H118.971V237.776H116.683Z" fill="#999999"/>
</svg>
