<svg xmlns="http://www.w3.org/2000/svg" xmlns:xlink="http://www.w3.org/1999/xlink" width="36" height="36" viewBox="0 0 36 36"><defs><style>.a,.c{fill:#fff;}.a{stroke:#707070;}.b{clip-path:url(#a);}.d{fill:#3f8bef;}.e{fill:#82b8ff;}.f{fill:#2b1e0c;}</style><clipPath id="a"><rect class="a" width="36" height="36" transform="translate(483 303)"/></clipPath></defs><g class="b" transform="translate(-483 -303)"><g transform="translate(412.9 303)"><path class="c" d="M83.673,35.552a.98.98,0,0,1-.973-.973V7.573a.98.98,0,0,1,.973-.973h17.7V9.854a1.171,1.171,0,0,0,1.171,1.171H105.8V34.9h-.106l-.137.335-.061.046a.967.967,0,0,1-.684.289Z" transform="translate(-6.098 -6.098)"/><g transform="translate(78.82 20.861)"><path class="d" d="M116.99,284.629a1.491,1.491,0,0,1-1.2-.608l-.411.122-.775-.106-.152-.076a1.472,1.472,0,0,1-.76-1.14,1.5,1.5,0,0,1-1.156-.806,1.483,1.483,0,0,1-.046-1.292,1.5,1.5,0,0,1-.319-2.1,1.589,1.589,0,0,1,.319-.319,1.5,1.5,0,0,1,.775-1.977,2.1,2.1,0,0,1,.441-.122,1.449,1.449,0,0,1,.73-1.125,1.629,1.629,0,0,1,.76-.213,1.668,1.668,0,0,1,.608.122,1.487,1.487,0,0,1,2.083-.319,1.589,1.589,0,0,1,.319.319,1.511,1.511,0,0,1,1.718.38,1.461,1.461,0,0,1,.38.836,5.885,5.885,0,0,1,1.505,4.2,1.919,1.919,0,0,1-.3.3,1.5,1.5,0,0,1-.775,1.977,1.464,1.464,0,0,1-.441.122,1.5,1.5,0,0,1-1.49,1.338h-.2l-.4-.137A1.434,1.434,0,0,1,116.99,284.629Zm0-7.907a2.783,2.783,0,1,0,.03,5.565,2.7,2.7,0,0,0,1.931-.821,2.775,2.775,0,0,0-1.962-4.744Z" transform="translate(-111.879 -274.379)"/><path class="d" d="M146.176,396.465l-2.007,1.642a.41.41,0,0,1-.669-.319l.015-4.714,1.733-.2.228.274a.953.953,0,0,0,1.277.182l.076-.061.046-.046.4-.426.426.152a1.592,1.592,0,0,0,.258.061h.152l.745-.076-.015,4.851a.411.411,0,0,1-.669.319Z" transform="translate(-141.096 -383.797)"/></g><path class="e" d="M140.693,306.726a3.163,3.163,0,1,1,3.163-3.163A3.191,3.191,0,0,1,140.693,306.726Z" transform="translate(-56.732 -277.561)"/><path class="e" d="M331.673,12.49a.98.98,0,0,1-.973-.973V8.4l4.09,4.09Z" transform="translate(-235.243 -7.761)"/><path class="f" d="M98.817,4.425,95.776,1.384V3.756a.667.667,0,0,0,.2.471h0a.667.667,0,0,0,.471.2ZM82.867,7.633a.4.4,0,1,1-.046-.806H93.4a.4.4,0,0,1,.38.426.409.409,0,0,1-.38.38Zm0,1.825a.4.4,0,0,1-.38-.426.409.409,0,0,1,.38-.38H93.4a.4.4,0,0,1,.38.426.409.409,0,0,1-.38.38Zm-2.691,3.391a.4.4,0,0,1-.38-.426.409.409,0,0,1,.38-.38H96.126a.4.4,0,0,1,.38.426.409.409,0,0,1-.38.38Zm0,1.794a.4.4,0,0,1-.046-.806h16a.4.4,0,0,1,.38.426.409.409,0,0,1-.38.38Zm0,1.779a.4.4,0,0,1-.38-.426.409.409,0,0,1,.38-.38H96.126a.4.4,0,0,1,.38.426.409.409,0,0,1-.38.38Zm0,1.794a.4.4,0,0,1-.046-.806h16a.4.4,0,0,1,.38.426.409.409,0,0,1-.38.38Zm0,1.779a.4.4,0,0,1-.046-.806h16a.4.4,0,0,1,.38.426.409.409,0,0,1-.38.38Zm7.831,1.794a.4.4,0,1,1-.046-.806h8.165a.4.4,0,0,1,.38.426.409.409,0,0,1-.38.38Zm-2.19,2.326a2.661,2.661,0,1,0,.775,1.87,2.661,2.661,0,0,0-.775-1.87Zm-1.886-1.581a3.478,3.478,0,1,1-2.448,1.019,3.465,3.465,0,0,1,2.448-1.019ZM85.877,34.3V30.761h-.243a2.424,2.424,0,0,1-.456-.091,1.739,1.739,0,0,1-1.247.593,1.586,1.586,0,0,1-1.247-.593,1.669,1.669,0,0,1-.791.091v3.558l1.749-1.429h0a.39.39,0,0,1,.5,0ZM83.931,21.562a.822.822,0,0,0-.745.471h0a.388.388,0,0,1-.532.182c-.015-.015-.046-.015-.061-.03a.839.839,0,0,0-.882-.046h0a.828.828,0,0,0-.411.791.4.4,0,0,1-.365.441h-.076a.822.822,0,0,0-.76,1.277.4.4,0,0,1-.091.563c-.015.015-.046.03-.061.046a.822.822,0,0,0-.4,1.095.832.832,0,0,0,.4.4.388.388,0,0,1,.182.532c-.015.015-.015.046-.03.061a.825.825,0,0,0,.2,1.14.838.838,0,0,0,.532.152A.4.4,0,0,1,81.27,29v.076a.822.822,0,0,0,1.338.715.407.407,0,0,1,.532.2.822.822,0,0,0,1.095.4.832.832,0,0,0,.4-.4h.03l.015-.015h0l.015-.015h0l.015-.015h0l.03-.015H84.8a.338.338,0,0,1,.243.046h.274a.888.888,0,0,0,.274.061h0a.826.826,0,0,0,.791-.441,1.039,1.039,0,0,0,.091-.517.4.4,0,0,1,.441-.365A.842.842,0,0,0,87.7,28.3a.853.853,0,0,0-.076-.943.407.407,0,0,1,.2-.532.822.822,0,0,0,.4-1.095l-.046-.091a.979.979,0,0,0-.411-.335.411.411,0,0,1-.106-.563.825.825,0,0,0-.2-1.14c-.03-.015-.061-.046-.091-.061a1.039,1.039,0,0,0-.517-.091.4.4,0,0,1-.365-.441.842.842,0,0,0-.411-.791.853.853,0,0,0-.943.076.407.407,0,0,1-.532-.2.83.83,0,0,0-.669-.532Zm4.045,7.6H98.711a.667.667,0,0,0,.471-.2h0a.667.667,0,0,0,.2-.471h0V5.231H96.43A1.448,1.448,0,0,1,95.4,4.805h0a1.475,1.475,0,0,1-.426-1.034V.806h-17.4a.675.675,0,0,0-.669.669V28.5a.675.675,0,0,0,.669.669h2.311a1.632,1.632,0,0,1-.608-1.916,1.619,1.619,0,0,1-.213-2.281,1.409,1.409,0,0,1,.213-.213,1.628,1.628,0,0,1,.958-2.083,1.6,1.6,0,0,1,.289-.076,1.56,1.56,0,0,1,.791-1.125h0a1.6,1.6,0,0,1,1.369-.122,1.619,1.619,0,0,1,2.281-.213,1.409,1.409,0,0,1,.213.213,1.628,1.628,0,0,1,2.083.958,1.6,1.6,0,0,1,.076.289,1.642,1.642,0,0,1,1.338,1.87,1.6,1.6,0,0,1-.076.289,1.619,1.619,0,0,1,.213,2.281,1.409,1.409,0,0,1-.213.213,1.639,1.639,0,0,1-.623,1.916ZM77.575,0H95.411c.03,0,.061.015.091.015h.015l.015.015h.015l.015.015h0l.03.015h0L100,4.47h0l.015.015h0l.015.015h0l.015.03h0a.3.3,0,0,1,.015.122V28.5h0a1.448,1.448,0,0,1-.426,1.034h0a1.475,1.475,0,0,1-1.034.426H87.17a1.749,1.749,0,0,1-.487.517V35.14a.39.39,0,0,1-.38.4h-.015a.413.413,0,0,1-.258-.091l-2.114-1.764-2.159,1.764a.393.393,0,0,1-.563-.061h0a.381.381,0,0,1-.076-.289V30.4a1.5,1.5,0,0,1-.38-.441H77.575A1.486,1.486,0,0,1,76.1,28.48V1.475A1.467,1.467,0,0,1,77.575,0Z"/></g></g></svg>