<svg xmlns="http://www.w3.org/2000/svg" width="46" height="46" viewBox="0 0 46 46"><defs><style>.a,.c{fill:none;}.a,.b{stroke:#000;stroke-linecap:round;stroke-linejoin:round;stroke-width:1.5px;}.b{fill:#65b1e3;}</style></defs><g transform="translate(-192.802 -108.299)"><path class="a" d="M199.463,136.494v-6.58a4.552,4.552,0,0,1,4.552-4.552h2.973s8.745-1.974,11.612-12.351a3.611,3.611,0,0,1,4.555-2.539l.1.032c3.244,1.109,2.267,4.462,2.267,4.462l-3.422,8.359h9.81a2.776,2.776,0,0,1,2.776,2.776h0a2.776,2.776,0,0,1-2.776,2.776h-3.3"/><path class="a" d="M227.45,135.534h6.017a3.328,3.328,0,0,0,3.329-3.329h0a3.328,3.328,0,0,0-3.329-3.328h-6.238"/><path class="a" d="M226.677,141.463h6.017a3.163,3.163,0,0,0,3.329-2.965h0a3.162,3.162,0,0,0-3.329-2.964h-6.237"/><path class="a" d="M214.492,147.391h16.422a3.162,3.162,0,0,0,3.329-2.964h0a3.162,3.162,0,0,0-3.329-2.964h-6.238"/><circle class="b" cx="10.681" cy="10.681" r="10.681" transform="translate(194.809 130.937)"/><path class="a" d="M199.353,139.428l4.728,5.706a1.446,1.446,0,0,0,2.343-.054l10.071-13.142"/><rect class="c" width="46" height="46" transform="translate(192.802 108.299)"/></g></svg>