<svg xmlns="http://www.w3.org/2000/svg" width="46" height="46" viewBox="0 0 46 46"><defs><style>.a{fill:none;}.b{fill:#fff;}.b,.c,.d{stroke:#000;stroke-linecap:round;stroke-linejoin:round;stroke-width:1.5px;}.c{fill:#e4f0ff;}.d{fill:#0069ff;}</style></defs><g transform="translate(-234 -349)"><rect class="a" width="46" height="46" transform="translate(234 349)"/><circle class="b" cx="8.71" cy="8.71" r="8.71" transform="translate(248.29 351.084)"/><path class="b" d="M269.071,376.841c-2.143-5.088-6.735-8.615-12.071-8.615s-9.928,3.527-12.071,8.615"/><path class="c" d="M241.328,381.95l1.782,3.61,3.984.579-2.883,2.81.681,3.968-3.563-1.873-3.563,1.873.681-3.968-2.883-2.81,3.984-.579Z"/><path class="c" d="M272.672,381.95l-1.782,3.61-3.984.579,2.883,2.81-.681,3.968,3.563-1.873,3.563,1.873-.681-3.968,2.883-2.81-3.984-.579Z"/><path class="d" d="M257,372.576l3.3,6.7,7.389,1.074-5.347,5.212,1.262,7.359L257,389.442l-6.609,3.475,1.262-7.359-5.347-5.212,7.389-1.074Z"/><path class="b" d="M251.2,353.312s.614,5.607,14.513,6.482"/></g></svg>