<svg xmlns="http://www.w3.org/2000/svg" xmlns:xlink="http://www.w3.org/1999/xlink" width="36" height="36" viewBox="0 0 36 36"><defs><style>.a,.d{fill:#fff;}.a{stroke:#707070;}.b{clip-path:url(#a);}.c{fill:#82b8ff;}</style><clipPath id="a"><rect class="a" width="36" height="36" transform="translate(525 274)"/></clipPath></defs><g class="b" transform="translate(-525 -274)"><g transform="translate(529 278)"><path class="c" d="M200.449,58.325l-2.439-2.439a2.19,2.19,0,1,1-3.1-3.1l-.441-.441L183.32,63.5h13.5l3.624-3.624a1.1,1.1,0,0,0,0-1.549Zm0,0" transform="translate(-173.281 -49.481)"/><path class="d" d="M90.969,116.02l11.77-11.77,5.576,5.575L96.544,121.6Zm0,0" transform="translate(-85.987 -98.542)"/><path class="c" d="M34.75,326.48a2.19,2.19,0,0,1,2.162-2.19,1.1,1.1,0,0,0-1.067-.853H11.1a1.1,1.1,0,0,0-1.067.853A2.19,2.19,0,0,1,10,328.67v3.45a1.1,1.1,0,0,0,1.1,1.1h24.75a1.1,1.1,0,0,0,1.1-1.1v-3.45A2.19,2.19,0,0,1,34.75,326.48Zm0,0" transform="translate(-9.452 -305.727)"/><path class="d" d="M104,307h16.646v7.885H104Zm0,0" transform="translate(-98.305 -290.186)"/><path d="M121.767,197.931a.548.548,0,1,0-.387-.16A.552.552,0,0,0,121.767,197.931Zm0,0" transform="translate(-114.581 -186.058)"/><path d="M258.326,200.825a.548.548,0,1,0,.16.387A.552.552,0,0,0,258.326,200.825Zm0,0" transform="translate(-243.296 -189.676)"/><path d="M292.938,166.759a.548.548,0,1,0-.388-.16A.551.551,0,0,0,292.938,166.759Zm0,0" transform="translate(-276.379 -156.593)"/><path d="M26.394,13.47H24.866l2.69-2.69a1.643,1.643,0,0,0,0-2.323L25.116,6.018a.548.548,0,0,0-.774,0,1.643,1.643,0,0,1-2.323-2.323.547.547,0,0,0,0-.774L19.579.481a1.642,1.642,0,0,0-2.323,0L8.212,9.525a.548.548,0,0,0,.775.774L18.03,1.256a.547.547,0,0,1,.774,0L20.9,3.346A2.739,2.739,0,0,0,24.69,7.141l2.091,2.091a.548.548,0,0,1,0,.774L23.317,13.47h-2.4l1.8-1.8a.548.548,0,0,0,0-.774L17.14,5.321a.548.548,0,0,0-.775,0L8.216,13.47H1.643A1.645,1.645,0,0,0,0,15.113v3.45a.548.548,0,0,0,.548.548,1.643,1.643,0,1,1,0,3.285A.548.548,0,0,0,0,22.943v3.45a1.645,1.645,0,0,0,1.643,1.643h24.75a1.645,1.645,0,0,0,1.643-1.643v-3.45a.548.548,0,0,0-.548-.548,1.643,1.643,0,1,1,0-3.285.548.548,0,0,0,.548-.548v-3.45a1.645,1.645,0,0,0-1.643-1.643ZM16.753,6.483l4.8,4.8L19.368,13.47H17.2L18.8,11.865a.548.548,0,1,0-.774-.774l-2.38,2.38H9.765ZM26.941,18.07a2.738,2.738,0,0,0,0,5.366v2.957a.548.548,0,0,1-.548.548H1.643a.548.548,0,0,1-.548-.548V23.436a2.738,2.738,0,0,0,0-5.366V15.113a.548.548,0,0,1,.548-.548h24.75a.548.548,0,0,1,.548.548Zm0,0"/><path d="M197.434,345.93a.547.547,0,1,0-.387.16A.552.552,0,0,0,197.434,345.93Zm0,0" transform="translate(-185.739 -326.105)"/><path d="M296.434,345.93a.547.547,0,1,0-.387.16A.552.552,0,0,0,296.434,345.93Zm0,0" transform="translate(-279.318 -326.105)"/><path d="M246.934,345.93a.547.547,0,1,0-.387.16A.552.552,0,0,0,246.934,345.93Zm0,0" transform="translate(-232.529 -326.105)"/><path d="M147.548,346.091a.548.548,0,1,0-.387-.16A.552.552,0,0,0,147.548,346.091Zm0,0" transform="translate(-138.95 -326.105)"/><path d="M345.934,345.93a.547.547,0,1,0-.387.16A.552.552,0,0,0,345.934,345.93Zm0,0" transform="translate(-326.108 -326.105)"/><path d="M147.548,394.091H158.39a.548.548,0,1,0,0-1.1H147.548a.548.548,0,1,0,0,1.1Zm0,0" transform="translate(-138.95 -371.477)"/><path d="M183.868,441a.548.548,0,1,0,.387.16A.552.552,0,0,0,183.868,441Zm0,0" transform="translate(-173.281 -416.848)"/><path d="M111.194,297H94.548a.548.548,0,0,0-.548.548v7.885a.548.548,0,0,0,.548.548h2.281a.548.548,0,0,0,0-1.1H95.1v-6.79h15.551v6.79h-8.89a.548.548,0,0,0,0,1.1h9.437a.548.548,0,0,0,.548-.548v-7.885A.548.548,0,0,0,111.194,297Zm0,0" transform="translate(-88.852 -280.733)"/></g></g></svg>