<svg xmlns="http://www.w3.org/2000/svg" xmlns:xlink="http://www.w3.org/1999/xlink" width="46" height="46" viewBox="0 0 46 46"><defs><style>.a{fill:#bb1414;}.b{clip-path:url(#a);}.c,.f,.g{fill:none;}.c,.d,.e,.f,.g,.h,.i,.j,.k{stroke:#000;stroke-linecap:round;}.c,.d,.e,.f,.h,.k{stroke-miterlimit:10;}.c,.g,.h,.i,.j,.k{stroke-width:1.5px;}.d,.h{fill:#e4f0ff;}.d,.e,.f{stroke-width:1.4px;}.e,.j{fill:#0069ff;}.g,.i,.j{stroke-linejoin:round;}.i,.k{fill:#fff;}</style><clipPath id="a"><rect class="a" width="46" height="46" transform="translate(1078 1698)"/></clipPath></defs><g class="b" transform="translate(-1078 -1698)"><g transform="translate(1030.897 1301.344)"><g transform="translate(75.747 412.169)"><line class="c" x2="10.39" transform="translate(0)"/><line class="c" x2="10.39" transform="translate(0 3.434)"/><line class="c" x2="4.398" transform="translate(0 6.877)"/><line class="c" transform="translate(7.774 6.877)"/></g><circle class="d" cx="1.712" cy="1.712" r="1.712" transform="translate(61.468 433.226)"/><circle class="d" cx="1.712" cy="1.712" r="1.712" transform="translate(68.057 427.293)"/><circle class="d" cx="1.712" cy="1.712" r="1.712" transform="translate(74.872 433.226)"/><circle class="e" cx="1.712" cy="1.712" r="1.712" transform="translate(83.638 424.841)"/><line class="f" y1="3.776" x2="4.016" transform="translate(64.515 430.099)"/><line class="f" x2="3.898" y2="3.136" transform="translate(71.083 430.09)"/><line class="f" y1="6.167" x2="6.178" transform="translate(77.853 427.633)"/><path class="g" d="M54.985,411.047V398.109H82.477" transform="translate(-0.036)"/><path class="g" d="M90.069,406.619v34.637H54.985V427.915" transform="translate(-0.036 -0.053)"/><path class="g" d="M91.222,406.619" transform="translate(-0.264 -0.054)"/><path class="g" d="M83.381,398.109" transform="translate(-0.215 0)"/><path class="g" d="M82.651,398.109v8.264h7.592Z" transform="translate(-0.21)"/><path class="h" d="M61.924,405.1a10.268,10.268,0,1,1-10.267,10.268" transform="translate(-0.015 -0.044)"/><path class="i" d="M51.657,415.366H61.924V405.1" transform="translate(-0.015 -0.044)"/><g transform="translate(49.248 402.66)"><path class="j" d="M58.928,402.689v9.681h-9.68A9.68,9.68,0,0,1,58.928,402.689Z" transform="translate(-49.248 -402.689)"/></g><line class="k" y1="7.947" x2="6.5" transform="translate(61.909 407.375)"/></g></g></svg>