<svg xmlns="http://www.w3.org/2000/svg" xmlns:xlink="http://www.w3.org/1999/xlink" width="46" height="46" viewBox="0 0 46 46"><defs><style>.a{fill:#cf6262;}.b{clip-path:url(#a);}.c{fill:#fff;}.c,.d,.e,.f,.g{stroke:#000;stroke-linecap:round;stroke-linejoin:round;}.c,.d,.e,.f{stroke-width:1.4px;}.d{fill:#0069ff;}.e{fill:none;}.f,.g{fill:#e4f0ff;}.g{stroke-width:1.3px;}</style><clipPath id="a"><rect class="a" width="46" height="46" transform="translate(1431 1639)"/></clipPath></defs><g class="b" transform="translate(-1431 -1639)"><g transform="translate(1050.02 1254.58)"><g transform="translate(381.981 412.768)"><circle class="c" cx="3.545" cy="3.545" r="3.545" transform="translate(2.43)"/><path class="d" d="M393.932,427.531h0a5.8,5.8,0,0,0-5.975-5.608h0a5.8,5.8,0,0,0-5.975,5.608h0v2.463h11.951Z" transform="translate(-381.981 -414.833)"/><line class="c" y2="2.201" transform="translate(2.82 12.463)"/><line class="c" y2="2.201" transform="translate(9.131 12.463)"/></g><g transform="translate(398.114 412.768)"><circle class="c" cx="3.545" cy="3.545" r="3.545" transform="translate(2.431)"/><path class="d" d="M411.093,427.531h0a5.8,5.8,0,0,0-5.976-5.608h0a5.8,5.8,0,0,0-5.975,5.608h0v2.463h11.952Z" transform="translate(-399.141 -414.833)"/><line class="c" y2="2.201" transform="translate(2.82 12.463)"/><line class="c" y2="2.201" transform="translate(9.131 12.463)"/></g><g transform="translate(414.246 412.768)"><circle class="c" cx="3.545" cy="3.545" r="3.545" transform="translate(2.431)"/><path class="d" d="M428.253,427.531h0a5.8,5.8,0,0,0-5.976-5.608h0a5.8,5.8,0,0,0-5.975,5.608h0v2.463h11.952Z" transform="translate(-416.301 -414.833)"/><line class="c" y2="2.201" transform="translate(2.82 12.463)"/><line class="c" y2="2.201" transform="translate(9.131 12.463)"/></g><path class="e" d="M388.337,414.166V412.36a1.779,1.779,0,0,1,1.925-1.58h28.415a1.779,1.779,0,0,1,1.925,1.58v1.806" transform="translate(-0.38 -1.398)"/><line class="e" y2="6.212" transform="translate(404.065 406.246)"/><g transform="translate(393.237 387.42)"><g transform="translate(10.604)"><path class="f" d="M413.6,398.709c3.18-2.632,3.6-6.9,1.209-9.454h0c-2.388-2.553-6.674-2.426-9.573.284" transform="translate(-405.233 -387.42)"/></g><path class="f" d="M404.106,405.96l-7.673-7.172c-2.9-2.711-3.315-6.979-.928-9.533h0c2.387-2.553,6.673-2.426,9.573.284l7.673,7.173" transform="translate(-393.954 -387.42)"/><path class="f" d="M405.674,403.523l1.471,1.375a1.61,1.61,0,0,1,.114,2.273h0a1.609,1.609,0,0,1-2.275.039l-1.471-1.374" transform="translate(-394.526 -388.384)"/><path class="f" d="M409.444,402.526a1.609,1.609,0,0,1,.115,2.273h0a1.609,1.609,0,0,1-2.275.039l-1.471-1.375" transform="translate(-394.664 -388.325)"/><path class="f" d="M410.272,398.605l1.47,1.374a1.61,1.61,0,0,1,.115,2.273h0a1.61,1.61,0,0,1-2.276.039l-1.47-1.374" transform="translate(-394.801 -388.09)"/><path class="f" d="M411.436,395.017l2.606,2.436a1.61,1.61,0,0,1,.115,2.273h0a1.611,1.611,0,0,1-2.276.039l-1.47-1.374" transform="translate(-394.939 -387.875)"/><g transform="translate(0.399 8.565)"><rect class="g" width="2.787" height="3.91" rx="1.393" transform="translate(2.891 0) rotate(47.682)"/><rect class="g" width="2.787" height="3.91" rx="1.393" transform="translate(4.821 2.194) rotate(47.682)"/><rect class="g" width="2.787" height="3.91" rx="1.393" transform="translate(6.751 4.387) rotate(47.682)"/><rect class="g" width="2.787" height="3.91" rx="1.393" transform="matrix(0.673, 0.739, -0.739, 0.673, 8.682, 6.58)"/></g><g transform="translate(6.206 1.334)"><path class="f" d="M405.934,388.839l-.681.648-4.584,3.811s-.57.884.839,1.349l2.867-.033a5.3,5.3,0,0,0,2.179-1.2l1.949.516,1.6-1.031" transform="translate(-400.555 -388.839)"/></g></g></g></g></svg>