<svg xmlns="http://www.w3.org/2000/svg" xmlns:xlink="http://www.w3.org/1999/xlink" width="27" height="27" viewBox="0 0 27 27"><defs><style>.a{fill:#fff;stroke:#707070;}.b{clip-path:url(#a);}.c{fill:#283e62;}</style><clipPath id="a"><rect class="a" width="27" height="27" transform="translate(1260 1388)"/></clipPath></defs><g class="b" transform="translate(-1260 -1388)"><g transform="translate(1260 1388)"><path class="c" d="M19.881,6.328H7.119a.791.791,0,0,0-.791.791V19.881a.791.791,0,0,0,.791.791H19.881a.791.791,0,0,0,.791-.791V7.119A.791.791,0,0,0,19.881,6.328ZM19.09,19.09H7.91V7.91H19.09Zm0,0"/><path class="c" d="M26.209,11.127a.791.791,0,0,0,0-1.582H23.836V7.963h2.373a.791.791,0,0,0,0-1.582H23.836V5.01A1.848,1.848,0,0,0,21.99,3.164H20.619V.791a.791.791,0,0,0-1.582,0V3.164H17.455V.791a.791.791,0,0,0-1.582,0V3.164H14.291V.791a.791.791,0,0,0-1.582,0V3.164H11.127V.791a.791.791,0,0,0-1.582,0V3.164H7.963V.791a.791.791,0,0,0-1.582,0V3.164H5.01A1.848,1.848,0,0,0,3.164,5.01V6.381H.791a.791.791,0,0,0,0,1.582H3.164V9.545H.791a.791.791,0,0,0,0,1.582H3.164v1.582H.791a.791.791,0,0,0,0,1.582H3.164v1.582H.791a.791.791,0,0,0,0,1.582H3.164v1.582H.791a.791.791,0,0,0,0,1.582H3.164V21.99A1.848,1.848,0,0,0,5.01,23.836H6.381v2.373a.791.791,0,0,0,1.582,0V23.836H9.545v2.373a.791.791,0,0,0,1.582,0V23.836h1.582v2.373a.791.791,0,0,0,1.582,0V23.836h1.582v2.373a.791.791,0,0,0,1.582,0V23.836h1.582v2.373a.791.791,0,0,0,1.582,0V23.836H21.99a1.848,1.848,0,0,0,1.846-1.846V20.619h2.373a.791.791,0,0,0,0-1.582H23.836V17.455h2.373a.791.791,0,0,0,0-1.582H23.836V14.291h2.373a.791.791,0,0,0,0-1.582H23.836V11.127ZM22.254,21.99a.264.264,0,0,1-.264.264H5.01a.264.264,0,0,1-.264-.264V5.01a.264.264,0,0,1,.264-.264H21.99a.264.264,0,0,1,.264.264Zm0,0"/></g></g></svg>