<svg xmlns="http://www.w3.org/2000/svg" width="46" height="46" viewBox="0 0 46 46"><defs><style>.a{fill:#e4f0ff;}.b,.c{fill:none;}.c,.d,.e{stroke:#000;stroke-linecap:round;stroke-linejoin:round;stroke-width:1.5px;}.d{fill:#fff;}.e{fill:#0069ff;}</style></defs><g transform="translate(-314.045 -346.534)"><rect class="a" width="23.721" height="23.721" rx="2.481" transform="translate(323.271 356.109)"/><rect class="b" width="46" height="46" transform="translate(314.045 346.534)"/><path class="c" d="M346.992,373.343V358.882a2.831,2.831,0,0,0-2.83-2.831H326.1a2.832,2.832,0,0,0-2.831,2.831v18.2a2.831,2.831,0,0,0,2.831,2.83h13.353"/><line class="d" x2="4.572" transform="translate(318.673 360.263)"/><line class="d" x2="4.572" transform="translate(318.673 367.496)"/><line class="d" x2="4.572" transform="translate(318.673 374.729)"/><line class="d" x1="4.572" transform="translate(347.239 360.263)"/><line class="d" x1="4.572" transform="translate(347.239 367.496)"/><line class="d" y2="4.572" transform="translate(327.65 350.955)"/><line class="d" y2="4.572" transform="translate(334.882 350.955)"/><line class="d" y2="4.572" transform="translate(342.115 350.955)"/><line class="d" y1="4.572" transform="translate(327.65 379.964)"/><line class="d" y1="4.572" transform="translate(334.882 379.964)"/><path class="d" d="M344.609,388.114v-6.235a2.91,2.91,0,0,1,2.91-2.91h0a2.91,2.91,0,0,1,2.91,2.91v6.235"/><line class="d" x1="5.819" transform="translate(344.609 384.705)"/><line class="d" y2="9.145" transform="translate(355.417 378.969)"/><path class="e" d="M334.527,360.762h-4.584a1.878,1.878,0,0,0-1.878,1.878v10.211a1.878,1.878,0,0,0,1.878,1.878h10.294a1.878,1.878,0,0,0,1.878-1.878v-4.57a1.879,1.879,0,0,0-.558-1.336l-5.71-5.641A1.881,1.881,0,0,0,334.527,360.762Z"/></g></svg>