<svg xmlns="http://www.w3.org/2000/svg" xmlns:xlink="http://www.w3.org/1999/xlink" width="27" height="27" viewBox="0 0 27 27"><defs><style>.a{fill:#fff;stroke:#707070;}.b{opacity:0.4;clip-path:url(#a);}</style><clipPath id="a"><rect class="a" width="27" height="27" transform="translate(1350 1323)"/></clipPath></defs><g class="b" transform="translate(-1350 -1323)"><g transform="translate(1351.872 1323)"><path d="M22.994,5.644,17.478.227A.791.791,0,0,0,16.923,0H2.978A2.955,2.955,0,0,0,.026,2.951v21.1A2.955,2.955,0,0,0,2.978,27h17.3a2.955,2.955,0,0,0,2.951-2.951V6.209A.791.791,0,0,0,22.994,5.644ZM17.714,2.677l2.791,2.741H17.966a.252.252,0,0,1-.252-.252Zm2.565,22.741H2.978a1.371,1.371,0,0,1-1.369-1.369V2.951A1.371,1.371,0,0,1,2.978,1.582H16.133V5.166A1.836,1.836,0,0,0,17.966,7h3.682V24.049A1.371,1.371,0,0,1,20.279,25.418Zm0,0"/><path d="M17.12,12.551H5.969a.791.791,0,0,0,0,1.582H17.12a.791.791,0,0,0,0-1.582Zm0,0"/><path d="M5.969,17.3h9.092a.791.791,0,1,0,0-1.582H5.969a.791.791,0,0,0,0,1.582Zm0,0"/><path d="M16.158,18.879H5.969a.791.791,0,0,0,0,1.582H16.158a.791.791,0,0,0,0-1.582Zm0,0"/></g></g></svg>