<svg xmlns="http://www.w3.org/2000/svg" width="15" height="14.825" viewBox="0 0 15 14.825"><defs><style>.a{opacity:0.51;}.b,.c{stroke:#000;}.c,.f{fill:none;}.c{stroke-width:1.3px;}.d,.e{stroke:none;}.e{fill:#000;}</style></defs><g class="a" transform="translate(-1162.999 -334.087)"><g transform="translate(13398 4283)"><path class="d" d="M -12234.2763671875 -3939.3984375 L -12234.5908203125 -3939.398681640625 C -12234.396484375 -3943.4052734375 -12231.2900390625 -3946.600830078125 -12227.5 -3946.600830078125 C -12223.7109375 -3946.600830078125 -12220.60546875 -3943.40625 -12220.41015625 -3939.40087890625 L -12220.7236328125 -3939.39990234375 C -12221.3408203125 -3942.84375 -12224.197265625 -3945.398681640625 -12227.5 -3945.398681640625 C -12230.802734375 -3945.398681640625 -12233.6591796875 -3942.843017578125 -12234.2763671875 -3939.3984375 Z"/><path class="e" d="M -12232.9833984375 -3943.134765625 C -12231.6328125 -3944.773193359375 -12229.65625 -3945.798828125 -12227.5 -3945.798828125 C -12225.34765625 -3945.798828125 -12223.3740234375 -3944.77734375 -12222.0234375 -3943.14404296875 C -12223.2373046875 -3944.991943359375 -12225.240234375 -3946.20068359375 -12227.5 -3946.20068359375 C -12229.763671875 -3946.20068359375 -12231.76953125 -3944.98779296875 -12232.9833984375 -3943.134765625 M -12233.93359375 -3938.998291015625 L -12233.9345703125 -3938.998291015625 L -12235.0009765625 -3938.9990234375 C -12235.0009765625 -3943.41162109375 -12231.6357421875 -3947.000732421875 -12227.5 -3947.000732421875 C -12223.365234375 -3947.000732421875 -12220.0009765625 -3943.41259765625 -12220.0009765625 -3939.001953125 L -12221.0654296875 -3938.9990234375 C -12221.5205078125 -3942.419677734375 -12224.2861328125 -3944.998779296875 -12227.5 -3944.998779296875 C -12230.712890625 -3944.998779296875 -12233.478515625 -3942.41943359375 -12233.93359375 -3938.9990234375 L -12233.93359375 -3938.998291015625 Z"/></g><g class="b" transform="translate(1168 340)"><circle class="d" cx="2.5" cy="2.5" r="2.5"/><circle class="f" cx="2.5" cy="2.5" r="2"/></g><line class="c" x1="11.5" y2="14" transform="translate(1165 334.5)"/></g></svg>