<svg xmlns="http://www.w3.org/2000/svg" xmlns:xlink="http://www.w3.org/1999/xlink" width="46" height="46" viewBox="0 0 46 46"><defs><style>.a{fill:#cf6262;}.b{clip-path:url(#a);}.c,.g,.i,.j,.k{fill:none;}.c,.d,.e,.f,.g,.h,.i,.j,.k{stroke:#000;stroke-linecap:round;}.c,.d,.e,.f,.j,.k{stroke-linejoin:round;}.c,.h{stroke-width:1.5px;}.d{fill:#e4f0ff;}.d,.e,.f,.g,.j{stroke-width:1.4px;}.e{fill:#0069ff;}.f,.h{fill:#fff;}.g,.h,.i{stroke-miterlimit:10;}.i,.k{stroke-width:1.2px;}</style><clipPath id="a"><rect class="a" width="46" height="46" transform="translate(1344 1698)"/></clipPath></defs><g class="b" transform="translate(-1344 -1698)"><g transform="translate(1191.959 1305.248)"><line class="c" x2="42.291" transform="translate(153.041 434.017)"/><rect class="d" width="4.378" height="5.93" transform="translate(155.689 428.087)"/><rect class="d" width="4.378" height="11.318" transform="translate(163.793 422.673)"/><rect class="d" width="4.378" height="8.665" transform="translate(171.897 425.326)"/><rect class="e" width="4.378" height="17.092" transform="translate(180.001 416.899)"/><circle class="f" cx="1.404" cy="1.404" r="1.404" transform="translate(156.478 416.673)"/><circle class="f" cx="1.404" cy="1.404" r="1.404" transform="translate(164.447 410.297)"/><circle class="f" cx="1.404" cy="1.404" r="1.404" transform="translate(172.781 413.912)"/><line class="g" y1="4.65" x2="5.573" transform="translate(159.069 412.689)"/><line class="g" x2="5.293" y2="2.263" transform="translate(167.574 412.576)"/><circle class="h" cx="7.871" cy="7.871" r="7.871" transform="translate(174.898 394.753)"/><path class="i" d="M185.376,412.891" transform="translate(-5.371 -2.515)"/><circle class="e" cx="2.352" cy="2.352" r="2.352" transform="translate(180.417 400.271)"/><path class="j" d="M204.157,424.557l-3.061,2.29-6.252-9.548,2.041-1.527Z" transform="translate(-6.944 -5.993)"/><line class="k" y1="0.841" x2="1.163" transform="translate(193.119 417.492)"/><line class="g" y1="2.741" x2="1.811" transform="translate(179.742 404.636)"/><path class="g" d="M185.061,412.891" transform="translate(-5.319 -2.515)"/><path class="g" d="M182.27,417.115" transform="translate(-4.855 -3.216)"/><line class="g" y1="3.144" x2="2.078" transform="translate(175.338 410.899)"/></g></g></svg>