<svg xmlns="http://www.w3.org/2000/svg" xmlns:xlink="http://www.w3.org/1999/xlink" width="20" height="20" viewBox="0 0 20 20"><defs><style>.a{fill:#fff;stroke:#707070;}.b{clip-path:url(#a);}.c{fill:#ff6d6d;}</style><clipPath id="a"><rect class="a" width="20" height="20" transform="translate(1466 455)"/></clipPath></defs><g class="b" transform="translate(-1466 -455)"><g transform="translate(1466 455)"><path class="c" d="M19.594,15.024,12.521,2A2.933,2.933,0,0,0,7.477,2l-.011.021L.416,15a2.932,2.932,0,0,0,2.521,4.43H17.022a2.963,2.963,0,0,0,2.589-1.482A2.891,2.891,0,0,0,19.594,15.024ZM8.826,6.529a1.173,1.173,0,0,1,2.346,0v4.692a1.173,1.173,0,0,1-2.346,0ZM10,17.087a1.76,1.76,0,1,1,1.76-1.76A1.762,1.762,0,0,1,10,17.087Z"/></g></g></svg>