<svg xmlns="http://www.w3.org/2000/svg" xmlns:xlink="http://www.w3.org/1999/xlink" width="28" height="28" viewBox="0 0 28 28"><defs><style>.a{opacity:0.8;}.b{fill:#ffce00;}.c{fill:url(#a);}.d{fill:#00f076;}.e{fill:#f63448;}.f{fill:none;}</style><linearGradient id="a" x1="-0.423" y1="0.75" x2="0.529" y2="0.25" gradientUnits="objectBoundingBox"><stop offset="0" stop-color="#00e2ff"/><stop offset="1" stop-color="#00c5ff"/></linearGradient></defs><g transform="translate(-1332 -3738)"><g class="a" transform="translate(1336 3741)"><path class="b" d="M62.523,38.461l-3.954-2.284-4.048,4.048,4.048,4.048,3.968-2.291a2.055,2.055,0,0,0-.013-3.521Z" transform="translate(-42.994 -28.603)"/><path class="c" d="M26.272,23.036,15.246,12a2.062,2.062,0,0,0-.616,1.47V32.571a2.064,2.064,0,0,0,.616,1.471Z" transform="translate(-14.63 -11.413)"/><path class="d" d="M27.768,21.688l4.048-4.048.006-.006L26.4,14.51l-7.15-4.2a2.028,2.028,0,0,0-2.082-.041,3.09,3.09,0,0,0-.425.315Z" transform="translate(-16.126 -10)"/><path class="e" d="M16.742,61.118a3.09,3.09,0,0,0,.425.315,2.127,2.127,0,0,0,1.014.274,2.087,2.087,0,0,0,1.055-.3L26.4,57.224,31.822,54.1l-.006-.006-4.048-4.048Z" transform="translate(-16.126 -38.49)"/></g><rect class="f" width="28" height="28" transform="translate(1332 3738)"/></g></svg>