<svg xmlns="http://www.w3.org/2000/svg" xmlns:xlink="http://www.w3.org/1999/xlink" width="30" height="30" viewBox="0 0 30 30"><defs><style>.a,.b{fill:#fff;}.a{stroke:#707070;}.c{clip-path:url(#a);}.d{fill:#1e4ba0;}.e{fill:none;}.f{clip-path:url(#b);}</style><clipPath id="a"><rect class="a" width="30" height="30" transform="translate(78 694)"/></clipPath><clipPath id="b"><path class="b" d="M0,0H12.727V24.545H0Z"/></clipPath></defs><g class="c" transform="translate(-78 -694)"><g transform="translate(86.182 696.727)"><path class="d" d="M.493.027V.559A2.073,2.073,0,0,0,.42,0,.473.473,0,0,0,.493.027" transform="translate(7.689 23.986)"/><g transform="translate(0)"><path class="e" d="M0,0H12.727V24.545H0Z"/><g class="f"><path class="b" d="M8.182,5.455V9.091h3.436a.912.912,0,0,1,.891.727v0a.757.757,0,0,1,.018.177.8.8,0,0,1-.018.182c-.169.841-.4,1.986-.546,2.727a.9.9,0,0,1-.89.727H8.182V24.014a.472.472,0,0,1-.073-.027,2.073,2.073,0,0,1,.073.559H3.636V13.636H.909A.909.909,0,0,1,0,12.727V10a.911.911,0,0,1,.909-.909H3.636V5.455A5.362,5.362,0,0,1,3.95,3.636,5.453,5.453,0,0,1,9.091,0h2.727a.909.909,0,0,1,.909.909V3.636a.906.906,0,0,1-.909.909H9.091a.911.911,0,0,0-.909.909" transform="translate(0 0)"/></g></g><path class="d" d="M.493.027V.559A2.073,2.073,0,0,0,.42,0,.473.473,0,0,0,.493.027" transform="translate(7.689 23.986)"/></g></g></svg>