<svg xmlns="http://www.w3.org/2000/svg" xmlns:xlink="http://www.w3.org/1999/xlink" width="125" height="40" viewBox="0 0 125 40"><defs><style>.a,.e{fill:#fff;}.a{stroke:#707070;}.b{clip-path:url(#a);}.c{fill:url(#b);}.d{fill:#293e62;}.f{fill:#65b1e3;}</style><clipPath id="a"><rect class="a" width="125" height="40" transform="translate(472 83)"/></clipPath><linearGradient id="b" x1="0.191" y1="0.782" x2="0.847" y2="0.183" gradientUnits="objectBoundingBox"><stop offset="0" stop-color="#363c63"/><stop offset="1" stop-color="#263e62"/></linearGradient></defs><g class="b" transform="translate(-472 -83)"><g transform="translate(472.053 83.001)"><path class="c" d="M36.5,15.826a10.584,10.584,0,0,0-.911-4.265,12.272,12.272,0,0,0-2-3.033,16.9,16.9,0,0,0-3.929-3.336C27.773,4,25.842,2.886,23.885,1.809A13.858,13.858,0,0,0,21.67.761C21.189.6,20.707.43,20.221.285A6.873,6.873,0,0,0,17.076.1a13.634,13.634,0,0,0-2.252.668,9.148,9.148,0,0,0-1.258.538q-3.591,1.9-7.019,4.076A15.943,15.943,0,0,0,3.163,8.248,13.41,13.41,0,0,0,1.237,10.9,10.659,10.659,0,0,0,.005,15.844C0,16.6,0,17.358,0,18.114c0,.624,0,1.247,0,1.869,0,.422,0,.846,0,1.271,0,.955,0,1.913.005,2.868A10.7,10.7,0,0,0,1.242,29.09a13.573,13.573,0,0,0,2,2.728,16.987,16.987,0,0,0,3.685,3.028q2.985,1.86,6.077,3.54a12.436,12.436,0,0,0,2.024.908q.586.2,1.18.383a6.479,6.479,0,0,0,3.5.148c.758-.184,1.5-.448,2.241-.7a7.988,7.988,0,0,0,1.108-.494c2.164-1.147,4.273-2.386,6.361-3.667a17.677,17.677,0,0,0,4.749-4.182,10.563,10.563,0,0,0,2.34-6.6C36.515,21.4,36.5,18.611,36.5,15.826ZM8.442,11.7a.223.223,0,0,1,0-.041.2.2,0,0,1,0-.039V11.6c0-.01,0-.021,0-.031,0-.047.01-.091.016-.135l.016-.088c.005-.028.013-.06.021-.088,0-.01.005-.021.008-.034l.008-.031a379203876281.518,379203876281.518,0,0,1,.021-.062c.01-.028.018-.057.028-.085s.021-.052.031-.075l.008-.016.008-.016.016-.036a.237.237,0,0,1,.018-.036c.005-.013.013-.023.018-.036l.039-.07c.016-.026.031-.052.049-.078l.031-.047s0-.005.005-.008a.283.283,0,0,1,.034-.044l.021-.028a.348.348,0,0,1,.028-.036c.008-.01.018-.021.026-.031s.018-.021.026-.031l.028-.031c.01-.013.023-.023.034-.036A.12.12,0,0,1,9,10.378l.018-.018c.044-.041.085-.083.132-.119.01-.01.023-.018.034-.028l.034-.026.034-.026.028-.021a1.784,1.784,0,0,1,.261-.15l.031-.016.008,0L9.6,9.964l.08-.031.023-.008a.714.714,0,0,1,.07-.021L9.793,9.9l.1-.023.023-.005a.01.01,0,0,0,.008,0l.044-.008a.01.01,0,0,0,.008,0,.227.227,0,0,1,.041-.005c.005,0,.008,0,.013,0a.033.033,0,0,0,.016,0,.635.635,0,0,1,.07-.005l.049,0h.111a1.133,1.133,0,0,1,.132.01.178.178,0,0,1,.034.005l.041.005c.023,0,.047.008.072.013l.036.008a.414.414,0,0,1,.054.013.414.414,0,0,0,.054.013.066.066,0,0,1,.018.005l.054.016h0l.047.016.021.008s0,0,.005,0a.377.377,0,0,1,.049.018c.016.005.031.013.049.018a.02.02,0,0,1,.01.005.554.554,0,0,1,.057.026.517.517,0,0,1,.054.026s0,0,.005,0l.047.023.013.008.047.026c.016.008.028.018.044.026h0a.079.079,0,0,1,.018.013l.023.016a.144.144,0,0,1,.021.016c.028.021.057.041.083.062l.01.008a1.7,1.7,0,0,1,.246.246c.013.016.023.031.036.047s.023.031.036.049l.031.047s0,.005.005.008l.023.039c.01.016.018.031.028.047l.016.028s0,0,0,.005a.081.081,0,0,1,.013.026c.005.008.008.016.013.023s.013.026.021.039.013.026.018.039.008.016.01.023l.031.072a.13.13,0,0,1,.013.034c.005.016.013.028.018.044l.023.067c0,.01.008.021.01.031s.01.034.016.052l.008.023a.076.076,0,0,1,.005.023.333.333,0,0,1,.01.049l.008.041.008.041.008.041.016.109.016.116a.178.178,0,0,0,.005.034l.008.052a1.949,1.949,0,0,1-.663,1.47,1.731,1.731,0,0,1-2.407-.083L8.981,13.1a.244.244,0,0,0-.026-.026.258.258,0,0,0-.026-.028l-.021-.023c-.005-.005-.008-.01-.013-.013S8.882,13,8.877,12.99s-.018-.023-.028-.034l-.021-.028a.226.226,0,0,0-.021-.026c-.016-.021-.028-.041-.041-.062s-.013-.021-.018-.031-.013-.021-.021-.031a.065.065,0,0,1-.01-.018,658.392,658.392,0,0,1-.021-.031L8.68,12.7l-.018-.034c-.016-.028-.028-.057-.041-.085a1.621,1.621,0,0,1-.08-.212c0-.005,0-.01-.005-.013s-.008-.023-.01-.034-.008-.028-.013-.041a.271.271,0,0,1-.01-.044c0-.013-.005-.026-.008-.036a.076.076,0,0,1-.005-.023.271.271,0,0,0-.01-.044c0-.008,0-.016-.005-.026l-.008-.041c0-.005,0-.013,0-.021s0-.013,0-.021l-.008-.07a.126.126,0,0,1,0-.031v0c0-.01,0-.021,0-.031v0c0-.026,0-.052,0-.075V11.75A.313.313,0,0,1,8.442,11.7Zm19.8,2.174q0,3.016,0,6.03,0,4.022,0,8.041c0,.153,0,.305,0,.458v.052c0,.034,0,.07,0,.1s0,.07,0,.1c0,.018,0,.034,0,.052s0,.034,0,.049v.016c0,.013,0,.026,0,.036s0,.018,0,.028l-.008.078c-.008.07-.016.137-.028.2-.005.023-.008.044-.013.067,0,.005,0,.013,0,.018s0,.013,0,.018l-.008.031a.033.033,0,0,0,0,.016c-.005.016-.008.031-.013.049s-.016.052-.023.075-.018.049-.026.075l-.031.072c-.01.021-.018.041-.028.062a.337.337,0,0,0-.021.044c-.005.008-.008.018-.013.026a.305.305,0,0,1-.028.049s0,0,0,.005a.224.224,0,0,1-.026.041l-.008.013-.028.044a.628.628,0,0,1-.036.052c-.013.016-.023.034-.036.049s-.023.031-.036.047-.034.039-.052.06a1.08,1.08,0,0,1-.093.1l-.031.031-.041.039-.039.031-.041.034-.041.031-.044.031-.031.021c-.036.023-.072.047-.111.067l-.028.016-.034.018-.034.016c-.039.018-.08.036-.119.052l-.026.01-.041.016-.031.01c-.031.01-.062.021-.1.028h0c-.023.005-.047.013-.072.018a.092.092,0,0,1-.026.005l-.01,0c-.01,0-.018,0-.026.005l-.049.008-.021,0-.085.01-.031,0-.034,0-.041,0h-.049c-.034,0-.07,0-.1,0a1.308,1.308,0,0,1-.176-.021l-.039-.008-.072-.016c-.016,0-.028-.008-.041-.01a.194.194,0,0,1-.041-.013l-.016-.005-.026-.008-.067-.023c-.023-.008-.047-.018-.067-.026a.554.554,0,0,1-.057-.026s-.005,0-.01-.005a1.075,1.075,0,0,1-.122-.062l-.031-.018c-.021-.013-.041-.023-.06-.036-.036-.023-.075-.049-.109-.075l-.023-.018a1.7,1.7,0,0,1-.148-.124l-.026-.026a.244.244,0,0,1-.026-.026l-.026-.026-.023-.026c-.01-.013-.023-.023-.034-.036a.227.227,0,0,1-.021-.026.143.143,0,0,1-.016-.021L25,29.923l-.026-.034a1.568,1.568,0,0,1-.091-.137c-.005-.01-.013-.021-.018-.031l-.023-.041a.01.01,0,0,1,0-.008c-.008-.016-.016-.031-.026-.049l-.023-.047-.023-.052c-.008-.018-.016-.036-.021-.052a.2.2,0,0,1-.013-.036c-.005-.016-.013-.031-.018-.049s-.008-.021-.01-.031a.313.313,0,0,1-.013-.047.742.742,0,0,1-.018-.072c0-.013-.005-.026-.008-.036a.371.371,0,0,1-.01-.057c-.008-.039-.013-.075-.018-.114l-.008-.057q-.012-.116-.016-.233c0-.039,0-.078,0-.116q0-5.8,0-11.61v-.321h-.028l-.018,0a.112.112,0,0,0-.013,0c-.005,0-.01,0-.013.005a.228.228,0,0,0-.026.016l-.01.008a0,0,0,0,0,0,0,.036.036,0,0,1-.01.008l-.005.005-.005.005-.016.018s-.005.008-.01.013a.045.045,0,0,1-.01.013l-.008.013-.008.013a.11.11,0,0,0-.013.018s0,0-.005.005q-.92,1.04-1.84,2.083l-1.84,2.083-.311.349c-.052.057-.1.116-.155.176s-.1.116-.155.176-.091.1-.135.153c-.005.005-.008.01-.013.016-.034.036-.065.075-.1.114l0,0c-.023.028-.049.057-.072.085l-.008.008c-.016.016-.028.034-.041.049l-.023.028-.039.044-.031.034-.041.041c-.013.01-.023.023-.036.034l-.026.023-.005.005-.023.021-.008.008a.144.144,0,0,1-.021.016c-.018.016-.036.028-.054.041s-.028.023-.044.034c-.034.023-.07.047-.1.067a.581.581,0,0,1-.054.031l-.057.031c-.039.021-.08.039-.122.057l-.018.008a.3.3,0,0,0-.028.013l-.016.005c-.023.01-.049.018-.072.026l-.026.008-.067.021-.021.005c-.026.008-.054.013-.08.018l-.023.005c-.028.005-.054.01-.083.013a.285.285,0,0,1-.047.005.019.019,0,0,0-.013,0l-.054.005-.044,0c-.031,0-.065,0-.1,0H18.3l-.041,0-.044,0a.044.044,0,0,1-.018,0l-.036,0-.028,0-.039-.005c-.036-.005-.075-.013-.111-.021-.016,0-.034-.008-.052-.01a.313.313,0,0,1-.047-.013l-.028-.008-.049-.016-.044-.016h0c-.018-.005-.036-.013-.057-.021h0c-.016-.005-.031-.013-.049-.018a.009.009,0,0,1-.005,0l-.054-.023-.057-.026c-.018-.008-.036-.018-.057-.028-.158-.083-.316-.166-.476-.246s-.318-.163-.476-.246c-.179-.093-.357-.184-.536-.274-.14-.072-.28-.142-.417-.212-.158-.08-.318-.16-.476-.243s-.318-.16-.479-.243l-.955-.484q-.637-.322-1.273-.647h0c-.083-.041-.168-.083-.311-.15v8.784c0,.106,0,.21-.013.313,0,.034-.005.067-.01.1a.561.561,0,0,1-.01.065c0,.008,0,.018-.005.026s0,.01,0,.016a.333.333,0,0,1-.01.049c0,.01,0,.018-.005.028a.378.378,0,0,1-.013.052c0,.008,0,.016-.005.023s0,.008,0,.01l-.008.031s0,.005,0,.008-.008.028-.013.044a.377.377,0,0,1-.018.049c-.016.044-.034.088-.052.129-.005.013-.013.028-.018.041l-.031.062s0,0,0,.005c-.01.018-.021.036-.031.057l-.023.039c-.01.016-.018.031-.028.047s-.013.018-.018.028a.184.184,0,0,1-.026.036.314.314,0,0,1-.026.036c-.034.047-.072.093-.109.137a.993.993,0,0,1-.072.075l-.031.031-.031.031c-.028.026-.06.052-.091.078-.008.008-.018.013-.026.021-.057.041-.114.083-.173.119l-.026.016a.283.283,0,0,1-.039.021c-.01.005-.021.013-.034.018a.518.518,0,0,1-.054.026l-.034.016-.047.021-.021.008c-.031.013-.062.023-.093.034a.4.4,0,0,1-.044.013.313.313,0,0,1-.047.013,305.772,305.772,0,0,0-.047.01s-.005,0-.01,0-.028.008-.044.01l-.034.008a.134.134,0,0,1-.028.005l-.052.008a.288.288,0,0,1-.044.005l-.023,0-.054.005h-.008l-.052,0a.223.223,0,0,0-.041,0h-.07a1.713,1.713,0,0,1-.2-.01,1.859,1.859,0,0,1-1.566-1.6l-.008-.067c0-.018,0-.036-.005-.052a.635.635,0,0,1-.005-.07.313.313,0,0,1,0-.049h0c0-.021,0-.041,0-.062,0-.047,0-.091,0-.137V25.9h0V21.672q0-2.29,0-4.583v-.054c0-.036,0-.07,0-.106v-.054c0-.044,0-.091.005-.135s.005-.088.01-.135v0c0-.018,0-.034.005-.052s.005-.036.008-.052.005-.036.008-.052c.005-.036.013-.07.018-.1s.016-.067.026-.1.023-.08.036-.119c.005-.013.008-.026.013-.039.018-.052.039-.1.06-.15l.016-.036c.01-.023.023-.047.036-.07s.026-.047.039-.067l.031-.049c.01-.016.021-.031.031-.049a.144.144,0,0,1,.016-.021l.016-.021a.6.6,0,0,1,.036-.049l.047-.06a.4.4,0,0,1,.031-.034c.016-.016.028-.034.044-.049a.244.244,0,0,1,.026-.026l.026-.026.026-.026a.258.258,0,0,0,.028-.026c.016-.016.034-.028.052-.044a.069.069,0,0,1,.016-.013l.047-.036.031-.023.039-.028c.026-.018.052-.034.078-.049l.041-.023c.031-.018.06-.034.091-.049l.044-.021.044-.021c.016-.005.028-.013.044-.018a.15.15,0,0,1,.036-.013c.01-.005.023-.008.036-.013l.044-.016a.283.283,0,0,1,.044-.013.194.194,0,0,1,.041-.01h.005a.353.353,0,0,1,.044-.01l.028-.008.062-.013c.026-.005.054-.01.08-.013a.287.287,0,0,1,.049-.005l.06-.005h.021l.034,0a.126.126,0,0,0,.031,0h.049a1.844,1.844,0,0,1,.836.2c2.182,1.126,4.374,2.231,6.563,3.344l.269.132h0l.049-.054c.016-.018.034-.036.049-.052l.072-.078.023-.026q3.4-3.859,6.812-7.715c.062-.07.124-.142.189-.212l.036-.036c.023-.023.047-.044.07-.065s.047-.041.072-.062l.016-.01.023-.018.028-.023.034-.026a.33.33,0,0,1,.049-.034l.039-.026.039-.023.039-.023a.283.283,0,0,1,.039-.021.154.154,0,0,1,.021-.01c.008,0,.013-.008.021-.01l.031-.016a.981.981,0,0,1,.109-.047l.041-.016.041-.016h0c.028-.01.057-.018.085-.026l.065-.016.031-.008.036-.008.039-.008c.028-.005.057-.01.088-.013l.044-.005.088-.008c.039,0,.078,0,.116,0a1.381,1.381,0,0,1,.179.013l.028,0a.093.093,0,0,1,.028.005l.088.016c.01,0,.021,0,.028.005l.028.008.057.016a.483.483,0,0,1,.057.018.126.126,0,0,1,.028.01.078.078,0,0,1,.026.01c.057.021.114.044.168.07l.028.013a.8.8,0,0,1,.08.044l.031.018c.01.008.023.013.034.021l.026.016c.013.008.026.018.041.026s.034.023.049.036l.049.039a.167.167,0,0,1,.023.021l.031.026a.933.933,0,0,1,.091.085l.028.028.016.016.018.018a.167.167,0,0,1,.021.023c.016.016.028.034.041.049l.034.041a.439.439,0,0,1,.026.036.833.833,0,0,1,.062.093.383.383,0,0,1,.021.034l.031.054.016.026a.283.283,0,0,1,.021.039l.023.044.028.06c.013.028.026.06.039.091l.023.06c.008.021.013.041.021.062s.013.041.018.062l.016.062.008.031a.53.53,0,0,1,.013.062c.005.031.013.062.018.093,0,.01,0,.021.005.031s0,.021.005.031a.088.088,0,0,1,0,.026c.005.044.01.091.013.135,0,.01,0,.021,0,.031,0,.031,0,.065,0,.1v.067C28.238,12.534,28.238,13.2,28.238,13.875Z"/><path class="d" d="M55.765,34.841a1.921,1.921,0,0,1-.075.585,1.269,1.269,0,0,1-1.271.87,1.287,1.287,0,0,1-1.191-1.046,2.505,2.505,0,0,1-.036-.463q0-4.123,0-8.248v-.3l-.067-.01c-.054.078-.109.155-.16.233L49.779,31.2a2.939,2.939,0,0,1-.2.274,1.282,1.282,0,0,1-2.006-.016c-.07-.085-.132-.181-.194-.274q-1.584-2.36-3.17-4.723c-.052-.078-.109-.153-.186-.264a1.759,1.759,0,0,0-.044.186c-.005.085,0,.173,0,.259v8.067a3.939,3.939,0,0,1-.021.463,1.278,1.278,0,0,1-2.536-.013,2.791,2.791,0,0,1-.018-.36V22.056a1.787,1.787,0,0,1,.049-.512,1.229,1.229,0,0,1,1.012-.921A1.2,1.2,0,0,1,43.7,21.1c.194.251.362.523.541.789q2.085,3.086,4.167,6.173c.052.078.109.153.186.261.07-.1.132-.176.186-.259q2.252-3.346,4.5-6.7a3.378,3.378,0,0,1,.21-.3,1.279,1.279,0,0,1,2.27.732c.005.078.005.155.005.233Q55.769,28.443,55.765,34.841Z"/><path class="d" d="M121.769,31.352c.06-.036.119-.067.181-.1a5.66,5.66,0,0,0,.795-9.4,5.5,5.5,0,0,0-3.517-1.235c-.921-.01-1.845,0-2.767,0-.518,0-1.035-.005-1.553,0a1.293,1.293,0,0,0-1.323,1.17,2.9,2.9,0,0,0-.01.336V34.791c0,.085,0,.173,0,.259a1.289,1.289,0,0,0,2.43.551,1.418,1.418,0,0,0,.142-.675c0-.87,0-1.742,0-2.611v-.352h.292c.663,0,1.328.005,1.993,0a.5.5,0,0,1,.406.171c.551.582,1.11,1.157,1.669,1.731.665.688,1.323,1.385,2,2.063a1.266,1.266,0,0,0,2.122-.531,1.285,1.285,0,0,0-.347-1.354q-1.184-1.211-2.365-2.425c-.065-.067-.124-.137-.184-.2C121.751,31.378,121.756,31.36,121.769,31.352Zm-.041-3.261c-.013.021-.028.039-.041.057-.057.078-.119.15-.181.22l-.054.06a400.625,400.625,0,0,1-.057.057c-.028.028-.057.057-.085.083l-.028.026-.018.016c-.013.013-.026.023-.041.036s-.047.039-.07.057a.38.38,0,0,1-.034.026l-.049.039h0l-.044.031c-.031.023-.065.047-.1.067l-.036.023-.085.054-.028.016a.962.962,0,0,1-.088.049c-.013.005-.023.013-.036.018s-.023.013-.036.018l-.028.016-.039.018-.054.026-.039.018-.039.016c-.016.008-.034.013-.049.021l-.041.016a0,0,0,0,0,0,0c-.016.005-.031.013-.049.018l-.021.008a.445.445,0,0,1-.054.018c-.021.008-.041.013-.06.021h0l-.026.008s-.005,0-.01,0-.028.008-.041.013-.041.01-.065.018c-.093.023-.189.044-.285.06a.057.057,0,0,1-.021,0,.65.65,0,0,0-.07.01l-.07.008a.545.545,0,0,1-.065.005c-.031,0-.06.005-.091.005l-.07,0c-1.007.026-2.016.005-3.025.005h-.018a.771.771,0,0,1-.085-.013l-.018,0h-.016V23.21c.078-.008.15-.023.225-.023.947,0,1.9-.013,2.844,0a3.181,3.181,0,0,1,.318.021c.052.005.1.013.155.021a3.167,3.167,0,0,1,.593.158c.047.018.093.036.14.057l.067.031a.517.517,0,0,1,.054.026l.031.016a.3.3,0,0,1,.049.026.521.521,0,0,1,.065.036c.016.01.034.018.049.028l.039.023.023.013.031.018c.039.023.078.049.114.075l.052.036a.443.443,0,0,1,.036.028.2.2,0,0,1,.036.028l.109.085c.018.016.039.031.057.049q.054.047.109.1c.018.018.036.034.052.052s.034.036.052.052l.049.054.047.052c.005.005.008.01.013.016a.539.539,0,0,1,.036.044l0,0,.039.049c.005.005.008.01.013.016l.039.049.044.06h0c.028.041.054.08.08.122h0l.039.062.031.052.078.142a1.268,1.268,0,0,1,.062.135h0c.021.047.039.091.057.137a.5.5,0,0,1,.021.057l.008.023.016.047a.667.667,0,0,1,.021.067.146.146,0,0,0,.01.031h0c.005.016.008.031.013.047v0c0,.005,0,.013.005.018a.016.016,0,0,1,0,.01c.005.016.008.031.013.049,0,0,0,.005,0,.008.013.047.023.1.034.145.005.028.01.057.016.088a.441.441,0,0,0,.01.057h0a.112.112,0,0,0,0,.013c0,.005,0,.008,0,.013,0,.021.005.039.008.057.005.052.013.1.016.155,0,.026,0,.052.005.078s0,.052,0,.08q0,.085,0,.171a2.874,2.874,0,0,1-.023.3.75.75,0,0,1-.01.075.708.708,0,0,1-.013.072c-.005.023-.008.049-.013.072a2,2,0,0,1-.052.215.716.716,0,0,1-.021.07q-.019.07-.047.14a.519.519,0,0,1-.026.067c-.008.023-.018.047-.026.067s-.018.044-.028.067-.018.039-.026.057-.023.049-.034.072c-.021.044-.044.085-.067.127-.01.021-.023.041-.036.062A2.122,2.122,0,0,1,121.727,28.091Z"/><path class="d" d="M111.533,35.226a1.291,1.291,0,0,1-1.222,1.071c-.078.005-.155,0-.233,0h-8.173a2.083,2.083,0,0,1-.36-.021,1.287,1.287,0,0,1-1.113-1.24c0-.06,0-.122,0-.181q0-6.4,0-12.8a2.19,2.19,0,0,1,.034-.412,1.273,1.273,0,0,1,1.26-1.051c1.232-.005,2.466,0,3.7,0q2.407,0,4.811,0a1.293,1.293,0,0,1,.111,2.583c-.1.005-.207.005-.311.005h-6.97a32.556,32.556,0,0,0-.036,3.631c.1.005.21.018.318.018,1.517,0,3.033,0,4.552,0a2.2,2.2,0,0,1,.489.039,1.3,1.3,0,0,1-.241,2.552c-.1.005-.189,0-.285,0h-4.84v4.265h.321q3.389,0,6.776,0a1.846,1.846,0,0,1,.582.085A1.283,1.283,0,0,1,111.533,35.226Z"/><path class="d" d="M71.677,34.372Q69.6,29.644,67.523,24.91c-.515-1.175-1.027-2.35-1.548-3.525a1.28,1.28,0,0,0-2.345,0l-.062.142q-2.609,5.951-5.22,11.9c-.158.362-.329.722-.474,1.09a1.29,1.29,0,1,0,2.389.973q.606-1.4,1.216-2.8c.036-.085.078-.171.119-.256H68c.041.091.083.176.122.261q.578,1.328,1.154,2.653a2.518,2.518,0,0,0,.148.3,1.288,1.288,0,0,0,1.291.629A1.315,1.315,0,0,0,71.8,35.3,1.357,1.357,0,0,0,71.677,34.372Zm-8.887-4.539v-.005s0-.005,0-.008a.01.01,0,0,1,0-.008v0h0a.009.009,0,0,1,0-.005s0,0,0-.005h0a39.24,39.24,0,0,1,.005-.01h0s0,0,0-.005,0-.008.005-.013a.02.02,0,0,1,.005-.01h0v0c0-.005,0-.01.005-.013h0v0a.037.037,0,0,0,.005-.018h0l.008-.018v0h0a.037.037,0,0,0,.005-.018c.005-.016.01-.028.018-.047,0,0,0-.005,0-.008h0s0-.005,0-.008,0-.01.005-.016a.178.178,0,0,0,.008-.021c.005-.01.01-.023.016-.036l.008-.021.016-.039s0-.005,0-.008h0c.01-.026.021-.052.031-.08l.008-.018h0s0,0,0-.005a.037.037,0,0,0,.005-.016s0,0,0-.005a.037.037,0,0,0,.005-.016h0s0-.008.005-.01a.126.126,0,0,0,.01-.028L63,29.266h0s0-.005.005-.01.008-.021.013-.031h0l.008-.021c.016-.034.028-.07.044-.106.008-.021.018-.044.028-.067,0-.005,0-.008.005-.013a.052.052,0,0,1,.01-.021l.016-.034a.366.366,0,0,1,.021-.047c.023-.057.047-.114.072-.173.005-.016.013-.028.018-.044s.013-.031.018-.047l.039-.093c.008-.016.013-.031.021-.047.013-.031.026-.062.041-.1s.028-.065.041-.1c.034-.08.07-.163.106-.248.021-.049.044-.1.065-.153.518-1.2,1.115-2.549,1.219-2.712.07.078.67,1.405,1.2,2.619.023.052.044.1.067.153.016.034.028.067.044.1s.028.067.044.1a.4.4,0,0,1,.021.049c.044.1.085.2.124.29.1.236.194.453.272.642q.054.132.1.241c.008.021.018.041.026.062s.023.057.034.083c0,.008.008.018.01.026a.376.376,0,0,1,.018.049l.008.023c.005.016.01.028.016.041a.537.537,0,0,0,.021.052c0,.01.008.021.01.028a.476.476,0,0,1,.016.049C66.643,29.864,63.121,29.879,62.789,29.833Z"/><path class="d" d="M83.036,34.517a4.648,4.648,0,0,1-2.842,1.659,5.732,5.732,0,0,1-3.616-.383,4.56,4.56,0,0,1-2.689-3.7,4.639,4.639,0,0,1-.023-.466A1.278,1.278,0,0,1,75.1,30.3a1.3,1.3,0,0,1,1.341,1.26,2.789,2.789,0,0,0,.129.732,2.02,2.02,0,0,0,1.439,1.3,3.4,3.4,0,0,0,2.086-.054,2.085,2.085,0,0,0,1.379-2.378,1.23,1.23,0,0,0-.541-.849,3.975,3.975,0,0,0-.8-.419c-.631-.225-1.279-.409-1.918-.621-.489-.163-.981-.326-1.46-.523a4.72,4.72,0,0,1-1.5-.986A3.5,3.5,0,0,1,74.2,25.518a4.342,4.342,0,0,1,.859-3.116,4.406,4.406,0,0,1,2.891-1.7c.339-.06.683-.078.87-.1a5.141,5.141,0,0,1,3.258.978,4.257,4.257,0,0,1,1.713,3.463,1.293,1.293,0,0,1-2.585.016,1.844,1.844,0,0,0-1.625-1.825,3.138,3.138,0,0,0-1.509.075,1.8,1.8,0,0,0-1.312,1.928.972.972,0,0,0,.412.771,2.981,2.981,0,0,0,.65.365c.613.225,1.237.43,1.861.621a13.919,13.919,0,0,1,1.775.631,5.251,5.251,0,0,1,1.416.939,3.826,3.826,0,0,1,1.188,2.513A4.618,4.618,0,0,1,83.036,34.517Z"/><path class="d" d="M98.409,21.97a1.246,1.246,0,0,1-1.216,1.206c-1.095.018-2.19.005-3.284.008h-.342V34.735c0,.1,0,.189,0,.285A1.3,1.3,0,0,1,90.96,35c0-.1,0-.207,0-.311V23.207c-.116-.008-.215-.021-.313-.021-1.043,0-2.086,0-3.129,0a1.831,1.831,0,0,1-.461-.044,1.285,1.285,0,0,1,.287-2.523c.085-.005.173,0,.259,0q4.655,0,9.309,0a2.74,2.74,0,0,1,.437.028A1.264,1.264,0,0,1,98.409,21.97Z"/><path class="d" d="M124.787,7.376c-.137.471-.29.937-.44,1.405l-2.733,8.564a1.943,1.943,0,0,1-.088.243.6.6,0,0,1-.528.36.58.58,0,0,1-.567-.29,2.026,2.026,0,0,1-.142-.3q-1.2-2.974-2.386-5.947c-.039-.1-.085-.2-.127-.3l-.052,0c-.036.083-.07.168-.1.251q-1.207,3.009-2.417,6.017a2.138,2.138,0,0,1-.1.238.6.6,0,0,1-.6.334.609.609,0,0,1-.551-.368,3.313,3.313,0,0,1-.135-.391Q112.3,12.4,110.78,7.612a2.329,2.329,0,0,1-.08-.3.644.644,0,0,1,1.227-.38,2,2,0,0,1,.075.22q1.242,3.917,2.482,7.832c.031.1.067.194.124.355.062-.137.1-.223.137-.311l2.322-5.834a2.118,2.118,0,0,1,.1-.238.628.628,0,0,1,.6-.344.583.583,0,0,1,.556.357c.091.2.166.4.246.6q1.095,2.733,2.195,5.469c.034.083.075.166.137.3.049-.14.083-.225.111-.311q1.246-3.929,2.487-7.855c.021-.065.039-.132.065-.2a.646.646,0,1,1,1.227.4Z"/><path class="d" d="M73.548,12.914a.665.665,0,0,0,.727-.722A6.513,6.513,0,0,0,73.763,9.6a4.863,4.863,0,0,0-5.362-3,4.721,4.721,0,0,0-3.525,2.448,6.37,6.37,0,0,0-.525,5.171,5.1,5.1,0,0,0,5.3,3.724,4.985,4.985,0,0,0,4.081-2.505.522.522,0,0,0,.047-.093.661.661,0,1,0-1.2-.556,3.678,3.678,0,0,1-3.864,1.781,4.02,4.02,0,0,1-3.326-3.649h7.151C72.875,12.914,73.211,12.92,73.548,12.914Zm-1.255-1.356h-.111c-.026,0-.052,0-.08,0h-.5c-.23,0-.481.005-.748.005H68.817c-.432,0-.859,0-1.258,0h-.013l-.422,0h-.4l-.285,0h-.168l-.184,0h-.119a.563.563,0,0,1-.067,0h-.065c-.062,0-.119,0-.171-.005a.439.439,0,0,1-.06,0h-.018l-.054,0a.2.2,0,0,1-.039,0H65.47a.057.057,0,0,1-.021,0H65.4c-.01,0-.018,0-.026,0h0c0-.01,0-.023.005-.036s0-.013,0-.018a.651.651,0,0,1,.01-.07c0-.018.005-.036.008-.052s.005-.047.01-.072,0-.023.005-.036.005-.026.008-.041c.01-.057.023-.111.036-.168.005-.028.013-.054.021-.083s.013-.049.018-.072c.013-.049.026-.1.039-.142h0c.028-.093.057-.186.091-.28h0a.52.52,0,0,1,.026-.067c.01-.028.023-.057.034-.085s.028-.07.044-.1.018-.044.028-.067a0,0,0,0,1,0,0l.031-.07c.005-.01.008-.018.013-.028l.023-.047a.213.213,0,0,1,.018-.034c.01-.018.018-.039.028-.057a.153.153,0,0,0,.01-.021l.031-.054c.018-.034.036-.067.057-.1s.057-.093.085-.142a3.976,3.976,0,0,1,.406-.533l.057-.062.06-.062.062-.062a3.671,3.671,0,0,1,2.567-1.025h.129c.044,0,.088,0,.132.008l.034,0,.15.016.057.008.057.008c.093.013.186.031.277.052a.344.344,0,0,1,.049.013l.028.008c.016,0,.028.008.044.01l.085.023.034.01c.028.01.06.018.088.028l.047.016A3.389,3.389,0,0,1,70.8,8.2a.483.483,0,0,1,.052.026l.047.023c.054.028.111.06.163.093.031.018.062.036.093.057.049.031.1.065.15.1l.093.067.054.044.039.031.054.047a.448.448,0,0,1,.036.031.463.463,0,0,1,.036.034c.005,0,.008.008.013.01l.039.036c.016.013.028.028.044.041s.028.028.044.044l.044.044.041.047a.45.45,0,0,1,.034.039l.01.01a.542.542,0,0,1,.036.044c.013.016.028.031.041.049s.054.065.08.1.052.067.075.1c.049.07.1.142.145.217.023.039.047.075.067.114l.06.106.054.106a.519.519,0,0,1,.026.054c.026.054.052.109.075.163l.023.054c.016.036.031.072.044.111.01.023.018.047.028.072a.008.008,0,0,0,0,.005c.008.023.018.047.026.07s.013.036.018.054.018.054.026.08l.016.047a.313.313,0,0,1,.013.047c.008.023.013.047.021.067l.023.08.016.06c0,.013.008.028.01.041.016.067.031.135.044.2l.016.075.008.049c0,.008,0,.016.005.023s.008.039.01.06a.2.2,0,0,1,.005.036l.008.052c.005.031.008.06.013.091a.345.345,0,0,1-.008.072h0a.01.01,0,0,0-.008,0,.112.112,0,0,1-.013,0h0a.033.033,0,0,0-.016,0h-.026a.064.064,0,0,0-.021,0h-.034a.088.088,0,0,0-.026,0H72.72a.159.159,0,0,0-.034,0H72.65l-.1,0-.088,0C72.412,11.556,72.355,11.556,72.293,11.558Z"/><path class="d" d="M107.835,12.914a.691.691,0,0,0,.787-.8,6.49,6.49,0,0,0-.507-2.492,4.954,4.954,0,0,0-8.776-.787,5.816,5.816,0,0,0-.9,2.588,6.285,6.285,0,0,0,.541,3.528,5.141,5.141,0,0,0,8.978.657,1.5,1.5,0,0,0,.173-.316.664.664,0,0,0-.313-.818.633.633,0,0,0-.828.194,1.537,1.537,0,0,0-.1.153,3.824,3.824,0,0,1-5.96.665,4.353,4.353,0,0,1-1.147-2.161c-.026-.124-.041-.248-.067-.412h.36Q103.953,12.913,107.835,12.914Zm-8.1-1.519.016-.1c.005-.023.008-.049.013-.072l.016-.072c.005-.023.01-.047.016-.072l.016-.072.023-.093c.008-.028.013-.054.021-.083s.016-.052.023-.08.008-.031.013-.047l.016-.054c.005-.013.008-.028.013-.041a.4.4,0,0,1,.021-.06.505.505,0,0,1,.021-.057c.01-.034.023-.067.036-.1a.313.313,0,0,0,.013-.036c.016-.044.034-.085.052-.127h0a.66.66,0,0,1,.028-.062c.016-.036.031-.072.049-.109l.016-.034c.008-.018.018-.036.026-.054,0,0,0,0,0-.005.008-.018.018-.036.026-.052l.031-.057c.01-.021.023-.041.034-.062a.391.391,0,0,1,.026-.044c.026-.047.054-.091.08-.135l.036-.06c.013-.021.026-.039.039-.057l.039-.057.047-.065c.01-.016.023-.031.036-.049s.028-.036.044-.054l.008-.01.036-.044.047-.054c.013-.016.028-.031.041-.049l.005-.005.047-.054c.031-.036.065-.07.1-.1.016-.018.034-.034.052-.052.034-.036.07-.07.106-.1s.049-.044.075-.067a3.409,3.409,0,0,1,.455-.339c.047-.028.093-.057.14-.083a3.753,3.753,0,0,1,1.876-.466.5.5,0,0,1,.062,0,3.659,3.659,0,0,1,.554.06l.08.016.085.018c.054.013.109.026.166.041l.054.016c.054.016.109.034.163.052l.106.039.054.021.106.044.052.023c.07.034.14.067.21.106l.041.023c.07.039.14.083.207.129l.047.031c.016.01.031.023.049.034a0,0,0,0,1,0,0l.047.034.047.036c.016.01.028.023.044.034.049.039.1.078.142.119a.333.333,0,0,1,.044.041l.041.039a3.336,3.336,0,0,1,.406.461l.016.021c.047.062.091.129.135.2l.039.062c.013.021.026.041.039.065s.023.039.034.06a.3.3,0,0,1,.026.049l.078.148.023.049.023.049.023.049c.01.023.023.049.034.072a.121.121,0,0,0,.013.026c.01.026.021.052.031.075.041.1.08.2.114.308.005.018.013.039.018.057a.282.282,0,0,1,.013.044l.008.026c.005.021.013.041.018.065l.031.109c0,.013.008.026.01.039.008.028.013.054.021.083s.008.031.01.047a.529.529,0,0,1,.013.062c0,.016.008.028.01.044s.01.057.018.085a.044.044,0,0,1,0,.018.517.517,0,0,1,.01.062c0,.01,0,.021.005.028a.4.4,0,0,0,.01.054,1.044,1.044,0,0,1,.01.155.044.044,0,0,1,0,.018.08.08,0,0,1-.005.021s0,.008,0,.01-.005.018-.008.028,0,.008,0,.01h-7.49A.91.91,0,0,1,99.734,11.4Z"/><path class="d" d="M53.923,17.151a1.368,1.368,0,0,1-.031.308.611.611,0,0,1-.613.489.619.619,0,0,1-.619-.518,2.1,2.1,0,0,1-.021-.36q0-2.78,0-5.562a4.307,4.307,0,0,0-.3-1.7,2.932,2.932,0,0,0-2.215-1.9,3.1,3.1,0,0,0-3.173,1.227,3.44,3.44,0,0,0-.73,1.982c-.01.2-.013.4-.013.6q0,2.675,0,5.355a1.908,1.908,0,0,1-.028.386.629.629,0,0,1-1.232-.023,1.744,1.744,0,0,1-.021-.308V7.345c0-.078,0-.155.008-.233a.632.632,0,0,1,1.26-.005c.018.163.008.326.013.492,0,.093.008.184.016.334.106-.1.173-.158.238-.22A4.474,4.474,0,0,1,51.495,7a4.383,4.383,0,0,1,2.184,2.73,5.874,5.874,0,0,1,.243,1.734Q53.926,14.309,53.923,17.151Z"/><path class="d" d="M92.676,7.353a1.708,1.708,0,0,1-.078.22q-1.941,4.942-3.877,9.886a.659.659,0,0,1-.543.487.639.639,0,0,1-.7-.45c-.2-.487-.383-.978-.575-1.467q-1.658-4.247-3.318-8.5a1.181,1.181,0,0,1-.078-.246.642.642,0,0,1,.466-.738.607.607,0,0,1,.758.373c.267.655.52,1.315.779,1.972l2.446,6.229c.036.093.08.184.119.277h.06c.044-.111.091-.22.135-.331q1.568-3.991,3.139-7.984c.018-.049.036-.1.057-.145a.621.621,0,0,1,.774-.388A.675.675,0,0,1,92.676,7.353Z"/><path class="d" d="M61.909,16.859a1.1,1.1,0,0,1-.194.269,2.634,2.634,0,0,1-3.968-.163,2.8,2.8,0,0,1-.619-1.822V7.85c-.215,0-.4.008-.59,0A.654.654,0,0,1,55.923,7a.635.635,0,0,1,.611-.466c.173-.005.344-.005.518-.01.016,0,.031-.016.067-.034,0-.08.01-.171.01-.264q0-.854,0-1.706a1.449,1.449,0,0,1,.021-.282.652.652,0,0,1,.657-.543.659.659,0,0,1,.624.587,1.738,1.738,0,0,1,.008.233V6.525c.119.005.21.013.3.013.665,0,1.328,0,1.993,0a.646.646,0,0,1,.644.391.656.656,0,0,1-.559.924c-.137.013-.274.005-.414.005H58.462c-.008.1-.018.163-.018.228q0,3.568,0,7.138a1.36,1.36,0,0,0,1.079,1.367,1.25,1.25,0,0,0,1.193-.329c.052-.047.093-.1.142-.15a.625.625,0,0,1,.823-.093A.658.658,0,0,1,61.909,16.859Z"/><path class="d" d="M80.844,7.85a4.134,4.134,0,0,0-.74.091,3.177,3.177,0,0,0-2.3,2.3,3.821,3.821,0,0,0-.163,1.172q0,2.846,0,5.689a2.161,2.161,0,0,1-.005.259.642.642,0,0,1-.665.59.632.632,0,0,1-.606-.619c-.005-.078,0-.155,0-.233V7.379c0-.078,0-.155,0-.233a.636.636,0,0,1,1.271-.01c.013.2,0,.4.005.6a.679.679,0,0,0,.028.124l.228-.2a4.322,4.322,0,0,1,2.927-1.118.637.637,0,0,1,.65.453A.665.665,0,0,1,80.844,7.85Z"/><path class="d" d="M96.137,7.376v9.718a2.1,2.1,0,0,1-.013.285.627.627,0,0,1-.624.575.657.657,0,0,1-.66-.572,1.72,1.72,0,0,1-.008-.259v-4.91q0-2.442,0-4.884a1.176,1.176,0,0,1,.052-.38.642.642,0,0,1,1.237.145A2.022,2.022,0,0,1,96.137,7.376Z"/><path class="d" d="M42.771,17.371a.629.629,0,0,1-.619.577.646.646,0,0,1-.66-.567,2.145,2.145,0,0,1-.008-.259v-9.8c0-.078,0-.155.005-.233a.661.661,0,0,1,.665-.567.635.635,0,0,1,.619.58c.008.093.005.189.005.285v9.664A3.134,3.134,0,0,1,42.771,17.371Z"/><path class="d" d="M96.2,4.736a.712.712,0,0,1-1.423-.018.712.712,0,1,1,1.423.018Z"/><path class="d" d="M42.838,4.713a.707.707,0,0,1-1.413.031.724.724,0,0,1,.707-.738A.711.711,0,0,1,42.838,4.713Z"/><path class="e" d="M12.063,19.827v8.781a2.345,2.345,0,0,1-.119.813,1.815,1.815,0,0,1-1.923,1.211,1.859,1.859,0,0,1-1.566-1.6,3.542,3.542,0,0,1-.026-.437q0-5.753,0-11.507a3.278,3.278,0,0,1,.083-.844,1.793,1.793,0,0,1,2.575-1.162c2.182,1.126,4.374,2.231,6.563,3.344l.269.132c.067-.072.132-.14.194-.21q3.4-3.859,6.812-7.715c.062-.07.124-.142.189-.212a1.769,1.769,0,0,1,2.9.445,2.224,2.224,0,0,1,.215,1q0,8.044-.008,16.085a7.234,7.234,0,0,1-.052,1.185A1.81,1.81,0,0,1,26.3,30.648a1.841,1.841,0,0,1-1.638-1.395,2.572,2.572,0,0,1-.062-.613q0-5.8,0-11.61v-.321c-.116-.005-.15.088-.2.145q-1.844,2.081-3.68,4.167c-.331.375-.67.743-.991,1.126a1.8,1.8,0,0,1-2.267.432c-1.69-.877-3.39-1.731-5.088-2.593A3.21,3.21,0,0,0,12.063,19.827Z"/><path class="f" d="M12.071,11.74a1.94,1.94,0,0,1-.663,1.467A1.731,1.731,0,0,1,9,13.124a1.964,1.964,0,0,1-.049-2.694,1.675,1.675,0,0,1,1.69-.531,1.775,1.775,0,0,1,1.338,1.307A4.1,4.1,0,0,1,12.071,11.74Z"/><rect class="d" height="6.157" transform="translate(116.163 23.21)"/><path class="d" d="M62.789,29.833c.005-.052.153-.417.365-.921-.212.5-.36.87-.365.921Z"/><path class="d" d="M63.245,28.691c.026-.06.052-.122.078-.184C63.3,28.57,63.271,28.632,63.245,28.691Z"/><path class="d" d="M65.38,11.538c.013-.093.023-.189.039-.282-.016.093-.023.189-.039.282Z"/><path class="d" d="M65.426,11.214c.01-.057.023-.111.036-.168-.013.057-.023.111-.036.168,0,.013-.005.026-.008.041Z"/><path class="d" d="M65.483,10.963a4.421,4.421,0,0,1,.173-.562A4.555,4.555,0,0,0,65.483,10.963Z"/><path class="d" d="M66.061,9.589a1.594,1.594,0,0,0-.085.142A1.594,1.594,0,0,1,66.061,9.589Z"/><path class="d" d="M66.728,11.571h.122A.954.954,0,0,1,66.728,11.571Z"/><path class="d" d="M67.132,11.576l.422,0C67.409,11.576,67.269,11.576,67.132,11.576Z"/><path class="d" d="M68.825,11.582c.336,0,.675,0,1.009,0C69.5,11.582,69.161,11.582,68.825,11.582Z"/><path class="d" d="M67.567,11.579c.4,0,.826,0,1.258,0Z"/><path class="d" d="M100.011,10.357c.016-.044.034-.085.052-.127C100.045,10.272,100.026,10.313,100.011,10.357Z"/><path class="d" d="M100.8,9.058c.031-.036.065-.07.1-.1C100.868,8.988,100.834,9.022,100.8,9.058Z"/></g></g></svg>