<svg xmlns="http://www.w3.org/2000/svg" xmlns:xlink="http://www.w3.org/1999/xlink" width="228" height="73" viewBox="0 0 228 73"><defs><style>.a,.c{fill:#fff;}.a{stroke:#707070;}.b{clip-path:url(#a);}.d{fill:#65b1e3;}</style><clipPath id="a"><rect class="a" width="228" height="73" transform="translate(59.327 128.647)"/></clipPath></defs><g class="b" transform="translate(-59.327 -128.647)"><g transform="translate(60.131 129.056)"><path class="c" d="M66.244,28.721a19.208,19.208,0,0,0-1.653-7.74,22.27,22.27,0,0,0-3.626-5.5,30.676,30.676,0,0,0-7.13-6.054C50.4,7.266,46.9,5.237,43.347,3.284a25.006,25.006,0,0,0-4.025-1.9c-.874-.3-1.747-.6-2.63-.86a12.386,12.386,0,0,0-5.7-.338A24.743,24.743,0,0,0,26.9,1.4a16.6,16.6,0,0,0-2.283.977q-6.51,3.445-12.738,7.4a28.933,28.933,0,0,0-6.143,5.2,24.335,24.335,0,0,0-3.494,4.814A19.344,19.344,0,0,0,.01,28.759C0,30.126,0,31.5,0,32.873c0,1.132,0,2.264,0,3.391,0,.77,0,1.536,0,2.306,0,1.733,0,3.471.009,5.2a19.426,19.426,0,0,0,2.245,9.018,24.633,24.633,0,0,0,3.621,4.95,30.827,30.827,0,0,0,6.688,5.5q5.418,3.375,11.028,6.425a22.568,22.568,0,0,0,3.673,1.649q1.064.359,2.142.7a11.758,11.758,0,0,0,6.345.268c1.376-.333,2.724-.813,4.067-1.278a14.5,14.5,0,0,0,2.01-.9c3.927-2.081,7.754-4.33,11.545-6.655a32.079,32.079,0,0,0,8.619-7.59,19.169,19.169,0,0,0,4.246-11.972C66.267,38.829,66.248,33.775,66.244,28.721ZM15.326,21.159a.31.31,0,0,1,0-.066V21.07c0-.023,0-.047,0-.07a.414.414,0,0,1,.009-.08c0-.028,0-.052.009-.08a.463.463,0,0,0,.009-.08,3.527,3.527,0,0,1,.1-.441c0-.019.009-.033.014-.052l.07-.211c.009-.023.019-.052.028-.075.023-.056.047-.108.07-.164a.079.079,0,0,0,.009-.023l.014-.028s0,0,0-.009.009-.014.009-.023A.118.118,0,0,1,15.7,19.7a2.7,2.7,0,0,1,.174-.3.612.612,0,0,1,.047-.07s0-.009.009-.014,0-.009.009-.014a.513.513,0,0,1,.061-.08l.038-.052a.631.631,0,0,1,.052-.066c.009-.009.014-.019.023-.028A.94.94,0,0,1,16.181,19s0,0,0-.009c.019-.019.033-.038.052-.056q.092-.1.183-.183a1.367,1.367,0,0,1,.127-.113c.038-.033.075-.061.108-.089a.209.209,0,0,1,.052-.038l.009-.009.061-.047a.1.1,0,0,0,.023-.019c.028-.019.056-.038.08-.056s.08-.052.117-.075.108-.061.16-.089l.056-.028.155-.07.038-.014c.028-.009.052-.023.08-.033a.57.57,0,0,1,.066-.023l.042-.014A1.3,1.3,0,0,1,17.721,18l.113-.028h.009c.028,0,.056-.014.089-.019.014,0,.028,0,.042-.009s.038,0,.056-.009.028,0,.042,0h.019c.014,0,.023,0,.038,0,.07-.009.141-.014.216-.019.028,0,.061,0,.089,0h.207c.056,0,.113,0,.169.009.023,0,.047,0,.066,0s.038,0,.056,0,.052,0,.075.009h0l.085.014s.009,0,.019,0,.019,0,.028,0l.066.014a.75.75,0,0,1,.1.023.751.751,0,0,0,.1.023s.009,0,.019,0a.017.017,0,0,1,.014,0l.1.028h0l.085.028c.009,0,.019,0,.028.009s.009,0,.014,0,0,0,.009,0a.685.685,0,0,1,.089.033.406.406,0,0,1,.08.033s0,0,.009,0,.009,0,.019,0h0a1,1,0,0,1,.1.047.939.939,0,0,1,.1.047,0,0,0,0,1,0,0l.085.042.023.014c.023.014.047.023.07.038a.1.1,0,0,1,.028.019c.019.014.042.023.061.038a3.174,3.174,0,0,1,.287.207l.07.056a0,0,0,0,1,0,0c.019.019.038.033.056.052a.125.125,0,0,0,.028.023l.056.056.014.014a.868.868,0,0,0,.066.066s0,0,0,.009c.023.023.042.047.066.07l.009.009c.023.023.042.052.066.075h0c.023.028.042.056.066.085s.042.056.066.085h0a.612.612,0,0,1,.047.07s0,.009.009.014,0,.009.009.014,0,.009.009.014.023.038.038.056.038.061.056.094c.009.014.014.028.023.042v0l0,0a.147.147,0,0,1,.023.047s0,.014.009.019a.036.036,0,0,1,.009.023c.009.019.019.033.028.052.019.042.042.085.061.127a.722.722,0,0,1,.038.089c0,.014.014.028.019.042a.236.236,0,0,1,.023.061v0c.009.023.019.052.028.075.014.042.028.08.042.122,0,.019.014.038.019.056s.019.061.028.094l.014.042a.137.137,0,0,1,.009.042c.009.028.014.061.023.089s0,.033.009.047,0,.028.009.042,0,.033.009.052,0,.014,0,.023,0,.038.009.061l.014.1.014.1.028.211c0,.019,0,.038.009.061s.009.061.014.094a3.543,3.543,0,0,1-1.057,2.532c-.047.047-.094.089-.146.136a3.121,3.121,0,0,1-3.3.568.474.474,0,0,1-.07-.033,3.243,3.243,0,0,1-.484-.268h0a3.525,3.525,0,0,1-.507-.418l-.047-.047a.443.443,0,0,0-.047-.047.468.468,0,0,0-.047-.052c-.014-.014-.023-.028-.038-.042s-.038-.042-.056-.066a.1.1,0,0,0-.019-.023c-.038-.047-.07-.089-.1-.136a1.006,1.006,0,0,1-.061-.089c-.028-.042-.056-.089-.085-.132a.2.2,0,0,1-.019-.033,3.137,3.137,0,0,1-.24-.488c-.009-.019-.014-.038-.023-.056a.265.265,0,0,1-.019-.056,1.057,1.057,0,0,1-.038-.113c0-.009,0-.019-.009-.023s-.014-.042-.019-.061-.014-.052-.023-.075a.042.042,0,0,1,0-.023.167.167,0,0,1-.009-.047s0,0,0-.009l-.014-.07c-.014-.056-.023-.113-.033-.169,0-.023-.009-.052-.014-.075s0-.023,0-.038,0-.023,0-.038L15.34,21.7c0-.014,0-.028,0-.042v-.019c0-.019,0-.042,0-.061,0-.047,0-.094,0-.136v-.122A.96.96,0,0,1,15.326,21.159Zm35.921,7.67q0,3.649,0,7.294,0,7.3,0,14.593v1.043c0,.089,0,.174-.009.263,0,.113-.009.221-.019.333L51.2,52.5v0c0,.056-.014.113-.019.169,0,.009,0,.019,0,.028-.009.056-.014.117-.028.174h0a1.12,1.12,0,0,1-.023.122c0,.023-.009.042-.014.066l-.014.056c0,.009,0,.019,0,.028-.009.028-.014.056-.023.089l-.042.141c-.014.047-.033.089-.047.136s-.038.089-.056.132-.033.075-.052.113c0,.014-.014.028-.019.042-.019.033-.033.066-.052.1s-.023.042-.038.066l-.056.1c0,.009-.009.014-.014.023l-.052.08c-.019.028-.038.052-.056.08l-.033.047-.042.056c-.023.028-.042.056-.066.085s-.061.07-.094.108-.08.085-.117.122l-.047.047c-.042.042-.089.085-.136.127h0l-.07.056c-.014.009-.023.019-.038.028-.038.028-.075.061-.113.089h0a1.008,1.008,0,0,1-.089.061l-.042.028a1.122,1.122,0,0,1-.1.061,0,0,0,0,0,0,0l-.1.061c-.014.009-.028.014-.042.023a0,0,0,0,0,0,0l-.113.056c-.038.019-.075.033-.113.052s-.047.019-.066.028-.056.023-.085.033l-.075.028a.2.2,0,0,0-.047.019l-.094.028a.568.568,0,0,1-.085.023h-.009a.345.345,0,0,0-.066.019l-.07.014c-.014,0-.028,0-.042.009s-.014,0-.019,0-.033,0-.047.009l-.089.014a.036.036,0,0,0-.019,0c-.009,0-.014,0-.023,0-.052,0-.1.014-.15.019a.06.06,0,0,0-.028,0,.569.569,0,0,1-.089,0,.289.289,0,0,0-.066,0h-.113c-.056,0-.113,0-.169,0l-.16-.014c-.052,0-.1-.014-.155-.023a.028.028,0,0,1-.019,0c-.019,0-.038,0-.061-.009a1.144,1.144,0,0,1-.122-.028.568.568,0,0,1-.085-.023c-.014,0-.028,0-.038-.009a.11.11,0,0,0-.038-.009c-.009,0-.019,0-.028-.009l-.047-.014c-.019,0-.042-.014-.061-.019a3.43,3.43,0,0,1-.582-.268c-.038-.023-.075-.042-.108-.066-.066-.042-.136-.089-.2-.136a.259.259,0,0,1-.042-.033c-.014-.009-.023-.019-.038-.028s-.023-.019-.038-.028c-.033-.028-.07-.056-.1-.085-.014-.014-.033-.028-.047-.042s-.047-.042-.07-.066l-.07-.07c-.033-.033-.061-.061-.089-.094a.779.779,0,0,0-.061-.066.2.2,0,0,1-.028-.033l-.014-.014a.125.125,0,0,1-.023-.028s0,0,0-.009l-.056-.07a1.825,1.825,0,0,1-.132-.183c-.014-.019-.028-.042-.042-.061-.038-.056-.07-.117-.1-.178,0,0,0-.009-.009-.019a.017.017,0,0,1,0-.014c0-.009-.009-.014-.014-.023-.023-.042-.042-.08-.061-.122,0,0,0-.014-.009-.023a.141.141,0,0,0-.019-.038.287.287,0,0,1-.023-.056v0c-.009-.023-.019-.047-.033-.075,0,0,0-.009,0-.019s0-.019-.009-.023l-.028-.07c0-.019-.014-.033-.019-.052-.023-.066-.042-.136-.061-.207a.346.346,0,0,0-.019-.066c0-.023-.009-.047-.014-.066s-.014-.066-.023-.1c-.014-.07-.023-.136-.033-.207,0-.033-.009-.07-.014-.1a5.709,5.709,0,0,1-.033-.629q-.007-10.533,0-21.07v-.582h-.052a.036.036,0,0,0-.019,0,91.415,91.415,0,0,0-.028.009h0s0,0-.009,0h0a.347.347,0,0,0-.117.08l-.009.009a.1.1,0,0,0-.019.023l-.052.066s0,.009-.009.009-.009.014-.014.023-.014.023-.023.033L44.3,30.6q-3.346,3.776-6.679,7.562c-.094.108-.188.211-.282.319s-.188.211-.282.319c-.338.38-.681.761-1.014,1.146-.042.052-.089.1-.132.155l-.014.014c-.028.028-.052.061-.075.089s-.07.085-.108.122l0,0a.443.443,0,0,1-.047.047c-.038.038-.075.08-.117.117h0c-.028.023-.052.052-.08.075a.5.5,0,0,1-.056.047l-.014.014a.26.26,0,0,1-.038.028.209.209,0,0,1-.052.038l-.061.047a.8.8,0,0,0-.066.052l-.094.066c-.033.019-.066.042-.094.061a1.055,1.055,0,0,1-.1.056.511.511,0,0,1-.052.028l-.108.056a.167.167,0,0,1-.042.019l-.127.056c-.009,0-.019,0-.028.009l-.023.009a.016.016,0,0,1-.009,0l-.023.009s-.014,0-.019.009,0,0-.009,0a1.084,1.084,0,0,1-.132.047.947.947,0,0,1-.108.033h0l-.1.028-.117.028c-.014,0-.028,0-.042.009s-.014,0-.019,0c-.052.009-.1.019-.15.023-.014,0-.028,0-.042,0l-.113.014c-.014,0-.033,0-.047,0a.456.456,0,0,1-.08,0c-.028,0-.056,0-.085,0H33.23a.63.63,0,0,1-.094,0h-.014c-.019,0-.038,0-.061,0s-.042,0-.061,0-.038,0-.056,0-.033,0-.052,0-.047,0-.07-.009l-.075-.014c-.014,0-.023,0-.038,0a.546.546,0,0,1-.085-.019c-.014,0-.033,0-.047-.009l-.052-.014-.056-.014a.3.3,0,0,1-.061-.019s-.009,0-.014,0c-.023,0-.042-.014-.066-.019s-.07-.023-.108-.033h0c-.033-.009-.066-.023-.1-.038h0c-.028-.009-.056-.023-.089-.033a.016.016,0,0,1-.009,0s-.014,0-.019-.009a.252.252,0,0,1-.052-.023l-.061-.028-.033-.014a.118.118,0,0,1-.033-.019.1.1,0,0,1-.023-.014.252.252,0,0,0-.052-.023.1.1,0,0,1-.023-.014c-.287-.15-.573-.3-.864-.446-.094-.052-.193-.1-.287-.15l-.578-.3c-.324-.164-.648-.333-.972-.5-.061-.028-.122-.061-.178-.094l-.578-.3c-.193-.1-.385-.2-.578-.291L24.79,37.457q-1.155-.585-2.311-1.174h0l-.056-.028-.056-.028-.061-.028c-.1-.052-.225-.108-.385-.188V52.1a1.231,1.231,0,0,1,0,.132v0c0,.047,0,.089,0,.136,0,.023,0,.047,0,.07,0,.052-.009.108-.014.16,0,.028,0,.061-.009.089v0a.941.941,0,0,1-.019.113c-.019.1-.038.211-.066.315,0,.014,0,.028-.009.038-.023.085-.047.174-.08.258s-.061.16-.094.235c-.009.023-.023.052-.033.075-.038.075-.075.15-.113.221l-.042.07c-.019.028-.033.056-.052.085s-.023.033-.033.052a.333.333,0,0,1-.047.066.571.571,0,0,1-.047.066c-.014.023-.033.042-.047.066-.033.042-.066.085-.1.122-.019.019-.033.042-.052.061h0c-.023.023-.042.047-.066.07s-.042.047-.066.07l-.056.056-.056.056c-.028.023-.052.047-.08.07l-.085.07c-.009.009-.019.014-.028.023s-.019.014-.028.023c-.033.023-.066.052-.1.075a0,0,0,0,0,0,0c-.038.028-.08.052-.117.08l-.08.052-.047.028-.07.042c-.019.009-.038.019-.061.033a.939.939,0,0,1-.1.047l-.1.042-.047.019h0l-.117.047-.085.028c-.042.014-.085.028-.122.038l-.042.014-.1.028c-.028,0-.052.014-.08.019s-.075.014-.117.023c-.014,0-.028,0-.042.009h0a.145.145,0,0,1-.047,0,.523.523,0,0,1-.08.009c-.014,0-.028,0-.042,0a.911.911,0,0,1-.113.009.6.6,0,0,1-.094,0c-.028,0-.052,0-.075,0h-.225a.176.176,0,0,1-.052,0l-.183-.014a3.374,3.374,0,0,1-2.842-2.9l-.014-.141c0-.023,0-.052,0-.075s0-.042,0-.066,0-.042,0-.066,0-.038,0-.052a.1.1,0,0,0,0-.038h0v-.042c0-.023,0-.047,0-.07,0-.042,0-.085,0-.127V33.883c0-.944,0-1.893,0-2.837,0-.094,0-.193,0-.291a107470.883,107470.883,0,0,1,.009-.2v-.042c0-.028,0-.056,0-.08v-.056c0-.047,0-.089.009-.136,0-.023,0-.047,0-.07v0c0-.028,0-.061.009-.089s.009-.066.014-.094a3.957,3.957,0,0,1,.094-.47c.009-.038.019-.07.028-.1,0,0,0,0,0-.009a.876.876,0,0,1,.033-.1c.009-.023.014-.047.023-.07a3.644,3.644,0,0,1,.141-.338c.019-.042.042-.085.066-.127.042-.075.085-.15.132-.221a.426.426,0,0,1,.052-.075,2.9,2.9,0,0,1,.3-.376.223.223,0,0,1,.047-.047,3.081,3.081,0,0,1,.315-.291c.028-.023.056-.042.085-.066l.056-.042c.023-.019.047-.033.07-.052a3.027,3.027,0,0,1,.31-.188c.023-.009.042-.023.066-.033l.08-.038.08-.038c.028-.009.052-.023.08-.033a.326.326,0,0,1,.061-.023c.023-.009.042-.014.066-.023l.08-.028a.513.513,0,0,1,.08-.023c.009,0,.019,0,.028-.009a1.346,1.346,0,0,1,.132-.033l.052-.014c.038-.009.075-.014.113-.023l.08-.014c.023,0,.047,0,.066-.009a.52.52,0,0,1,.089-.009c.028,0,.061,0,.089-.009s.038,0,.056,0h.2a3.346,3.346,0,0,1,1.517.371c3.959,2.043,7.938,4.049,11.911,6.068l.235.117c.038.019.08.038.122.061s.085.042.132.066h0l.178-.193c.042-.047.089-.094.132-.141.014-.014.028-.033.042-.047q6.179-7,12.362-14a.424.424,0,0,0,.042-.047c.1-.113.2-.23.305-.338.019-.023.042-.042.061-.066.038-.038.075-.075.113-.108.056-.052.113-.1.169-.146.009-.009.023-.019.033-.028l0,0c.019-.014.033-.028.052-.042a.69.69,0,0,0,.061-.047c.028-.019.056-.042.089-.061s.042-.028.066-.042a0,0,0,0,0,0,0c.023-.014.047-.028.066-.042a.3.3,0,0,1,.066-.038l.155-.085c.014,0,.028-.014.042-.019.066-.033.136-.061.2-.089l.075-.028c.023-.009.047-.019.075-.028.009,0,.019,0,.028-.009a.946.946,0,0,1,.108-.033c.009,0,.014,0,.023,0s.052-.014.075-.019c.056-.014.108-.028.164-.038l.07-.014c.052-.009.1-.019.16-.023.028,0,.052,0,.08-.009l.16-.014c.108,0,.216,0,.319,0a.839.839,0,0,1,.108.009,1.773,1.773,0,0,1,.221.028.363.363,0,0,0,.07.009.665.665,0,0,1,.094.019c.019,0,.033,0,.052.009l.052.014.1.028.089.028.2.07.07.028h0a.474.474,0,0,1,.07.033c.028.014.056.028.089.042l.028.014c.023.009.047.023.066.033a.19.19,0,0,1,.042.023.413.413,0,0,1,.047.028c.019.009.038.023.056.033s.042.023.061.038c.042.023.08.052.122.08s.061.042.089.066.061.047.089.07c.009.009.023.019.033.028s0,0,.009.009a.5.5,0,0,0,.056.047c.023.019.042.038.066.056a0,0,0,0,1,0,0l.028.028a.375.375,0,0,1,.061.061l.052.052a3.258,3.258,0,0,1,.235.272.334.334,0,0,1,.047.066l.056.085.056.085c.009.019.023.038.033.056s.042.066.061.1c.009.014.019.033.028.047a.514.514,0,0,1,.038.07c.014.028.028.052.042.08s.033.07.052.108c.052.113.094.225.136.338l.028.1c.009.038.023.075.033.113l.014.056s0,.009,0,.014a.051.051,0,0,1,0,.023c.014.052.023.1.033.15s.014.066.019.1.009.061.014.094v.009s0,.014,0,.019a.028.028,0,0,0,0,.019v.019a73.157,73.157,0,0,1,.009.028v.014c.009.08.019.16.023.244a.06.06,0,0,0,0,.028h0a.943.943,0,0,1,0,.117c0,.047,0,.1,0,.15v.066C51.247,23.963,51.247,26.4,51.247,28.829Z" transform="translate(0 0)"/><path class="c" d="M59.186,42.327a3.487,3.487,0,0,1-.136,1.061,2.3,2.3,0,0,1-2.306,1.578,2.336,2.336,0,0,1-2.161-1.9,4.547,4.547,0,0,1-.066-.841q-.007-7.482,0-14.969v-.545c-.042,0-.08-.014-.122-.019-.1.141-.2.282-.291.423l-5.777,8.609a5.332,5.332,0,0,1-.357.5,2.327,2.327,0,0,1-3.64-.028c-.127-.155-.24-.329-.352-.5q-2.874-4.283-5.754-8.572c-.094-.141-.2-.277-.338-.479a3.189,3.189,0,0,0-.08.338c-.009.155,0,.315,0,.47V42.1a7.146,7.146,0,0,1-.038.841,2.319,2.319,0,0,1-4.6-.023,5.067,5.067,0,0,1-.033-.653V19.125a3.243,3.243,0,0,1,.089-.93,2.23,2.23,0,0,1,1.836-1.672,2.181,2.181,0,0,1,2.24.864c.352.456.658.949.982,1.433q3.783,5.6,7.562,11.2c.094.141.2.277.338.474.127-.178.24-.319.338-.47q4.086-6.073,8.168-12.151a6.13,6.13,0,0,1,.38-.535,2.322,2.322,0,0,1,4.119,1.329c.009.141.009.282.009.423Q59.2,30.717,59.186,42.327Z" transform="translate(42.016 20.902)"/><path class="c" d="M105.731,35.984c.108-.066.221-.122.329-.183a9.922,9.922,0,0,0,5.279-7.909A10.312,10.312,0,0,0,101.119,16.5c-1.672-.019-3.349,0-5.021,0-.939,0-1.879-.009-2.818,0a2.347,2.347,0,0,0-2.4,2.123,5.271,5.271,0,0,0-.019.611v23c0,.155,0,.315,0,.47a2.339,2.339,0,0,0,4.41,1,2.574,2.574,0,0,0,.258-1.226c0-1.578,0-3.161,0-4.739v-.639h.531c1.207,0,2.409.009,3.617,0a.915.915,0,0,1,.737.305c1,1.057,2.015,2.1,3.029,3.142,1.207,1.249,2.4,2.508,3.626,3.739a2.3,2.3,0,0,0,3.851-.963,2.333,2.333,0,0,0-.629-2.456q-2.149-2.2-4.293-4.4c-.117-.122-.225-.249-.333-.366C105.7,36.031,105.707,36,105.731,35.984Zm-.075-5.918c-.023.038-.052.07-.075.1a4.5,4.5,0,0,1-.329.4c-.033.038-.066.07-.1.108a494.811,494.811,0,0,1-.1.1c-.052.052-.1.1-.155.15a.538.538,0,0,0-.052.052c-.009.009-.023.019-.033.028s-.052.042-.075.066c-.042.038-.085.07-.127.1l-.061.047c-.028.023-.061.047-.089.07h0c-.028.019-.052.038-.08.056-.056.042-.117.085-.174.122-.023.014-.042.028-.066.042l-.155.1-.052.028c-.052.028-.1.061-.16.089-.023.009-.042.023-.066.033s-.042.023-.066.033a.514.514,0,0,0-.052.028c-.023.009-.047.023-.07.033s-.066.033-.1.047-.047.023-.07.033-.047.019-.066.028-.061.023-.089.038-.047.019-.075.028h0c-.028.009-.056.023-.089.033a.327.327,0,0,1-.038.014.808.808,0,0,1-.1.033c-.038.014-.075.023-.108.038h0l-.047.014s-.009,0-.019,0-.052.014-.075.023a1.018,1.018,0,0,0-.113.033c-.169.042-.343.08-.517.108-.014,0-.023,0-.038,0a1.18,1.18,0,0,0-.127.019,1.165,1.165,0,0,1-.127.014.989.989,0,0,1-.117.009c-.056,0-.108.009-.164.009s-.085,0-.127,0c-1.827.047-3.659.009-5.491.009h-.033a1.4,1.4,0,0,1-.155-.023c-.009,0-.023,0-.033,0h-.028V21.208c.141-.014.272-.042.409-.042,1.719,0,3.443-.023,5.162,0,.2,0,.39.014.582.038.094.009.188.023.282.038a5.748,5.748,0,0,1,1.076.287c.085.033.169.066.254.1.042.019.085.038.122.056a.939.939,0,0,1,.1.047l.056.028a.816.816,0,0,1,.089.047.945.945,0,0,1,.117.066c.028.019.061.033.089.052l.07.042c.014.009.028.014.042.023s.038.023.056.033c.07.042.141.089.207.136l.094.066a447,447,0,0,0,.131.1l.2.155.1.089q.1.085.2.183c.033.033.066.061.094.094s.061.066.094.1.061.066.089.1.056.061.085.094c.009.009.014.019.023.028a.978.978,0,0,1,.066.08v0c.023.028.047.061.07.089.009.009.014.019.023.028a1.088,1.088,0,0,1,.066.089l.08.108h0l.15.221h0l.07.113c.019.033.038.061.056.094.047.085.094.174.141.258a2.3,2.3,0,0,1,.113.244h0c.038.085.07.164.1.249a.916.916,0,0,1,.038.1l.014.042.028.085a1.206,1.206,0,0,1,.038.122.267.267,0,0,0,.019.056h0a.569.569,0,0,1,.023.085v0c0,.009,0,.023.009.033s0,.014,0,.019c.009.028.014.056.023.089a.017.017,0,0,0,0,.014c.023.089.042.174.061.263.009.052.019.1.028.16a.8.8,0,0,0,.019.1h0a102.289,102.289,0,0,1,.009.047c0,.038.009.07.014.1.009.094.023.188.028.282,0,.047,0,.094.009.141a1.454,1.454,0,0,1,0,.146q.007.155,0,.31a5.222,5.222,0,0,1-.042.545,1.269,1.269,0,0,1-.019.132,1.087,1.087,0,0,1-.023.132c-.009.042-.014.089-.023.132-.028.132-.056.263-.094.39a1.294,1.294,0,0,1-.038.127q-.035.127-.085.254a.939.939,0,0,1-.047.122c-.014.042-.033.085-.047.122s-.033.08-.052.122-.033.07-.047.1-.042.089-.066.132c-.038.08-.08.155-.122.23-.019.038-.042.075-.066.113A4.629,4.629,0,0,1,105.656,30.066Z" transform="translate(115.253 20.914)"/><path class="c" d="M100.494,43.029a2.342,2.342,0,0,1-2.217,1.944c-.141.009-.282,0-.423,0H83.022a3.779,3.779,0,0,1-.653-.038,2.336,2.336,0,0,1-2.02-2.25c0-.108,0-.221,0-.329q0-11.61,0-23.226a3.973,3.973,0,0,1,.061-.747A2.31,2.31,0,0,1,82.7,16.483c2.236-.009,4.476,0,6.712,0q4.368,0,8.731,0a2.347,2.347,0,0,1,.2,4.687c-.188.009-.376.009-.564.009H85.13a59.073,59.073,0,0,0-.066,6.59c.183.009.38.033.578.033,2.752,0,5.5,0,8.262,0a4,4,0,0,1,.888.07,2.355,2.355,0,0,1-.437,4.631c-.174.009-.343,0-.517,0H85.055v7.74h.582q6.15,0,12.3,0a3.35,3.35,0,0,1,1.057.155A2.329,2.329,0,0,1,100.494,43.029Z" transform="translate(101.915 20.9)"/><path class="c" d="M71.451,41.454q-3.769-8.588-7.538-17.171c-.935-2.132-1.865-4.265-2.809-6.4a2.323,2.323,0,0,0-4.255,0c-.038.085-.075.174-.113.258Q52,28.944,47.262,39.74c-.291.658-.6,1.31-.86,1.977a2.246,2.246,0,0,0,.4,2.414,2.219,2.219,0,0,0,2.33.742,2.263,2.263,0,0,0,1.6-1.39q1.1-2.536,2.207-5.073c.07-.155.141-.31.216-.465H64.786c.075.164.15.319.221.474q1.05,2.409,2.095,4.814a5.377,5.377,0,0,0,.263.55,2.344,2.344,0,0,0,2.348,1.141,2.387,2.387,0,0,0,1.959-1.785A2.463,2.463,0,0,0,71.451,41.454ZM55.322,33.216v-.009s0-.009,0-.014a.017.017,0,0,1,0-.014h0s0-.009,0-.009V33.16h0s0-.009,0-.009,0-.009,0-.009h0s0,0,0-.009,0-.014.009-.023a.036.036,0,0,1,.009-.019h0v0c0-.009,0-.019.009-.023h0v0a.068.068,0,0,0,.009-.033h0c0-.009.009-.023.014-.033v0h0a.068.068,0,0,0,.009-.033s0,0,0-.009h0c.009-.023.019-.047.028-.075,0,0,0-.009,0-.014h0s0-.009,0-.014,0-.019.009-.028,0,0,0-.009h0a.067.067,0,0,0,.009-.028c.009-.023.019-.042.028-.066s.009-.023.014-.038l.028-.07s0-.009,0-.014h0c.019-.047.038-.094.056-.146,0-.009.009-.023.014-.033h0a.487.487,0,0,0,.019-.047.067.067,0,0,0,.009-.028h0s0-.014.009-.019a.229.229,0,0,0,.019-.052l.028-.07h0s0-.009,0-.019.014-.038.023-.056h0c0-.014.009-.023.014-.038.023-.061.052-.127.08-.193a.236.236,0,0,0,.023-.061s0-.014.009-.019h0a.167.167,0,0,1,.019-.042c0-.009,0-.014.009-.023a.1.1,0,0,1,.019-.038c.009-.019.019-.042.028-.061a.664.664,0,0,1,.038-.085c.042-.1.089-.207.132-.315.009-.028.023-.052.033-.08s.023-.056.033-.085l.07-.169c.014-.028.023-.056.038-.085.023-.056.047-.113.075-.174s.052-.117.075-.174c.061-.146.127-.3.193-.446.038-.089.08-.183.117-.277.939-2.179,2.024-4.626,2.212-4.922.127.141,1.216,2.55,2.179,4.748.042.094.08.188.122.277.028.061.052.122.08.183s.052.122.08.183a.724.724,0,0,1,.038.089c.08.178.155.357.225.526.183.427.352.822.493,1.165.066.16.127.305.183.441a1.149,1.149,0,0,0,.047.113c.023.052.042.1.061.15,0,.014.014.033.019.047.014.033.023.061.033.089l.014.042c.009.028.019.052.028.075a.976.976,0,0,0,.038.094c0,.019.014.038.019.052a.312.312,0,0,1,.023.089C62.315,33.272,55.923,33.3,55.322,33.216Z" transform="translate(58.627 20.925)"/><path class="c" d="M75.735,41.73a8.434,8.434,0,0,1-5.157,3.011,10.4,10.4,0,0,1-6.561-.7,8.275,8.275,0,0,1-4.88-6.712,8.42,8.42,0,0,1-.042-.845,2.32,2.32,0,0,1,2.245-2.4,2.365,2.365,0,0,1,2.433,2.287,5.061,5.061,0,0,0,.235,1.329,3.666,3.666,0,0,0,2.611,2.353,6.169,6.169,0,0,0,3.786-.1,3.783,3.783,0,0,0,2.5-4.316,2.233,2.233,0,0,0-.982-1.541,7.215,7.215,0,0,0-1.447-.761c-1.146-.409-2.32-.742-3.48-1.127-.888-.3-1.78-.592-2.649-.949a8.566,8.566,0,0,1-2.729-1.789A6.355,6.355,0,0,1,59.7,25.4a7.88,7.88,0,0,1,1.559-5.655,8,8,0,0,1,5.246-3.086c.615-.108,1.24-.141,1.578-.174A9.329,9.329,0,0,1,74,18.26a7.725,7.725,0,0,1,3.109,6.284,2.347,2.347,0,0,1-4.692.028,3.347,3.347,0,0,0-2.95-3.311,5.694,5.694,0,0,0-2.738.136,3.273,3.273,0,0,0-2.381,3.5,1.763,1.763,0,0,0,.747,1.4,5.41,5.41,0,0,0,1.179.662c1.113.409,2.245.78,3.377,1.127a25.261,25.261,0,0,1,3.222,1.146,9.529,9.529,0,0,1,2.569,1.7A6.944,6.944,0,0,1,77.6,35.5,8.38,8.38,0,0,1,75.735,41.73Z" transform="translate(74.957 20.912)"/><path class="c" d="M91.209,18.953A2.261,2.261,0,0,1,89,21.142c-1.987.033-3.973.009-5.96.014h-.62V42.118c0,.174,0,.343,0,.517a2.363,2.363,0,0,1-4.725-.038c0-.188,0-.376,0-.564V21.2c-.211-.014-.39-.038-.568-.038-1.893,0-3.786,0-5.678,0a3.324,3.324,0,0,1-.836-.08A2.332,2.332,0,0,1,71.13,16.5c.155-.009.315,0,.47,0q8.447,0,16.894,0a4.972,4.972,0,0,1,.794.052A2.293,2.293,0,0,1,91.209,18.953Z" transform="translate(87.382 20.919)"/><path class="c" d="M114.135,6.767c-.249.855-.526,1.7-.8,2.55l-4.96,15.542a3.525,3.525,0,0,1-.16.441,1.081,1.081,0,0,1-.958.653,1.053,1.053,0,0,1-1.029-.526,3.676,3.676,0,0,1-.258-.55q-2.17-5.4-4.33-10.793c-.07-.183-.155-.362-.23-.54-.033,0-.066,0-.094,0-.066.15-.127.305-.188.456q-2.191,5.46-4.387,10.92a3.883,3.883,0,0,1-.188.432,1.089,1.089,0,0,1-1.08.606,1.105,1.105,0,0,1-1-.667,6.006,6.006,0,0,1-.244-.709q-2.755-8.694-5.514-17.383a4.226,4.226,0,0,1-.146-.545A1.168,1.168,0,0,1,90.8,5.96a3.623,3.623,0,0,1,.136.4q2.254,7.109,4.5,14.212c.056.178.122.352.225.643.113-.249.188-.4.249-.564q2.107-5.291,4.213-10.587a3.848,3.848,0,0,1,.183-.432,1.139,1.139,0,0,1,1.08-.625,1.057,1.057,0,0,1,1.01.648c.164.357.3.723.446,1.085q1.987,4.96,3.983,9.924c.061.15.136.3.249.545.089-.254.15-.409.2-.564q2.261-7.13,4.514-14.255c.038-.117.07-.24.117-.357a1.172,1.172,0,1,1,2.226.733Z" transform="translate(112.325 6.619)"/><path class="c" d="M59.336,14.393h0Zm0,0c-.535,0-1.061,0-1.559,0C58.279,14.388,58.8,14.393,59.336,14.393Zm-5.617-.4c0-.023,0-.042.009-.066-.009.052-.014.108-.023.16C53.709,14.059,53.714,14.026,53.719,13.993Zm14.776,2.818a1.208,1.208,0,0,0,1.32-1.31,11.819,11.819,0,0,0-.93-4.706,8.826,8.826,0,0,0-9.732-5.453,8.568,8.568,0,0,0-6.4,4.443,11.58,11.58,0,0,0-.958,9.384,9.264,9.264,0,0,0,9.614,6.759,9.047,9.047,0,0,0,7.407-4.546.949.949,0,0,0,.085-.169,1.2,1.2,0,1,0-2.175-1.01,6.678,6.678,0,0,1-7.012,3.231,7.29,7.29,0,0,1-6.035-6.622H66.658C67.274,16.811,67.884,16.821,68.495,16.811ZM66.217,14.35h-.2c-.047,0-.094,0-.146,0h-.911c-.418,0-.874.009-1.357.009H59.327c-.535,0-1.061,0-1.559,0h-.16c-.263,0-.517,0-.766,0h-.733c-.178,0-.352,0-.517,0h-.305c-.117,0-.225,0-.333,0h-.216a1.022,1.022,0,0,1-.122,0,.982.982,0,0,1-.117,0c-.113,0-.216,0-.31-.009-.038,0-.075,0-.108,0h-.033a.63.63,0,0,1-.1,0,.356.356,0,0,1-.07,0,.1.1,0,0,1-.038,0h-.127c-.019,0-.033,0-.047,0h0c0-.009,0-.019,0-.033s0-.019,0-.033,0-.023,0-.033l.014-.127c0-.033.009-.066.014-.094s0-.028,0-.038c0-.028.009-.061.014-.089s0-.042.009-.066.009-.047.014-.075c.019-.1.042-.2.066-.305.009-.052.023-.1.038-.15s.023-.089.033-.132c.023-.085.047-.174.07-.258h0c.047-.169.1-.338.164-.507h0a.941.941,0,0,1,.047-.122c.019-.052.042-.1.061-.155s.052-.127.08-.188c.019-.042.033-.08.052-.122a0,0,0,0,1,0,0l.056-.127c.009-.019.014-.033.023-.052l.042-.085c.009-.019.019-.042.028-.061s.033-.07.052-.1a.278.278,0,0,0,.019-.038l.056-.1c.033-.061.07-.122.1-.183.052-.085.1-.169.155-.258A7.214,7.214,0,0,1,55.64,9.8c.033-.038.07-.075.1-.113s.07-.075.108-.113l.113-.113A6.662,6.662,0,0,1,60.623,7.6h.235l.24.014c.019,0,.042,0,.061,0l.272.028.1.014.1.014a4.525,4.525,0,0,1,.5.1.5.5,0,0,1,.089.023l.052.014c.023,0,.052.014.08.019l.155.042c.019,0,.042.014.061.019.052.019.108.033.16.052l.085.028a6.149,6.149,0,0,1,.681.287.874.874,0,0,1,.094.047l.085.042c.1.052.2.108.3.169.056.033.113.066.169.1.089.056.183.117.272.183.056.042.113.08.169.122.033.028.066.052.1.08a.816.816,0,0,1,.066.056l.1.085a.817.817,0,0,1,.066.056c.023.019.047.042.07.061s.014.014.023.019c.023.023.047.042.07.066s.052.052.08.075.052.052.08.08.052.052.075.08.052.056.075.085a.819.819,0,0,1,.061.07.1.1,0,0,1,.019.023c.023.023.047.052.07.08l.075.089c.047.056.094.117.141.178s.094.122.141.188c.089.127.178.258.263.395.042.07.085.136.122.207s.07.127.108.193.066.127.1.193a.94.94,0,0,1,.047.1c.047.1.094.2.136.3l.042.1c.028.066.056.132.08.2.019.042.033.085.052.132a0,0,0,0,0,0,0c.014.042.033.085.047.127s.023.066.033.1.033.1.047.146L67,12.57a.569.569,0,0,1,.023.085c.014.042.023.085.038.122s.028.094.042.146.019.07.028.108.014.052.019.075c.028.122.056.244.08.366.009.047.019.089.028.136a.605.605,0,0,0,.019.089c0,.014,0,.028.009.042,0,.038.014.07.019.108a.362.362,0,0,1,.009.07c0,.033.009.061.014.094.009.056.014.108.023.164a.625.625,0,0,1-.014.132h0a.017.017,0,0,0-.014,0,.2.2,0,0,1-.023,0h0a.06.06,0,0,0-.028,0h-.146a.16.16,0,0,0-.047,0h-.146a.289.289,0,0,0-.061,0c-.056,0-.113,0-.178,0s-.1,0-.16,0C66.433,14.346,66.33,14.346,66.217,14.35Z" transform="translate(64.979 6.626)"/><path class="c" d="M95.852,16.806A1.254,1.254,0,0,0,97.28,15.36a11.778,11.778,0,0,0-.921-4.523A8.991,8.991,0,0,0,80.433,9.409a10.534,10.534,0,0,0-1.63,4.7,11.406,11.406,0,0,0,.982,6.4A9.329,9.329,0,0,0,96.078,21.7a2.724,2.724,0,0,0,.315-.573,1.208,1.208,0,0,0-.568-1.484,1.149,1.149,0,0,0-1.5.352c-.066.089-.122.183-.178.277A6.944,6.944,0,0,1,83.321,21.48a7.9,7.9,0,0,1-2.081-3.922c-.052-.225-.075-.451-.122-.747h.653Q88.809,16.8,95.852,16.806Zm-14.7-2.757c.009-.061.019-.117.028-.178.009-.042.014-.089.023-.132a1.284,1.284,0,0,0,.023-.132c.009-.042.019-.089.028-.132s.019-.089.028-.132l.042-.169c.014-.052.023-.1.038-.15s.028-.1.042-.146c.009-.028.014-.056.023-.085l.028-.1c.009-.023.014-.052.023-.075a.731.731,0,0,1,.038-.108.913.913,0,0,1,.038-.1c.019-.061.042-.122.066-.188a.571.571,0,0,0,.023-.066c.028-.08.061-.155.094-.23h0c.014-.038.033-.075.047-.113.028-.066.056-.132.089-.2.009-.019.019-.042.028-.061s.033-.066.047-.1c0,0,0,0,0-.009.014-.033.033-.066.047-.094s.038-.07.056-.1.042-.075.061-.113a.709.709,0,0,1,.047-.08c.047-.085.1-.164.146-.244.023-.038.047-.07.066-.108s.047-.07.07-.1.047-.07.07-.1.056-.08.085-.117.042-.056.066-.089.052-.066.08-.1c0,0,.009-.014.014-.019l.066-.08.085-.1c.023-.028.052-.056.075-.089L83,9.9l.085-.1c.056-.066.117-.127.178-.188.028-.033.061-.061.094-.094.061-.066.127-.127.193-.188.042-.042.089-.08.136-.122a6.187,6.187,0,0,1,.827-.615c.085-.052.169-.1.254-.15A6.811,6.811,0,0,1,88.168,7.6a.9.9,0,0,1,.113,0,6.641,6.641,0,0,1,1.005.108l.146.028c.052.009.1.023.155.033.1.023.2.047.3.075l.1.028c.1.028.2.061.3.094.066.023.132.047.193.07.033.014.066.023.094.038.066.023.127.052.193.08.033.014.066.028.094.042.127.061.254.122.38.193l.075.042c.127.07.254.15.376.235l.085.056c.028.019.056.042.089.061a0,0,0,0,1,0,0,.95.95,0,0,1,.085.061c.028.023.056.042.085.066s.052.042.08.061c.089.07.174.141.258.216a.6.6,0,0,1,.08.075c.023.023.052.047.075.07a6.052,6.052,0,0,1,.737.836c.009.014.019.023.028.038.085.113.164.235.244.357l.07.113c.023.038.047.075.07.117s.042.07.061.108a.536.536,0,0,1,.047.089l.141.268c.014.028.028.061.042.089s.028.061.042.089.028.061.042.089.042.089.061.132c0,.014.014.033.019.047.019.047.038.094.056.136.075.183.146.371.207.559.009.033.023.07.033.1a.51.51,0,0,1,.023.08c0,.014.009.033.014.047.009.038.023.075.033.117l.056.2c0,.023.014.047.019.07.014.052.023.1.038.15,0,.028.014.056.019.085a.964.964,0,0,1,.023.113c0,.028.014.052.019.08.009.052.023.1.033.155,0,.009,0,.023,0,.033a.938.938,0,0,1,.019.113c0,.019,0,.038.009.052a.728.728,0,0,0,.019.1,1.9,1.9,0,0,1,.019.282.08.08,0,0,1,0,.033.145.145,0,0,1-.009.038s0,.014,0,.019-.009.033-.014.052,0,.014,0,.019H81.147C81.161,14.232,81.137,14.138,81.151,14.049Z" transform="translate(99.844 6.632)"/><path class="c" d="M52.265,24.505a2.482,2.482,0,0,1-.056.559,1.108,1.108,0,0,1-1.113.888,1.123,1.123,0,0,1-1.123-.939,3.807,3.807,0,0,1-.038-.653q-.007-5.044,0-10.093A7.816,7.816,0,0,0,49.4,11.19a5.321,5.321,0,0,0-4.02-3.457,5.619,5.619,0,0,0-5.758,2.226,6.243,6.243,0,0,0-1.324,3.6c-.019.357-.023.719-.023,1.08q0,4.854,0,9.718a3.462,3.462,0,0,1-.052.7,1.141,1.141,0,0,1-2.236-.042,3.165,3.165,0,0,1-.038-.559V6.714c0-.141,0-.282.014-.423a1.147,1.147,0,0,1,2.287-.009c.033.3.014.592.023.892,0,.169.014.333.028.606.193-.178.315-.287.432-.4a8.119,8.119,0,0,1,9.131-1.3,7.954,7.954,0,0,1,3.964,4.955,10.66,10.66,0,0,1,.442,3.147Q52.272,19.346,52.265,24.505Z" transform="translate(45.593 6.621)"/><path class="c" d="M83.456,6.728a3.1,3.1,0,0,1-.141.4Q79.793,16.1,76.28,25.069a1.2,1.2,0,0,1-.986.883,1.159,1.159,0,0,1-1.273-.817c-.357-.883-.7-1.775-1.043-2.663q-3.008-7.707-6.021-15.42a2.143,2.143,0,0,1-.141-.446,1.166,1.166,0,0,1,.845-1.339,1.1,1.1,0,0,1,1.376.676c.484,1.188.944,2.386,1.414,3.579q2.219,5.65,4.438,11.305c.066.169.146.333.216.5h.108c.08-.2.164-.4.244-.6q2.846-7.242,5.7-14.49c.033-.089.066-.174.1-.263a1.128,1.128,0,0,1,1.4-.7A1.22,1.22,0,0,1,83.456,6.728Z" transform="translate(84.731 6.616)"/><path class="c" d="M55.631,26.848a1.989,1.989,0,0,1-.352.488,4.78,4.78,0,0,1-7.2-.3,5.085,5.085,0,0,1-1.123-3.307V10.5c-.39,0-.733.014-1.071,0a1.187,1.187,0,0,1-1.118-1.541,1.152,1.152,0,0,1,1.108-.845c.315-.009.625-.009.939-.019.028,0,.056-.028.122-.061,0-.146.019-.31.019-.479q0-1.55,0-3.1A2.63,2.63,0,0,1,47,3.941a1.183,1.183,0,0,1,1.193-.986,1.2,1.2,0,0,1,1.132,1.066,3.154,3.154,0,0,1,.014.423V8.093c.216.009.38.023.55.023,1.207,0,2.409,0,3.617,0a1.173,1.173,0,0,1,1.169.709A1.19,1.19,0,0,1,53.658,10.5c-.249.023-.5.009-.751.009H49.375c-.014.174-.033.3-.033.413q0,6.475,0,12.954a2.469,2.469,0,0,0,1.959,2.48,2.269,2.269,0,0,0,2.165-.6c.094-.085.169-.183.258-.272a1.135,1.135,0,0,1,1.494-.169A1.193,1.193,0,0,1,55.631,26.848Z" transform="translate(56.722 3.748)"/><path class="c" d="M69.225,7.614a7.5,7.5,0,0,0-1.343.164,5.766,5.766,0,0,0-4.175,4.175,6.934,6.934,0,0,0-.3,2.128q.007,5.164,0,10.324a3.922,3.922,0,0,1-.009.47,1.165,1.165,0,0,1-1.207,1.071,1.147,1.147,0,0,1-1.1-1.123c-.009-.141,0-.282,0-.423V6.759c0-.141,0-.282,0-.423A1.154,1.154,0,0,1,63.4,6.318c.023.357,0,.719.009,1.08a1.233,1.233,0,0,0,.052.225l.413-.366a7.843,7.843,0,0,1,5.312-2.029,1.156,1.156,0,0,1,1.179.822A1.208,1.208,0,0,1,69.225,7.614Z" transform="translate(77.489 6.632)"/><path class="c" d="M78.234,6.756V24.392a3.806,3.806,0,0,1-.023.517,1.138,1.138,0,0,1-1.132,1.043,1.193,1.193,0,0,1-1.2-1.038,3.119,3.119,0,0,1-.014-.47v-8.91q0-4.431,0-8.863a2.133,2.133,0,0,1,.094-.69,1.164,1.164,0,0,1,2.245.263A3.67,3.67,0,0,1,78.234,6.756Z" transform="translate(96.233 6.631)"/><path class="c" d="M35.522,24.9A1.141,1.141,0,0,1,34.4,25.949a1.172,1.172,0,0,1-1.2-1.029,3.893,3.893,0,0,1-.014-.47V6.673c0-.141,0-.282.009-.423A1.2,1.2,0,0,1,34.4,5.222a1.153,1.153,0,0,1,1.123,1.052c.014.169.009.343.009.517V24.328A5.687,5.687,0,0,1,35.522,24.9Z" transform="translate(42.097 6.624)"/><path class="c" d="M78.406,4.53A1.292,1.292,0,0,1,75.823,4.5a1.292,1.292,0,1,1,2.583.033Z" transform="translate(96.179 4.066)"/><path class="c" d="M35.707,4.487a1.283,1.283,0,0,1-2.564.056,1.314,1.314,0,0,1,1.282-1.339A1.3,1.3,0,0,1,35.707,4.487Z" transform="translate(42.04 4.066)"/><path class="c" d="M6.746,25.542v0Z" transform="translate(8.557 26.353)"/><path class="c" d="M8.528,24.491l.1-.028a1132.818,1132.818,0,0,0-.085.019C8.538,24.491,8.533,24.491,8.528,24.491Z" transform="translate(10.819 31.031)"/><path class="c" d="M8.592,24.479a.926.926,0,0,0,.122-.038.724.724,0,0,1-.08.023Z" transform="translate(10.9 31.004)"/><path class="c" d="M8.741,24.417l.047-.019a.486.486,0,0,0-.047.019Z" transform="translate(11.085 30.949)"/><path class="c" d="M8.76,24.422l.1-.042-.061.028A.324.324,0,0,0,8.76,24.422Z" transform="translate(11.113 30.926)"/><path class="c" d="M8.686,24.454a1.224,1.224,0,0,0,.117-.047.324.324,0,0,1-.038.014A.407.407,0,0,1,8.686,24.454Z" transform="translate(11.018 30.96)"/><path class="c" d="M8.994,24.342a.466.466,0,0,0,.08-.052c-.066.042-.132.08-.2.117l.07-.042A.174.174,0,0,0,8.994,24.342Z" transform="translate(11.254 30.813)"/><path class="c" d="M8.961,24.335c.038-.023.08-.052.117-.08A1.032,1.032,0,0,1,8.961,24.335Z" transform="translate(11.367 30.768)"/><path class="c" d="M9.186,24.173c-.038.033-.075.061-.113.094.009-.009.019-.014.028-.023Z" transform="translate(11.509 30.663)"/><path class="c" d="M9.013,24.26a0,0,0,0,0,0,0Z" transform="translate(11.433 30.768)"/><path class="c" d="M9.06,24.236c.009-.009.019-.014.028-.023a.065.065,0,0,1-.019.014S9.065,24.231,9.06,24.236Z" transform="translate(11.493 30.713)"/><path class="c" d="M9.015,24.3c.033-.023.07-.047.1-.075C9.085,24.246,9.052,24.274,9.015,24.3Z" transform="translate(11.436 30.726)"/><path class="c" d="M9.516,23.772c.033-.075.066-.155.094-.235C9.582,23.622,9.549,23.7,9.516,23.772Z" transform="translate(12.071 29.857)"/><path class="c" d="M9.93,16q1.155.585,2.311,1.174Q11.086,16.587,9.93,16l-.056-.028L9.93,16Z" transform="translate(12.526 20.258)"/><path class="c" d="M12.769,17.437l.578.3c-.385-.2-.77-.395-1.155-.587C12.383,17.239,12.576,17.338,12.769,17.437Z" transform="translate(15.464 21.749)"/><path class="c" d="M13.753,17.944l.578.3c-.517-.268-1.033-.531-1.55-.794C13.105,17.61,13.429,17.775,13.753,17.944Z" transform="translate(16.213 22.13)"/><path class="c" d="M14.613,18.392a.1.1,0,0,1,.023.014.1.1,0,0,0-.023-.014c-.385-.2-.766-.4-1.151-.6.094.047.193.1.287.15C14.04,18.092,14.326,18.242,14.613,18.392Z" transform="translate(17.077 22.574)"/><path class="c" d="M14.031,18.085a.118.118,0,0,1,.033.019c-.019-.009-.038-.019-.061-.028A.067.067,0,0,0,14.031,18.085Z" transform="translate(17.762 22.929)"/><path class="c" d="M14.044,18.094l.061.028-.028-.014A.228.228,0,0,0,14.044,18.094Z" transform="translate(17.815 22.952)"/><path class="c" d="M14.113,18.125c.028.009.056.023.089.033a.846.846,0,0,0-.1-.038A.015.015,0,0,1,14.113,18.125Z" transform="translate(17.891 22.986)"/><path class="c" d="M14.253,18.177h0l-.113-.042h0A.6.6,0,0,0,14.253,18.177Z" transform="translate(17.944 23.005)"/><path class="c" d="M14.278,18.181a.233.233,0,0,1,.061.019c-.009,0-.019,0-.028-.009A.119.119,0,0,1,14.278,18.181Z" transform="translate(18.112 23.062)"/><path class="c" d="M14.2,18.156a.948.948,0,0,0,.108.033l-.023-.009A.569.569,0,0,1,14.2,18.156Z" transform="translate(18.007 23.031)"/><path class="c" d="M14.355,18.2a.167.167,0,0,0,.047.009h-.009A.088.088,0,0,0,14.355,18.2Z" transform="translate(18.209 23.089)"/><path class="c" d="M14.308,18.189s.009,0,.014,0c-.028-.009-.052-.014-.08-.023C14.266,18.175,14.285,18.185,14.308,18.189Z" transform="translate(18.067 23.049)"/><path class="c" d="M14.622,18.244a.229.229,0,0,0,.056,0c-.085-.009-.164-.019-.249-.033l.075.014a.363.363,0,0,0,.07.009C14.589,18.239,14.608,18.244,14.622,18.244Z" transform="translate(18.304 23.107)"/><path class="c" d="M14.363,18.2l.052.014-.108-.028Z" transform="translate(18.149 23.073)"/><path class="c" d="M14.627,18.237h.014c-.023,0-.047,0-.075,0A.268.268,0,0,0,14.627,18.237Z" transform="translate(18.477 23.128)"/><path class="c" d="M14.375,18.206a.546.546,0,0,1,.085.019A.547.547,0,0,0,14.375,18.206Z" transform="translate(18.235 23.094)"/><path class="c" d="M14.667,18.239h0Z" transform="translate(18.606 23.136)"/><path class="c" d="M14.644,18.237H14.7a.114.114,0,0,1-.056,0Z" transform="translate(18.573 23.133)"/><path class="c" d="M14.6,18.237c.033,0,.061,0,.094,0H14.66A.268.268,0,0,0,14.6,18.237Z" transform="translate(18.519 23.133)"/><path class="c" d="M14.539,18.23c.019,0,.042,0,.061,0h-.019a.08.08,0,0,1-.033,0Z" transform="translate(18.443 23.126)"/><path class="c" d="M14.413,18.212c.014,0,.023,0,.038,0A.092.092,0,0,1,14.413,18.212Z" transform="translate(18.282 23.102)"/><path class="c" d="M14.884,18.237a.16.16,0,0,0,.047,0l-.216.014a.51.51,0,0,0,.085,0A.57.57,0,0,1,14.884,18.237Z" transform="translate(18.666 23.128)"/><path class="c" d="M15.054,18.214c.009,0,.014,0,.019,0-.07.014-.141.028-.211.038.014,0,.028,0,.042,0Z" transform="translate(18.852 23.099)"/><path class="c" d="M14.955,18.215c.014,0,.028,0,.042-.009,0,0-.014,0-.019,0A.042.042,0,0,1,14.955,18.215Z" transform="translate(18.971 23.094)"/><path class="c" d="M15.025,18.211l.1-.028-.056.014c-.014,0-.023,0-.038.009S15.03,18.206,15.025,18.211Z" transform="translate(19.06 23.065)"/><path class="c" d="M14.974,18.221l.117-.028A.534.534,0,0,1,14.974,18.221Z" transform="translate(18.994 23.078)"/><path class="c" d="M14.812,18.24l.113-.014c-.014,0-.028,0-.042,0a.035.035,0,0,0-.023,0A.145.145,0,0,0,14.812,18.24Z" transform="translate(18.789 23.12)"/><path class="c" d="M15.073,18.2c.038-.009.07-.023.108-.033l-.047.014A.233.233,0,0,0,15.073,18.2Z" transform="translate(19.12 23.047)"/><path class="c" d="M15.223,18.137l-.042.014a.036.036,0,0,0,.019-.009A.035.035,0,0,0,15.223,18.137Z" transform="translate(19.257 23.007)"/><path class="c" d="M15.121,18.193c.042-.014.089-.028.132-.047C15.205,18.164,15.163,18.178,15.121,18.193Z" transform="translate(19.181 23.018)"/><path class="c" d="M15.177,18.148s0,0,.009,0,0,0-.009,0Z" transform="translate(19.252 23.015)"/><path class="c" d="M15.224,18.136a.067.067,0,0,1,.028-.009.2.2,0,0,1-.047.019S15.215,18.141,15.224,18.136Z" transform="translate(19.288 22.994)"/><path class="c" d="M15.456,18.042a1.141,1.141,0,0,0,.094-.066h0C15.517,18,15.484,18.018,15.456,18.042Z" transform="translate(19.606 22.802)"/><path class="c" d="M15.526,17.979l.061-.047a.492.492,0,0,1-.052.038A.01.01,0,0,1,15.526,17.979Z" transform="translate(19.695 22.747)"/><path class="c" d="M15.5,18a.355.355,0,0,0,.066-.052Z" transform="translate(19.659 22.774)"/><path class="c" d="M15.6,17.923c.019-.014.038-.033.056-.047l-.009.009A.184.184,0,0,0,15.6,17.923Z" transform="translate(19.787 22.676)"/><path class="c" d="M15.624,17.918a.6.6,0,0,0,.08-.075c-.009.009-.023.019-.033.028Z" transform="translate(19.819 22.634)"/><path class="c" d="M15.733,17.835c.038-.042.075-.08.108-.122-.014.019-.028.033-.042.052A.9.9,0,0,1,15.733,17.835Z" transform="translate(19.958 22.469)"/><path class="c" d="M15.758,17.773l0,0c-.019.019-.033.038-.052.056C15.729,17.806,15.744,17.788,15.758,17.773Z" transform="translate(19.929 22.54)"/><path class="c" d="M15.659,17.909a1.384,1.384,0,0,0,.117-.117l-.009.009-.075.075A.217.217,0,0,1,15.659,17.909Z" transform="translate(19.864 22.569)"/><path class="c" d="M15.83,17.752c.042-.052.085-.1.132-.155-.047.056-.094.113-.146.169Q15.823,17.766,15.83,17.752Z" transform="translate(20.063 22.322)"/><path class="c" d="M19.567,13.457l.009-.009c-.019.028-.038.052-.056.075l.009-.009a.2.2,0,0,0,.023-.033A.1.1,0,0,1,19.567,13.457Z" transform="translate(24.762 17.059)"/><path class="c" d="M19.587,13.414,19.6,13.4a.2.2,0,0,0-.028.033A.047.047,0,0,1,19.587,13.414Z" transform="translate(24.822 17.004)"/><path class="c" d="M19.636,13.372s0,0,.009,0a.015.015,0,0,1-.009,0Z" transform="translate(24.904 16.956)"/><path class="c" d="M19.652,13.367a.017.017,0,0,0,.014,0c-.009,0-.019,0-.028,0A.009.009,0,0,0,19.652,13.367Z" transform="translate(24.911 16.951)"/><path class="c" d="M19.719,13.363h0a.289.289,0,0,0-.066,0,.036.036,0,0,0,.019,0Z" transform="translate(24.93 16.951)"/><path class="c" d="M19.7,23.233c.009.07.019.141.033.207C19.724,23.374,19.71,23.3,19.7,23.233Z" transform="translate(24.99 29.471)"/><path class="c" d="M19.739,23.437a.346.346,0,0,0,.019.066c0-.023-.014-.047-.019-.066s-.009-.047-.014-.066C19.73,23.39,19.735,23.414,19.739,23.437Z" transform="translate(25.022 29.647)"/><path class="c" d="M20.269,8.372a.868.868,0,0,1,.066-.066l-.066.066c-.1.108-.207.225-.305.338C20.062,8.6,20.165,8.485,20.269,8.372Z" transform="translate(25.324 10.538)"/><path class="c" d="M20.115,24.08l.07.07-.023-.023A.223.223,0,0,1,20.115,24.08Z" transform="translate(25.515 30.545)"/><path class="c" d="M20.127,8.367c.038-.038.075-.075.113-.108A1.249,1.249,0,0,0,20.127,8.367Z" transform="translate(25.531 10.477)"/><path class="c" d="M20.822,24.489a.111.111,0,0,0,.038.009c-.061-.019-.117-.033-.174-.056.019,0,.042.014.061.019l.047.014C20.8,24.484,20.813,24.484,20.822,24.489Z" transform="translate(26.24 31.004)"/><path class="c" d="M20.905,24.5c.052.009.1.014.155.023C21,24.514,20.952,24.5,20.905,24.5Z" transform="translate(26.519 31.078)"/><path class="c" d="M20.9,24.5a.028.028,0,0,1,.019,0h0C20.9,24.5,20.9,24.5,20.9,24.5Z" transform="translate(26.508 31.075)"/><path class="c" d="M20.936,24.509a.238.238,0,0,0,.061.009c-.061-.009-.122-.023-.178-.038Z" transform="translate(26.408 31.054)"/><path class="c" d="M20.779,24.473c.028.009.056.014.085.023h-.009A.352.352,0,0,0,20.779,24.473Z" transform="translate(26.358 31.044)"/><path class="c" d="M21.131,24.522c.056,0,.113,0,.169,0-.056,0-.113,0-.169,0s-.108,0-.16-.014A.959.959,0,0,0,21.131,24.522Z" transform="translate(26.603 31.088)"/><path class="c" d="M21.129,24.516h0Z" transform="translate(26.802 31.099)"/><path class="c" d="M21.2,24.519c.028,0,.061,0,.089,0h-.028a.289.289,0,0,0-.061,0Z" transform="translate(26.889 31.096)"/><path class="c" d="M21.117,24.516h0Z" transform="translate(26.786 31.099)"/><path class="c" d="M21.162,24.516h0Z" transform="translate(26.844 31.099)"/><path class="c" d="M21.168,24.519a.289.289,0,0,0,.066,0A.333.333,0,0,1,21.168,24.519Z" transform="translate(26.852 31.096)"/><path class="c" d="M21.251,24.523a1.457,1.457,0,0,0,.15-.019C21.35,24.513,21.3,24.518,21.251,24.523Z" transform="translate(26.957 31.083)"/><path class="c" d="M21.423,24.493l.07-.014-.066.014Z" transform="translate(27.175 31.052)"/><path class="c" d="M21.5,24.495c.014,0,.028,0,.042-.009-.07.014-.146.028-.216.038a.036.036,0,0,0,.019,0l.089-.014c.019,0,.033,0,.047-.009S21.5,24.495,21.5,24.495Z" transform="translate(27.054 31.06)"/><path class="c" d="M21.318,24.507a.042.042,0,0,0,.023,0,.042.042,0,0,1-.023,0Z" transform="translate(27.041 31.081)"/><path class="c" d="M21.52,24.471h0a.481.481,0,0,0-.066.019C21.478,24.485,21.5,24.476,21.52,24.471Z" transform="translate(27.215 31.041)"/><path class="c" d="M21.489,24.484c.028-.009.056-.014.085-.023-.028.009-.061.014-.085.023Z" transform="translate(27.255 31.028)"/><path class="c" d="M21.525,24.476l.094-.028s0,0-.009,0A.567.567,0,0,0,21.525,24.476Z" transform="translate(27.304 31.012)"/><path class="c" d="M21.613,24.456l.075-.028-.122.042Z" transform="translate(27.356 30.986)"/><path class="c" d="M21.62,24.446c.028-.009.056-.023.085-.033l-.038.014A.2.2,0,0,1,21.62,24.446Z" transform="translate(27.425 30.968)"/><path class="c" d="M21.657,24.429c.023-.009.047-.019.066-.028A.277.277,0,0,1,21.657,24.429Z" transform="translate(27.472 30.952)"/><path class="c" d="M21.686,24.429a1.2,1.2,0,0,0,.113-.052A1.2,1.2,0,0,1,21.686,24.429Z" transform="translate(27.509 30.923)"/><path class="c" d="M21.795,24.366c.014-.009.028-.014.042-.023l-.052.028A.015.015,0,0,1,21.795,24.366Z" transform="translate(27.635 30.878)"/><path class="c" d="M21.808,24.377a.747.747,0,0,0,.1-.061l-.1.056Z" transform="translate(27.664 30.844)"/><path class="c" d="M21.736,24.411l.113-.056a.512.512,0,0,0-.052.028A.653.653,0,0,0,21.736,24.411Z" transform="translate(27.572 30.894)"/><path class="c" d="M21.957,24.3,22,24.274c-.047.033-.094.061-.141.089A1.125,1.125,0,0,0,21.957,24.3Z" transform="translate(27.727 30.792)"/><path class="c" d="M21.92,24.308l.089-.061c-.028.019-.052.038-.08.056C21.925,24.3,21.925,24.3,21.92,24.308Z" transform="translate(27.805 30.758)"/><path class="c" d="M21.959,24.3c.038-.028.075-.056.113-.089-.014.009-.023.019-.038.028A.473.473,0,0,1,21.959,24.3Z" transform="translate(27.855 30.708)"/><path class="c" d="M22.057,24.239c.047-.042.089-.08.136-.127h0l-.056.056A.537.537,0,0,1,22.057,24.239Z" transform="translate(27.979 30.587)"/><path class="c" d="M22.139,24.162c.042-.042.08-.08.117-.122C22.219,24.078,22.177,24.12,22.139,24.162Z" transform="translate(28.084 30.495)"/><path class="c" d="M22.117,24.141a.441.441,0,0,0,.047-.047A.44.44,0,0,1,22.117,24.141Z" transform="translate(28.055 30.563)"/><path class="c" d="M22.4,23.839a1.9,1.9,0,0,1-.108.16c.019-.028.038-.052.056-.08A.766.766,0,0,1,22.4,23.839Z" transform="translate(28.281 30.24)"/><path class="c" d="M22.28,23.955a.408.408,0,0,0,.033-.047s0,.009-.009.014A.2.2,0,0,1,22.28,23.955Z" transform="translate(28.262 30.327)"/><path class="c" d="M22.373,23.822c.014-.023.023-.042.038-.066C22.4,23.78,22.388,23.8,22.373,23.822Z" transform="translate(28.381 30.135)"/><path class="c" d="M22.349,23.884l.056-.1s0,.009,0,.014,0,0,0,.009C22.377,23.837,22.363,23.861,22.349,23.884Z" transform="translate(28.349 30.172)"/><path class="c" d="M22.39,23.812a.992.992,0,0,0,.052-.1.279.279,0,0,1-.019.038.22.22,0,0,0-.023.047S22.39,23.807,22.39,23.812Z" transform="translate(28.402 30.08)"/><path class="c" d="M22.475,23.645a1.2,1.2,0,0,1-.052.113A1.2,1.2,0,0,1,22.475,23.645Z" transform="translate(28.444 29.993)"/><path class="c" d="M22.413,23.737c0-.014.014-.028.019-.042h0A.167.167,0,0,1,22.413,23.737Z" transform="translate(28.431 30.056)"/><path class="c" d="M22.513,8.931a.265.265,0,0,0,.019.056l-.028-.1A.137.137,0,0,0,22.513,8.931Z" transform="translate(28.546 11.276)"/><path class="c" d="M22.533,8.986l.014.056a1.022,1.022,0,0,0-.033-.113C22.524,8.953,22.528,8.972,22.533,8.986Z" transform="translate(28.559 11.328)"/><path class="c" d="M22.529,23.425c0-.023.009-.042.014-.066,0,.009,0,.023,0,.033A.3.3,0,0,1,22.529,23.425Z" transform="translate(28.578 29.631)"/><path class="c" d="M22.531,8.98c0,.023.014.047.019.07,0,0,0-.009,0-.014Z" transform="translate(28.58 11.391)"/><path class="c" d="M22.57,9.186V9.176c0,.009,0,.019,0,.028S22.57,9.19,22.57,9.186Z" transform="translate(28.63 11.641)"/><path class="c" d="M22.578,9.229c0-.033-.009-.066-.014-.094,0,.014,0,.028.009.047A.16.16,0,0,0,22.578,9.229Z" transform="translate(28.622 11.588)"/><path class="c" d="M22.574,9.173a1.413,1.413,0,0,0-.033-.15.017.017,0,0,0,0,.014.962.962,0,0,1,.023.113A.035.035,0,0,0,22.574,9.173Z" transform="translate(28.593 11.446)"/><path class="c" d="M22.574,9.19a.729.729,0,0,0-.019-.1A.728.728,0,0,0,22.574,9.19Z" transform="translate(28.612 11.533)"/><path class="c" d="M22.545,23.4c.009-.056.019-.117.028-.174C22.564,23.287,22.555,23.348,22.545,23.4Z" transform="translate(28.599 29.468)"/><path class="c" d="M22.58,23.082l-.014.141C22.575,23.171,22.575,23.124,22.58,23.082Z" transform="translate(28.625 29.279)"/><path class="c" d="M22.556,23.246c0-.009,0-.019,0-.028A.06.06,0,0,1,22.556,23.246Z" transform="translate(28.612 29.452)"/><path class="c" d="M22.558,23.313c.009-.056.014-.113.019-.169C22.572,23.2,22.567,23.256,22.558,23.313Z" transform="translate(28.614 29.358)"/><path class="c" d="M22.566,23.146Z" transform="translate(28.625 29.356)"/><path class="c" d="M22.572,9.2c0,.009,0,.023,0,.033a.017.017,0,0,0,0-.014A.014.014,0,0,0,22.572,9.2Z" transform="translate(28.633 11.667)"/><path class="c" d="M22.583,23.082c0-.089,0-.174.009-.263v.07C22.587,22.955,22.583,23.021,22.583,23.082Z" transform="translate(28.646 28.945)"/><path class="c" d="M22.587,22.638v0Z" transform="translate(28.651 28.717)"/><path class="c" d="M22.587,22.85v0Z" transform="translate(28.651 28.867)"/><path class="c" d="M22.6,9.478c0-.08-.014-.164-.023-.244V9.22c.009.094.019.193.028.287A.06.06,0,0,1,22.6,9.478Z" transform="translate(28.638 11.696)"/><path class="c" d="M22.589,9.374c0,.028,0,.056,0,.089,0-.038,0-.08,0-.117Z" transform="translate(28.654 11.856)"/><path class="c" d="M22.6,9.548c0-.052,0-.1,0-.15a.6.6,0,0,0,0,.089A.134.134,0,0,0,22.6,9.548Z" transform="translate(28.656 11.922)"/><path class="d" d="M13.339,11.312a3.52,3.52,0,0,1-1.2,2.663,3.142,3.142,0,0,1-4.368-.15A3.565,3.565,0,0,1,7.68,8.935a3.04,3.04,0,0,1,3.067-.963,3.221,3.221,0,0,1,2.428,2.372A7.431,7.431,0,0,1,13.339,11.312Z" transform="translate(8.567 9.993)"/><rect class="c" height="11.174" transform="translate(210.811 42.122)"/><path class="c" d="M50.232,24.8c.009-.094.277-.756.662-1.672-.385.916-.653,1.578-.662,1.672Z" transform="translate(63.718 29.339)"/><path class="c" d="M50.6,23.14c.047-.108.094-.221.141-.333C50.69,22.919,50.643,23.032,50.6,23.14Z" transform="translate(64.18 28.93)"/><path class="c" d="M52.3,9.516c.023-.169.042-.343.07-.512-.028.169-.042.343-.07.512Z" transform="translate(66.347 11.423)"/><path class="c" d="M52.349,9.142c.019-.1.042-.2.066-.305-.023.1-.042.2-.066.305,0,.023-.009.047-.014.075C52.34,9.194,52.345,9.166,52.349,9.142Z" transform="translate(66.386 11.21)"/><path class="c" d="M52.387,9.34A8.025,8.025,0,0,1,52.7,8.321,8.266,8.266,0,0,0,52.387,9.34Z" transform="translate(66.452 10.556)"/><path class="c" d="M52.935,7.671a2.89,2.89,0,0,0-.155.258A2.89,2.89,0,0,1,52.935,7.671Z" transform="translate(66.951 9.731)"/><path class="c" d="M53.383,9.257H53.6A1.731,1.731,0,0,1,53.383,9.257Z" transform="translate(67.715 11.743)"/><path class="c" d="M53.706,9.261c.244,0,.5,0,.766,0C54.208,9.261,53.955,9.261,53.706,9.261Z" transform="translate(68.125 11.748)"/><path class="c" d="M55.06,9.268c.611,0,1.226,0,1.832,0C56.286,9.268,55.67,9.268,55.06,9.268Z" transform="translate(69.842 11.751)"/><path class="c" d="M54.054,9.263c.723,0,1.5,0,2.283,0C55.552,9.268,54.777,9.263,54.054,9.263Z" transform="translate(68.566 11.751)"/><path class="c" d="M80.009,8.415c.028-.08.061-.155.094-.23C80.07,8.26,80.037,8.335,80.009,8.415Z" transform="translate(101.489 10.383)"/><path class="c" d="M80.643,7.352c.056-.066.117-.127.178-.188C80.76,7.225,80.7,7.286,80.643,7.352Z" transform="translate(102.293 9.088)"/></g></g></svg>