<svg xmlns="http://www.w3.org/2000/svg" width="200.164" height="239.02" viewBox="0 0 200.164 239.02">
  <g id="그룹_869" data-name="그룹 869" transform="translate(-4819.836 295.52)">
    <g id="패스_1" data-name="패스 1" transform="translate(4819.836 -287.496)" fill="#fff">
      <path d="M 194.1288604736328 230.4962005615234 L 6.035095691680908 230.4962005615234 C 2.983036756515503 230.4962005615234 0.5000072717666626 227.5671997070312 0.5000072717666626 223.9669952392578 L 0.5000072717666626 8.405500411987305 C 0.5000072717666626 4.805294513702393 2.983036756515503 1.876323699951172 6.035095691680908 1.876323699951172 L 97.46250915527344 1.876323699951172 L 97.73512268066406 1.876323699951172 L 97.88280487060547 1.647176623344421 L 103.552978515625 -7.151669979095459 L 110.2328338623047 1.678000211715698 L 110.3828582763672 1.876323699951172 L 110.6315689086914 1.876323699951172 L 194.1288604736328 1.876323699951172 C 197.1809234619141 1.876323699951172 199.6639556884766 4.805294513702393 199.6639556884766 8.405500411987305 L 199.6639556884766 223.9669952392578 C 199.6639556884766 227.5671997070312 197.1809234619141 230.4962005615234 194.1288604736328 230.4962005615234 Z" stroke="none"/>
      <path d="M 103.5857772827148 -6.279556274414062 L 98.3031005859375 1.918014526367188 L 98.00775909423828 2.376327514648438 L 97.46250915527344 2.376327514648438 L 6.035110473632812 2.376327514648438 C 3.25872802734375 2.376327514648438 1.000015258789062 5.08099365234375 1.000015258789062 8.405487060546875 L 1.000015258789062 223.9669799804688 C 1.000015258789062 227.2915191650391 3.25872802734375 229.9962005615234 6.035110473632812 229.9962005615234 L 194.1288452148438 229.9962005615234 C 196.9052276611328 229.9962005615234 199.1639404296875 227.2915191650391 199.1639404296875 223.9669799804688 L 199.1639404296875 8.405487060546875 C 199.1639404296875 5.08099365234375 196.9052276611328 2.376327514648438 194.1288452148438 2.376327514648438 L 110.6315689086914 2.376327514648438 L 110.134162902832 2.376327514648438 L 109.8340682983398 1.979644775390625 L 103.5857772827148 -6.279556274414062 M 103.520133972168 -8.023788452148438 L 110.6315689086914 1.376327514648438 L 194.1288452148438 1.376327514648438 C 197.4619445800781 1.376327514648438 200.1639404296875 4.523391723632812 200.1639404296875 8.405487060546875 L 200.1639404296875 223.9669799804688 C 200.1639404296875 227.8491058349609 197.4619445800781 230.9962005615234 194.1288452148438 230.9962005615234 L 6.035110473632812 230.9962005615234 C 2.701980590820312 230.9962005615234 1.52587890625e-05 227.8491058349609 1.52587890625e-05 223.9669799804688 L 1.52587890625e-05 8.405487060546875 C 1.52587890625e-05 4.523391723632812 2.701980590820312 1.376327514648438 6.035110473632812 1.376327514648438 L 97.46250915527344 1.376327514648438 L 103.520133972168 -8.023788452148438 Z" stroke="none" fill="#ddd"/>
    </g>
  </g>
</svg>
