<svg width="16" height="16" viewBox="0 0 16 16" fill="none" xmlns="http://www.w3.org/2000/svg">
<path d="M11.8773 3.34442H4.09927C2.5726 3.34442 1.33594 4.56775 1.33594 6.07708V9.92242C1.33594 11.4318 2.57327 12.6558 4.09927 12.6558H11.8773C13.4039 12.6558 14.6406 11.4318 14.6406 9.92242V6.07708C14.6406 4.56775 13.4033 3.34375 11.8773 3.34375V3.34442ZM10.0086 8.18642L6.3706 9.90308C6.34841 9.91377 6.32388 9.91866 6.29929 9.91732C6.2747 9.91597 6.25085 9.90843 6.22996 9.89539C6.20907 9.88235 6.19181 9.86423 6.1798 9.84273C6.1678 9.82123 6.16142 9.79704 6.16127 9.77242V6.23308C6.16127 6.12575 6.2766 6.05575 6.37327 6.10442L10.0119 7.92775C10.0362 7.93984 10.0565 7.95851 10.0706 7.98163C10.0847 8.00476 10.092 8.03138 10.0917 8.05846C10.0913 8.08554 10.0833 8.11197 10.0686 8.13473C10.054 8.15748 10.0331 8.17562 10.0086 8.18708V8.18642Z" fill="#2D2D2D"/>
</svg>
