<svg width="16" height="16" viewBox="0 0 16 16" fill="none" xmlns="http://www.w3.org/2000/svg">
<path d="M14.6693 3.94104C14.1695 4.15929 13.6402 4.3024 13.0986 4.36571C13.6671 4.03186 14.0946 3.50244 14.3013 2.87637C13.7626 3.18992 13.1751 3.41077 12.5633 3.52971C12.3056 3.25984 11.9957 3.0453 11.6524 2.89916C11.3092 2.75302 10.9397 2.67835 10.5666 2.67971C9.05594 2.67971 7.83127 3.88637 7.83127 5.37304C7.83127 5.58371 7.85527 5.78971 7.90194 5.98637C6.81832 5.93484 5.75735 5.65798 4.78672 5.17347C3.81608 4.68895 2.95711 4.00743 2.2646 3.17237C2.02182 3.58197 1.89421 4.04956 1.89527 4.52571C1.89527 5.46104 2.37794 6.28571 3.11127 6.76771C2.67759 6.75371 2.25328 6.63792 1.8726 6.42971V6.46304C1.8726 7.76837 2.81594 8.85704 4.06594 9.10504C3.83101 9.16737 3.58899 9.19897 3.34594 9.19904C3.16927 9.19904 2.99794 9.18237 2.8306 9.14904C3.00933 9.68765 3.35134 10.1572 3.80915 10.4926C4.26696 10.828 4.81783 11.0124 5.38527 11.0204C4.41198 11.7701 3.21715 12.1751 1.9886 12.1717C1.76727 12.1717 1.54994 12.1584 1.33594 12.1344C2.59011 12.9282 4.04433 13.3486 5.5286 13.3464C10.5599 13.3464 13.3106 9.24171 13.3106 5.68237L13.3013 5.33371C13.8378 4.95615 14.3014 4.48427 14.6693 3.94104Z" fill="#2D2D2D"/>
</svg>
