<svg xmlns="http://www.w3.org/2000/svg" xmlns:xlink="http://www.w3.org/1999/xlink" width="16" height="207" viewBox="0 0 16 207">
  <defs>
    <linearGradient id="linear-gradient" x1="0.5" x2="0.5" y2="1" gradientUnits="objectBoundingBox">
      <stop offset="0" stop-color="#fe6130"/>
      <stop offset="1" stop-color="#ffaa30"/>
    </linearGradient>
    <linearGradient id="linear-gradient-2" x1="0.5" x2="0.5" y2="1" gradientUnits="objectBoundingBox">
      <stop offset="0" stop-color="#ffaa30"/>
      <stop offset="1" stop-color="#ff6830"/>
    </linearGradient>
    <filter id="패스_2082" x="0" y="0" width="16" height="19" filterUnits="userSpaceOnUse">
      <feOffset dy="-1" input="SourceAlpha"/>
      <feGaussianBlur stdDeviation="1" result="blur"/>
      <feFlood flood-color="#ff6030" result="color"/>
      <feComposite operator="out" in="SourceGraphic" in2="blur"/>
      <feComposite operator="in" in="color"/>
      <feComposite operator="in" in2="SourceGraphic"/>
    </filter>
  </defs>
  <g id="img_group_pin" transform="translate(-334 -1992)">
    <rect id="사각형_26566" data-name="사각형 26566" width="2" height="190" transform="translate(341 2009)" fill="url(#linear-gradient)"/>
    <g id="img_group_pin-2" data-name="img_group_pin" transform="translate(334 1992)">
      <g data-type="innerShadowGroup">
        <path id="패스_2082-2" data-name="패스 2082" d="M50.655,196.514a7.78,7.78,0,0,1,0-11.13,8.094,8.094,0,0,1,11.314,0,7.78,7.78,0,0,1,0,11.13l-5.657,5.565Z" transform="translate(-48.312 -183.078)" fill="url(#linear-gradient-2)"/>
        <g transform="matrix(1, 0, 0, 1, 0, 0)" filter="url(#패스_2082)">
          <path id="패스_2082-3" data-name="패스 2082" d="M50.655,196.514a7.78,7.78,0,0,1,0-11.13,8.094,8.094,0,0,1,11.314,0,7.78,7.78,0,0,1,0,11.13l-5.657,5.565Z" transform="translate(-48.31 -183.08)" fill="#fff"/>
        </g>
      </g>
      <circle id="타원_233" data-name="타원 233" cx="4.5" cy="4.5" r="4.5" transform="translate(3.519 3.519)" fill="#fff"/>
    </g>
  </g>
</svg>
