<svg xmlns="http://www.w3.org/2000/svg" xmlns:xlink="http://www.w3.org/1999/xlink" width="165.277" height="27.876" viewBox="0 0 165.277 27.876">
  <defs>
    <linearGradient id="linear-gradient" x1="-0.015" y1="0.016" x2="0.701" y2="1.015" gradientUnits="objectBoundingBox">
      <stop offset="0" stop-color="#333"/>
      <stop offset="1" stop-color="#444242"/>
    </linearGradient>
    <clipPath id="clip-path">
      <rect id="사각형_27589" data-name="사각형 27589" width="165.277" height="27.876" transform="translate(0 0)" fill="none"/>
    </clipPath>
    <clipPath id="clip-path-2">
      <rect id="사각형_27591" data-name="사각형 27591" width="7.141" height="0.586" transform="translate(4.622 23.335)" fill="none"/>
    </clipPath>
    <linearGradient id="linear-gradient-3" x1="-3.816" y1="1.096" x2="-3.289" y2="1.096" gradientUnits="objectBoundingBox">
      <stop offset="0" stop-color="#444242"/>
      <stop offset="1" stop-color="#1f1d1d"/>
    </linearGradient>
    <clipPath id="clip-path-3">
      <rect id="사각형_27593" data-name="사각형 27593" width="7.141" height="0.585" transform="translate(4.622 24.455)" fill="none"/>
    </clipPath>
    <linearGradient id="linear-gradient-4" x1="-3.819" y1="0.939" x2="-3.291" y2="0.939" xlink:href="#linear-gradient-3"/>
    <clipPath id="clip-path-5">
      <rect id="사각형_27584" data-name="사각형 27584" width="7.141" height="0.586" fill="url(#linear-gradient)"/>
    </clipPath>
  </defs>
  <g id="img_tip2" transform="translate(0 0)">
    <g id="그룹_21362" data-name="그룹 21362">
      <g id="그룹_21361" data-name="그룹 21361" clip-path="url(#clip-path)">
        <path id="패스_11633" data-name="패스 11633" d="M8.193,4.177a.586.586,0,0,1-.586-.586V.585a.586.586,0,0,1,1.171,0V3.591a.585.585,0,0,1-.585.586" fill="#ffaa30"/>
        <path id="패스_11634" data-name="패스 11634" d="M3.031,5.56a.585.585,0,0,1-.507-.293l-1.5-2.6a.586.586,0,0,1,1.014-.586l1.5,2.6a.586.586,0,0,1-.507.878" fill="#ffaa30"/>
        <path id="패스_11635" data-name="패스 11635" d="M13.355,5.56a.586.586,0,0,1-.507-.878l1.5-2.6a.586.586,0,0,1,1.014.586l-1.5,2.6a.585.585,0,0,1-.507.293" fill="#ffaa30"/>
        <path id="패스_11636" data-name="패스 11636" d="M7.255,5.76A8.187,8.187,0,0,0,3.973,20.913a1.33,1.33,0,0,1,.649,1.136v.005a.065.065,0,0,0,.067.067H11.7a.068.068,0,0,0,.068-.067v-.008a1.325,1.325,0,0,1,.647-1.133A8.187,8.187,0,0,0,7.255,5.76" fill="#ffaa30"/>
        <path id="패스_11637" data-name="패스 11637" d="M13.707,10.779a.3.3,0,0,1-.249-.138,6.211,6.211,0,0,0-3.422-2.648.293.293,0,1,1,.174-.559,6.8,6.8,0,0,1,3.746,2.9.293.293,0,0,1-.249.448" fill="#fff"/>
        <path id="패스_11638" data-name="패스 11638" d="M9.277,27.876H7.027a1.09,1.09,0,0,1-1.089-1.089v-.081a.08.08,0,0,1,.081-.08h4.347a.08.08,0,0,1,.081.08,1.17,1.17,0,0,1-1.17,1.17" fill="#231f20"/>
        <path id="패스_11639" data-name="패스 11639" d="M4.622,22.687v2.289a1.316,1.316,0,0,0,1.315,1.316h4.511a1.316,1.316,0,0,0,1.315-1.316V22.687a.068.068,0,0,0-.068-.068h-7a.068.068,0,0,0-.068.068" fill="#231f20"/>
      </g>
    </g>
    <g id="그룹_21364" data-name="그룹 21364">
      <g id="그룹_21363" data-name="그룹 21363" clip-path="url(#clip-path-2)">
        <rect id="사각형_27590" data-name="사각형 27590" width="1.898" height="7.126" transform="matrix(0.185, -0.983, 0.983, 0.185, 4.515, 23.901)" fill="url(#linear-gradient-3)"/>
      </g>
    </g>
    <g id="그룹_21366" data-name="그룹 21366">
      <g id="그룹_21365" data-name="그룹 21365" clip-path="url(#clip-path-3)">
        <rect id="사각형_27592" data-name="사각형 27592" width="1.897" height="7.126" transform="translate(4.516 25.02) rotate(-79.33)" fill="url(#linear-gradient-4)"/>
      </g>
    </g>
    <g id="그룹_21368" data-name="그룹 21368">
      <g id="그룹_21367" data-name="그룹 21367" clip-path="url(#clip-path)">
        <path id="패스_11640" data-name="패스 11640" d="M10.45,13.127a1.4,1.4,0,0,0-1.4,1.4v.819H7.34V14.53a1.4,1.4,0,1,0-1.4,1.4h.818v6.188H7.34V15.934H9.052v6.188h.585V15.934h.813a1.4,1.4,0,1,0,0-2.807m-3.7,2.222H5.936a.819.819,0,1,1,.818-.819Zm3.7,0H9.632V14.53a.818.818,0,1,1,.818.819" fill="#fff"/>
        <path id="패스_11641" data-name="패스 11641" d="M154.916,27.385H15.443a.76.76,0,1,1,0-1.519H154.916a8.843,8.843,0,0,0,0-17.686H23.83a.76.76,0,0,1,0-1.519H154.916a10.362,10.362,0,0,1,0,20.724" fill="#ffaa30"/>
        <path id="패스_11642" data-name="패스 11642" d="M31.518,13.032v.3a1.884,1.884,0,0,0,.731,1.619c.527.432.994.779,1.342,1.031a.622.622,0,0,1,.109.923.668.668,0,0,1-.936.193c-.277-.193-.7-.516-1.175-.9-.575-.468-.756-.672-.816-.9h-.011c-.061.263-.277.515-.852.983-.479.384-.912.707-1.391,1.043a.71.71,0,0,1-.8-1.163c.54-.384,1.007-.731,1.535-1.163a1.885,1.885,0,0,0,.732-1.619v-.349h-1.8c-.372,0-.539-.3-.539-.647s.167-.648.539-.648h5.012c.373,0,.541.3.541.648s-.168.647-.541.647ZM34.839,19.7c0-.2-.071-.276-.276-.276H29.5c-.371,0-.539-.3-.539-.648s.168-.647.539-.647h5.852c.769,0,1.02.24,1.02,1v2.627c0,.443-.371.647-.769.647s-.766-.2-.766-.647Zm1.535-2.663c0,.444-.371.648-.769.648s-.766-.2-.766-.648V11.773c0-.443.372-.647.766-.647s.769.2.769.647Z" fill="#333"/>
        <path id="패스_11643" data-name="패스 11643" d="M38.646,18.67c-.371,0-.54-.3-.54-.647s.169-.649.54-.649h9.068c.372,0,.54.3.54.649s-.168.647-.54.647H43.948V21.8c0,.443-.372.647-.767.647s-.768-.2-.768-.647V18.67Zm1.789-2.411c-.768,0-1.02-.239-1.02-1V12.613c0-.755.252-1,1.02-1h5.492c.767,0,1.018.241,1.018,1v2.651c0,.756-.251,1-1.018,1Zm4.689-1.3c.2,0,.275-.072.275-.276v-1.5c0-.2-.073-.276-.275-.276H41.236c-.2,0-.274.072-.274.276v1.5c0,.2.072.276.274.276Z" fill="#333"/>
        <path id="패스_11644" data-name="패스 11644" d="M52.122,11.569A2.559,2.559,0,0,1,54.928,14.3a2.807,2.807,0,0,1-5.613,0,2.559,2.559,0,0,1,2.807-2.735m0,1.272c-.983,0-1.344.647-1.344,1.463s.361,1.463,1.344,1.463,1.343-.648,1.343-1.463-.36-1.463-1.343-1.463m4.629,6.86c0-.2-.072-.276-.276-.276H51.366c-.372,0-.54-.3-.54-.648s.168-.647.54-.647h5.9c.768,0,1.02.24,1.02,1v2.627c0,.443-.372.647-.768.647s-.767-.2-.767-.647Zm1.535-2.663a.764.764,0,0,1-1.511,0v-.971H55.72c-.372,0-.528-.3-.528-.66s.156-.647.528-.647h1.055v-.852H55.72c-.372,0-.528-.3-.528-.659s.156-.648.528-.648h1.055v-.828a.765.765,0,0,1,1.511,0Z" fill="#333"/>
        <path id="패스_11645" data-name="패스 11645" d="M64.385,11.665c.767,0,1.019.24,1.019,1v1.546c0,.756-.252,1-1.019,1H62.106c-.2,0-.276.072-.276.276v.527c0,.2.072.277.276.277a28.347,28.347,0,0,0,3.79-.229.547.547,0,0,1,.623.54c.036.348-.084.672-.431.72a35.371,35.371,0,0,1-4.738.24c-.767,0-1.019-.24-1.019-1V15c0-.755.252-1,1.019-1h2.279c.2,0,.276-.071.276-.275v-.516c0-.2-.072-.276-.276-.276H60.835c-.361,0-.516-.3-.516-.636s.155-.635.516-.635Zm.731,6.524c2.207,0,3.538.672,3.538,2.136s-1.331,2.134-3.538,2.134-3.538-.66-3.538-2.134,1.331-2.136,3.538-2.136m0,1.212c-1.463,0-2.015.359-2.015.924s.552.923,2.015.923,2.015-.36,2.015-.923-.551-.924-2.015-.924m3.5-6.549H69.65c.371,0,.539.3.539.66s-.168.648-.539.648H68.618v.731H69.65c.371,0,.539.3.539.66s-.168.648-.539.648H68.618v1.247c0,.443-.371.647-.768.647s-.767-.2-.767-.647V11.773c0-.443.372-.648.767-.648s.768.2.768.648Z" fill="#333"/>
        <path id="패스_11646" data-name="패스 11646" d="M78.46,11.725l-3.406,9.99a.663.663,0,0,1-.9.384.584.584,0,0,1-.444-.779l3.4-9.991a.661.661,0,0,1,.9-.383.6.6,0,0,1,.456.779" fill="#333"/>
        <path id="패스_11647" data-name="패스 11647" d="M82.6,17.338c-.372,0-.54-.3-.54-.648s.168-.635.54-.635h3V14.712c0-.432.372-.636.767-.636s.768.2.768.636v1.343h4.533c.372,0,.54.3.54.635s-.168.648-.54.648Zm1.175-4.449c-.371,0-.539-.3-.539-.66s.168-.66.539-.66h6.092c.768,0,1.02.24,1.02,1v.875A5.435,5.435,0,0,1,90.7,15a.743.743,0,0,1-.948.468.618.618,0,0,1-.539-.781,5.606,5.606,0,0,0,.144-1.283v-.239c0-.2-.073-.276-.276-.276Zm3.358,5.229c2.351,0,3.778.672,3.778,2.183s-1.427,2.182-3.778,2.182-3.778-.672-3.778-2.182,1.427-2.183,3.778-2.183m0,1.211c-1.607,0-2.255.36-2.255.972s.648.971,2.255.971,2.255-.36,2.255-.971-.648-.972-2.255-.972" fill="#333"/>
        <path id="패스_11648" data-name="패스 11648" d="M93.509,18.082c-.359,0-.527-.276-.527-.624s.168-.611.527-.611H97.3v-.732H95.321c-.768,0-1.02-.24-1.02-1V12.445c0-.756.252-1,1.02-1h5.961c.335,0,.491.277.491.588s-.156.6-.491.6H95.956a.158.158,0,0,0-.179.179v.4h5.4c.324,0,.48.264.48.563s-.156.576-.48.576h-5.4v.4a.158.158,0,0,0,.179.18h5.5c.336,0,.491.275.491.588s-.155.6-.491.6h-2.65v.732h3.79c.359,0,.527.275.527.611s-.168.624-.527.624Zm4.546.468c2.351,0,3.778.575,3.778,1.978s-1.427,1.98-3.778,1.98-3.778-.576-3.778-1.98S95.7,18.55,98.055,18.55m0,1.2c-1.607,0-2.255.288-2.255.779s.648.781,2.255.781,2.255-.289,2.255-.781-.648-.779-2.255-.779" fill="#333"/>
        <path id="패스_11649" data-name="패스 11649" d="M107,11.569A2.559,2.559,0,0,1,109.8,14.3a2.807,2.807,0,0,1-5.613,0A2.559,2.559,0,0,1,107,11.569m0,1.272c-.983,0-1.344.647-1.344,1.463s.361,1.463,1.344,1.463,1.343-.648,1.343-1.463-.36-1.463-1.343-1.463m4.629,6.86c0-.2-.072-.276-.276-.276h-5.109c-.372,0-.54-.3-.54-.648s.168-.647.54-.647h5.9c.768,0,1.02.24,1.02,1v2.627c0,.443-.372.647-.768.647s-.767-.2-.767-.647Zm1.535-2.663a.764.764,0,0,1-1.511,0v-.971H110.6c-.372,0-.528-.3-.528-.66s.156-.647.528-.647h1.055v-.852H110.6c-.372,0-.528-.3-.528-.659s.156-.648.528-.648h1.055v-.828a.765.765,0,0,1,1.511,0Z" fill="#333"/>
        <path id="패스_11650" data-name="패스 11650" d="M119.26,11.665c.767,0,1.019.24,1.019,1v1.546c0,.756-.252,1-1.019,1h-2.279c-.2,0-.276.072-.276.276v.527c0,.2.072.277.276.277a28.347,28.347,0,0,0,3.79-.229.547.547,0,0,1,.623.54c.036.348-.084.672-.431.72a35.371,35.371,0,0,1-4.738.24c-.767,0-1.019-.24-1.019-1V15c0-.755.252-1,1.019-1H118.5c.2,0,.276-.071.276-.275v-.516c0-.2-.072-.276-.276-.276H115.71c-.361,0-.516-.3-.516-.636s.155-.635.516-.635Zm.731,6.524c2.207,0,3.538.672,3.538,2.136s-1.331,2.134-3.538,2.134-3.538-.66-3.538-2.134,1.331-2.136,3.538-2.136m0,1.212c-1.463,0-2.015.359-2.015.924s.552.923,2.015.923,2.015-.36,2.015-.923-.551-.924-2.015-.924m3.5-6.549h1.032c.371,0,.539.3.539.66s-.168.648-.539.648h-1.032v.731h1.032c.371,0,.539.3.539.66s-.168.648-.539.648h-1.032v1.247c0,.443-.371.647-.768.647s-.767-.2-.767-.647V11.773c0-.443.372-.648.767-.648s.768.2.768.648Z" fill="#333"/>
        <path id="패스_11651" data-name="패스 11651" d="M128.991,11.737c1.919,0,2.891,1.284,2.891,3.647s-.972,3.645-2.891,3.645-2.89-1.283-2.89-3.645.972-3.647,2.89-3.647m0,1.331c-1.042,0-1.415.8-1.415,2.316s.373,2.314,1.415,2.314,1.416-.8,1.416-2.314-.372-2.316-1.416-2.316m5.937,7.892c0,.444-.371.648-.779.648s-.768-.2-.768-.648V11.773c0-.443.372-.647.768-.647s.779.2.779.647Z" fill="#333"/>
        <path id="패스_11652" data-name="패스 11652" d="M137.561,13.045c-.36,0-.528-.3-.528-.636s.168-.647.528-.647H141.1c.767,0,1.019.239,1.019.995v1.667c0,.756-.252.995-1.019.995H138.82c-.2,0-.276.072-.276.276v.636c0,.2.072.275.276.275a28.364,28.364,0,0,0,3.79-.227.549.549,0,0,1,.623.552c.037.347-.084.672-.431.719a35.372,35.372,0,0,1-4.738.24c-.767,0-1.019-.24-1.019-.995V15.2c0-.755.252-.995,1.019-.995h2.279c.2,0,.276-.072.276-.275V13.32c0-.2-.072-.275-.276-.275Zm1.691,9.115c-.768,0-1.02-.24-1.02-1V19.257c0-.444.373-.648.78-.648s.767.2.767.648v1.319c0,.2.073.277.277.277h5c.372,0,.54.3.54.659s-.168.648-.54.648Zm7.208-8.036c.384,0,.552.3.552.66s-.168.671-.552.671h-1.128v3.2c0,.445-.371.649-.768.649s-.767-.2-.767-.649V11.773c0-.443.372-.647.767-.647s.768.2.768.647v2.351Z" fill="#333"/>
        <path id="패스_11653" data-name="패스 11653" d="M153.218,14.028v.132c0,.779-.311,1.3-1.439,2.314-.7.624-.791.876-.791,1.38a.632.632,0,0,1-.7.587c-.4,0-.733-.191-.733-.623a2.247,2.247,0,0,1,1-2.039c.995-.863,1.127-1.128,1.127-1.607v-.06c0-.5-.347-.947-1.295-.947a2.532,2.532,0,0,0-1.523.515.6.6,0,0,1-.875-.168.642.642,0,0,1,.084-.935,3.759,3.759,0,0,1,2.362-.768c1.739,0,2.782.911,2.782,2.219m-2.026,6.129a.911.911,0,1,1-.912-.912.9.9,0,0,1,.912.912" fill="#333"/>
      </g>
    </g>
    <g id="그룹_21370" data-name="그룹 21370" transform="translate(4.622 23.334)">
      <g id="그룹_21354" data-name="그룹 21354" clip-path="url(#clip-path-5)">
        <rect id="사각형_27583" data-name="사각형 27583" width="1.898" height="7.126" transform="matrix(0.185, -0.983, 0.983, 0.185, -0.107, 0.566)" fill="url(#linear-gradient)"/>
      </g>
    </g>
    <g id="그룹_21371" data-name="그룹 21371" transform="translate(4.622 24.455)">
      <g id="그룹_21354-2" data-name="그룹 21354" clip-path="url(#clip-path-5)">
        <rect id="사각형_27583-2" data-name="사각형 27583" width="1.898" height="7.126" transform="matrix(0.185, -0.983, 0.983, 0.185, -0.107, 0.566)" fill="url(#linear-gradient)"/>
      </g>
    </g>
  </g>
</svg>
