<svg xmlns="http://www.w3.org/2000/svg" xmlns:xlink="http://www.w3.org/1999/xlink" width="120" height="40" viewBox="0 0 120 40"><defs><style>.a{fill:#fff;}.b{clip-path:url(#a);}.c{fill:#363c63;}.d{fill:#65b1e3;}</style><clipPath id="a"><rect class="a" width="120" height="40" transform="translate(127 17)"/></clipPath></defs><g class="b" transform="translate(-127 -17)"><g transform="translate(-9.277 -1760.038)"><path class="a" d="M172.219,1793.165a9.834,9.834,0,0,0-.843-3.958,11.371,11.371,0,0,0-1.856-2.815,15.711,15.711,0,0,0-3.646-3.095c-1.755-1.1-3.549-2.139-5.364-3.14a12.891,12.891,0,0,0-2.058-.973c-.446-.152-.892-.307-1.345-.44a6.413,6.413,0,0,0-2.921-.168,12.774,12.774,0,0,0-2.09.62,8.492,8.492,0,0,0-1.168.5q-3.332,1.763-6.515,3.784a14.81,14.81,0,0,0-3.143,2.658,12.481,12.481,0,0,0-1.786,2.46,9.918,9.918,0,0,0-1.145,4.587c-.005.7-.005,1.4,0,2.109v5.577a9.928,9.928,0,0,0,1.148,4.61,12.619,12.619,0,0,0,1.856,2.53,15.652,15.652,0,0,0,3.421,2.809q2.771,1.727,5.64,3.285a11.822,11.822,0,0,0,1.88.844q.545.183,1.1.354a6.026,6.026,0,0,0,3.246.138c.705-.169,1.393-.415,2.081-.653a7.359,7.359,0,0,0,1.028-.458c2.009-1.063,3.964-2.215,5.9-3.4a16.41,16.41,0,0,0,4.408-3.88,9.785,9.785,0,0,0,2.172-6.121C172.232,1798.336,172.221,1795.755,172.219,1793.165Zm-26.047-3.826v-.075a.064.064,0,0,1,0-.01.053.053,0,0,1,0-.006c0-.01,0-.02,0-.029,0-.042.008-.084.015-.125s.009-.055.014-.084.012-.054.019-.084a.13.13,0,0,1,.008-.03l.008-.031.009-.03.009-.03q.013-.04.028-.078c.01-.026.019-.047.029-.07l.007-.015.007-.016.015-.033.016-.033.017-.032c.011-.022.024-.043.035-.065s.029-.048.045-.072l.029-.043,0-.007.03-.042.019-.025.027-.034.024-.029.024-.029.025-.028.031-.033.016-.016.016-.016c.04-.039.084-.076.121-.11l.031-.025.031-.025.032-.024.025-.018a1.588,1.588,0,0,1,.244-.14l.03-.013h.006l.019-.008c.024-.01.05-.02.075-.029l.021-.007.063-.019h.014c.03-.008.061-.015.092-.022l.022,0h.007l.041-.007h.008l.039,0h.025l.066-.005h.149a.971.971,0,0,1,.123.009h.03l.039.005.067.011.033.007.051.011.051.013.016,0,.051.014h0l.044.014.02.007h0l.046.016.045.018h.01l.052.023.05.023h0l.042.022.012.006.043.025.04.024h0l.017.011.023.015.02.014c.026.019.052.038.077.057l.009.008a1.544,1.544,0,0,1,.227.228l.033.042.033.045c.011.015.019.028.029.042l0,.007c.008.012.016.024.023.036l.025.043.015.026h0l.013.024.012.022.019.036.017.035.01.021c.01.023.02.045.03.068l.013.03.016.041c.008.021.016.042.023.063l.009.029.015.047.007.022.006.023a.228.228,0,0,0,.011.046c0,.015.005.025.008.038l.007.039a.329.329,0,0,0,.006.039c.005.034.01.068.014.1s.009.072.014.108a.081.081,0,0,0,0,.031.318.318,0,0,1,.008.048,1.807,1.807,0,0,1-.615,1.363,1.609,1.609,0,0,1-2.234-.076l-.024-.024-.024-.025-.023-.025-.019-.022-.011-.013-.018-.021-.025-.032-.019-.025-.019-.025c-.014-.019-.027-.038-.039-.057l-.018-.028-.019-.029-.01-.018-.009-.015-.008-.015-.015-.027-.017-.031c-.014-.026-.026-.053-.039-.079a1.831,1.831,0,0,1-.076-.2v-.013a.14.14,0,0,0-.009-.031l-.011-.04a.227.227,0,0,0-.01-.04l-.008-.035a.037.037,0,0,0-.005-.023.166.166,0,0,1-.008-.041.066.066,0,0,1,0-.023.3.3,0,0,0-.007-.039v-.036c0-.021-.006-.042-.008-.064a.158.158,0,0,1,0-.03v-.029h0v-.071h0v-.049c0-.017,0-.032,0-.04Zm18.376,2.017v13.893a.259.259,0,0,1-.007.072c-.007.064-.015.128-.025.191a.31.31,0,0,1-.012.062v.033l-.007.03v.014a.165.165,0,0,1-.012.045l-.022.071c-.008.023-.016.046-.025.07s-.018.046-.028.068l-.027.058-.02.04-.013.024-.026.047v.005l-.024.04-.007.011-.026.041-.033.047-.035.046-.034.042-.047.055q-.041.047-.084.089l-.03.028-.039.035-.035.03-.039.03-.04.03-.04.028-.028.019c-.034.022-.067.043-.1.062l-.026.014-.03.016-.031.015q-.055.026-.111.048l-.024.009-.038.014-.029.01-.084.025h0l-.067.016-.024,0h-.011l-.025,0-.046.008h-.019l-.078.008h-.282a1.417,1.417,0,0,1-.164-.018l-.037-.007-.066-.014-.04-.01-.039-.011-.015,0-.024-.008-.062-.021-.063-.024-.053-.024h-.009c-.038-.018-.076-.037-.113-.057l-.029-.017-.057-.035c-.035-.022-.069-.045-.1-.07l-.022-.017a1.753,1.753,0,0,1-.137-.116l-.024-.024-.03-.009-.023-.023-.023-.024-.03-.035-.019-.023-.015-.018-.028-.036-.023-.03c-.03-.041-.058-.084-.084-.126l-.018-.029-.022-.039v-.006l-.024-.045-.02-.042-.022-.048-.02-.049-.013-.033c-.006-.015-.011-.03-.016-.044l-.009-.028-.013-.042-.018-.068-.008-.034a.292.292,0,0,0-.011-.052c-.007-.035-.013-.071-.017-.106a.379.379,0,0,0-.007-.053c-.008-.072-.013-.144-.014-.216v-11.179h-.056l-.013,0-.024.013-.009.007h0l-.008.008-.005,0-.005.005-.014.016-.008.011-.008.011-.008.011-.008.011-.013.016v.005q-.855.966-1.709,1.933l-1.708,1.933-.289.325-.145.162-.144.163-.125.142-.012.013-.09.1h0l-.067.078-.007.008-.04.046-.023.026-.036.04-.029.031-.039.038-.034.031-.025.023-.005,0-.023.02-.008.007-.019.015-.051.04-.041.031q-.047.034-.1.063l-.051.031-.052.029c-.037.019-.074.037-.112.053l-.017.007-.027.011-.014,0-.067.025-.024.008-.062.019-.019.005-.075.018h-.021l-.076.014-.043.006h-.013l-.049,0h-.341l-.036,0c-.035,0-.068-.012-.1-.019l-.047-.011-.044-.012-.025-.008-.046-.014-.042-.013h0l-.052-.019h0l-.045-.018h-.006l-.05-.022-.052-.024-.052-.026-.441-.229-.442-.228-.5-.253-.387-.2-.443-.225-.443-.224-.887-.449-1.181-.6h0c-.078-.04-.157-.076-.288-.14v8.15a2.551,2.551,0,0,1-.011.29.682.682,0,0,1-.01.092c0,.03-.006.04-.008.06a.075.075,0,0,0,0,.025v.015a.219.219,0,0,1-.009.046c0,.015,0,.018-.006.027a.26.26,0,0,0-.011.047c0,.015,0,.014-.006.022a.094.094,0,0,1,0,.011.113.113,0,0,1-.008.028v.007a.145.145,0,0,1-.013.04l-.016.047q-.023.062-.048.12l-.018.039-.028.057h0l-.028.051-.021.036-.027.044-.017.026-.023.035-.024.033c-.032.044-.066.086-.1.127-.021.024-.044.048-.067.071l-.03.029-.03.028q-.04.037-.084.072l-.024.019a1.659,1.659,0,0,1-.162.11l-.024.014-.036.02-.03.016-.051.025-.03.013-.043.019-.019.009-.084.031-.042.013-.044.013-.023.006-.023.006h-.008l-.04.009-.032.007-.027.005-.047.008-.042.006h-.021l-.051.005h-.146a1.745,1.745,0,0,1-.186-.01,1.725,1.725,0,0,1-1.453-1.484c0-.021-.005-.042-.007-.062a.277.277,0,0,0,0-.049c0-.016,0-.044-.005-.066a.135.135,0,0,1,0-.045h0V1802.5h0v-8.371a.855.855,0,0,1,.006-.124c.006-.04.006-.084.009-.124a.148.148,0,0,1,.005-.047c.005-.015,0-.033.006-.049a.319.319,0,0,0,.008-.049c.005-.032.011-.065.018-.1s.014-.063.023-.094.021-.074.034-.111a.11.11,0,0,1,.013-.035c.017-.047.036-.094.057-.138l.016-.034c.011-.022.021-.044.033-.065l.035-.063.028-.045.029-.045.014-.02.014-.02c.011-.016.022-.031.034-.046l.044-.054.028-.032.041-.045.024-.024.024-.024.024-.023.025-.023.047-.04.015-.013.042-.033.03-.022.037-.026.073-.046.037-.022c.028-.016.056-.03.084-.045l.04-.019.04-.019.041-.017.032-.012.033-.012.04-.014.04-.013.037-.01h0l.041-.01.027-.006.057-.012.075-.012.045-.006.055-.005h.126a1.687,1.687,0,0,1,.775.19c2.024,1.045,4.061,2.069,6.092,3.1.078.04.156.077.253.123h0l.046-.05.046-.048.067-.072.022-.024,6.326-7.16c.058-.066.116-.133.176-.2l.032-.033c.021-.021.042-.041.064-.062s.044-.039.066-.057l.013-.011.02-.016.027-.02.032-.023.045-.031.035-.023.035-.022.036-.021.036-.021.019-.009.019-.009.03-.014c.034-.016.067-.031.1-.044l.039-.015.038-.014h0l.079-.025.06-.015.03-.007.034-.008.037-.007a.773.773,0,0,1,.084-.012l.04,0,.084-.006h.109a1.5,1.5,0,0,1,.169.012h.055a.449.449,0,0,1,.084.015l.027.006.027.006.054.014.053.016.027.009.025.009a1.519,1.519,0,0,1,.157.066l.025.013c.025.012.05.026.075.04l.028.016.031.019.024.015.037.025.046.033.046.036.022.019.029.024c.029.025.057.051.084.079l.025.026.014.015.016.018.02.022.039.045.031.04.024.033c.02.027.04.056.059.084l.019.03c.01.016.02.033.03.05l.014.024.019.036.021.04.026.055c.012.027.024.056.035.084s.014.037.021.056.013.037.019.057.012.038.017.056.011.038.015.057.005.019.007.029.008.039.013.058.011.058.016.084l0,.029v.053c.005.042.009.083.012.125v.184q-.036.935-.036,1.871Z" transform="translate(0 0)"/><path class="a" d="M1751.719,2587.657a1.819,1.819,0,0,1-.068.542,1.181,1.181,0,0,1-2.285-.161,2.459,2.459,0,0,1-.033-.43v-7.935l-.062-.009c-.05.072-.1.143-.148.217l-2.952,4.4a2.841,2.841,0,0,1-.181.253,1.19,1.19,0,0,1-1.862-.015c-.065-.084-.122-.168-.18-.253l-2.943-4.386c-.048-.072-.1-.142-.174-.246a1.329,1.329,0,0,0-.04.175c-.006.079,0,.16,0,.24v7.489a3.438,3.438,0,0,1-.021.431,1.185,1.185,0,0,1-2.353-.011,2.84,2.84,0,0,1-.016-.338q0-5.918,0-11.834a1.739,1.739,0,0,1,.045-.475,1.145,1.145,0,0,1,.941-.856,1.111,1.111,0,0,1,1.145.443c.181.234.337.487.506.731q1.934,2.868,3.868,5.729c.049.073.1.143.168.243.066-.091.122-.164.169-.24l4.177-6.215c.063-.093.123-.188.193-.274a1.165,1.165,0,0,1,1.3-.376,1.181,1.181,0,0,1,.81,1.057c0,.072,0,.143,0,.216Q1751.727,2581.718,1751.719,2587.657Z" transform="translate(-1561.635 -776.845)"/><path class="a" d="M4534.188,2584.76c.055-.033.112-.062.17-.094a5.264,5.264,0,0,0-2.531-9.873c-.856-.008-1.713,0-2.568,0-.48,0-.961-.006-1.441,0a1.2,1.2,0,0,0-1.227,1.085,2.563,2.563,0,0,0-.01.312v12a1.2,1.2,0,0,0,2.258.511,1.3,1.3,0,0,0,.13-.626v-2.752h2.12a.466.466,0,0,1,.376.157c.511.541,1.033,1.073,1.549,1.608.618.639,1.229,1.284,1.856,1.914a1.174,1.174,0,0,0,1.969-.492,1.194,1.194,0,0,0-.32-1.256q-1.1-1.124-2.193-2.251c-.06-.061-.116-.126-.168-.186A.225.225,0,0,1,4534.188,2584.76Zm-.037-3.025-.04.054a2.538,2.538,0,0,1-.169.2l-.051.055-.026.027-.026.026c-.026.026-.052.052-.081.077l-.028.025-.017.015-.038.033c-.021.019-.042.036-.065.054l-.031.025-.046.035h0l-.042.031-.088.062-.034.022-.079.05-.026.015a.711.711,0,0,1-.084.045l-.034.018-.033.018-.028.014-.036.017-.05.024-.037.016-.034.015-.046.019-.037.015h0l-.046.017-.018.006-.051.017-.056.018h0l-.025.008h-.008l-.039.011-.06.016a2.586,2.586,0,0,1-.264.054h-.02l-.064.009-.064.008-.061.006-.084.005h-.065c-.935.024-1.872.005-2.808,0h-.017a.767.767,0,0,1-.08-.011h-.031V2577.2a1.949,1.949,0,0,1,.21-.022c.879,0,1.76-.013,2.639,0a2.647,2.647,0,0,1,.3.019c.049.005.1.012.146.02a2.932,2.932,0,0,1,.55.147l.131.053.063.028.051.024.029.015.046.024.062.033.044.026.036.02.021.012.028.018c.037.022.071.045.106.068l.048.034.035.025.035.026c.035.026.067.052.1.08l.053.045c.034.03.068.062.1.093l.049.048.048.049.046.051.042.048.012.015.034.042h0l.036.046.012.016.036.046.039.056h0c.026.037.052.075.076.114h0l.035.058.028.048c.025.043.05.085.072.133l.058.125h0c.018.042.037.084.053.128.007.018.014.035.02.054a.114.114,0,0,1,.007.022l.016.044.02.063a.22.22,0,0,0,.009.029h0c0,.013.009.028.013.042l.005.018v.01l.012.044v.007c.011.045.021.09.031.135,0,.026.01.053.014.084s.006.035.008.053h0v.025c0,.018,0,.035.006.054.005.047.011.1.014.144a.359.359,0,0,0,0,.073.458.458,0,0,1,0,.073v.158c0,.094-.011.187-.022.279a.412.412,0,0,1-.01.068c0,.023-.007.045-.011.068s-.007.045-.012.068c-.014.067-.029.134-.047.2-.006.022-.013.044-.019.066-.014.044-.027.084-.042.128-.006.021-.015.042-.023.063s-.016.042-.024.063-.017.041-.026.062l-.024.054-.033.068c-.019.04-.04.079-.062.119l-.033.058a.834.834,0,0,1-.136.23Z" transform="translate(-4282.861 -777.188)"/><path class="a" d="M4029.138,2587.86a1.2,1.2,0,0,1-1.134.994c-.072,0-.145,0-.216,0H4020.2a2.139,2.139,0,0,1-.337-.019,1.194,1.194,0,0,1-1.033-1.15c0-.055,0-.112,0-.169v-11.881a2.173,2.173,0,0,1,.031-.381,1.181,1.181,0,0,1,1.17-.976c1.144-.006,2.289,0,3.433,0h4.465a1.2,1.2,0,1,1,.1,2.4c-.1.006-.191,0-.289,0h-6.47a30.143,30.143,0,0,0-.033,3.374c.095.006.2.017.3.017h4.225a2.09,2.09,0,0,1,.453.036,1.2,1.2,0,0,1-.223,2.367c-.085,0-.177,0-.264,0h-4.493v3.96h6.588a1.71,1.71,0,0,1,.541.08,1.186,1.186,0,0,1,.774,1.349Z" transform="translate(-3787.31 -776.688)"/><path class="a" d="M2383.667,2587.951q-1.93-4.391-3.855-8.784-.718-1.636-1.434-3.272a1.187,1.187,0,0,0-2.175,0c-.02.044-.038.084-.058.132l-4.846,11.05c-.147.337-.3.67-.438,1.012a1.2,1.2,0,1,0,2.217.9q.563-1.3,1.13-2.594c.035-.079.073-.158.111-.238h5.946c.039.084.078.163.112.243l1.071,2.463a2.634,2.634,0,0,0,.136.281,1.2,1.2,0,0,0,1.2.583,1.22,1.22,0,0,0,1-.914,1.273,1.273,0,0,0-.12-.864Zm-8.251-4.218h0v-.014h0v-.01h0v-.012h0v-.028h0l0-.013h0l.006-.016h0l.006-.017h0l.006-.016.017-.042v-.009h0v-.008l0-.013.008-.019.013-.033.009-.021.014-.035v-.007h0l.031-.074s.005-.01.007-.017h0v0l.006-.014v-.005l.006-.015h0v-.009l.011-.026.015-.036h0v-.009l.012-.029h0l.008-.018.042-.1.026-.062,0-.012.009-.02.014-.032.019-.044.067-.161.018-.042.018-.042.036-.084.019-.044.037-.085.038-.089.1-.229.061-.141c.48-1.115,1.037-2.367,1.131-2.517.064.073.622,1.3,1.115,2.43l.062.142.041.094.041.093.02.046.116.269c.094.219.18.422.253.6.034.084.065.157.093.225l.023.056.031.078.009.023.018.045.008.021.014.038.018.049.01.027a.45.45,0,0,1,.013.045c-.126.032-3.4.041-3.7,0Z" transform="translate(-2178.815 -777.573)"/><path class="a" d="M3000.921,2587.744a4.32,4.32,0,0,1-2.638,1.54,5.32,5.32,0,0,1-3.356-.356,4.231,4.231,0,0,1-2.5-3.432c-.02-.142-.014-.288-.021-.431a1.188,1.188,0,0,1,1.147-1.229A1.209,1.209,0,0,1,2994.8,2585a2.552,2.552,0,0,0,.121.68,1.871,1.871,0,0,0,1.336,1.2,3.151,3.151,0,0,0,1.94-.051,1.932,1.932,0,0,0,1.28-2.206,1.139,1.139,0,0,0-.5-.788,3.694,3.694,0,0,0-.741-.388c-.59-.209-1.187-.379-1.779-.576-.454-.152-.911-.3-1.354-.484a4.351,4.351,0,0,1-1.4-.916,3.253,3.253,0,0,1-.984-2.082,4.024,4.024,0,0,1,.8-2.891,4.091,4.091,0,0,1,2.683-1.579c.314-.055.635-.071.808-.089a4.761,4.761,0,0,1,3.024.909,3.949,3.949,0,0,1,1.591,3.215,1.2,1.2,0,0,1-2.4.015,1.712,1.712,0,0,0-1.509-1.694,2.9,2.9,0,0,0-1.4.07,1.675,1.675,0,0,0-1.218,1.791.907.907,0,0,0,.38.717,2.733,2.733,0,0,0,.6.337c.57.208,1.148.4,1.728.578a12.9,12.9,0,0,1,1.649.585,4.888,4.888,0,0,1,1.314.874,3.555,3.555,0,0,1,1.1,2.332,4.271,4.271,0,0,1-.955,3.18Z" transform="translate(-2785.53 -777.233)"/><path class="a" d="M3476.893,2576.126a1.158,1.158,0,0,1-1.131,1.121c-1.012.017-2.032.006-3.048.007h-.318v10.986a1.209,1.209,0,0,1-2.417-.021c0-.1,0-.191,0-.288v-10.659c-.106-.007-.2-.019-.29-.019h-2.9a1.7,1.7,0,0,1-.427-.041,1.181,1.181,0,0,1-.874-1.248,1.2,1.2,0,0,1,1.142-1.1c.08-.006.16,0,.24,0h8.642a2.457,2.457,0,0,1,.406.028A1.18,1.18,0,0,1,3476.893,2576.126Z" transform="translate(-3247.242 -777.26)"/><path class="a" d="M4428.4,2031.225c-.127.437-.27.871-.409,1.3q-1.265,3.975-2.537,7.951a1.847,1.847,0,0,1-.084.225.56.56,0,0,1-.49.337.538.538,0,0,1-.526-.269,1.725,1.725,0,0,1-.132-.282q-1.107-2.76-2.215-5.52c-.037-.093-.079-.184-.118-.276h-.049c-.034.078-.067.155-.1.233l-2.245,5.587a2.011,2.011,0,0,1-.094.22.6.6,0,0,1-1.065-.031,2.978,2.978,0,0,1-.123-.363q-1.411-4.445-2.82-8.892a2.367,2.367,0,0,1-.075-.278.634.634,0,0,1,.4-.708.625.625,0,0,1,.734.355,1.969,1.969,0,0,1,.07.2q1.151,3.635,2.3,7.269c.029.091.063.18.115.329.057-.129.1-.207.127-.289q1.079-2.707,2.155-5.415a2.007,2.007,0,0,1,.094-.22.578.578,0,0,1,.551-.319.544.544,0,0,1,.516.331c.085.181.155.368.229.554q1.019,2.537,2.036,5.075c.031.078.07.153.126.279.047-.129.078-.208.1-.289q1.155-3.646,2.309-7.293c.019-.061.035-.123.059-.182a.618.618,0,0,1,.735-.389A.626.626,0,0,1,4428.4,2031.225Z" transform="translate(-4174.275 -245.899)"/><path class="a" d="M2621.38,2036.658a.619.619,0,0,0,.675-.675,6.056,6.056,0,0,0-.476-2.406,4.514,4.514,0,0,0-4.976-2.789,4.388,4.388,0,0,0-3.273,2.277,5.919,5.919,0,0,0-.489,4.8,4.74,4.74,0,0,0,4.918,3.458,4.629,4.629,0,0,0,3.789-2.325.634.634,0,0,0,.043-.084.614.614,0,0,0-1.114-.517,3.416,3.416,0,0,1-3.587,1.653,3.731,3.731,0,0,1-3.087-3.389h6.639C2620.757,2036.658,2621.068,2036.658,2621.38,2036.658Zm-1.166-1.259h-.64l-.695.006h-4.653l-.157,0h-.269a.1.1,0,0,1,0-.033c0-.011,0-.012,0-.018a.527.527,0,0,1,.009-.064l.006-.049a.46.46,0,0,1,.009-.067l.005-.033.007-.037c.01-.052.021-.1.033-.156.006-.026.012-.052.018-.077l.017-.067c.012-.045.024-.089.037-.132h0c.025-.087.053-.174.084-.259h0l.024-.063.031-.084c.013-.032.026-.065.041-.1l.027-.062h0c.009-.022.019-.044.029-.065l.012-.026.021-.043.016-.031c.008-.018.018-.035.027-.053l.009-.018.028-.052c.017-.032.035-.063.053-.094s.053-.084.084-.131a3.822,3.822,0,0,1,.378-.5l.053-.058.056-.058.056-.057a3.407,3.407,0,0,1,2.383-.951h.12l.124.007h.032a1.146,1.146,0,0,1,.141.014l.052.007.051.008c.085.013.169.03.257.049l.046.011.025.007.04.01.079.023.031.009.085.026.044.015a3.394,3.394,0,0,1,.349.145l.048.024.043.022q.078.041.152.084l.085.053c.046.031.093.062.138.094.029.02.058.042.084.063l.052.04.035.029.051.042.035.031.035.031.012.011.036.034.041.04.041.041.04.041.039.042.032.035.009.011.035.041.037.045.073.092c.024.031.048.063.071.1.047.064.091.132.134.2.022.035.043.07.063.106l.053.1c.018.033.035.066.052.1l.025.05c.025.05.048.1.07.151l.022.051c.015.034.029.068.042.1l.025.066h0l.024.066.018.05c.008.025.017.05.025.075l.013.044c.006.013.009.028.014.042l.019.063c.007.025.014.049.02.074l.014.055a.288.288,0,0,1,.009.038c.016.062.029.124.042.188l.013.07a.259.259,0,0,0,.009.046v.022a.43.43,0,0,0,.009.055l0,.034c0,.016.005.031.007.047s.009.056.012.084a.264.264,0,0,1-.008.068h-.414Z" transform="translate(-2414.796 -246.186)"/><path class="a" d="M3948.692,2036.921a.641.641,0,0,0,.729-.74,5.994,5.994,0,0,0-.471-2.313,4.6,4.6,0,0,0-8.146-.729,5.4,5.4,0,0,0-.835,2.4,5.839,5.839,0,0,0,.507,3.275,4.772,4.772,0,0,0,8.334.608,1.4,1.4,0,0,0,.162-.293.62.62,0,0,0-.292-.76.59.59,0,0,0-.767.181c-.034.045-.062.094-.091.141a3.551,3.551,0,0,1-5.534.617,4.07,4.07,0,0,1-1.066-2.008c-.025-.114-.038-.231-.064-.382h.338Q3945.09,2036.93,3948.692,2036.921Zm-7.518-1.41c.005-.03.01-.06.015-.09s.008-.045.013-.067l.014-.067c.005-.022.009-.045.014-.067s.011-.045.015-.067l.02-.084c.007-.027.013-.052.021-.077l.02-.074.012-.043.015-.049.012-.039.019-.056.018-.053c.011-.032.022-.063.035-.095l.013-.034c.016-.04.031-.079.048-.119h0l.026-.059c.014-.034.029-.067.045-.1l.015-.031.024-.05v0l.024-.049.028-.053.032-.057.022-.041.076-.126.034-.054.036-.054.037-.053c.014-.02.029-.041.043-.06l.033-.045.041-.051.007-.009.034-.042.042-.051.039-.045v0l.044-.05c.029-.033.06-.065.091-.1l.047-.048c.031-.032.065-.064.1-.1l.069-.062a3.161,3.161,0,0,1,.421-.314c.043-.026.084-.052.13-.077a3.489,3.489,0,0,1,1.743-.434h.058a3.459,3.459,0,0,1,.513.054l.076.015.078.017c.051.012.1.024.153.039l.05.014c.051.015.1.031.151.049l.1.037.049.019.1.041.048.022c.065.031.13.063.194.1l.039.022c.065.037.129.077.193.119l.043.029.045.031h0l.042.031.045.034.04.031c.045.036.088.073.132.112l.042.038.039.036a3.325,3.325,0,0,1,.378.427l.014.019c.043.056.085.117.126.182l.037.059.037.06.031.054.025.045c.024.045.048.09.071.135.009.015.016.031.023.046l.022.046.021.047.03.068.011.026.029.07q.058.142.106.286l.017.053.013.042a.1.1,0,0,0,.008.024l.017.059.028.1.009.035c.007.026.013.052.018.077l.011.042c0,.019.009.039.013.058s.006.028.008.041.011.052.016.079v.017c0,.019.008.038.01.057l.005.027.009.051a.937.937,0,0,1,.01.144.1.1,0,0,1,0,.017c0,.006,0,.012,0,.019v.01l-.008.026v.01h-6.954a.838.838,0,0,1,0-.153Z" transform="translate(-3710.3 -246.457)"/><path class="a" d="M1882.682,2040.439a1.323,1.323,0,0,1-.028.286.569.569,0,0,1-.57.455.575.575,0,0,1-.575-.48,2.052,2.052,0,0,1-.018-.337q0-2.581,0-5.162a3.973,3.973,0,0,0-.275-1.573,2.718,2.718,0,0,0-2.056-1.771,2.874,2.874,0,0,0-2.946,1.14,3.2,3.2,0,0,0-.675,1.84c-.01.184-.012.368-.012.552v4.97a1.756,1.756,0,0,1-.026.358.583.583,0,0,1-1.143-.021,1.611,1.611,0,0,1-.018-.287v-9.075a2.052,2.052,0,0,1,.007-.216.591.591,0,0,1,1.171-.006c.017.15.007.3.012.456,0,.084.008.169.013.31l.223-.2a4.156,4.156,0,0,1,4.669-.666,4.071,4.071,0,0,1,2.025,2.53,5.374,5.374,0,0,1,.225,1.61Q1882.69,2037.8,1882.682,2040.439Z" transform="translate(-1694.313 -246.039)"/><path class="a" d="M3372.958,2031.176a1.694,1.694,0,0,1-.073.2q-1.8,4.589-3.6,9.178a.607.607,0,0,1-.506.451.6.6,0,0,1-.653-.422c-.182-.452-.356-.909-.534-1.362q-1.54-3.943-3.08-7.887a1.164,1.164,0,0,1-.073-.228.6.6,0,0,1,.432-.685.563.563,0,0,1,.7.347c.247.607.483,1.22.723,1.829l2.271,5.782c.034.084.074.169.112.257h.054c.042-.1.085-.2.124-.307l2.914-7.411c.018-.045.034-.09.053-.134a.575.575,0,0,1,.717-.36A.625.625,0,0,1,3372.958,2031.176Z" transform="translate(-3148.62 -245.868)"/><path class="a" d="M2303.564,1933.252a1.037,1.037,0,0,1-.182.253,2.446,2.446,0,0,1-3.682-.151,2.6,2.6,0,0,1-.573-1.692q0-3.217,0-6.435v-.337c-.2,0-.375.007-.548,0a.609.609,0,0,1-.573-.788.59.59,0,0,1,.568-.433c.159-.006.319-.005.48-.01.014,0,.028-.013.062-.031,0-.074.01-.16.01-.246V1921.8a1.365,1.365,0,0,1,.02-.262.6.6,0,0,1,1.188.039,1.635,1.635,0,0,1,.007.216v1.864c.109.005.195.012.28.012h1.849a.6.6,0,0,1,.6.362.61.61,0,0,1-.518.859c-.127.013-.253,0-.384,0h-1.806c-.008.09-.017.151-.017.213v6.627a1.266,1.266,0,0,0,1,1.265,1.168,1.168,0,0,0,1.108-.3c.047-.044.084-.095.133-.139a.579.579,0,0,1,.765-.084.612.612,0,0,1,.214.784Z" transform="translate(-2107.783 -139.123)"/><path class="a" d="M3092.848,2032.068a3.925,3.925,0,0,0-.687.084,2.954,2.954,0,0,0-2.136,2.135,3.606,3.606,0,0,0-.153,1.089v5.28a2.326,2.326,0,0,1,0,.24.591.591,0,0,1-1.18-.028c0-.072,0-.145,0-.216v-9.241a.59.59,0,1,1,1.181-.01c.012.183,0,.368.006.552a.7.7,0,0,0,.026.115l.211-.186a4.008,4.008,0,0,1,2.716-1.038.59.59,0,0,1,.6.422.616.616,0,0,1-.582.8Z" transform="translate(-2879.498 -246.302)"/><path class="a" d="M3803.826,2031.595v9.02a2.06,2.06,0,0,1-.012.263.579.579,0,0,1-.578.532.61.61,0,0,1-.613-.531,1.636,1.636,0,0,1-.007-.24v-9.089a1.062,1.062,0,0,1,.047-.352.6.6,0,0,1,1.148.135A2.034,2.034,0,0,1,3803.826,2031.595Z" transform="translate(-3576.28 -246.271)"/><path class="a" d="M1742.358,2040.923a.582.582,0,0,1-.574.537.6.6,0,0,1-.614-.526,1.962,1.962,0,0,1-.007-.24V2031.6a1.823,1.823,0,0,1,.006-.216.609.609,0,0,1,.616-.525.59.59,0,0,1,.574.539c.008.084.005.176.005.264v8.972Q1742.368,2040.78,1742.358,2040.923Z" transform="translate(-1564.335 -246.313)"/><path class="a" d="M3801.775,1933.922a.662.662,0,1,1-.316-.6.663.663,0,0,1,.316.6Z" transform="translate(-3574.171 -151.041)"/><path class="a" d="M1740.236,1933.9a.643.643,0,0,1-.642.662.651.651,0,0,1-.675-.635.675.675,0,0,1,.656-.683A.664.664,0,0,1,1740.236,1933.9Z" transform="translate(-1562.151 -151.043)"/><path class="c" d="M467.49,2168.222v8.147a2.169,2.169,0,0,1-.11.755,1.687,1.687,0,0,1-1.785,1.123,1.725,1.725,0,0,1-1.452-1.485,3.321,3.321,0,0,1-.024-.406q0-5.337,0-10.675a3.049,3.049,0,0,1,.077-.783,1.667,1.667,0,0,1,2.391-1.079c2.024,1.044,4.061,2.068,6.092,3.1.078.039.156.076.253.122.062-.067.123-.129.18-.194l6.326-7.157c.058-.066.116-.132.176-.2a1.643,1.643,0,0,1,2.7.412,2.044,2.044,0,0,1,.2.928q-.005,7.46-.007,14.92a6.708,6.708,0,0,1-.048,1.1,1.68,1.68,0,0,1-1.743,1.4,1.71,1.71,0,0,1-1.518-1.293,2.432,2.432,0,0,1-.058-.57V2165.32c-.108,0-.14.084-.187.135q-1.71,1.931-3.417,3.865c-.307.347-.621.689-.92,1.044a1.671,1.671,0,0,1-2.1.4c-1.568-.815-3.148-1.6-4.724-2.406C467.7,2168.315,467.622,2168.281,467.49,2168.222Z" transform="translate(-317.957 -371.337)"/><path class="d" d="M467.885,2160.814a1.808,1.808,0,0,1-.615,1.363,1.609,1.609,0,0,1-2.235-.076,1.824,1.824,0,0,1-.046-2.5,1.557,1.557,0,0,1,1.569-.493,1.647,1.647,0,0,1,1.242,1.212A3.9,3.9,0,0,1,467.885,2160.814Z" transform="translate(-318.344 -371.434)"/><rect class="a" height="5.715" transform="translate(246.125 1800.019)"/><path class="a" d="M2564.42,2896.411c.006-.047.142-.386.337-.855C2564.561,2896.025,2564.424,2896.364,2564.42,2896.411Z" transform="translate(-2367.82 -1090.245)"/><path class="a" d="M2582.08,2880.179l.073-.169Z" transform="translate(-2385.056 -1075.069)"/><path class="a" d="M2664.58,2213.621c.012-.084.021-.175.036-.262-.016.084-.024.176-.035.262Z" transform="translate(-2465.574 -424.429)"/><path class="a" d="M2666.1,2205.461c.01-.052.021-.1.033-.156-.012.052-.023.1-.033.156a.323.323,0,0,1-.007.038A.073.073,0,0,1,2666.1,2205.461Z" transform="translate(-2467.048 -416.572)"/><path class="a" d="M2668.49,2180.9a4.52,4.52,0,0,1,.159-.522,4.732,4.732,0,0,0-.159.522Z" transform="translate(-2469.391 -392.25)"/><path class="a" d="M2687.544,2148.95c-.028.043-.054.084-.084.131C2687.488,2149.033,2687.516,2148.989,2687.544,2148.95Z" transform="translate(-2487.913 -361.566)"/><path class="a" d="M2716.68,2225.63Z" transform="translate(-2516.424 -436.405)"/><path class="a" d="M2732.24,2225.75h0Z" transform="translate(-2531.609 -436.522)"/><path class="a" d="M2797.61,2225.91Z" transform="translate(-2595.41 -436.678)"/><path class="a" d="M2749.02,2225.84h1.167C2749.787,2225.848,2749.391,2225.848,2749.02,2225.84Z" transform="translate(-2547.988 -436.617)"/><path class="a" d="M4002.61,2173.858c.016-.04.032-.08.048-.119C4002.643,2173.773,4002.626,2173.813,4002.61,2173.858Z" transform="translate(-3771.479 -385.761)"/><path class="a" d="M4033.24,2124.5c.029-.033.06-.065.091-.1A.759.759,0,0,0,4033.24,2124.5Z" transform="translate(-3801.374 -337.615)"/></g></g></svg>