<svg xmlns="http://www.w3.org/2000/svg" width="34" height="34" viewBox="0 0 34 34"><defs><style>.a{fill:#fff;stroke:#bfbfbf;}.b{stroke:none;}.c{fill:none;}</style></defs><g transform="translate(-888 -110)"><g transform="translate(-475 -109.523)"><g class="a" transform="translate(1363 219.523)"><rect class="b" width="34" height="34"/><rect class="c" x="0.5" y="0.5" width="33" height="33"/></g></g><g transform="translate(895.24 117.959)"><path d="M17.995,6.1h-1.22V3.05a.611.611,0,0,0-.61-.61h-1.22V.915A.916.916,0,0,0,14.03,0H5.49a.916.916,0,0,0-.915.915V2.44H3.355a.611.611,0,0,0-.61.61V6.1H1.525A1.527,1.527,0,0,0,0,7.625v6.71A1.527,1.527,0,0,0,1.525,15.86h3.05V18.6a.916.916,0,0,0,.915.915h8.54a.916.916,0,0,0,.915-.915V15.86h3.05a1.527,1.527,0,0,0,1.525-1.525V7.625A1.527,1.527,0,0,0,17.995,6.1Zm-1.83-3.05V6.1h-1.22V3.05ZM5.185.915a.305.305,0,0,1,.3-.3h8.54a.305.305,0,0,1,.3.3V6.1H5.185ZM3.355,3.05h1.22V6.1H3.355ZM14.335,18.6a.305.305,0,0,1-.3.3H5.49a.305.305,0,0,1-.3-.3V13.42h9.15Zm4.575-4.27a.916.916,0,0,1-.915.915h-3.05V13.42h.61a.3.3,0,0,0,0-.61H3.965a.3.3,0,0,0,0,.61h.61v1.83H1.525a.916.916,0,0,1-.915-.915V7.625a.916.916,0,0,1,.915-.915h16.47a.916.916,0,0,1,.915.915Z"/><path d="M432.915,192a.915.915,0,1,0,.915.915A.916.916,0,0,0,432.915,192Zm0,1.22a.3.3,0,1,1,.3-.3A.305.305,0,0,1,432.915,193.22Z" transform="translate(-415.53 -184.68)"/><path d="M368.915,192a.915.915,0,1,0,.915.915A.916.916,0,0,0,368.915,192Zm0,1.22a.3.3,0,1,1,.3-.3A.305.305,0,0,1,368.915,193.22Z" transform="translate(-353.97 -184.68)"/><path d="M174.71,376h-6.4a.3.3,0,0,0,0,.61h6.4a.3.3,0,1,0,0-.61Z" transform="translate(-161.595 -361.665)"/><path d="M174.71,416h-6.4a.3.3,0,0,0,0,.61h6.4a.3.3,0,1,0,0-.61Z" transform="translate(-161.595 -400.14)"/><path d="M174.71,456h-6.4a.3.3,0,1,0,0,.61h6.4a.3.3,0,1,0,0-.61Z" transform="translate(-161.595 -438.615)"/></g></g></svg>