<svg xmlns="http://www.w3.org/2000/svg" width="228.507" height="116.571" viewBox="0 0 228.507 116.571"><defs><style>.a,.b{font-size:9px;font-family:SpoqaHanSansNeo-Medium, Spoqa Han Sans Neo;font-weight:500;letter-spacing:-0.025em;}.b{fill:#dcdcdc;}.c,.d{fill:#3b61d5;}.d{opacity:0.1;}</style></defs><g transform="translate(-452 -742)"><text class="a" transform="translate(459 855.571)"><tspan x="-5.252" y="0">A+</tspan></text><text class="b" transform="translate(485 855.571)"><tspan x="-5.368" y="0">A0</tspan></text><text class="b" transform="translate(512 855.571)"><tspan x="-5.454" y="0">B+</tspan></text><text class="b" transform="translate(566 855.571)"><tspan x="-5.359" y="0">C+</tspan></text><text class="b" transform="translate(620.002 855.571)"><tspan x="-5.598" y="0">D+</tspan></text><text class="b" transform="translate(539 855.571)"><tspan x="-5.571" y="0">B0</tspan></text><text class="b" transform="translate(590 855.571)"><tspan x="-5.476" y="0">C0</tspan></text><text class="b" transform="translate(646.002 855.571)"><tspan x="-5.715" y="0">D0</tspan></text><text class="b" transform="translate(673.001 855.571)"><tspan x="-2.547" y="0">F</tspan></text><rect class="c" width="71.214" height="14.507" rx="1" transform="translate(452 841.97) rotate(-90)"/><rect class="d" width="63.301" height="14.507" rx="1" transform="translate(478 841.97) rotate(-90)"/><rect class="d" width="71.214" height="14.507" rx="1" transform="translate(559 841.97) rotate(-90)"/><rect class="d" width="57.406" height="14.507" rx="1" transform="translate(585 841.97) rotate(-90)"/><rect class="d" width="51.349" height="14.507" rx="1" transform="translate(612 841.97) rotate(-90)"/><rect class="d" width="73.56" height="14.507" rx="1" transform="translate(639 841.97) rotate(-90)"/><rect class="d" width="63.301" height="14.507" rx="1" transform="translate(666 841.97) rotate(-90)"/><rect class="d" width="78.456" height="14.507" rx="1" transform="translate(505 841.97) rotate(-90)"/><rect class="d" width="99.97" height="14.507" rx="1" transform="translate(532 841.97) rotate(-90)"/></g></svg>