<svg xmlns="http://www.w3.org/2000/svg" width="56" height="56" viewBox="0 0 56 56"><defs><style>.a{fill:#fff;}.b{fill:#005fd9;}</style></defs><g transform="translate(-222.129 -154.576)"><circle class="a" cx="28" cy="28" r="28" transform="translate(222.129 154.576)"/><g transform="translate(2.693 0.287)"><path class="b" d="M252.119,171.527v6.146a.238.238,0,0,0,.237.238h6.251a.238.238,0,0,0,.167-.407l-6.251-6.146A.237.237,0,0,0,252.119,171.527Z"/><path class="b" d="M258.058,179.481l-6.444,0a1.1,1.1,0,0,1-1.1-1.1v-5.97a1.128,1.128,0,0,0-1.129-1.129H242.2a1.129,1.129,0,0,0-1.129,1.129v7.72a6.053,6.053,0,0,0,0,11.768v.829a1.129,1.129,0,0,0,1.129,1.128h15.861a1.128,1.128,0,0,0,1.129-1.128V180.609A1.128,1.128,0,0,0,258.058,179.481Z"/><path class="a" d="M242.35,190.9a4.9,4.9,0,1,1,4.9-4.9A4.905,4.905,0,0,1,242.35,190.9Zm0-8.8a3.9,3.9,0,1,0,3.9,3.9A3.9,3.9,0,0,0,242.35,182.1Z"/><rect class="a" width="1.545" height="4.853" rx="0.517" transform="translate(244.651 189.39) rotate(-45)"/></g></g></svg>