<svg xmlns="http://www.w3.org/2000/svg" xmlns:xlink="http://www.w3.org/1999/xlink" width="440" height="45" viewBox="0 0 440 45"><defs><style>.a{fill:url(#a);}.b,.c{stroke:none;}.c{fill:#dedede;}</style><linearGradient id="a" x1="0.56" y1="0.5" x2="0" y2="0.5" gradientUnits="objectBoundingBox"><stop offset="0" stop-color="#fff"/><stop offset="1" stop-color="#fa0"/></linearGradient></defs><g class="a" transform="translate(6576 -931)"><path class="b" d="M -6546.5 975.00048828125 L -6575.1669921875 953.4995727539062 L -6546.5 932.000244140625 L -6546.5 943 L -6546.5 943.5 L -6546 943.5 L -6166 943.5 L -6165.5 943.5 L -6165.5 943 L -6165.5 932.000244140625 L -6136.83349609375 953.4995727539062 L -6165.5 975.00048828125 L -6165.5 964.999267578125 L -6165.5 964.499267578125 L -6166 964.499267578125 L -6546 964.499267578125 L -6546.5 964.499267578125 L -6546.5 964.999267578125 L -6546.5 975.00048828125 Z"/><path class="c" d="M -6547 974.00048828125 L -6547 963.999267578125 L -6165 963.999267578125 L -6165 974.00048828125 L -6137.66650390625 953.4996337890625 L -6165 933.000244140625 L -6165 944 L -6547 944 L -6547 933.0001831054688 L -6574.333984375 953.4996337890625 L -6547 974.00048828125 M -6166 976.0005493164062 L -6166 964.999267578125 L -6546 964.999267578125 L -6546 976.0005493164062 L -6576.00048828125 953.4995727539062 L -6546 931.000244140625 L -6546 943 L -6166 943 L -6166 931.000244140625 L -6136 953.4995727539062 L -6166 976.0005493164062 Z"/></g></svg>