<svg xmlns="http://www.w3.org/2000/svg" xmlns:xlink="http://www.w3.org/1999/xlink" width="25.146" height="23.028" viewBox="0 0 25.146 23.028"><defs><style>.a{fill:url(#a);}</style><linearGradient id="a" x1="0.863" y1="0.141" x2="0" y2="1" gradientUnits="objectBoundingBox"><stop offset="0" stop-color="#21e5db"/><stop offset="1" stop-color="#1379df"/></linearGradient></defs><path class="a" d="M6.216,11.456l7.222,7.222a.529.529,0,0,0,.338.127.38.38,0,0,0,.274-.1l.018-.018L23.908,7.171a.627.627,0,0,0,.158-.4.444.444,0,0,0-.129-.317L18.7,1.209a.425.425,0,0,0-.307-.125.682.682,0,0,0-.424.162L6.173,10.805l-.023.023a.354.354,0,0,0-.094.256.54.54,0,0,0,.121.336l.039.037ZM19.886,7.74a.543.543,0,0,1,.767.767l-5.223,5.22a.543.543,0,0,1-.767-.767l5.223-5.22ZM16.747,4.6a.543.543,0,0,1,.767.767l-5.22,5.22a.543.543,0,0,1-.767-.767l5.22-5.22ZM6.273,21.651,5.056,22.869a.541.541,0,0,1-.475.151L.486,22.568a.541.541,0,0,1-.323-.921h0l3.053-3.053L3,18.375a.545.545,0,0,1,0-.767l.96-.96,0,0,.014-.014a.964.964,0,0,0,.111-.127,1,1,0,0,0,.088-.153,5.045,5.045,0,0,0,.049-1.971h0c-.018-.2-.033-.379-.041-.5-.115-.9.462-1.428,1.042-1.946a1.636,1.636,0,0,1-.244-.841,1.423,1.423,0,0,1,.407-1.031c.027-.027.061-.057.106-.094L17.283.407A1.76,1.76,0,0,1,18.388,0a1.5,1.5,0,0,1,1.074.442L24.7,5.683a1.512,1.512,0,0,1,.446,1.083,1.71,1.71,0,0,1-.42,1.107L14.891,19.386c-.031.037-.057.065-.074.082a1.45,1.45,0,0,1-1.05.417,1.617,1.617,0,0,1-.833-.239c-.518.581-1.042,1.156-1.946,1.042-.186-.01-.34-.025-.5-.039v0a5,5,0,0,0-1.971.051.914.914,0,0,0-.153.088.893.893,0,0,0-.108.092.263.263,0,0,1-.033.035l-.96.96a.545.545,0,0,1-.767,0l-.219-.221ZM4.145,17.988l.219.219L6.656,20.5l.219.219.591-.591A1.984,1.984,0,0,1,7.73,19.9a2.2,2.2,0,0,1,.327-.19,5.494,5.494,0,0,1,2.517-.143v0c.2.018.387.035.491.041l.045,0c.354.047.69-.327,1.023-.7l-6.18-6.178c-.374.334-.751.671-.7,1.025l0,.043c.01.176.025.329.039.491h0a5.525,5.525,0,0,1-.145,2.517,2.032,2.032,0,0,1-.19.327,1.913,1.913,0,0,1-.244.278l0,0-.577.575Z" transform="translate(-0.004)"/></svg>