<svg xmlns="http://www.w3.org/2000/svg" xmlns:xlink="http://www.w3.org/1999/xlink" width="60.05" height="60.004" viewBox="0 0 60.05 60.004"><defs><style>.a{fill:url(#a);}.b{fill:#d7ecff;}.b,.c,.e,.f{isolation:isolate;}.c{fill:#fbfcfe;}.d{fill:#fff;}.e{fill:#d6ecff;}.f{fill:#5673b1;}</style><linearGradient id="a" x1="-0.048" y1="0.139" x2="1.08" y2="0.916" gradientUnits="objectBoundingBox"><stop offset="0" stop-color="#54adff"/><stop offset="1" stop-color="#2eeee3"/></linearGradient></defs><g transform="translate(-3.5 -7.106)"><path class="a" d="M30,0h.046a30,30,0,0,1,0,60H30A30,30,0,0,1,30,0Z" transform="translate(3.5 7.106)"/><g transform="translate(15.27 15.687)"><rect class="b" width="9.079" height="9.498" transform="translate(13.814 31.202)"/><path class="c" d="M-660.072,425.321a11.725,11.725,0,0,1,11.494-11.943,11.725,11.725,0,0,1,11.495,11.943Z" transform="translate(666.932 -373.898)"/><path class="d" d="M-642.277,342.151a11.761,11.761,0,0,0-10.814-7.172h-1.143a3.864,3.864,0,0,0-3.033-2.059V329.3a1.941,1.941,0,0,0,1.546-1.9,1.937,1.937,0,0,0-1.932-1.941,1.937,1.937,0,0,0-1.932,1.941,1.94,1.94,0,0,0,1.546,1.9v3.62a3.864,3.864,0,0,0-3.033,2.059h-1.34a11.761,11.761,0,0,0-10.814,7.172,3.881,3.881,0,0,0-2.781,3.726,3.882,3.882,0,0,0,2.109,3.457,11.775,11.775,0,0,0,11.486,9.286h9.321a11.776,11.776,0,0,0,11.486-9.286,3.882,3.882,0,0,0,2.109-3.457A3.881,3.881,0,0,0-642.277,342.151Z" transform="translate(676.007 -325.456)"/><rect class="e" width="24.147" height="12.233" rx="6.117" transform="translate(6.28 15.807)"/><ellipse class="f" cx="1.932" cy="1.942" rx="1.932" ry="1.942" transform="translate(11.104 20.007)"/><ellipse class="f" cx="1.932" cy="1.942" rx="1.932" ry="1.942" transform="translate(21.74 20.007)"/><path class="b" d="M-672.336,359.285h0c0-6.528,4.769-11.82,11.264-11.82h-1.34a11.761,11.761,0,0,0-10.814,7.172,3.881,3.881,0,0,0-2.781,3.726,3.883,3.883,0,0,0,2.109,3.457,11.775,11.775,0,0,0,11.486,9.286h1.835A11.79,11.79,0,0,1-672.336,359.285Z" transform="translate(676.007 -337.942)"/></g></g></svg>