<svg xmlns="http://www.w3.org/2000/svg" xmlns:xlink="http://www.w3.org/1999/xlink" width="440" height="45" viewBox="0 0 440 45"><defs><style>.a{fill:url(#a);}.b,.c{stroke:none;}.c{fill:#dedede;}</style><linearGradient id="a" x1="0.56" y1="0.5" x2="0" y2="0.5" gradientUnits="objectBoundingBox"><stop offset="0" stop-color="#fff"/><stop offset="1" stop-color="#7667ff"/></linearGradient></defs><g class="a" transform="translate(440 45) rotate(180)"><path class="b" d="M 29.50052261352539 44.00034713745117 L 0.8333601951599121 22.5009708404541 L 29.50052261352539 1.00000262260437 L 29.50052261352539 11.00126361846924 L 29.50052261352539 11.50126361846924 L 30.00052261352539 11.50126361846924 L 410.0005187988281 11.50126361846924 L 410.5005187988281 11.50126361846924 L 410.5005187988281 11.00126361846924 L 410.5005187988281 1.000012636184692 L 439.1672058105469 22.5009708404541 L 410.5005187988281 44.00033569335938 L 410.5005187988281 33.00054168701172 L 410.5005187988281 32.50054168701172 L 410.0005187988281 32.50054168701172 L 30.00052261352539 32.50054168701172 L 29.50052261352539 32.50054168701172 L 29.50052261352539 33.00054168701172 L 29.50052261352539 44.00034713745117 Z"/><path class="c" d="M 29.00045776367188 2.000019073486328 L 1.666656494140625 22.50095558166504 L 29.00045776367188 43.00037384033203 L 29.00045776367188 32.00054168701172 L 411.0004577636719 32.00054168701172 L 411.0004577636719 43.0003547668457 L 438.3338012695312 22.50095558166504 L 411.0004577636719 2.000038146972656 L 411.0004577636719 12.00126266479492 L 29.00045776367188 12.00126266479492 L 29.00045776367188 2.000019073486328 M 30.00045776367188 -1.52587890625e-05 L 30.00045776367188 11.00126266479492 L 410.0004577636719 11.00126266479492 L 410.0004577636719 -1.52587890625e-05 L 440.0004577636719 22.50098609924316 L 410.0004577636719 45.00032043457031 L 410.0004577636719 33.00054168701172 L 30.00045776367188 33.00054168701172 L 30.00045776367188 45.00032043457031 L -3.0517578125e-05 22.50098609924316 L 30.00045776367188 -1.52587890625e-05 Z"/></g></svg>