<svg xmlns="http://www.w3.org/2000/svg" width="201.646" height="185.505" viewBox="0 0 201.646 185.505"><defs><style>.a{fill:#cfcfcf;}.b,.d{fill:none;}.b{stroke:#d8d8d8;}.c{stroke:none;}</style></defs><g transform="translate(-240 -629)"><g transform="translate(240 657.161)"><ellipse class="a" cx="51.079" cy="62.198" rx="51.079" ry="62.198" transform="translate(49.744 -7)"/><g transform="translate(0 117.396)"><path class="a" d="M187.052-357.564a15.342,15.342,0,0,0-13.123,2.659,41.321,41.321,0,0,1-25.343,8.755,41.321,41.321,0,0,1-25.343-8.755,15.343,15.343,0,0,0-13.123-2.659l-30.6,7.715c-18.671,4.708-31.756,12.5-31.756,31.757H249.408c0-19.256-13.084-27.049-31.757-31.757Z" transform="translate(-47.762 358.041)"/></g></g><g transform="translate(248 629)"><g class="b" transform="translate(64.404 64.404)"><ellipse class="c" cx="28.177" cy="28.177" rx="28.177" ry="28.177"/><ellipse class="d" cx="28.177" cy="28.177" rx="27.677" ry="27.677"/></g><g class="b" transform="translate(46.29 46.29)"><ellipse class="c" cx="46.29" cy="46.29" rx="46.29" ry="46.29"/><ellipse class="d" cx="46.29" cy="46.29" rx="45.79" ry="45.79"/></g><g class="b" transform="translate(30.189 30.189)"><ellipse class="c" cx="62.391" cy="62.391" rx="62.391" ry="62.391"/><ellipse class="d" cx="62.391" cy="62.391" rx="61.891" ry="61.891"/></g><g class="b" transform="translate(15.095 15.095)"><ellipse class="c" cx="77.486" cy="77.486" rx="77.486" ry="77.486"/><ellipse class="d" cx="77.486" cy="77.486" rx="76.986" ry="76.986"/></g><g class="b" transform="translate(0 0)"><ellipse class="c" cx="92.58" cy="92.58" rx="92.58" ry="92.58"/><ellipse class="d" cx="92.58" cy="92.58" rx="92.08" ry="92.08"/></g></g></g></svg>