<svg width="48" height="48" viewBox="0 0 48 48" fill="none" xmlns="http://www.w3.org/2000/svg">
<circle cx="24" cy="24" r="24" fill="black"/>
<path d="M28.2681 23.9925C27.7669 21.4701 30.1611 19.9907 30.1611 19.9907C30.1611 19.9907 29.2283 18.6411 27.6606 18.2939C26.0936 17.9459 25.3093 18.3807 24.5266 18.7067C23.7431 19.0336 23.3522 19.0336 23.3522 19.0336C22.2215 19.0336 21.395 17.8364 19.2408 18.3815C17.7567 18.756 16.1944 20.4692 15.9121 22.5139C15.6299 24.5594 16.239 27.1695 17.4134 29.1924C18.5879 31.2168 19.7843 31.9776 20.6334 31.9995C21.4826 32.0206 22.3302 31.3911 23.3522 31.2379C24.3749 31.0862 25.0044 31.6085 26.0076 31.8908C27.0068 32.1723 27.3572 31.9111 28.5081 30.9321C29.6622 29.9532 30.7069 27.1453 30.7069 27.1453C30.7069 27.1453 28.7693 26.5166 28.2681 23.9925Z" fill="white"/>
<path d="M26.0502 16.8829C27.1605 15.7515 26.7844 14 26.7844 14C26.7844 14 25.2253 14.2737 24.1806 15.3605C23.1367 16.4482 23.3095 18.1661 23.3095 18.1661C23.3095 18.1661 24.9398 18.0136 26.0502 16.8829Z" fill="white"/>
</svg>
