<svg width="58" height="58" viewBox="0 0 58 58" fill="none" xmlns="http://www.w3.org/2000/svg">
<g clip-path="url(#clip0_340_1299)">
<path d="M31.357 10.1434L10.1438 31.3566C9.49298 32.0075 9.49298 33.0628 10.1438 33.7137L14.2686 37.8385L14.9757 37.1314C16.6029 35.5042 19.2411 35.5042 20.8683 37.1314C22.4955 38.7585 22.4955 41.3967 20.8683 43.0239L20.1612 43.731L24.286 47.8558C24.9369 48.5067 25.9921 48.5067 26.643 47.8558L47.8562 26.6426C48.5071 25.9917 48.5071 24.9365 47.8562 24.2856L43.7314 20.1608L43.6136 20.2786C41.9864 21.9058 39.3482 21.9058 37.721 20.2786C36.0938 18.6515 36.0938 16.0133 37.721 14.3861L37.8389 14.2682L33.7141 10.1434C33.0632 9.49257 32.0079 9.49255 31.357 10.1434Z" stroke="#9E9DAA" stroke-width="1.33333" stroke-linecap="round" stroke-linejoin="round"/>
<path d="M24.2861 17.2148L40.7853 33.714" stroke="#9E9DAA" stroke-width="1.33333" stroke-linecap="round" stroke-linejoin="round" stroke-dasharray="4 4"/>
</g>
<defs>
<clipPath id="clip0_340_1299">
<rect width="40" height="40" fill="white" transform="translate(0.71582 29) rotate(-45)"/>
</clipPath>
</defs>
</svg>
