<svg width="24" height="24" viewBox="0 0 24 24" fill="none" xmlns="http://www.w3.org/2000/svg">
<path d="M21.9 4H2.1C1.49249 4 1 4.51168 1 5.14286V9.14286H1.66C3.17878 9.14286 4.41 10.4221 4.41 12C4.41 13.5779 3.17878 14.8571 1.66 14.8571H1V18.8571C1 19.4883 1.49249 20 2.1 20H21.9C22.5075 20 23 19.4883 23 18.8571V14.8571H22.89C21.3712 14.8571 20.14 13.5779 20.14 12C20.14 10.4221 21.3712 9.14286 22.89 9.14286H23V5.14286C23 4.51168 22.5075 4 21.9 4Z" stroke="white" stroke-width="1.7" stroke-linecap="round" stroke-linejoin="round"/>
<path d="M15 4V20" stroke="white" stroke-width="1.7" stroke-linecap="round" stroke-linejoin="round" stroke-dasharray="3 3"/>
</svg>
