<svg width="77" height="103" viewBox="0 0 77 103" fill="none" xmlns="http://www.w3.org/2000/svg">
<path d="M18.16 97.4V99.26H1.1V97.4H8.6V93.3H2.22V83.62H17.02V93.3H10.62V97.4H18.16ZM4.2 91.46H15.04V85.48H4.2V91.46ZM34.3583 83H36.3383V100.08H34.3583V83ZM26.1983 94.12C25.1849 94.12 24.2783 93.8933 23.4783 93.44C22.6783 92.9867 22.0516 92.3533 21.5983 91.54C21.1449 90.7133 20.9183 89.78 20.9183 88.74C20.9183 87.7 21.1449 86.7733 21.5983 85.96C22.0516 85.1333 22.6783 84.4933 23.4783 84.04C24.2783 83.5867 25.1849 83.36 26.1983 83.36C27.2116 83.36 28.1183 83.5867 28.9183 84.04C29.7183 84.4933 30.3449 85.1333 30.7983 85.96C31.2516 86.7733 31.4783 87.7 31.4783 88.74C31.4783 89.78 31.2516 90.7133 30.7983 91.54C30.3449 92.3533 29.7183 92.9867 28.9183 93.44C28.1183 93.8933 27.2116 94.12 26.1983 94.12ZM26.1983 92.32C26.8649 92.32 27.4449 92.1667 27.9383 91.86C28.4449 91.54 28.8383 91.1133 29.1183 90.58C29.3983 90.0333 29.5383 89.42 29.5383 88.74C29.5383 88.06 29.3983 87.4467 29.1183 86.9C28.8383 86.3533 28.4449 85.9267 27.9383 85.62C27.4316 85.3 26.8516 85.14 26.1983 85.14C25.5316 85.14 24.9449 85.3 24.4383 85.62C23.9316 85.9267 23.5383 86.3533 23.2583 86.9C22.9916 87.4467 22.8583 88.06 22.8583 88.74C22.8583 89.78 23.1649 90.64 23.7783 91.32C24.3916 91.9867 25.1983 92.32 26.1983 92.32ZM20.3383 97.2H27.3183C28.5183 97.2 29.6116 97.1333 30.5983 97C31.5849 96.8667 32.3583 96.6667 32.9183 96.4V98.24C32.3449 98.4933 31.5583 98.6933 30.5583 98.84C29.5583 98.9867 28.4383 99.06 27.1983 99.06H20.3383V97.2ZM53.6966 90.82H50.8966V89.06H53.6966V86.66H50.8966V84.9H53.6966V83H55.6566V95.7H53.6966V90.82ZM49.8966 92.66H40.2966V83.42H49.8966V92.66ZM47.9366 85.14H42.2366V90.94H47.9366V85.14ZM56.0166 98.08V99.86H41.1166V94.32H43.1366V98.08H56.0166ZM74.8948 83V91.92H72.9148V87.8H69.5948V86.12H72.9148V83H74.8948ZM64.8148 88.64C64.2148 89.56 63.4282 90.3067 62.4548 90.88C61.4815 91.44 60.3815 91.78 59.1548 91.9V90.14C60.5415 89.9533 61.6548 89.4067 62.4948 88.5C63.3482 87.5933 63.8348 86.4667 63.9548 85.12H59.3748V83.44H70.2748V85.12H65.9548C65.9148 85.8 65.7815 86.46 65.5548 87.1L70.8548 90.26L69.8948 91.74L64.8148 88.64ZM72.9348 92.86H74.8948V99.86H60.3548V92.86H62.3148V94.62H72.9348V92.86ZM72.9348 98.26V96.18H62.3148V98.26H72.9348Z" fill="#333333"/>
<path d="M72.4961 48.7726H69.1356V11.2329C69.1356 10.4023 68.4622 9.729 67.6316 9.729H10.3684C9.53779 9.729 8.86445 10.4023 8.86445 11.2329V48.7726H5.50391C4.67334 48.7726 4 49.4459 4 50.2765V53.1993C4 57.0986 7.14275 60.2709 11.0057 60.2709H66.9943C70.8572 60.2709 74 57.0986 74 53.1993V50.2765C74 49.4459 73.3267 48.7726 72.4961 48.7726ZM11.8723 12.7368H66.1277V48.7726H50.6916C49.7915 48.7677 49.112 49.5578 49.1877 50.4429H28.8125C28.8883 49.5578 28.2087 48.7675 27.3086 48.7726H11.8723V12.7368ZM70.9922 53.1993C70.9922 55.4401 69.1987 57.2631 66.9943 57.2631H11.0057C8.80129 57.2631 7.00781 55.4401 7.00781 53.1993V51.7804H25.8047C25.729 52.6655 26.4086 53.4558 27.3086 53.4507H50.6916C51.5918 53.4556 52.2713 52.6655 52.1955 51.7804H70.9922V53.1993Z" fill="black"/>
<path d="M18.9856 42.9607C18.6007 42.9607 18.2159 42.8139 17.9222 42.5202C17.3349 41.9329 17.3349 40.9806 17.9222 40.3933L29.1803 29.1352C29.4674 28.8482 29.8584 28.6897 30.2641 28.6948C30.67 28.7003 31.0564 28.8695 31.3355 29.1643L39.0461 37.3032L57.9679 18.9725C58.5644 18.3943 59.5167 18.4096 60.0945 19.0062C60.6725 19.6027 60.6573 20.5548 60.0607 21.1327L40.0464 40.5216C39.7578 40.8012 39.3716 40.9518 38.9677 40.9451C38.566 40.9365 38.1845 40.7675 37.9081 40.4758L30.2144 32.3548L20.0489 42.5203C19.7553 42.8139 19.3705 42.9607 18.9856 42.9607Z" fill="#3B61D5"/>
</svg>
