<svg xmlns="http://www.w3.org/2000/svg" xmlns:xlink="http://www.w3.org/1999/xlink" width="160" height="180" viewBox="0 0 160 180">
  <defs>
    <clipPath id="clip-path">
      <rect id="사각형_27461" data-name="사각형 27461" width="40" height="40" transform="translate(700 515)" fill="#fff"/>
    </clipPath>
  </defs>
  <g id="img_03" transform="translate(-720 -460)">
    <rect id="사각형_27442" data-name="사각형 27442" width="160" height="180" rx="12" transform="translate(720 460)" fill="#d8dbff" opacity="0.651"/>
    <text id="면접에_특화된_화상프로그램_" data-name="면접에 특화된
화상프로그램!" transform="translate(800 595)" fill="#333" font-size="13" font-family="Pretendard-Medium, Pretendard" font-weight="500" letter-spacing="-0.045em"><tspan x="-33" y="0">면접에 특화된</tspan><tspan x="-33" y="18">화상프로그램!</tspan></text>
    <text id="AI_화상면접" data-name="AI 화상면접" transform="translate(800 499)" fill="#211049" font-size="15" font-family="GmarketSansBold, Gmarket Sans" letter-spacing="-0.045em"><tspan x="-37" y="0">AI </tspan><tspan y="0" fill="#814eff">화상</tspan><tspan y="0">면접</tspan></text>
    <g id="마스크_그룹_389" data-name="마스크 그룹 389" transform="translate(80 7)" clip-path="url(#clip-path)">
      <g id="certificate" transform="translate(700 515)">
        <g id="그룹_21393" data-name="그룹 21393">
          <g id="그룹_21369" data-name="그룹 21369">
            <g id="그룹_21368" data-name="그룹 21368">
              <path id="패스_10965" data-name="패스 10965" d="M8.885,33.464a.623.623,0,0,1-.624-.624V3.73a.623.623,0,0,1,.624-.624h15.8a.624.624,0,0,1,0,1.248H9.51V32.839A.626.626,0,0,1,8.885,33.464Z"/>
            </g>
          </g>
          <g id="그룹_21371" data-name="그룹 21371">
            <g id="그룹_21370" data-name="그룹 21370">
              <path id="패스_10966" data-name="패스 10966" d="M31.117,33.464a.623.623,0,0,1-.624-.624V10.165a.624.624,0,1,1,1.248,0V32.84A.624.624,0,0,1,31.117,33.464Z"/>
            </g>
          </g>
          <g id="그룹_21373" data-name="그룹 21373">
            <g id="그룹_21372" data-name="그룹 21372">
              <path id="패스_10967" data-name="패스 10967" d="M31.12,10.788H24.683a.623.623,0,0,1-.624-.624V3.73a.624.624,0,0,1,1.066-.44l6.4,6.4a.623.623,0,0,1-.4,1.1ZM25.306,9.54h4.3l-4.3-4.3Z"/>
            </g>
          </g>
          <g id="그룹_21380" data-name="그룹 21380">
            <g id="그룹_21375" data-name="그룹 21375">
              <g id="그룹_21374" data-name="그룹 21374">
                <path id="패스_10968" data-name="패스 10968" d="M20,23.007a.62.62,0,0,1-.329-.093l-1.321-.82-1.55-.113a.62.62,0,0,1-.532-.387l-.587-1.439-1.188-1a.624.624,0,0,1-.2-.627l.372-1.509-.372-1.509a.625.625,0,0,1,.2-.627l1.188-1,.587-1.439a.624.624,0,0,1,.532-.387l1.55-.113,1.321-.82a.624.624,0,0,1,.659,0l1.321.82,1.55.113a.62.62,0,0,1,.532.387l.587,1.439,1.188,1a.624.624,0,0,1,.2.627l-.372,1.509.372,1.509a.628.628,0,0,1-.2.627l-1.188,1-.587,1.439a.624.624,0,0,1-.532.387l-1.55.113-1.321.82A.642.642,0,0,1,20,23.007Zm-2.723-2.245,1.316.1a.644.644,0,0,1,.284.092l1.122.7,1.122-.7a.607.607,0,0,1,.284-.092l1.316-.1.5-1.223A.626.626,0,0,1,23.4,19.3l1.009-.852-.315-1.283a.615.615,0,0,1,0-.3l.315-1.283L23.4,14.733a.64.64,0,0,1-.176-.242l-.5-1.223-1.316-.1a.65.65,0,0,1-.284-.092L20,12.384l-1.122.7a.625.625,0,0,1-.284.092l-1.316.1-.5,1.223a.626.626,0,0,1-.176.242l-1.009.852.315,1.283a.615.615,0,0,1,0,.3l-.315,1.283L16.6,19.3a.64.64,0,0,1,.176.242Z"/>
              </g>
            </g>
            <g id="그룹_21377" data-name="그룹 21377">
              <g id="그룹_21376" data-name="그룹 21376">
                <path id="패스_10969" data-name="패스 10969" d="M16.665,26.125c-.015,0-.031,0-.047,0a.624.624,0,0,1-.5-.33l-.693-1.312L13.963,24.2a.624.624,0,0,1-.385-.985l2.37-3.206a.624.624,0,1,1,1,.741l-1.78,2.408.777.148a.626.626,0,0,1,.436.321l.37.7,2.038-2.758a.624.624,0,1,1,1,.741L17.169,25.87a.633.633,0,0,1-.5.255Z"/>
              </g>
            </g>
            <g id="그룹_21379" data-name="그룹 21379">
              <g id="그룹_21378" data-name="그룹 21378">
                <path id="패스_10970" data-name="패스 10970" d="M23.337,26.125a.622.622,0,0,1-.5-.254l-2.628-3.556a.624.624,0,1,1,1-.741l2.038,2.758.37-.7a.623.623,0,0,1,.436-.321l.777-.148-1.78-2.41a.624.624,0,0,1,1-.741l2.37,3.208a.624.624,0,0,1-.385.985l-1.457.278-.693,1.312a.622.622,0,0,1-.5.33c-.02,0-.035,0-.05,0Z"/>
              </g>
            </g>
          </g>
          <g id="그룹_21382" data-name="그룹 21382">
            <g id="그룹_21381" data-name="그룹 21381">
              <path id="패스_10971" data-name="패스 10971" d="M37.314,36.894H2.688A2.69,2.69,0,0,1,0,34.207V32.932a.623.623,0,0,1,.624-.624H18.59a.624.624,0,1,1,0,1.248H1.251v.65A1.44,1.44,0,0,0,2.69,35.645H37.314a1.44,1.44,0,0,0,1.439-1.439v-.65H21.41a.624.624,0,1,1,0-1.248H39.376a.623.623,0,0,1,.624.624v1.275a2.689,2.689,0,0,1-2.686,2.686Z"/>
            </g>
          </g>
          <g id="그룹_21384" data-name="그룹 21384">
            <g id="그룹_21383" data-name="그룹 21383">
              <path id="패스_10972" data-name="패스 10972" d="M18.591,33.558H2.717a.623.623,0,0,1-.624-.624V8.985A2.689,2.689,0,0,1,4.781,6.3h4.1a.624.624,0,1,1,0,1.248h-4.1A1.44,1.44,0,0,0,3.342,8.985V32.308H18.591a.625.625,0,0,1,0,1.249Z"/>
            </g>
          </g>
          <g id="그룹_21386" data-name="그룹 21386">
            <g id="그룹_21385" data-name="그룹 21385">
              <path id="패스_10973" data-name="패스 10973" d="M37.285,30.185a.623.623,0,0,1-.624-.624V8.985a1.44,1.44,0,0,0-1.439-1.439H27.875a.624.624,0,0,1,0-1.248H35.22a2.689,2.689,0,0,1,2.686,2.686V29.561a.622.622,0,0,1-.622.624Z"/>
            </g>
          </g>
          <g id="그룹_21388" data-name="그룹 21388">
            <g id="그룹_21387" data-name="그룹 21387">
              <path id="패스_10974" data-name="패스 10974" d="M37.285,33.558H21.41a.624.624,0,1,1,0-1.248H36.659V29.562a.624.624,0,1,1,1.248,0v3.371A.622.622,0,0,1,37.285,33.558Z"/>
            </g>
          </g>
          <g id="그룹_21390" data-name="그룹 21390">
            <g id="그룹_21389" data-name="그룹 21389">
              <path id="패스_10975" data-name="패스 10975" d="M20,34.967a2.036,2.036,0,0,1-2.034-2.035.624.624,0,1,1,1.248,0,.786.786,0,0,0,1.572,0,.624.624,0,0,1,1.248,0A2.036,2.036,0,0,1,20,34.967Z"/>
            </g>
          </g>
          <g id="그룹_21392" data-name="그룹 21392">
            <g id="그룹_21391" data-name="그룹 21391">
              <path id="패스_10976" data-name="패스 10976" d="M25.3,29.434H14.7a.624.624,0,0,1,0-1.248H25.3a.624.624,0,0,1,0,1.248Z"/>
            </g>
          </g>
        </g>
      </g>
    </g>
  </g>
</svg>
