<svg width="140" height="127" viewBox="0 0 140 127" fill="none" xmlns="http://www.w3.org/2000/svg">
<g clip-path="url(#clip0_6_1386)">
<path d="M96.2277 85.7767L87.912 82.6923V56.1406H51.9289V82.6923L43.6133 85.7767C43.6133 85.7767 46.0487 101.023 69.2493 101.926H70.6392C79.6557 101.562 85.5242 99.0291 89.3494 96.062L89.5275 95.9213C89.9908 95.5577 90.4188 95.1824 90.8227 94.7485L91.1551 94.4318C91.5233 94.08 91.8561 93.7281 92.165 93.388C92.3075 93.2356 92.438 93.0713 92.5687 92.9189C92.6993 92.7664 92.9369 92.4616 93.1151 92.2387C93.2933 92.0159 93.5428 91.6641 93.7328 91.3826C93.8041 91.2771 93.8759 91.1832 93.9353 91.0777C93.9947 90.9721 94.1845 90.714 94.2914 90.5381C95.2047 89.0703 95.8593 87.4605 96.2277 85.7767Z" fill="#FCDAC8"/>
<path d="M96.2638 85.7402C95.9829 87.0719 95.5062 88.3559 94.8496 89.5518C94.6799 89.8987 94.4895 90.2355 94.2794 90.5603C92.9929 92.6709 91.3215 94.528 89.3496 96.0372C88.8981 96.3774 88.4349 96.7174 87.936 97.0458C84.1108 99.5438 78.5986 101.549 70.6393 101.889H69.2495C61.4803 101.573 56.0751 99.5438 52.2499 97.0458C51.7391 96.7174 51.2523 96.3774 50.8009 96.0372C48.8024 94.5216 47.0928 92.667 45.7521 90.5603C45.5365 90.2346 45.3382 89.8979 45.1581 89.5518C44.4708 88.3549 43.9474 87.0732 43.6019 85.7402L37.5078 88.6839V113.183H102.762V88.8246L96.2638 85.7402Z" fill="white"/>
<path d="M115.036 123.012V126.413H139.46C139.454 125.277 139.386 124.141 139.259 123.012C139.259 122.672 139.199 122.332 139.151 122.003C138.883 120.149 138.454 118.32 137.869 116.538C137.738 116.186 137.643 115.846 137.512 115.53C136.818 113.621 135.931 111.786 134.863 110.053C134.649 109.713 134.447 109.372 134.221 109.044C132.908 107.056 131.373 105.22 129.648 103.567C129.291 103.227 128.923 102.887 128.543 102.559C126.465 100.741 124.152 99.2033 121.665 97.9849L119.847 97.0936L117.757 96.085L115.036 94.7715V117.875C115.032 118.12 115.004 118.363 114.953 118.602C115.004 118.834 115.031 119.069 115.036 119.306V123.059V123.012Z" fill="white"/>
<path d="M25.2154 117.875V94.7363L22.3168 96.1319L20.4751 97.0349L18.42 98.0318C15.94 99.2559 13.6321 100.793 11.5539 102.606L10.4489 103.614C8.72273 105.269 7.18525 107.106 5.86359 109.091C5.66163 109.419 5.4356 109.76 5.23365 110.1C4.17156 111.837 3.28079 113.671 2.57294 115.577C2.45414 115.893 2.34721 116.233 2.25217 116.585C1.64802 118.364 1.21048 120.193 0.945308 122.05C0.945308 122.379 0.874216 122.719 0.838578 123.059C0.710722 124.188 0.643404 125.323 0.636719 126.46H25.2154V119.306C25.2154 119.071 25.2154 118.849 25.2154 118.602C25.2154 118.356 25.2154 118.075 25.2154 117.875Z" fill="white"/>
<path d="M114.797 94.6549V117.712C114.793 117.956 114.765 118.2 114.714 118.439C114.764 118.67 114.792 118.906 114.797 119.143V126.297H25V119.143C25 118.908 24.9998 118.685 25.0592 118.439C25.1186 118.193 25 117.958 25 117.712V94.5729L33.387 90.4916L35.4659 89.4831L37.2716 88.6152V113.091H102.526V88.7325L104.082 89.4831L106.173 90.4916L114.797 94.6549Z" fill="#045135"/>
<path d="M139.981 127H0.00514481V126.414C-0.410638 102.829 24.5127 94.1037 24.774 94.0216L50.3388 82.7278C50.6171 82.6025 50.8535 82.4012 51.0197 82.1477C51.186 81.8942 51.2754 81.599 51.2773 81.297V69.5693H52.4652V81.297C52.4643 81.825 52.3088 82.3414 52.018 82.7845C51.7272 83.2275 51.3137 83.5783 50.826 83.7949L25.2015 95.1122C24.9164 95.2061 1.19337 103.533 1.18149 125.827H138.794C138.58 122.227 136.417 103.005 114.571 95.2061L88.9112 83.7949C88.4235 83.5783 88.01 83.2275 87.7192 82.7845C87.4284 82.3414 87.2729 81.825 87.272 81.297V68.3965H88.4599V81.297C88.4604 81.5994 88.5493 81.8951 88.7157 82.1488C88.8822 82.4026 89.1192 82.6037 89.3984 82.7278L115.023 94.1154C127.948 98.7361 134.03 107.262 136.905 113.607C138.769 117.637 139.822 121.987 140.005 126.414L139.981 127Z" fill="black"/>
<path d="M70.1974 77.2637C90.6182 76.4193 95.6194 55.5791 95.6194 55.5791C95.6194 55.5791 100.193 56.4118 101.262 45.8099C102.331 35.208 96.5817 38.1399 96.5817 38.1399C96.9143 7.64769 80.4377 14.8603 73.3575 14.8486H67.0372C59.9095 14.8486 43.4804 7.60078 43.813 38.1399C43.813 38.1399 38.0634 35.1963 39.1326 45.8099C40.2017 56.4235 44.7631 55.5791 44.7631 55.5791C44.7631 55.5791 49.7646 76.4193 70.1974 77.2637Z" fill="#FCDAC8"/>
<path d="M69.3717 77.849C50.4476 77.0633 44.4247 59.284 43.51 56.1644C42.7659 56.0957 42.0569 55.819 41.4664 55.3669C39.4825 53.8892 38.2237 50.6758 37.7367 45.8674C37.309 41.5633 37.9268 38.8307 39.5899 37.658C40.0034 37.3975 40.4681 37.2271 40.9537 37.1583C41.4392 37.0896 41.934 37.124 42.405 37.2593C42.405 26.8215 44.3654 19.996 48.4282 16.419C52.693 12.6544 58.4664 13.3697 62.6836 13.8975C63.8643 14.0718 65.0543 14.1776 66.2475 14.2142H72.591C73.7851 14.1945 74.9763 14.0886 76.1548 13.8975C80.372 13.3815 86.1455 12.6544 90.4102 16.419C94.4611 19.9373 96.4332 26.8215 96.4213 37.2593C96.8943 37.1238 97.3909 37.0893 97.8784 37.158C98.3659 37.2268 98.8329 37.3972 99.2485 37.658C100.9 38.7721 101.529 41.5164 101.102 45.8674C100.615 50.6875 99.3556 53.8892 97.3599 55.3669C96.771 55.8219 96.0611 56.0989 95.3163 56.1644C94.4135 59.284 88.3909 77.0633 69.4668 77.849H69.3717ZM44.4247 54.9096L44.5552 55.4373C44.5552 55.6367 49.6989 75.8436 69.4071 76.6763C89.1152 75.8436 94.1998 55.6367 94.2473 55.4373L94.3778 54.8979L94.9364 54.9916C95.2493 55.009 95.5625 54.9652 95.8581 54.8625C96.1537 54.7599 96.4256 54.6004 96.6586 54.3935C97.8465 53.5022 99.3201 51.2739 99.8785 45.7502C100.354 40.9652 99.415 39.2647 98.5478 38.7135C98.1631 38.5208 97.7379 38.4204 97.3065 38.4204C96.8751 38.4204 96.4493 38.5208 96.0646 38.7135L95.1858 39.1592V38.1271C95.2927 27.7246 93.4039 20.7231 89.5668 17.3455C85.7297 13.9679 80.4553 14.5895 76.2499 15.1055C75.0305 15.2904 73.8005 15.4001 72.5672 15.4339H66.2353C64.9989 15.3873 63.7659 15.2777 62.541 15.1055C58.3237 14.5895 53.0371 13.9328 49.2119 17.3455C45.3867 20.7583 43.4863 27.7246 43.6051 38.1271V39.1122L42.7257 38.6548C42.3389 38.462 41.9119 38.3616 41.4786 38.3616C41.0453 38.3616 40.6177 38.462 40.2309 38.6548C39.3637 39.2412 38.4254 41.0004 38.9124 45.6915C39.4589 51.2152 40.9678 53.4435 42.1201 54.3348C42.597 54.7501 43.2194 54.9648 43.8545 54.9329L44.4247 54.9096Z" fill="#0D1719"/>
<path d="M55.8425 23.4911C55.8425 23.4911 66.534 16.7711 75.4436 23.4911C83.391 29.4605 77.6295 33.1079 89.6991 36.3916C90.7691 36.6802 91.7132 37.3086 92.3853 38.1799C93.0574 39.0511 93.4204 40.1166 93.4178 41.2117V41.5987C93.4082 41.9802 93.4929 42.3583 93.6649 42.7C93.8368 43.0418 94.0908 43.337 94.4044 43.56C94.7181 43.783 95.0819 43.9271 95.4648 43.9798C95.8476 44.0324 96.2376 43.9921 96.6011 43.8622C96.9005 43.7645 97.1741 43.6022 97.4022 43.3872C97.6302 43.1722 97.8075 42.9098 97.9202 42.619C100.07 37.0952 109.8 8.84313 86.1949 2.1114C65.4058 -3.82286 54.5121 4.1871 50.9126 7.71716C49.8848 8.73279 48.7635 9.65164 47.5628 10.4616C43.298 13.3466 34.0795 21.1808 39.8411 32.1814C40.8149 34.1081 41.6101 36.1178 42.217 38.186L43.2385 41.4462C43.3694 41.8752 43.617 42.2605 43.9542 42.5603C44.2914 42.8601 44.7051 43.063 45.1509 43.1468C45.4958 43.2074 45.8505 43.1919 46.1886 43.1015C46.5268 43.011 46.84 42.8479 47.1068 42.6237C47.3736 42.3996 47.5871 42.1199 47.7316 41.8049C47.876 41.4898 47.9481 41.1471 47.9427 40.8013C47.9308 36.3096 48.786 27.6545 55.8425 23.4911Z" fill="#0D1719"/>
<g style="mix-blend-mode:multiply" opacity="0.3">
<g style="mix-blend-mode:multiply" opacity="0.3">
<path d="M67.6675 52.5635C71.0056 53.7363 72.7162 50.7339 74.1536 51.6369C75.591 52.54 72.9653 56.1873 69.3183 53.9825C67.6789 53.0795 66.6933 52.1999 67.6675 52.5635Z" fill="#F1B69A"/>
</g>
</g>
<path d="M69.8529 54.8034C69.7534 54.8039 69.6551 54.7798 69.5675 54.7331L69.2705 54.5806C68.7007 54.3698 68.1971 54.0153 67.8094 53.5523C67.4217 53.0893 67.1636 52.534 67.0611 51.9419C66.9741 51.6103 66.9801 51.2615 67.0785 50.933C67.1768 50.6045 67.364 50.3087 67.6197 50.0771C68.3946 49.2098 68.8176 48.0905 68.8076 46.9341C68.8256 46.7733 68.9063 46.6257 69.0327 46.5228C69.1591 46.4199 69.3212 46.3697 69.4846 46.3829C69.6496 46.3978 69.8018 46.4764 69.9086 46.6015C70.0153 46.7267 70.0679 46.8883 70.0547 47.0514C70.0572 48.4585 69.5471 49.8197 68.6174 50.8864C68.3085 51.2382 68.2494 51.3086 68.3326 51.6839C68.3948 52.0985 68.5731 52.4876 68.8482 52.8069C69.1233 53.1261 69.4837 53.3627 69.8883 53.4899L70.1974 53.6424C70.3429 53.7196 70.4519 53.8501 70.5008 54.0058C70.5497 54.1616 70.5342 54.3301 70.4585 54.475C70.4009 54.5821 70.3132 54.6703 70.2056 54.7287C70.0979 54.787 69.9753 54.8129 69.8529 54.8034Z" fill="#262323"/>
<path d="M58.7076 40.1445C58.5474 40.1037 58.4011 40.0212 58.2841 39.9057C58.1672 39.7902 58.0837 39.646 58.0423 39.4878C58.0045 39.3677 57.9918 39.2413 58.0051 39.1162C58.0184 38.9911 58.0577 38.87 58.12 38.7603C58.1822 38.6506 58.266 38.5545 58.3671 38.478C58.4681 38.4014 58.5841 38.346 58.7076 38.3151C60.3307 37.9791 62.0148 38.0722 63.5899 38.5848C63.7091 38.6208 63.8201 38.6799 63.9159 38.7586C64.0117 38.8373 64.0904 38.9342 64.1479 39.0433C64.2054 39.1525 64.2403 39.2719 64.2506 39.3945C64.2608 39.5171 64.2462 39.6406 64.2077 39.7576C64.1712 39.8752 64.1116 39.9845 64.0319 40.0791C63.9522 40.1737 63.8542 40.2517 63.7436 40.3084C63.633 40.3652 63.5117 40.3997 63.3875 40.4098C63.2632 40.4199 63.1382 40.4055 63.0197 40.3674C61.7759 39.9794 60.4565 39.8909 59.171 40.1093C59.0234 40.1656 58.8622 40.1779 58.7076 40.1445Z" fill="#262323"/>
<path d="M81.5584 40.1433C81.7169 40.0992 81.8613 40.0156 81.9777 39.9006C82.0942 39.7856 82.179 39.6431 82.2237 39.4866C82.2615 39.3665 82.2741 39.24 82.2608 39.1149C82.2475 38.9899 82.2082 38.8688 82.146 38.759C82.0837 38.6493 81.9993 38.5533 81.8983 38.4767C81.7972 38.4002 81.6818 38.3448 81.5584 38.3138C79.9311 37.9796 78.2434 38.0726 76.6639 38.5835C76.5447 38.6195 76.4337 38.6786 76.3379 38.7573C76.2421 38.836 76.1634 38.9329 76.1059 39.0421C76.0483 39.1512 76.0134 39.2706 76.0032 39.3932C75.9929 39.5159 76.0075 39.6393 76.0461 39.7563C76.0826 39.874 76.1427 39.9833 76.2224 40.0778C76.3022 40.1724 76.4001 40.2504 76.5107 40.3072C76.6213 40.364 76.7421 40.3984 76.8663 40.4085C76.9905 40.4187 77.1155 40.4043 77.2341 40.3662C78.4778 39.9782 79.7973 39.8896 81.0827 40.108C81.2345 40.164 81.3998 40.1762 81.5584 40.1433Z" fill="#262323"/>
<path d="M62 48.8955C63.1046 48.8955 64 47.7786 64 46.4009C64 45.0231 63.1046 43.9062 62 43.9062C60.8954 43.9062 60 45.0231 60 46.4009C60 47.7786 60.8954 48.8955 62 48.8955Z" fill="#0D1719"/>
<path d="M78 48.8955C79.1046 48.8955 80 47.7786 80 46.4009C80 45.0231 79.1046 43.9062 78 43.9062C76.8954 43.9062 76 45.0231 76 46.4009C76 47.7786 76.8954 48.8955 78 48.8955Z" fill="#0D1719"/>
<path d="M70.4502 59.7541C69.4712 59.7567 68.5015 59.5685 67.5963 59.2002C66.6912 58.8319 65.8686 58.2908 65.1758 57.6079C65.1201 57.5534 65.076 57.4886 65.0458 57.4171C65.0157 57.3457 65 57.269 65 57.1916C65 57.1142 65.0157 57.0376 65.0458 56.9662C65.076 56.8947 65.1201 56.8298 65.1758 56.7753C65.231 56.7204 65.2965 56.6767 65.3689 56.6469C65.4413 56.6171 65.519 56.6018 65.5975 56.6018C65.6759 56.6018 65.7536 56.6171 65.826 56.6469C65.8984 56.6767 65.9639 56.7204 66.0192 56.7753C66.599 57.3521 67.2897 57.8089 68.0505 58.119C68.8114 58.4291 69.6271 58.5863 70.4502 58.5813C71.2731 58.585 72.0886 58.4272 72.8493 58.1172C73.61 57.8071 74.3006 57.3511 74.8812 56.7753C74.9345 56.7192 74.9988 56.6745 75.0703 56.6439C75.1418 56.6133 75.2192 56.5977 75.2971 56.5977C75.375 56.5977 75.4518 56.6133 75.5233 56.6439C75.5948 56.6745 75.6597 56.7192 75.713 56.7753C75.7687 56.8298 75.8128 56.8947 75.8429 56.9662C75.8731 57.0376 75.8882 57.1142 75.8882 57.1916C75.8882 57.269 75.8731 57.3457 75.8429 57.4171C75.8128 57.4886 75.7687 57.5534 75.713 57.6079C75.0228 58.291 74.2021 58.8324 73.2988 59.2007C72.3956 59.5691 71.4275 59.7571 70.4502 59.7541Z" fill="#F66D62"/>
<path d="M79 49L101 71" stroke="#6967F9" stroke-width="2" stroke-linecap="round" stroke-linejoin="round"/>
<path d="M101 59V71H89" stroke="#6967F9" stroke-width="2" stroke-linecap="round" stroke-linejoin="round"/>
</g>
<defs>
<clipPath id="clip0_6_1386">
<rect width="140" height="127" fill="white"/>
</clipPath>
</defs>
</svg>
