<svg width="320" height="156" viewBox="0 0 320 156" fill="none" xmlns="http://www.w3.org/2000/svg">
<path d="M22.69 131.35C22.69 128.74 21.51 127.55 20 127.55C18.48 127.55 17.31 128.74 17.31 131.35C17.31 133.95 18.48 135.14 20 135.14C21.51 135.14 22.69 133.95 22.69 131.35ZM21.77 131.35C21.77 133.63 20.93 134.4 20 134.4C19.07 134.4 18.24 133.63 18.24 131.35C18.24 129.06 19.07 128.3 20 128.3C20.93 128.3 21.77 129.06 21.77 131.35Z" fill="#999999"/>
<path d="M15.1959 80.4L15.5259 78.48H18.3959V77.64H14.8859L14.2859 81.11L14.8759 81.28C15.3059 81.13 15.6859 81.04 16.0759 81.04C17.1259 81.04 17.7459 81.6 17.7459 82.56C17.7459 83.64 17.0159 84.27 16.0059 84.27C15.4059 84.27 14.8259 84 14.3859 83.63L13.8959 84.3C14.3459 84.73 15.0859 85.09 15.9659 85.09C17.4559 85.09 18.6259 84.07 18.6259 82.51C18.6259 81.23 17.7959 80.27 16.2459 80.27C15.8859 80.27 15.5359 80.31 15.1959 80.4ZM24.733 81.35C24.733 78.74 23.553 77.55 22.043 77.55C20.523 77.55 19.353 78.74 19.353 81.35C19.353 83.95 20.523 85.14 22.043 85.14C23.553 85.14 24.733 83.95 24.733 81.35ZM23.813 81.35C23.813 83.63 22.973 84.4 22.043 84.4C21.113 84.4 20.283 83.63 20.283 81.35C20.283 79.06 21.113 78.3 22.043 78.3C22.973 78.3 23.813 79.06 23.813 81.35Z" fill="#999999"/>
<path d="M12.7889 35V34.26H11.3489V27.63H10.6189L8.64891 29.33L9.13891 29.92L10.4689 28.73C10.4589 28.8 10.4589 28.89 10.4589 28.98V34.26H8.82891V35H12.7889ZM18.9759 31.35C18.9759 28.74 17.7959 27.55 16.2859 27.55C14.7659 27.55 13.5959 28.74 13.5959 31.35C13.5959 33.95 14.7659 35.14 16.2859 35.14C17.7959 35.14 18.9759 33.95 18.9759 31.35ZM18.0559 31.35C18.0559 33.63 17.2159 34.4 16.2859 34.4C15.3559 34.4 14.5259 33.63 14.5259 31.35C14.5259 29.06 15.3559 28.3 16.2859 28.3C17.2159 28.3 18.0559 29.06 18.0559 31.35ZM24.733 31.35C24.733 28.74 23.553 27.55 22.043 27.55C20.523 27.55 19.353 28.74 19.353 31.35C19.353 33.95 20.523 35.14 22.043 35.14C23.553 35.14 24.733 33.95 24.733 31.35ZM23.813 31.35C23.813 33.63 22.973 34.4 22.043 34.4C21.113 34.4 20.283 33.63 20.283 31.35C20.283 29.06 21.113 28.3 22.043 28.3C22.973 28.3 23.813 29.06 23.813 31.35Z" fill="#999999"/>
<path d="M29 133H320" stroke="#EBEBEB"/>
<path d="M29 83H320" stroke="#EBEBEB" stroke-dasharray="2 3"/>
<path d="M29 33H320" stroke="#EBEBEB" stroke-dasharray="2 3"/>
<path d="M2.39 11.43L2.96 11.16C2.08 9.71 1.68 8.1 1.68 6.35C1.68 4.6 2.08 2.99 2.96 1.54L2.39 1.28C1.47 2.77 0.92 4.39 0.92 6.35C0.92 8.32 1.47 9.94 2.39 11.43ZM11.0989 7.02V1.77H10.2689V4.02H8.49891V4.7H10.2689V7.02H11.0989ZM8.58891 6.73L8.99891 6.09C7.69891 5.64 6.81891 4.5 6.81891 3.34V3.01H8.78891V2.34H3.99891V3.01H5.99891V3.35C5.99891 4.62 5.06891 5.81 3.73891 6.29L4.16891 6.93C5.21891 6.54 6.03891 5.74 6.42891 4.7C6.81891 5.62 7.58891 6.37 8.58891 6.73ZM11.0989 7.46H5.26891V10.62H11.0989V7.46ZM10.2989 9.96H6.06891V8.11H10.2989V9.96ZM20.0881 5.85L20.4281 5.19C18.7981 4.95 17.1981 3.84 17.1981 2.59V2.09H16.3381V2.59C16.3381 3.88 14.7681 4.95 13.1281 5.19L13.4581 5.85C14.8481 5.61 16.2081 4.84 16.7681 3.75C17.3581 4.84 18.6881 5.61 20.0881 5.85ZM17.1581 7.5H20.8281L20.8181 6.82H12.7181V7.5H16.3381V10.75H17.1581V7.5ZM21.6073 11.1L22.1673 11.37C23.0973 9.88 23.6473 8.26 23.6473 6.29C23.6473 4.33 23.0973 2.71 22.1673 1.22L21.6073 1.48C22.4873 2.93 22.8873 4.54 22.8873 6.29C22.8873 8.04 22.4873 9.65 21.6073 11.1Z" fill="#999999"/>
<path d="M75.6219 143.028V153.996H76.8819V143.028H75.6219ZM72.4059 144.192V144.408C72.4059 147.336 71.0739 149.508 67.9179 151.032L68.5779 152.04C72.3459 150.204 73.6419 147.444 73.6419 144.192H72.4059ZM68.4579 144.192V145.2H72.9699V144.192H68.4579ZM79.9169 143.448V147.864H87.2609V143.448H86.0129V144.684H81.1529V143.448H79.9169ZM81.1529 145.668H86.0129V146.868H81.1529V145.668ZM78.6209 148.932V149.94H88.5329V148.932H78.6209ZM82.9529 147.312V149.364H84.2009V147.312H82.9529ZM79.8689 152.76V153.78H87.4289V152.76H79.8689ZM79.8689 150.72V153.12H81.1289V150.72H79.8689ZM89.42 148.26V149.268H99.332V148.26H89.42ZM94.364 150.036C92 150.036 90.584 150.744 90.584 152.016C90.584 153.288 92 153.996 94.364 153.996C96.716 153.996 98.144 153.288 98.144 152.016C98.144 150.744 96.716 150.036 94.364 150.036ZM94.364 150.996C95.972 150.996 96.872 151.356 96.872 152.016C96.872 152.688 95.972 153.036 94.364 153.036C92.756 153.036 91.856 152.688 91.856 152.016C91.856 151.356 92.756 150.996 94.364 150.996ZM94.376 143.28C91.988 143.28 90.476 144.084 90.476 145.404C90.476 146.724 91.988 147.516 94.376 147.516C96.764 147.516 98.288 146.724 98.288 145.404C98.288 144.084 96.764 143.28 94.376 143.28ZM94.376 144.264C96.008 144.264 96.992 144.672 96.992 145.404C96.992 146.136 96.008 146.532 94.376 146.532C92.744 146.532 91.772 146.136 91.772 145.404C91.772 144.672 92.744 144.264 94.376 144.264ZM108.379 143.028V153.996H109.579V143.028H108.379ZM106.699 147.348V148.368H108.679V147.348H106.699ZM105.907 143.244V153.456H107.071V143.244H105.907ZM100.579 150.348V151.392H101.323C102.859 151.392 103.987 151.344 105.307 151.08L105.199 150.048C103.915 150.3 102.811 150.348 101.323 150.348H100.579ZM100.579 144.336V150.84H101.827V145.356H104.647V144.336H100.579Z" fill="#FF913C"/>
<path d="M236.194 148.044C234.586 147.516 233.662 146.196 233.662 144.804V143.64H232.414V144.708C232.414 146.268 231.49 147.744 229.786 148.332L230.446 149.316C231.694 148.86 232.582 147.924 233.062 146.748C233.518 147.768 234.382 148.596 235.546 149.016L236.194 148.044ZM234.862 152.952C233.35 152.952 232.474 152.58 232.474 151.884C232.474 151.212 233.35 150.828 234.862 150.828C236.374 150.828 237.25 151.212 237.25 151.884C237.25 152.58 236.374 152.952 234.862 152.952ZM234.862 149.856C232.63 149.856 231.25 150.612 231.25 151.884C231.25 153.168 232.63 153.924 234.862 153.924C237.106 153.924 238.474 153.168 238.474 151.884C238.474 150.612 237.106 149.856 234.862 149.856ZM238.354 145.764V143.076H237.118V149.592H238.354V146.784H239.89V145.764H238.354ZM247.065 143.952H244.605V143.004H243.357V143.952H240.873V144.864H247.065V143.952ZM242.553 146.772C242.553 146.316 243.105 146.052 243.969 146.052C244.845 146.052 245.385 146.316 245.385 146.772C245.385 147.24 244.845 147.504 243.969 147.504C243.105 147.504 242.553 147.24 242.553 146.772ZM247.365 148.752C246.489 148.872 245.541 148.944 244.605 148.992V148.284C245.805 148.14 246.549 147.588 246.549 146.772C246.549 145.812 245.529 145.236 243.969 145.236C242.409 145.236 241.389 145.812 241.389 146.772C241.389 147.6 242.133 148.14 243.357 148.284V149.04C242.361 149.076 241.413 149.076 240.597 149.076L240.741 150.036C242.637 150.036 245.181 150 247.461 149.592L247.365 148.752ZM245.637 153.024C244.065 153.024 243.261 152.76 243.261 152.244C243.261 151.716 244.065 151.452 245.637 151.452C247.197 151.452 248.001 151.716 248.001 152.244C248.001 152.76 247.197 153.024 245.637 153.024ZM245.637 150.552C243.345 150.552 242.013 151.14 242.013 152.244C242.013 153.336 243.345 153.936 245.637 153.936C247.917 153.936 249.249 153.336 249.249 152.244C249.249 151.14 247.917 150.552 245.637 150.552ZM249.177 146.268V143.1H247.941V150.408H249.177V147.288H250.665V146.268H249.177ZM251.48 148.26V149.256H261.284V148.26H251.48ZM256.364 150.012C254.036 150.012 252.632 150.732 252.632 151.98C252.632 153.228 254.036 153.936 256.364 153.936C258.704 153.936 260.096 153.228 260.096 151.98C260.096 150.732 258.704 150.012 256.364 150.012ZM256.364 150.972C257.948 150.972 258.848 151.32 258.848 151.98C258.848 152.64 257.948 152.988 256.364 152.988C254.78 152.988 253.892 152.64 253.892 151.98C253.892 151.32 254.78 150.972 256.364 150.972ZM256.388 143.34C254.024 143.34 252.524 144.132 252.524 145.44C252.524 146.736 254.024 147.528 256.388 147.528C258.74 147.528 260.252 146.736 260.252 145.44C260.252 144.132 258.74 143.34 256.388 143.34ZM256.388 144.312C257.996 144.312 258.968 144.72 258.968 145.44C258.968 146.148 257.996 146.556 256.388 146.556C254.78 146.556 253.796 146.148 253.796 145.44C253.796 144.72 254.78 144.312 256.388 144.312ZM263.863 145.38H266.659V144.372H262.651V151.344H263.371C264.895 151.344 266.011 151.296 267.319 151.044L267.211 150.024C266.095 150.252 265.111 150.312 263.863 150.324V145.38ZM270.355 143.076V147.36H269.071V143.304H267.907V153.384H269.071V148.368H270.355V153.912H271.531V143.076H270.355Z" fill="#FD557A"/>
<path d="M175 27L175 139" stroke="#EBEBEB" stroke-dasharray="2 2"/>
</svg>
