<svg width="320" height="114" viewBox="0 0 320 114" fill="none" xmlns="http://www.w3.org/2000/svg">
<path d="M97.1312 107.11C95.8112 106.67 94.9612 105.62 94.9612 104.45V104.1H96.9412V103.44H92.1312V104.1H94.1412V104.45C94.1412 105.74 93.2412 106.9 91.8912 107.37L92.3112 108.02C93.3812 107.64 94.1912 106.84 94.5712 105.82C94.9512 106.71 95.7212 107.42 96.7412 107.75L97.1312 107.11ZM96.0412 111.08C94.7012 111.08 93.9012 110.71 93.9012 110.07C93.9012 109.44 94.7012 109.07 96.0412 109.07C97.3612 109.07 98.1712 109.44 98.1712 110.07C98.1712 110.71 97.3612 111.08 96.0412 111.08ZM96.0412 108.42C94.2012 108.42 93.0812 109.03 93.0812 110.07C93.0812 111.12 94.2012 111.73 96.0412 111.73C97.8612 111.73 98.9912 111.12 98.9912 110.07C98.9912 109.03 97.8612 108.42 96.0412 108.42ZM98.8912 105.04V102.78H98.0712V108.19H98.8912V105.73H100.221V105.04H98.8912ZM102.07 106.79H105.16V103.58H101.24V104.24H104.35V106.12H101.26V109.66H101.94C103.34 109.66 104.49 109.61 105.9 109.39L105.83 108.71C104.49 108.92 103.39 108.98 102.07 108.98V106.79ZM107.49 102.76V104.81H105.72V105.48H107.49V107.27H105.66V107.94H107.49V111.75H108.31V102.76H107.49ZM115.11 106.99C113.82 106.55 112.94 105.43 112.94 104.22V103.23H112.12V104.15C112.12 105.52 111.25 106.74 109.89 107.23L110.32 107.88C111.37 107.48 112.17 106.66 112.54 105.61C112.94 106.53 113.71 107.27 114.68 107.63L115.11 106.99ZM114.04 111.09C112.71 111.09 111.9 110.72 111.9 110.1C111.9 109.47 112.71 109.1 114.04 109.1C115.36 109.1 116.17 109.47 116.17 110.1C116.17 110.72 115.36 111.09 114.04 111.09ZM114.04 108.46C112.21 108.46 111.08 109.05 111.08 110.1C111.08 111.14 112.21 111.73 114.04 111.73C115.86 111.73 116.99 111.14 116.99 110.1C116.99 109.05 115.86 108.46 114.04 108.46ZM116.89 105.09V102.78H116.07V108.21H116.89V105.77H118.22V105.09H116.89Z" fill="#999999"/>
<path d="M92.4728 96H97.0828V95.21H95.0528C94.6828 95.21 94.2328 95.25 93.8528 95.28C95.5728 93.65 96.7228 92.16 96.7228 90.7C96.7228 89.39 95.9028 88.53 94.5928 88.53C93.6628 88.53 93.0328 88.96 92.4328 89.61L92.9628 90.13C93.3628 89.65 93.8828 89.28 94.4828 89.28C95.3928 89.28 95.8328 89.89 95.8328 90.73C95.8328 91.99 94.7728 93.45 92.4728 95.46V96ZM98.2597 96H102.28V95.24H100.81V88.66H100.11C99.7097 88.9 99.2397 89.07 98.5897 89.19V89.77H99.8897V95.24H98.2597V96ZM106.487 93.13C106.967 93.13 107.467 92.83 107.877 92.13L107.357 91.76C107.107 92.24 106.827 92.44 106.507 92.44C105.877 92.44 105.407 91.5 104.527 91.5C104.037 91.5 103.537 91.8 103.127 92.5L103.637 92.86C103.897 92.38 104.177 92.18 104.497 92.18C105.127 92.18 105.607 93.13 106.487 93.13ZM109.223 93.25L110.893 90.75C111.103 90.39 111.303 90.03 111.483 89.67H111.523C111.503 90.05 111.473 90.64 111.473 91V93.25H109.223ZM111.473 96H112.333V93.98H113.303V93.25H112.333V88.66H111.323L108.273 93.38V93.98H111.473V96ZM116.2 96.13C117.59 96.13 118.48 94.86 118.48 92.31C118.48 89.77 117.59 88.53 116.2 88.53C114.8 88.53 113.91 89.76 113.91 92.31C113.91 94.86 114.8 96.13 116.2 96.13ZM116.2 95.4C115.36 95.4 114.8 94.47 114.8 92.31C114.8 90.17 115.36 89.26 116.2 89.26C117.03 89.26 117.59 90.17 117.59 92.31C117.59 94.47 117.03 95.4 116.2 95.4Z" fill="#999999"/>
<path d="M155.971 103.79C157.341 103.79 158.271 104.3 158.271 105.09C158.271 105.89 157.341 106.4 155.971 106.4C154.611 106.4 153.681 105.89 153.681 105.09C153.681 104.3 154.611 103.79 155.971 103.79ZM155.971 107.06C157.841 107.06 159.111 106.3 159.111 105.09C159.111 103.89 157.841 103.13 155.971 103.13C154.111 103.13 152.841 103.89 152.841 105.09C152.841 106.3 154.111 107.06 155.971 107.06ZM160.051 107.91H151.931V108.59H155.561V111.75H156.381V108.59H160.051V107.91ZM168.65 106.19C167.02 105.95 165.42 104.84 165.42 103.59V103.09H164.56V103.59C164.56 104.87 162.98 105.95 161.35 106.19L161.68 106.85C163.08 106.61 164.43 105.84 164.99 104.75C165.57 105.83 166.92 106.61 168.31 106.85L168.65 106.19ZM169.04 107.82H160.94V108.5H164.56V111.75H165.38V108.5H169.05L169.04 107.82ZM175.11 106.99C173.82 106.55 172.94 105.43 172.94 104.22V103.23H172.12V104.15C172.12 105.52 171.25 106.74 169.89 107.23L170.32 107.88C171.37 107.48 172.17 106.66 172.54 105.61C172.94 106.53 173.71 107.27 174.68 107.63L175.11 106.99ZM174.04 111.09C172.71 111.09 171.9 110.72 171.9 110.1C171.9 109.47 172.71 109.1 174.04 109.1C175.36 109.1 176.17 109.47 176.17 110.1C176.17 110.72 175.36 111.09 174.04 111.09ZM174.04 108.46C172.21 108.46 171.08 109.05 171.08 110.1C171.08 111.14 172.21 111.73 174.04 111.73C175.86 111.73 176.99 111.14 176.99 110.1C176.99 109.05 175.86 108.46 174.04 108.46ZM176.89 105.09V102.78H176.07V108.21H176.89V105.77H178.22V105.09H176.89Z" fill="#999999"/>
<path d="M153.183 93.25L154.853 90.75C155.063 90.39 155.263 90.03 155.443 89.67H155.483C155.463 90.05 155.433 90.64 155.433 91V93.25H153.183ZM155.433 96H156.293V93.98H157.263V93.25H156.293V88.66H155.283L152.233 93.38V93.98H155.433V96ZM158.26 96H162.28V95.24H160.81V88.66H160.11C159.71 88.9 159.24 89.07 158.59 89.19V89.77H159.89V95.24H158.26V96ZM166.487 93.13C166.967 93.13 167.467 92.83 167.877 92.13L167.357 91.76C167.107 92.24 166.827 92.44 166.507 92.44C165.877 92.44 165.407 91.5 164.527 91.5C164.037 91.5 163.537 91.8 163.127 92.5L163.637 92.86C163.897 92.38 164.177 92.18 164.497 92.18C165.127 92.18 165.607 93.13 166.487 93.13ZM171.003 92.13C171.893 92.13 172.333 92.76 172.333 93.75C172.333 94.75 171.783 95.42 171.083 95.42C170.163 95.42 169.613 94.59 169.503 93.07C169.953 92.4 170.543 92.13 171.003 92.13ZM171.083 96.13C172.223 96.13 173.183 95.17 173.183 93.75C173.183 92.22 172.393 91.45 171.153 91.45C170.573 91.45 169.933 91.79 169.483 92.34C169.523 90.06 170.373 89.29 171.373 89.29C171.823 89.29 172.263 89.5 172.553 89.85L173.053 89.28C172.653 88.85 172.103 88.53 171.343 88.53C169.923 88.53 168.633 89.63 168.633 92.5C168.633 94.92 169.673 96.13 171.083 96.13ZM176.2 96.13C177.59 96.13 178.48 94.86 178.48 92.31C178.48 89.77 177.59 88.53 176.2 88.53C174.8 88.53 173.91 89.76 173.91 92.31C173.91 94.86 174.8 96.13 176.2 96.13ZM176.2 95.4C175.36 95.4 174.8 94.47 174.8 92.31C174.8 90.17 175.36 89.26 176.2 89.26C177.03 89.26 177.59 90.17 177.59 92.31C177.59 94.47 177.03 95.4 176.2 95.4Z" fill="#999999"/>
<path d="M209.632 107.81C210.702 107.47 211.532 106.76 211.922 105.82C212.332 106.71 213.152 107.39 214.212 107.71L214.592 107.08C213.282 106.69 212.342 105.74 212.322 104.6H214.392V103.94H212.322V102.83H211.502V103.94H209.462V104.6H211.502C211.482 105.78 210.572 106.77 209.252 107.17L209.632 107.81ZM212.322 107.51H211.502V109.18C210.592 109.21 209.722 109.21 208.982 109.21L209.092 109.9C210.692 109.89 212.892 109.88 214.902 109.51L214.832 108.9C214.032 109.03 213.162 109.09 212.322 109.14V107.51ZM215.422 102.77V111.75H216.242V102.77H215.422ZM221.971 103.79C223.341 103.79 224.271 104.3 224.271 105.09C224.271 105.89 223.341 106.4 221.971 106.4C220.611 106.4 219.681 105.89 219.681 105.09C219.681 104.3 220.611 103.79 221.971 103.79ZM221.971 107.06C223.841 107.06 225.111 106.3 225.111 105.09C225.111 103.89 223.841 103.13 221.971 103.13C220.111 103.13 218.841 103.89 218.841 105.09C218.841 106.3 220.111 107.06 221.971 107.06ZM226.051 107.91H217.931V108.59H221.561V111.75H222.381V108.59H226.051V107.91ZM234.65 106.19C233.02 105.95 231.42 104.84 231.42 103.59V103.09H230.56V103.59C230.56 104.87 228.98 105.95 227.35 106.19L227.68 106.85C229.08 106.61 230.43 105.84 230.99 104.75C231.57 105.83 232.92 106.61 234.31 106.85L234.65 106.19ZM235.04 107.82H226.94V108.5H230.56V111.75H231.38V108.5H235.05L235.04 107.82ZM241.109 106.99C239.819 106.55 238.939 105.43 238.939 104.22V103.23H238.119V104.15C238.119 105.52 237.249 106.74 235.889 107.23L236.319 107.88C237.369 107.48 238.169 106.66 238.539 105.61C238.939 106.53 239.709 107.27 240.679 107.63L241.109 106.99ZM240.039 111.09C238.709 111.09 237.899 110.72 237.899 110.1C237.899 109.47 238.709 109.1 240.039 109.1C241.359 109.1 242.169 109.47 242.169 110.1C242.169 110.72 241.359 111.09 240.039 111.09ZM240.039 108.46C238.209 108.46 237.079 109.05 237.079 110.1C237.079 111.14 238.209 111.73 240.039 111.73C241.859 111.73 242.989 111.14 242.989 110.1C242.989 109.05 241.859 108.46 240.039 108.46ZM242.889 105.09V102.78H242.069V108.21H242.889V105.77H244.219V105.09H242.889Z" fill="#999999"/>
<path d="M215.963 92.13C216.853 92.13 217.293 92.76 217.293 93.75C217.293 94.75 216.743 95.42 216.043 95.42C215.123 95.42 214.573 94.59 214.463 93.07C214.913 92.4 215.503 92.13 215.963 92.13ZM216.043 96.13C217.183 96.13 218.143 95.17 218.143 93.75C218.143 92.22 217.353 91.45 216.113 91.45C215.533 91.45 214.893 91.79 214.443 92.34C214.483 90.06 215.333 89.29 216.333 89.29C216.783 89.29 217.223 89.5 217.513 89.85L218.013 89.28C217.613 88.85 217.063 88.53 216.303 88.53C214.883 88.53 213.593 89.63 213.593 92.5C213.593 94.92 214.633 96.13 216.043 96.13ZM219.26 96H223.28V95.24H221.81V88.66H221.11C220.71 88.9 220.24 89.07 219.59 89.19V89.77H220.89V95.24H219.26V96ZM227.487 93.13C227.967 93.13 228.467 92.83 228.877 92.13L228.357 91.76C228.107 92.24 227.827 92.44 227.507 92.44C226.877 92.44 226.407 91.5 225.527 91.5C225.037 91.5 224.537 91.8 224.127 92.5L224.637 92.86C224.897 92.38 225.177 92.18 225.497 92.18C226.127 92.18 226.607 93.13 227.487 93.13ZM231.863 96.13C233.243 96.13 234.163 95.3 234.163 94.23C234.163 93.23 233.563 92.68 232.923 92.31V92.26C233.363 91.92 233.903 91.26 233.903 90.49C233.903 89.36 233.143 88.56 231.893 88.56C230.753 88.56 229.883 89.3 229.883 90.42C229.883 91.19 230.333 91.74 230.873 92.11V92.16C230.203 92.52 229.523 93.2 229.523 94.18C229.523 95.31 230.513 96.13 231.863 96.13ZM232.363 92.02C231.503 91.68 230.713 91.3 230.713 90.42C230.713 89.71 231.203 89.23 231.883 89.23C232.673 89.23 233.123 89.82 233.123 90.54C233.123 91.08 232.863 91.58 232.363 92.02ZM231.883 95.45C231.003 95.45 230.353 94.88 230.353 94.1C230.353 93.4 230.763 92.82 231.353 92.44C232.393 92.86 233.293 93.23 233.293 94.21C233.293 94.94 232.723 95.45 231.883 95.45ZM237.2 96.13C238.59 96.13 239.48 94.86 239.48 92.31C239.48 89.77 238.59 88.53 237.2 88.53C235.8 88.53 234.91 89.76 234.91 92.31C234.91 94.86 235.8 96.13 237.2 96.13ZM237.2 95.4C236.36 95.4 235.8 94.47 235.8 92.31C235.8 90.17 236.36 89.26 237.2 89.26C238.03 89.26 238.59 90.17 238.59 92.31C238.59 94.47 238.03 95.4 237.2 95.4Z" fill="#999999"/>
<path d="M278.061 104.53H280.591V103.86H277.251V109.53H277.841C279.181 109.53 280.091 109.49 281.161 109.26L281.091 108.58C280.111 108.79 279.261 108.84 278.061 108.85V104.53ZM283.761 102.77V106.37H282.491V102.97H281.721V111.29H282.491V107.04H283.761V111.74H284.551V102.77H283.761ZM291.11 106.99C289.82 106.55 288.94 105.43 288.94 104.22V103.23H288.12V104.15C288.12 105.52 287.25 106.74 285.89 107.23L286.32 107.88C287.37 107.48 288.17 106.66 288.54 105.61C288.94 106.53 289.71 107.27 290.68 107.63L291.11 106.99ZM290.04 111.09C288.71 111.09 287.9 110.72 287.9 110.1C287.9 109.47 288.71 109.1 290.04 109.1C291.36 109.1 292.17 109.47 292.17 110.1C292.17 110.72 291.36 111.09 290.04 111.09ZM290.04 108.46C288.21 108.46 287.08 109.05 287.08 110.1C287.08 111.14 288.21 111.73 290.04 111.73C291.86 111.73 292.99 111.14 292.99 110.1C292.99 109.05 291.86 108.46 290.04 108.46ZM292.89 105.09V102.78H292.07V108.21H292.89V105.77H294.22V105.09H292.89Z" fill="#999999"/>
<path d="M10 7H320" stroke="#EBEBEB" stroke-dasharray="2 3"/>
<path d="M10 45H320" stroke="#EBEBEB" stroke-dasharray="2 3"/>
<path d="M272.149 96.13C273.529 96.13 274.449 95.3 274.449 94.23C274.449 93.23 273.849 92.68 273.209 92.31V92.26C273.649 91.92 274.189 91.26 274.189 90.49C274.189 89.36 273.429 88.56 272.179 88.56C271.039 88.56 270.169 89.3 270.169 90.42C270.169 91.19 270.619 91.74 271.159 92.11V92.16C270.489 92.52 269.809 93.2 269.809 94.18C269.809 95.31 270.799 96.13 272.149 96.13ZM272.649 92.02C271.789 91.68 270.999 91.3 270.999 90.42C270.999 89.71 271.489 89.23 272.169 89.23C272.959 89.23 273.409 89.82 273.409 90.54C273.409 91.08 273.149 91.58 272.649 92.02ZM272.169 95.45C271.289 95.45 270.639 94.88 270.639 94.1C270.639 93.4 271.049 92.82 271.639 92.44C272.679 92.86 273.579 93.23 273.579 94.21C273.579 94.94 273.009 95.45 272.169 95.45ZM275.586 96H279.606V95.24H278.136V88.66H277.436C277.036 88.9 276.566 89.07 275.916 89.19V89.77H277.216V95.24H275.586V96ZM283.813 93.13C284.293 93.13 284.793 92.83 285.203 92.13L284.683 91.76C284.433 92.24 284.153 92.44 283.833 92.44C283.203 92.44 282.733 91.5 281.853 91.5C281.363 91.5 280.863 91.8 280.453 92.5L280.963 92.86C281.223 92.38 281.503 92.18 281.823 92.18C282.453 92.18 282.933 93.13 283.813 93.13ZM286.28 96H290.3V95.24H288.83V88.66H288.13C287.73 88.9 287.26 89.07 286.61 89.19V89.77H287.91V95.24H286.28V96ZM293.527 96.13C294.917 96.13 295.807 94.86 295.807 92.31C295.807 89.77 294.917 88.53 293.527 88.53C292.127 88.53 291.237 89.76 291.237 92.31C291.237 94.86 292.127 96.13 293.527 96.13ZM293.527 95.4C292.687 95.4 292.127 94.47 292.127 92.31C292.127 90.17 292.687 89.26 293.527 89.26C294.357 89.26 294.917 90.17 294.917 92.31C294.917 94.47 294.357 95.4 293.527 95.4ZM298.874 96.13C300.264 96.13 301.154 94.86 301.154 92.31C301.154 89.77 300.264 88.53 298.874 88.53C297.474 88.53 296.584 89.76 296.584 92.31C296.584 94.86 297.474 96.13 298.874 96.13ZM298.874 95.4C298.034 95.4 297.474 94.47 297.474 92.31C297.474 90.17 298.034 89.26 298.874 89.26C299.704 89.26 300.264 90.17 300.264 92.31C300.264 94.47 299.704 95.4 298.874 95.4Z" fill="#999999"/>
<path d="M2.85 87.13C4.29 87.13 5.23 85.85 5.23 83.29C5.23 80.75 4.29 79.5 2.85 79.5C1.41 79.5 0.47 80.74 0.47 83.29C0.47 85.85 1.41 87.13 2.85 87.13ZM2.85 86.22C2.1 86.22 1.57 85.42 1.57 83.29C1.57 81.18 2.1 80.41 2.85 80.41C3.6 80.41 4.13 81.18 4.13 83.29C4.13 85.42 3.6 86.22 2.85 86.22Z" fill="#999999"/>
<path d="M0.97 11H2.07V7.53C2.07 6.73 1.98 5.88 1.92 5.12H1.97L2.74 6.66L5.18 11H6.37V3.63H5.27V7.07C5.27 7.87 5.36 8.76 5.42 9.52H5.37L4.6 7.96L2.16 3.63H0.97V11Z" fill="#999999"/>
<path d="M34.3212 108.99C33.4512 108.99 32.8412 108.05 32.8412 106.59C32.8412 105.14 33.4512 104.2 34.3212 104.2C35.1812 104.2 35.7912 105.14 35.7912 106.59C35.7912 108.05 35.1812 108.99 34.3212 108.99ZM34.3212 103.46C33.0012 103.46 32.0612 104.68 32.0612 106.59C32.0612 108.5 33.0012 109.72 34.3212 109.72C35.6412 109.72 36.5712 108.5 36.5712 106.59C36.5712 104.68 35.6412 103.46 34.3212 103.46ZM40.3112 106.35H38.8312V102.78H38.0112V111.74H38.8312V107.04H40.3112V106.35ZM43.9304 104.98H45.9204V104.32H43.9304V102.93H43.1104V104.32H41.0904V104.98H43.1204V105.68C43.1204 107.23 42.1604 108.75 40.8504 109.39L41.3104 110.01C42.3304 109.51 43.1504 108.47 43.5304 107.24C43.9104 108.39 44.6704 109.37 45.6504 109.85L46.1104 109.21C44.8204 108.59 43.9304 107.12 43.9304 105.68V104.98ZM49.3104 106.46H47.8304V102.77H47.0104V111.74H47.8304V107.14H49.3104V106.46ZM55.1096 106.99C53.8196 106.55 52.9396 105.43 52.9396 104.22V103.23H52.1196V104.15C52.1196 105.52 51.2496 106.74 49.8896 107.23L50.3196 107.88C51.3696 107.48 52.1696 106.66 52.5396 105.61C52.9396 106.53 53.7096 107.27 54.6796 107.63L55.1096 106.99ZM54.0396 111.09C52.7096 111.09 51.8996 110.72 51.8996 110.1C51.8996 109.47 52.7096 109.1 54.0396 109.1C55.3596 109.1 56.1696 109.47 56.1696 110.1C56.1696 110.72 55.3596 111.09 54.0396 111.09ZM54.0396 108.46C52.2096 108.46 51.0796 109.05 51.0796 110.1C51.0796 111.14 52.2096 111.73 54.0396 111.73C55.8596 111.73 56.9896 111.14 56.9896 110.1C56.9896 109.05 55.8596 108.46 54.0396 108.46ZM56.8896 105.09V102.78H56.0696V108.21H56.8896V105.77H58.2196V105.09H56.8896Z" fill="#999999"/>
<path d="M36.9863 96.13C38.3763 96.13 39.2663 94.86 39.2663 92.31C39.2663 89.77 38.3763 88.53 36.9863 88.53C35.5863 88.53 34.6963 89.76 34.6963 92.31C34.6963 94.86 35.5863 96.13 36.9863 96.13ZM36.9863 95.4C36.1463 95.4 35.5863 94.47 35.5863 92.31C35.5863 90.17 36.1463 89.26 36.9863 89.26C37.8163 89.26 38.3763 90.17 38.3763 92.31C38.3763 94.47 37.8163 95.4 36.9863 95.4ZM43.3131 93.13C43.7931 93.13 44.2931 92.83 44.7031 92.13L44.1831 91.76C43.9331 92.24 43.6531 92.44 43.3331 92.44C42.7031 92.44 42.2331 91.5 41.3531 91.5C40.8631 91.5 40.3631 91.8 39.9531 92.5L40.4631 92.86C40.7231 92.38 41.0031 92.18 41.3231 92.18C41.9531 92.18 42.4331 93.13 43.3131 93.13ZM45.34 96H49.95V95.21H47.92C47.55 95.21 47.1 95.25 46.72 95.28C48.44 93.65 49.59 92.16 49.59 90.7C49.59 89.39 48.77 88.53 47.46 88.53C46.53 88.53 45.9 88.96 45.3 89.61L45.83 90.13C46.23 89.65 46.75 89.28 47.35 89.28C48.26 89.28 48.7 89.89 48.7 90.73C48.7 91.99 47.64 93.45 45.34 95.46V96ZM53.0269 96.13C54.4169 96.13 55.3069 94.86 55.3069 92.31C55.3069 89.77 54.4169 88.53 53.0269 88.53C51.6269 88.53 50.7369 89.76 50.7369 92.31C50.7369 94.86 51.6269 96.13 53.0269 96.13ZM53.0269 95.4C52.1869 95.4 51.6269 94.47 51.6269 92.31C51.6269 90.17 52.1869 89.26 53.0269 89.26C53.8569 89.26 54.4169 90.17 54.4169 92.31C54.4169 94.47 53.8569 95.4 53.0269 95.4Z" fill="#999999"/>
<path d="M10 83H320" stroke="#EBEBEB"/>
</svg>
