<svg width="14" height="14" viewBox="0 0 14 14" fill="none" xmlns="http://www.w3.org/2000/svg">
<path d="M10.6984 2H8.89844C8.6223 2 8.39844 2.22386 8.39844 2.5V11.5C8.39844 11.7761 8.62229 12 8.89844 12H10.6984C10.9746 12 11.1984 11.7761 11.1984 11.5V2.5C11.1984 2.22386 10.9746 2 10.6984 2Z" fill="white"/>
<path d="M5.10078 2H3.30078C3.02464 2 2.80078 2.22386 2.80078 2.5V11.5C2.80078 11.7761 3.02464 12 3.30078 12H5.10078C5.37692 12 5.60078 11.7761 5.60078 11.5V2.5C5.60078 2.22386 5.37692 2 5.10078 2Z" fill="white"/>
</svg>
