<svg width="38" height="41" viewBox="0 0 38 41" fill="none" xmlns="http://www.w3.org/2000/svg">
<g filter="url(#filter0_d_1_3196)">
<path fill-rule="evenodd" clip-rule="evenodd" d="M20.7933 29.8939C28.2321 29.0077 34 22.6774 34 15C34 6.71573 27.2843 0 19 0C10.7157 0 4 6.71573 4 15C4 22.6774 9.76785 29.0077 17.2067 29.8939L19 33L20.7933 29.8939Z" fill="white"/>
<path d="M19 25C24.523 25 29 20.523 29 15C29 9.477 24.523 5 19 5C13.477 5 9 9.477 9 15C9 20.523 13.477 25 19 25Z" stroke="#FABF48" stroke-width="2" stroke-linejoin="round"/>
<path d="M22.5 12V12.5" stroke="#FABF48" stroke-width="2" stroke-linecap="round" stroke-linejoin="round"/>
<path d="M15.5 12V12.5" stroke="#FABF48" stroke-width="2" stroke-linecap="round" stroke-linejoin="round"/>
<path d="M15.5 16.5C15.5 16.5 16.5 18.5 19 18.5C21.5 18.5 22.5 16.5 22.5 16.5" stroke="#FABF48" stroke-width="2" stroke-linecap="round" stroke-linejoin="round"/>
</g>
<defs>
<filter id="filter0_d_1_3196" x="0" y="0" width="38" height="41" filterUnits="userSpaceOnUse" color-interpolation-filters="sRGB">
<feFlood flood-opacity="0" result="BackgroundImageFix"/>
<feColorMatrix in="SourceAlpha" type="matrix" values="0 0 0 0 0 0 0 0 0 0 0 0 0 0 0 0 0 0 127 0" result="hardAlpha"/>
<feOffset dy="4"/>
<feGaussianBlur stdDeviation="2"/>
<feComposite in2="hardAlpha" operator="out"/>
<feColorMatrix type="matrix" values="0 0 0 0 0 0 0 0 0 0 0 0 0 0 0 0 0 0 0.25 0"/>
<feBlend mode="normal" in2="BackgroundImageFix" result="effect1_dropShadow_1_3196"/>
<feBlend mode="normal" in="SourceGraphic" in2="effect1_dropShadow_1_3196" result="shape"/>
</filter>
</defs>
</svg>
