<svg width="24" height="24" viewBox="0 0 24 24" fill="none" xmlns="http://www.w3.org/2000/svg">
<path d="M3.89346 11.1061C4.11732 11.1061 4.29879 10.9246 4.29879 10.7007C4.29879 10.4769 4.11732 10.2954 3.89346 10.2954C3.6696 10.2954 3.48813 10.4769 3.48813 10.7007C3.48813 10.9246 3.6696 11.1061 3.89346 11.1061Z" fill="#333333"/>
<path d="M7.13609 11.1061C7.35995 11.1061 7.54142 10.9246 7.54142 10.7007C7.54142 10.4769 7.35995 10.2954 7.13609 10.2954C6.91223 10.2954 6.73076 10.4769 6.73076 10.7007C6.73076 10.9246 6.91223 11.1061 7.13609 11.1061Z" fill="#333333"/>
<path d="M7.59777 12.02C7.5581 11.9845 7.51182 11.9571 7.46157 11.9395C7.41133 11.9219 7.3581 11.9143 7.30493 11.9172C7.25176 11.9202 7.19969 11.9336 7.1517 11.9567C7.10371 11.9797 7.06074 12.012 7.02524 12.0517C6.83514 12.2643 6.60233 12.4343 6.34201 12.5508C6.0817 12.6672 5.79974 12.7274 5.51458 12.7274C5.22941 12.7274 4.94746 12.6672 4.68714 12.5508C4.42682 12.4343 4.19401 12.2643 4.00391 12.0517C3.93196 11.9726 3.83166 11.9252 3.72487 11.9197C3.61809 11.9142 3.51346 11.9512 3.43378 12.0225C3.35411 12.0938 3.30584 12.1937 3.29948 12.3004C3.29313 12.4072 3.32921 12.5121 3.39987 12.5923C3.666 12.8899 3.99192 13.1279 4.35632 13.2908C4.72072 13.4538 5.1154 13.538 5.51458 13.538C5.91375 13.538 6.30843 13.4538 6.67283 13.2908C7.03723 13.1279 7.36315 12.8899 7.62928 12.5923C7.70099 12.5123 7.73796 12.407 7.73205 12.2997C7.72614 12.1923 7.67783 12.0917 7.59777 12.02Z" fill="#333333"/>
<path d="M16.864 8.67418C17.0879 8.67418 17.2693 8.49271 17.2693 8.26885C17.2693 8.045 17.0879 7.86353 16.864 7.86353C16.6401 7.86353 16.4587 8.045 16.4587 8.26885C16.4587 8.49271 16.6401 8.67418 16.864 8.67418Z" fill="#333333"/>
<path d="M20.1066 8.67418C20.3305 8.67418 20.512 8.49271 20.512 8.26885C20.512 8.045 20.3305 7.86353 20.1066 7.86353C19.8828 7.86353 19.7013 8.045 19.7013 8.26885C19.7013 8.49271 19.8828 8.67418 20.1066 8.67418Z" fill="#333333"/>
<path d="M20.5999 10.4304C20.3338 10.1329 20.0079 9.89488 19.6435 9.73192C19.2791 9.56897 18.8844 9.48474 18.4852 9.48474C18.0861 9.48474 17.6914 9.56897 17.327 9.73192C16.9626 9.89488 16.6367 10.1329 16.3705 10.4304C16.3345 10.47 16.3067 10.5163 16.2887 10.5667C16.2707 10.6171 16.2628 10.6705 16.2656 10.7239C16.2683 10.7774 16.2816 10.8297 16.3047 10.878C16.3278 10.9263 16.3602 10.9695 16.4 11.0052C16.4399 11.0409 16.4865 11.0683 16.537 11.0859C16.5875 11.1035 16.641 11.111 16.6944 11.1078C16.7478 11.1046 16.8001 11.0909 16.8482 11.0674C16.8963 11.0439 16.9392 11.0112 16.9746 10.971C17.1647 10.7584 17.3975 10.5884 17.6578 10.472C17.9181 10.3555 18.2001 10.2954 18.4852 10.2954C18.7704 10.2954 19.0524 10.3555 19.3127 10.472C19.573 10.5884 19.8058 10.7584 19.9959 10.971C20.0313 11.0112 20.0742 11.0439 20.1223 11.0674C20.1704 11.0909 20.2226 11.1046 20.2761 11.1078C20.3295 11.111 20.383 11.1035 20.4335 11.0859C20.484 11.0683 20.5306 11.0409 20.5704 11.0052C20.6103 10.9695 20.6427 10.9263 20.6658 10.878C20.6889 10.8297 20.7022 10.7774 20.7049 10.7239C20.7077 10.6705 20.6998 10.6171 20.6818 10.5667C20.6638 10.5163 20.636 10.47 20.5999 10.4304Z" fill="#333333"/>
<path d="M23.6877 12.0973C23.6507 12.0417 23.6006 11.9962 23.5417 11.9647C23.4829 11.9332 23.4172 11.9167 23.3504 11.9168H22.2881C23.003 11.1714 23.4831 10.2323 23.6688 9.21635C23.8544 8.20035 23.7374 7.15221 23.3322 6.20218C22.927 5.25216 22.2516 4.44215 21.3899 3.87284C20.5281 3.30352 19.5181 3 18.4853 3C17.4525 3 16.4424 3.30352 15.5807 3.87284C14.719 4.44215 14.0436 5.25216 13.6384 6.20218C13.2332 7.15221 13.1162 8.20035 13.3018 9.21635C13.4875 10.2323 13.9676 11.1714 14.6825 11.9168H13.6202C13.5534 11.9167 13.4877 11.9332 13.4289 11.9647C13.3701 11.9962 13.3199 12.0418 13.2829 12.0973C13.2459 12.1528 13.2231 12.2166 13.2167 12.2831C13.2103 12.3495 13.2204 12.4165 13.2461 12.4781C13.6491 13.4496 14.315 14.2896 15.1688 14.9038C16.0226 15.518 17.0307 15.8821 18.08 15.9554V16.8496L13.0515 17.7925C12.9255 17.5749 12.7351 17.4017 12.5066 17.2968C12.2781 17.192 12.0227 17.1605 11.7756 17.2069C11.5284 17.2532 11.3018 17.375 11.1268 17.5556C10.9518 17.7361 10.8371 17.9665 10.7985 18.215L5.92009 19.1296V18.3873C6.96911 18.3138 7.97693 17.9496 8.83053 17.3354C9.68414 16.7212 10.3498 15.8814 10.7528 14.9101C10.7785 14.8485 10.7886 14.7815 10.7822 14.7151C10.7758 14.6486 10.7531 14.5848 10.716 14.5293C10.679 14.4737 10.6289 14.4282 10.57 14.3967C10.5112 14.3652 10.4455 14.3487 10.3787 14.3487H9.31756C10.0325 13.6034 10.5126 12.6643 10.6982 11.6483C10.8839 10.6323 10.7668 9.58418 10.3617 8.63416C9.95649 7.68414 9.28107 6.87413 8.41934 6.30481C7.55761 5.7355 6.54757 5.43198 5.51476 5.43198C4.48195 5.43198 3.47191 5.7355 2.61017 6.30481C1.74844 6.87413 1.07302 7.68414 0.667859 8.63416C0.262695 9.58418 0.145655 10.6323 0.331285 11.6483C0.516916 12.6643 0.997032 13.6034 1.71196 14.3487H0.648375C0.581629 14.3487 0.515915 14.3652 0.457068 14.3967C0.398222 14.4282 0.348064 14.4737 0.311049 14.5293C0.274035 14.5848 0.251309 14.6486 0.24489 14.7151C0.238472 14.7815 0.248559 14.8485 0.274256 14.9101C0.677464 15.8818 1.34347 16.7219 2.19755 17.3361C3.05162 17.9503 4.05996 18.3144 5.10943 18.3874V19.618C5.10943 19.6776 5.12255 19.7364 5.14787 19.7903C5.17319 19.8442 5.21008 19.8919 5.25591 19.9299C5.30174 19.968 5.3554 19.9954 5.41305 20.0104C5.47071 20.0253 5.53095 20.0274 5.58949 20.0164L10.9486 19.0116C11.0193 19.1332 11.1105 19.2417 11.2181 19.3323L10.4045 21.5023C10.3815 21.5637 10.3737 21.6296 10.3818 21.6946C10.3899 21.7596 10.4136 21.8217 10.4509 21.8755C10.4882 21.9294 10.538 21.9734 10.596 22.0037C10.654 22.0341 10.7185 22.05 10.784 22.05H13.216C13.2815 22.05 13.346 22.0341 13.4041 22.0037C13.4621 21.9734 13.5119 21.9294 13.5492 21.8755C13.5865 21.8217 13.6102 21.7596 13.6183 21.6946C13.6263 21.6296 13.6186 21.5637 13.5956 21.5023L12.7819 19.3323C13.007 19.1434 13.1561 18.8794 13.2016 18.5891L18.56 17.5844C18.6529 17.567 18.7368 17.5176 18.7972 17.4449C18.8576 17.3721 18.8906 17.2806 18.8906 17.186V15.9554C19.9399 15.8821 20.948 15.518 21.8018 14.9038C22.6556 14.2896 23.3214 13.4496 23.7245 12.4781C23.7502 12.4165 23.7603 12.3495 23.7539 12.2831C23.7475 12.2166 23.7248 12.1528 23.6877 12.0973ZM1.05614 10.7008C1.05616 9.93493 1.25344 9.18202 1.62897 8.51458C2.0045 7.84714 2.54562 7.28768 3.20017 6.89012C3.85472 6.49255 4.60064 6.27029 5.36605 6.24475C6.13145 6.21921 6.89054 6.39124 7.57014 6.74428C8.24974 7.09732 8.82695 7.61946 9.24614 8.26038C9.66533 8.9013 9.91237 9.63939 9.96345 10.4035C10.0145 11.1676 9.86793 11.932 9.53777 12.623C9.20761 13.3141 8.70503 13.9084 8.07847 14.3487H2.95105C2.3653 13.9377 1.88725 13.3915 1.5574 12.7565C1.22754 12.1215 1.0556 11.4163 1.05614 10.7008ZM1.29969 15.1594H9.72745C9.3002 15.8988 8.68589 16.5129 7.94622 16.9397C7.20656 17.3666 6.36758 17.5914 5.51357 17.5914C4.65955 17.5914 3.82058 17.3666 3.08091 16.9397C2.34125 16.5129 1.72694 15.8988 1.29969 15.1594ZM12 17.9967C12.0802 17.9967 12.1586 18.0205 12.2252 18.065C12.2919 18.1095 12.3438 18.1728 12.3745 18.2469C12.4052 18.321 12.4132 18.4025 12.3976 18.4811C12.3819 18.5597 12.3433 18.6319 12.2866 18.6886C12.23 18.7453 12.1577 18.7839 12.0791 18.7996C12.0005 18.8152 11.919 18.8072 11.8449 18.7765C11.7708 18.7458 11.7075 18.6939 11.663 18.6272C11.6185 18.5606 11.5947 18.4822 11.5947 18.402C11.5948 18.2946 11.6376 18.1915 11.7135 18.1155C11.7895 18.0396 11.8926 17.9968 12 17.9967ZM12.6312 21.2393H11.3689L11.9769 19.6174C11.9846 19.6174 11.9921 19.618 11.9999 19.618C12.0077 19.618 12.0151 19.6176 12.0229 19.6174L12.6312 21.2393ZM14.0267 8.26879C14.0267 7.50296 14.224 6.75004 14.5995 6.0826C14.975 5.41516 15.5162 4.8557 16.1707 4.45814C16.8253 4.06058 17.5712 3.83832 18.3366 3.81277C19.102 3.78723 19.8611 3.95927 20.5407 4.31231C21.2203 4.66535 21.7975 5.18749 22.2167 5.8284C22.6359 6.46932 22.8829 7.20741 22.934 7.97154C22.9851 8.73566 22.8385 9.50006 22.5083 10.1911C22.1782 10.8821 21.6756 11.4764 21.049 11.9168H15.9216C15.3358 11.5057 14.8578 10.9596 14.5279 10.3245C14.1981 9.68953 14.0261 8.98436 14.0267 8.26879ZM18.4853 15.1594C17.631 15.1609 16.7914 14.9369 16.0515 14.5098C15.3115 14.0828 14.6975 13.4679 14.2714 12.7274H22.6991C22.2731 13.4679 21.6591 14.0828 20.9191 14.5098C20.1792 14.9369 19.3396 15.1609 18.4853 15.1594Z" fill="#333333"/>
</svg>
