<svg width="150" height="158" viewBox="0 0 150 158" fill="none" xmlns="http://www.w3.org/2000/svg">
<rect x="150" y="130" width="8.00001" height="150" transform="rotate(90 150 130)" fill="url(#paint0_linear_168_2051)"/>
<path d="M6.912 147.084C5.196 147.432 3.66 147.54 2.136 147.552V143.712H1.164V148.38H2.004C3.612 148.38 5.22 148.26 7.032 147.9L6.912 147.084ZM9.168 150.552V149.76H2.136V150.552H5.148C5.1 151.764 3.54 152.784 1.728 153.072L2.112 153.828C3.672 153.564 5.064 152.772 5.664 151.692C6.264 152.772 7.644 153.576 9.204 153.84L9.588 153.084C7.8 152.784 6.228 151.74 6.18 150.552H9.168ZM8.988 145.752V143.112H8.004V149.22H8.988V146.568H10.584V145.752H8.988ZM16.5351 143.364C14.2071 143.364 12.7551 144.12 12.7551 145.404C12.7551 146.676 14.2071 147.432 16.5351 147.432C18.8631 147.432 20.3151 146.676 20.3151 145.404C20.3151 144.12 18.8631 143.364 16.5351 143.364ZM16.5351 144.144C18.2391 144.144 19.3071 144.612 19.3071 145.404C19.3071 146.196 18.2391 146.664 16.5351 146.664C14.8311 146.664 13.7631 146.196 13.7631 145.404C13.7631 144.612 14.8311 144.144 16.5351 144.144ZM12.8751 150.204V153.744H20.2191V150.204H12.8751ZM19.2591 150.984V152.952H13.8351V150.984H19.2591ZM11.6751 148.356V149.148H21.4071V148.356H11.6751Z" fill="#999999"/>
<path d="M131.332 150.684H133.684V152.952H131.332V150.684ZM134.656 150.684H136.3V149.892H128.716V150.684H130.36V152.952H128.62V153.744H136.396V152.952H134.656V150.684ZM133 148.032V146.664H136.276V145.872H129.94V143.364H128.956V146.664H132.016V148.032H127.648V148.824H137.38V148.032H133ZM143.535 143.364C141.207 143.364 139.755 144.12 139.755 145.404C139.755 146.676 141.207 147.432 143.535 147.432C145.863 147.432 147.315 146.676 147.315 145.404C147.315 144.12 145.863 143.364 143.535 143.364ZM143.535 144.144C145.239 144.144 146.307 144.612 146.307 145.404C146.307 146.196 145.239 146.664 143.535 146.664C141.831 146.664 140.763 146.196 140.763 145.404C140.763 144.612 141.831 144.144 143.535 144.144ZM139.875 150.204V153.744H147.219V150.204H139.875ZM146.259 150.984V152.952H140.835V150.984H146.259ZM138.675 148.356V149.148H148.407V148.356H138.675Z" fill="#999999"/>
<path d="M15 15.5H135" stroke="#DDDDDD"/>
<path d="M120 0L120 120" stroke="#DDDDDD"/>
<path d="M15 15.5H135" stroke="#DDDDDD"/>
<path d="M120 0L120 120" stroke="#DDDDDD"/>
<path d="M15 45.5H135" stroke="#DDDDDD"/>
<path d="M90 0L90 120" stroke="#DDDDDD"/>
<path d="M15 45.5H135" stroke="#DDDDDD"/>
<path d="M90 0L90 120" stroke="#DDDDDD"/>
<path d="M15 75.5H135" stroke="#DDDDDD"/>
<path d="M60 0L60 120" stroke="#DDDDDD"/>
<path d="M15 75.5H135" stroke="#DDDDDD"/>
<path d="M60 0L60 120" stroke="#DDDDDD"/>
<path d="M15 105.5H135" stroke="#DDDDDD"/>
<path d="M30 0L30 120" stroke="#DDDDDD"/>
<path d="M15 105.5H135" stroke="#DDDDDD"/>
<path d="M30 0L30 120" stroke="#DDDDDD"/>
<rect x="30" y="15" width="30" height="30" fill="#6967F9" fill-opacity="0.8"/>
<rect x="30" y="45" width="30" height="30" fill="#6967F9" fill-opacity="0.2"/>
<rect x="30" y="75" width="30" height="30" fill="#6967F9" fill-opacity="0.8"/>
<rect x="60" y="15" width="30" height="30" fill="#6967F9" fill-opacity="0.6"/>
<rect x="60" y="45" width="30" height="30" fill="#6967F9"/>
<rect x="60" y="75" width="30" height="30" fill="#6967F9" fill-opacity="0.4"/>
<rect x="90" y="15" width="30" height="30" fill="#6967F9" fill-opacity="0.2"/>
<rect x="90" y="45" width="30" height="30" fill="#6967F9" fill-opacity="0.8"/>
<rect x="90" y="75" width="30" height="30" fill="#6967F9" fill-opacity="0.6"/>
<path d="M42.88 34H46.9V33.24H45.43V26.66H44.73C44.33 26.9 43.86 27.07 43.21 27.19V27.77H44.51V33.24H42.88V34Z" fill="white"/>
<path d="M43.15 61.25L44.82 58.75C45.03 58.39 45.23 58.03 45.41 57.67H45.45C45.43 58.05 45.4 58.64 45.4 59V61.25H43.15ZM45.4 64H46.26V61.98H47.23V61.25H46.26V56.66H45.25L42.2 61.38V61.98H45.4V64Z" fill="white"/>
<path d="M43.98 94H44.93C45.04 91.13 45.36 89.42 47.08 87.22V86.66H42.49V87.45H46.04C44.61 89.45 44.1 91.22 43.98 94Z" fill="white"/>
<path d="M74.79 94.13C76.17 94.13 77.09 93.3 77.09 92.23C77.09 91.23 76.49 90.68 75.85 90.31V90.26C76.29 89.92 76.83 89.26 76.83 88.49C76.83 87.36 76.07 86.56 74.82 86.56C73.68 86.56 72.81 87.3 72.81 88.42C72.81 89.19 73.26 89.74 73.8 90.11V90.16C73.13 90.52 72.45 91.2 72.45 92.18C72.45 93.31 73.44 94.13 74.79 94.13ZM75.29 90.02C74.43 89.68 73.64 89.3 73.64 88.42C73.64 87.71 74.13 87.23 74.81 87.23C75.6 87.23 76.05 87.82 76.05 88.54C76.05 89.08 75.79 89.58 75.29 90.02ZM74.81 93.45C73.93 93.45 73.28 92.88 73.28 92.1C73.28 91.4 73.69 90.82 74.28 90.44C75.32 90.86 76.22 91.23 76.22 92.21C76.22 92.94 75.65 93.45 74.81 93.45Z" fill="white"/>
<path d="M103.3 88.91C103.3 87.91 103.84 87.25 104.54 87.25C105.48 87.25 106.04 88.05 106.14 89.56C105.67 90.25 105.11 90.54 104.61 90.54C103.74 90.54 103.3 89.9 103.3 88.91ZM104.34 94.13C105.72 94.13 107 92.99 107 90.02C107 87.69 105.95 86.53 104.54 86.53C103.4 86.53 102.44 87.49 102.44 88.91C102.44 90.43 103.24 91.22 104.46 91.22C105.07 91.22 105.7 90.87 106.15 90.32C106.08 92.59 105.26 93.37 104.31 93.37C103.84 93.37 103.39 93.16 103.09 92.81L102.58 93.38C102.99 93.81 103.55 94.13 104.34 94.13Z" fill="white"/>
<path d="M74.61 64.13C75.85 64.13 77.01 63.22 77.01 61.61C77.01 60 76.02 59.28 74.8 59.28C74.36 59.28 74.04 59.39 73.71 59.57L73.89 57.45H76.66V56.66H73.09L72.86 60.1L73.35 60.4C73.77 60.12 74.08 59.97 74.57 59.97C75.49 59.97 76.09 60.59 76.09 61.64C76.09 62.71 75.39 63.37 74.53 63.37C73.68 63.37 73.15 62.98 72.73 62.56L72.28 63.16C72.77 63.65 73.47 64.13 74.61 64.13Z" fill="white"/>
<path d="M104.93 60.13C105.82 60.13 106.26 60.76 106.26 61.75C106.26 62.75 105.71 63.42 105.01 63.42C104.09 63.42 103.54 62.59 103.43 61.07C103.88 60.4 104.47 60.13 104.93 60.13ZM105.01 64.13C106.15 64.13 107.11 63.17 107.11 61.75C107.11 60.22 106.32 59.45 105.08 59.45C104.5 59.45 103.86 59.79 103.41 60.34C103.45 58.06 104.3 57.29 105.3 57.29C105.75 57.29 106.19 57.5 106.48 57.85L106.98 57.28C106.58 56.85 106.03 56.53 105.27 56.53C103.85 56.53 102.56 57.63 102.56 60.5C102.56 62.92 103.6 64.13 105.01 64.13Z" fill="white"/>
<path d="M72.44 34H77.05V33.21H75.02C74.65 33.21 74.2 33.25 73.82 33.28C75.54 31.65 76.69 30.16 76.69 28.7C76.69 27.39 75.87 26.53 74.56 26.53C73.63 26.53 73 26.96 72.4 27.61L72.93 28.13C73.33 27.65 73.85 27.28 74.45 27.28C75.36 27.28 75.8 27.89 75.8 28.73C75.8 29.99 74.74 31.45 72.44 33.46V34Z" fill="white"/>
<path d="M104.64 34.13C105.94 34.13 106.99 33.35 106.99 32.04C106.99 31.04 106.3 30.38 105.44 30.18V30.14C106.21 29.85 106.74 29.26 106.74 28.37C106.74 27.21 105.84 26.53 104.61 26.53C103.76 26.53 103.11 26.9 102.56 27.41L103.05 27.99C103.46 27.57 103.98 27.28 104.57 27.28C105.33 27.28 105.81 27.74 105.81 28.44C105.81 29.23 105.29 29.84 103.78 29.84V30.54C105.47 30.54 106.06 31.13 106.06 32C106.06 32.85 105.44 33.37 104.57 33.37C103.74 33.37 103.18 32.98 102.75 32.53L102.29 33.13C102.77 33.65 103.49 34.13 104.64 34.13Z" fill="white"/>
<defs>
<linearGradient id="paint0_linear_168_2051" x1="154" y1="130" x2="154" y2="280" gradientUnits="userSpaceOnUse">
<stop stop-color="#6967F9"/>
<stop offset="1" stop-color="#6967F9" stop-opacity="0"/>
</linearGradient>
</defs>
</svg>
