<svg width="162" height="130" viewBox="0 0 162 130" fill="none" xmlns="http://www.w3.org/2000/svg">
<g clip-path="url(#clip0_76_1597)">
<path d="M100.206 53.6205L100.07 60.5435L98.2684 56.0479C98.2684 56.0479 88.9758 63.4291 90.802 79.8387C90.802 79.8387 98.9393 78.2659 103.176 73.0148L99.7219 71.0704L105.871 70.476C105.871 70.476 116.071 57.8437 115.81 46.648C115.81 46.648 105.312 47.5273 100.219 53.6205H100.206Z" fill="white"/>
<path d="M90.8144 80.458C90.6778 80.458 90.5535 80.4208 90.4417 80.3342C90.3051 80.2351 90.2057 80.0741 90.1933 79.9007C88.3422 63.3301 97.4982 55.8622 97.8833 55.5526C98.0324 55.4287 98.2436 55.3916 98.4299 55.4411C98.6163 55.4906 98.7778 55.6269 98.8523 55.8126L99.5107 57.4598L99.5853 53.5958C99.5853 53.4596 99.635 53.3233 99.7344 53.2119C104.94 46.9948 115.313 46.0536 115.748 46.0164C115.922 46.0164 116.083 46.0536 116.22 46.1774C116.344 46.2889 116.419 46.4499 116.431 46.6233C116.692 57.918 106.778 70.3398 106.356 70.8599C106.257 70.9838 106.095 71.0705 105.934 71.0829L101.747 71.4915L103.486 72.4699C103.648 72.5566 103.76 72.7176 103.797 72.891C103.834 73.0644 103.797 73.2502 103.673 73.3988C99.3368 78.7613 91.2741 80.3713 90.9386 80.4456C90.9014 80.4456 90.8641 80.4456 90.8144 80.4456V80.458ZM98.0324 57.113C96.0571 59.0946 90.156 66.1786 91.361 79.0833C93.2618 78.6003 98.8026 76.9408 102.219 73.1882L99.4238 71.6154C99.1877 71.4792 99.0635 71.2067 99.1256 70.9466C99.1877 70.6865 99.3989 70.4884 99.6722 70.4636L105.548 69.8939C106.803 68.2716 115.04 57.2616 115.189 47.354C112.853 47.6636 105.014 49.0506 100.828 53.8683L100.691 60.5683C100.691 60.8656 100.467 61.1132 100.182 61.1628C99.8834 61.2123 99.5977 61.0513 99.4983 60.7789L98.0324 57.1254V57.113Z" fill="#B7BDCF"/>
<path d="M87.2117 88.669C87.2117 88.669 87.0874 88.669 87.0377 88.6442C86.7147 88.5452 86.5284 88.1984 86.6278 87.8764C91.0505 73.2873 107.983 55.7631 108.704 55.0324C108.94 54.7847 109.338 54.7847 109.586 55.0201C109.835 55.2554 109.835 55.6517 109.598 55.8994C109.425 56.0727 92.1562 73.9437 87.8204 88.2479C87.7335 88.5204 87.4974 88.6938 87.2241 88.6938L87.2117 88.669Z" fill="#B7BDCF"/>
<path d="M77.1143 86.9101L77.1196 86.9213C77.7924 88.3368 79.4888 88.9406 80.9087 88.27L89.7893 84.0758C91.2092 83.4052 91.815 81.714 91.1423 80.2985L91.1369 80.2873C90.4642 78.8718 88.7678 78.268 87.3479 78.9386L78.4673 83.1328C77.0473 83.8034 76.4416 85.4946 77.1143 86.9101Z" fill="white"/>
<path d="M79.6956 89.1521C78.3911 89.1521 77.1488 88.4214 76.5525 87.1705C75.7325 85.4491 76.4779 83.3808 78.2048 82.5635L87.075 78.3775C87.9074 77.9811 88.8515 77.9316 89.7336 78.2412C90.6156 78.5508 91.3113 79.1825 91.7089 80.0246C92.1064 80.8544 92.1561 81.7956 91.8455 82.6749C91.535 83.5418 90.9014 84.2478 90.0566 84.6441L81.1863 88.8301C80.7143 89.053 80.2049 89.1644 79.708 89.1644L79.6956 89.1521ZM88.5534 79.2815C88.2304 79.2815 87.9074 79.3558 87.5968 79.4921L78.7265 83.6781C77.6209 84.1982 77.1364 85.5358 77.6706 86.638C78.1923 87.7402 79.5341 88.2108 80.6397 87.6907L89.51 83.5047C90.0442 83.2446 90.4541 82.7988 90.6529 82.2415C90.8517 81.6841 90.8268 81.0773 90.566 80.5448C90.3051 80.0122 89.8578 79.6035 89.2988 79.4054C89.0503 79.3187 88.8018 79.2691 88.5534 79.2691V79.2815Z" fill="#B7BDCF"/>
<path d="M0.894825 93.3188L0.900144 93.33C1.57285 94.7455 3.26927 95.3493 4.68919 94.6787L13.5698 90.4845C14.9897 89.8139 15.5955 88.1227 14.9227 86.7072L14.9174 86.696C14.2447 85.2805 12.5483 84.6767 11.1284 85.3473L2.24777 89.5415C0.827849 90.2121 0.222114 91.9033 0.894825 93.3188Z" fill="white"/>
<path d="M3.47854 95.5672C2.1741 95.5672 0.931765 94.8365 0.335446 93.5857C-0.484493 91.8642 0.260906 89.796 1.98775 88.9786L10.858 84.7926C12.5848 83.9752 14.6595 84.7183 15.4795 86.4398C16.2994 88.1612 15.554 90.2295 13.8272 91.0469L4.95692 95.2329C4.48483 95.4558 3.97548 95.5672 3.47854 95.5672ZM12.3364 85.6967C12.0134 85.6967 11.6904 85.771 11.3922 85.9072L2.52195 90.0932C1.98775 90.3533 1.57778 90.7992 1.379 91.3565C1.18023 91.9138 1.20508 92.5206 1.46597 93.0532C1.98775 94.1554 3.31704 94.6384 4.43514 94.1059L13.3054 89.9199C14.4111 89.3997 14.8956 88.0622 14.3614 86.9599C13.9762 86.1549 13.1812 85.6843 12.3488 85.6843L12.3364 85.6967Z" fill="#B7BDCF"/>
<path d="M85.0003 71.1819C85.0003 48.2209 66.3405 29.6192 43.3201 29.6192C20.2997 29.6192 1.62744 48.2209 1.62744 71.1819C1.62744 82.1175 5.87621 92.0747 12.8084 99.4931H73.8193C80.7515 92.0747 85.0003 82.1299 85.0003 71.1819Z" fill="white"/>
<path d="M74.0926 100.1H12.5351L12.3488 99.9018C5.03144 92.0748 1.00629 81.8699 1.00629 71.182C1.00629 47.9237 19.9891 29 43.3201 29C66.6511 29 85.6339 47.9237 85.6339 71.182C85.6339 81.8699 81.6087 92.0748 74.2914 99.9142L74.1051 100.112L74.0926 100.1ZM13.0817 98.8615H73.5584C80.5403 91.2822 84.3916 81.4612 84.3916 71.1696C84.3792 48.6048 65.9554 30.2385 43.3201 30.2385C20.6848 30.2385 2.24862 48.6048 2.24862 71.182C2.24862 81.4736 6.08742 91.2945 13.0817 98.8739V98.8615Z" fill="#B7BDCF"/>
<path d="M46.3887 82.2662C48.0834 82.2662 49.4572 80.8966 49.4572 79.2072C49.4572 77.5178 48.0834 76.1482 46.3887 76.1482C44.6939 76.1482 43.3201 77.5178 43.3201 79.2072C43.3201 80.8966 44.6939 82.2662 46.3887 82.2662Z" fill="#B7BDCF"/>
<path d="M62.0296 82.2662C63.7243 82.2662 65.0982 80.8966 65.0982 79.2072C65.0982 77.5178 63.7243 76.1482 62.0296 76.1482C60.3349 76.1482 58.961 77.5178 58.961 79.2072C58.961 80.8966 60.3349 82.2662 62.0296 82.2662Z" fill="#B7BDCF"/>
<path d="M161.379 100.1H1.62745C1.2796 100.1 1.00629 99.8276 1.00629 99.4808C1.00629 99.134 1.2796 98.8616 1.62745 98.8616H161.379C161.727 98.8616 162 99.134 162 99.4808C162 99.8276 161.727 100.1 161.379 100.1Z" fill="#B7BDCF"/>
<path d="M64.0298 92.4835H75.012C78.8881 92.4835 82.0312 95.6168 82.0312 99.4808H64.0298V92.4835Z" fill="#B7BDCF"/>
<path d="M100.02 99.4932H82.0187C82.0187 95.6292 85.1618 92.4959 89.0379 92.4959H100.02V99.4932Z" fill="#B7BDCF"/>
<path d="M64.0298 92.4835H52.5134V99.4808H64.0298V92.4835Z" fill="#A7ACBB"/>
<path d="M58.7623 84.2229C56.4764 86.5017 52.7742 86.5017 50.4883 84.2229H58.7623Z" fill="white"/>
<path d="M54.6253 87.1705C52.8115 87.1705 50.9977 86.4769 49.6187 85.1023C49.1342 84.6193 49.1342 83.839 49.6187 83.356C50.1032 82.873 50.8859 82.873 51.3704 83.356C53.1718 85.1518 56.0913 85.1518 57.8802 83.356C58.3647 82.873 59.1474 82.873 59.6319 83.356C60.1164 83.839 60.1164 84.6193 59.6319 85.1023C58.2529 86.4769 56.4391 87.1705 54.6129 87.1705H54.6253Z" fill="#B7BDCF"/>
<path d="M153.304 44.0721H122.481C120.704 44.0721 119.264 45.5082 119.264 47.2797V61.4105C119.264 63.182 120.704 64.6181 122.481 64.6181H153.304C155.081 64.6181 156.521 63.182 156.521 61.4105V47.2797C156.521 45.5082 155.081 44.0721 153.304 44.0721Z" fill="#B7BDCF"/>
<path d="M152.285 45.1619H123.5C121.881 45.1619 120.568 46.4705 120.568 48.0847V60.6179C120.568 62.2321 121.881 63.5407 123.5 63.5407H152.285C153.904 63.5407 155.217 62.2321 155.217 60.6179V48.0847C155.217 46.4705 153.904 45.1619 152.285 45.1619Z" fill="white"/>
<path d="M132.743 63.5406H143.03C144.297 63.5406 145.34 64.5686 145.34 65.8442H130.432C130.432 64.581 131.463 63.5406 132.743 63.5406Z" fill="#B7BDCF"/>
<path d="M142.061 65.8318H133.725V68.1353H142.061V65.8318Z" fill="#B7BDCF"/>
<path d="M140.359 71.0581H135.414V67.5161H140.359V71.0581ZM136.656 69.8196H139.116V68.7546H136.656V69.8196Z" fill="#B7BDCF"/>
<path d="M155.987 98.0318L139.675 75.9996H136.122L120.705 97.9699L116.22 94.5765L132.42 72.4576H133.352V69.8197H142.433V72.4576H143.365L143.551 72.7177L159.515 94.527L155.987 98.0442V98.0318ZM117.947 94.3165L120.432 96.1989L135.476 74.7612H140.309L156.136 96.137L157.9 94.3784L142.756 73.6837H141.203V71.0458H134.607V73.6837H133.054L117.947 94.3165Z" fill="#B7BDCF"/>
<path d="M139.949 75.3804H135.836V95.976H139.949V75.3804Z" fill="#B7BDCF"/>
<path d="M141.042 98.7377H134.743V95.431H141.042V98.7377ZM135.986 97.4993H139.8V96.6695H135.986V97.4993Z" fill="#B7BDCF"/>
<path d="M157.105 100.038L154.757 97.6974L159.205 93.2637L161.553 95.592L157.105 100.026V100.038ZM156.521 97.6974L157.105 98.2794L159.801 95.592L159.217 95.0099L156.521 97.6974Z" fill="#B7BDCF"/>
<path d="M119.81 99.8152L114.68 96.1865L116.593 93.499L121.724 97.1277L119.81 99.8276V99.8152ZM116.406 95.8892L119.512 98.0813L119.984 97.4126L116.879 95.2205L116.406 95.8892Z" fill="#B7BDCF"/>
<path d="M133.327 42.363H142.471C142.707 42.363 142.905 42.5611 142.905 42.7964C142.905 43.8739 142.023 44.7532 140.942 44.7532H134.855C133.774 44.7532 132.892 43.8739 132.892 42.7964C132.892 42.5611 133.091 42.363 133.327 42.363Z" fill="#B7BDCF"/>
<path d="M137.29 41.2979H138.495C139.29 41.2979 139.949 41.9419 139.949 42.7469H135.849C135.849 41.9543 136.495 41.2979 137.302 41.2979H137.29Z" fill="#B7BDCF"/>
</g>
<defs>
<clipPath id="clip0_76_1597">
<rect width="162" height="71.1" fill="white" transform="translate(0 29)"/>
</clipPath>
</defs>
</svg>
