<svg width="80" height="80" viewBox="0 0 80 80" fill="none" xmlns="http://www.w3.org/2000/svg">
<path d="M40 68.4235C59.33 68.4235 75 53.1064 75 34.2117C75 15.3171 59.33 0 40 0C20.67 0 5 15.3171 5 34.2117C5 53.1064 20.67 68.4235 40 68.4235Z" fill="#8D79FE"/>
<path d="M68.9391 53.4538C68.3871 44.0888 62.6251 36.0947 54.4412 32.1967C54.8129 31.547 55.0213 30.8038 55.0213 30.011C55.0213 28.6786 54.4299 27.4839 53.4893 26.6581L61.8365 7.47659C60.068 6.09469 58.1586 4.87795 56.1365 3.84841C52.7796 2.47201 49.1579 1.59112 45.3673 1.30483L44.8942 2.38943L42.9791 6.7884L39.932 0C34.0292 0.0110112 28.47 1.44797 23.5923 3.98605L32.6154 26.7957C31.7593 27.6105 31.2299 28.7502 31.2299 30.011C31.2299 30.8038 31.4383 31.5525 31.81 32.1967C23.2036 36.2984 17.267 44.9366 17.267 54.9238C17.267 56.9443 17.5092 58.9153 17.9711 60.7983C23.9865 65.5661 31.6467 68.418 39.9939 68.418C52.0248 68.418 62.6363 62.4885 68.9334 53.4538H68.9391Z" fill="#6634E5"/>
<path d="M59.4489 5.76436L49.947 27.594L49.8005 27.9244H30.6446L30.791 27.594L40.3662 5.58818L42.7543 0.104614C48.8993 0.57259 54.5994 2.59314 59.4489 5.76436Z" fill="#DA2D2D"/>
<path d="M42.2813 1.18909L30.7911 27.5939L30.9376 27.9242H49.8006L49.9752 27.5278L42.2813 1.18909Z" fill="#B82727"/>
<path d="M50.0936 27.9244H30.9377L30.7912 27.594L21.1316 5.39548C26.0431 2.31235 31.7882 0.401906 37.9613 0.0550537L40.3664 5.58267L49.9415 27.5885L50.088 27.9189L50.0936 27.9244Z" fill="#DA2D2D"/>
<path d="M49.3667 24.3127H31.6696C29.9867 24.3127 28.6224 25.6463 28.6224 27.2913V30.3249C28.6224 31.9698 29.9867 33.3034 31.6696 33.3034H49.3667C51.0496 33.3034 52.4139 31.9698 52.4139 30.3249V27.2913C52.4139 25.6463 51.0496 24.3127 49.3667 24.3127Z" fill="#E0E9EC"/>
<path d="M48.0095 26.7847H33.2018C32.7231 26.7847 32.3288 26.4049 32.3288 25.9314C32.3288 25.4634 32.7174 25.078 33.2018 25.078H48.0095C48.4883 25.078 48.8825 25.4579 48.8825 25.9314C48.8825 26.3993 48.4939 26.7847 48.0095 26.7847Z" fill="white"/>
<path d="M40.5129 78.9997C54.7911 78.9997 66.3659 67.6856 66.3659 53.729C66.3659 39.7724 54.7911 28.4584 40.5129 28.4584C26.2348 28.4584 14.66 39.7724 14.66 53.729C14.66 67.6856 26.2348 78.9997 40.5129 78.9997Z" fill="#B4C6CC"/>
<path d="M16.8789 54.9568C16.4227 54.9568 16.0397 54.5989 16.0284 54.1475C15.9439 51.1965 16.4114 48.306 17.4083 45.5532V45.5422C18.7545 41.9856 20.8216 38.9135 23.5702 36.4084C23.604 36.3754 23.6378 36.3479 23.6772 36.3259C23.7279 36.2928 23.8068 36.2433 23.8406 36.2157C24.3926 35.6542 24.9952 35.2192 25.581 34.7953C25.7838 34.6467 25.9978 34.498 26.2006 34.3383C26.2118 34.3273 26.2287 34.3218 26.24 34.3108C26.8483 33.9034 27.5186 33.4685 28.3409 33.028C28.3522 33.028 28.3578 33.017 28.3691 33.0115C28.5099 32.9399 28.6563 32.8628 28.8028 32.7858C29.09 32.6316 29.3829 32.4719 29.7321 32.3343C30.1658 32.1581 30.6615 32.3618 30.8417 32.7858C31.0219 33.2097 30.8136 33.6942 30.3799 33.8704C30.1151 33.975 29.8729 34.1071 29.6138 34.2447C29.4618 34.3273 29.3041 34.4099 29.1407 34.4925C28.4029 34.8889 27.7777 35.2908 27.2201 35.6707C27.006 35.8304 26.792 35.9845 26.5892 36.1332C26.0316 36.5351 25.5078 36.9095 25.0572 37.3774L25.0403 37.3939C24.9276 37.5041 24.7981 37.5921 24.6798 37.6692C22.1565 39.9871 20.2527 42.8225 19.008 46.1093C18.0786 48.6639 17.6505 51.3506 17.7294 54.0924C17.7407 54.5494 17.3745 54.9348 16.9014 54.9458H16.8789V54.9568Z" fill="white"/>
<path d="M59.5175 61.4241C63.8649 51.1649 58.8809 39.4033 48.3853 35.1538C37.8897 30.9043 25.8571 35.7761 21.5097 46.0353C17.1623 56.2945 22.1464 68.0561 32.642 72.3056C43.1375 76.5551 55.1701 71.6833 59.5175 61.4241Z" fill="#CBD6D8"/>
<path d="M54.5259 39.0071C57.8547 42.5802 59.888 47.3315 59.888 52.5453C59.888 63.6501 50.6789 72.6518 39.3183 72.6518C33.9055 72.6518 28.9828 70.6092 25.3104 67.2673C29.0729 71.3029 34.4913 73.8355 40.518 73.8355C51.8787 73.8355 61.0877 64.8338 61.0877 53.729C61.0877 47.9151 58.5644 42.6793 54.5315 39.0071H54.5259Z" fill="#E0E9EC"/>
<path d="M21.3228 55.711C21.3228 44.6062 30.5318 35.6046 41.8925 35.6046C48.5388 35.6046 54.4472 38.6822 58.204 43.4611C54.6162 37.5701 48.0375 33.6226 40.5182 33.6226C29.1575 33.6226 19.9485 42.6242 19.9485 53.729C19.9485 58.3372 21.5368 62.582 24.201 65.9734C22.3704 62.9674 21.3228 59.4603 21.3228 55.711Z" fill="#B5C4C7"/>
<path d="M42.4785 40.8294L45.1033 46.0322C45.4243 46.6654 46.0382 47.1003 46.7479 47.1994L52.6226 48.0363C54.4137 48.2895 55.1346 50.4477 53.8335 51.681L49.581 55.7331C49.0629 56.2231 48.8319 56.9333 48.9502 57.627L49.9528 63.3473C50.2569 65.0926 48.387 66.4249 46.7817 65.5991L41.5266 62.9014C40.8902 62.5765 40.1298 62.5765 39.4933 62.9014L34.2383 65.5991C32.633 66.4249 30.7574 65.0926 31.0672 63.3473L32.0698 57.627C32.1937 56.9333 31.9571 56.2286 31.4389 55.7331L27.1864 51.681C25.891 50.4422 26.6063 48.2895 28.3974 48.0363L34.2721 47.1994C34.9817 47.1003 35.6013 46.6599 35.9167 46.0322L38.5415 40.8294C39.3413 39.2383 41.6618 39.2383 42.4616 40.8294H42.4785Z" fill="white"/>
<path d="M18.0108 58.2767C18.0108 57.8472 17.6559 57.5004 17.2166 57.5004C16.7773 57.5004 16.4224 57.8472 16.4224 58.2767C16.4224 58.7061 16.7773 59.0529 17.2166 59.0529C17.6559 59.0529 18.0108 58.7061 18.0108 58.2767Z" fill="white"/>
<path d="M26.1778 66.2709C25.1922 66.6673 24.398 67.4436 23.9924 68.407C23.9305 68.5557 23.7108 68.5557 23.6489 68.407C23.2433 67.4436 22.4492 66.6673 21.4635 66.2709C21.3114 66.2103 21.3114 65.9956 21.4635 65.935C22.4492 65.5386 23.2433 64.7623 23.6489 63.7989C23.7108 63.6502 23.9305 63.6502 23.9924 63.7989C24.398 64.7623 25.1922 65.5386 26.1778 65.935C26.3299 65.9956 26.3299 66.2103 26.1778 66.2709Z" fill="white"/>
</svg>
