<svg width="140" height="127" viewBox="0 0 140 127" fill="none" xmlns="http://www.w3.org/2000/svg">
<g clip-path="url(#clip0_74_399)">
<path d="M96.2291 85.7767L87.9134 82.6923V56.1406H51.9304V82.6923L43.6147 85.7767C43.6147 85.7767 46.0501 101.023 69.2508 101.926H70.6406C79.6571 101.562 85.5256 99.0291 89.3508 96.062L89.5289 95.9213C89.9922 95.5577 90.4202 95.1824 90.8241 94.7485L91.1565 94.4318C91.5248 94.08 91.8575 93.7281 92.1664 93.388C92.3089 93.2356 92.4394 93.0713 92.5701 92.9189C92.7008 92.7664 92.9383 92.4616 93.1165 92.2387C93.2947 92.0159 93.5442 91.6641 93.7343 91.3826C93.8056 91.2771 93.8773 91.1832 93.9367 91.0777C93.9961 90.9721 94.186 90.714 94.2929 90.5381C95.2062 89.0703 95.8607 87.4605 96.2291 85.7767Z" fill="#FCDAC8"/>
<path d="M96.2653 85.7412C95.9844 87.0728 95.5076 88.3569 94.8511 89.5527C94.6813 89.8997 94.4909 90.2365 94.2809 90.5613C92.9944 92.6719 91.3229 94.5289 89.351 96.0382C88.8996 96.3783 88.4364 96.7184 87.9374 97.0468C84.1122 99.5448 78.6 101.55 70.6408 101.89H69.251C61.4818 101.574 56.0765 99.5448 52.2513 97.0468C51.7405 96.7184 51.2538 96.3783 50.8023 96.0382C48.8038 94.5226 47.0942 92.668 45.7536 90.5613C45.5379 90.2355 45.3397 89.8989 45.1596 89.5527C44.4722 88.3558 43.9488 87.0741 43.6033 85.7412L37.5092 88.6849V113.184H102.763V88.8256L96.2653 85.7412Z" fill="white"/>
<path d="M115.035 123.012V126.413H139.459C139.452 125.277 139.385 124.141 139.257 123.012C139.257 122.672 139.197 122.332 139.15 122.003C138.881 120.149 138.452 118.32 137.867 116.538C137.737 116.186 137.641 115.846 137.511 115.53C136.817 113.621 135.929 111.786 134.861 110.053C134.648 109.713 134.446 109.372 134.22 109.044C132.906 107.056 131.372 105.22 129.646 103.567C129.29 103.227 128.922 102.887 128.542 102.559C126.463 100.741 124.151 99.2033 121.663 97.9849L119.846 97.0936L117.755 96.085L115.035 94.7715V117.875C115.03 118.12 115.003 118.363 114.952 118.602C115.002 118.834 115.03 119.069 115.035 119.306V123.059V123.012Z" fill="white"/>
<path d="M25.2139 117.875V94.7363L22.3153 96.1319L20.4737 97.0349L18.4185 98.0318C15.9385 99.2559 13.6306 100.793 11.5524 102.606L10.4474 103.614C8.72123 105.269 7.18376 107.106 5.86209 109.091C5.66014 109.419 5.4341 109.76 5.23215 110.1C4.17006 111.837 3.27929 113.671 2.57144 115.577C2.45265 115.893 2.34571 116.233 2.25067 116.585C1.64652 118.364 1.20899 120.193 0.943812 122.05C0.943812 122.379 0.872721 122.719 0.837082 123.059C0.709226 124.188 0.641908 125.323 0.635223 126.46H25.2139V119.306C25.2139 119.071 25.2139 118.849 25.2139 118.602C25.2139 118.356 25.2139 118.075 25.2139 117.875Z" fill="white"/>
<path d="M114.797 94.6544V117.711C114.793 117.956 114.765 118.199 114.714 118.438C114.764 118.67 114.792 118.905 114.797 119.142V126.296H24.9997V119.142C24.9997 118.907 24.9995 118.685 25.0589 118.438C25.1183 118.192 24.9997 117.958 24.9997 117.711V94.5724L33.3867 90.4912L35.4656 89.4826L37.2713 88.6147V113.091H102.526V88.732L104.081 89.4826L106.172 90.4912L114.797 94.6544Z" fill="#045135"/>
<path d="M139.981 127H0.00511429V126.414C-0.410668 102.829 24.5127 94.1037 24.774 94.0216L50.3387 82.7278C50.6171 82.6025 50.8534 82.4012 51.0197 82.1477C51.186 81.8942 51.2754 81.599 51.2773 81.297V69.5693H52.4652V81.297C52.4643 81.825 52.3088 82.3414 52.018 82.7845C51.7272 83.2275 51.3137 83.5783 50.826 83.7949L25.2015 95.1122C24.9164 95.2061 1.19334 103.533 1.18146 125.827H138.793C138.58 122.227 136.417 103.005 114.571 95.2061L88.9112 83.7949C88.4235 83.5783 88.0099 83.2275 87.7192 82.7845C87.4284 82.3414 87.2729 81.825 87.2719 81.297V68.3965H88.4599V81.297C88.4603 81.5994 88.5492 81.8951 88.7157 82.1488C88.8821 82.4026 89.1191 82.6037 89.3984 82.7278L115.023 94.1154C127.948 98.7361 134.03 107.262 136.905 113.607C138.769 117.637 139.822 121.987 140.005 126.414L139.981 127Z" fill="black"/>
<path d="M70.1974 77.2622C90.6183 76.4178 95.6194 55.5776 95.6194 55.5776C95.6194 55.5776 100.193 56.4103 101.262 45.8084C102.331 35.2065 96.5818 38.1384 96.5818 38.1384C96.9144 7.64622 80.4377 14.8588 73.3576 14.8471H67.0373C59.9096 14.8471 43.4804 7.59931 43.8131 38.1384C43.8131 38.1384 38.0635 35.1948 39.1326 45.8084C40.2018 56.4221 44.7632 55.5776 44.7632 55.5776C44.7632 55.5776 49.7647 76.4178 70.1974 77.2622Z" fill="#FCDAC8"/>
<path d="M69.3699 77.849C50.4459 77.0633 44.4229 59.284 43.5082 56.1644C42.7642 56.0957 42.0552 55.819 41.4647 55.3669C39.4808 53.8892 38.222 50.6758 37.7349 45.8674C37.3073 41.5633 37.9251 38.8307 39.5882 37.658C40.0017 37.3975 40.4664 37.2271 40.9519 37.1583C41.4375 37.0896 41.9322 37.124 42.4032 37.2593C42.4032 26.8215 44.3637 19.996 48.4265 16.419C52.6912 12.6544 58.4647 13.3697 62.6819 13.8975C63.8626 14.0718 65.0526 14.1776 66.2458 14.2142H72.5892C73.7834 14.1945 74.9745 14.0886 76.1531 13.8975C80.3703 13.3815 86.1437 12.6544 90.4085 16.419C94.4594 19.9373 96.4315 26.8215 96.4196 37.2593C96.8925 37.1238 97.3892 37.0893 97.8767 37.158C98.3642 37.2268 98.8312 37.3972 99.2468 37.658C100.898 38.7721 101.528 41.5164 101.1 45.8674C100.613 50.6875 99.3539 53.8892 97.3581 55.3669C96.7693 55.8219 96.0594 56.0989 95.3146 56.1644C94.4117 59.284 88.3891 77.0633 69.4651 77.849H69.3699ZM44.423 54.9096L44.5535 55.4373C44.5535 55.6367 49.6972 75.8436 69.4053 76.6763C89.1134 75.8436 94.198 55.6367 94.2455 55.4373L94.3761 54.8979L94.9347 54.9916C95.2475 55.009 95.5607 54.9652 95.8564 54.8625C96.152 54.7599 96.4239 54.6004 96.6568 54.3935C97.8448 53.5022 99.3184 51.2739 99.8767 45.7502C100.352 40.9652 99.4133 39.2647 98.5461 38.7135C98.1614 38.5208 97.7361 38.4204 97.3048 38.4204C96.8734 38.4204 96.4476 38.5208 96.0629 38.7135L95.1841 39.1592V38.1271C95.291 27.7246 93.4022 20.7231 89.5651 17.3455C85.728 13.9679 80.4536 14.5895 76.2482 15.1055C75.0288 15.2904 73.7987 15.4001 72.5654 15.4339H66.2336C64.9972 15.3873 63.7642 15.2777 62.5392 15.1055C58.322 14.5895 53.0353 13.9328 49.2101 17.3455C45.3849 20.7583 43.4845 27.7246 43.6033 38.1271V39.1122L42.724 38.6548C42.3372 38.462 41.9102 38.3616 41.4769 38.3616C41.0436 38.3616 40.616 38.462 40.2292 38.6548C39.362 39.2412 38.4236 41.0004 38.9107 45.6915C39.4572 51.2152 40.9661 53.4435 42.1184 54.3348C42.5953 54.7501 43.2177 54.9648 43.8528 54.9329L44.423 54.9096Z" fill="#0D1719"/>
<path d="M55.8424 23.4906C55.8424 23.4906 66.534 16.7706 75.4436 23.4906C83.391 29.46 77.6294 33.1074 89.699 36.3912C90.7691 36.6797 91.7132 37.3081 92.3853 38.1794C93.0573 39.0506 93.4204 40.1161 93.4177 41.2112V41.5982C93.4082 41.9797 93.4929 42.3578 93.6648 42.6996C93.8368 43.0413 94.0907 43.3365 94.4044 43.5595C94.7181 43.7825 95.0819 43.9266 95.4648 43.9793C95.8476 44.0319 96.2376 43.9916 96.6011 43.8617C96.9005 43.764 97.1741 43.6017 97.4021 43.3867C97.6302 43.1717 97.8075 42.9093 97.9201 42.6185C100.07 37.0947 109.799 8.84265 86.1949 2.11091C65.4058 -3.82334 54.512 4.18661 50.9125 7.71667C49.8848 8.7323 48.7634 9.65116 47.5627 10.4611C43.298 13.3461 34.0795 21.1803 39.841 32.1809C40.8148 34.1076 41.61 36.1174 42.217 38.1855L43.2384 41.4457C43.3694 41.8747 43.617 42.26 43.9542 42.5598C44.2914 42.8596 44.7051 43.0625 45.1509 43.1464C45.4958 43.2069 45.8504 43.1914 46.1886 43.101C46.5267 43.0105 46.84 42.8474 47.1068 42.6232C47.3736 42.3991 47.587 42.1194 47.7315 41.8044C47.876 41.4893 47.9481 41.1466 47.9427 40.8008C47.9308 36.3091 48.786 27.654 55.8424 23.4906Z" fill="#0D1719"/>
<g style="mix-blend-mode:multiply" opacity="0.3">
<g style="mix-blend-mode:multiply" opacity="0.3">
<path d="M67.6669 52.5635C71.0051 53.7363 72.7157 50.7339 74.1531 51.6369C75.5905 52.54 72.9648 56.1873 69.3178 53.9825C67.6784 53.0795 66.6928 52.1999 67.6669 52.5635Z" fill="#F1B69A"/>
</g>
</g>
<path d="M69.8529 54.8039C69.7534 54.8044 69.655 54.7802 69.5675 54.7336L69.2705 54.5811C68.7007 54.3703 68.197 54.0158 67.8093 53.5528C67.4216 53.0898 67.1636 52.5345 67.0611 51.9424C66.974 51.6108 66.9801 51.262 67.0785 50.9335C67.1768 50.605 67.364 50.3091 67.6197 50.0776C68.3945 49.2102 68.8176 48.091 68.8076 46.9346C68.8256 46.7738 68.9062 46.6262 69.0327 46.5233C69.1591 46.4204 69.3212 46.3702 69.4845 46.3834C69.6496 46.3983 69.8018 46.4769 69.9085 46.602C70.0153 46.7272 70.0679 46.8888 70.0547 47.0518C70.0572 48.459 69.5471 49.8202 68.6173 50.8868C68.3085 51.2387 68.2494 51.3091 68.3325 51.6844C68.3948 52.099 68.5731 52.4881 68.8482 52.8074C69.1233 53.1266 69.4837 53.3632 69.8882 53.4904L70.1974 53.6428C70.3429 53.72 70.4519 53.8506 70.5008 54.0063C70.5497 54.1621 70.5342 54.3306 70.4584 54.4755C70.4009 54.5826 70.3132 54.6708 70.2055 54.7291C70.0979 54.7875 69.9753 54.8134 69.8529 54.8039Z" fill="#262323"/>
<path d="M58.7075 40.144C58.5474 40.1032 58.4011 40.0207 58.2841 39.9052C58.1671 39.7898 58.0836 39.6455 58.0422 39.4874C58.0044 39.3673 57.9918 39.2408 58.0051 39.1157C58.0184 38.9906 58.0577 38.8695 58.12 38.7598C58.1822 38.6501 58.266 38.5541 58.3671 38.4775C58.4681 38.4009 58.5841 38.3455 58.7075 38.3146C60.3307 37.9786 62.0148 38.0717 63.5899 38.5843C63.7091 38.6203 63.82 38.6794 63.9159 38.7581C64.0117 38.8368 64.0904 38.9337 64.1479 39.0428C64.2054 39.152 64.2403 39.2714 64.2505 39.394C64.2608 39.5167 64.2462 39.6401 64.2076 39.7571C64.1711 39.8747 64.1116 39.984 64.0319 40.0786C63.9521 40.1732 63.8542 40.2512 63.7436 40.308C63.633 40.3647 63.5116 40.3992 63.3874 40.4093C63.2632 40.4194 63.1382 40.405 63.0197 40.3669C61.7759 39.979 60.4565 39.8904 59.171 40.1088C59.0234 40.1651 58.8621 40.1774 58.7075 40.144Z" fill="#262323"/>
<path d="M81.5583 40.1438C81.7169 40.0997 81.8612 40.0161 81.9777 39.9011C82.0942 39.7861 82.179 39.6436 82.2237 39.4871C82.2614 39.367 82.2741 39.2405 82.2608 39.1154C82.2475 38.9904 82.2082 38.8693 82.1459 38.7595C82.0837 38.6498 81.9993 38.5538 81.8982 38.4772C81.7972 38.4007 81.6818 38.3452 81.5583 38.3143C79.9311 37.9801 78.2433 38.0731 76.6638 38.584C76.5446 38.62 76.4336 38.6791 76.3378 38.7578C76.242 38.8365 76.1633 38.9334 76.1058 39.0426C76.0483 39.1517 76.0134 39.2711 76.0032 39.3937C75.9929 39.5164 76.0075 39.6398 76.0461 39.7568C76.0826 39.8745 76.1427 39.9837 76.2224 40.0783C76.3022 40.1729 76.4001 40.2509 76.5107 40.3077C76.6213 40.3644 76.742 40.3989 76.8663 40.409C76.9905 40.4192 77.1155 40.4048 77.234 40.3667C78.4778 39.9787 79.7972 39.8901 81.0827 40.1085C81.2345 40.1645 81.3998 40.1767 81.5583 40.1438Z" fill="#262323"/>
<path d="M62 48.8946C63.1045 48.8946 64 47.7777 64 46.3999C64 45.0222 63.1045 43.9053 62 43.9053C60.8954 43.9053 60 45.0222 60 46.3999C60 47.7777 60.8954 48.8946 62 48.8946Z" fill="#0D1719"/>
<path d="M78 48.8946C79.1045 48.8946 80 47.7777 80 46.3999C80 45.0222 79.1045 43.9053 78 43.9053C76.8954 43.9053 76 45.0222 76 46.3999C76 47.7777 76.8954 48.8946 78 48.8946Z" fill="#0D1719"/>
<path d="M70.4502 59.7531C69.4712 59.7557 68.5014 59.5675 67.5963 59.1992C66.6912 58.8309 65.8685 58.2898 65.1757 57.607C65.1201 57.5525 65.0759 57.4876 65.0458 57.4161C65.0156 57.3447 65 57.2681 65 57.1907C65 57.1132 65.0156 57.0366 65.0458 56.9652C65.0759 56.8937 65.1201 56.8289 65.1757 56.7743C65.2309 56.7194 65.2965 56.6757 65.3689 56.6459C65.4413 56.6162 65.519 56.6008 65.5974 56.6008C65.6758 56.6008 65.7536 56.6162 65.826 56.6459C65.8983 56.6757 65.9639 56.7194 66.0191 56.7743C66.5989 57.3512 67.2896 57.8079 68.0505 58.118C68.8113 58.4282 69.627 58.5853 70.4502 58.5803C71.2731 58.584 72.0886 58.4262 72.8493 58.1162C73.6099 57.8061 74.3006 57.3501 74.8812 56.7743C74.9345 56.7182 74.9988 56.6735 75.0703 56.6429C75.1418 56.6124 75.2192 56.5967 75.2971 56.5967C75.375 56.5967 75.4518 56.6124 75.5233 56.6429C75.5948 56.6735 75.6597 56.7182 75.713 56.7743C75.7687 56.8289 75.8128 56.8937 75.8429 56.9652C75.8731 57.0366 75.8882 57.1132 75.8882 57.1907C75.8882 57.2681 75.8731 57.3447 75.8429 57.4161C75.8128 57.4876 75.7687 57.5525 75.713 57.607C75.0228 58.29 74.2021 58.8314 73.2988 59.1998C72.3955 59.5681 71.4274 59.7561 70.4502 59.7531Z" fill="#F66D62"/>
</g>
<defs>
<clipPath id="clip0_74_399">
<rect width="140" height="127" fill="white"/>
</clipPath>
</defs>
</svg>
