<svg width="80" height="80" viewBox="0 0 80 80" fill="none" xmlns="http://www.w3.org/2000/svg">
<path d="M70.7616 30.0642C70.7616 42.1926 63.453 52.6394 52.9303 57.3924C51.4334 58.0683 49.8704 58.6306 48.2524 59.0632C47.9222 59.1497 47.592 59.2362 47.2618 59.3119C47.0581 59.3606 46.86 59.4039 46.6564 59.4471C46.4968 59.4796 46.3317 59.512 46.1721 59.5444C44.2293 59.9229 42.2206 60.123 40.1678 60.123C38.115 60.123 36.1062 59.9229 34.1635 59.5444C34.0039 59.512 33.8388 59.4796 33.6792 59.4471C33.404 59.3876 33.1288 59.3281 32.8537 59.2633C32.4684 59.1713 32.0832 59.0686 31.7034 58.9605C30.1735 58.5279 28.6985 57.9872 27.2786 57.3383C16.822 52.5583 9.57391 42.144 9.57391 30.0642V30.0264C9.57942 24.365 11.1809 19.0659 13.9602 14.5455C15.0004 12.853 16.2111 11.2633 17.5595 9.80872C18.0823 9.24096 18.6327 8.70024 19.194 8.17573C19.2546 8.12166 19.3096 8.06759 19.3701 8.01352C20.3332 7.13755 21.3514 6.32105 22.4191 5.57486C23.85 4.57452 25.3689 3.68773 26.9704 2.93613C27.4107 2.73065 27.862 2.53058 28.3133 2.34133C31.9621 0.832714 35.9631 0 40.1678 0C44.3724 0 48.379 0.832714 52.0223 2.34133C56.1003 4.02839 59.7326 6.55897 62.688 9.71139C64.1299 11.247 65.4068 12.9341 66.4964 14.7401C69.1381 19.1092 70.6791 24.192 70.7616 29.6208C70.7616 29.7668 70.7616 29.9128 70.7616 30.0588V30.0642Z" fill="#00BCD4"/>
<path d="M47.2178 79.7675C47.0142 79.8161 46.8161 79.8594 46.6124 79.9026C46.4528 79.9351 46.2877 79.9675 46.1281 80H34.1195C33.9599 79.9675 33.7948 79.9351 33.6352 79.9026C33.36 79.8432 33.0849 79.7837 32.8097 79.7188L33.316 77.4315L33.8223 75.1551L35.3633 68.2176L35.5174 67.5255L36.1173 64.8273H43.9047L44.5046 67.5255L44.9834 69.6938L46.1942 75.1497L46.7005 77.4261L47.2178 79.7675Z" fill="#474747"/>
<path d="M43.9047 64.8273H36.1173L35.3633 68.2176C37.7628 69.2234 40.399 69.7749 43.1672 69.7749C43.7781 69.7749 44.389 69.7479 44.9834 69.6938L43.9047 64.8273Z" fill="#303030"/>
<path d="M49.309 77.5235C49.309 78.1778 49.0393 78.7726 48.599 79.2052C48.478 79.3241 48.3514 79.4269 48.2083 79.5188C47.8781 79.6053 47.5479 79.6918 47.2177 79.7675C47.014 79.8162 46.8159 79.8594 46.6123 79.9027H33.6351C33.3599 79.8432 33.0847 79.7837 32.8095 79.7189C32.4243 79.6269 32.039 79.5242 31.6593 79.4161C31.0814 78.9835 30.7072 78.2968 30.7072 77.5289C30.7072 77.4965 30.7072 77.464 30.7072 77.4316C30.7347 76.8152 30.9989 76.2582 31.4117 75.8527C31.8465 75.4255 32.4518 75.1552 33.1233 75.1552H46.8875C48.1863 75.1552 49.2484 76.1663 49.3035 77.4316C49.3035 77.464 49.3035 77.4965 49.3035 77.5289L49.309 77.5235Z" fill="#3D3D3D"/>
<path d="M71.1084 40.4731C70.5305 39.1267 69.6995 37.9209 68.6484 36.8881C67.9824 36.2338 67.2505 35.6715 66.4525 35.2011C65.9847 34.9253 65.5004 34.682 64.994 34.4711C63.6127 33.8979 62.1433 33.6005 60.6353 33.5843C60.5968 33.5843 60.5582 33.5843 60.5197 33.5843H19.4913C19.4527 33.5843 19.4142 33.5843 19.3757 33.5843C17.8677 33.6005 16.3983 33.8979 15.0169 34.4711C14.6372 34.6279 14.2685 34.8063 13.9052 35.001C12.9751 35.5093 12.1276 36.1419 11.3626 36.8881C10.306 37.9263 9.48044 39.1321 8.90258 40.4731C8.3027 41.8682 8 43.3443 8 44.8692C8 46.394 8.3027 47.8702 8.90258 49.2653C9.08419 49.687 9.28782 50.0926 9.51897 50.4873C10.0198 51.3525 10.6417 52.1419 11.3626 52.8557C12.4193 53.8939 13.6466 54.7049 15.0114 55.2727C16.4313 55.8621 17.9338 56.1595 19.4858 56.1595H60.5142C62.0662 56.1595 63.5686 55.8621 64.9885 55.2727C66.3589 54.7049 67.5862 53.8884 68.6373 52.8557C69.4739 52.0338 70.1673 51.1091 70.7067 50.0872C70.8498 49.8222 70.9763 49.5464 71.0974 49.2707C71.6973 47.8756 72 46.3994 72 44.8746C72 43.3498 71.6973 41.8736 71.0974 40.4785L71.1084 40.4731ZM60.5252 51.9202H19.4968C15.5343 51.9202 12.3147 48.757 12.3147 44.8638C12.3147 40.9706 15.5343 37.8073 19.4968 37.8073H60.5252C64.4877 37.8073 67.7073 40.9706 67.7073 44.8638C67.7073 48.757 64.4877 51.9202 60.5252 51.9202Z" fill="#3A3A3A"/>
<path d="M21.0596 37.8073H60.5251C61.0094 37.8073 61.4827 37.856 61.9395 37.9479L62.1376 33.6924C61.6423 33.6221 61.1415 33.5897 60.6352 33.5843C60.5967 33.5843 60.5581 33.5843 60.5196 33.5843H20.856L21.0542 37.8127L21.0596 37.8073Z" fill="#303030"/>
<path d="M61.1527 51.8932C60.9435 51.9094 60.7344 51.9202 60.5198 51.9202H21.8523C22.1 53.391 22.5127 54.8077 23.0741 56.1487H59.9199C60.4868 54.8023 60.8995 53.3748 61.1472 51.8932H61.1527Z" fill="#303030"/>
<path d="M18.5722 37.8669C18.8749 37.829 19.1831 37.8074 19.4968 37.8074H59.5346L59.7327 33.5789H19.4968C19.4583 33.5789 19.4197 33.5789 19.3812 33.5789C19.0455 33.5789 18.7098 33.6005 18.3741 33.633L18.5722 37.8669Z" fill="#303030"/>
<path d="M57.79 56.1541C58.2853 54.8077 58.632 53.391 58.8191 51.9257H19.4967C19.4252 51.9257 19.3591 51.9257 19.2876 51.9257C19.4692 53.3964 19.8214 54.8131 20.3167 56.1595H57.7954L57.79 56.1541Z" fill="#303030"/>
<path d="M40.0082 68.023C29.2599 68.023 20.4488 59.6418 20.1021 49.0814L19.139 28.4691H60.8774L59.9143 49.0814C59.5676 59.6363 50.7565 68.023 40.0082 68.023Z" fill="#474747"/>
<path d="M60.5857 34.7252L60.8774 28.4691H19.139L19.2931 31.7404L60.5857 34.7252Z" fill="#303030"/>
<path d="M61.2352 30.6482H18.7869C17.7137 30.6482 16.7836 29.9074 16.5635 28.88L15.8315 25.4951C15.5343 24.1054 16.6075 22.7969 18.0549 22.7969H61.9672C63.4146 22.7969 64.4933 24.1054 64.1906 25.4951L63.4586 28.88C63.2385 29.9128 62.3084 30.6482 61.2352 30.6482Z" fill="#474747"/>
<path d="M42.0445 25.6682H18.7758C18.308 25.6682 17.9338 25.2951 17.9338 24.8409C17.9338 24.3812 18.3135 24.0135 18.7758 24.0135H42.0445C42.5123 24.0135 42.8866 24.3866 42.8866 24.8409C42.8866 25.3005 42.5068 25.6682 42.0445 25.6682Z" fill="white"/>
<path d="M45.9849 25.3653C46.6729 24.4785 45.6547 23.4782 44.7521 24.1541C44.0642 25.0409 45.0824 26.0412 45.9849 25.3653Z" fill="white"/>
<path d="M26.7559 38.7644C26.9815 36.0446 27.3007 34.2602 27.3007 34.2602L21.8302 34.3413C21.7202 35.8986 21.6596 37.3694 21.6376 38.759H26.7614L26.7559 38.7644Z" fill="#6D6D6D"/>
<path d="M26.5409 42.6685H21.6813C22.5674 62.3994 32.7654 63.1889 32.7654 63.1889C27.2949 58.8253 26.3758 49.5465 26.5409 42.6685Z" fill="#6D6D6D"/>
<path d="M41.3348 36.1365L43.3821 40.2082C43.6297 40.7002 44.1085 41.0463 44.6644 41.122L49.2377 41.7763C50.6356 41.9764 51.1915 43.6634 50.1789 44.6313L46.8713 47.7999C46.4695 48.1839 46.2879 48.7354 46.3814 49.2815L47.163 53.7587C47.3996 55.1267 45.9412 56.1649 44.6919 55.5215L40.6028 53.4072C40.1075 53.1531 39.5131 53.1531 39.0178 53.4072L34.9287 55.5215C33.6794 56.1649 32.221 55.1267 32.4576 53.7587L33.2391 49.2815C33.3327 48.7408 33.1511 48.1839 32.7493 47.7999L29.4417 44.6313C28.4291 43.6634 28.9904 41.9764 30.3828 41.7763L34.9562 41.122C35.5121 41.0409 35.9909 40.7002 36.2385 40.2082L38.2858 36.1365C38.9077 34.8929 40.7129 34.8929 41.3403 36.1365H41.3348Z" fill="white"/>
<path d="M57.3496 38.4292L54.664 35.6553C54.4713 35.4552 54.1466 35.4552 53.954 35.6553L51.1858 38.4562C50.8776 38.7699 50.3382 38.5536 50.3382 38.1156V22.8456C50.3382 22.5428 50.5859 22.2994 50.8941 22.2994H57.6468C57.955 22.2994 58.2027 22.5428 58.2027 22.8456V38.094C58.2027 38.532 57.6578 38.7482 57.3496 38.4292Z" fill="#606060"/>
<path d="M56.7222 24.219H51.5324C51.1637 24.219 50.872 23.927 50.872 23.5701C50.872 23.2078 51.1692 22.9213 51.5324 22.9213H56.7222C57.0854 22.9213 57.3826 23.2133 57.3826 23.5701C57.3826 23.9324 57.0854 24.219 56.7222 24.219Z" fill="#777777"/>
<path d="M9.10611 43.5877C9.10611 43.5877 9.07859 43.5877 9.06208 43.5877C8.83643 43.5661 8.67134 43.366 8.69886 43.1497C8.81443 42.025 9.16665 40.9382 9.75552 39.9162C10.2178 39.1051 10.8287 38.3319 11.5662 37.6181C12.8209 36.4069 13.9987 35.7959 14.0482 35.7743C14.2464 35.6715 14.494 35.7472 14.5986 35.9473C14.7031 36.142 14.6261 36.3853 14.428 36.488C14.428 36.488 13.2887 37.0828 12.122 38.2129C10.581 39.7107 9.70048 41.3978 9.51336 43.2362C9.49135 43.4417 9.31524 43.5985 9.10611 43.5985V43.5877Z" fill="white"/>
<path d="M62.0826 53.1315C61.8734 53.1315 61.6973 52.9747 61.6753 52.7638C61.6533 52.5421 61.8184 52.3475 62.044 52.3259C62.0716 52.3259 63.1888 52.2123 64.4546 51.6013C66.1386 50.7902 67.2889 49.5195 67.8667 47.8324C67.9383 47.6216 68.1694 47.508 68.3841 47.5783C68.5987 47.6486 68.7142 47.8757 68.6427 48.0866C67.9933 49.9683 66.6614 51.4391 64.7848 52.3313C63.3759 53.0018 62.1651 53.1153 62.1156 53.1207C62.1046 53.1207 62.0881 53.1207 62.0771 53.1207L62.0826 53.1315Z" fill="white"/>
<path d="M22.9916 40.0081H19.7501C17.7166 40.0081 16.0682 41.6276 16.0682 43.6255C16.0682 45.6233 17.7166 47.2429 19.7501 47.2429H22.9916C25.025 47.2429 26.6734 45.6233 26.6734 43.6255C26.6734 41.6276 25.025 40.0081 22.9916 40.0081Z" fill="#00BCD4"/>
<path d="M60.2611 40.0081H57.0195C54.9861 40.0081 53.3377 41.6276 53.3377 43.6255C53.3377 45.6233 54.9861 47.2429 57.0195 47.2429H60.2611C62.2945 47.2429 63.9429 45.6233 63.9429 43.6255C63.9429 41.6276 62.2945 40.0081 60.2611 40.0081Z" fill="#00BCD4"/>
<path d="M35.165 16.8814C36.2289 16.8814 37.0913 16.0341 37.0913 14.9888C37.0913 13.9436 36.2289 13.0963 35.165 13.0963C34.1012 13.0963 33.2388 13.9436 33.2388 14.9888C33.2388 16.0341 34.1012 16.8814 35.165 16.8814Z" fill="black"/>
<path d="M40.3109 20.4393C42.2866 20.4393 43.8882 19.592 43.8882 18.5468C43.8882 17.5016 42.2866 16.6542 40.3109 16.6542C38.3352 16.6542 36.7336 17.5016 36.7336 18.5468C36.7336 19.592 38.3352 20.4393 40.3109 20.4393Z" fill="black"/>
<path d="M44.8512 16.8814C45.915 16.8814 46.7774 16.0341 46.7774 14.9888C46.7774 13.9436 45.915 13.0963 44.8512 13.0963C43.7874 13.0963 42.925 13.9436 42.925 14.9888C42.925 16.0341 43.7874 16.8814 44.8512 16.8814Z" fill="black"/>
</svg>
