<svg width="321" height="133" viewBox="0 0 321 133" fill="none" xmlns="http://www.w3.org/2000/svg">
<path d="M1.672 112.803H8.503V112.066H2.574V108.469H1.672V112.803ZM9.526 116.114V115.366H0.572V116.114H9.526ZM18.7981 113.452V107.611H17.8961V113.452H18.7981ZM16.7961 112.66L16.6971 111.934C15.1351 112.198 13.8591 112.242 12.0991 112.242V110.878H15.6741V108.194H11.1861V108.931H14.7831V110.185H11.2191V112.979H12.0111C13.8261 112.979 15.1901 112.924 16.7961 112.66ZM18.7981 114.002H12.4181V117.335H18.7981V114.002ZM17.9181 116.609H13.2981V114.717H17.9181V116.609Z" fill="#999999"/>
<path d="M8.437 6.556H9.757V5.797H8.437V1.947H7.546V11.814H8.437V6.556ZM3.498 2.871H2.75V5.401H1.54V2.871H0.77V9.427H3.498V2.871ZM6.71 2.871H5.951V5.401H4.785V2.871H4.026V9.427H6.71V2.871ZM1.54 6.127H2.75V8.69H1.54V6.127ZM4.785 6.127H5.951V8.69H4.785V6.127ZM11.8241 2.893H17.6101V3.85H11.8461V6.193H18.7101V5.489H12.7371V4.521H18.5011V2.2H11.8241V2.893ZM19.6451 7.766V7.04H10.7021V7.766H19.6451ZM18.5121 8.679H11.9011V11.682H18.5121V8.679ZM17.6211 10.956H12.7811V9.394H17.6211V10.956Z" fill="#999999"/>
<path d="M24.6685 44H320" stroke="#EBEBEB" stroke-dasharray="2 3"/>
<path d="M24.6685 78.667H320" stroke="#EBEBEB" stroke-dasharray="2 3"/>
<path d="M24.6685 9.36426H320" stroke="#EBEBEB" stroke-dasharray="2 3"/>
<path d="M24.6685 113.333H320" stroke="#EBEBEB"/>
<path d="M38.786 130V129.186H37.202V121.893H36.399L34.232 123.763L34.771 124.412L36.234 123.103C36.223 123.18 36.223 123.279 36.223 123.378V129.186H34.43V130H38.786ZM41.0157 129.12H40.0147V130.154H41.0157V129.12ZM48.3469 125.985C48.3469 123.114 47.0489 121.805 45.3879 121.805C43.7159 121.805 42.4289 123.114 42.4289 125.985C42.4289 128.845 43.7159 130.154 45.3879 130.154C47.0489 130.154 48.3469 128.845 48.3469 125.985ZM47.3349 125.985C47.3349 128.493 46.4109 129.34 45.3879 129.34C44.3649 129.34 43.4519 128.493 43.4519 125.985C43.4519 123.466 44.3649 122.63 45.3879 122.63C46.4109 122.63 47.3349 123.466 47.3349 125.985Z" fill="#999999"/>
<path d="M62.786 130V129.186H61.202V121.893H60.399L58.232 123.763L58.771 124.412L60.234 123.103C60.223 123.18 60.223 123.279 60.223 123.378V129.186H58.43V130H62.786ZM65.0157 129.12H64.0147V130.154H65.0157V129.12ZM68.1889 124.94L68.5519 122.828H71.7089V121.904H67.8479L67.1879 125.721L67.8369 125.908C68.3099 125.743 68.7279 125.644 69.1569 125.644C70.3119 125.644 70.9939 126.26 70.9939 127.316C70.9939 128.504 70.1909 129.197 69.0799 129.197C68.4199 129.197 67.7819 128.9 67.2979 128.493L66.7589 129.23C67.2539 129.703 68.0679 130.099 69.0359 130.099C70.6749 130.099 71.9619 128.977 71.9619 127.261C71.9619 125.853 71.0489 124.797 69.3439 124.797C68.9479 124.797 68.5629 124.841 68.1889 124.94Z" fill="#999999"/>
<path d="M86.995 130V129.109H83.816C83.541 129.109 83.211 129.153 82.903 129.241L85.158 127.008C86.071 126.095 86.841 125.259 86.841 124.06C86.841 122.63 85.774 121.794 84.399 121.794C83.024 121.794 81.957 122.597 81.748 124.082L82.738 124.247C82.738 123.323 83.42 122.663 84.344 122.663C85.18 122.663 85.796 123.114 85.829 124.082C85.829 125.028 85.213 125.721 84.366 126.623L81.583 129.296V130H86.995ZM89.0157 129.12H88.0147V130.154H89.0157V129.12ZM96.3469 125.985C96.3469 123.114 95.0489 121.805 93.3879 121.805C91.7159 121.805 90.4289 123.114 90.4289 125.985C90.4289 128.845 91.7159 130.154 93.3879 130.154C95.0489 130.154 96.3469 128.845 96.3469 125.985ZM95.3349 125.985C95.3349 128.493 94.4109 129.34 93.3879 129.34C92.3649 129.34 91.4519 128.493 91.4519 125.985C91.4519 123.466 92.3649 122.63 93.3879 122.63C94.4109 122.63 95.3349 123.466 95.3349 125.985Z" fill="#999999"/>
<path d="M110.995 130V129.109H107.816C107.541 129.109 107.211 129.153 106.903 129.241L109.158 127.008C110.071 126.095 110.841 125.259 110.841 124.06C110.841 122.63 109.774 121.794 108.399 121.794C107.024 121.794 105.957 122.597 105.748 124.082L106.738 124.247C106.738 123.323 107.42 122.663 108.344 122.663C109.18 122.663 109.796 123.114 109.829 124.082C109.829 125.028 109.213 125.721 108.366 126.623L105.583 129.296V130H110.995ZM113.016 129.12H112.015V130.154H113.016V129.12ZM116.189 124.94L116.552 122.828H119.709V121.904H115.848L115.188 125.721L115.837 125.908C116.31 125.743 116.728 125.644 117.157 125.644C118.312 125.644 118.994 126.26 118.994 127.316C118.994 128.504 118.191 129.197 117.08 129.197C116.42 129.197 115.782 128.9 115.298 128.493L114.759 129.23C115.254 129.703 116.068 130.099 117.036 130.099C118.675 130.099 119.962 128.977 119.962 127.261C119.962 125.853 119.049 124.797 117.344 124.797C116.948 124.797 116.563 124.841 116.189 124.94Z" fill="#999999"/>
<path d="M129.781 124.104L130.782 124.269C130.782 123.367 131.453 122.685 132.377 122.685C133.224 122.685 133.818 123.136 133.818 124.06C133.818 124.896 133.312 125.479 131.893 125.512V126.238C133.62 126.238 133.983 126.876 133.983 127.745C133.983 128.46 133.422 129.274 132.267 129.274C131.431 129.274 130.936 128.845 130.595 128.141C130.507 127.932 130.452 127.767 130.43 127.646L129.528 128.02C129.913 129.208 130.54 130.143 132.278 130.143C133.785 130.143 135.006 129.197 135.006 127.723C135.006 126.711 134.456 126.04 133.4 125.776C134.28 125.479 134.819 124.951 134.819 123.895C134.819 122.663 133.829 121.805 132.432 121.805C131.057 121.805 129.99 122.641 129.781 124.104ZM137.016 129.12H136.015V130.154H137.016V129.12ZM144.347 125.985C144.347 123.114 143.049 121.805 141.388 121.805C139.716 121.805 138.429 123.114 138.429 125.985C138.429 128.845 139.716 130.154 141.388 130.154C143.049 130.154 144.347 128.845 144.347 125.985ZM143.335 125.985C143.335 128.493 142.411 129.34 141.388 129.34C140.365 129.34 139.452 128.493 139.452 125.985C139.452 123.466 140.365 122.63 141.388 122.63C142.411 122.63 143.335 123.466 143.335 125.985Z" fill="#999999"/>
<path d="M153.781 124.104L154.782 124.269C154.782 123.367 155.453 122.685 156.377 122.685C157.224 122.685 157.818 123.136 157.818 124.06C157.818 124.896 157.312 125.479 155.893 125.512V126.238C157.62 126.238 157.983 126.876 157.983 127.745C157.983 128.46 157.422 129.274 156.267 129.274C155.431 129.274 154.936 128.845 154.595 128.141C154.507 127.932 154.452 127.767 154.43 127.646L153.528 128.02C153.913 129.208 154.54 130.143 156.278 130.143C157.785 130.143 159.006 129.197 159.006 127.723C159.006 126.711 158.456 126.04 157.4 125.776C158.28 125.479 158.819 124.951 158.819 123.895C158.819 122.663 157.829 121.805 156.432 121.805C155.057 121.805 153.99 122.641 153.781 124.104ZM161.016 129.12H160.015V130.154H161.016V129.12ZM164.189 124.94L164.552 122.828H167.709V121.904H163.848L163.188 125.721L163.837 125.908C164.31 125.743 164.728 125.644 165.157 125.644C166.312 125.644 166.994 126.26 166.994 127.316C166.994 128.504 166.191 129.197 165.08 129.197C164.42 129.197 163.782 128.9 163.298 128.493L162.759 129.23C163.254 129.703 164.068 130.099 165.036 130.099C166.675 130.099 167.962 128.977 167.962 127.261C167.962 125.853 167.049 124.797 165.344 124.797C164.948 124.797 164.563 124.841 164.189 124.94Z" fill="#999999"/>
<path d="M183.38 127.855V127.063H182.159V121.849H181.213L177.242 127.107V127.855H181.268V130H182.159V127.855H183.38ZM181.268 123.697V127.063H178.342L181.312 123.015C181.279 123.246 181.268 123.51 181.268 123.697ZM185.016 129.12H184.015V130.154H185.016V129.12ZM192.347 125.985C192.347 123.114 191.049 121.805 189.388 121.805C187.716 121.805 186.429 123.114 186.429 125.985C186.429 128.845 187.716 130.154 189.388 130.154C191.049 130.154 192.347 128.845 192.347 125.985ZM191.335 125.985C191.335 128.493 190.411 129.34 189.388 129.34C188.365 129.34 187.452 128.493 187.452 125.985C187.452 123.466 188.365 122.63 189.388 122.63C190.411 122.63 191.335 123.466 191.335 125.985Z" fill="#999999"/>
<path d="M207.38 127.855V127.063H206.159V121.849H205.213L201.242 127.107V127.855H205.268V130H206.159V127.855H207.38ZM205.268 123.697V127.063H202.342L205.312 123.015C205.279 123.246 205.268 123.51 205.268 123.697ZM209.016 129.12H208.015V130.154H209.016V129.12ZM212.189 124.94L212.552 122.828H215.709V121.904H211.848L211.188 125.721L211.837 125.908C212.31 125.743 212.728 125.644 213.157 125.644C214.312 125.644 214.994 126.26 214.994 127.316C214.994 128.504 214.191 129.197 213.08 129.197C212.42 129.197 211.782 128.9 211.298 128.493L210.759 129.23C211.254 129.703 212.068 130.099 213.036 130.099C214.675 130.099 215.962 128.977 215.962 127.261C215.962 125.853 215.049 124.797 213.344 124.797C212.948 124.797 212.563 124.841 212.189 124.94Z" fill="#999999"/>
<path d="M227.101 124.94L227.464 122.828H230.621V121.904H226.76L226.1 125.721L226.749 125.908C227.222 125.743 227.64 125.644 228.069 125.644C229.224 125.644 229.906 126.26 229.906 127.316C229.906 128.504 229.103 129.197 227.992 129.197C227.332 129.197 226.694 128.9 226.21 128.493L225.671 129.23C226.166 129.703 226.98 130.099 227.948 130.099C229.587 130.099 230.874 128.977 230.874 127.261C230.874 125.853 229.961 124.797 228.256 124.797C227.86 124.797 227.475 124.841 227.101 124.94ZM233.016 129.12H232.015V130.154H233.016V129.12ZM240.347 125.985C240.347 123.114 239.049 121.805 237.388 121.805C235.716 121.805 234.429 123.114 234.429 125.985C234.429 128.845 235.716 130.154 237.388 130.154C239.049 130.154 240.347 128.845 240.347 125.985ZM239.335 125.985C239.335 128.493 238.411 129.34 237.388 129.34C236.365 129.34 235.452 128.493 235.452 125.985C235.452 123.466 236.365 122.63 237.388 122.63C238.411 122.63 239.335 123.466 239.335 125.985Z" fill="#999999"/>
<path d="M251.101 124.94L251.464 122.828H254.621V121.904H250.76L250.1 125.721L250.749 125.908C251.222 125.743 251.64 125.644 252.069 125.644C253.224 125.644 253.906 126.26 253.906 127.316C253.906 128.504 253.103 129.197 251.992 129.197C251.332 129.197 250.694 128.9 250.21 128.493L249.671 129.23C250.166 129.703 250.98 130.099 251.948 130.099C253.587 130.099 254.874 128.977 254.874 127.261C254.874 125.853 253.961 124.797 252.256 124.797C251.86 124.797 251.475 124.841 251.101 124.94ZM257.016 129.12H256.015V130.154H257.016V129.12ZM260.189 124.94L260.552 122.828H263.709V121.904H259.848L259.188 125.721L259.837 125.908C260.31 125.743 260.728 125.644 261.157 125.644C262.312 125.644 262.994 126.26 262.994 127.316C262.994 128.504 262.191 129.197 261.08 129.197C260.42 129.197 259.782 128.9 259.298 128.493L258.759 129.23C259.254 129.703 260.068 130.099 261.036 130.099C262.675 130.099 263.962 128.977 263.962 127.261C263.962 125.853 263.049 124.797 261.344 124.797C260.948 124.797 260.563 124.841 260.189 124.94Z" fill="#999999"/>
<path d="M275.651 124.94L278.082 121.893H276.817L274.573 124.918C273.869 125.842 273.572 126.656 273.572 127.371C273.572 129.043 274.639 130.143 276.278 130.143C277.928 130.143 279.072 128.977 279.072 127.481C279.072 125.93 277.972 125.05 276.652 125.05C276.113 125.05 275.662 125.204 275.266 125.468C275.343 125.38 275.464 125.204 275.651 124.94ZM276.256 129.296C275.156 129.296 274.551 128.592 274.551 127.536C274.551 126.623 275.244 125.831 276.322 125.831C277.323 125.831 278.06 126.491 278.06 127.558C278.06 128.559 277.323 129.296 276.256 129.296ZM281.016 129.12H280.015V130.154H281.016V129.12ZM288.347 125.985C288.347 123.114 287.049 121.805 285.388 121.805C283.716 121.805 282.429 123.114 282.429 125.985C282.429 128.845 283.716 130.154 285.388 130.154C287.049 130.154 288.347 128.845 288.347 125.985ZM287.335 125.985C287.335 128.493 286.411 129.34 285.388 129.34C284.365 129.34 283.452 128.493 283.452 125.985C283.452 123.466 284.365 122.63 285.388 122.63C286.411 122.63 287.335 123.466 287.335 125.985Z" fill="#999999"/>
<path d="M299.651 124.94L302.082 121.893H300.817L298.573 124.918C297.869 125.842 297.572 126.656 297.572 127.371C297.572 129.043 298.639 130.143 300.278 130.143C301.928 130.143 303.072 128.977 303.072 127.481C303.072 125.93 301.972 125.05 300.652 125.05C300.113 125.05 299.662 125.204 299.266 125.468C299.343 125.38 299.464 125.204 299.651 124.94ZM300.256 129.296C299.156 129.296 298.551 128.592 298.551 127.536C298.551 126.623 299.244 125.831 300.322 125.831C301.323 125.831 302.06 126.491 302.06 127.558C302.06 128.559 301.323 129.296 300.256 129.296ZM305.016 129.12H304.015V130.154H305.016V129.12ZM308.189 124.94L308.552 122.828H311.709V121.904H307.848L307.188 125.721L307.837 125.908C308.31 125.743 308.728 125.644 309.157 125.644C310.312 125.644 310.994 126.26 310.994 127.316C310.994 128.504 310.191 129.197 309.08 129.197C308.42 129.197 307.782 128.9 307.298 128.493L306.759 129.23C307.254 129.703 308.068 130.099 309.036 130.099C310.675 130.099 311.962 128.977 311.962 127.261C311.962 125.853 311.049 124.797 309.344 124.797C308.948 124.797 308.563 124.841 308.189 124.94Z" fill="#999999"/>
<path d="M160.716 66.2741L41 107.818" stroke="#FF6D3B" stroke-width="3"/>
<path d="M209.415 49.3748L160.717 66.2739" stroke="#FABF48" stroke-width="3"/>
<path d="M258.113 32.4758L209.414 49.375" stroke="#62B22F" stroke-width="3"/>
<path d="M306.811 15.5769L258.113 32.4761" stroke="#1E76FC" stroke-width="3"/>
<path d="M320 10.9998L306.811 15.5767" stroke="#6967F9" stroke-width="3"/>
<mask id="mask0_317_3349" style="mask-type:alpha" maskUnits="userSpaceOnUse" x="223" y="31" width="48" height="83">
<path d="M270.5 113.5L223 113.5L223 48L270.5 31L270.5 113.5Z" fill="#D9D9D9"/>
</mask>
<g mask="url(#mask0_317_3349)">
<path d="M190.992 50.3101L275.145 20.8315" stroke="#F5F5F5"/>
<path d="M190 47.4785L274.153 17.9999" stroke="#F5F5F5"/>
<path d="M191.984 53.1411L276.137 23.6625" stroke="#F5F5F5"/>
<path d="M192.976 55.9727L277.129 26.494" stroke="#F5F5F5"/>
<path d="M193.967 58.8037L278.121 29.3251" stroke="#F5F5F5"/>
<path d="M194.959 61.6353L279.113 32.1566" stroke="#F5F5F5"/>
<path d="M195.951 64.4663L280.104 34.9877" stroke="#F5F5F5"/>
<path d="M196.943 67.2979L281.096 37.8192" stroke="#F5F5F5"/>
<path d="M197.934 70.1289L282.088 40.6503" stroke="#F5F5F5"/>
<path d="M198.926 72.9604L283.08 43.4818" stroke="#F5F5F5"/>
<path d="M199.918 75.7915L284.072 46.3129" stroke="#F5F5F5"/>
<path d="M200.91 78.623L285.063 49.1444" stroke="#F5F5F5"/>
<path d="M201.902 81.4541L286.055 51.9755" stroke="#F5F5F5"/>
<path d="M202.893 84.2856L287.047 54.807" stroke="#F5F5F5"/>
<path d="M203.885 87.1167L288.039 57.6381" stroke="#F5F5F5"/>
<path d="M204.877 89.9482L289.03 60.4696" stroke="#F5F5F5"/>
<path d="M205.869 92.7793L290.022 63.3007" stroke="#F5F5F5"/>
<path d="M206.861 95.6108L291.014 66.1322" stroke="#F5F5F5"/>
<path d="M207.853 98.4419L292.006 68.9633" stroke="#F5F5F5"/>
<path d="M208.844 101.273L292.998 71.7948" stroke="#F5F5F5"/>
<path d="M209.836 104.105L293.989 74.6264" stroke="#F5F5F5"/>
<path d="M210.828 106.936L294.981 77.4574" stroke="#F5F5F5"/>
<path d="M211.82 109.768L295.973 80.289" stroke="#F5F5F5"/>
<path d="M212.812 112.599L296.965 83.12" stroke="#F5F5F5"/>
<path d="M213.803 115.43L297.957 85.9516" stroke="#F5F5F5"/>
<path d="M214.795 118.261L298.949 88.7826" stroke="#F5F5F5"/>
<path d="M215.787 121.093L299.94 91.6142" stroke="#F5F5F5"/>
<path d="M216.779 123.924L300.932 94.4452" stroke="#F5F5F5"/>
<path d="M217.771 126.755L301.924 97.2768" stroke="#F5F5F5"/>
<path d="M218.762 129.586L302.916 100.108" stroke="#F5F5F5"/>
<path d="M219.754 132.418L303.907 102.939" stroke="#F5F5F5"/>
<path d="M220.746 135.249L304.899 105.77" stroke="#F5F5F5"/>
</g>
<path d="M242.168 58.22L244.508 58.22L244.508 61.496L245.504 61.496L245.504 55.136L244.508 55.136L244.508 57.416L242.168 57.416L242.168 58.22ZM242.42 60.992L242.948 60.224C241.364 59.672 240.332 58.328 240.332 56.804L240.332 55.736L239.348 55.736L239.348 56.84C239.348 58.472 238.292 59.936 236.624 60.512L237.14 61.316C238.436 60.824 239.396 59.876 239.864 58.58C240.332 59.696 241.22 60.548 242.42 60.992ZM241.952 61.82C239.744 61.82 238.364 62.552 238.364 63.848C238.364 65.132 239.744 65.876 241.952 65.876C244.16 65.876 245.528 65.132 245.528 63.848C245.528 62.552 244.16 61.82 241.952 61.82ZM241.952 65.096C240.308 65.096 239.348 64.628 239.348 63.848C239.348 63.032 240.308 62.588 241.952 62.588C243.596 62.588 244.556 63.032 244.556 63.848C244.556 64.628 243.596 65.096 241.952 65.096ZM255.283 62.996L256.267 62.996L256.267 55.136L255.283 55.136L255.283 62.996ZM253.303 58.52C253.303 56.972 252.079 55.88 250.483 55.88C248.887 55.88 247.687 56.972 247.687 58.52C247.687 60.08 248.887 61.184 250.483 61.184C252.079 61.184 253.303 60.08 253.303 58.52ZM248.647 58.52C248.647 57.476 249.427 56.732 250.483 56.732C251.551 56.732 252.343 57.476 252.343 58.52C252.343 59.588 251.551 60.332 250.483 60.332C249.427 60.332 248.647 59.588 248.647 58.52ZM256.591 65.648L256.591 64.844L250.327 64.844L250.327 62.192L249.343 62.192L249.343 65.648L256.591 65.648ZM244.988 74.412L246.584 74.412L246.584 73.596L244.988 73.596L244.988 71.124L244.004 71.124L244.004 77.208L244.988 77.208L244.988 74.412ZM243.032 75.912L242.912 75.108C241.172 75.444 239.684 75.552 238.136 75.564L238.136 71.664L237.164 71.664L237.164 76.392L238.004 76.392C239.636 76.392 241.196 76.284 243.032 75.912ZM244.988 77.796L238.208 77.796L238.208 81.732L244.988 81.732L244.988 77.796ZM244.028 80.94L239.168 80.94L239.168 78.588L244.028 78.588L244.028 80.94ZM256.303 81.9L256.303 71.124L255.319 71.124L255.319 73.632L252.103 73.632L252.103 74.436L255.319 74.436L255.319 76.08L252.103 76.08L252.103 76.884L255.319 76.884L255.319 81.9L256.303 81.9ZM249.007 78.576L249.007 72.312L248.023 72.312L248.023 79.404L248.839 79.404C250.699 79.404 252.067 79.332 253.627 79.008L253.519 78.192C252.043 78.48 250.723 78.576 249.007 78.576ZM242.732 91.78L244.508 91.78L244.508 93.76L245.504 93.76L245.504 87.136L244.508 87.136L244.508 89.044L242.732 89.044L242.732 89.848L244.508 89.848L244.508 90.976L242.732 90.976L242.732 91.78ZM243.02 92.764L242.96 92.032C242.516 92.092 242.036 92.14 241.556 92.176L241.556 88.732L242.624 88.732L242.624 87.94L236.96 87.94L236.96 88.732L238.028 88.732L238.028 92.296C237.788 92.308 237.56 92.308 237.332 92.308L236.672 92.308L236.78 93.124C238.52 93.124 240.944 93.088 243.02 92.764ZM238.976 92.284L238.976 88.732L240.596 88.732L240.596 92.224C240.056 92.26 239.504 92.272 238.976 92.284ZM241.952 93.988C239.684 93.988 238.364 94.672 238.364 95.92C238.364 97.168 239.684 97.876 241.952 97.876C244.172 97.876 245.528 97.168 245.528 95.92C245.528 94.672 244.172 93.988 241.952 93.988ZM241.952 97.108C240.308 97.108 239.348 96.688 239.348 95.92C239.348 95.188 240.308 94.744 241.952 94.744C243.596 94.744 244.556 95.188 244.556 95.92C244.556 96.688 243.596 97.108 241.952 97.108ZM257.203 92.548L257.203 91.744L255.691 91.744C255.943 90.4 255.943 89.392 255.943 88.516L255.943 87.7L248.659 87.7L248.659 88.504L254.971 88.504L254.971 88.516C254.971 89.392 254.983 90.388 254.707 91.744L247.435 91.744L247.435 92.548L250.675 92.548L250.675 95.14L251.635 95.14L251.635 92.548L253.531 92.548L253.531 95.14L254.491 95.14L254.491 92.548L257.203 92.548ZM256.231 96.844L249.595 96.844L249.595 94.276L248.623 94.276L248.623 97.648L256.231 97.648L256.231 96.844Z" fill="#C7C7CF"/>
<path fill-rule="evenodd" clip-rule="evenodd" d="M27 73C19.8203 73 14 78.8203 14 86C14 93.1797 19.8203 99 27 99H36.9585L41 106L45.0415 99H55C62.1797 99 68 93.1797 68 86C68 78.8203 62.1797 73 55 73H27Z" fill="black"/>
<path d="M26.644 83.008H33.244V83.392C33.244 85.024 33.172 86.44 32.872 88.06L33.844 88.18C34.228 86.164 34.228 84.76 34.228 83.392V82.204H26.644V83.008ZM35.368 90.376V89.572H31.66V86.008H30.688V89.572H28.996V86.008H28.024V89.572H25.636V90.376H35.368ZM41.2951 85.492C43.6231 85.492 45.0751 84.736 45.0751 83.44C45.0751 82.144 43.6231 81.376 41.2951 81.376C38.9791 81.376 37.5151 82.144 37.5151 83.44C37.5151 84.736 38.9791 85.492 41.2951 85.492ZM41.2951 82.156C43.0351 82.156 44.0671 82.624 44.0671 83.44C44.0671 84.256 43.0351 84.724 41.2951 84.724C39.5551 84.724 38.5231 84.256 38.5231 83.44C38.5231 82.624 39.5551 82.156 41.2951 82.156ZM43.5991 88.468V87.1H46.1671V86.308H36.4351V87.1H39.0031V88.468H37.5151V89.26H43.9831V91.9H44.9671V88.468H43.5991ZM39.9871 87.1H42.6151V88.468H39.9871V87.1ZM53.0661 87.424H54.0021V84.82H55.3701V87.772H56.3181V81.136H55.3701V84.016H54.0021V81.34H53.0661V87.424ZM52.0941 86.932L52.6221 86.176C51.2421 85.66 50.4381 84.424 50.4381 83.248V81.796H49.4901V83.248C49.4901 84.436 48.6381 85.864 47.2461 86.464L47.7741 87.232C48.8301 86.764 49.5861 85.852 49.9701 84.844C50.3541 85.756 51.0861 86.512 52.0941 86.932ZM52.7661 88.012C50.5581 88.012 49.1781 88.732 49.1781 89.944C49.1781 91.156 50.5581 91.876 52.7661 91.876C54.9741 91.876 56.3661 91.156 56.3661 89.944C56.3661 88.732 54.9741 88.012 52.7661 88.012ZM52.7661 91.12C51.1221 91.12 50.1501 90.712 50.1501 89.944C50.1501 89.176 51.1221 88.78 52.7661 88.78C54.4101 88.78 55.3941 89.176 55.3941 89.944C55.3941 90.712 54.4101 91.12 52.7661 91.12Z" fill="white"/>
<circle cx="41" cy="108" r="3" fill="black"/>
<circle cx="41" cy="108" r="5" fill="black" fill-opacity="0.1"/>
<circle cx="41" cy="108" r="2" fill="white"/>
</svg>
