<svg width="42" height="42" viewBox="0 0 42 42" fill="none" xmlns="http://www.w3.org/2000/svg">
<path d="M7.47342 37.4262C7.02985 37.9475 7.08135 38.735 7.58843 39.1851C8.09552 39.6352 8.86617 39.5774 9.30974 39.056L12.0468 35.839C12.4903 35.3176 12.4389 34.5302 11.9318 34.0801C11.4247 33.63 10.654 33.6878 10.2105 34.2092L7.47342 37.4262Z" fill="#FF6D3B"/>
<path d="M32.0788 36.1819C32.5442 36.6829 33.3166 36.7062 33.8039 36.2339C34.2912 35.7615 34.3089 34.9725 33.8434 34.4715L30.9711 31.38C30.5056 30.879 29.7332 30.8557 29.2459 31.328C28.7586 31.8004 28.7409 32.5894 29.2064 33.0904L32.0788 36.1819Z" fill="#FF6D3B"/>
<path d="M30.6668 36.1564C30.2232 36.6778 30.2747 37.4652 30.7818 37.9153C31.2889 38.3654 32.0595 38.3076 32.5031 37.7862L33.8663 36.1839C34.3099 35.6626 34.2584 34.8751 33.7513 34.425C33.2442 33.975 32.4736 34.0328 32.03 34.5541L30.6668 36.1564Z" fill="#FF6D3B"/>
<path d="M19.3766 37.4667C29.1705 37.4667 37.11 29.5272 37.11 19.7333C37.11 9.93948 29.1705 2 19.3766 2C9.58279 2 1.64331 9.93948 1.64331 19.7333C1.64331 29.5272 9.58279 37.4667 19.3766 37.4667Z" fill="#FF6D3B"/>
<path d="M27.8667 17.9221C27.8667 17.0481 28.576 17.2128 29.4627 17.2128C30.3494 17.2128 31.0587 17.0481 31.0587 17.9221C31.0587 18.7961 30.3494 19.5181 29.4627 19.5181C28.576 19.5181 27.8667 18.8088 27.8667 17.9221Z" fill="#333333"/>
<path d="M26.4222 16.7769C27.1429 16.7769 27.7272 16.1801 27.7272 15.444C27.7272 14.7078 27.1429 14.1111 26.4222 14.1111C25.7015 14.1111 25.1172 14.7078 25.1172 15.444C25.1172 16.1801 25.7015 16.7769 26.4222 16.7769Z" fill="#333333"/>
<path d="M31.5618 16.5137C32.2826 16.5137 32.8668 15.9169 32.8668 15.1808C32.8668 14.4447 32.2826 13.8479 31.5618 13.8479C30.8411 13.8479 30.2568 14.4447 30.2568 15.1808C30.2568 15.9169 30.8411 16.5137 31.5618 16.5137Z" fill="#333333"/>
<path d="M5.78495 27.7804C6.44644 27.637 6.86955 26.9765 6.72999 26.3054C6.59043 25.6342 5.94105 25.2064 5.27956 25.3499L1.19782 26.2353C0.536328 26.3788 0.11322 27.0392 0.252779 27.7103C0.392338 28.3815 1.04172 28.8093 1.70321 28.6658L5.78495 27.7804Z" fill="#FF6D3B"/>
<path d="M34.7073 22.5394C34.0512 22.7068 33.6514 23.3822 33.8142 24.0479C33.9771 24.7135 34.641 25.1174 35.297 24.95L39.3453 23.9168C40.0014 23.7493 40.4012 23.0739 40.2384 22.4083C40.0755 21.7426 39.4116 21.3387 38.7556 21.5061L34.7073 22.5394Z" fill="#FF6D3B"/>
<path d="M37.8254 22.8754C37.9257 23.5585 38.5455 24.0297 39.2099 23.9279C39.8743 23.8262 40.3315 23.1899 40.2312 22.5069L39.9229 20.4076C39.8226 19.7246 39.2028 19.2533 38.5384 19.3551C37.874 19.4569 37.4168 20.0931 37.5171 20.7762L37.8254 22.8754Z" fill="#FF6D3B"/>
</svg>
