<svg width="321" height="144" viewBox="0 0 321 144" fill="none" xmlns="http://www.w3.org/2000/svg">
<path d="M1.672 123.803H8.503V123.066H2.574V119.469H1.672V123.803ZM9.526 127.114V126.366H0.572V127.114H9.526ZM18.7981 124.452V118.611H17.8961V124.452H18.7981ZM16.7961 123.66L16.6971 122.934C15.1351 123.198 13.8591 123.242 12.0991 123.242V121.878H15.6741V119.194H11.1861V119.931H14.7831V121.185H11.2191V123.979H12.0111C13.8261 123.979 15.1901 123.924 16.7961 123.66ZM18.7981 125.002H12.4181V128.335H18.7981V125.002ZM17.9181 127.609H13.2981V125.717H17.9181V127.609Z" fill="#999999"/>
<path d="M8.437 17.556H9.757V16.797H8.437V12.947H7.546V22.814H8.437V17.556ZM3.498 13.871H2.75V16.401H1.54V13.871H0.77V20.427H3.498V13.871ZM6.71 13.871H5.951V16.401H4.785V13.871H4.026V20.427H6.71V13.871ZM1.54 17.127H2.75V19.69H1.54V17.127ZM4.785 17.127H5.951V19.69H4.785V17.127ZM11.8241 13.893H17.6101V14.85H11.8461V17.193H18.7101V16.489H12.7371V15.521H18.5011V13.2H11.8241V13.893ZM19.6451 18.766V18.04H10.7021V18.766H19.6451ZM18.5121 19.679H11.9011V22.682H18.5121V19.679ZM17.6211 21.956H12.7811V20.394H17.6211V21.956Z" fill="#999999"/>
<path d="M24.6685 55H320" stroke="#EBEBEB" stroke-dasharray="2 3"/>
<path d="M24.6685 89.667H320" stroke="#EBEBEB" stroke-dasharray="2 3"/>
<path d="M24.6685 20.3643H320" stroke="#EBEBEB" stroke-dasharray="2 3"/>
<path d="M24.6685 124.333H320" stroke="#EBEBEB"/>
<path d="M38.786 141V140.186H37.202V132.893H36.399L34.232 134.763L34.771 135.412L36.234 134.103C36.223 134.18 36.223 134.279 36.223 134.378V140.186H34.43V141H38.786ZM41.0157 140.12H40.0147V141.154H41.0157V140.12ZM48.3469 136.985C48.3469 134.114 47.0489 132.805 45.3879 132.805C43.7159 132.805 42.4289 134.114 42.4289 136.985C42.4289 139.845 43.7159 141.154 45.3879 141.154C47.0489 141.154 48.3469 139.845 48.3469 136.985ZM47.3349 136.985C47.3349 139.493 46.4109 140.34 45.3879 140.34C44.3649 140.34 43.4519 139.493 43.4519 136.985C43.4519 134.466 44.3649 133.63 45.3879 133.63C46.4109 133.63 47.3349 134.466 47.3349 136.985Z" fill="#999999"/>
<path d="M62.786 141V140.186H61.202V132.893H60.399L58.232 134.763L58.771 135.412L60.234 134.103C60.223 134.18 60.223 134.279 60.223 134.378V140.186H58.43V141H62.786ZM65.0157 140.12H64.0147V141.154H65.0157V140.12ZM68.1889 135.94L68.5519 133.828H71.7089V132.904H67.8479L67.1879 136.721L67.8369 136.908C68.3099 136.743 68.7279 136.644 69.1569 136.644C70.3119 136.644 70.9939 137.26 70.9939 138.316C70.9939 139.504 70.1909 140.197 69.0799 140.197C68.4199 140.197 67.7819 139.9 67.2979 139.493L66.7589 140.23C67.2539 140.703 68.0679 141.099 69.0359 141.099C70.6749 141.099 71.9619 139.977 71.9619 138.261C71.9619 136.853 71.0489 135.797 69.3439 135.797C68.9479 135.797 68.5629 135.841 68.1889 135.94Z" fill="#999999"/>
<path d="M86.995 141V140.109H83.816C83.541 140.109 83.211 140.153 82.903 140.241L85.158 138.008C86.071 137.095 86.841 136.259 86.841 135.06C86.841 133.63 85.774 132.794 84.399 132.794C83.024 132.794 81.957 133.597 81.748 135.082L82.738 135.247C82.738 134.323 83.42 133.663 84.344 133.663C85.18 133.663 85.796 134.114 85.829 135.082C85.829 136.028 85.213 136.721 84.366 137.623L81.583 140.296V141H86.995ZM89.0157 140.12H88.0147V141.154H89.0157V140.12ZM96.3469 136.985C96.3469 134.114 95.0489 132.805 93.3879 132.805C91.7159 132.805 90.4289 134.114 90.4289 136.985C90.4289 139.845 91.7159 141.154 93.3879 141.154C95.0489 141.154 96.3469 139.845 96.3469 136.985ZM95.3349 136.985C95.3349 139.493 94.4109 140.34 93.3879 140.34C92.3649 140.34 91.4519 139.493 91.4519 136.985C91.4519 134.466 92.3649 133.63 93.3879 133.63C94.4109 133.63 95.3349 134.466 95.3349 136.985Z" fill="#999999"/>
<path d="M110.995 141V140.109H107.816C107.541 140.109 107.211 140.153 106.903 140.241L109.158 138.008C110.071 137.095 110.841 136.259 110.841 135.06C110.841 133.63 109.774 132.794 108.399 132.794C107.024 132.794 105.957 133.597 105.748 135.082L106.738 135.247C106.738 134.323 107.42 133.663 108.344 133.663C109.18 133.663 109.796 134.114 109.829 135.082C109.829 136.028 109.213 136.721 108.366 137.623L105.583 140.296V141H110.995ZM113.016 140.12H112.015V141.154H113.016V140.12ZM116.189 135.94L116.552 133.828H119.709V132.904H115.848L115.188 136.721L115.837 136.908C116.31 136.743 116.728 136.644 117.157 136.644C118.312 136.644 118.994 137.26 118.994 138.316C118.994 139.504 118.191 140.197 117.08 140.197C116.42 140.197 115.782 139.9 115.298 139.493L114.759 140.23C115.254 140.703 116.068 141.099 117.036 141.099C118.675 141.099 119.962 139.977 119.962 138.261C119.962 136.853 119.049 135.797 117.344 135.797C116.948 135.797 116.563 135.841 116.189 135.94Z" fill="#999999"/>
<path d="M129.781 135.104L130.782 135.269C130.782 134.367 131.453 133.685 132.377 133.685C133.224 133.685 133.818 134.136 133.818 135.06C133.818 135.896 133.312 136.479 131.893 136.512V137.238C133.62 137.238 133.983 137.876 133.983 138.745C133.983 139.46 133.422 140.274 132.267 140.274C131.431 140.274 130.936 139.845 130.595 139.141C130.507 138.932 130.452 138.767 130.43 138.646L129.528 139.02C129.913 140.208 130.54 141.143 132.278 141.143C133.785 141.143 135.006 140.197 135.006 138.723C135.006 137.711 134.456 137.04 133.4 136.776C134.28 136.479 134.819 135.951 134.819 134.895C134.819 133.663 133.829 132.805 132.432 132.805C131.057 132.805 129.99 133.641 129.781 135.104ZM137.016 140.12H136.015V141.154H137.016V140.12ZM144.347 136.985C144.347 134.114 143.049 132.805 141.388 132.805C139.716 132.805 138.429 134.114 138.429 136.985C138.429 139.845 139.716 141.154 141.388 141.154C143.049 141.154 144.347 139.845 144.347 136.985ZM143.335 136.985C143.335 139.493 142.411 140.34 141.388 140.34C140.365 140.34 139.452 139.493 139.452 136.985C139.452 134.466 140.365 133.63 141.388 133.63C142.411 133.63 143.335 134.466 143.335 136.985Z" fill="#999999"/>
<path d="M153.781 135.104L154.782 135.269C154.782 134.367 155.453 133.685 156.377 133.685C157.224 133.685 157.818 134.136 157.818 135.06C157.818 135.896 157.312 136.479 155.893 136.512V137.238C157.62 137.238 157.983 137.876 157.983 138.745C157.983 139.46 157.422 140.274 156.267 140.274C155.431 140.274 154.936 139.845 154.595 139.141C154.507 138.932 154.452 138.767 154.43 138.646L153.528 139.02C153.913 140.208 154.54 141.143 156.278 141.143C157.785 141.143 159.006 140.197 159.006 138.723C159.006 137.711 158.456 137.04 157.4 136.776C158.28 136.479 158.819 135.951 158.819 134.895C158.819 133.663 157.829 132.805 156.432 132.805C155.057 132.805 153.99 133.641 153.781 135.104ZM161.016 140.12H160.015V141.154H161.016V140.12ZM164.189 135.94L164.552 133.828H167.709V132.904H163.848L163.188 136.721L163.837 136.908C164.31 136.743 164.728 136.644 165.157 136.644C166.312 136.644 166.994 137.26 166.994 138.316C166.994 139.504 166.191 140.197 165.08 140.197C164.42 140.197 163.782 139.9 163.298 139.493L162.759 140.23C163.254 140.703 164.068 141.099 165.036 141.099C166.675 141.099 167.962 139.977 167.962 138.261C167.962 136.853 167.049 135.797 165.344 135.797C164.948 135.797 164.563 135.841 164.189 135.94Z" fill="#999999"/>
<path d="M183.38 138.855V138.063H182.159V132.849H181.213L177.242 138.107V138.855H181.268V141H182.159V138.855H183.38ZM181.268 134.697V138.063H178.342L181.312 134.015C181.279 134.246 181.268 134.51 181.268 134.697ZM185.016 140.12H184.015V141.154H185.016V140.12ZM192.347 136.985C192.347 134.114 191.049 132.805 189.388 132.805C187.716 132.805 186.429 134.114 186.429 136.985C186.429 139.845 187.716 141.154 189.388 141.154C191.049 141.154 192.347 139.845 192.347 136.985ZM191.335 136.985C191.335 139.493 190.411 140.34 189.388 140.34C188.365 140.34 187.452 139.493 187.452 136.985C187.452 134.466 188.365 133.63 189.388 133.63C190.411 133.63 191.335 134.466 191.335 136.985Z" fill="#999999"/>
<path d="M207.38 138.855V138.063H206.159V132.849H205.213L201.242 138.107V138.855H205.268V141H206.159V138.855H207.38ZM205.268 134.697V138.063H202.342L205.312 134.015C205.279 134.246 205.268 134.51 205.268 134.697ZM209.016 140.12H208.015V141.154H209.016V140.12ZM212.189 135.94L212.552 133.828H215.709V132.904H211.848L211.188 136.721L211.837 136.908C212.31 136.743 212.728 136.644 213.157 136.644C214.312 136.644 214.994 137.26 214.994 138.316C214.994 139.504 214.191 140.197 213.08 140.197C212.42 140.197 211.782 139.9 211.298 139.493L210.759 140.23C211.254 140.703 212.068 141.099 213.036 141.099C214.675 141.099 215.962 139.977 215.962 138.261C215.962 136.853 215.049 135.797 213.344 135.797C212.948 135.797 212.563 135.841 212.189 135.94Z" fill="#999999"/>
<path d="M227.101 135.94L227.464 133.828H230.621V132.904H226.76L226.1 136.721L226.749 136.908C227.222 136.743 227.64 136.644 228.069 136.644C229.224 136.644 229.906 137.26 229.906 138.316C229.906 139.504 229.103 140.197 227.992 140.197C227.332 140.197 226.694 139.9 226.21 139.493L225.671 140.23C226.166 140.703 226.98 141.099 227.948 141.099C229.587 141.099 230.874 139.977 230.874 138.261C230.874 136.853 229.961 135.797 228.256 135.797C227.86 135.797 227.475 135.841 227.101 135.94ZM233.016 140.12H232.015V141.154H233.016V140.12ZM240.347 136.985C240.347 134.114 239.049 132.805 237.388 132.805C235.716 132.805 234.429 134.114 234.429 136.985C234.429 139.845 235.716 141.154 237.388 141.154C239.049 141.154 240.347 139.845 240.347 136.985ZM239.335 136.985C239.335 139.493 238.411 140.34 237.388 140.34C236.365 140.34 235.452 139.493 235.452 136.985C235.452 134.466 236.365 133.63 237.388 133.63C238.411 133.63 239.335 134.466 239.335 136.985Z" fill="#999999"/>
<path d="M251.101 135.94L251.464 133.828H254.621V132.904H250.76L250.1 136.721L250.749 136.908C251.222 136.743 251.64 136.644 252.069 136.644C253.224 136.644 253.906 137.26 253.906 138.316C253.906 139.504 253.103 140.197 251.992 140.197C251.332 140.197 250.694 139.9 250.21 139.493L249.671 140.23C250.166 140.703 250.98 141.099 251.948 141.099C253.587 141.099 254.874 139.977 254.874 138.261C254.874 136.853 253.961 135.797 252.256 135.797C251.86 135.797 251.475 135.841 251.101 135.94ZM257.016 140.12H256.015V141.154H257.016V140.12ZM260.189 135.94L260.552 133.828H263.709V132.904H259.848L259.188 136.721L259.837 136.908C260.31 136.743 260.728 136.644 261.157 136.644C262.312 136.644 262.994 137.26 262.994 138.316C262.994 139.504 262.191 140.197 261.08 140.197C260.42 140.197 259.782 139.9 259.298 139.493L258.759 140.23C259.254 140.703 260.068 141.099 261.036 141.099C262.675 141.099 263.962 139.977 263.962 138.261C263.962 136.853 263.049 135.797 261.344 135.797C260.948 135.797 260.563 135.841 260.189 135.94Z" fill="#999999"/>
<path d="M275.651 135.94L278.082 132.893H276.817L274.573 135.918C273.869 136.842 273.572 137.656 273.572 138.371C273.572 140.043 274.639 141.143 276.278 141.143C277.928 141.143 279.072 139.977 279.072 138.481C279.072 136.93 277.972 136.05 276.652 136.05C276.113 136.05 275.662 136.204 275.266 136.468C275.343 136.38 275.464 136.204 275.651 135.94ZM276.256 140.296C275.156 140.296 274.551 139.592 274.551 138.536C274.551 137.623 275.244 136.831 276.322 136.831C277.323 136.831 278.06 137.491 278.06 138.558C278.06 139.559 277.323 140.296 276.256 140.296ZM281.016 140.12H280.015V141.154H281.016V140.12ZM288.347 136.985C288.347 134.114 287.049 132.805 285.388 132.805C283.716 132.805 282.429 134.114 282.429 136.985C282.429 139.845 283.716 141.154 285.388 141.154C287.049 141.154 288.347 139.845 288.347 136.985ZM287.335 136.985C287.335 139.493 286.411 140.34 285.388 140.34C284.365 140.34 283.452 139.493 283.452 136.985C283.452 134.466 284.365 133.63 285.388 133.63C286.411 133.63 287.335 134.466 287.335 136.985Z" fill="#999999"/>
<path d="M299.651 135.94L302.082 132.893H300.817L298.573 135.918C297.869 136.842 297.572 137.656 297.572 138.371C297.572 140.043 298.639 141.143 300.278 141.143C301.928 141.143 303.072 139.977 303.072 138.481C303.072 136.93 301.972 136.05 300.652 136.05C300.113 136.05 299.662 136.204 299.266 136.468C299.343 136.38 299.464 136.204 299.651 135.94ZM300.256 140.296C299.156 140.296 298.551 139.592 298.551 138.536C298.551 137.623 299.244 136.831 300.322 136.831C301.323 136.831 302.06 137.491 302.06 138.558C302.06 139.559 301.323 140.296 300.256 140.296ZM305.016 140.12H304.015V141.154H305.016V140.12ZM308.189 135.94L308.552 133.828H311.709V132.904H307.848L307.188 136.721L307.837 136.908C308.31 136.743 308.728 136.644 309.157 136.644C310.312 136.644 310.994 137.26 310.994 138.316C310.994 139.504 310.191 140.197 309.08 140.197C308.42 140.197 307.782 139.9 307.298 139.493L306.759 140.23C307.254 140.703 308.068 141.099 309.036 141.099C310.675 141.099 311.962 139.977 311.962 138.261C311.962 136.853 311.049 135.797 309.344 135.797C308.948 135.797 308.563 135.841 308.189 135.94Z" fill="#999999"/>
<path d="M160.716 77.2741L41 118.818" stroke="#FF6D3B" stroke-width="3"/>
<path d="M209.415 60.3748L160.717 77.2739" stroke="#FABF48" stroke-width="3"/>
<path d="M258.112 43.4758L209.414 60.375" stroke="#62B22F" stroke-width="3"/>
<path d="M306.811 26.5769L258.113 43.4761" stroke="#1E76FC" stroke-width="3"/>
<path d="M320 21.9998L306.811 26.5767" stroke="#6967F9" stroke-width="3"/>
<mask id="mask0_317_4069" style="mask-type:alpha" maskUnits="userSpaceOnUse" x="223" y="42" width="48" height="83">
<path d="M270.5 124.5L223 124.5L223 59L270.5 42L270.5 124.5Z" fill="#D9D9D9"/>
</mask>
<g mask="url(#mask0_317_4069)">
<path d="M190.992 61.3101L275.146 31.8315" stroke="#F5F5F5"/>
<path d="M190 58.4785L274.154 28.9999" stroke="#F5F5F5"/>
<path d="M191.984 64.1411L276.137 34.6625" stroke="#F5F5F5"/>
<path d="M192.976 66.9727L277.129 37.494" stroke="#F5F5F5"/>
<path d="M193.967 69.8037L278.121 40.3251" stroke="#F5F5F5"/>
<path d="M194.959 72.6353L279.113 43.1566" stroke="#F5F5F5"/>
<path d="M195.951 75.4663L280.104 45.9877" stroke="#F5F5F5"/>
<path d="M196.943 78.2979L281.096 48.8192" stroke="#F5F5F5"/>
<path d="M197.934 81.1289L282.088 51.6503" stroke="#F5F5F5"/>
<path d="M198.926 83.9604L283.08 54.4818" stroke="#F5F5F5"/>
<path d="M199.918 86.7915L284.072 57.3129" stroke="#F5F5F5"/>
<path d="M200.91 89.623L285.063 60.1444" stroke="#F5F5F5"/>
<path d="M201.902 92.4541L286.055 62.9755" stroke="#F5F5F5"/>
<path d="M202.894 95.2856L287.047 65.807" stroke="#F5F5F5"/>
<path d="M203.885 98.1167L288.039 68.6381" stroke="#F5F5F5"/>
<path d="M204.877 100.948L289.03 71.4696" stroke="#F5F5F5"/>
<path d="M205.869 103.779L290.022 74.3007" stroke="#F5F5F5"/>
<path d="M206.861 106.611L291.014 77.1322" stroke="#F5F5F5"/>
<path d="M207.853 109.442L292.006 79.9633" stroke="#F5F5F5"/>
<path d="M208.844 112.273L292.998 82.7948" stroke="#F5F5F5"/>
<path d="M209.836 115.105L293.99 85.6264" stroke="#F5F5F5"/>
<path d="M210.828 117.936L294.981 88.4574" stroke="#F5F5F5"/>
<path d="M211.82 120.768L295.973 91.289" stroke="#F5F5F5"/>
<path d="M212.812 123.599L296.965 94.12" stroke="#F5F5F5"/>
<path d="M213.803 126.43L297.957 96.9516" stroke="#F5F5F5"/>
<path d="M214.795 129.261L298.949 99.7826" stroke="#F5F5F5"/>
<path d="M215.787 132.093L299.94 102.614" stroke="#F5F5F5"/>
<path d="M216.779 134.924L300.932 105.445" stroke="#F5F5F5"/>
<path d="M217.771 137.755L301.924 108.277" stroke="#F5F5F5"/>
<path d="M218.762 140.586L302.916 111.108" stroke="#F5F5F5"/>
<path d="M219.754 143.418L303.907 113.939" stroke="#F5F5F5"/>
<path d="M220.746 146.249L304.899 116.77" stroke="#F5F5F5"/>
</g>
<path d="M242.168 69.22L244.508 69.22L244.508 72.496L245.504 72.496L245.504 66.136L244.508 66.136L244.508 68.416L242.168 68.416L242.168 69.22ZM242.42 71.992L242.948 71.224C241.364 70.672 240.332 69.328 240.332 67.804L240.332 66.736L239.348 66.736L239.348 67.84C239.348 69.472 238.292 70.936 236.624 71.512L237.14 72.316C238.436 71.824 239.396 70.876 239.864 69.58C240.332 70.696 241.22 71.548 242.42 71.992ZM241.952 72.82C239.744 72.82 238.364 73.552 238.364 74.848C238.364 76.132 239.744 76.876 241.952 76.876C244.16 76.876 245.528 76.132 245.528 74.848C245.528 73.552 244.16 72.82 241.952 72.82ZM241.952 76.096C240.308 76.096 239.348 75.628 239.348 74.848C239.348 74.032 240.308 73.588 241.952 73.588C243.596 73.588 244.556 74.032 244.556 74.848C244.556 75.628 243.596 76.096 241.952 76.096ZM255.283 73.996L256.267 73.996L256.267 66.136L255.283 66.136L255.283 73.996ZM253.303 69.52C253.303 67.972 252.079 66.88 250.483 66.88C248.887 66.88 247.687 67.972 247.687 69.52C247.687 71.08 248.887 72.184 250.483 72.184C252.079 72.184 253.303 71.08 253.303 69.52ZM248.647 69.52C248.647 68.476 249.427 67.732 250.483 67.732C251.551 67.732 252.343 68.476 252.343 69.52C252.343 70.588 251.551 71.332 250.483 71.332C249.427 71.332 248.647 70.588 248.647 69.52ZM256.591 76.648L256.591 75.844L250.327 75.844L250.327 73.192L249.343 73.192L249.343 76.648L256.591 76.648ZM244.988 85.412L246.584 85.412L246.584 84.596L244.988 84.596L244.988 82.124L244.004 82.124L244.004 88.208L244.988 88.208L244.988 85.412ZM243.032 86.912L242.912 86.108C241.172 86.444 239.684 86.552 238.136 86.564L238.136 82.664L237.164 82.664L237.164 87.392L238.004 87.392C239.636 87.392 241.196 87.284 243.032 86.912ZM244.988 88.796L238.208 88.796L238.208 92.732L244.988 92.732L244.988 88.796ZM244.028 91.94L239.168 91.94L239.168 89.588L244.028 89.588L244.028 91.94ZM256.303 92.9L256.303 82.124L255.319 82.124L255.319 84.632L252.103 84.632L252.103 85.436L255.319 85.436L255.319 87.08L252.103 87.08L252.103 87.884L255.319 87.884L255.319 92.9L256.303 92.9ZM249.007 89.576L249.007 83.312L248.023 83.312L248.023 90.404L248.839 90.404C250.699 90.404 252.067 90.332 253.627 90.008L253.519 89.192C252.043 89.48 250.723 89.576 249.007 89.576ZM242.732 102.78L244.508 102.78L244.508 104.76L245.504 104.76L245.504 98.136L244.508 98.136L244.508 100.044L242.732 100.044L242.732 100.848L244.508 100.848L244.508 101.976L242.732 101.976L242.732 102.78ZM243.02 103.764L242.96 103.032C242.516 103.092 242.036 103.14 241.556 103.176L241.556 99.732L242.624 99.732L242.624 98.94L236.96 98.94L236.96 99.732L238.028 99.732L238.028 103.296C237.788 103.308 237.56 103.308 237.332 103.308L236.672 103.308L236.78 104.124C238.52 104.124 240.944 104.088 243.02 103.764ZM238.976 103.284L238.976 99.732L240.596 99.732L240.596 103.224C240.056 103.26 239.504 103.272 238.976 103.284ZM241.952 104.988C239.684 104.988 238.364 105.672 238.364 106.92C238.364 108.168 239.684 108.876 241.952 108.876C244.172 108.876 245.528 108.168 245.528 106.92C245.528 105.672 244.172 104.988 241.952 104.988ZM241.952 108.108C240.308 108.108 239.348 107.688 239.348 106.92C239.348 106.188 240.308 105.744 241.952 105.744C243.596 105.744 244.556 106.188 244.556 106.92C244.556 107.688 243.596 108.108 241.952 108.108ZM257.203 103.548L257.203 102.744L255.691 102.744C255.943 101.4 255.943 100.392 255.943 99.516L255.943 98.7L248.659 98.7L248.659 99.504L254.971 99.504L254.971 99.516C254.971 100.392 254.983 101.388 254.707 102.744L247.435 102.744L247.435 103.548L250.675 103.548L250.675 106.14L251.635 106.14L251.635 103.548L253.531 103.548L253.531 106.14L254.491 106.14L254.491 103.548L257.203 103.548ZM256.231 107.844L249.595 107.844L249.595 105.276L248.623 105.276L248.623 108.648L256.231 108.648L256.231 107.844Z" fill="#C7C7CF"/>
<path fill-rule="evenodd" clip-rule="evenodd" d="M267 0C259.82 0 254 5.8203 254 13C254 20.1797 259.82 26 267 26H276.959L281 33L285.041 26H295C302.18 26 308 20.1797 308 13C308 5.8203 302.18 0 295 0H267Z" fill="black"/>
<path d="M266.644 10.008H273.244V10.392C273.244 12.024 273.172 13.44 272.872 15.06L273.844 15.18C274.228 13.164 274.228 11.76 274.228 10.392V9.204H266.644V10.008ZM275.368 17.376V16.572H271.66V13.008H270.688V16.572H268.996V13.008H268.024V16.572H265.636V17.376H275.368ZM281.295 12.492C283.623 12.492 285.075 11.736 285.075 10.44C285.075 9.144 283.623 8.376 281.295 8.376C278.979 8.376 277.515 9.144 277.515 10.44C277.515 11.736 278.979 12.492 281.295 12.492ZM281.295 9.156C283.035 9.156 284.067 9.624 284.067 10.44C284.067 11.256 283.035 11.724 281.295 11.724C279.555 11.724 278.523 11.256 278.523 10.44C278.523 9.624 279.555 9.156 281.295 9.156ZM283.599 15.468V14.1H286.167V13.308H276.435V14.1H279.003V15.468H277.515V16.26H283.983V18.9H284.967V15.468H283.599ZM279.987 14.1H282.615V15.468H279.987V14.1ZM293.066 14.424H294.002V11.82H295.37V14.772H296.318V8.136H295.37V11.016H294.002V8.34H293.066V14.424ZM292.094 13.932L292.622 13.176C291.242 12.66 290.438 11.424 290.438 10.248V8.796H289.49V10.248C289.49 11.436 288.638 12.864 287.246 13.464L287.774 14.232C288.83 13.764 289.586 12.852 289.97 11.844C290.354 12.756 291.086 13.512 292.094 13.932ZM292.766 15.012C290.558 15.012 289.178 15.732 289.178 16.944C289.178 18.156 290.558 18.876 292.766 18.876C294.974 18.876 296.366 18.156 296.366 16.944C296.366 15.732 294.974 15.012 292.766 15.012ZM292.766 18.12C291.122 18.12 290.15 17.712 290.15 16.944C290.15 16.176 291.122 15.78 292.766 15.78C294.41 15.78 295.394 16.176 295.394 16.944C295.394 17.712 294.41 18.12 292.766 18.12Z" fill="white"/>
<circle cx="281" cy="35" r="3" fill="black"/>
<circle cx="281" cy="35" r="5" fill="black" fill-opacity="0.1"/>
<circle cx="281" cy="35" r="2" fill="white"/>
</svg>
