<svg width="319" height="42" viewBox="0 0 319 42" fill="none" xmlns="http://www.w3.org/2000/svg">
<path d="M17.168 14.156C18.728 14.156 19.988 13.22 19.988 11.648C19.988 10.448 19.16 9.656 18.128 9.416V9.368C19.052 9.02 19.688 8.312 19.688 7.244C19.688 5.852 18.608 5.036 17.132 5.036C16.112 5.036 15.332 5.48 14.672 6.092L15.26 6.788C15.752 6.284 16.376 5.936 17.084 5.936C17.996 5.936 18.572 6.488 18.572 7.328C18.572 8.276 17.948 9.008 16.136 9.008V9.848C18.164 9.848 18.872 10.556 18.872 11.6C18.872 12.62 18.128 13.244 17.084 13.244C16.088 13.244 15.416 12.776 14.9 12.236L14.348 12.956C14.924 13.58 15.788 14.156 17.168 14.156ZM22.0843 14.156C22.5163 14.156 22.8763 13.82 22.8763 13.328C22.8763 12.824 22.5163 12.476 22.0843 12.476C21.6523 12.476 21.2923 12.824 21.2923 13.328C21.2923 13.82 21.6523 14.156 22.0843 14.156ZM26.6481 14.156C28.1361 14.156 29.5281 13.064 29.5281 11.132C29.5281 9.2 28.3401 8.336 26.8761 8.336C26.3481 8.336 25.9641 8.468 25.5681 8.684L25.7841 6.14H29.1081V5.192H24.8241L24.5481 9.32L25.1361 9.68C25.6401 9.344 26.0121 9.164 26.6001 9.164C27.7041 9.164 28.4241 9.908 28.4241 11.168C28.4241 12.452 27.5841 13.244 26.5521 13.244C25.5321 13.244 24.8961 12.776 24.3921 12.272L23.8521 12.992C24.4401 13.58 25.2801 14.156 26.6481 14.156ZM40.8359 4.124V14.912H41.8199V4.124H40.8359ZM36.1439 4.952C34.5479 4.952 33.4079 6.416 33.4079 8.708C33.4079 11 34.5479 12.464 36.1439 12.464C37.7399 12.464 38.8799 11 38.8799 8.708C38.8799 6.416 37.7399 4.952 36.1439 4.952ZM36.1439 5.84C37.1879 5.84 37.9319 6.968 37.9319 8.708C37.9319 10.46 37.1879 11.588 36.1439 11.588C35.0879 11.588 34.3439 10.46 34.3439 8.708C34.3439 6.968 35.0879 5.84 36.1439 5.84ZM46.967 11.672C45.995 11.672 45.287 10.976 45.287 10.016C45.287 9.044 45.995 8.348 46.967 8.348C47.951 8.348 48.659 9.044 48.659 10.016C48.659 10.976 47.951 11.672 46.967 11.672ZM46.967 7.532C45.455 7.532 44.363 8.564 44.363 10.016C44.363 11.48 45.455 12.488 46.967 12.488C48.503 12.488 49.595 11.48 49.595 10.016C49.595 8.564 48.503 7.532 46.967 7.532ZM47.447 4.256H46.463V5.852H43.751V6.644H50.099V5.852H47.447V4.256ZM53.867 8.552H52.103V4.136H51.119V14.888H52.103V9.38H53.867V8.552ZM65.6937 8.996H59.2257V5.072H58.2417V9.8H65.6937V8.996ZM57.0417 12.596V13.412H66.8097V12.596H57.0417ZM74.3927 8.852C72.6887 9.128 71.2847 9.188 69.3767 9.188V7.7H73.2767V4.772H68.3807V5.576H72.3047V6.944H68.4167V9.992H69.2807C71.2727 9.992 72.7367 9.932 74.5007 9.644L74.3927 8.852ZM70.6847 11.888H75.7247V13.952H70.6847V11.888ZM69.7247 14.744H76.6847V11.108H69.7247V14.744ZM75.7007 4.136V10.508H76.6847V4.136H75.7007Z" fill="#999999"/>
<rect y="5" width="8" height="8" rx="4" fill="#FF6D3B"/>
<path d="M17.168 39.156C18.728 39.156 19.988 38.22 19.988 36.648C19.988 35.448 19.16 34.656 18.128 34.416V34.368C19.052 34.02 19.688 33.312 19.688 32.244C19.688 30.852 18.608 30.036 17.132 30.036C16.112 30.036 15.332 30.48 14.672 31.092L15.26 31.788C15.752 31.284 16.376 30.936 17.084 30.936C17.996 30.936 18.572 31.488 18.572 32.328C18.572 33.276 17.948 34.008 16.136 34.008V34.848C18.164 34.848 18.872 35.556 18.872 36.6C18.872 37.62 18.128 38.244 17.084 38.244C16.088 38.244 15.416 37.776 14.9 37.236L14.348 37.956C14.924 38.58 15.788 39.156 17.168 39.156ZM22.0843 39.156C22.5163 39.156 22.8763 38.82 22.8763 38.328C22.8763 37.824 22.5163 37.476 22.0843 37.476C21.6523 37.476 21.2923 37.824 21.2923 38.328C21.2923 38.82 21.6523 39.156 22.0843 39.156ZM26.6481 39.156C28.1361 39.156 29.5281 38.064 29.5281 36.132C29.5281 34.2 28.3401 33.336 26.8761 33.336C26.3481 33.336 25.9641 33.468 25.5681 33.684L25.7841 31.14H29.1081V30.192H24.8241L24.5481 34.32L25.1361 34.68C25.6401 34.344 26.0121 34.164 26.6001 34.164C27.7041 34.164 28.4241 34.908 28.4241 36.168C28.4241 37.452 27.5841 38.244 26.5521 38.244C25.5321 38.244 24.8961 37.776 24.3921 37.272L23.8521 37.992C24.4401 38.58 25.2801 39.156 26.6481 39.156ZM30.4843 36.06H33.5563V35.22H30.4843V36.06ZM35.2325 35.7L37.2365 32.7C37.4885 32.268 37.7285 31.836 37.9445 31.404H37.9925C37.9685 31.86 37.9325 32.568 37.9325 33V35.7H35.2325ZM37.9325 39H38.9645V36.576H40.1285V35.7H38.9645V30.192H37.7525L34.0925 35.856V36.576H37.9325V39ZM41.9367 39.156C42.3687 39.156 42.7287 38.82 42.7287 38.328C42.7287 37.824 42.3687 37.476 41.9367 37.476C41.5047 37.476 41.1447 37.824 41.1447 38.328C41.1447 38.82 41.5047 39.156 41.9367 39.156ZM46.5006 39.156C47.9886 39.156 49.3806 38.064 49.3806 36.132C49.3806 34.2 48.1926 33.336 46.7286 33.336C46.2006 33.336 45.8166 33.468 45.4206 33.684L45.6366 31.14H48.9606V30.192H44.6766L44.4006 34.32L44.9886 34.68C45.4926 34.344 45.8646 34.164 46.4526 34.164C47.5566 34.164 48.2766 34.908 48.2766 36.168C48.2766 37.452 47.4366 38.244 46.4046 38.244C45.3846 38.244 44.7486 37.776 44.2446 37.272L43.7046 37.992C44.2926 38.58 45.1326 39.156 46.5006 39.156ZM54.3044 30.972H58.3244V30.156H53.3204V37.224H54.1724C56.2004 37.224 57.6164 37.152 59.2604 36.84L59.1524 36.024C57.5924 36.3 56.2124 36.384 54.3044 36.384V30.972ZM62.9204 33.372H61.1444V29.124H60.1604V39.912H61.1444V34.188H62.9204V33.372ZM72.9515 34.38C71.0675 34.044 69.0155 32.46 69.0155 30.672V29.844H67.9835V30.672C67.9835 32.46 65.9435 34.044 64.0595 34.38L64.4675 35.196C66.1235 34.848 67.8035 33.732 68.4995 32.196C69.1955 33.732 70.8875 34.848 72.5315 35.196L72.9515 34.38ZM68.9915 37.68V35.064H68.0075V37.68H63.6635V38.484H73.4315V37.68H68.9915ZM85.5462 33.996H79.0782V30.072H78.0942V34.8H85.5462V33.996ZM76.8942 37.596V38.412H86.6622V37.596H76.8942ZM94.2452 33.852C92.5412 34.128 91.1372 34.188 89.2292 34.188V32.7H93.1292V29.772H88.2332V30.576H92.1572V31.944H88.2692V34.992H89.1332C91.1252 34.992 92.5892 34.932 94.3532 34.644L94.2452 33.852ZM90.5372 36.888H95.5772V38.952H90.5372V36.888ZM89.5772 39.744H96.5372V36.108H89.5772V39.744ZM95.5532 29.136V35.508H96.5372V29.136H95.5532Z" fill="#999999"/>
<rect y="30" width="8" height="8" rx="4" fill="#FABF48"/>
<path d="M135.38 10.7L137.384 7.7C137.636 7.268 137.876 6.836 138.092 6.404H138.14C138.116 6.86 138.08 7.568 138.08 8V10.7H135.38ZM138.08 14H139.112V11.576H140.276V10.7H139.112V5.192H137.9L134.24 10.856V11.576H138.08V14ZM142.084 14.156C142.516 14.156 142.876 13.82 142.876 13.328C142.876 12.824 142.516 12.476 142.084 12.476C141.652 12.476 141.292 12.824 141.292 13.328C141.292 13.82 141.652 14.156 142.084 14.156ZM146.648 14.156C148.136 14.156 149.528 13.064 149.528 11.132C149.528 9.2 148.34 8.336 146.876 8.336C146.348 8.336 145.964 8.468 145.568 8.684L145.784 6.14H149.108V5.192H144.824L144.548 9.32L145.136 9.68C145.64 9.344 146.012 9.164 146.6 9.164C147.704 9.164 148.424 9.908 148.424 11.168C148.424 12.452 147.584 13.244 146.552 13.244C145.532 13.244 144.896 12.776 144.392 12.272L143.852 12.992C144.44 13.58 145.28 14.156 146.648 14.156ZM150.484 11.06H153.556V10.22H150.484V11.06ZM156.985 14.156C158.473 14.156 159.865 13.064 159.865 11.132C159.865 9.2 158.677 8.336 157.213 8.336C156.685 8.336 156.301 8.468 155.905 8.684L156.121 6.14H159.445V5.192H155.161L154.885 9.32L155.473 9.68C155.977 9.344 156.349 9.164 156.937 9.164C158.041 9.164 158.761 9.908 158.761 11.168C158.761 12.452 157.921 13.244 156.889 13.244C155.869 13.244 155.233 12.776 154.729 12.272L154.189 12.992C154.777 13.58 155.617 14.156 156.985 14.156ZM161.937 14.156C162.369 14.156 162.729 13.82 162.729 13.328C162.729 12.824 162.369 12.476 161.937 12.476C161.505 12.476 161.145 12.824 161.145 13.328C161.145 13.82 161.505 14.156 161.937 14.156ZM166.501 14.156C167.989 14.156 169.381 13.064 169.381 11.132C169.381 9.2 168.193 8.336 166.729 8.336C166.201 8.336 165.817 8.468 165.421 8.684L165.637 6.14H168.961V5.192H164.677L164.401 9.32L164.989 9.68C165.493 9.344 165.865 9.164 166.453 9.164C167.557 9.164 168.277 9.908 168.277 11.168C168.277 12.452 167.437 13.244 166.405 13.244C165.385 13.244 164.749 12.776 164.245 12.272L163.705 12.992C164.293 13.58 165.133 14.156 166.501 14.156ZM174.988 7.616H180.484V9.596H174.988V7.616ZM178.228 12.704V10.388H181.444V4.892H180.484V6.812H174.988V4.892H174.016V10.388H177.232V12.704H172.864V13.508H182.62V12.704H178.228ZM188.524 14.132C186.796 14.132 185.824 13.796 185.824 13.148C185.824 12.512 186.796 12.164 188.524 12.164C190.264 12.164 191.224 12.512 191.224 13.148C191.224 13.796 190.264 14.132 188.524 14.132ZM188.524 11.432C186.184 11.432 184.84 12.032 184.84 13.148C184.84 14.276 186.184 14.876 188.524 14.876C190.864 14.876 192.208 14.276 192.208 13.148C192.208 12.032 190.864 11.432 188.524 11.432ZM189.016 9.824V8.768H192.256V8H185.92V6.944H191.908V6.2H185.92V5.204H192.196V4.436H184.936V8.768H188.032V9.824H183.652V10.616H193.396V9.824H189.016Z" fill="#999999"/>
<rect x="120" y="5" width="8" height="8" rx="4" fill="#62B22F"/>
<path d="M137.132 39.156C138.62 39.156 140.012 38.064 140.012 36.132C140.012 34.2 138.824 33.336 137.36 33.336C136.832 33.336 136.448 33.468 136.052 33.684L136.268 31.14H139.592V30.192H135.308L135.032 34.32L135.62 34.68C136.124 34.344 136.496 34.164 137.084 34.164C138.188 34.164 138.908 34.908 138.908 36.168C138.908 37.452 138.068 38.244 137.036 38.244C136.016 38.244 135.38 37.776 134.876 37.272L134.336 37.992C134.924 38.58 135.764 39.156 137.132 39.156ZM142.084 39.156C142.516 39.156 142.876 38.82 142.876 38.328C142.876 37.824 142.516 37.476 142.084 37.476C141.652 37.476 141.292 37.824 141.292 38.328C141.292 38.82 141.652 39.156 142.084 39.156ZM146.648 39.156C148.136 39.156 149.528 38.064 149.528 36.132C149.528 34.2 148.34 33.336 146.876 33.336C146.348 33.336 145.964 33.468 145.568 33.684L145.784 31.14H149.108V30.192H144.824L144.548 34.32L145.136 34.68C145.64 34.344 146.012 34.164 146.6 34.164C147.704 34.164 148.424 34.908 148.424 36.168C148.424 37.452 147.584 38.244 146.552 38.244C145.532 38.244 144.896 37.776 144.392 37.272L143.852 37.992C144.44 38.58 145.28 39.156 146.648 39.156ZM150.484 36.06H153.556V35.22H150.484V36.06ZM157.369 34.356C158.437 34.356 158.965 35.112 158.965 36.3C158.965 37.5 158.305 38.304 157.465 38.304C156.361 38.304 155.701 37.308 155.569 35.484C156.109 34.68 156.817 34.356 157.369 34.356ZM157.465 39.156C158.833 39.156 159.985 38.004 159.985 36.3C159.985 34.464 159.037 33.54 157.549 33.54C156.853 33.54 156.085 33.948 155.545 34.608C155.593 31.872 156.613 30.948 157.813 30.948C158.353 30.948 158.881 31.2 159.229 31.62L159.829 30.936C159.349 30.42 158.689 30.036 157.777 30.036C156.073 30.036 154.525 31.356 154.525 34.8C154.525 37.704 155.773 39.156 157.465 39.156ZM161.937 39.156C162.369 39.156 162.729 38.82 162.729 38.328C162.729 37.824 162.369 37.476 161.937 37.476C161.505 37.476 161.145 37.824 161.145 38.328C161.145 38.82 161.505 39.156 161.937 39.156ZM166.501 39.156C167.989 39.156 169.381 38.064 169.381 36.132C169.381 34.2 168.193 33.336 166.729 33.336C166.201 33.336 165.817 33.468 165.421 33.684L165.637 31.14H168.961V30.192H164.677L164.401 34.32L164.989 34.68C165.493 34.344 165.865 34.164 166.453 34.164C167.557 34.164 168.277 34.908 168.277 36.168C168.277 37.452 167.437 38.244 166.405 38.244C165.385 38.244 164.749 37.776 164.245 37.272L163.705 37.992C164.293 38.58 165.133 39.156 166.501 39.156ZM174.304 30.972H178.324V30.156H173.32V37.224H174.172C176.2 37.224 177.616 37.152 179.26 36.84L179.152 36.024C177.592 36.3 176.212 36.384 174.304 36.384V30.972ZM182.92 33.372H181.144V29.124H180.16V39.912H181.144V34.188H182.92V33.372ZM192.952 34.38C191.068 34.044 189.016 32.46 189.016 30.672V29.844H187.984V30.672C187.984 32.46 185.944 34.044 184.06 34.38L184.468 35.196C186.124 34.848 187.804 33.732 188.5 32.196C189.196 33.732 190.888 34.848 192.532 35.196L192.952 34.38ZM188.992 37.68V35.064H188.008V37.68H183.664V38.484H193.432V37.68H188.992ZM199.27 36.48H197.95V33.684H199.27V36.48ZM199.27 32.892H197.95V30.132H197.11V37.284H200.086V30.132H199.27V32.892ZM202.762 36.48H201.49V33.684H202.762V36.48ZM202.762 32.892H201.49V30.132H200.662V37.284H203.59V30.132H202.762V32.892ZM206.914 33.324H205.474V29.124H204.502V39.888H205.474V34.152H206.914V33.324ZM215.241 31.2H208.953V33.756H216.441V32.988H209.925V31.932H216.213V29.4H208.929V30.156H215.241V31.2ZM209.973 37.248H215.253V38.952H209.973V37.248ZM209.013 39.744H216.225V36.468H209.013V39.744ZM207.705 34.68V35.472H217.461V34.68H207.705Z" fill="#999999"/>
<rect x="120" y="30" width="8" height="8" rx="4" fill="#1E76FC"/>
<path d="M257.516 9.356C258.584 9.356 259.112 10.112 259.112 11.3C259.112 12.5 258.452 13.304 257.612 13.304C256.508 13.304 255.848 12.308 255.716 10.484C256.256 9.68 256.964 9.356 257.516 9.356ZM257.612 14.156C258.98 14.156 260.132 13.004 260.132 11.3C260.132 9.464 259.184 8.54 257.696 8.54C257 8.54 256.232 8.948 255.692 9.608C255.74 6.872 256.76 5.948 257.96 5.948C258.5 5.948 259.028 6.2 259.376 6.62L259.976 5.936C259.496 5.42 258.836 5.036 257.924 5.036C256.22 5.036 254.672 6.356 254.672 9.8C254.672 12.704 255.92 14.156 257.612 14.156ZM262.084 14.156C262.516 14.156 262.876 13.82 262.876 13.328C262.876 12.824 262.516 12.476 262.084 12.476C261.652 12.476 261.292 12.824 261.292 13.328C261.292 13.82 261.652 14.156 262.084 14.156ZM266.648 14.156C268.136 14.156 269.528 13.064 269.528 11.132C269.528 9.2 268.34 8.336 266.876 8.336C266.348 8.336 265.964 8.468 265.568 8.684L265.784 6.14H269.108V5.192H264.824L264.548 9.32L265.136 9.68C265.64 9.344 266.012 9.164 266.6 9.164C267.704 9.164 268.424 9.908 268.424 11.168C268.424 12.452 267.584 13.244 266.552 13.244C265.532 13.244 264.896 12.776 264.392 12.272L263.852 12.992C264.44 13.58 265.28 14.156 266.648 14.156ZM280.836 4.124V14.912H281.82V4.124H280.836ZM276.144 4.952C274.548 4.952 273.408 6.416 273.408 8.708C273.408 11 274.548 12.464 276.144 12.464C277.74 12.464 278.88 11 278.88 8.708C278.88 6.416 277.74 4.952 276.144 4.952ZM276.144 5.84C277.188 5.84 277.932 6.968 277.932 8.708C277.932 10.46 277.188 11.588 276.144 11.588C275.088 11.588 274.344 10.46 274.344 8.708C274.344 6.968 275.088 5.84 276.144 5.84ZM290.027 9.188C288.479 8.66 287.423 7.316 287.423 5.864V4.676H286.439V5.78C286.439 7.424 285.395 8.888 283.763 9.476L284.279 10.256C285.539 9.776 286.499 8.792 286.943 7.532C287.423 8.636 288.347 9.524 289.511 9.956L290.027 9.188ZM288.743 14.108C287.147 14.108 286.175 13.664 286.175 12.92C286.175 12.164 287.147 11.72 288.743 11.72C290.327 11.72 291.299 12.164 291.299 12.92C291.299 13.664 290.327 14.108 288.743 14.108ZM288.743 10.952C286.547 10.952 285.191 11.66 285.191 12.92C285.191 14.168 286.547 14.876 288.743 14.876C290.927 14.876 292.283 14.168 292.283 12.92C292.283 11.66 290.927 10.952 288.743 10.952ZM292.163 6.908V4.136H291.179V10.652H292.163V7.724H293.759V6.908H292.163ZM299.418 11.48H298.098V8.684H299.418V11.48ZM299.418 7.892H298.098V5.132H297.258V12.284H300.234V5.132H299.418V7.892ZM302.91 11.48H301.638V8.684H302.91V11.48ZM302.91 7.892H301.638V5.132H300.81V12.284H303.738V5.132H302.91V7.892ZM307.062 8.324H305.622V4.124H304.65V14.888H305.622V9.152H307.062V8.324ZM315.389 6.2H309.101V8.756H316.589V7.988H310.073V6.932H316.361V4.4H309.077V5.156H315.389V6.2ZM310.121 12.248H315.401V13.952H310.121V12.248ZM309.161 14.744H316.373V11.468H309.161V14.744ZM307.853 9.68V10.472H317.609V9.68H307.853Z" fill="#999999"/>
<rect x="240" y="5" width="8" height="8" rx="4" fill="#6967F9"/>
</svg>
