<svg width="80" height="80" viewBox="0 0 80 80" fill="none" xmlns="http://www.w3.org/2000/svg">
<path d="M70.7511 30.0608C70.7511 42.1901 63.4437 52.6376 52.9228 57.3908C51.4262 58.0668 49.8634 58.6292 48.2457 59.0618C47.9155 59.1483 47.5854 59.2348 47.2552 59.3105C47.0516 59.3592 46.8536 59.4025 46.65 59.4457C46.4904 59.4782 46.3253 59.5106 46.1657 59.5431C44.2233 59.9216 42.2149 60.1217 40.1625 60.1217C38.11 60.1217 36.1016 59.9216 34.1592 59.5431C33.9996 59.5106 33.8345 59.4782 33.675 59.4457C33.3998 59.3862 33.1247 59.3267 32.8496 59.2619C32.4644 59.1699 32.0792 59.0672 31.6996 58.959C30.1699 58.5264 28.6952 57.9857 27.2755 57.3368C16.8152 52.5564 9.56836 42.1414 9.56836 30.0608V30.023C9.57386 24.3612 11.1751 19.0618 13.9539 14.541C14.9939 12.8485 16.2044 11.2586 17.5525 9.80397C18.0753 9.23618 18.6255 8.69542 19.1868 8.17088C19.2473 8.1168 19.3023 8.06273 19.3629 8.00865C20.3258 7.13262 21.3438 6.31607 22.4113 5.56983C23.8419 4.56942 25.3606 3.68257 26.9619 2.93092C27.4021 2.72543 27.8533 2.52535 28.3045 2.33608C31.9472 0.83277 35.953 0 40.157 0C44.3609 0 48.3667 0.83277 52.0094 2.34149C56.0868 4.02866 59.7185 6.55942 62.6733 9.71204C64.115 11.2478 65.3916 12.935 66.4811 14.7411C69.1223 19.1104 70.663 24.1936 70.7456 29.6228C70.7456 29.7688 70.7456 29.9148 70.7456 30.0608H70.7511Z" fill="#00BCD4"/>
<path d="M47.2112 79.7675C47.0076 79.8162 46.8096 79.8594 46.606 79.9027C46.4464 79.9351 46.2813 79.9676 46.1217 80H34.1152C33.9556 79.9676 33.7906 79.9351 33.631 79.9027C33.3559 79.8432 33.0807 79.7837 32.8056 79.7188L33.3118 77.4314L33.8181 75.1548L35.3588 68.2169L35.5129 67.5247L36.1126 64.8263H43.8987L44.4985 67.5247L44.9772 69.6931L46.1878 75.1494L46.694 77.426L47.2112 79.7675Z" fill="#8555FF"/>
<path d="M43.8986 64.8263H36.1125L35.3586 68.2169C37.7577 69.2227 40.3935 69.7742 43.1612 69.7742C43.772 69.7742 44.3828 69.7472 44.9771 69.6931L43.8986 64.8263Z" fill="#6634E5"/>
<path d="M49.3022 77.5233C49.3022 78.1776 49.0326 78.7725 48.5924 79.2051C48.4713 79.324 48.3447 79.4268 48.2017 79.5187C47.8715 79.6052 47.5414 79.6918 47.2112 79.7675C47.0076 79.8161 46.8095 79.8594 46.6059 79.9027H33.631C33.3558 79.8432 33.0807 79.7837 32.8056 79.7188C32.4204 79.6269 32.0352 79.5241 31.6556 79.416C31.0778 78.9834 30.7036 78.2966 30.7036 77.5287C30.7036 77.4963 30.7036 77.4638 30.7036 77.4314C30.7311 76.8149 30.9952 76.2579 31.4079 75.8524C31.8426 75.4252 32.4479 75.1548 33.1192 75.1548H46.8811C48.1797 75.1548 49.2417 76.166 49.2967 77.4314C49.2967 77.4638 49.2967 77.4963 49.2967 77.5287L49.3022 77.5233Z" fill="#6967F9"/>
<path d="M71.0977 40.4705C70.5199 39.124 69.6891 37.9181 68.6381 36.8852C67.9723 36.2309 67.2404 35.6685 66.4426 35.198C65.9748 34.9223 65.4906 34.6789 64.9844 34.468C63.6033 33.8948 62.1341 33.5974 60.6264 33.5812C60.5879 33.5812 60.5493 33.5812 60.5108 33.5812H19.4894C19.4509 33.5812 19.4124 33.5812 19.3739 33.5812C17.8662 33.5974 16.397 33.8948 15.0159 34.468C14.6362 34.6248 14.2675 34.8033 13.9043 34.998C12.9744 35.5063 12.127 36.139 11.3622 36.8852C10.3057 37.9235 9.4803 39.1294 8.90254 40.4705C8.30276 41.8656 8.00012 43.3419 8.00012 44.8668C8.00012 46.3918 8.30276 47.8681 8.90254 49.2632C9.08412 49.685 9.28772 50.0906 9.51882 50.4853C10.0196 51.3505 10.6413 52.1401 11.3622 52.8539C12.4187 53.8921 13.6457 54.7033 15.0104 55.2711C16.43 55.8605 17.9322 56.1579 19.4839 56.1579H60.5163C62.068 56.1579 63.5702 55.8605 64.9899 55.2711C66.36 54.7033 67.5871 53.8867 68.6381 52.8539C69.4745 52.0319 70.1678 51.1072 70.707 50.0852C70.8501 49.8202 70.9767 49.5444 71.0977 49.2686C71.6975 47.8735 72.0001 46.3972 72.0001 44.8722C72.0001 43.3473 71.6975 41.871 71.0977 40.4759V40.4705ZM60.5163 51.9183H19.4894C15.5276 51.9183 12.3086 48.7549 12.3086 44.8614C12.3086 40.968 15.5276 37.8045 19.4894 37.8045H60.5163C64.4782 37.8045 67.6971 40.968 67.6971 44.8614C67.6971 48.7549 64.4782 51.9183 60.5163 51.9183Z" fill="#7642F8"/>
<path d="M21.0578 37.8045H60.5165C61.0007 37.8045 61.4739 37.8532 61.9306 37.9451L62.1287 33.6893C61.6335 33.619 61.1327 33.5866 60.6265 33.5812C60.588 33.5812 60.5495 33.5812 60.511 33.5812H20.8597L21.0578 37.8099V37.8045Z" fill="#6634E5"/>
<path d="M61.1436 51.8913C60.9345 51.9075 60.7254 51.9183 60.5108 51.9183H21.85C22.0976 53.3892 22.5103 54.806 23.0715 56.1471H59.9165C60.4833 54.8006 60.896 53.373 61.1436 51.8913Z" fill="#6634E5"/>
<path d="M18.5705 37.864C18.8731 37.8262 19.1813 37.8045 19.4949 37.8045H59.5203L59.7184 33.5758H19.4894C19.4509 33.5758 19.4124 33.5758 19.3738 33.5758C19.0382 33.5758 18.7025 33.5974 18.3669 33.6299L18.565 37.864H18.5705Z" fill="#6634E5"/>
<path d="M57.7815 56.1524C58.2767 54.806 58.6233 53.3892 58.8104 51.9237H19.4893C19.4178 51.9237 19.3517 51.9237 19.2802 51.9237C19.4618 53.3946 19.814 54.8114 20.3092 56.1579H57.7815V56.1524Z" fill="#6634E5"/>
<path d="M40.0029 68.0222C29.2564 68.0222 20.4469 59.6404 20.1002 49.0793L19.1373 28.4656H60.8685L59.9056 49.0793C59.5589 59.635 50.7493 68.0222 40.0029 68.0222Z" fill="#8555FF"/>
<path d="M60.5769 34.7222L60.8685 28.4656H19.1373L19.2913 31.7372L60.5769 34.7222Z" fill="#6634E5"/>
<path d="M61.2261 30.6449H18.7796C17.7066 30.6449 16.7766 29.904 16.5565 28.8766L15.8247 25.4914C15.5276 24.1017 16.6006 22.793 18.0477 22.793H61.9525C63.3996 22.793 64.4781 24.1017 64.1755 25.4914L63.4437 28.8766C63.2236 29.9094 62.2936 30.6449 61.2206 30.6449H61.2261Z" fill="#6967F9"/>
<path d="M42.0387 25.6645H18.7685C18.3008 25.6645 17.9266 25.2914 17.9266 24.8371C17.9266 24.3775 18.3063 24.0098 18.7685 24.0098H42.0387C42.5065 24.0098 42.8806 24.3829 42.8806 24.8371C42.8806 25.2968 42.501 25.6645 42.0387 25.6645Z" fill="white"/>
<path d="M45.9786 25.3617C46.6665 24.4748 45.6485 23.4744 44.7461 24.1504C44.0582 25.0372 45.0762 26.0376 45.9786 25.3617Z" fill="white"/>
<path opacity="0.8" d="M26.7528 38.7617C26.9784 36.0416 27.2975 34.2571 27.2975 34.2571L21.828 34.3383C21.718 35.8956 21.6574 37.3665 21.6354 38.7563H26.7583L26.7528 38.7617Z" fill="#9980FF"/>
<path opacity="0.8" d="M26.5382 42.666H21.6795C22.5654 62.3983 32.7616 63.1878 32.7616 63.1878C27.2921 58.8239 26.3732 49.5444 26.5382 42.666Z" fill="#9980FF"/>
<path d="M41.3289 36.1336L43.3758 40.2055C43.6235 40.6976 44.1022 41.0437 44.6579 41.1194L49.2305 41.7737C50.6282 41.9738 51.1839 43.6609 50.1715 44.6289L46.8645 47.7977C46.4628 48.1817 46.2812 48.7333 46.3747 49.2794L47.1561 53.7569C47.3927 55.125 45.9345 56.1633 44.6855 55.5198L40.5971 53.4054C40.1018 53.1513 39.5076 53.1513 39.0123 53.4054L34.924 55.5198C33.6749 56.1633 32.2167 55.125 32.4533 53.7569L33.2347 49.2794C33.3282 48.7387 33.1466 48.1817 32.7449 47.7977L29.4379 44.6289C28.4255 43.6609 28.9867 41.9738 30.3789 41.7737L34.9515 41.1194C35.5072 41.0382 35.9859 40.6976 36.2336 40.2055L38.2805 36.1336C38.9023 34.8898 40.7071 34.8898 41.3344 36.1336H41.3289Z" fill="#FFBF1F"/>
<path d="M57.3412 38.4264L54.656 35.6523C54.4634 35.4522 54.1387 35.4522 53.9462 35.6523L51.1784 38.4534C50.8702 38.7671 50.331 38.5508 50.331 38.1128V22.8417C50.331 22.5389 50.5786 22.2955 50.8868 22.2955H57.6384C57.9465 22.2955 58.1941 22.5389 58.1941 22.8417V38.0911C58.1941 38.5291 57.6494 38.7454 57.3412 38.4264Z" fill="#DA2D2D"/>
<path d="M56.7139 24.2152H51.525C51.1564 24.2152 50.8647 23.9232 50.8647 23.5663C50.8647 23.204 51.1619 22.9174 51.525 22.9174H56.7139C57.0771 22.9174 57.3742 23.2094 57.3742 23.5663C57.3742 23.9286 57.0771 24.2152 56.7139 24.2152Z" fill="#F75959"/>
<path d="M9.10617 43.5853C9.10617 43.5853 9.07866 43.5853 9.06215 43.5853C8.83655 43.5636 8.67147 43.3635 8.69898 43.1472C8.81453 42.0225 9.1667 40.9355 9.75547 39.9135C10.2177 39.1024 10.8285 38.3291 11.5658 37.6153C12.8204 36.404 13.9979 35.7929 14.0474 35.7713C14.2455 35.6685 14.4932 35.7442 14.5977 35.9443C14.7022 36.139 14.6252 36.3823 14.4271 36.4851C14.4271 36.4851 13.2881 37.0799 12.1216 38.2101C10.5808 39.708 9.70044 41.3952 9.51336 43.2338C9.49135 43.4392 9.31527 43.5961 9.10617 43.5961V43.5853Z" fill="white"/>
<path d="M62.0735 53.1296C61.8644 53.1296 61.6883 52.9728 61.6663 52.7619C61.6443 52.5402 61.8093 52.3455 62.0349 52.3239C62.0625 52.3239 63.1795 52.2104 64.4451 51.5993C66.1288 50.7882 67.2789 49.5174 67.8566 47.8302C67.9282 47.6193 68.1593 47.5057 68.3739 47.576C68.5885 47.6463 68.704 47.8735 68.6325 48.0844C67.9832 49.9662 66.6516 51.4371 64.7752 52.3293C63.3666 52.9999 62.156 53.1134 62.1065 53.1188C62.0955 53.1188 62.079 53.1188 62.068 53.1188L62.0735 53.1296Z" fill="white"/>
<path d="M27.9413 37.9235C27.0774 38.275 26.3896 38.9509 26.0319 39.7999C25.9769 39.9297 25.7898 39.9297 25.7348 39.7999C25.3771 38.9509 24.6893 38.275 23.8254 37.9235C23.6934 37.8694 23.6934 37.6856 23.8254 37.6315C24.6893 37.28 25.3771 36.604 25.7348 35.7551C25.7898 35.6253 25.9769 35.6253 26.0319 35.7551C26.3896 36.604 27.0774 37.28 27.9413 37.6315C28.0734 37.6856 28.0734 37.8694 27.9413 37.9235Z" fill="white"/>
<path d="M25.5422 33.5271C24.0235 34.1436 22.8074 35.3387 22.1801 36.8311C22.0866 37.0583 21.7509 37.0583 21.6519 36.8311C21.0246 35.3387 19.8085 34.1436 18.2898 33.5271C18.0587 33.4352 18.0587 33.1053 18.2898 33.0134C19.8085 32.3969 21.0246 31.2018 21.6519 29.7093C21.7454 29.4822 22.0811 29.4822 22.1801 29.7093C22.8074 31.2018 24.0235 32.3969 25.5422 33.0134C25.7733 33.1053 25.7733 33.4352 25.5422 33.5271Z" fill="white"/>
<path d="M58.6454 55.1034C57.7815 55.4549 57.0936 56.1309 56.736 56.9799C56.681 57.1097 56.4939 57.1097 56.4388 56.9799C56.0812 56.1309 55.3934 55.4549 54.5295 55.1034C54.3974 55.0494 54.3974 54.8655 54.5295 54.8114C55.3934 54.4599 56.0812 53.784 56.4388 52.935C56.4939 52.8052 56.681 52.8052 56.736 52.935C57.0936 53.784 57.7815 54.4599 58.6454 54.8114C58.7774 54.8655 58.7774 55.0494 58.6454 55.1034Z" fill="white"/>
<path d="M53.8518 60.5169C52.3091 61.1445 51.0808 62.3516 50.4421 63.8676C50.3439 64.0994 50.0098 64.0994 49.9115 63.8676C49.2729 62.3516 48.0446 61.1445 46.5019 60.5169C46.2661 60.4203 46.2661 60.092 46.5019 59.9954C48.0446 59.3678 49.2729 58.1607 49.9115 56.6446C50.0098 56.4129 50.3439 56.4129 50.4421 56.6446C51.0808 58.1607 52.3091 59.3678 53.8518 59.9954C54.0876 60.092 54.0876 60.4203 53.8518 60.5169Z" fill="white"/>
<path d="M22.9889 40.0054H19.7479C17.7148 40.0054 16.0667 41.6251 16.0667 43.6231C16.0667 45.6211 17.7148 47.2408 19.7479 47.2408H22.9889C25.022 47.2408 26.6701 45.6211 26.6701 43.6231C26.6701 41.6251 25.022 40.0054 22.9889 40.0054Z" fill="#00BCD4"/>
<path d="M60.252 40.0054H57.011C54.978 40.0054 53.3298 41.6251 53.3298 43.6231C53.3298 45.6211 54.978 47.2408 57.011 47.2408H60.252C62.2851 47.2408 63.9332 45.6211 63.9332 43.6231C63.9332 41.6251 62.2851 40.0054 60.252 40.0054Z" fill="#00BCD4"/>
<path d="M35 18C36.1046 18 37 17.1046 37 16C37 14.8954 36.1046 14 35 14C33.8954 14 33 14.8954 33 16C33 17.1046 33.8954 18 35 18Z" fill="black"/>
<path d="M45.0438 18C46.1484 18 47.0438 17.1046 47.0438 16C47.0438 14.8954 46.1484 14 45.0438 14C43.9393 14 43.0438 14.8954 43.0438 16C43.0438 17.1046 43.9393 18 45.0438 18Z" fill="black"/>
<path d="M36.9049 19.0924C36.9049 17.4859 38.2861 17.7911 39.9914 17.7911C41.6966 17.7911 43.0778 17.4859 43.0778 19.0924C43.0778 20.6988 41.6966 22 39.9914 22C38.2861 22 36.9049 20.6988 36.9049 19.0924Z" fill="black"/>
</svg>
