<svg width="80" height="80" viewBox="0 0 80 80" fill="none" xmlns="http://www.w3.org/2000/svg">
<path d="M40 68.4266C59.33 68.4266 75 53.1088 75 34.2133C75 15.3178 59.33 0 40 0C20.67 0 5 15.3178 5 34.2133C5 53.1088 20.67 68.4266 40 68.4266Z" fill="#8D79FE"/>
<path d="M68.9393 53.4562C68.3873 44.0908 62.6253 36.0963 54.4414 32.1982C54.8131 31.5485 55.0215 30.8052 55.0215 30.0123C55.0215 28.6799 54.4301 27.4852 53.4895 26.6593L61.8368 7.47693C60.0682 6.09497 58.1588 4.87818 56.1367 3.84858C52.7798 2.47212 49.1581 1.59119 45.3675 1.30488L44.8944 2.38954L42.9793 6.7887L39.9378 0C34.035 0.0110117 28.4758 1.44804 23.5981 3.98623L32.6213 26.7969C31.7652 27.6118 31.2357 28.7515 31.2357 30.0123C31.2357 30.8052 31.4441 31.554 31.8159 32.1982C23.2095 36.3 17.2729 44.9387 17.2729 54.9263C17.2729 56.9469 17.5151 58.918 17.9769 60.801C23.9924 65.5691 31.6525 68.4211 39.9998 68.4211C52.0307 68.4211 62.6422 62.4913 68.9393 53.4562Z" fill="#6634E5"/>
<path d="M59.4489 5.76462L49.947 27.5953L49.8005 27.9256H30.6446L30.791 27.5953L40.3662 5.58843L42.76 0.104614C48.905 0.572611 54.605 2.59326 59.4545 5.76462H59.4489Z" fill="#DA2D2D"/>
<path d="M42.2864 1.18933L30.7963 27.5954L30.9427 27.9257H49.8058L49.9804 27.5293L42.2864 1.18933Z" fill="#B82727"/>
<path d="M50.0932 27.9256H30.9373L30.7909 27.5953L21.1312 5.39571C26.0427 2.31794 31.7878 0.407415 37.9666 0.0605469L40.3717 5.58841L49.9468 27.5953L50.0932 27.9256Z" fill="#DA2D2D"/>
<path d="M49.3663 24.3137H31.6692C29.9863 24.3137 28.622 25.6473 28.622 27.2924V30.3261C28.622 31.9712 29.9863 33.3048 31.6692 33.3048H49.3663C51.0492 33.3048 52.4134 31.9712 52.4134 30.3261V27.2924C52.4134 25.6473 51.0492 24.3137 49.3663 24.3137Z" fill="#E87B41"/>
<path d="M48.0151 26.7859H33.2074C32.7286 26.7859 32.3344 26.406 32.3344 25.9325C32.3344 25.4645 32.723 25.0791 33.2074 25.0791H48.0151C48.4938 25.0791 48.8881 25.459 48.8881 25.9325C48.8881 26.4005 48.4995 26.7859 48.0151 26.7859Z" fill="white"/>
<path d="M40.5185 79.0034C54.7967 79.0034 66.3714 67.6888 66.3714 53.7315C66.3714 39.7743 54.7967 28.4597 40.5185 28.4597C26.2403 28.4597 14.6656 39.7743 14.6656 53.7315C14.6656 67.6888 26.2403 79.0034 40.5185 79.0034Z" fill="#DB6937"/>
<path d="M16.8784 54.9593C16.4222 54.9593 16.0392 54.6014 16.028 54.1499C15.9435 51.1988 16.411 48.3082 17.4079 45.5553V45.5443C18.7541 41.9875 20.8212 38.9153 23.5698 36.4101C23.6036 36.3771 23.6374 36.3495 23.6768 36.3275C23.7275 36.2945 23.8064 36.2449 23.8402 36.2174C24.3921 35.6558 24.9948 35.2208 25.5806 34.7969C25.7833 34.6482 25.9974 34.4996 26.2002 34.3399C26.2114 34.3289 26.2283 34.3234 26.2396 34.3124C26.8479 33.9049 27.5181 33.47 28.3405 33.0295C28.3517 33.0295 28.3574 33.0185 28.3686 33.013C28.5095 32.9414 28.6559 32.8643 28.8023 32.7873C29.0896 32.6331 29.3825 32.4734 29.7317 32.3358C30.1654 32.1596 30.661 32.3633 30.8413 32.7873C31.0215 33.2112 30.8131 33.6957 30.3794 33.8719C30.1147 33.9765 29.8725 34.1087 29.6134 34.2463C29.4613 34.3289 29.3036 34.4115 29.1403 34.4941C28.4024 34.8905 27.7772 35.2924 27.2196 35.6723C27.0056 35.832 26.7916 35.9861 26.5888 36.1348C26.0312 36.5367 25.5074 36.9111 25.0568 37.3791L25.0399 37.3956C24.9272 37.5058 24.7977 37.5939 24.6794 37.6709C22.156 39.9889 20.2523 42.8244 19.0075 46.1114C18.0782 48.6661 17.6501 51.353 17.729 54.0949C17.7402 54.5518 17.3741 54.9373 16.901 54.9483H16.8784V54.9593Z" fill="white"/>
<path d="M59.5218 61.4231C63.8692 51.1634 58.8852 39.4013 48.3896 35.1516C37.894 30.9019 25.8614 35.7739 21.514 46.0336C17.1666 56.2933 22.1507 68.0554 32.6462 72.3051C43.1418 76.5548 55.1744 71.6828 59.5218 61.4231Z" fill="#E87B41"/>
<path d="M54.5259 39.0089C57.8547 42.5822 59.888 47.3337 59.888 52.5478C59.888 63.6531 50.6789 72.6551 39.3183 72.6551C33.9055 72.6551 28.9828 70.6125 25.3104 67.2704C29.0729 71.3062 34.4913 73.8389 40.518 73.8389C51.8787 73.8389 61.0877 64.8368 61.0877 53.7315C61.0877 47.9174 58.5644 42.6813 54.5315 39.0089H54.5259Z" fill="#EF8E52"/>
<path d="M21.3284 55.7135C21.3284 44.6082 30.5374 35.6061 41.898 35.6061C48.5443 35.6061 54.4527 38.6839 58.2096 43.463C54.6217 37.5717 48.043 33.624 40.5237 33.624C29.1631 33.624 19.954 42.6261 19.954 53.7314C19.954 58.3397 21.5424 62.5848 24.2065 65.9764C22.376 62.9702 21.3284 59.4629 21.3284 55.7135Z" fill="#DE5B25"/>
<path d="M42.4785 40.8315L45.1032 46.0345C45.4243 46.6676 46.0382 47.1026 46.7479 47.2017L52.6226 48.0386C54.4137 48.2919 55.1346 50.4502 53.8335 51.6835L49.581 55.7358C49.0628 56.2258 48.8319 56.936 48.9502 57.6298L49.9528 63.3503C50.2569 65.0957 48.3869 66.4281 46.7817 65.6022L41.5266 62.9044C40.8902 62.5795 40.1298 62.5795 39.4933 62.9044L34.2383 65.6022C32.633 66.4281 30.7574 65.0957 31.0672 63.3503L32.0698 57.6298C32.1937 56.936 31.9571 56.2313 31.4389 55.7358L27.1864 51.6835C25.891 50.4447 26.6063 48.2919 28.3974 48.0386L34.2721 47.2017C34.9817 47.1026 35.6013 46.6621 35.9167 46.0345L38.5415 40.8315C39.3413 39.2403 41.6618 39.2403 42.4616 40.8315H42.4785Z" fill="white"/>
<path d="M18.0163 58.2793C18.0163 57.8498 17.6615 57.5029 17.2222 57.5029C16.7828 57.5029 16.428 57.8498 16.428 58.2793C16.428 58.7087 16.7828 59.0556 17.2222 59.0556C17.6615 59.0556 18.0163 58.7087 18.0163 58.2793Z" fill="white"/>
</svg>
