<svg width="80" height="80" viewBox="0 0 80 80" fill="none" xmlns="http://www.w3.org/2000/svg">
<path d="M40 68.4214C59.33 68.4214 75 53.1048 75 34.2107C75 15.3167 59.33 0 40 0C20.67 0 5 15.3167 5 34.2107C5 53.1048 20.67 68.4214 40 68.4214Z" fill="#8D79FE"/>
<path d="M68.9395 53.4522C68.3875 44.0875 62.6255 36.0936 54.4416 32.1957C54.8133 31.5461 55.0217 30.8029 55.0217 30.0101C55.0217 28.6778 54.4303 27.4831 53.4897 26.6573L61.837 7.47637C60.0684 6.09451 58.159 4.87781 56.1369 3.84829C52.78 2.47194 49.1583 1.59107 45.3677 1.30479L44.8946 2.38936L42.9796 6.78819L39.9324 0C34.0296 0.0110109 28.4704 1.44793 23.5927 3.98593L32.6159 26.7949C31.7597 27.6097 31.2303 28.7493 31.2303 30.0101C31.2303 30.8029 31.4387 31.5516 31.8104 32.1957C23.204 36.2973 17.2675 44.9353 17.2675 54.9221C17.2675 56.9426 17.5097 58.9136 17.9715 60.7964C23.987 65.5641 31.6471 68.4159 39.9944 68.4159C52.0253 68.4159 62.6368 62.4866 68.9339 53.4522H68.9395Z" fill="#6634E5"/>
<path d="M59.4488 5.76419L49.9469 27.5932L49.8005 27.9235H30.6501L30.7966 27.5932L40.3717 5.58802L42.7543 0.104614C48.8993 0.572576 54.5993 2.59307 59.4488 5.76419Z" fill="#DA2D2D"/>
<path d="M42.287 1.18909L30.7911 27.5931L30.9376 27.9234H49.8006L49.9752 27.527L42.287 1.18909Z" fill="#B82727"/>
<path d="M50.0931 27.9235H30.9372L30.7907 27.5932L21.1311 5.38981C26.0426 2.31228 31.7877 0.401896 37.9665 0.0550537L40.3715 5.5825L49.9467 27.5877L50.0931 27.918V27.9235Z" fill="#DA2D2D"/>
<path d="M49.3663 24.3119H31.6692C29.9863 24.3119 28.622 25.6454 28.622 27.2903V30.3238C28.622 31.9688 29.9863 33.3023 31.6692 33.3023H49.3663C51.0492 33.3023 52.4134 31.9688 52.4134 30.3238V27.2903C52.4134 25.6454 51.0492 24.3119 49.3663 24.3119Z" fill="#FFD31D"/>
<path d="M48.0095 26.7838H33.2018C32.7231 26.7838 32.3288 26.404 32.3288 25.9305C32.3288 25.4625 32.7174 25.0771 33.2018 25.0771H48.0095C48.4883 25.0771 48.8825 25.457 48.8825 25.9305C48.8825 26.3985 48.4939 26.7838 48.0095 26.7838Z" fill="white"/>
<path d="M40.5125 78.9973C54.7907 78.9973 66.3654 67.6836 66.3654 53.7274C66.3654 39.7712 54.7907 28.4575 40.5125 28.4575C26.2344 28.4575 14.6596 39.7712 14.6596 53.7274C14.6596 67.6836 26.2344 78.9973 40.5125 78.9973Z" fill="#FFBF1F"/>
<path d="M16.8789 54.955C16.4227 54.955 16.0397 54.5972 16.0284 54.1457C15.9439 51.1948 16.4114 48.3044 17.4083 45.5517V45.5407C18.7545 41.9842 20.8216 38.9122 23.5702 36.4072C23.604 36.3742 23.6378 36.3467 23.6772 36.3246C23.7279 36.2916 23.8068 36.2421 23.8406 36.2145C24.3926 35.653 24.9952 35.2181 25.581 34.7941C25.7838 34.6455 25.9978 34.4968 26.2006 34.3372C26.2118 34.3262 26.2287 34.3207 26.24 34.3097C26.8483 33.9023 27.5186 33.4673 28.3409 33.0269C28.3522 33.0269 28.3578 33.0159 28.3691 33.0104C28.5099 32.9388 28.6563 32.8617 28.8028 32.7847C29.09 32.6305 29.3829 32.4708 29.7321 32.3332C30.1658 32.157 30.6615 32.3607 30.8417 32.7847C31.022 33.2086 30.8135 33.693 30.3799 33.8692C30.1151 33.9738 29.8729 34.106 29.6138 34.2436C29.4618 34.3262 29.3041 34.4088 29.1407 34.4913C28.4029 34.8877 27.7777 35.2896 27.2201 35.6695C27.006 35.8292 26.792 35.9833 26.5892 36.1319C26.0316 36.5338 25.5078 36.9082 25.0572 37.3762L25.0403 37.3927C24.9276 37.5028 24.7981 37.5909 24.6798 37.668C22.1565 39.9857 20.2527 42.821 19.0079 46.1078C18.0786 48.6623 17.6505 51.349 17.7294 54.0907C17.7406 54.5476 17.3745 54.933 16.9014 54.944H16.8789V54.955Z" fill="white"/>
<path d="M59.5218 61.4247C63.8692 51.1658 58.8852 39.4045 48.3896 35.1552C37.894 30.9058 25.8614 35.7775 21.514 46.0363C17.1666 56.2952 22.1507 68.0565 32.6462 72.3059C43.1418 76.5552 55.1744 71.6836 59.5218 61.4247Z" fill="#FFD31D"/>
<path opacity="0.5" d="M54.5259 39.006C57.8547 42.579 59.888 47.3302 59.888 52.5438C59.888 63.6483 50.6789 72.6497 39.3183 72.6497C33.9055 72.6497 28.9828 70.6071 25.3104 67.2653C29.0729 71.3008 34.4913 73.8333 40.518 73.8333C51.8787 73.8333 61.0877 64.8319 61.0877 53.7275C61.0877 47.9138 58.5644 42.6781 54.5315 39.006H54.5259Z" fill="#FFEFAB"/>
<path d="M21.3228 55.7094C21.3228 44.6049 30.5318 35.6035 41.8925 35.6035C48.5388 35.6035 54.4472 38.6811 58.204 43.4598C54.6162 37.569 48.0375 33.6216 40.5182 33.6216C29.1575 33.6216 19.9485 42.623 19.9485 53.7274C19.9485 58.3354 21.5368 62.5801 24.201 65.9715C22.3704 62.9655 21.3228 59.4585 21.3228 55.7094Z" fill="#FFAB2E"/>
<path d="M42.4785 40.8282L45.1032 46.0308C45.4243 46.6639 46.0382 47.0989 46.7479 47.198L52.6226 48.0348C54.4137 48.288 55.1346 50.4462 53.8335 51.6794L49.581 55.7314C49.0629 56.2214 48.8319 56.9316 48.9502 57.6252L49.9528 63.3454C50.2569 65.0906 48.387 66.4229 46.7817 65.5971L41.5266 62.8994C40.8902 62.5746 40.1298 62.5746 39.4933 62.8994L34.2383 65.5971C32.633 66.4229 30.7574 65.0906 31.0672 63.3454L32.0698 57.6252C32.1937 56.9316 31.9571 56.2269 31.4389 55.7314L27.1864 51.6794C25.891 50.4407 26.6063 48.288 28.3974 48.0348L34.2721 47.198C34.9817 47.0989 35.6013 46.6584 35.9167 46.0308L38.5415 40.8282C39.3413 39.2371 41.6618 39.2371 42.4616 40.8282H42.4785Z" fill="white"/>
<path d="M18.0108 58.2749C18.0108 57.8455 17.6559 57.4987 17.2166 57.4987C16.7773 57.4987 16.4224 57.8455 16.4224 58.2749C16.4224 58.7043 16.7773 59.0512 17.2166 59.0512C17.6559 59.0512 18.0108 58.7043 18.0108 58.2749Z" fill="white"/>
</svg>
