<svg width="140" height="140" viewBox="0 0 140 140" fill="none" xmlns="http://www.w3.org/2000/svg">
<g clip-path="url(#clip0_76_1094)">
<path d="M126.623 80.298L125.7 85.6308L124.844 81.9433C124.844 81.9433 116.775 86.5503 116.25 99.4518C116.25 99.4518 122.725 99.1904 126.633 95.6384L124.183 93.7318L129.005 93.9931C129.005 93.9931 138.396 85.4372 139.514 76.7556C139.514 76.7556 131.289 76.2039 126.623 80.3076V80.298Z" fill="white"/>
<path d="M116.25 99.9261C116.124 99.9261 115.997 99.8777 115.91 99.7809C115.813 99.6841 115.764 99.5583 115.764 99.4228C116.299 86.4051 124.261 81.7111 124.601 81.5175C124.737 81.4401 124.893 81.4304 125.039 81.4981C125.175 81.5562 125.282 81.682 125.32 81.8272L125.641 83.1822L126.156 80.2109C126.176 80.1044 126.234 80.0076 126.312 79.9302C131.076 75.7394 139.213 76.233 139.553 76.2524C139.689 76.2524 139.815 76.3298 139.893 76.4266C139.981 76.533 140.019 76.6589 140 76.7944C138.863 85.5534 129.724 93.9738 129.335 94.3319C129.238 94.419 129.112 94.4674 128.976 94.4577L125.69 94.2835L126.924 95.2416C127.041 95.3288 127.109 95.4643 127.109 95.5998C127.109 95.7449 127.061 95.8804 126.954 95.9772C122.968 99.6067 116.542 99.9067 116.27 99.9164H116.25V99.9261ZM124.533 82.737C122.764 84.0339 117.358 88.8151 116.765 98.9195C118.292 98.7743 122.773 98.1452 125.865 95.6481L123.882 94.0996C123.716 93.9738 123.648 93.7415 123.726 93.5479C123.804 93.3447 123.998 93.2092 124.212 93.2382L128.83 93.4898C129.997 92.3865 137.667 84.8469 138.96 77.2105C137.122 77.1718 130.881 77.3267 127.08 80.5496L126.186 85.7083C126.147 85.9309 125.952 86.1051 125.719 86.1148C125.466 86.0954 125.282 85.9599 125.233 85.7373L124.533 82.737Z" fill="#B7BDCF"/>
<path d="M112.498 105.849C112.43 105.849 112.352 105.83 112.294 105.801C112.051 105.685 111.944 105.394 112.06 105.152C117.203 94.3995 132.388 82.853 133.03 82.3691C133.244 82.2046 133.545 82.253 133.71 82.4659C133.875 82.6788 133.827 82.9789 133.613 83.1434C133.457 83.2595 117.981 95.0286 112.935 105.569C112.848 105.743 112.682 105.849 112.498 105.849Z" fill="#B7BDCF"/>
<path d="M60.7207 25.0529C60.4777 27.2112 60.186 29.7857 59.8458 32.8635H0.145737C0.145737 32.8635 -1.90551 14 9.29371 14H50.795C56.7543 14 61.3915 19.1587 60.7207 25.0529Z" fill="#B7BDCF"/>
<path d="M78.3363 33.8798V121.78H28.9314C16.235 121.78 12.4923 105.443 16.9253 57.2244C20.9986 12.8483 7.66064 14.7356 7.66064 14.7356L58.8057 14.5808C69.5869 14.5517 78.346 23.1947 78.346 33.8798H78.3363Z" fill="white"/>
<path d="M78.3459 122.264H28.9313C25.5385 122.264 22.8748 121.151 20.7652 118.857C14.3976 111.918 13.1046 93.4705 16.4391 57.176C17.5571 45.0197 18.3834 23.6108 11.3937 16.8842C10.0229 15.5583 8.78828 15.2679 8.15638 15.2098H7.66058C7.40782 15.2098 7.19394 15.0163 7.1745 14.7646C7.15506 14.513 7.33977 14.2904 7.59253 14.2517C7.62169 14.2517 7.81612 14.2226 8.15638 14.2517L58.8056 14.0968H58.8737C64.2108 14.0968 69.2271 16.1583 72.9991 19.9039C76.7613 23.6398 78.832 28.6049 78.832 33.8797V121.78C78.832 122.051 78.6181 122.264 78.3459 122.264ZM10.8395 15.2098C11.2187 15.4518 11.6075 15.7615 12.0158 16.139C15.8656 19.7878 19.9292 29.8825 17.4113 57.2727C14.106 93.2575 15.3309 111.482 21.4943 118.209C23.3998 120.29 25.8399 121.296 28.941 121.296H77.8599V33.8797C77.8599 28.8566 75.8864 24.1431 72.3089 20.5911C68.7022 17.01 63.9289 15.0647 58.8056 15.0647L10.8395 15.2098Z" fill="#B7BDCF"/>
<path d="M26.3064 122.216C26.3064 122.216 34.317 122.022 36.3682 103.352H96.0682C96.0682 103.352 98.1292 122.216 86.9203 122.216H26.3064Z" fill="#B7BDCF"/>
<path d="M63.9741 125.456L63.9836 125.458C65.1791 125.744 66.381 125.011 66.6683 123.821L68.4647 116.377C68.752 115.187 68.0157 113.99 66.8202 113.704L66.8107 113.702C65.6152 113.416 64.4132 114.149 64.126 115.339L62.3296 122.783C62.0423 123.973 62.7786 125.17 63.9741 125.456Z" fill="white"/>
<path d="M64.5121 126C64.2982 126 64.0843 125.971 63.8705 125.923C62.4122 125.574 61.5179 124.113 61.8678 122.661L63.6663 115.228C63.8316 114.531 64.269 113.931 64.8912 113.553C65.5134 113.176 66.2425 113.06 66.9425 113.234C67.6521 113.399 68.2452 113.834 68.6243 114.453C69.0034 115.073 69.1201 115.799 68.9451 116.496L67.1466 123.929C66.9814 124.635 66.5439 125.226 65.9217 125.603C65.4842 125.864 64.9982 126 64.5121 126ZM66.3008 114.124C65.5134 114.124 64.794 114.657 64.6093 115.46L62.8108 122.893C62.5872 123.822 63.1608 124.761 64.1038 124.984C64.551 125.09 65.0273 125.022 65.4259 124.78C65.8245 124.539 66.1064 124.161 66.2134 123.706L68.0118 116.273C68.1188 115.818 68.0507 115.354 67.8077 114.957C67.5646 114.56 67.1855 114.279 66.7286 114.173C66.5925 114.144 66.4564 114.124 66.3203 114.124H66.3008Z" fill="#B7BDCF"/>
<path d="M97.4773 125.438L97.4867 125.436C98.6822 125.15 99.4185 123.953 99.1313 122.763L97.3348 115.319C97.0476 114.129 95.8456 113.396 94.6501 113.682L94.6407 113.684C93.4452 113.97 92.7089 115.167 92.9961 116.357L94.7926 123.801C95.0798 124.991 96.2818 125.724 97.4773 125.438Z" fill="white"/>
<path d="M96.9434 126C96.4476 126 95.9615 125.865 95.5338 125.603C94.9116 125.226 94.4838 124.635 94.3088 123.929L92.5104 116.496C92.1604 115.044 93.0645 113.582 94.513 113.234C95.9712 112.886 97.4392 113.786 97.7892 115.228L99.5876 122.661C99.7529 123.367 99.646 124.093 99.2668 124.703C98.8877 125.323 98.2947 125.748 97.585 125.923C97.3711 125.971 97.1573 126 96.9434 126ZM94.7463 114.173C93.813 114.395 93.2297 115.334 93.4533 116.263L95.2518 123.697C95.3588 124.151 95.6407 124.529 96.0393 124.771C96.4379 125.013 96.9045 125.09 97.3614 124.974C97.8183 124.868 98.1975 124.587 98.4405 124.19C98.6835 123.793 98.7613 123.329 98.6447 122.874L96.8462 115.441C96.6226 114.512 95.6699 113.931 94.7463 114.153V114.173Z" fill="#B7BDCF"/>
<path d="M107.265 92.2113L107.259 92.2188C106.485 93.1696 106.631 94.5653 107.586 95.3363L113.559 100.158C114.514 100.929 115.916 100.784 116.69 99.8329L116.696 99.8254C117.471 98.8747 117.324 97.4789 116.369 96.7079L110.397 91.8858C109.442 91.1148 108.04 91.2606 107.265 92.2113Z" fill="white"/>
<path d="M114.957 101.126C114.335 101.126 113.742 100.913 113.256 100.526L107.287 95.7061C106.723 95.2512 106.373 94.6028 106.295 93.8866C106.218 93.1704 106.432 92.4638 106.888 91.9025C107.345 91.3411 107.997 90.9927 108.716 90.9153C109.436 90.8378 110.145 91.0508 110.709 91.5057L116.678 96.3256C117.242 96.7804 117.592 97.4289 117.67 98.1451C117.747 98.8613 117.534 99.5679 117.077 100.129C116.62 100.691 115.968 101.039 115.249 101.116C115.152 101.126 115.055 101.136 114.967 101.136L114.957 101.126ZM108.998 91.8638C108.94 91.8638 108.872 91.8638 108.813 91.8638C108.347 91.9121 107.929 92.1348 107.637 92.4929C107.345 92.851 107.209 93.3059 107.258 93.7704C107.307 94.235 107.53 94.6512 107.89 94.9415L113.859 99.7614C114.219 100.052 114.685 100.178 115.142 100.139C115.609 100.091 116.027 99.8679 116.318 99.5098C116.61 99.1517 116.746 98.6968 116.698 98.2322C116.649 97.7677 116.425 97.3515 116.066 97.0611L110.097 92.2412C109.785 91.9896 109.397 91.8541 108.998 91.8541V91.8638Z" fill="#B7BDCF"/>
<path d="M43.3793 99.8224L43.3854 99.8299C44.1598 100.781 45.5618 100.926 46.5167 100.155L52.4894 95.3333C53.4444 94.5623 53.5907 93.1666 52.8163 92.2158L52.8102 92.2083C52.0358 91.2575 50.6338 91.1118 49.6788 91.8828L43.7062 96.7049C42.7512 97.4759 42.6048 98.8716 43.3793 99.8224Z" fill="white"/>
<path d="M45.1274 101.126C45.0302 101.126 44.933 101.126 44.8455 101.107C44.1261 101.029 43.4748 100.681 43.0179 100.12C42.561 99.5583 42.3471 98.8518 42.4249 98.1356C42.5026 97.4194 42.8526 96.7709 43.4164 96.316L49.3855 91.4961C49.9493 91.0412 50.659 90.8283 51.3784 90.9057C52.0978 90.9832 52.7491 91.3316 53.206 91.893C54.149 93.0544 53.974 94.7578 52.8075 95.6966L46.8384 100.517C46.3524 100.913 45.7496 101.117 45.1372 101.117L45.1274 101.126ZM51.0867 91.8639C50.6882 91.8639 50.309 91.9994 49.9882 92.2511L44.0192 97.071C43.6595 97.3613 43.4359 97.7775 43.3873 98.2421C43.3387 98.7066 43.4748 99.1518 43.7664 99.5196C44.0581 99.8777 44.4761 100.1 44.9427 100.149C45.3899 100.187 45.8566 100.062 46.226 99.7713L52.195 94.9514C52.9436 94.3513 53.0602 93.2576 52.4478 92.5124C52.1561 92.1543 51.7381 91.9317 51.2715 91.8833C51.2131 91.8833 51.1451 91.8833 51.0867 91.8833V91.8639Z" fill="#B7BDCF"/>
<path d="M80.7278 122.216C98.7464 122.216 113.353 107.673 113.353 89.7345C113.353 71.7956 98.7464 57.2533 80.7278 57.2533C62.7092 57.2533 48.1023 71.7956 48.1023 89.7345C48.1023 107.673 62.7092 122.216 80.7278 122.216Z" fill="white"/>
<path d="M80.7278 122.7C62.4707 122.7 47.6162 107.911 47.6162 89.7345C47.6162 71.5582 62.4707 56.7694 80.7278 56.7694C98.9849 56.7694 113.839 71.5582 113.839 89.7345C113.839 107.911 98.9849 122.7 80.7278 122.7ZM80.7278 57.7469C63.0054 57.7469 48.5884 72.1002 48.5884 89.7442C48.5884 107.388 63.0054 121.741 80.7278 121.741C98.4502 121.741 112.867 107.388 112.867 89.7442C112.867 72.1002 98.4502 57.7469 80.7278 57.7469Z" fill="#B7BDCF"/>
<path d="M74.6129 92.1252C75.939 92.1252 77.0141 91.0549 77.0141 89.7346C77.0141 88.4143 75.939 87.344 74.6129 87.344C73.2867 87.344 72.2117 88.4143 72.2117 89.7346C72.2117 91.0549 73.2867 92.1252 74.6129 92.1252Z" fill="#B7BDCF"/>
<path d="M86.8524 92.1252C88.1785 92.1252 89.2536 91.0549 89.2536 89.7346C89.2536 88.4143 88.1785 87.344 86.8524 87.344C85.5262 87.344 84.4512 88.4143 84.4512 89.7346C84.4512 91.0549 85.5262 92.1252 86.8524 92.1252Z" fill="#B7BDCF"/>
<path d="M76.353 97.1676C76.353 99.5775 78.3168 99.1904 80.7277 99.1904C83.1387 99.1904 85.1024 99.5679 85.1024 97.1676C85.1024 94.7673 83.1387 92.8123 80.7277 92.8123C78.3168 92.8123 76.353 94.7673 76.353 97.1676Z" fill="#B7BDCF"/>
<path d="M64.3276 35.3315H30.3896C30.1174 35.3315 29.9036 35.1186 29.9036 34.8476C29.9036 34.5766 30.1174 34.3636 30.3896 34.3636H64.3178C64.59 34.3636 64.8039 34.5766 64.8039 34.8476C64.8039 35.1186 64.59 35.3315 64.3178 35.3315H64.3276Z" fill="#B7BDCF"/>
<path d="M56.317 40.3836H30.3896C30.1174 40.3836 29.9036 40.1707 29.9036 39.8997C29.9036 39.6287 30.1174 39.4158 30.3896 39.4158H56.317C56.5892 39.4158 56.8031 39.6287 56.8031 39.8997C56.8031 40.1707 56.5892 40.3836 56.317 40.3836Z" fill="#B7BDCF"/>
<path d="M56.317 45.4359H30.3896C30.1174 45.4359 29.9036 45.2229 29.9036 44.9519C29.9036 44.6809 30.1174 44.468 30.3896 44.468H56.317C56.5892 44.468 56.8031 44.6809 56.8031 44.9519C56.8031 45.2229 56.5892 45.4359 56.317 45.4359Z" fill="#B7BDCF"/>
<path d="M56.317 68.6546H30.3896C30.1174 68.6546 29.9036 68.4417 29.9036 68.1707C29.9036 67.8997 30.1174 67.6868 30.3896 67.6868H56.317C56.5892 67.6868 56.8031 67.8997 56.8031 68.1707C56.8031 68.4417 56.5892 68.6546 56.317 68.6546Z" fill="#B7BDCF"/>
<path d="M48.112 63.6025H30.3896C30.1174 63.6025 29.9036 63.3896 29.9036 63.1186C29.9036 62.8476 30.1174 62.6346 30.3896 62.6346H48.1023C48.3745 62.6346 48.5884 62.8476 48.5884 63.1186C48.5884 63.3896 48.3745 63.6025 48.1023 63.6025H48.112Z" fill="#B7BDCF"/>
<path d="M48.112 74.6361H30.3896C30.1174 74.6361 29.9036 74.4231 29.9036 74.1521C29.9036 73.8811 30.1174 73.6682 30.3896 73.6682H48.1023C48.3745 73.6682 48.5884 73.8811 48.5884 74.1521C48.5884 74.4231 48.3745 74.6361 48.1023 74.6361H48.112Z" fill="#B7BDCF"/>
<path d="M103.311 82.0982C103.311 84.3436 101.483 86.1631 99.2278 86.1631C96.9724 86.1631 95.1448 84.3436 95.1448 82.0982C95.1448 79.8527 99.2278 72.468 99.2278 72.468C99.2278 72.468 103.311 79.8527 103.311 82.0982Z" fill="white"/>
<path d="M99.2278 86.6471C96.7099 86.6471 94.6587 84.6049 94.6587 82.0982C94.6587 79.7947 98.3723 73.0004 98.8001 72.2358C98.8876 72.0809 99.0528 71.9841 99.2278 71.9841C99.4028 71.9841 99.5681 72.0809 99.6556 72.2358C100.083 73.0004 103.797 79.7947 103.797 82.0982C103.797 84.6049 101.746 86.6471 99.2278 86.6471ZM99.2278 73.494C97.9349 75.9233 95.6308 80.5593 95.6308 82.1079C95.6308 84.0823 97.2446 85.6889 99.2278 85.6889C101.211 85.6889 102.825 84.0823 102.825 82.1079C102.825 80.5593 100.521 75.9233 99.2278 73.494Z" fill="#B7BDCF"/>
</g>
<defs>
<clipPath id="clip0_76_1094">
<rect width="140" height="112" fill="white" transform="translate(0 14)"/>
</clipPath>
</defs>
</svg>
