<svg width="58" height="82" viewBox="0 0 58 82" fill="none" xmlns="http://www.w3.org/2000/svg">
<path d="M25.45 68.858C25.45 70.37 25.45 72.162 24.96 74.64L26.416 74.794C26.906 72.176 26.906 70.426 26.906 68.858V67.612H17.904V68.788H25.45V68.858ZM22.426 76.236V71.784H20.97V76.236H16.714V77.426H28.138V76.236H22.426ZM29.8449 67.346V68.508H33.3169C33.0789 70.454 31.7769 71.952 29.2849 72.932L29.9709 73.968C33.2189 72.666 34.8009 70.454 34.8009 67.346H29.8449ZM31.4129 75.592H38.5669V79.092H40.0089V74.43H31.4129V75.592ZM38.6369 66.436V69.502H37.2369V66.674H35.8789V73.8H37.2369V70.678H38.6369V73.856H40.0089V66.436H38.6369Z" fill="#6967F9"/>
<circle r="29" transform="matrix(-1 0 0 1 29 29)" fill="url(#paint0_linear_434_36)"/>
<path fill-rule="evenodd" clip-rule="evenodd" d="M52.0493 46.6016C52.3856 45.0166 52.5625 43.3727 52.5625 41.6875C52.5625 28.6743 42.0132 18.125 29 18.125C15.9868 18.125 5.4375 28.6743 5.4375 41.6875C5.4375 43.3727 5.61442 45.0166 5.95068 46.6016C11.2501 53.5306 19.6031 58 29 58C38.3969 58 46.75 53.5306 52.0493 46.6016Z" fill="white"/>
<path d="M23.5625 36.25C24.5635 36.25 25.375 35.4385 25.375 34.4375C25.375 33.4365 24.5635 32.625 23.5625 32.625C22.5615 32.625 21.75 33.4365 21.75 34.4375C21.75 35.4385 22.5615 36.25 23.5625 36.25Z" fill="black"/>
<path d="M34.4375 36.25C35.4385 36.25 36.25 35.4385 36.25 34.4375C36.25 33.4365 35.4385 32.625 34.4375 32.625C33.4365 32.625 32.625 33.4365 32.625 34.4375C32.625 35.4385 33.4365 36.25 34.4375 36.25Z" fill="black"/>
<path d="M25.375 38.3938C25.375 36.574 26.9397 36.9198 28.8714 36.9198C30.8031 36.9198 32.3678 36.574 32.3678 38.3938C32.3678 40.2136 30.8031 41.6876 28.8714 41.6876C26.9397 41.6876 25.375 40.2136 25.375 38.3938Z" fill="black"/>
<path fill-rule="evenodd" clip-rule="evenodd" d="M6.93609 31.6052C6.60982 31.1267 6.06035 30.8125 5.4375 30.8125H3.625C2.62398 30.8125 1.8125 31.624 1.8125 32.625C1.8125 33.626 2.62398 34.4375 3.625 34.4375H4.14821L7.2629 39.8323C7.79801 40.7591 8.98316 41.0767 9.90999 40.5416C10.8368 40.0065 11.1544 38.8213 10.6193 37.8945L7.18386 31.9442C7.1122 31.8201 7.02888 31.7069 6.93609 31.6052Z" fill="white"/>
<path fill-rule="evenodd" clip-rule="evenodd" d="M51.0639 31.6052C51.3902 31.1267 51.9397 30.8125 52.5625 30.8125H54.375C55.376 30.8125 56.1875 31.624 56.1875 32.625C56.1875 33.626 55.376 34.4375 54.375 34.4375H53.8518L50.7371 39.8323C50.202 40.7591 49.0168 41.0767 48.09 40.5416C47.1632 40.0065 46.8456 38.8213 47.3807 37.8945L50.8161 31.9442C50.8878 31.8201 50.9711 31.7069 51.0639 31.6052Z" fill="white"/>
<path d="M29.1864 3.625L35.2268 12.4684L22.7146 12.4025L29.1864 3.625Z" fill="white" fill-opacity="0.3"/>
<rect x="22.6562" y="13.3528" width="12.6871" height="1.14725" fill="white"/>
<path d="M35.3438 12.6597V5.3938L25.2687 12.6597H35.3438Z" fill="white" fill-opacity="0.8"/>
<path d="M22.6562 12.6597V5.3938L32.7313 12.6597H22.6562Z" fill="white"/>
<defs>
<linearGradient id="paint0_linear_434_36" x1="58" y1="29.0013" x2="-4.31595e-07" y2="29.0013" gradientUnits="userSpaceOnUse">
<stop stop-color="#6967F9"/>
<stop offset="1" stop-color="#997FFF"/>
</linearGradient>
</defs>
</svg>
