<svg width="156" height="156" viewBox="0 0 156 156" fill="none" xmlns="http://www.w3.org/2000/svg">
<g clip-path="url(#clip0_15_164)">
<path d="M23.5757 0V156.018" stroke="#DDDDDD"/>
<path d="M156 23.246H-0.0175781" stroke="#DDDDDD"/>
<path d="M59.8584 0V156.018" stroke="#DDDDDD"/>
<path d="M156 59.5177H-0.0175781" stroke="#DDDDDD"/>
<path d="M96.1416 0V156.018" stroke="#DDDDDD"/>
<path d="M156 95.7986H-0.0175781" stroke="#DDDDDD"/>
<path d="M132.424 0V156.018" stroke="#DDDDDD"/>
<path d="M156 132.044H-0.0175781" stroke="#DDDDDD"/>
</g>
<path d="M136.06 131.594C136.061 126.9 134.617 122.319 131.924 118.465C129.953 115.649 127.373 113.308 124.374 111.613C121.375 109.918 118.033 108.912 114.593 108.67L106.736 108.107C104.122 107.926 101.591 107.113 99.3645 105.739C97.0095 104.296 95.0661 102.276 93.7189 99.8733C92.3717 97.4702 91.6662 94.7636 91.6699 92.0119V78.9404H64.9224V92.0119C64.9248 94.7647 64.2175 97.472 62.8682 99.8753C61.519 102.279 59.5724 104.297 57.2153 105.739C54.9892 107.115 52.4585 107.928 49.844 108.107L41.9988 108.67C38.5584 108.912 35.2162 109.918 32.2173 111.613C29.2184 113.308 26.6388 115.649 24.6677 118.465C21.9744 122.319 20.5309 126.9 20.5313 131.594V147.183H136.014L136.06 131.594Z" fill="white"/>
<path d="M136.638 147.759H20V131.595C19.9936 126.793 21.4699 122.106 24.229 118.167C26.2395 115.274 28.879 112.869 31.9512 111.129C35.0235 109.39 38.4494 108.361 41.9758 108.119L49.8211 107.567C52.3401 107.376 54.7765 106.588 56.9267 105.268C59.2041 103.882 61.0843 101.935 62.3855 99.6148C63.6868 97.295 64.3655 94.6808 64.3561 92.0243V78.3779H92.259V92.0243C92.2497 94.6808 92.9284 97.295 94.2297 99.6148C95.5309 101.935 97.4111 103.882 99.6885 105.268C101.839 106.588 104.275 107.376 106.794 107.567L114.639 108.119C118.166 108.361 121.592 109.39 124.665 111.129C127.737 112.869 130.376 115.274 132.386 118.167C135.154 122.111 136.634 126.807 136.626 131.618L136.638 147.759ZM21.1554 146.609H135.483V131.595C135.488 127.019 134.08 122.553 131.45 118.799C129.537 116.049 127.027 113.762 124.105 112.108C121.183 110.454 117.924 109.476 114.57 109.246L106.725 108.682C104.017 108.494 101.396 107.654 99.0877 106.234C96.6437 104.744 94.6263 102.653 93.23 100.162C91.8337 97.6711 91.1057 94.8647 91.1155 92.0127V79.5161H65.5234V92.0127C65.5332 94.8647 64.8046 97.6711 63.4084 100.162C62.0121 102.653 59.9946 104.744 57.5507 106.234C55.2413 107.652 52.6208 108.492 49.9136 108.682L42.0684 109.246C38.7146 109.476 35.4562 110.454 32.534 112.108C29.6119 113.762 27.1011 116.049 25.1881 118.799C22.5525 122.55 21.1441 127.018 21.1554 131.595V146.609Z" fill="#333333"/>
<path d="M42.034 131.595C40.6416 137.04 39.8665 142.624 39.7231 148.241L42.034 131.595Z" fill="white"/>
<path d="M42.1492 130.479C41.5236 133.204 41.0645 135.964 40.7744 138.745C40.4894 141.527 40.3318 144.317 40.301 147.114C40.2995 147.19 40.2829 147.264 40.2525 147.333C40.2221 147.402 40.178 147.465 40.1233 147.517C40.0686 147.57 40.0044 147.611 39.9338 147.638C39.8631 147.666 39.7874 147.679 39.7115 147.677C39.6362 147.677 39.5615 147.663 39.492 147.634C39.4226 147.605 39.3597 147.562 39.307 147.508C39.2543 147.455 39.2129 147.391 39.1851 147.322C39.1574 147.252 39.1441 147.177 39.1456 147.103C39.3228 144.29 39.6348 141.485 40.0816 138.687C40.5196 135.904 41.133 133.151 41.9185 130.444C41.9267 130.413 41.9469 130.385 41.9749 130.368C42.0029 130.351 42.0364 130.346 42.0686 130.353C42.0928 130.364 42.1134 130.381 42.1278 130.404C42.1421 130.426 42.1494 130.452 42.1492 130.479Z" fill="#333333"/>
<path d="M115.171 131.595C116.56 137.041 117.335 142.624 117.482 148.241L115.171 131.595Z" fill="white"/>
<path d="M115.39 130.376C116.161 133.094 116.756 135.859 117.17 138.653C117.609 141.435 117.898 144.251 118.071 147.068C118.076 147.144 118.066 147.219 118.041 147.291C118.016 147.362 117.977 147.429 117.927 147.485C117.876 147.542 117.815 147.588 117.747 147.621C117.678 147.654 117.604 147.673 117.528 147.677C117.452 147.684 117.375 147.674 117.302 147.65C117.23 147.626 117.163 147.588 117.106 147.538C117.049 147.487 117.002 147.425 116.969 147.357C116.937 147.288 116.919 147.213 116.916 147.137C116.87 144.347 116.688 141.561 116.373 138.779C116.073 136.001 115.599 133.244 114.951 130.525C114.945 130.496 114.944 130.466 114.949 130.437C114.954 130.408 114.965 130.381 114.981 130.356C114.998 130.331 115.019 130.31 115.043 130.294C115.068 130.277 115.096 130.266 115.125 130.26C115.175 130.244 115.23 130.247 115.279 130.268C115.328 130.289 115.368 130.328 115.39 130.376Z" fill="#333333"/>
<path d="M70.1792 93.3799C70.1792 93.3799 74.3386 111.199 77.3773 114.223L70.1792 93.3799Z" fill="white"/>
<path d="M70.584 93.2882C71.4044 96.8751 72.3055 100.462 73.3338 104.003C73.8653 105.762 74.397 107.532 75.0325 109.257C75.5853 110.996 76.4116 112.638 77.4815 114.119C77.4962 114.132 77.5084 114.148 77.5165 114.166C77.5246 114.184 77.5289 114.203 77.5289 114.223C77.5289 114.243 77.5246 114.262 77.5165 114.28C77.5084 114.298 77.4962 114.313 77.4815 114.326C77.4535 114.353 77.4164 114.368 77.3777 114.368C77.3389 114.368 77.3019 114.353 77.2739 114.326C76.1436 112.829 75.2545 111.165 74.6392 109.395C73.946 107.67 73.3685 105.946 72.8023 104.152C71.6469 100.623 70.6878 97.0589 69.775 93.4606C69.7505 93.3524 69.7698 93.239 69.8281 93.1445C69.8863 93.05 69.979 92.982 70.087 92.9548C70.1957 92.9304 70.3097 92.949 70.4046 93.007C70.4996 93.065 70.5679 93.1578 70.5953 93.2652L70.584 93.2882Z" fill="#333333"/>
<path d="M91.2423 83.4248C91.2423 83.4248 84.98 102.52 81.999 105.544L91.2423 83.4248Z" fill="white"/>
<path d="M91.7628 83.5967C90.4225 87.402 89.0243 91.1614 87.5107 94.8862C86.7481 96.7486 85.9858 98.6111 85.1192 100.428C84.3305 102.302 83.297 104.064 82.0457 105.67C82.0113 105.702 81.966 105.72 81.9187 105.72C81.8714 105.72 81.8256 105.702 81.7912 105.67C81.762 105.636 81.7461 105.593 81.7461 105.549C81.7461 105.505 81.762 105.462 81.7912 105.428C82.9511 103.815 83.8985 102.061 84.6103 100.209C85.4076 98.381 86.1128 96.5072 86.8061 94.6333C88.181 90.874 89.4633 87.0685 90.6649 83.2517C90.7102 83.1075 90.8107 82.9871 90.9448 82.9161C91.0788 82.8451 91.2359 82.8294 91.3814 82.8726C91.5272 82.9201 91.6487 83.0225 91.7199 83.1577C91.7911 83.293 91.8065 83.4503 91.7628 83.5967Z" fill="#333333"/>
<path d="M57.389 108.107L73.8304 113.384C73.8829 113.403 73.9259 113.44 73.9517 113.489C73.9774 113.538 73.9835 113.595 73.9686 113.649C73.9621 113.675 73.9502 113.7 73.9336 113.721C73.917 113.743 73.896 113.76 73.8721 113.773C73.8482 113.786 73.822 113.794 73.7948 113.796C73.7677 113.799 73.7405 113.795 73.7147 113.787L57.0539 109.188C56.9068 109.145 56.7829 109.046 56.7092 108.913C56.6355 108.779 56.6178 108.622 56.6607 108.475C56.7012 108.33 56.7984 108.205 56.9303 108.13C57.0623 108.055 57.2188 108.034 57.3659 108.073L57.389 108.107Z" fill="#333333"/>
<path d="M98.6367 109.211L81.9759 113.81C81.9524 113.818 81.9276 113.822 81.9026 113.82C81.8775 113.818 81.8529 113.811 81.8309 113.799C81.8089 113.787 81.7899 113.771 81.7751 113.751C81.7602 113.73 81.7497 113.708 81.7446 113.683C81.7338 113.638 81.7413 113.589 81.7649 113.549C81.7885 113.508 81.8269 113.478 81.8721 113.465L98.3016 108.153C98.3736 108.128 98.4501 108.118 98.5262 108.123C98.6022 108.128 98.6765 108.149 98.7445 108.183C98.8125 108.217 98.8726 108.265 98.9216 108.323C98.9706 108.381 99.0078 108.449 99.03 108.521C99.0773 108.666 99.0649 108.824 98.9955 108.959C98.9262 109.095 98.8054 109.198 98.6599 109.245L98.6367 109.211Z" fill="#333333"/>
<path d="M78.2905 89.2416C94.3622 88.5748 98.3019 69.2492 98.3019 69.2492C98.3019 69.2492 101.896 69.916 102.739 61.5007C103.583 53.0853 99.0528 55.419 99.0528 55.419C99.3186 31.1962 86.3436 28.5867 80.7745 28.5752C79.1223 28.5752 77.4588 28.5752 75.8065 28.5752C70.2259 28.5752 57.2619 31.1962 57.5277 55.419C57.5277 55.419 53.0101 53.1198 53.842 61.5007C54.6739 69.8815 58.2791 69.2492 58.2791 69.2492C58.2791 69.2492 62.2189 88.5748 78.2905 89.2416Z" fill="white"/>
<path d="M78.2903 89.8169C63.3625 89.1961 58.5904 72.7906 57.8394 69.8246C57.2674 69.7455 56.726 69.5196 56.2682 69.1692C54.6738 68.0196 53.6685 65.4215 53.2872 61.5588C52.9406 58.1099 53.4493 55.8911 54.7896 54.9829C55.1103 54.7794 55.4692 54.6428 55.8445 54.5815C56.2199 54.5203 56.6036 54.5355 56.9729 54.6264C56.9729 44.6936 59.2838 37.382 63.709 32.8869C65.3024 31.3163 67.1932 30.0757 69.2716 29.237C71.35 28.3983 73.5748 27.9783 75.8176 28.0009C77.4814 28.0009 79.1452 28.0009 80.7974 28.0009C83.042 27.9774 85.2692 28.3972 87.3496 29.2359C89.4301 30.0746 91.3227 31.3155 92.9179 32.8869C97.3778 37.382 99.6419 44.6936 99.6534 54.6264C100.021 54.5351 100.403 54.5197 100.777 54.581C101.15 54.6422 101.508 54.7791 101.826 54.9829C103.178 55.8911 103.675 58.0984 103.34 61.5588C102.947 65.4215 101.941 67.9736 100.347 69.1692C99.891 69.5229 99.3487 69.7492 98.7756 69.8246C98.0361 72.7906 93.2644 89.1961 78.3366 89.8169H78.2903ZM58.7291 68.5832L58.8448 69.135C58.8448 69.3189 62.8772 88.0005 78.2903 88.6788C93.6918 88.012 97.6896 69.3304 97.7358 69.135L97.8396 68.5832L98.4061 68.6865C98.874 68.693 99.327 68.5249 99.6766 68.2152C100.578 67.5139 101.734 65.7778 102.161 61.4437C102.554 57.5119 101.699 56.305 101.167 55.9372C100.88 55.7945 100.564 55.7202 100.243 55.7202C99.9221 55.7202 99.6059 55.7945 99.3189 55.9372L98.4636 56.3739V55.4196C98.5676 45.4063 96.4185 38.0947 92.0626 33.7031C90.5737 32.2413 88.8084 31.0875 86.8689 30.3081C84.9295 29.5287 82.8546 29.1392 80.763 29.1621C79.1108 29.1621 77.4467 29.1621 75.7944 29.1621C73.7029 29.1392 71.6274 29.5287 69.688 30.3081C67.7485 31.0875 65.9837 32.2413 64.4948 33.7031C60.139 38.0947 57.9783 45.4063 58.0939 55.4196V56.3854L57.2386 55.9372C56.9516 55.7945 56.6353 55.7202 56.3145 55.7202C55.9936 55.7202 55.6774 55.7945 55.3904 55.9372C54.8473 56.305 54.0035 57.5119 54.3963 61.4437C54.8354 65.8353 56.0025 67.5714 56.9153 68.2497C57.2599 68.5408 57.6995 68.6961 58.1514 68.6865L58.7291 68.5832Z" fill="#333333"/>
<path d="M57.944 56.0863L60.0698 49.4759C60.3911 48.7741 60.871 48.1556 61.4723 47.669C62.0736 47.1823 62.78 46.8409 63.536 46.6709C64.926 46.3245 66.2684 45.811 67.5337 45.1418C68.789 44.503 69.9199 43.6466 70.8729 42.6126C71.8032 41.5897 72.49 40.3716 72.883 39.0486C72.9378 38.9043 73.0466 38.7867 73.1866 38.7203C73.3265 38.6538 73.4867 38.644 73.6339 38.6925C73.7439 38.7346 73.8401 38.8061 73.9115 38.8993C75.4458 41.0306 77.2429 42.9618 79.2609 44.6475C81.2486 46.3583 83.5577 47.6593 86.0545 48.4756C87.3114 48.8523 88.6131 49.0611 89.9253 49.0965C91.2913 49.1797 92.6341 49.4866 93.8998 50.0047C95.183 50.5224 96.307 51.3671 97.1584 52.4536C98.0057 53.5384 98.5191 54.844 98.6371 56.2129C98.6404 56.2538 98.6278 56.2943 98.6021 56.3263C98.5763 56.3584 98.5391 56.3795 98.4983 56.3853C98.4591 56.3857 98.4214 56.3719 98.3916 56.3465C98.3619 56.3212 98.3425 56.2858 98.3369 56.2472C98.1793 54.9572 97.6583 53.7379 96.8346 52.7295C96.0038 51.7275 94.9245 50.9585 93.7035 50.499C92.4776 50.0443 91.1864 49.7882 89.879 49.7403C88.5174 49.7298 87.1628 49.5483 85.8469 49.2C83.2285 48.4154 80.7907 47.1264 78.6719 45.4062C76.5342 43.7363 74.6166 41.805 72.9643 39.658L73.9922 39.4972C73.4966 40.9573 72.6797 42.2887 71.6007 43.3943C70.5389 44.4765 69.2906 45.3604 67.915 46.004C66.5735 46.6551 65.1575 47.1415 63.6979 47.4526C63.0197 47.5703 62.3792 47.8464 61.8289 48.2581C61.2786 48.6698 60.8339 49.2053 60.5318 49.8209L58.221 56.3622C58.2161 56.3838 58.2066 56.404 58.1928 56.4215C58.1791 56.4389 58.162 56.4531 58.1421 56.463C58.1222 56.4729 58.1 56.4783 58.0777 56.4787C58.0555 56.4792 58.0337 56.4749 58.0134 56.4658C57.9884 56.4703 57.9627 56.4698 57.9378 56.4644C57.913 56.4591 57.8894 56.4491 57.8684 56.4347C57.8262 56.4056 57.797 56.3609 57.7878 56.3106C57.7786 56.2603 57.7901 56.2084 57.8194 56.1663C57.8486 56.1243 57.8935 56.0955 57.944 56.0863Z" fill="#333333"/>
<path d="M41 90.5V115" stroke="#62FFD0" stroke-linecap="round"/>
<path d="M43.0009 92.0004L41.0005 90L39.0001 92.0004" stroke="#62FFD0" stroke-linecap="round" stroke-linejoin="round"/>
<path d="M39.0001 113.001L41.0005 115.001L43.0009 113.001" stroke="#62FFD0" stroke-linecap="round" stroke-linejoin="round"/>
<path d="M115 90.5V115" stroke="#62FFD0" stroke-linecap="round"/>
<path d="M117.001 92.0004L115 90L113 92.0004" stroke="#62FFD0" stroke-linecap="round" stroke-linejoin="round"/>
<path d="M113 113.001L115 115.001L117.001 113.001" stroke="#62FFD0" stroke-linecap="round" stroke-linejoin="round"/>
<path d="M12.4004 133.503L10 135L11.497 137.4" stroke="#1EACFC" stroke-linecap="round" stroke-linejoin="round"/>
<path d="M142.27 133.992L144.798 135.262L143.528 137.79" stroke="#1EACFC" stroke-linecap="round" stroke-linejoin="round"/>
<path d="M145 135.361C128.04 138.837 104.455 140.992 78.3766 140.992C51.3868 140.992 27.0678 138.684 10 134.992" stroke="#1EACFC"/>
<defs>
<clipPath id="clip0_15_164">
<rect width="156" height="156" fill="white"/>
</clipPath>
</defs>
</svg>
