<svg width="170" height="170" viewBox="0 0 170 170" fill="none" xmlns="http://www.w3.org/2000/svg">
<path d="M120 48.3828C120 24.9107 106.121 5.88281 89 5.88281" stroke="#FABF48" stroke-width="2" stroke-linecap="round"/>
<path d="M120.074 50.4043C119.825 49.414 118.68 47.3045 116.088 46.7894" stroke="#FABF48" stroke-width="2" stroke-linecap="round"/>
<path d="M120.199 50.3984C120.35 49.3886 121.285 47.1776 123.814 46.4127" stroke="#FABF48" stroke-width="2" stroke-linecap="round"/>
<path d="M127.316 102.16C124.023 101.196 120.802 100 117.679 98.5801L110.508 159.89C118.586 157.941 126.465 155.242 134.041 151.827C136.612 150.692 138.8 148.836 140.338 146.484C141.877 144.132 142.701 141.384 142.711 138.574V122.732C142.711 113.877 135.8 104.649 127.316 102.16Z" fill="white"/>
<path fill-rule="evenodd" clip-rule="evenodd" d="M115.523 96.2036C119.405 98.1573 123.468 99.7546 127.663 100.97C136.643 103.595 143.95 113.368 144 122.818V138.66C143.992 141.709 143.101 144.69 141.435 147.244C139.769 149.798 137.399 151.815 134.611 153.052C126.825 156.561 118.721 159.319 110.41 161.288C102.879 163.065 95.1714 163.979 87.4343 164.013C69.7271 164.18 52.4402 158.619 38.1512 148.159C36.0711 146.61 34.0705 144.956 32.1567 143.205C30.488 141.688 29.1642 139.83 28.2753 137.758C27.3864 135.685 26.9529 133.446 27.004 131.191C27.2518 122.273 29.0355 111.015 36.4669 107.658C45.6448 103.459 69.6608 93.5135 69.9085 93.4144H70.0325L102.396 87.6426L102.619 87.8408C106.191 90.7516 110.029 93.2994 114.076 95.4542L115.523 96.2036ZM140.339 146.483C141.878 144.131 142.702 141.383 142.712 138.573L142.737 122.731C142.737 113.876 135.826 104.636 127.341 102.159C124.049 101.196 120.828 99.9994 117.705 98.5792C115.315 97.4892 113.159 96.3622 111.264 95.2723C108.013 93.4411 104.93 91.3274 102.049 88.9555L70.3422 94.6158C70.1312 94.7069 69.4024 95.0096 68.2886 95.4721C66.5252 96.2044 63.7968 97.3375 60.6313 98.6659L51.7883 102.382C46.0908 104.797 40.4305 107.224 36.9254 108.822C29.7788 112.08 28.3912 124.243 28.193 131.203C28.1435 133.281 28.5431 135.344 29.3639 137.253C30.1847 139.162 31.4072 140.871 32.949 142.264C34.46 143.639 36.3055 145.199 38.4978 146.834C51.2056 156.309 75.358 168.162 110.509 159.889C118.587 157.94 126.466 155.241 134.042 151.826C136.613 150.691 138.801 148.835 140.339 146.483Z" fill="#0D1719"/>
<path d="M102.026 88.957L70.3185 94.6173C69.7736 94.8526 65.7725 96.4999 60.6077 98.6674L55.7773 118.311C55.7773 118.311 70.3431 128.381 101.369 124.318L111.278 95.2737C108.014 93.4445 104.918 91.3307 102.026 88.957Z" fill="white"/>
<path d="M28.1916 131.205C28.142 133.282 28.5416 135.345 29.3624 137.254C30.1833 139.163 31.4058 140.872 32.9475 142.265C34.4586 143.64 36.3041 145.2 38.4964 146.835L51.7621 102.383C46.0894 104.86 40.4291 107.226 36.8991 108.823C29.7773 112.081 28.3898 124.244 28.1916 131.205Z" fill="white"/>
<path d="M111.238 95.2734L102.035 122.361C101.839 122.95 101.477 123.47 100.995 123.861C100.512 124.252 99.9274 124.496 99.3104 124.566C76.6815 127.142 63.2061 122.089 58.1156 119.612C57.4469 119.281 56.91 118.734 56.5927 118.059C56.2755 117.384 56.1965 116.621 56.369 115.896L60.6048 98.6795L51.7618 102.395L38.4961 146.848C51.2039 156.323 75.3563 168.176 110.507 159.902L117.679 98.5927C115.288 97.4904 113.133 96.3634 111.238 95.2734Z" fill="#045135"/>
<path d="M102.435 91.5938C105.742 96.8206 100.516 106.048 90.768 112.204C81.0204 118.359 70.4305 119.115 67.1358 113.888C65.6991 111.622 65.8975 108.612 67.3342 105.416C68.7749 102.356 69.5191 99.014 69.5138 95.6314L69.3904 87.6551L99.438 69.3984L102.435 91.5938Z" fill="#F7CCBC"/>
<path d="M79.5676 36.3673C68.631 36.3673 57.4468 37.9898 54.5856 51.8123C54.4122 52.8403 54.4368 73.5246 58.103 84.2507C59.4098 88.0279 61.8225 91.3249 65.0271 93.7135C66.4209 94.7686 67.9138 95.6853 69.4855 96.4507C71.6803 97.6659 74.131 98.3464 76.6381 98.4367C79.1453 98.5271 81.6387 98.0249 83.9154 96.9709C98.7783 90.6666 106.21 79.7547 107.448 66.8858C107.809 63.0106 107.356 59.1027 106.118 55.4128C104.88 51.723 102.884 48.3326 100.259 45.4591C97.6337 42.5857 94.4371 40.2925 90.8739 38.7268C87.3107 37.1611 83.4597 36.3574 79.5676 36.3673Z" fill="#FCDAC8"/>
<path d="M77.2284 99.1254C74.4253 99.0765 71.6728 98.3723 69.1904 97.0694C67.584 96.2861 66.0573 95.3486 64.6322 94.2702C61.3276 91.8075 58.8418 88.4064 57.4983 84.5102C53.8692 73.9203 53.7827 53.0504 53.9561 51.7747V50.9324H54.1291C57.2503 37.5433 68.187 35.6855 79.5695 35.6855C83.5328 35.6958 87.4508 36.5289 91.0753 38.1322C94.6998 39.7355 97.9517 42.0739 100.625 44.9995C103.322 47.9362 105.368 51.4095 106.63 55.1916C107.891 58.9738 108.339 62.9797 107.945 66.9472C106.707 80.8812 98.4081 91.4586 84.0902 97.54C81.934 98.528 79.5995 99.0674 77.2284 99.1254ZM55.1699 52.0595C55.0584 54.3756 55.1694 73.7965 58.6746 84.1015C59.9301 87.7672 62.2663 90.9669 65.3755 93.2794C66.7437 94.3064 68.2031 95.206 69.7353 95.967C71.8505 97.1467 74.2159 97.8069 76.6363 97.8931C79.0568 97.9792 81.4634 97.4888 83.6572 96.4625C97.5292 90.5792 105.518 80.361 106.757 66.8976C107.141 63.0929 106.716 59.2499 105.51 55.621C104.304 51.9921 102.344 48.6595 99.7587 45.8418C97.1952 43.0383 94.0762 40.7989 90.6006 39.2658C87.1249 37.7327 83.3683 36.9395 79.5695 36.9365C60.867 36.9365 56.8048 44.1202 55.1947 51.8861L55.1699 52.0595Z" fill="#0D1719"/>
<path d="M102.274 62.265L102.485 62.4385C104.086 63.8302 105.247 65.6586 105.826 67.7C106.405 69.7414 106.375 71.9074 105.742 73.9325L104.231 78.7382C104.231 78.7382 113.137 78.3046 116.815 49.26C120.184 22.6058 96.4653 22.2589 96.4653 22.2589C96.4653 22.2589 73.9976 8.17632 56.9052 22.2589C43.5534 33.2204 54.5889 51.8486 54.5889 51.8486C54.5889 51.8486 58.6141 35.4375 78.8277 38.9551C79.4699 39.0707 80.073 39.3455 80.5815 39.7545C81.09 40.1634 81.4878 40.6934 81.7384 41.2959C83.2991 44.9373 87.4855 52.6165 95.1275 53.1119C96.0015 53.1884 96.8236 53.56 97.4583 54.1655C98.0931 54.771 98.5025 55.5745 98.6201 56.4438L99.2394 60.6178C99.2874 60.9504 99.4121 61.2672 99.6029 61.5439C99.7936 61.8205 100.046 62.0494 100.339 62.2124C100.633 62.3755 100.961 62.4684 101.296 62.484C101.632 62.4995 101.967 62.4374 102.274 62.3022V62.265Z" fill="#0D1719"/>
<path d="M100.02 64.0492C101.705 60.3335 102.82 56.4816 107.192 59.0083C108.7 59.801 109.848 61.1406 110.401 62.7526C110.953 64.3645 110.869 66.1268 110.164 67.6783C108.405 71.2826 105.408 75.5556 101.63 72.2858C100.518 71.2647 99.7609 69.9142 99.4711 68.4322C99.1814 66.9501 99.3741 65.4141 100.02 64.0492Z" fill="#FCDAC8"/>
<path d="M64.0873 69.3376C65.2228 69.3376 66.1433 67.918 66.1433 66.1668C66.1433 64.4157 65.2228 62.9961 64.0873 62.9961C62.9518 62.9961 62.0312 64.4157 62.0312 66.1668C62.0312 67.918 62.9518 69.3376 64.0873 69.3376Z" fill="#0D1719"/>
<path d="M79.0599 71.5544C80.1955 71.5544 81.116 70.1348 81.116 68.3836C81.116 66.6325 80.1955 65.2129 79.0599 65.2129C77.9244 65.2129 77.0039 66.6325 77.0039 68.3836C77.0039 70.1348 77.9244 71.5544 79.0599 71.5544Z" fill="#0D1719"/>
<path d="M68.1876 76.8307C68.0316 76.8344 67.8805 76.7766 67.7667 76.6697L65.9953 75.01C65.5978 74.6416 65.3455 74.1428 65.2841 73.6042C65.2227 73.0657 65.3564 72.5231 65.6609 72.0746L65.8713 71.7526C66.7589 70.4329 67.2937 68.9076 67.4238 67.3225C67.5539 65.7374 67.2751 64.1453 66.6146 62.6985C66.5793 62.6255 66.5588 62.5462 66.5547 62.4652C66.5506 62.3842 66.5633 62.3033 66.591 62.2271C66.6187 62.1509 66.661 62.081 66.7162 62.0216C66.7714 61.9622 66.8382 61.9143 66.9122 61.881C67.0634 61.8135 67.2347 61.8081 67.3899 61.866C67.5452 61.924 67.6718 62.0405 67.7419 62.1907C68.4931 63.8287 68.8099 65.6325 68.6624 67.4286C68.5149 69.2247 67.9078 70.9526 66.8995 72.4461L66.689 72.7682C66.5513 72.9726 66.4906 73.2193 66.5178 73.4642C66.5451 73.7092 66.6586 73.9365 66.8378 74.1058L68.6085 75.7656C68.7228 75.8834 68.787 76.0411 68.787 76.2052C68.787 76.3694 68.7228 76.5271 68.6085 76.6449C68.4952 76.7556 68.3458 76.8216 68.1876 76.8307Z" fill="#0D1719"/>
<path d="M66.1423 61.2618C66.0613 61.2614 65.9808 61.2448 65.9064 61.2129C65.8319 61.1809 65.7648 61.1345 65.7086 61.0762C65.1164 60.4761 64.3379 60.0952 63.5006 59.9962C62.6633 59.8972 61.8168 60.0857 61.1009 60.5311C60.959 60.6141 60.7905 60.6385 60.6309 60.5992C60.4714 60.5598 60.3334 60.46 60.2463 60.3207C60.1633 60.1788 60.1393 60.0102 60.1786 59.8506C60.2179 59.691 60.318 59.553 60.4574 59.466C61.4111 58.8758 62.5369 58.6267 63.6506 58.7594C64.7643 58.8922 65.7996 59.3989 66.588 60.1967C66.7022 60.3145 66.7664 60.4722 66.7664 60.6364C66.7664 60.8005 66.7022 60.9583 66.588 61.0762C66.4698 61.1947 66.3096 61.2614 66.1423 61.2618Z" fill="#0D1719"/>
<path d="M82.3694 61.894C82.2891 61.8966 82.2088 61.8825 82.1342 61.8527C82.0596 61.8229 81.9922 61.7778 81.9358 61.7206C81.3451 61.1185 80.5669 60.7354 79.7296 60.6341C78.8923 60.5328 78.0453 60.7194 77.328 61.1633C77.259 61.2065 77.1822 61.2357 77.1019 61.2491C77.0215 61.2626 76.9393 61.26 76.8599 61.2416C76.7806 61.2232 76.7055 61.1892 76.6392 61.1418C76.5729 61.0943 76.5165 61.0343 76.4735 60.965C76.4308 60.8952 76.4026 60.8176 76.39 60.7367C76.3775 60.6559 76.3813 60.5734 76.4009 60.4939C76.4205 60.4144 76.4551 60.3396 76.5037 60.2738C76.5524 60.208 76.6137 60.1525 76.684 60.1105C77.6377 59.5203 78.7635 59.2712 79.8772 59.404C80.9909 59.5367 82.0268 60.0434 82.8152 60.8412C82.9294 60.9591 82.993 61.1167 82.993 61.2809C82.993 61.445 82.9294 61.6027 82.8152 61.7206C82.756 61.7776 82.6861 61.8223 82.6095 61.8521C82.533 61.8819 82.4515 61.8961 82.3694 61.894Z" fill="#0D1719"/>
<path d="M73.6746 82.5403C73.0179 82.5408 72.3677 82.4108 71.7617 82.1578C71.1557 81.9047 70.6058 81.5338 70.1445 81.0664C70.0853 81.0108 70.0377 80.9435 70.0054 80.869C69.9731 80.7944 69.957 80.7141 69.957 80.6328C69.957 80.5516 69.9731 80.4712 70.0054 80.3967C70.0377 80.3221 70.0853 80.2549 70.1445 80.1993C70.2001 80.1401 70.2671 80.093 70.3417 80.0607C70.4162 80.0284 70.4969 80.0117 70.5781 80.0117C70.6594 80.0117 70.7394 80.0284 70.814 80.0607C70.8886 80.093 70.9556 80.1401 71.0112 80.1993C71.6034 80.7995 72.3825 81.1803 73.2198 81.2793C74.0571 81.3784 74.903 81.1898 75.6189 80.7444C75.6888 80.7017 75.7666 80.6732 75.8475 80.6606C75.9284 80.6481 76.0106 80.6518 76.09 80.6714C76.1695 80.691 76.2444 80.7261 76.3102 80.7748C76.376 80.8235 76.4315 80.8846 76.4735 80.9549C76.5164 81.023 76.5455 81.0991 76.5587 81.1785C76.572 81.2579 76.5693 81.3391 76.5509 81.4175C76.5324 81.4959 76.4984 81.5699 76.4511 81.6351C76.4038 81.7003 76.3439 81.7553 76.2751 81.7972C75.4938 82.2814 74.5937 82.5386 73.6746 82.5403Z" fill="#F66D62"/>
<path d="M102.271 89.205C102.123 89.2035 101.98 89.149 101.869 89.0513C101.758 88.9536 101.685 88.8191 101.664 88.6724L100.698 83.7181C100.686 83.6373 100.69 83.5551 100.711 83.476C100.731 83.397 100.767 83.3228 100.817 83.258C100.866 83.1932 100.929 83.1392 101 83.0991C101.071 83.059 101.15 83.0336 101.231 83.0246C101.311 83.0105 101.393 83.0131 101.472 83.032C101.551 83.0509 101.625 83.0857 101.69 83.1345C101.755 83.1832 101.809 83.2447 101.85 83.3153C101.89 83.3859 101.916 83.4641 101.925 83.5448L102.89 88.4991C102.903 88.5799 102.898 88.6621 102.878 88.7412C102.857 88.8202 102.822 88.8944 102.772 88.9592C102.722 89.024 102.66 89.078 102.589 89.1181C102.518 89.1582 102.439 89.1836 102.358 89.1926L102.271 89.205Z" fill="#0D1719"/>
<path d="M116 91.8828V110.383" stroke="#62FFD0" stroke-width="2" stroke-linecap="round"/>
<path d="M115.805 89.8828C115.604 90.8841 114.563 93.0469 112 93.6877" stroke="#62FFD0" stroke-width="2" stroke-linecap="round"/>
<path d="M115.93 89.8828C116.13 90.8841 117.171 93.0469 119.735 93.6877" stroke="#62FFD0" stroke-width="2" stroke-linecap="round"/>
<path d="M55.7344 108.383L55.7344 89.8828" stroke="#62FFD0" stroke-width="2" stroke-linecap="round"/>
<path d="M55.9297 110.383C56.1299 109.382 57.1713 107.219 59.7346 106.578" stroke="#62FFD0" stroke-width="2" stroke-linecap="round"/>
<path d="M55.8047 110.383C55.6044 109.382 54.5631 107.219 51.9998 106.578" stroke="#62FFD0" stroke-width="2" stroke-linecap="round"/>
<path d="M58 48.3828C58 24.9107 71.8792 5.88281 89 5.88281" stroke="#FABF48" stroke-width="2" stroke-linecap="round"/>
<path d="M57.9258 50.4043C58.1746 49.414 59.3201 47.3045 61.9116 46.7894" stroke="#FABF48" stroke-width="2" stroke-linecap="round"/>
<path d="M57.8008 50.3984C57.6496 49.3886 56.7149 47.1776 54.1859 46.4127" stroke="#FABF48" stroke-width="2" stroke-linecap="round"/>
<path d="M133.102 50.892C136.501 34.3938 116.416 16.314 88.2415 10.5097C60.0667 4.70534 34.4713 13.3745 31.0724 29.8727" stroke="#FF6D3B" stroke-width="2" stroke-linecap="round"/>
<path d="M132.926 53.4043C133.175 52.414 134.32 50.3045 136.912 49.7894" stroke="#FF6D3B" stroke-width="2" stroke-linecap="round"/>
<path d="M132.801 53.3984C132.65 52.3886 131.715 50.1776 129.186 49.4127" stroke="#FF6D3B" stroke-width="2" stroke-linecap="round"/>
<path d="M30.9258 32.4043C31.1746 31.414 32.3201 29.3045 34.9116 28.7894" stroke="#FF6D3B" stroke-width="2" stroke-linecap="round"/>
<path d="M30.8008 32.3984C30.6496 31.3886 29.7149 29.1776 27.1859 28.4127" stroke="#FF6D3B" stroke-width="2" stroke-linecap="round"/>
<path d="M44.7288 45.9551C32.1378 46.4672 23.982 48.6212 23.4661 52.2348C22.638 58.0348 41.7572 65.7324 68.3136 70.8964M132.805 59.61C141.759 63.1001 146.956 66.7197 146.516 69.803C145.668 75.7439 124.171 77.7396 96.2642 74.9806" stroke="#6967F9" stroke-width="2" stroke-linecap="round" stroke-linejoin="round"/>
<path d="M70.1797 71.2461C69.4493 70.9241 67.9744 69.7638 67.9184 67.6991" stroke="#6967F9" stroke-width="2" stroke-linecap="round"/>
<path d="M70.1602 71.3418C69.3621 71.3255 67.5354 71.7549 66.6132 73.6031" stroke="#6967F9" stroke-width="2" stroke-linecap="round"/>
<path d="M133.098 59.6113C133.791 60.0068 135.139 61.3125 134.982 63.3721" stroke="#6967F9" stroke-width="2" stroke-linecap="round"/>
<path d="M133.129 59.5176C133.921 59.6159 135.782 59.3766 136.89 57.633" stroke="#6967F9" stroke-width="2" stroke-linecap="round"/>
<path d="M23 128L146 144" stroke="#1EACFC" stroke-width="2" stroke-linecap="round"/>
<path d="M148.754 144.387C147.799 144.026 145.835 142.645 145.621 140.012" stroke="#1EACFC" stroke-width="2" stroke-linecap="round"/>
<path d="M148.734 144.51C147.714 144.544 145.41 145.218 144.359 147.642" stroke="#1EACFC" stroke-width="2" stroke-linecap="round"/>
<path d="M19.7773 127.275C20.7167 127.676 22.6215 129.136 22.7258 131.777" stroke="#1EACFC" stroke-width="2" stroke-linecap="round"/>
<path d="M19.8008 127.152C20.8219 127.161 23.1516 126.582 24.302 124.204" stroke="#1EACFC" stroke-width="2" stroke-linecap="round"/>
</svg>
