<svg width="300" height="198" viewBox="0 0 300 198" fill="none" xmlns="http://www.w3.org/2000/svg">
<path d="M151 46.2402L151 189.85" stroke="#DDDDDD" stroke-miterlimit="10" stroke-linecap="round"/>
<path d="M206.688 93.2207L198.934 106.752" stroke="#DDDDDD" stroke-miterlimit="10"/>
<path d="M94.1641 92.25L101.911 105.774" stroke="#DDDDDD" stroke-miterlimit="10"/>
<path d="M52.7188 133.799L66.138 141.614" stroke="#DDDDDD" stroke-miterlimit="10"/>
<path d="M37 189.9H262" stroke="#DDDDDD" stroke-miterlimit="10"/>
<path d="M247.454 135.197L234.035 143.005" stroke="#DDDDDD" stroke-miterlimit="10"/>
<path d="M147 49.2734L151 45.2281L155 49.2734" stroke="#DDDDDD" stroke-linecap="round" stroke-linejoin="round"/>
<path d="M41 193.895L37 189.849L41 185.804" stroke="#DDDDDD" stroke-linecap="round" stroke-linejoin="round"/>
<path d="M258 185.803L262 189.848L258 193.893" stroke="#DDDDDD" stroke-linecap="round" stroke-linejoin="round"/>
<path d="M284.87 190.007C284.87 191.397 286.14 192.287 288.69 192.287C291.23 192.287 292.47 191.397 292.47 190.007C292.47 188.607 291.24 187.717 288.69 187.717C286.14 187.717 284.87 188.607 284.87 190.007ZM285.6 190.007C285.6 189.167 286.53 188.607 288.69 188.607C290.83 188.607 291.74 189.167 291.74 190.007C291.74 190.837 290.83 191.397 288.69 191.397C286.53 191.397 285.6 190.837 285.6 190.007Z" fill="#FF6D3B"/>
<path d="M268 182.06L268 186.08L268.76 186.08L268.76 184.61L275.34 184.61L275.34 183.91C275.1 183.51 274.93 183.04 274.81 182.39L274.23 182.39L274.23 183.69L268.76 183.69L268.76 182.06L268 182.06ZM267.87 189.517C267.87 190.897 268.7 191.817 269.77 191.817C270.77 191.817 271.32 191.217 271.69 190.577L271.74 190.577C272.08 191.017 272.74 191.557 273.51 191.557C274.64 191.557 275.44 190.797 275.44 189.547C275.44 188.407 274.7 187.537 273.58 187.537C272.81 187.537 272.26 187.987 271.89 188.527L271.84 188.527C271.48 187.857 270.8 187.177 269.82 187.177C268.69 187.177 267.87 188.167 267.87 189.517ZM271.98 190.017C272.32 189.157 272.7 188.367 273.58 188.367C274.29 188.367 274.77 188.857 274.77 189.537C274.77 190.327 274.18 190.777 273.46 190.777C272.92 190.777 272.42 190.517 271.98 190.017ZM268.55 189.537C268.55 188.657 269.12 188.007 269.9 188.007C270.6 188.007 271.18 188.417 271.56 189.007C271.14 190.047 270.77 190.947 269.79 190.947C269.06 190.947 268.55 190.377 268.55 189.537ZM267.87 195.053C267.87 196.443 269.14 197.333 271.69 197.333C274.23 197.333 275.47 196.443 275.47 195.053C275.47 193.653 274.24 192.763 271.69 192.763C269.14 192.763 267.87 193.653 267.87 195.053ZM268.6 195.053C268.6 194.213 269.53 193.653 271.69 193.653C273.83 193.653 274.74 194.213 274.74 195.053C274.74 195.883 273.83 196.443 271.69 196.443C269.53 196.443 268.6 195.883 268.6 195.053Z" fill="#333333"/>
<path d="M14 196.94L14 192.92L13.24 192.92L13.24 194.39L6.66 194.39L6.66 195.09C6.9 195.49 7.07 195.96 7.19 196.61L7.77 196.61L7.77 195.31L13.24 195.31L13.24 196.94L14 196.94ZM14.13 189.483C14.13 188.103 13.3 187.183 12.23 187.183C11.23 187.183 10.68 187.783 10.31 188.423L10.26 188.423C9.92 187.983 9.26 187.443 8.49 187.443C7.36 187.443 6.56 188.203 6.56 189.453C6.56 190.593 7.3 191.463 8.42 191.463C9.19 191.463 9.74 191.013 10.11 190.473L10.16 190.473C10.52 191.143 11.2 191.823 12.18 191.823C13.31 191.823 14.13 190.833 14.13 189.483ZM10.02 188.983C9.68 189.843 9.3 190.633 8.42 190.633C7.71 190.633 7.23 190.143 7.23 189.463C7.23 188.673 7.82 188.223 8.54 188.223C9.08 188.223 9.58 188.483 10.02 188.983ZM13.45 189.463C13.45 190.343 12.88 190.993 12.1 190.993C11.4 190.993 10.82 190.583 10.44 189.993C10.86 188.953 11.23 188.053 12.21 188.053C12.94 188.053 13.45 188.623 13.45 189.463ZM14.13 183.947C14.13 182.557 12.86 181.667 10.31 181.667C7.77 181.667 6.53 182.557 6.53 183.947C6.53 185.347 7.76 186.237 10.31 186.237C12.86 186.237 14.13 185.347 14.13 183.947ZM13.4 183.947C13.4 184.787 12.47 185.347 10.31 185.347C8.17 185.347 7.26 184.787 7.26 183.947C7.26 183.117 8.17 182.557 10.31 182.557C12.47 182.557 13.4 183.117 13.4 183.947Z" fill="#FF6D3B"/>
<path d="M31.13 189.993C31.13 188.603 29.86 187.713 27.31 187.713C24.77 187.713 23.53 188.603 23.53 189.993C23.53 191.393 24.76 192.283 27.31 192.283C29.86 192.283 31.13 191.393 31.13 189.993ZM30.4 189.993C30.4 190.833 29.47 191.393 27.31 191.393C25.17 191.393 24.26 190.833 24.26 189.993C24.26 189.163 25.17 188.603 27.31 188.603C29.47 188.603 30.4 189.163 30.4 189.993Z" fill="#333333"/>
<path d="M146.753 8.91C146.753 7.91 147.293 7.25 147.993 7.25C148.933 7.25 149.493 8.05 149.593 9.56C149.123 10.25 148.563 10.54 148.063 10.54C147.193 10.54 146.753 9.9 146.753 8.91ZM147.793 14.13C149.173 14.13 150.453 12.99 150.453 10.02C150.453 7.69 149.403 6.53 147.993 6.53C146.853 6.53 145.893 7.49 145.893 8.91C145.893 10.43 146.693 11.22 147.913 11.22C148.523 11.22 149.153 10.87 149.603 10.32C149.533 12.59 148.713 13.37 147.763 13.37C147.293 13.37 146.843 13.16 146.543 12.81L146.033 13.38C146.443 13.81 147.003 14.13 147.793 14.13ZM153.78 14.13C155.17 14.13 156.06 12.86 156.06 10.31C156.06 7.77 155.17 6.53 153.78 6.53C152.38 6.53 151.49 7.76 151.49 10.31C151.49 12.86 152.38 14.13 153.78 14.13ZM153.78 13.4C152.94 13.4 152.38 12.47 152.38 10.31C152.38 8.17 152.94 7.26 153.78 7.26C154.61 7.26 155.17 8.17 155.17 10.31C155.17 12.47 154.61 13.4 153.78 13.4Z" fill="#FF6D3B"/>
<path d="M146.753 25.91C146.753 24.91 147.293 24.25 147.993 24.25C148.933 24.25 149.493 25.05 149.593 26.56C149.123 27.25 148.563 27.54 148.063 27.54C147.193 27.54 146.753 26.9 146.753 25.91ZM147.793 31.13C149.173 31.13 150.453 29.99 150.453 27.02C150.453 24.69 149.403 23.53 147.993 23.53C146.853 23.53 145.893 24.49 145.893 25.91C145.893 27.43 146.693 28.22 147.913 28.22C148.523 28.22 149.153 27.87 149.603 27.32C149.533 29.59 148.713 30.37 147.763 30.37C147.293 30.37 146.843 30.16 146.543 29.81L146.033 30.38C146.443 30.81 147.003 31.13 147.793 31.13ZM153.78 31.13C155.17 31.13 156.06 29.86 156.06 27.31C156.06 24.77 155.17 23.53 153.78 23.53C152.38 23.53 151.49 24.76 151.49 27.31C151.49 29.86 152.38 31.13 153.78 31.13ZM153.78 30.4C152.94 30.4 152.38 29.47 152.38 27.31C152.38 25.17 152.94 24.26 153.78 24.26C154.61 24.26 155.17 25.17 155.17 27.31C155.17 29.47 154.61 30.4 153.78 30.4Z" fill="#333333"/>
<path d="M151 112C157.075 112 162 101.031 162 87.5C162 73.969 157.075 63 151 63" stroke="#6967F9"/>
<path d="M207.06 174.595C207.061 169.901 205.617 165.32 202.924 161.466C200.953 158.65 198.373 156.309 195.374 154.614C192.375 152.919 189.033 151.913 185.593 151.671L177.736 151.108C175.122 150.927 172.591 150.114 170.364 148.74C168.01 147.297 166.066 145.277 164.719 142.874C163.372 140.471 162.666 137.765 162.67 135.013V121.941H135.922V135.013C135.925 137.766 135.217 140.473 133.868 142.876C132.519 145.279 130.572 147.298 128.215 148.74C125.989 150.116 123.459 150.929 120.844 151.108L112.999 151.671C109.558 151.913 106.216 152.919 103.217 154.614C100.218 156.309 97.6388 158.65 95.6677 161.466C92.9744 165.32 91.5309 169.901 91.5313 174.595V190.184H207.014L207.06 174.595Z" fill="white"/>
<path d="M207.638 190.76H91V174.596C90.9936 169.794 92.4699 165.107 95.229 161.168C97.2395 158.275 99.879 155.87 102.951 154.13C106.023 152.391 109.449 151.362 112.976 151.12L120.821 150.568C123.34 150.377 125.776 149.589 127.927 148.269C130.204 146.883 132.084 144.935 133.386 142.616C134.687 140.296 135.366 137.682 135.356 135.025V121.379H163.259V135.025C163.25 137.682 163.928 140.296 165.23 142.616C166.531 144.935 168.411 146.883 170.688 148.269C172.839 149.589 175.275 150.377 177.794 150.568L185.639 151.12C189.166 151.362 192.592 152.391 195.665 154.13C198.737 155.87 201.376 158.275 203.386 161.168C206.154 165.112 207.634 169.808 207.626 174.619L207.638 190.76ZM92.1554 189.61H206.483V174.596C206.488 170.02 205.08 165.554 202.45 161.8C200.537 159.05 198.027 156.763 195.105 155.109C192.183 153.455 188.924 152.477 185.57 152.247L177.725 151.683C175.017 151.495 172.396 150.655 170.088 149.235C167.644 147.745 165.626 145.653 164.23 143.163C162.834 140.672 162.106 137.866 162.115 135.014V122.517H136.523V135.014C136.533 137.866 135.805 140.672 134.408 143.163C133.012 145.653 130.995 147.745 128.551 149.235C126.241 150.653 123.621 151.493 120.914 151.683L113.068 152.247C109.715 152.477 106.456 153.455 103.534 155.109C100.612 156.763 98.1011 159.05 96.1881 161.8C93.5525 165.551 92.1441 170.019 92.1554 174.596V189.61Z" fill="#333333"/>
<path d="M113.033 174.594C111.641 180.039 110.866 185.623 110.723 191.24L113.033 174.594Z" fill="white"/>
<path d="M113.148 173.479C112.523 176.204 112.064 178.964 111.773 181.745C111.488 184.527 111.331 187.317 111.3 190.114C111.299 190.19 111.282 190.264 111.252 190.333C111.221 190.402 111.177 190.465 111.122 190.517C111.068 190.57 111.003 190.611 110.933 190.638C110.862 190.666 110.786 190.679 110.711 190.677C110.635 190.677 110.56 190.663 110.491 190.634C110.422 190.605 110.359 190.562 110.306 190.508C110.253 190.455 110.212 190.391 110.184 190.322C110.156 190.252 110.143 190.177 110.145 190.103C110.322 187.29 110.634 184.485 111.081 181.687C111.519 178.904 112.132 176.151 112.918 173.444C112.926 173.413 112.946 173.385 112.974 173.368C113.002 173.351 113.035 173.346 113.068 173.353C113.092 173.364 113.112 173.381 113.127 173.404C113.141 173.426 113.148 173.452 113.148 173.479Z" fill="#333333"/>
<path d="M186.172 174.594C187.561 180.04 188.336 185.623 188.483 191.24L186.172 174.594Z" fill="white"/>
<path d="M186.39 173.376C187.161 176.094 187.755 178.859 188.169 181.653C188.608 184.435 188.897 187.251 189.071 190.068C189.075 190.144 189.065 190.219 189.04 190.291C189.016 190.362 188.977 190.429 188.926 190.485C188.876 190.542 188.815 190.588 188.746 190.621C188.678 190.654 188.603 190.673 188.527 190.677C188.451 190.684 188.374 190.674 188.302 190.65C188.229 190.626 188.163 190.588 188.105 190.538C188.048 190.487 188.002 190.425 187.969 190.357C187.936 190.288 187.918 190.213 187.915 190.137C187.869 187.347 187.688 184.561 187.372 181.779C187.073 179.001 186.598 176.244 185.951 173.525C185.944 173.496 185.944 173.466 185.949 173.437C185.954 173.408 185.965 173.381 185.981 173.356C185.997 173.331 186.018 173.31 186.043 173.294C186.068 173.277 186.095 173.266 186.124 173.26C186.175 173.244 186.23 173.247 186.279 173.268C186.328 173.289 186.367 173.328 186.39 173.376Z" fill="#333333"/>
<path d="M141.18 136.379C141.18 136.379 145.339 154.198 148.378 157.222L141.18 136.379Z" fill="white"/>
<path d="M141.585 136.289C142.405 139.876 143.306 143.463 144.335 147.004C144.866 148.763 145.398 150.533 146.033 152.258C146.586 153.997 147.413 155.639 148.482 157.12C148.497 157.133 148.509 157.149 148.517 157.167C148.526 157.185 148.53 157.204 148.53 157.224C148.53 157.244 148.526 157.263 148.517 157.281C148.509 157.299 148.497 157.314 148.482 157.327C148.455 157.354 148.417 157.369 148.379 157.369C148.34 157.369 148.303 157.354 148.275 157.327C147.145 155.83 146.255 154.166 145.64 152.396C144.947 150.671 144.369 148.947 143.803 147.153C142.648 143.624 141.689 140.06 140.776 136.462C140.752 136.353 140.771 136.24 140.829 136.145C140.887 136.051 140.98 135.983 141.088 135.956C141.197 135.931 141.311 135.95 141.406 136.008C141.501 136.066 141.569 136.159 141.596 136.266L141.585 136.289Z" fill="#333333"/>
<path d="M162.243 126.426C162.243 126.426 155.981 145.521 153 148.545L162.243 126.426Z" fill="white"/>
<path d="M162.763 126.596C161.423 130.401 160.024 134.16 158.511 137.885C157.748 139.748 156.986 141.61 156.119 143.427C155.33 145.301 154.297 147.063 153.046 148.669C153.011 148.701 152.966 148.719 152.919 148.719C152.871 148.719 152.826 148.701 152.791 148.669C152.762 148.635 152.746 148.592 152.746 148.548C152.746 148.504 152.762 148.461 152.791 148.427C153.951 146.814 154.898 145.06 155.61 143.208C156.408 141.38 157.113 139.506 157.806 137.632C159.181 133.873 160.463 130.068 161.665 126.251C161.71 126.107 161.811 125.986 161.945 125.915C162.079 125.844 162.236 125.828 162.381 125.872C162.527 125.919 162.649 126.021 162.72 126.157C162.791 126.292 162.807 126.449 162.763 126.596Z" fill="#333333"/>
<path d="M128.388 151.108L144.829 156.385C144.882 156.404 144.925 156.441 144.951 156.49C144.976 156.539 144.982 156.596 144.968 156.65C144.961 156.676 144.949 156.701 144.933 156.722C144.916 156.744 144.895 156.761 144.871 156.774C144.847 156.787 144.821 156.795 144.794 156.797C144.767 156.8 144.74 156.796 144.714 156.788L128.053 152.189C127.906 152.146 127.782 152.047 127.708 151.914C127.635 151.78 127.617 151.623 127.66 151.476C127.7 151.33 127.797 151.206 127.929 151.131C128.061 151.056 128.218 151.035 128.365 151.074L128.388 151.108Z" fill="#333333"/>
<path d="M169.635 152.21L152.974 156.809C152.951 156.817 152.926 156.821 152.901 156.819C152.876 156.817 152.851 156.81 152.829 156.798C152.807 156.786 152.788 156.77 152.774 156.75C152.759 156.73 152.748 156.707 152.743 156.682C152.732 156.637 152.74 156.588 152.763 156.548C152.787 156.507 152.825 156.477 152.871 156.464L169.3 151.152C169.372 151.127 169.449 151.117 169.525 151.122C169.601 151.127 169.675 151.148 169.743 151.182C169.811 151.217 169.871 151.264 169.92 151.322C169.969 151.38 170.006 151.448 170.028 151.52C170.076 151.665 170.063 151.823 169.994 151.959C169.925 152.094 169.804 152.197 169.658 152.245L169.635 152.21Z" fill="#333333"/>
<path d="M149.289 132.241C165.361 131.574 169.3 112.248 169.3 112.248C169.3 112.248 172.894 112.915 173.738 104.5C174.581 96.0844 170.051 98.4181 170.051 98.4181C170.317 74.1952 157.342 71.5857 151.773 71.5742C150.121 71.5742 148.457 71.5742 146.805 71.5742C141.224 71.5742 128.26 74.1952 128.526 98.4181C128.526 98.4181 124.009 96.1188 124.841 104.5C125.672 112.881 129.278 112.248 129.278 112.248C129.278 112.248 133.217 131.574 149.289 132.241Z" fill="white"/>
<path d="M149.292 132.817C134.364 132.196 129.592 115.791 128.841 112.825C128.269 112.746 127.728 112.52 127.27 112.169C125.676 111.02 124.67 108.422 124.289 104.559C123.943 101.11 124.451 98.8911 125.792 97.9829C126.112 97.7794 126.471 97.6428 126.846 97.5815C127.222 97.5203 127.606 97.5355 127.975 97.6264C127.975 87.6936 130.286 80.382 134.711 75.8869C136.304 74.3163 138.195 73.0757 140.274 72.237C142.352 71.3983 144.577 70.9783 146.82 71.0009C148.483 71.0009 150.147 71.0009 151.799 71.0009C154.044 70.9774 156.271 71.3972 158.352 72.2359C160.432 73.0746 162.325 74.3155 163.92 75.8869C168.38 80.382 170.644 87.6936 170.655 97.6264C171.023 97.5351 171.405 97.5197 171.779 97.581C172.152 97.6422 172.51 97.7791 172.828 97.9829C174.18 98.8911 174.677 101.098 174.342 104.559C173.949 108.422 172.943 110.974 171.349 112.169C170.893 112.523 170.351 112.749 169.778 112.825C169.038 115.791 164.266 132.196 149.339 132.817H149.292ZM129.731 111.583L129.847 112.135C129.847 112.319 133.879 131.001 149.292 131.679C164.694 131.012 168.692 112.33 168.738 112.135L168.842 111.583L169.408 111.686C169.876 111.693 170.329 111.525 170.679 111.215C171.58 110.514 172.736 108.778 173.163 104.444C173.556 100.512 172.701 99.305 172.169 98.9372C171.882 98.7945 171.566 98.7202 171.245 98.7202C170.924 98.7202 170.608 98.7945 170.321 98.9372L169.466 99.3739V98.4196C169.57 88.4063 167.42 81.0947 163.065 76.7031C161.576 75.2413 159.81 74.0875 157.871 73.3081C155.931 72.5287 153.857 72.1392 151.765 72.1621C150.113 72.1621 148.449 72.1621 146.796 72.1621C144.705 72.1392 142.629 72.5287 140.69 73.3081C138.75 74.0875 136.986 75.2413 135.497 76.7031C131.141 81.0947 128.98 88.4063 129.096 98.4196V99.3854L128.241 98.9372C127.954 98.7945 127.637 98.7202 127.316 98.7202C126.996 98.7202 126.679 98.7945 126.392 98.9372C125.849 99.305 125.005 100.512 125.398 104.444C125.837 108.835 127.005 110.571 127.917 111.25C128.262 111.541 128.701 111.696 129.153 111.686L129.731 111.583Z" fill="#333333"/>
<path d="M128.945 99.0863L131.07 92.4759C131.392 91.7741 131.871 91.1556 132.473 90.669C133.074 90.1823 133.78 89.8409 134.536 89.6709C135.926 89.3245 137.269 88.811 138.534 88.1418C139.789 87.503 140.92 86.6466 141.873 85.6126C142.804 84.5897 143.491 83.3716 143.884 82.0486C143.938 81.9043 144.047 81.7867 144.187 81.7203C144.327 81.6538 144.487 81.644 144.634 81.6925C144.744 81.7346 144.841 81.8061 144.912 81.8993C146.446 84.0306 148.243 85.9618 150.261 87.6475C152.249 89.3583 154.558 90.6593 157.055 91.4756C158.312 91.8523 159.614 92.0611 160.926 92.0965C162.292 92.1797 163.635 92.4866 164.9 93.0047C166.183 93.5224 167.308 94.3671 168.159 95.4536C169.006 96.5384 169.52 97.844 169.638 99.2129C169.641 99.2538 169.628 99.2943 169.603 99.3263C169.577 99.3584 169.54 99.3795 169.499 99.3853C169.46 99.3857 169.422 99.3719 169.392 99.3465C169.362 99.3212 169.343 99.2858 169.337 99.2472C169.18 97.9572 168.659 96.7379 167.835 95.7295C167.004 94.7275 165.925 93.9585 164.704 93.499C163.478 93.0443 162.187 92.7882 160.879 92.7403C159.518 92.7298 158.163 92.5483 156.847 92.2C154.229 91.4154 151.791 90.1264 149.672 88.4062C147.535 86.7363 145.617 84.805 143.965 82.658L144.993 82.4972C144.497 83.9573 143.68 85.2887 142.601 86.3943C141.539 87.4765 140.291 88.3604 138.916 89.004C137.574 89.6551 136.158 90.1415 134.698 90.4526C134.02 90.5703 133.38 90.8464 132.829 91.2581C132.279 91.6698 131.834 92.2053 131.532 92.8209L129.222 99.3622C129.217 99.3838 129.207 99.404 129.193 99.4215C129.18 99.4389 129.162 99.4531 129.143 99.463C129.123 99.4729 129.1 99.4783 129.078 99.4787C129.056 99.4792 129.034 99.4749 129.014 99.4658C128.989 99.4703 128.963 99.4698 128.938 99.4644C128.913 99.4591 128.89 99.4491 128.869 99.4347C128.827 99.4056 128.797 99.3609 128.788 99.3106C128.779 99.2603 128.791 99.2084 128.82 99.1663C128.849 99.1243 128.894 99.0955 128.945 99.0863Z" fill="#333333"/>
<path d="M140 100C140 79.5655 144.925 63 151 63" stroke="#6967F9" stroke-linecap="round"/>
<path d="M138 97.9996L140 100L142 97.9996" stroke="#6967F9" stroke-linecap="round" stroke-linejoin="round"/>
<path d="M112.258 97.4077L110 95.7031L108.295 97.9609" stroke="#FF6D3B" stroke-linecap="round" stroke-linejoin="round"/>
<path d="M189.659 98.1057L188 95.8145L185.709 97.4737" stroke="#FF6D3B" stroke-linecap="round" stroke-linejoin="round"/>
<path d="M188 96C188 102.075 170.539 107 149 107C127.461 107 110 102.075 110 96" stroke="#FF6D3B" stroke-linecap="round"/>
<path d="M181.971 112C181.971 86.0426 167.657 65 150.001 65C132.345 65 118.031 86.0426 118.031 112" stroke="#FABF48" stroke-linecap="round"/>
<path d="M116.001 111L118.031 113L120.061 111" stroke="#FABF48" stroke-linecap="round" stroke-linejoin="round"/>
<path d="M179.939 111L181.969 113L183.999 111" stroke="#FABF48" stroke-linecap="round" stroke-linejoin="round"/>
</svg>
