<svg width="162" height="130" viewBox="0 0 162 130" fill="none" xmlns="http://www.w3.org/2000/svg">
<g clip-path="url(#clip0_6_3635)">
<path d="M100.205 53.619L100.068 60.542L98.2667 56.0464C98.2667 56.0464 88.9741 63.4276 90.8003 79.8372C90.8003 79.8372 98.9376 78.2644 103.174 73.0133L99.7202 71.0689L105.87 70.4745C105.87 70.4745 116.069 57.8422 115.808 46.6465C115.808 46.6465 105.311 47.5258 100.217 53.619H100.205Z" fill="white"/>
<path d="M90.8133 80.4572C90.6766 80.4572 90.5524 80.4201 90.4406 80.3334C90.3039 80.2343 90.2045 80.0733 90.1921 79.8999C88.341 63.3293 97.497 55.8614 97.8822 55.5518C98.0312 55.4279 98.2424 55.3908 98.4288 55.4403C98.6151 55.4898 98.7766 55.6261 98.8512 55.8118L99.5096 57.459L99.5842 53.595C99.5842 53.4588 99.6338 53.3225 99.7332 53.2111C104.939 46.994 115.312 46.0528 115.747 46.0156C115.921 46.0156 116.082 46.0528 116.219 46.1766C116.343 46.2881 116.418 46.4491 116.43 46.6225C116.691 57.9172 106.777 70.339 106.355 70.8591C106.255 70.983 106.094 71.0697 105.932 71.0821L101.746 71.4908L103.485 72.4691C103.647 72.5558 103.758 72.7168 103.796 72.8902C103.833 73.0636 103.796 73.2494 103.671 73.398C99.3357 78.7605 91.2729 80.3705 90.9375 80.4448C90.9002 80.4448 90.863 80.4448 90.8133 80.4448V80.4572ZM98.0312 57.1122C96.0559 59.0938 90.1549 66.1778 91.3599 79.0825C93.2607 78.5995 98.8015 76.94 102.218 73.1874L99.4226 71.6146C99.1866 71.4784 99.0624 71.2059 99.1245 70.9458C99.1866 70.6858 99.3978 70.4876 99.6711 70.4628L105.547 69.8931C106.802 68.2708 115.039 57.2608 115.188 47.3532C112.852 47.6628 105.013 49.0499 100.826 53.8675L100.69 60.5675C100.69 60.8648 100.466 61.1125 100.18 61.162C99.8823 61.2115 99.5966 61.0505 99.4972 60.7781L98.0312 57.1246V57.1122Z" fill="#B7BDCF"/>
<path d="M87.2122 88.6696C87.2122 88.6696 87.088 88.6696 87.0383 88.6449C86.7153 88.5458 86.5289 88.199 86.6283 87.877C91.051 73.288 107.984 55.7637 108.705 55.0331C108.941 54.7854 109.338 54.7854 109.587 55.0207C109.835 55.256 109.835 55.6523 109.599 55.9C109.425 56.0734 92.1567 73.9443 87.821 88.2486C87.734 88.521 87.498 88.6944 87.2246 88.6944L87.2122 88.6696Z" fill="#B7BDCF"/>
<path d="M77.1126 86.9102L77.1179 86.9214C77.7906 88.3369 79.487 88.9407 80.9069 88.2701L89.7875 84.0759C91.2075 83.4053 91.8132 81.7142 91.1405 80.2987L91.1352 80.2875C90.4625 78.872 88.766 78.2681 87.3461 78.9387L78.4655 83.133C77.0456 83.8036 76.4399 85.4947 77.1126 86.9102Z" fill="white"/>
<path d="M79.6953 89.153C78.3909 89.153 77.1485 88.4223 76.5522 87.1715C75.7323 85.45 76.4777 83.3818 78.2045 82.5644L87.0748 78.3784C87.9071 77.9821 88.8513 77.9326 89.7333 78.2422C90.6154 78.5518 91.3111 79.1834 91.7086 80.0256C92.1062 80.8554 92.1559 81.7966 91.8453 82.6759C91.5347 83.5428 90.9011 84.2487 90.0563 84.645L81.1861 88.831C80.714 89.054 80.2047 89.1654 79.7077 89.1654L79.6953 89.153ZM88.5531 79.2825C88.2301 79.2825 87.9071 79.3568 87.5965 79.493L78.7263 83.679C77.6206 84.1992 77.1361 85.5367 77.6703 86.639C78.1921 87.7412 79.5338 88.2118 80.6395 87.6917L89.5097 83.5057C90.0439 83.2456 90.4539 82.7997 90.6527 82.2424C90.8514 81.6851 90.8266 81.0783 90.5657 80.5457C90.3048 80.0132 89.8576 79.6045 89.2985 79.4064C89.0501 79.3197 88.8016 79.2701 88.5531 79.2701V79.2825Z" fill="#B7BDCF"/>
<path d="M0.893818 93.3184L0.899136 93.3296C1.57185 94.7451 3.26826 95.3489 4.68819 94.6783L13.5688 90.4841C14.9887 89.8135 15.5944 88.1224 14.9217 86.7069L14.9164 86.6957C14.2437 85.2802 12.5473 84.6763 11.1274 85.3469L2.24677 89.5412C0.826842 90.2118 0.221107 91.9029 0.893818 93.3184Z" fill="white"/>
<path d="M3.47656 95.566C2.17211 95.566 0.929781 94.8353 0.333462 93.5845C-0.486477 91.863 0.258922 89.7948 1.98576 88.9774L10.856 84.7914C12.5828 83.974 14.6575 84.7171 15.4775 86.4386C16.2974 88.16 15.552 90.2282 13.8252 91.0456L4.95494 95.2316C4.48285 95.4546 3.97349 95.566 3.47656 95.566ZM12.3344 85.6955C12.0114 85.6955 11.6884 85.7698 11.3902 85.906L2.51997 90.092C1.98576 90.3521 1.57579 90.7979 1.37702 91.3552C1.17825 91.9126 1.20309 92.5194 1.46398 93.0519C1.98576 94.1542 3.31506 94.6372 4.43316 94.1046L13.3034 89.9186C14.4091 89.3985 14.8936 88.0609 14.3594 86.9587C13.9743 86.1537 13.1792 85.6831 12.3468 85.6831L12.3344 85.6955Z" fill="#B7BDCF"/>
<path d="M85.0018 71.1819C85.0018 48.2208 66.3419 29.6191 43.3215 29.6191C20.3011 29.6191 1.62891 48.2208 1.62891 71.1819C1.62891 82.1175 5.87768 92.0747 12.8099 99.4931H73.8208C80.753 92.0747 85.0018 82.1298 85.0018 71.1819Z" fill="white"/>
<path d="M74.0942 100.1H12.5366L12.3503 99.9018C5.03297 92.0748 1.00781 81.8699 1.00781 71.182C1.00781 47.9237 19.9906 29 43.3216 29C66.6526 29 85.6354 47.9237 85.6354 71.182C85.6354 81.8699 81.6103 92.0748 74.2929 99.9142L74.1066 100.112L74.0942 100.1ZM13.0833 98.8615H73.56C80.5419 91.2822 84.3931 81.4612 84.3931 71.1696C84.3807 48.6048 65.9569 30.2385 43.3216 30.2385C20.6863 30.2385 2.25014 48.6048 2.25014 71.182C2.25014 81.4736 6.08895 91.2945 13.0833 98.8739V98.8615Z" fill="#B7BDCF"/>
<path d="M46.3889 82.2664C48.0836 82.2664 49.4574 80.8969 49.4574 79.2074C49.4574 77.518 48.0836 76.1484 46.3889 76.1484C44.6942 76.1484 43.3203 77.518 43.3203 79.2074C43.3203 80.8969 44.6942 82.2664 46.3889 82.2664Z" fill="#B7BDCF"/>
<path d="M62.0295 82.2664C63.7242 82.2664 65.098 80.8969 65.098 79.2074C65.098 77.518 63.7242 76.1484 62.0295 76.1484C60.3348 76.1484 58.9609 77.518 58.9609 79.2074C58.9609 80.8969 60.3348 82.2664 62.0295 82.2664Z" fill="#B7BDCF"/>
<path d="M161.38 100.1H1.62898C1.28113 100.1 1.00781 99.8273 1.00781 99.4806C1.00781 99.1338 1.28113 98.8613 1.62898 98.8613H161.38C161.728 98.8613 162.002 99.1338 162.002 99.4806C162.002 99.8273 161.728 100.1 161.38 100.1Z" fill="#B7BDCF"/>
<path d="M64.0273 92.4844H75.0096C78.8856 92.4844 82.0287 95.6177 82.0287 99.4817H64.0273V92.4844Z" fill="#B7BDCF"/>
<path d="M100.02 99.4941H82.0182C82.0182 95.6301 85.1612 92.4968 89.0373 92.4968H100.02V99.4941Z" fill="#B7BDCF"/>
<path d="M64.0281 92.4844H52.5117V99.4817H64.0281V92.4844Z" fill="#A7ACBB"/>
<path d="M58.7622 84.2227C56.4763 86.5014 52.7742 86.5014 50.4883 84.2227H58.7622Z" fill="white"/>
<path d="M54.6239 87.1709C52.8101 87.1709 50.9963 86.4773 49.6173 85.1026C49.1328 84.6196 49.1328 83.8394 49.6173 83.3564C50.1018 82.8734 50.8845 82.8734 51.369 83.3564C53.1704 85.1522 56.0898 85.1522 57.8788 83.3564C58.3633 82.8734 59.146 82.8734 59.6305 83.3564C60.115 83.8394 60.115 84.6196 59.6305 85.1026C58.2515 86.4773 56.4377 87.1709 54.6115 87.1709H54.6239Z" fill="#B7BDCF"/>
<path d="M153.306 44.0723H122.483C120.706 44.0723 119.266 45.5084 119.266 47.2799V61.4107C119.266 63.1822 120.706 64.6183 122.483 64.6183H153.306C155.083 64.6183 156.523 63.1822 156.523 61.4107V47.2799C156.523 45.5084 155.083 44.0723 153.306 44.0723Z" fill="#B7BDCF"/>
<path d="M152.283 45.1621H123.498C121.879 45.1621 120.566 46.4707 120.566 48.0849V60.6181C120.566 62.2323 121.879 63.5409 123.498 63.5409H152.283C153.902 63.5409 155.215 62.2323 155.215 60.6181V48.0849C155.215 46.4707 153.902 45.1621 152.283 45.1621Z" fill="white"/>
<path d="M132.744 63.541H143.031C144.298 63.541 145.342 64.5689 145.342 65.8446H130.434C130.434 64.5813 131.465 63.541 132.744 63.541Z" fill="#B7BDCF"/>
<path d="M142.063 65.832H133.727V68.1356H142.063V65.832Z" fill="#B7BDCF"/>
<path d="M140.359 71.0596H135.414V67.5176H140.359V71.0596ZM136.656 69.8211H139.116V68.756H136.656V69.8211Z" fill="#B7BDCF"/>
<path d="M155.986 98.0324L139.674 76.0002H136.121L120.704 97.9705L116.219 94.5771L132.419 72.4582H133.35V69.8203H142.432V72.4582H143.364L143.55 72.7183L159.514 94.5276L155.986 98.0448V98.0324ZM117.946 94.3171L120.43 96.1995L135.475 74.7618H140.308L156.135 96.1376L157.899 94.379L142.755 73.6843H141.202V71.0464H134.605V73.6843H133.052L117.946 94.3171Z" fill="#B7BDCF"/>
<path d="M139.948 75.3809H135.836V95.9765H139.948V75.3809Z" fill="#B7BDCF"/>
<path d="M141.041 98.7383H134.742V95.4316H141.041V98.7383ZM135.985 97.4999H139.798V96.6701H135.985V97.4999Z" fill="#B7BDCF"/>
<path d="M157.106 100.038L154.758 97.6974L159.205 93.2637L161.553 95.592L157.106 100.026V100.038ZM156.522 97.6974L157.106 98.2794L159.802 95.592L159.218 95.0099L156.522 97.6974Z" fill="#B7BDCF"/>
<path d="M119.811 99.8161L114.68 96.1875L116.593 93.5L121.724 97.1287L119.811 99.8285V99.8161ZM116.407 95.8902L119.512 98.0823L119.984 97.4135L116.879 95.2215L116.407 95.8902Z" fill="#B7BDCF"/>
<path d="M133.325 42.3633H142.469C142.705 42.3633 142.904 42.5614 142.904 42.7967C142.904 43.8742 142.022 44.7535 140.941 44.7535H134.854C133.773 44.7535 132.891 43.8742 132.891 42.7967C132.891 42.5614 133.089 42.3633 133.325 42.3633Z" fill="#B7BDCF"/>
<path d="M137.289 41.2988H138.494C139.289 41.2988 139.947 41.9428 139.947 42.7478H135.848C135.848 41.9552 136.494 41.2988 137.301 41.2988H137.289Z" fill="#B7BDCF"/>
</g>
<defs>
<clipPath id="clip0_6_3635">
<rect width="162" height="71.1" fill="white" transform="translate(0 29)"/>
</clipPath>
</defs>
</svg>
