<svg width="326" height="136" viewBox="0 0 326 136" fill="none" xmlns="http://www.w3.org/2000/svg">
<path d="M1.672 112.803H8.503V112.066H2.574V108.469H1.672V112.803ZM9.526 116.114V115.366H0.572V116.114H9.526ZM18.7981 113.452V107.611H17.8961V113.452H18.7981ZM16.7961 112.66L16.6971 111.934C15.1351 112.198 13.8591 112.242 12.0991 112.242V110.878H15.6741V108.194H11.1861V108.931H14.7831V110.185H11.2191V112.979H12.0111C13.8261 112.979 15.1901 112.924 16.7961 112.66ZM18.7981 114.002H12.4181V117.335H18.7981V114.002ZM17.9181 116.609H13.2981V114.717H17.9181V116.609Z" fill="#C2C2C2"/>
<path d="M8.437 6.556H9.757V5.797H8.437V1.947H7.546V11.814H8.437V6.556ZM3.498 2.871H2.75V5.401H1.54V2.871H0.77V9.427H3.498V2.871ZM6.71 2.871H5.951V5.401H4.785V2.871H4.026V9.427H6.71V2.871ZM1.54 6.127H2.75V8.69H1.54V6.127ZM4.785 6.127H5.951V8.69H4.785V6.127ZM11.8241 2.893H17.6101V3.85H11.8461V6.193H18.7101V5.489H12.7371V4.521H18.5011V2.2H11.8241V2.893ZM19.6451 7.766V7.04H10.7021V7.766H19.6451ZM18.5121 8.679H11.9011V11.682H18.5121V8.679ZM17.6211 10.956H12.7811V9.394H17.6211V10.956Z" fill="#C2C2C2"/>
<path d="M30.6685 44H326" stroke="#DFE0EB" stroke-dasharray="2 3"/>
<path d="M30.6685 78.6667H326" stroke="#DFE0EB" stroke-dasharray="2 3"/>
<path d="M30.6685 9.3645H326" stroke="#DFE0EB" stroke-dasharray="2 3"/>
<path d="M47.7006 132.326V131.512H46.1166V124.219H45.3136L43.1466 126.089L43.6856 126.738L45.1486 125.429C45.1376 125.506 45.1376 125.605 45.1376 125.704V131.512H43.3446V132.326H47.7006ZM49.9303 131.446H48.9293V132.48H49.9303V131.446ZM57.2614 128.311C57.2614 125.44 55.9634 124.131 54.3024 124.131C52.6304 124.131 51.3434 125.44 51.3434 128.311C51.3434 131.171 52.6304 132.48 54.3024 132.48C55.9634 132.48 57.2614 131.171 57.2614 128.311ZM56.2494 128.311C56.2494 130.819 55.3254 131.666 54.3024 131.666C53.2794 131.666 52.3664 130.819 52.3664 128.311C52.3664 125.792 53.2794 124.956 54.3024 124.956C55.3254 124.956 56.2494 125.792 56.2494 128.311Z" fill="#C2C2C2"/>
<path d="M89.8236 132.326V131.435H86.6446C86.3696 131.435 86.0396 131.479 85.7316 131.567L87.9866 129.334C88.8996 128.421 89.6696 127.585 89.6696 126.386C89.6696 124.956 88.6026 124.12 87.2276 124.12C85.8526 124.12 84.7856 124.923 84.5766 126.408L85.5666 126.573C85.5666 125.649 86.2486 124.989 87.1726 124.989C88.0086 124.989 88.6246 125.44 88.6576 126.408C88.6576 127.354 88.0416 128.047 87.1946 128.949L84.4116 131.622V132.326H89.8236ZM91.8443 131.446H90.8433V132.48H91.8443V131.446ZM99.1755 128.311C99.1755 125.44 97.8775 124.131 96.2165 124.131C94.5445 124.131 93.2575 125.44 93.2575 128.311C93.2575 131.171 94.5445 132.48 96.2165 132.48C97.8775 132.48 99.1755 131.171 99.1755 128.311ZM98.1635 128.311C98.1635 130.819 97.2395 131.666 96.2165 131.666C95.1935 131.666 94.2805 130.819 94.2805 128.311C94.2805 125.792 95.1935 124.956 96.2165 124.956C97.2395 124.956 98.1635 125.792 98.1635 128.311Z" fill="#C2C2C2"/>
<path d="M126.524 126.43L127.525 126.595C127.525 125.693 128.196 125.011 129.12 125.011C129.967 125.011 130.561 125.462 130.561 126.386C130.561 127.222 130.055 127.805 128.636 127.838V128.564C130.363 128.564 130.726 129.202 130.726 130.071C130.726 130.786 130.165 131.6 129.01 131.6C128.174 131.6 127.679 131.171 127.338 130.467C127.25 130.258 127.195 130.093 127.173 129.972L126.271 130.346C126.656 131.534 127.283 132.469 129.021 132.469C130.528 132.469 131.749 131.523 131.749 130.049C131.749 129.037 131.199 128.366 130.143 128.102C131.023 127.805 131.562 127.277 131.562 126.221C131.562 124.989 130.572 124.131 129.175 124.131C127.8 124.131 126.733 124.967 126.524 126.43ZM133.758 131.446H132.757V132.48H133.758V131.446ZM141.09 128.311C141.09 125.44 139.792 124.131 138.131 124.131C136.459 124.131 135.172 125.44 135.172 128.311C135.172 131.171 136.459 132.48 138.131 132.48C139.792 132.48 141.09 131.171 141.09 128.311ZM140.078 128.311C140.078 130.819 139.154 131.666 138.131 131.666C137.108 131.666 136.195 130.819 136.195 128.311C136.195 125.792 137.108 124.956 138.131 124.956C139.154 124.956 140.078 125.792 140.078 128.311Z" fill="#C2C2C2"/>
<path d="M174.037 130.181V129.389H172.816V124.175H171.87L167.899 129.433V130.181H171.925V132.326H172.816V130.181H174.037ZM171.925 126.023V129.389H168.999L171.969 125.341C171.936 125.572 171.925 125.836 171.925 126.023ZM175.673 131.446H174.672V132.48H175.673V131.446ZM183.004 128.311C183.004 125.44 181.706 124.131 180.045 124.131C178.373 124.131 177.086 125.44 177.086 128.311C177.086 131.171 178.373 132.48 180.045 132.48C181.706 132.48 183.004 131.171 183.004 128.311ZM181.992 128.311C181.992 130.819 181.068 131.666 180.045 131.666C179.022 131.666 178.109 130.819 178.109 128.311C178.109 125.792 179.022 124.956 180.045 124.956C181.068 124.956 181.992 125.792 181.992 128.311Z" fill="#C2C2C2"/>
<path d="M211.673 127.266L212.036 125.154H215.193V124.23H211.332L210.672 128.047L211.321 128.234C211.794 128.069 212.212 127.97 212.641 127.97C213.796 127.97 214.478 128.586 214.478 129.642C214.478 130.83 213.675 131.523 212.564 131.523C211.904 131.523 211.266 131.226 210.782 130.819L210.243 131.556C210.738 132.029 211.552 132.425 212.52 132.425C214.159 132.425 215.446 131.303 215.446 129.587C215.446 128.179 214.533 127.123 212.828 127.123C212.432 127.123 212.047 127.167 211.673 127.266ZM217.588 131.446H216.587V132.48H217.588V131.446ZM224.919 128.311C224.919 125.44 223.621 124.131 221.96 124.131C220.288 124.131 219.001 125.44 219.001 128.311C219.001 131.171 220.288 132.48 221.96 132.48C223.621 132.48 224.919 131.171 224.919 128.311ZM223.907 128.311C223.907 130.819 222.983 131.666 221.96 131.666C220.937 131.666 220.024 130.819 220.024 128.311C220.024 125.792 220.937 124.956 221.96 124.956C222.983 124.956 223.907 125.792 223.907 128.311Z" fill="#C2C2C2"/>
<path d="M254.137 127.266L256.568 124.219H255.303L253.059 127.244C252.355 128.168 252.058 128.982 252.058 129.697C252.058 131.369 253.125 132.469 254.764 132.469C256.414 132.469 257.558 131.303 257.558 129.807C257.558 128.256 256.458 127.376 255.138 127.376C254.599 127.376 254.148 127.53 253.752 127.794C253.829 127.706 253.95 127.53 254.137 127.266ZM254.742 131.622C253.642 131.622 253.037 130.918 253.037 129.862C253.037 128.949 253.73 128.157 254.808 128.157C255.809 128.157 256.546 128.817 256.546 129.884C256.546 130.885 255.809 131.622 254.742 131.622ZM259.502 131.446H258.501V132.48H259.502V131.446ZM266.833 128.311C266.833 125.44 265.535 124.131 263.874 124.131C262.202 124.131 260.915 125.44 260.915 128.311C260.915 131.171 262.202 132.48 263.874 132.48C265.535 132.48 266.833 131.171 266.833 128.311ZM265.821 128.311C265.821 130.819 264.897 131.666 263.874 131.666C262.851 131.666 261.938 130.819 261.938 128.311C261.938 125.792 262.851 124.956 263.874 124.956C264.897 124.956 265.821 125.792 265.821 128.311Z" fill="#C2C2C2"/>
<path d="M299.461 124.912V124.263H294.159V125.121H298.372L297.998 125.737L294.709 132.326H295.82L299.461 124.912ZM301.416 131.446H300.415V132.48H301.416V131.446ZM308.747 128.311C308.747 125.44 307.449 124.131 305.788 124.131C304.116 124.131 302.829 125.44 302.829 128.311C302.829 131.171 304.116 132.48 305.788 132.48C307.449 132.48 308.747 131.171 308.747 128.311ZM307.735 128.311C307.735 130.819 306.811 131.666 305.788 131.666C304.765 131.666 303.852 130.819 303.852 128.311C303.852 125.792 304.765 124.956 305.788 124.956C306.811 124.956 307.735 125.792 307.735 128.311Z" fill="#C2C2C2"/>
<path d="M30.6685 113.333H326" stroke="#DFE0EB"/>
<path d="M51.8563 106.528C51.4467 105.569 51.9153 104.52 52.9028 104.185L159.886 67.8943L161.37 71.3671L54.3859 107.658C53.3984 107.993 52.2658 107.487 51.8563 106.528V106.528Z" fill="#FF6D3B"/>
<path d="M159.887 67.894L196.144 55.5953L197.626 59.067L161.37 71.3658L159.887 67.894Z" fill="#FABF48"/>
<path d="M196.144 55.595L232.4 43.2962L233.883 46.768L197.627 59.0667L196.144 55.595Z" fill="#62B22F"/>
<path d="M232.401 43.2959L268.658 30.9971L270.14 34.4689L233.884 46.7677L232.401 43.2959Z" fill="#1E76FC"/>
<path d="M268.659 30.9968L303.128 19.3044C304.115 18.9695 305.247 19.4752 305.656 20.4339V20.4339C306.066 21.3926 305.597 22.4413 304.61 22.7762L270.141 34.4686L268.659 30.9968Z" fill="#6967F9"/>
<path fill-rule="evenodd" clip-rule="evenodd" d="M37 71C29.268 71 23 77.268 23 85C23 92.732 29.268 99 37 99H50.1132L53 104L55.8867 99H69C76.732 99 83 92.732 83 85C83 77.268 76.732 71 69 71H37Z" fill="black"/>
<path d="M38.644 81.008H45.244V81.392C45.244 83.024 45.172 84.44 44.872 86.06L45.844 86.18C46.228 84.164 46.228 82.76 46.228 81.392V80.204H38.644V81.008ZM47.368 88.376V87.572H43.66V84.008H42.688V87.572H40.996V84.008H40.024V87.572H37.636V88.376H47.368ZM53.2951 83.492C55.6231 83.492 57.0751 82.736 57.0751 81.44C57.0751 80.144 55.6231 79.376 53.2951 79.376C50.9791 79.376 49.5151 80.144 49.5151 81.44C49.5151 82.736 50.9791 83.492 53.2951 83.492ZM53.2951 80.156C55.0351 80.156 56.0671 80.624 56.0671 81.44C56.0671 82.256 55.0351 82.724 53.2951 82.724C51.5551 82.724 50.5231 82.256 50.5231 81.44C50.5231 80.624 51.5551 80.156 53.2951 80.156ZM55.5991 86.468V85.1H58.1671V84.308H48.4351V85.1H51.0031V86.468H49.5151V87.26H55.9831V89.9H56.9671V86.468H55.5991ZM51.9871 85.1H54.6151V86.468H51.9871V85.1ZM65.0661 85.424H66.0021V82.82H67.3701V85.772H68.3181V79.136H67.3701V82.016H66.0021V79.34H65.0661V85.424ZM64.0941 84.932L64.6221 84.176C63.2421 83.66 62.4381 82.424 62.4381 81.248V79.796H61.4901V81.248C61.4901 82.436 60.6381 83.864 59.2461 84.464L59.7741 85.232C60.8301 84.764 61.5861 83.852 61.9701 82.844C62.3541 83.756 63.0861 84.512 64.0941 84.932ZM64.7661 86.012C62.5581 86.012 61.1781 86.732 61.1781 87.944C61.1781 89.156 62.5581 89.876 64.7661 89.876C66.9741 89.876 68.3661 89.156 68.3661 87.944C68.3661 86.732 66.9741 86.012 64.7661 86.012ZM64.7661 89.12C63.1221 89.12 62.1501 88.712 62.1501 87.944C62.1501 87.176 63.1221 86.78 64.7661 86.78C66.4101 86.78 67.3941 87.176 67.3941 87.944C67.3941 88.712 66.4101 89.12 64.7661 89.12Z" fill="white"/>
<circle cx="53" cy="106" r="3" fill="black"/>
<circle cx="53" cy="106" r="5" fill="black" fill-opacity="0.1"/>
<circle cx="53" cy="106" r="2" fill="white"/>
<path d="M197 58.8921L242 44V113H197V58.8921Z" fill="url(#paint0_linear_162_205)" fill-opacity="0.2"/>
<defs>
<linearGradient id="paint0_linear_162_205" x1="219.5" y1="44" x2="219.5" y2="113" gradientUnits="userSpaceOnUse">
<stop stop-color="#FD557A"/>
<stop offset="1" stop-color="#1E76FC"/>
</linearGradient>
</defs>
</svg>
