<svg width="326" height="140" viewBox="0 0 326 140" fill="none" xmlns="http://www.w3.org/2000/svg">
<path d="M1.672 112.803H8.503V112.066H2.574V108.469H1.672V112.803ZM9.526 116.114V115.366H0.572V116.114H9.526ZM18.7981 113.452V107.611H17.8961V113.452H18.7981ZM16.7961 112.66L16.6971 111.934C15.1351 112.198 13.8591 112.242 12.0991 112.242V110.878H15.6741V108.194H11.1861V108.931H14.7831V110.185H11.2191V112.979H12.0111C13.8261 112.979 15.1901 112.924 16.7961 112.66ZM18.7981 114.002H12.4181V117.335H18.7981V114.002ZM17.9181 116.609H13.2981V114.717H17.9181V116.609Z" fill="#C2C2C2"/>
<path d="M8.437 6.556H9.757V5.797H8.437V1.947H7.546V11.814H8.437V6.556ZM3.498 2.871H2.75V5.401H1.54V2.871H0.77V9.427H3.498V2.871ZM6.71 2.871H5.951V5.401H4.785V2.871H4.026V9.427H6.71V2.871ZM1.54 6.127H2.75V8.69H1.54V6.127ZM4.785 6.127H5.951V8.69H4.785V6.127ZM11.8241 2.893H17.6101V3.85H11.8461V6.193H18.7101V5.489H12.7371V4.521H18.5011V2.2H11.8241V2.893ZM19.6451 7.766V7.04H10.7021V7.766H19.6451ZM18.5121 8.679H11.9011V11.682H18.5121V8.679ZM17.6211 10.956H12.7811V9.394H17.6211V10.956Z" fill="#C2C2C2"/>
<path d="M30.6685 44H326" stroke="#DFE0EB" stroke-dasharray="2 3"/>
<path d="M30.6685 78.6667H326" stroke="#DFE0EB" stroke-dasharray="2 3"/>
<path d="M30.6685 9.3645H326" stroke="#DFE0EB" stroke-dasharray="2 3"/>
<path d="M47.7006 132.326V131.512H46.1166V124.219H45.3136L43.1466 126.089L43.6856 126.738L45.1486 125.429C45.1376 125.506 45.1376 125.605 45.1376 125.704V131.512H43.3446V132.326H47.7006ZM49.9303 131.446H48.9293V132.48H49.9303V131.446ZM57.2614 128.311C57.2614 125.44 55.9634 124.131 54.3024 124.131C52.6304 124.131 51.3434 125.44 51.3434 128.311C51.3434 131.171 52.6304 132.48 54.3024 132.48C55.9634 132.48 57.2614 131.171 57.2614 128.311ZM56.2494 128.311C56.2494 130.819 55.3254 131.666 54.3024 131.666C53.2794 131.666 52.3664 130.819 52.3664 128.311C52.3664 125.792 53.2794 124.956 54.3024 124.956C55.3254 124.956 56.2494 125.792 56.2494 128.311Z" fill="#C2C2C2"/>
<path d="M89.8236 132.326V131.435H86.6446C86.3696 131.435 86.0396 131.479 85.7316 131.567L87.9866 129.334C88.8996 128.421 89.6696 127.585 89.6696 126.386C89.6696 124.956 88.6026 124.12 87.2276 124.12C85.8526 124.12 84.7856 124.923 84.5766 126.408L85.5666 126.573C85.5666 125.649 86.2486 124.989 87.1726 124.989C88.0086 124.989 88.6246 125.44 88.6576 126.408C88.6576 127.354 88.0416 128.047 87.1946 128.949L84.4116 131.622V132.326H89.8236ZM91.8443 131.446H90.8433V132.48H91.8443V131.446ZM99.1755 128.311C99.1755 125.44 97.8775 124.131 96.2165 124.131C94.5445 124.131 93.2575 125.44 93.2575 128.311C93.2575 131.171 94.5445 132.48 96.2165 132.48C97.8775 132.48 99.1755 131.171 99.1755 128.311ZM98.1635 128.311C98.1635 130.819 97.2395 131.666 96.2165 131.666C95.1935 131.666 94.2805 130.819 94.2805 128.311C94.2805 125.792 95.1935 124.956 96.2165 124.956C97.2395 124.956 98.1635 125.792 98.1635 128.311Z" fill="#C2C2C2"/>
<path d="M126.524 126.43L127.525 126.595C127.525 125.693 128.196 125.011 129.12 125.011C129.967 125.011 130.561 125.462 130.561 126.386C130.561 127.222 130.055 127.805 128.636 127.838V128.564C130.363 128.564 130.726 129.202 130.726 130.071C130.726 130.786 130.165 131.6 129.01 131.6C128.174 131.6 127.679 131.171 127.338 130.467C127.25 130.258 127.195 130.093 127.173 129.972L126.271 130.346C126.656 131.534 127.283 132.469 129.021 132.469C130.528 132.469 131.749 131.523 131.749 130.049C131.749 129.037 131.199 128.366 130.143 128.102C131.023 127.805 131.562 127.277 131.562 126.221C131.562 124.989 130.572 124.131 129.175 124.131C127.8 124.131 126.733 124.967 126.524 126.43ZM133.758 131.446H132.757V132.48H133.758V131.446ZM141.09 128.311C141.09 125.44 139.792 124.131 138.131 124.131C136.459 124.131 135.172 125.44 135.172 128.311C135.172 131.171 136.459 132.48 138.131 132.48C139.792 132.48 141.09 131.171 141.09 128.311ZM140.078 128.311C140.078 130.819 139.154 131.666 138.131 131.666C137.108 131.666 136.195 130.819 136.195 128.311C136.195 125.792 137.108 124.956 138.131 124.956C139.154 124.956 140.078 125.792 140.078 128.311Z" fill="#C2C2C2"/>
<path d="M174.037 130.181V129.389H172.816V124.175H171.87L167.899 129.433V130.181H171.925V132.326H172.816V130.181H174.037ZM171.925 126.023V129.389H168.999L171.969 125.341C171.936 125.572 171.925 125.836 171.925 126.023ZM175.673 131.446H174.672V132.48H175.673V131.446ZM183.004 128.311C183.004 125.44 181.706 124.131 180.045 124.131C178.373 124.131 177.086 125.44 177.086 128.311C177.086 131.171 178.373 132.48 180.045 132.48C181.706 132.48 183.004 131.171 183.004 128.311ZM181.992 128.311C181.992 130.819 181.068 131.666 180.045 131.666C179.022 131.666 178.109 130.819 178.109 128.311C178.109 125.792 179.022 124.956 180.045 124.956C181.068 124.956 181.992 125.792 181.992 128.311Z" fill="#C2C2C2"/>
<path d="M211.673 127.266L212.036 125.154H215.193V124.23H211.332L210.672 128.047L211.321 128.234C211.794 128.069 212.212 127.97 212.641 127.97C213.796 127.97 214.478 128.586 214.478 129.642C214.478 130.83 213.675 131.523 212.564 131.523C211.904 131.523 211.266 131.226 210.782 130.819L210.243 131.556C210.738 132.029 211.552 132.425 212.52 132.425C214.159 132.425 215.446 131.303 215.446 129.587C215.446 128.179 214.533 127.123 212.828 127.123C212.432 127.123 212.047 127.167 211.673 127.266ZM217.588 131.446H216.587V132.48H217.588V131.446ZM224.919 128.311C224.919 125.44 223.621 124.131 221.96 124.131C220.288 124.131 219.001 125.44 219.001 128.311C219.001 131.171 220.288 132.48 221.96 132.48C223.621 132.48 224.919 131.171 224.919 128.311ZM223.907 128.311C223.907 130.819 222.983 131.666 221.96 131.666C220.937 131.666 220.024 130.819 220.024 128.311C220.024 125.792 220.937 124.956 221.96 124.956C222.983 124.956 223.907 125.792 223.907 128.311Z" fill="#C2C2C2"/>
<path d="M254.137 127.266L256.568 124.219H255.303L253.059 127.244C252.355 128.168 252.058 128.982 252.058 129.697C252.058 131.369 253.125 132.469 254.764 132.469C256.414 132.469 257.558 131.303 257.558 129.807C257.558 128.256 256.458 127.376 255.138 127.376C254.599 127.376 254.148 127.53 253.752 127.794C253.829 127.706 253.95 127.53 254.137 127.266ZM254.742 131.622C253.642 131.622 253.037 130.918 253.037 129.862C253.037 128.949 253.73 128.157 254.808 128.157C255.809 128.157 256.546 128.817 256.546 129.884C256.546 130.885 255.809 131.622 254.742 131.622ZM259.502 131.446H258.501V132.48H259.502V131.446ZM266.833 128.311C266.833 125.44 265.535 124.131 263.874 124.131C262.202 124.131 260.915 125.44 260.915 128.311C260.915 131.171 262.202 132.48 263.874 132.48C265.535 132.48 266.833 131.171 266.833 128.311ZM265.821 128.311C265.821 130.819 264.897 131.666 263.874 131.666C262.851 131.666 261.938 130.819 261.938 128.311C261.938 125.792 262.851 124.956 263.874 124.956C264.897 124.956 265.821 125.792 265.821 128.311Z" fill="#C2C2C2"/>
<path d="M299.461 124.912V124.263H294.159V125.121H298.372L297.998 125.737L294.709 132.326H295.82L299.461 124.912ZM301.416 131.446H300.415V132.48H301.416V131.446ZM308.747 128.311C308.747 125.44 307.449 124.131 305.788 124.131C304.116 124.131 302.829 125.44 302.829 128.311C302.829 131.171 304.116 132.48 305.788 132.48C307.449 132.48 308.747 131.171 308.747 128.311ZM307.735 128.311C307.735 130.819 306.811 131.666 305.788 131.666C304.765 131.666 303.852 130.819 303.852 128.311C303.852 125.792 304.765 124.956 305.788 124.956C306.811 124.956 307.735 125.792 307.735 128.311Z" fill="#C2C2C2"/>
<path d="M30.6685 113.333H326" stroke="#DFE0EB"/>
<path d="M51.8563 106.528C51.4467 105.569 51.9153 104.52 52.9028 104.185L159.886 67.8945L161.37 71.3674L54.3859 107.658C53.3984 107.993 52.2658 107.487 51.8563 106.528Z" fill="#FF6D3B"/>
<path d="M159.887 67.8945L196.144 55.5958L197.626 59.0675L161.37 71.3663L159.887 67.8945Z" fill="#FABF48"/>
<path d="M196.144 55.5952L232.4 43.2964L233.883 46.7682L197.627 59.067L196.144 55.5952Z" fill="#62B22F"/>
<path d="M232.401 43.2961L268.658 30.9974L270.14 34.4691L233.884 46.7679L232.401 43.2961Z" fill="#1E76FC"/>
<path d="M268.659 30.9971L303.128 19.3047C304.115 18.9698 305.247 19.4755 305.656 20.4342C306.066 21.3929 305.597 22.4415 304.61 22.7764L270.141 34.4688L268.659 30.9971Z" fill="#6967F9"/>
<path fill-rule="evenodd" clip-rule="evenodd" d="M245 0.000243893C237.268 0.00024403 231 6.26826 231 14.0002C231 21.7322 237.268 28.0002 245 28.0002L258.113 28.0002L261 33.0002L263.887 28.0002L277 28.0002C284.732 28.0002 291 21.7322 291 14.0002C291 6.26826 284.732 0.000243191 277 0.000243327L245 0.000243893Z" fill="black"/>
<path d="M246.644 10.0082L253.244 10.0082L253.244 10.3922C253.244 12.0242 253.172 13.4402 252.872 15.0602L253.844 15.1802C254.228 13.1642 254.228 11.7602 254.228 10.3922L254.228 9.20424L246.644 9.20424L246.644 10.0082ZM255.368 17.3762L255.368 16.5722L251.66 16.5722L251.66 13.0082L250.688 13.0082L250.688 16.5722L248.996 16.5722L248.996 13.0082L248.024 13.0082L248.024 16.5722L245.636 16.5722L245.636 17.3762L255.368 17.3762ZM261.295 12.4922C263.623 12.4922 265.075 11.7362 265.075 10.4402C265.075 9.14424 263.623 8.37624 261.295 8.37624C258.979 8.37624 257.515 9.14424 257.515 10.4402C257.515 11.7362 258.979 12.4922 261.295 12.4922ZM261.295 9.15624C263.035 9.15624 264.067 9.62424 264.067 10.4402C264.067 11.2562 263.035 11.7242 261.295 11.7242C259.555 11.7242 258.523 11.2562 258.523 10.4402C258.523 9.62424 259.555 9.15624 261.295 9.15624ZM263.599 15.4682L263.599 14.1002L266.167 14.1002L266.167 13.3082L256.435 13.3082L256.435 14.1002L259.003 14.1002L259.003 15.4682L257.515 15.4682L257.515 16.2602L263.983 16.2602L263.983 18.9002L264.967 18.9002L264.967 15.4682L263.599 15.4682ZM259.987 14.1002L262.615 14.1002L262.615 15.4682L259.987 15.4682L259.987 14.1002ZM273.066 14.4242L274.002 14.4242L274.002 11.8202L275.37 11.8202L275.37 14.7722L276.318 14.7722L276.318 8.13624L275.37 8.13624L275.37 11.0162L274.002 11.0162L274.002 8.34024L273.066 8.34024L273.066 14.4242ZM272.094 13.9322L272.622 13.1762C271.242 12.6602 270.438 11.4242 270.438 10.2482L270.438 8.79624L269.49 8.79624L269.49 10.2482C269.49 11.4362 268.638 12.8642 267.246 13.4642L267.774 14.2322C268.83 13.7642 269.586 12.8522 269.97 11.8442C270.354 12.7562 271.086 13.5122 272.094 13.9322ZM272.766 15.0122C270.558 15.0122 269.178 15.7322 269.178 16.9442C269.178 18.1562 270.558 18.8762 272.766 18.8762C274.974 18.8762 276.366 18.1562 276.366 16.9442C276.366 15.7322 274.974 15.0122 272.766 15.0122ZM272.766 18.1202C271.122 18.1202 270.15 17.7122 270.15 16.9442C270.15 16.1762 271.122 15.7802 272.766 15.7802C274.41 15.7802 275.394 16.1762 275.394 16.9442C275.394 17.7122 274.41 18.1202 272.766 18.1202Z" fill="white"/>
<circle cx="261" cy="35.0002" r="3" fill="black"/>
<circle cx="261" cy="35.0002" r="5" fill="black" fill-opacity="0.1"/>
<circle cx="261" cy="35.0002" r="2" fill="white"/>
<path d="M197 58.8921L242 44V113H197V58.8921Z" fill="url(#paint0_linear_132_1046)" fill-opacity="0.2"/>
<defs>
<linearGradient id="paint0_linear_132_1046" x1="219.5" y1="44" x2="219.5" y2="113" gradientUnits="userSpaceOnUse">
<stop stop-color="#FD557A"/>
<stop offset="1" stop-color="#1E76FC"/>
</linearGradient>
</defs>
</svg>
