<svg width="326" height="65" viewBox="0 0 326 65" fill="none" xmlns="http://www.w3.org/2000/svg">
<path d="M14.852 5.568L15.944 5.748C15.944 4.764 16.676 4.02 17.684 4.02C18.608 4.02 19.256 4.512 19.256 5.52C19.256 6.432 18.704 7.068 17.156 7.104V7.896C19.04 7.896 19.436 8.592 19.436 9.54C19.436 10.32 18.824 11.208 17.564 11.208C16.652 11.208 16.112 10.74 15.74 9.972C15.644 9.744 15.584 9.564 15.56 9.432L14.576 9.84C14.996 11.136 15.68 12.156 17.576 12.156C19.22 12.156 20.552 11.124 20.552 9.516C20.552 8.412 19.952 7.68 18.8 7.392C19.76 7.068 20.348 6.492 20.348 5.34C20.348 3.996 19.268 3.06 17.744 3.06C16.244 3.06 15.08 3.972 14.852 5.568ZM22.7444 11.04H21.6524V12.168H22.7444V11.04ZM26.2061 6.48L26.6021 4.176H30.0461V3.168H25.8341L25.1141 7.332L25.8221 7.536C26.3381 7.356 26.7941 7.248 27.2621 7.248C28.5221 7.248 29.2661 7.92 29.2661 9.072C29.2661 10.368 28.3901 11.124 27.1781 11.124C26.4581 11.124 25.7621 10.8 25.2341 10.356L24.6461 11.16C25.1861 11.676 26.0741 12.108 27.1301 12.108C28.9181 12.108 30.3221 10.884 30.3221 9.012C30.3221 7.476 29.3261 6.324 27.4661 6.324C27.0341 6.324 26.6141 6.372 26.2061 6.48ZM43.1901 12.912V2.124H42.2061V12.912H43.1901ZM37.5141 2.952C35.9181 2.952 34.7781 4.416 34.7781 6.708C34.7781 9 35.9181 10.464 37.5141 10.464C39.1101 10.464 40.2501 9 40.2501 6.708C40.2501 4.416 39.1101 2.952 37.5141 2.952ZM37.5141 3.84C38.5581 3.84 39.3021 4.968 39.3021 6.708C39.3021 8.46 38.5581 9.588 37.5141 9.588C36.4581 9.588 35.7141 8.46 35.7141 6.708C35.7141 4.968 36.4581 3.84 37.5141 3.84ZM53.7132 7.38H55.4772V6.552H53.7132V2.136H52.7292V12.888H53.7132V7.38ZM51.7092 3.852H49.0572V2.256H48.0732V3.852H45.3612V4.644H51.7092V3.852ZM48.5772 5.532C47.0652 5.532 45.9732 6.576 45.9732 8.016C45.9732 9.492 47.0652 10.488 48.5772 10.488C50.1132 10.488 51.2052 9.492 51.2052 8.016C51.2052 6.576 50.1132 5.532 48.5772 5.532ZM48.5772 9.672C47.6052 9.672 46.8972 8.976 46.8972 8.016C46.8972 7.056 47.6052 6.348 48.5772 6.348C49.5732 6.348 50.2692 7.056 50.2692 8.016C50.2692 8.976 49.5732 9.672 48.5772 9.672ZM60.3318 7.8H67.7838V6.996H61.3158V3.072H60.3318V7.8ZM68.8998 11.412V10.596H59.1318V11.412H68.8998ZM79.0149 8.508V2.136H78.0309V8.508H79.0149ZM76.8309 7.644L76.7229 6.852C75.0189 7.14 73.6269 7.188 71.7069 7.188V5.7H75.6069V2.772H70.7109V3.576H74.6349V4.944H70.7469V7.992H71.6109C73.5909 7.992 75.0789 7.932 76.8309 7.644ZM79.0149 9.108H72.0549V12.744H79.0149V9.108ZM78.0549 11.952H73.0149V9.888H78.0549V11.952Z" fill="#C2C2C2"/>
<rect y="3" width="8" height="8" rx="4" fill="#FF6D3B"/>
<path d="M14.852 30.568L15.944 30.748C15.944 29.764 16.676 29.02 17.684 29.02C18.608 29.02 19.256 29.512 19.256 30.52C19.256 31.432 18.704 32.068 17.156 32.104V32.896C19.04 32.896 19.436 33.592 19.436 34.54C19.436 35.32 18.824 36.208 17.564 36.208C16.652 36.208 16.112 35.74 15.74 34.972C15.644 34.744 15.584 34.564 15.56 34.432L14.576 34.84C14.996 36.136 15.68 37.156 17.576 37.156C19.22 37.156 20.552 36.124 20.552 34.516C20.552 33.412 19.952 32.68 18.8 32.392C19.76 32.068 20.348 31.492 20.348 30.34C20.348 28.996 19.268 28.06 17.744 28.06C16.244 28.06 15.08 28.972 14.852 30.568ZM22.7444 36.04H21.6524V37.168H22.7444V36.04ZM26.2061 31.48L26.6021 29.176H30.0461V28.168H25.8341L25.1141 32.332L25.8221 32.536C26.3381 32.356 26.7941 32.248 27.2621 32.248C28.5221 32.248 29.2661 32.92 29.2661 34.072C29.2661 35.368 28.3901 36.124 27.1781 36.124C26.4581 36.124 25.7621 35.8 25.2341 35.356L24.6461 36.16C25.1861 36.676 26.0741 37.108 27.1301 37.108C28.9181 37.108 30.3221 35.884 30.3221 34.012C30.3221 32.476 29.3261 31.324 27.4661 31.324C27.0341 31.324 26.6141 31.372 26.2061 31.48ZM35.6225 32.164H31.6625V33.004H35.6225V32.164ZM43.1788 34.66V33.796H41.8468V28.108H40.8148L36.4828 33.844V34.66H40.8748V37H41.8468V34.66H43.1788ZM40.8748 30.124V33.796H37.6828L40.9228 29.38C40.8868 29.632 40.8748 29.92 40.8748 30.124ZM44.9632 36.04H43.8712V37.168H44.9632V36.04ZM48.4248 31.48L48.8208 29.176H52.2648V28.168H48.0528L47.3328 32.332L48.0408 32.536C48.5568 32.356 49.0128 32.248 49.4808 32.248C50.7408 32.248 51.4848 32.92 51.4848 34.072C51.4848 35.368 50.6088 36.124 49.3968 36.124C48.6768 36.124 47.9808 35.8 47.4528 35.356L46.8648 36.16C47.4048 36.676 48.2928 37.108 49.3488 37.108C51.1368 37.108 52.5408 35.884 52.5408 34.012C52.5408 32.476 51.5448 31.324 49.6848 31.324C49.2528 31.324 48.8328 31.372 48.4248 31.48ZM64.8808 32.188H66.6568V31.372H64.8808V27.124H63.8968V37.912H64.8808V32.188ZM58.0408 34.384V28.972H62.0608V28.156H57.0568V35.224H57.9088C59.9248 35.224 61.3648 35.164 62.9968 34.84L62.8888 34.024C61.3408 34.312 59.9608 34.384 58.0408 34.384ZM76.5079 33.196L76.9279 32.38C75.0439 32.056 72.9919 30.46 72.9919 28.672V27.844H71.9599V28.672C71.9599 30.46 69.9199 32.056 68.0359 32.38L68.4439 33.196C70.0999 32.848 71.7679 31.732 72.4759 30.196C73.1839 31.732 74.8639 32.836 76.5079 33.196ZM77.4079 36.484V35.68H72.9679V33.064H71.9839V35.68H67.6399V36.484H77.4079ZM82.5506 32.8H90.0026V31.996H83.5346V28.072H82.5506V32.8ZM91.1186 36.412V35.596H81.3506V36.412H91.1186ZM101.234 33.508V27.136H100.25V33.508H101.234ZM99.0496 32.644L98.9416 31.852C97.2376 32.14 95.8456 32.188 93.9256 32.188V30.7H97.8256V27.772H92.9296V28.576H96.8536V29.944H92.9656V32.992H93.8296C95.8096 32.992 97.2976 32.932 99.0496 32.644ZM101.234 34.108H94.2736V37.744H101.234V34.108ZM100.274 36.952H95.2336V34.888H100.274V36.952Z" fill="#C2C2C2"/>
<rect y="28" width="8" height="8" rx="4" fill="#FABF48"/>
<path d="M20.96 59.66V58.796H19.628V53.108H18.596L14.264 58.844V59.66H18.656V62H19.628V59.66H20.96ZM18.656 55.124V58.796H15.464L18.704 54.38C18.668 54.632 18.656 54.92 18.656 55.124ZM22.7444 61.04H21.6524V62.168H22.7444V61.04ZM26.2061 56.48L26.6021 54.176H30.0461V53.168H25.8341L25.1141 57.332L25.8221 57.536C26.3381 57.356 26.7941 57.248 27.2621 57.248C28.5221 57.248 29.2661 57.92 29.2661 59.072C29.2661 60.368 28.3901 61.124 27.1781 61.124C26.4581 61.124 25.7621 60.8 25.2341 60.356L24.6461 61.16C25.1861 61.676 26.0741 62.108 27.1301 62.108C28.9181 62.108 30.3221 60.884 30.3221 59.012C30.3221 57.476 29.3261 56.324 27.4661 56.324C27.0341 56.324 26.6141 56.372 26.2061 56.48ZM35.6225 57.164H31.6625V58.004H35.6225V57.164ZM38.5108 56.48L38.9068 54.176H42.3508V53.168H38.1388L37.4188 57.332L38.1268 57.536C38.6428 57.356 39.0988 57.248 39.5668 57.248C40.8268 57.248 41.5708 57.92 41.5708 59.072C41.5708 60.368 40.6948 61.124 39.4828 61.124C38.7628 61.124 38.0668 60.8 37.5388 60.356L36.9508 61.16C37.4908 61.676 38.3788 62.108 39.4348 62.108C41.2228 62.108 42.6268 60.884 42.6268 59.012C42.6268 57.476 41.6308 56.324 39.7708 56.324C39.3388 56.324 38.9188 56.372 38.5108 56.48ZM44.9632 61.04H43.8712V62.168H44.9632V61.04ZM48.4248 56.48L48.8208 54.176H52.2648V53.168H48.0528L47.3328 57.332L48.0408 57.536C48.5568 57.356 49.0128 57.248 49.4808 57.248C50.7408 57.248 51.4848 57.92 51.4848 59.072C51.4848 60.368 50.6088 61.124 49.3968 61.124C48.6768 61.124 47.9808 60.8 47.4528 60.356L46.8648 61.16C47.4048 61.676 48.2928 62.108 49.3488 62.108C51.1368 62.108 52.5408 60.884 52.5408 59.012C52.5408 57.476 51.5448 56.324 49.6848 56.324C49.2528 56.324 48.8328 56.372 48.4248 56.48ZM66.3568 61.508V60.704H61.9648V58.388H65.1808V52.892H64.2208V54.812H58.7248V52.892H57.7528V58.388H60.9688V60.704H56.6008V61.508H66.3568ZM64.2208 57.596H58.7248V55.616H64.2208V57.596ZM77.3719 58.616V57.824H72.9919V56.768H76.2319V56H69.8959V54.944H75.8839V54.2H69.8959V53.204H76.1719V52.436H68.9119V56.768H72.0079V57.824H67.6279V58.616H77.3719ZM72.4999 59.432C70.1119 59.432 68.8159 60.032 68.8159 61.148C68.8159 62.3 70.1119 62.876 72.4999 62.876C74.8879 62.876 76.1839 62.3 76.1839 61.148C76.1839 60.032 74.8879 59.432 72.4999 59.432ZM72.4999 62.132C70.7599 62.132 69.7999 61.82 69.7999 61.148C69.7999 60.512 70.7599 60.164 72.4999 60.164C74.2399 60.164 75.1999 60.512 75.1999 61.148C75.1999 61.82 74.2399 62.132 72.4999 62.132Z" fill="#C2C2C2"/>
<rect y="53" width="8" height="8" rx="4" fill="#62B22F"/>
<path d="M139.292 31.48L139.688 29.176H143.132V28.168H138.92L138.2 32.332L138.908 32.536C139.424 32.356 139.88 32.248 140.348 32.248C141.608 32.248 142.352 32.92 142.352 34.072C142.352 35.368 141.476 36.124 140.264 36.124C139.544 36.124 138.848 35.8 138.32 35.356L137.732 36.16C138.272 36.676 139.16 37.108 140.216 37.108C142.004 37.108 143.408 35.884 143.408 34.012C143.408 32.476 142.412 31.324 140.552 31.324C140.12 31.324 139.7 31.372 139.292 31.48ZM145.744 36.04H144.652V37.168H145.744V36.04ZM149.206 31.48L149.602 29.176H153.046V28.168H148.834L148.114 32.332L148.822 32.536C149.338 32.356 149.794 32.248 150.262 32.248C151.522 32.248 152.266 32.92 152.266 34.072C152.266 35.368 151.39 36.124 150.178 36.124C149.458 36.124 148.762 35.8 148.234 35.356L147.646 36.16C148.186 36.676 149.074 37.108 150.13 37.108C151.918 37.108 153.322 35.884 153.322 34.012C153.322 32.476 152.326 31.324 150.466 31.324C150.034 31.324 149.614 31.372 149.206 31.48ZM158.623 32.164H154.663V33.004H158.623V32.164ZM162.111 31.48L164.763 28.156H163.383L160.935 31.456C160.167 32.464 159.843 33.352 159.843 34.132C159.843 35.956 161.007 37.156 162.795 37.156C164.595 37.156 165.843 35.884 165.843 34.252C165.843 32.56 164.643 31.6 163.203 31.6C162.615 31.6 162.123 31.768 161.691 32.056C161.775 31.96 161.907 31.768 162.111 31.48ZM162.771 36.232C161.571 36.232 160.911 35.464 160.911 34.312C160.911 33.316 161.667 32.452 162.843 32.452C163.935 32.452 164.739 33.172 164.739 34.336C164.739 35.428 163.935 36.232 162.771 36.232ZM167.963 36.04H166.871V37.168H167.963V36.04ZM171.425 31.48L171.821 29.176H175.265V28.168H171.053L170.333 32.332L171.041 32.536C171.557 32.356 172.013 32.248 172.481 32.248C173.741 32.248 174.485 32.92 174.485 34.072C174.485 35.368 173.609 36.124 172.397 36.124C171.677 36.124 170.981 35.8 170.453 35.356L169.865 36.16C170.405 36.676 171.293 37.108 172.349 37.108C174.137 37.108 175.541 35.884 175.541 34.012C175.541 32.476 174.545 31.324 172.685 31.324C172.253 31.324 171.833 31.372 171.425 31.48ZM187.881 32.188H189.657V31.372H187.881V27.124H186.897V37.912H187.881V32.188ZM181.041 34.384V28.972H185.061V28.156H180.057V35.224H180.909C182.925 35.224 184.365 35.164 185.997 34.84L185.889 34.024C184.341 34.312 182.961 34.384 181.041 34.384ZM199.508 33.196L199.928 32.38C198.044 32.056 195.992 30.46 195.992 28.672V27.844H194.96V28.672C194.96 30.46 192.92 32.056 191.036 32.38L191.444 33.196C193.1 32.848 194.768 31.732 195.476 30.196C196.184 31.732 197.864 32.836 199.508 33.196ZM200.408 36.484V35.68H195.968V33.064H194.984V35.68H190.64V36.484H200.408ZM212.931 32.152H214.371V31.324H212.931V27.124H211.959V37.888H212.931V32.152ZM207.543 28.132H206.727V30.892H205.407V28.132H204.567V35.284H207.543V28.132ZM211.047 28.132H210.219V30.892H208.947V28.132H208.119V35.284H211.047V28.132ZM205.407 31.684H206.727V34.48H205.407V31.684ZM208.947 31.684H210.219V34.48H208.947V31.684ZM216.626 28.156H222.938V29.2H216.65V31.756H224.138V30.988H217.622V29.932H223.91V27.4H216.626V28.156ZM225.158 33.472V32.68H215.402V33.472H225.158ZM223.922 34.468H216.71V37.744H223.922V34.468ZM222.95 36.952H217.67V35.248H222.95V36.952Z" fill="#C2C2C2"/>
<rect x="123" y="29" width="8" height="8" rx="4" fill="#1E76FC"/>
<path d="M139.892 6.48L142.544 3.156H141.164L138.716 6.456C137.948 7.464 137.624 8.352 137.624 9.132C137.624 10.956 138.788 12.156 140.576 12.156C142.376 12.156 143.624 10.884 143.624 9.252C143.624 7.56 142.424 6.6 140.984 6.6C140.396 6.6 139.904 6.768 139.472 7.056C139.556 6.96 139.688 6.768 139.892 6.48ZM140.552 11.232C139.352 11.232 138.692 10.464 138.692 9.312C138.692 8.316 139.448 7.452 140.624 7.452C141.716 7.452 142.52 8.172 142.52 9.336C142.52 10.428 141.716 11.232 140.552 11.232ZM145.744 11.04H144.652V12.168H145.744V11.04ZM149.206 6.48L149.602 4.176H153.046V3.168H148.834L148.114 7.332L148.822 7.536C149.338 7.356 149.794 7.248 150.262 7.248C151.522 7.248 152.266 7.92 152.266 9.072C152.266 10.368 151.39 11.124 150.178 11.124C149.458 11.124 148.762 10.8 148.234 10.356L147.646 11.16C148.186 11.676 149.074 12.108 150.13 12.108C151.918 12.108 153.322 10.884 153.322 9.012C153.322 7.476 152.326 6.324 150.466 6.324C150.034 6.324 149.614 6.372 149.206 6.48ZM166.19 12.912V2.124H165.206V12.912H166.19ZM160.514 2.952C158.918 2.952 157.778 4.416 157.778 6.708C157.778 9 158.918 10.464 160.514 10.464C162.11 10.464 163.25 9 163.25 6.708C163.25 4.416 162.11 2.952 160.514 2.952ZM160.514 3.84C161.558 3.84 162.302 4.968 162.302 6.708C162.302 8.46 161.558 9.588 160.514 9.588C159.458 9.588 158.714 8.46 158.714 6.708C158.714 4.968 159.458 3.84 160.514 3.84ZM178.369 5.724V4.908H176.773V2.136H175.789V8.652H176.773V5.724H178.369ZM174.121 7.956L174.637 7.188C173.101 6.672 172.033 5.304 172.033 3.864V2.676H171.049V3.78C171.049 5.4 170.005 6.9 168.373 7.476L168.889 8.256C170.149 7.776 171.109 6.792 171.553 5.532C172.033 6.636 172.957 7.524 174.121 7.956ZM173.353 8.952C171.157 8.952 169.801 9.672 169.801 10.92C169.801 12.168 171.157 12.876 173.353 12.876C175.525 12.876 176.893 12.168 176.893 10.92C176.893 9.672 175.525 8.952 173.353 8.952ZM173.353 12.108C171.757 12.108 170.785 11.688 170.785 10.92C170.785 10.152 171.757 9.72 173.353 9.72C174.949 9.72 175.909 10.152 175.909 10.92C175.909 11.688 174.949 12.108 173.353 12.108ZM190.712 7.152H192.152V6.324H190.712V2.124H189.74V12.888H190.712V7.152ZM185.324 3.132H184.508V5.892H183.188V3.132H182.348V10.284H185.324V3.132ZM188.828 3.132H188V5.892H186.728V3.132H185.9V10.284H188.828V3.132ZM183.188 6.684H184.508V9.48H183.188V6.684ZM186.728 6.684H188V9.48H186.728V6.684ZM194.407 3.156H200.719V4.2H194.431V6.756H201.919V5.988H195.403V4.932H201.691V2.4H194.407V3.156ZM202.939 8.472V7.68H193.183V8.472H202.939ZM201.703 9.468H194.491V12.744H201.703V9.468ZM200.731 11.952H195.451V10.248H200.731V11.952Z" fill="#C2C2C2"/>
<rect x="123" y="4" width="8" height="8" rx="4" fill="#6967F9"/>
<path d="M268.988 5.412H270.584V4.596H268.988V2.124H268.004V8.208H268.988V5.412ZM267.032 6.912L266.912 6.108C265.172 6.444 263.684 6.552 262.136 6.564V2.664H261.164V7.392H262.004C263.636 7.392 265.196 7.284 267.032 6.912ZM268.988 8.796H262.208V12.732H268.988V8.796ZM268.028 11.94H263.168V9.588H268.028V11.94ZM280.543 12.9V2.124H279.559V4.632H276.343V5.436H279.559V7.08H276.343V7.884H279.559V12.9H280.543ZM273.247 9.576V3.312H272.263V10.404H273.079C274.939 10.404 276.307 10.332 277.867 10.008L277.759 9.192C276.283 9.48 274.963 9.576 273.247 9.576ZM291.722 9.66V8.796H290.39V3.108H289.358L285.026 8.844V9.66H289.418V12H290.39V9.66H291.722ZM289.418 5.124V8.796H286.226L289.466 4.38C289.43 4.632 289.418 4.92 289.418 5.124ZM293.506 11.04H292.414V12.168H293.506V11.04ZM301.288 3.912V3.204H295.504V4.14H300.1L299.692 4.812L296.104 12H297.316L301.288 3.912ZM306.336 8.556C306.912 8.556 307.512 8.22 308.004 7.356L307.38 6.912C307.08 7.488 306.744 7.728 306.36 7.728C305.592 7.728 305.04 6.6 303.984 6.6C303.396 6.6 302.796 6.936 302.304 7.8L302.916 8.232C303.24 7.656 303.564 7.416 303.948 7.416C304.716 7.416 305.268 8.556 306.336 8.556ZM310.772 6.48L311.168 4.176H314.612V3.168H310.4L309.68 7.332L310.388 7.536C310.904 7.356 311.36 7.248 311.828 7.248C313.088 7.248 313.832 7.92 313.832 9.072C313.832 10.368 312.956 11.124 311.744 11.124C311.024 11.124 310.328 10.8 309.8 10.356L309.212 11.16C309.752 11.676 310.64 12.108 311.696 12.108C313.484 12.108 314.888 10.884 314.888 9.012C314.888 7.476 313.892 6.324 312.032 6.324C311.6 6.324 311.18 6.372 310.772 6.48ZM317.225 11.04H316.133V12.168H317.225V11.04ZM325.007 3.912V3.204H319.223V4.14H323.819L323.411 4.812L319.823 12H321.035L325.007 3.912Z" fill="#C2C2C2"/>
<rect x="246" y="3" width="8" height="8" fill="url(#paint0_linear_147_21)" fill-opacity="0.2"/>
<defs>
<linearGradient id="paint0_linear_147_21" x1="250" y1="3" x2="250" y2="11" gradientUnits="userSpaceOnUse">
<stop stop-color="#FD557A"/>
<stop offset="1" stop-color="#1E76FC"/>
</linearGradient>
</defs>
</svg>
