<svg width="682" height="62" viewBox="0 0 682 62" fill="none" xmlns="http://www.w3.org/2000/svg">
<path d="M342 39V45" stroke="#DFE0EB"/>
<rect x="2" y="37" width="680" height="4" fill="url(#paint0_linear_96_36)"/>
<rect y="27" width="50" height="22" rx="11" fill="#8D79FE"/>
<rect x="632" y="27" width="50" height="22" rx="11" fill="#6967F9"/>
<path d="M23.216 38.248V33.508H21.98V34.876H17.024V33.508H15.788V38.248H23.216ZM21.98 35.872V37.252H17.024V35.872H21.98ZM24.428 40.42V39.424H14.6V40.42H18.86V43.936H20.096V40.42H24.428ZM33.1511 35.812H31.2311V36.82H33.1511V39.544H34.3871V33.088H33.1511V35.812ZM31.2431 39.196L31.8551 38.224C30.2231 37.648 29.3111 36.34 29.3111 34.96V34.816H31.5671V33.82H25.7711V34.816H28.0631V34.972C28.0631 36.46 27.0911 37.9 25.4111 38.5L26.0471 39.484C27.3431 39.016 28.2431 38.08 28.7231 36.88C29.1911 37.936 30.0431 38.776 31.2431 39.196ZM30.7871 39.832C28.5191 39.832 27.1271 40.588 27.1271 41.884C27.1271 43.18 28.5191 43.936 30.7871 43.936C33.0431 43.936 34.4351 43.18 34.4351 41.884C34.4351 40.588 33.0431 39.832 30.7871 39.832ZM30.7871 42.976C29.2391 42.976 28.3631 42.604 28.3631 41.884C28.3631 41.164 29.2391 40.792 30.7871 40.792C32.3351 40.792 33.1991 41.164 33.1991 41.884C33.1991 42.604 32.3351 42.976 30.7871 42.976Z" fill="white"/>
<path d="M656.428 37.636H654.928C655.204 36.328 655.204 35.332 655.204 34.468V33.628H647.848V34.636H653.992C653.992 35.464 653.968 36.388 653.68 37.636H646.6V38.644H656.428V37.636ZM651.496 39.76C649.168 39.76 647.716 40.528 647.716 41.836C647.716 43.132 649.168 43.924 651.496 43.924C653.836 43.924 655.276 43.132 655.276 41.836C655.276 40.528 653.836 39.76 651.496 39.76ZM651.496 42.916C649.9 42.916 648.964 42.556 648.964 41.836C648.964 41.116 649.9 40.768 651.496 40.768C653.14 40.768 654.028 41.116 654.028 41.836C654.028 42.556 653.14 42.916 651.496 42.916ZM665.151 35.812H663.231V36.82H665.151V39.544H666.387V33.088H665.151V35.812ZM663.243 39.196L663.855 38.224C662.223 37.648 661.311 36.34 661.311 34.96V34.816H663.567V33.82H657.771V34.816H660.063V34.972C660.063 36.46 659.091 37.9 657.411 38.5L658.047 39.484C659.343 39.016 660.243 38.08 660.723 36.88C661.191 37.936 662.043 38.776 663.243 39.196ZM662.787 39.832C660.519 39.832 659.127 40.588 659.127 41.884C659.127 43.18 660.519 43.936 662.787 43.936C665.043 43.936 666.435 43.18 666.435 41.884C666.435 40.588 665.043 39.832 662.787 39.832ZM662.787 42.976C661.239 42.976 660.363 42.604 660.363 41.884C660.363 41.164 661.239 40.792 662.787 40.792C664.335 40.792 665.199 41.164 665.199 41.884C665.199 42.604 664.335 42.976 662.787 42.976Z" fill="white"/>
<path d="M332.092 52.568L332.536 53.54C334.468 53.336 335.92 52.556 336.508 51.44C337.084 52.532 338.584 53.348 340.48 53.54L340.912 52.568C338.908 52.376 337.504 51.5 337.348 50.552H340.516V49.556H332.512V50.552H335.656C335.5 51.5 334.096 52.376 332.092 52.568ZM337.12 55.076H341.404V54.092H331.6V55.076H335.884V56.072C333.856 56.204 332.752 56.852 332.752 58.004C332.752 59.252 334.096 59.924 336.484 59.924C338.884 59.924 340.216 59.252 340.216 58.004C340.216 56.852 339.136 56.216 337.12 56.084V55.076ZM338.968 58.004C338.968 58.628 338.08 58.976 336.484 58.976C334.888 58.976 334.012 58.628 334.012 58.004C334.012 57.332 334.888 57.02 336.484 57.02C338.08 57.02 338.968 57.332 338.968 58.004ZM351.339 49.088H350.103V55.076H351.339V49.088ZM349.119 54.548L348.975 53.54C347.403 53.792 346.059 53.864 344.187 53.864V52.664H347.895V49.592H342.939V50.6H346.683V51.728H342.963V54.872H343.875C345.951 54.872 347.427 54.836 349.119 54.548ZM350.115 55.58V56.696H345.471V55.58H344.235V59.792H351.339V55.58H350.115ZM350.115 57.668V58.796H345.471V57.668H350.115Z" fill="#C2C2C2"/>
<path d="M657 21C662.523 21 667 16.523 667 11C667 5.477 662.523 1 657 1C651.477 1 647 5.477 647 11C647 16.523 651.477 21 657 21Z" stroke="#6967F9" stroke-width="2" stroke-linejoin="round"/>
<path d="M660.5 8V8.5" stroke="#6967F9" stroke-width="2" stroke-linecap="round" stroke-linejoin="round"/>
<path d="M653.5 8V8.5" stroke="#6967F9" stroke-width="2" stroke-linecap="round" stroke-linejoin="round"/>
<path d="M653.5 12.5C653.5 12.5 654.5 14.5 657 14.5C659.5 14.5 660.5 12.5 660.5 12.5" stroke="#6967F9" stroke-width="2" stroke-linecap="round" stroke-linejoin="round"/>
<path d="M25 21C30.523 21 35 16.523 35 11C35 5.477 30.523 1 25 1C19.477 1 15 5.477 15 11C15 16.523 19.477 21 25 21Z" stroke="#8D79FE" stroke-width="2" stroke-linejoin="round"/>
<path d="M28.5 8V8.5" stroke="#8D79FE" stroke-width="2" stroke-linecap="round" stroke-linejoin="round"/>
<path d="M21.5 8V8.5" stroke="#8D79FE" stroke-width="2" stroke-linecap="round" stroke-linejoin="round"/>
<path d="M28.5 14.5C28.5 14.5 27.5 12.5 25 12.5C22.5 12.5 21.5 14.5 21.5 14.5" stroke="#8D79FE" stroke-width="2" stroke-linecap="round" stroke-linejoin="round"/>
<defs>
<linearGradient id="paint0_linear_96_36" x1="757.5" y1="38.9999" x2="-59" y2="38.9981" gradientUnits="userSpaceOnUse">
<stop stop-color="#6967F9"/>
<stop offset="1" stop-color="#8D79FE"/>
</linearGradient>
</defs>
</svg>
