<svg width="45" height="45" viewBox="0 0 45 45" fill="none" xmlns="http://www.w3.org/2000/svg">
<path d="M14.447 29.489H9.651V28.213H14.447V29.489ZM15.338 26.255H14.447V27.52H9.651V26.255H8.76V30.204H15.338V26.255ZM9.596 32.91H8.705V35.594H15.525V34.857H9.596V32.91ZM7.561 31.161V31.887H11.664V33.801H12.566V31.887H16.526V31.161H7.561ZM23.4661 30.644C22.0361 30.138 21.0571 28.873 21.0571 27.52V26.442H20.1551V27.487C20.1551 28.983 19.2091 30.314 17.7131 30.853L18.1861 31.579C19.3411 31.117 20.2101 30.237 20.6281 29.082C21.0571 30.116 21.9041 30.941 22.9821 31.359L23.4661 30.644ZM19.2201 33.053H24.9181V35.825H25.8311V32.327H19.2201V33.053ZM24.9181 25.958V28.015H22.7731V28.752H24.9181V31.777H25.8311V25.958H24.9181ZM28.6463 29.973C30.2633 29.775 31.7483 29.049 32.2873 27.96C32.8373 29.049 34.3113 29.775 35.9283 29.973L36.2473 29.258C34.5203 29.06 32.9473 28.213 32.8703 27.124H35.9393V26.398H28.6463V27.124H31.7043C31.6273 28.213 30.0543 29.06 28.3273 29.258L28.6463 29.973ZM34.7403 34.065C34.7403 34.725 33.8163 35.11 32.2763 35.11C30.7253 35.11 29.8123 34.725 29.8123 34.065C29.8123 33.405 30.7253 33.031 32.2763 33.031C33.8163 33.031 34.7403 33.405 34.7403 34.065ZM36.7423 31.293V30.567H27.8213V31.293H31.8253V32.349C29.9883 32.437 28.8993 33.042 28.8993 34.065C28.8993 35.187 30.1753 35.803 32.2873 35.803C34.3883 35.803 35.6533 35.187 35.6533 34.065C35.6533 33.042 34.5753 32.437 32.7383 32.349V31.293H36.7423Z" fill="#999999"/>
<path d="M16 7V19" stroke="#333333" stroke-linecap="round" stroke-linejoin="round"/>
<path d="M28 19H16" stroke="#333333" stroke-linecap="round" stroke-linejoin="round"/>
<path d="M18.6667 15.6667L22.1667 12.1667L24.5 14.5L28 11" stroke="#333333" stroke-linecap="round" stroke-linejoin="round"/>
</svg>
