<svg width="136" height="103" viewBox="0 0 136 103" fill="none" xmlns="http://www.w3.org/2000/svg">
<g clip-path="url(#clip0_6_2760)">
<path d="M35.0767 87.6227C35.0767 85.8323 33.6167 84.3809 31.8157 84.3809C30.0147 84.3809 28.5547 85.8323 28.5547 87.6227V99.7587C28.5547 101.549 30.0147 103 31.8157 103C33.6167 103 35.0767 101.549 35.0767 99.7587V87.6227Z" fill="#EFA226"/>
<path d="M51.3071 86.5211C51.3071 84.7307 49.8471 83.2793 48.0462 83.2793C46.2452 83.2793 44.7852 84.7307 44.7852 86.5211V98.6571C44.7852 100.447 46.2452 101.899 48.0462 101.899C49.8471 101.899 51.3071 100.447 51.3071 98.6571V86.5211Z" fill="#EFA226"/>
<path d="M35.0765 95.7579C54.4488 95.7579 70.1531 80.146 70.1531 60.8877C70.1531 41.6295 54.4488 26.0176 35.0765 26.0176C15.7043 26.0176 0 41.6295 0 60.8877C0 80.146 15.7043 95.7579 35.0765 95.7579Z" fill="#F9B843"/>
<path d="M45.2893 56.5968C46.819 56.5968 48.059 55.364 48.059 53.8433C48.059 52.3226 46.819 51.0898 45.2893 51.0898C43.7596 51.0898 42.5195 52.3226 42.5195 53.8433C42.5195 55.364 43.7596 56.5968 45.2893 56.5968Z" fill="#333333"/>
<path d="M57.6955 56.5968C59.2252 56.5968 60.4653 55.364 60.4653 53.8433C60.4653 52.3226 59.2252 51.0898 57.6955 51.0898C56.1658 51.0898 54.9258 52.3226 54.9258 53.8433C54.9258 55.364 56.1658 56.5968 57.6955 56.5968Z" fill="#333333"/>
<path d="M59.6801 61.6054C59.6801 57.1168 56.0324 57.9688 51.5171 57.9688C47.0019 57.9688 43.3438 57.1168 43.3438 61.6054C43.4194 63.7088 44.3132 65.7008 45.8367 67.1622C47.3603 68.6236 49.3948 69.4402 51.5119 69.4402C53.629 69.4402 55.6636 68.6236 57.1871 67.1622C58.7107 65.7008 59.6044 63.7088 59.6801 61.6054Z" fill="#212121"/>
<path d="M75.6831 62.1714C77.232 61.2762 77.7576 59.3023 76.8571 57.7626C75.9566 56.2228 73.971 55.7003 72.4221 56.5955L61.9234 62.6635C60.3745 63.5587 59.8489 65.5326 60.7494 67.0724C61.6499 68.6121 63.6355 69.1346 65.1844 68.2394L75.6831 62.1714Z" fill="#F9B843"/>
<path d="M55.1445 70.0934C56.8795 69.231 57.5067 70.4571 59.2312 69.5843C60.9558 68.7115 60.3391 67.5062 62.0741 66.623" stroke="#A1FFED" stroke-linecap="round" stroke-linejoin="round"/>
<path d="M55.0246 73.5897C56.7987 73.2812 57.9853 71.6015 57.6751 69.8379C57.3648 68.0742 55.6751 66.8946 53.9011 67.203L41.8757 69.2937C40.1016 69.6022 38.915 71.2819 39.2253 73.0455C39.5355 74.8091 41.2252 75.9888 42.9993 75.6804L55.0246 73.5897Z" fill="#F9B843"/>
<g clip-path="url(#clip1_6_2760)">
<path d="M57.76 70.75C57.76 70.75 57.57 73.05 55.6 73.54C53.63 74.03 47.75 74.95 47.75 74.95" stroke="#FF9343" stroke-width="0.5" stroke-linecap="round" stroke-linejoin="round"/>
</g>
<path d="M29.7364 21.3516C25.8115 26.7168 20.3464 30.777 14.0586 32.9992L16.5984 32.8953C21.8627 32.6619 26.9458 30.915 31.231 27.8663L33.6245 26.1623L29.7364 21.3516Z" fill="#FF8A8A"/>
<path d="M19.5238 8.37394L15.8865 3.78134C15.7243 3.57687 15.5022 3.42755 15.2509 3.35397C14.9996 3.28039 14.7315 3.28618 14.4837 3.37059C14.2358 3.45499 14.0205 3.61385 13.8674 3.82517C13.7143 4.03648 13.6309 4.28986 13.6289 4.55029V13.5587C15.8512 12.1432 17.8397 10.3942 19.5238 8.37394Z" fill="#FF8A8A"/>
<path d="M25.6904 16.1875L23.4641 13.3613C20.6836 16.4156 17.3464 18.9187 13.6289 20.7385V26.4325C18.6374 24.3704 22.86 20.7838 25.6904 16.1875Z" fill="#FF8A8A"/>
<path d="M23.4641 13.3624L19.5238 8.375C17.8405 10.399 15.852 12.1515 13.6289 13.5702V20.7499C17.3473 18.9271 20.6845 16.4204 23.4641 13.3624Z" fill="white"/>
<path d="M29.7341 21.3514L25.6474 16.1562C22.817 20.7526 18.5945 24.3391 13.5859 26.4012V32.9887H13.9936C20.303 30.7803 25.791 26.7229 29.7341 21.3514Z" fill="white"/>
<path d="M17.1926 2.85729C17.193 2.72414 17.162 2.59271 17.1021 2.47361C17.0422 2.35452 16.9551 2.25106 16.8477 2.17149C16.8933 2.05034 16.9123 1.92087 16.9033 1.79181C16.8942 1.66275 16.8575 1.53713 16.7954 1.42341C16.7269 1.30825 16.633 1.21006 16.5207 1.13626C16.4085 1.06246 16.2808 1.01495 16.1474 0.997372C16.1279 0.866651 16.0784 0.74216 16.0027 0.63348C15.9271 0.524799 15.8273 0.434878 15.7112 0.370612C15.595 0.306346 15.4656 0.269423 15.3328 0.262802C15.2 0.256181 15.0675 0.279984 14.9454 0.332371C14.2478 0.319685 13.5501 0.343971 12.8551 0.405112C12.7392 0.473209 12.6404 0.566591 12.5662 0.678189C12.492 0.789787 12.4442 0.916679 12.4265 1.04931C12.2982 1.06986 12.1762 1.11884 12.0694 1.19257C11.9627 1.26631 11.874 1.36296 11.8099 1.47535C11.8738 1.98683 11.7392 2.50331 11.4336 2.91963C11.4348 3.0525 11.4665 3.18333 11.5263 3.30217C11.586 3.42101 11.6723 3.52471 11.7785 3.60537C11.7248 3.72284 11.697 3.85037 11.697 3.97941C11.697 4.10845 11.7248 4.23604 11.7785 4.35351C11.8476 4.46725 11.9419 4.56376 12.0542 4.63579C12.1665 4.70781 12.2938 4.75341 12.4265 4.76909C12.4472 4.89803 12.4963 5.02081 12.5704 5.12861C12.6445 5.23641 12.7417 5.32659 12.8551 5.39255C12.9747 5.45363 13.1073 5.48546 13.2418 5.48546C13.3763 5.48546 13.5088 5.45363 13.6285 5.39255C13.7096 5.49486 13.8127 5.57778 13.9303 5.63532C14.0478 5.69285 14.1768 5.72348 14.3079 5.72499C14.4411 5.72158 14.572 5.68912 14.6912 5.62986C14.8104 5.57061 14.915 5.48607 14.9977 5.38215C15.1218 5.42873 15.2549 5.44675 15.387 5.43485C15.5191 5.42295 15.6468 5.3814 15.7605 5.31341C15.8742 5.24541 15.9708 5.15271 16.0433 5.04223C16.1157 4.93176 16.162 4.80644 16.1788 4.67561C16.3075 4.65627 16.4305 4.60899 16.5388 4.53717C16.6472 4.46535 16.7384 4.37071 16.8059 4.25997C16.862 4.1395 16.8911 4.00831 16.8911 3.87553C16.8911 3.74275 16.862 3.61157 16.8059 3.49109C16.9127 3.41962 17.0026 3.32593 17.0694 3.21649C17.1362 3.10705 17.1782 2.98449 17.1926 2.85729Z" fill="#FFC0C0"/>
<path d="M79.1724 58.2077C78.4625 57.8382 77.8348 57.3304 77.3266 56.7146C76.8185 56.0987 76.4402 55.3874 76.2145 54.623L75.9009 56.5349C76.1781 56.5349 76.444 56.6444 76.64 56.8392C76.836 57.0341 76.9461 57.2984 76.9461 57.5739C76.9461 57.8495 76.836 58.1138 76.64 58.3086C76.444 58.5035 76.1781 58.613 75.9009 58.613C75.7823 58.6111 75.6652 58.5864 75.5561 58.5402L74.584 64.5147C74.5621 64.6354 74.5772 64.7599 74.6272 64.872C74.6772 64.984 74.7599 65.0786 74.8646 65.1435C74.9693 65.2084 75.091 65.2406 75.2143 65.2359C75.3376 65.2312 75.4566 65.19 75.5561 65.1174L75.9218 64.8576C75.7384 64.8395 75.5642 64.7687 75.4204 64.654C75.2767 64.5392 75.1696 64.3855 75.1122 64.2113C75.0547 64.0372 75.0494 63.8502 75.0969 63.6732C75.1444 63.4961 75.2426 63.3365 75.3797 63.2139C75.5167 63.0913 75.6866 63.011 75.8687 62.9826C76.0508 62.9542 76.2373 62.9791 76.4055 63.0541C76.5737 63.1292 76.7163 63.2513 76.816 63.4054C76.9157 63.5596 76.9682 63.7392 76.967 63.9225C76.9779 63.9948 76.9779 64.0683 76.967 64.1407L80.7193 61.4392C80.6305 61.291 80.5802 61.1232 80.5729 60.9508C80.5729 60.7001 80.6732 60.4595 80.8515 60.2822C81.0299 60.1049 81.2718 60.0053 81.524 60.0053C81.6597 60.0059 81.7937 60.0358 81.9164 60.0933C82.0392 60.1507 82.1479 60.2342 82.2348 60.3378L83.7712 59.2364C82.9746 59.3837 82.1561 59.3685 81.3655 59.1917C80.575 59.0148 79.8288 58.6801 79.1724 58.2077ZM77.1865 61.6054C76.9959 61.6054 76.8096 61.5491 76.6513 61.4436C76.4929 61.3381 76.3697 61.1881 76.2972 61.0128C76.2247 60.8376 76.2063 60.6449 76.2443 60.4591C76.2822 60.2734 76.3748 60.1031 76.5103 59.9699C76.6459 59.8366 76.8182 59.7464 77.0054 59.7107C77.1926 59.675 77.3863 59.6954 77.5618 59.7693C77.7373 59.8433 77.8868 59.9674 77.9912 60.126C78.0956 60.2846 78.1502 60.4704 78.1481 60.6599C78.1481 60.785 78.1231 60.9087 78.0747 61.0241C78.0262 61.1395 77.9552 61.2442 77.8658 61.3322C77.7764 61.4201 77.6703 61.4895 77.5537 61.5364C77.4371 61.5833 77.3123 61.6068 77.1865 61.6054Z" fill="#5475FC"/>
<path d="M81.8785 53.8438C82.9033 54.4394 83.7704 55.2693 84.4078 56.2648C83.7704 55.2693 82.9033 54.4394 81.8785 53.8438C79.6 52.4411 77.1438 52.2853 76.3913 53.501C76.2964 53.661 76.2326 53.8372 76.2031 54.0205C76.2326 53.8372 76.2964 53.661 76.3913 53.501C77.1438 52.3165 79.6 52.4411 81.8785 53.8438Z" fill="#4366D6"/>
<path d="M84.2531 58.9648C84.0935 59.078 83.9172 59.1656 83.7305 59.2246C83.9172 59.1656 84.0935 59.078 84.2531 58.9648Z" fill="#4366D6"/>
<path d="M76.2031 54.041C76.1719 54.2337 76.1719 54.4302 76.2031 54.6229C76.1771 54.4298 76.1771 54.2341 76.2031 54.041Z" fill="#4366D6"/>
<path d="M84.4093 56.2637C84.6557 56.5863 84.8091 56.9694 84.8533 57.3721C84.8975 57.7747 84.8307 58.1817 84.6602 58.5496C84.5621 58.7107 84.4302 58.849 84.2734 58.9548C84.4278 58.8462 84.5592 58.7085 84.6602 58.5496C84.8307 58.1817 84.8975 57.7747 84.8533 57.3721C84.8091 56.9694 84.6557 56.5863 84.4093 56.2637Z" fill="#4366D6"/>
<path d="M84.4078 56.2648C83.7704 55.2693 82.9033 54.4394 81.8785 53.8438C79.6 52.4411 77.1438 52.2853 76.3912 53.501C76.2964 53.661 76.2326 53.8372 76.2031 54.0205C76.1771 54.2136 76.1771 54.4093 76.2031 54.6024C76.7598 56.0929 77.8019 57.3556 79.1636 58.1897C80.5252 59.0237 82.1284 59.3812 83.718 59.2053C83.9048 59.1463 84.0811 59.0587 84.2406 58.9456C84.3973 58.8397 84.5292 58.7015 84.6273 58.5403C84.8003 58.1765 84.8711 57.7731 84.8325 57.3725C84.7938 56.972 84.6471 56.5893 84.4078 56.2648Z" fill="#4366D6"/>
<path d="M76.9668 57.5625C76.9668 57.2869 76.8567 57.0226 76.6607 56.8278C76.4647 56.6329 76.1989 56.5234 75.9217 56.5234L75.5977 58.5184C75.7068 58.5645 75.824 58.5892 75.9426 58.5911C76.2143 58.5857 76.4733 58.4753 76.6645 58.2833C76.8558 58.0912 76.9642 57.8327 76.9668 57.5625Z" fill="white"/>
<path d="M76.0163 62.9648C75.7805 62.9787 75.5583 63.0792 75.3929 63.2469C75.2276 63.4146 75.1309 63.6375 75.1218 63.8722C75.1127 64.1068 75.1917 64.3365 75.3435 64.5164C75.4954 64.6963 75.7091 64.8136 75.9431 64.8455L76.9256 64.1286C76.9365 64.0562 76.9365 63.9827 76.9256 63.9103C76.9259 63.6666 76.8314 63.4322 76.662 63.2561C76.4925 63.0799 76.2612 62.9756 76.0163 62.9648Z" fill="white"/>
<path d="M77.1882 59.7031C76.998 59.7031 76.812 59.7592 76.6539 59.8643C76.4958 59.9693 76.3725 60.1186 76.2998 60.2932C76.227 60.4679 76.2079 60.6601 76.245 60.8455C76.2821 61.031 76.3737 61.2013 76.5082 61.335C76.6427 61.4687 76.814 61.5597 77.0005 61.5966C77.1871 61.6335 77.3804 61.6145 77.5561 61.5422C77.7318 61.4698 77.882 61.3473 77.9877 61.1901C78.0933 61.033 78.1497 60.8482 78.1497 60.6591C78.1497 60.4056 78.0484 60.1624 77.8681 59.9831C77.6877 59.8038 77.4432 59.7031 77.1882 59.7031Z" fill="white"/>
<path d="M81.4824 59.9941C81.2302 59.9941 80.9882 60.0938 80.8098 60.2711C80.6315 60.4484 80.5312 60.6889 80.5312 60.9396C80.5385 61.112 80.5888 61.2798 80.6776 61.428L82.1931 60.3266C82.1062 60.223 81.9976 60.1396 81.8748 60.0822C81.752 60.0247 81.6181 59.9947 81.4824 59.9941Z" fill="white"/>
<path d="M118.032 7.77285C112.847 11.3263 108.135 15.5155 104.005 20.2413C99.7822 24.8159 95.98 29.7572 92.6439 35.0061L92.4453 34.8918C92.6439 34.5073 92.8216 34.1125 93.0202 33.728C98.2249 23.5451 105.708 14.6837 114.896 7.82479C116.338 6.7338 116.359 6.7546 118.032 7.77285Z" fill="#A7D02C"/>
<path d="M84.9102 49.5718C85.4746 48.9276 86.0181 48.2626 86.6138 47.6496C91.0635 43.1854 95.8467 39.0625 100.922 35.3162C105.07 32.0441 109.481 29.1179 114.113 26.5674C114.698 26.2661 115.158 26.8064 115.67 27.2948C115.806 27.4298 115.158 27.8143 114.98 27.9182C112.19 29.4872 109.754 31.0353 107.11 32.8121C100.654 37.0536 94.4327 41.639 88.4743 46.5482C87.2828 47.5872 86.1644 48.6263 85.0147 49.6653L84.9102 49.5718Z" fill="#F48DBA"/>
<path d="M96.135 47.4321C99.3717 46.3718 102.67 45.5079 106.012 44.8449C112.643 43.3373 119.385 42.3609 126.174 41.9252C127.355 41.8629 126.999 42.6837 127.052 43.1721C127.104 43.6604 126.686 43.7124 126.341 43.7332C122.777 43.941 119.234 44.2838 115.69 44.7099C109.54 45.4407 103.434 46.5021 97.3997 47.8893L96.3545 48.1283C95.8214 48.0451 95.8215 47.7854 96.135 47.4321Z" fill="#A7D02C"/>
<path d="M101.582 41.3537C107.428 38.3489 113.605 36.0268 119.988 34.4337C123.704 33.368 127.499 32.6001 131.339 32.1374C131.684 32.1374 132.384 31.9088 132.384 32.5219C132.384 33.1349 132.676 33.696 131.621 33.8311C122.665 35.0158 113.854 37.1047 105.324 40.0653C104.059 40.4497 102.826 40.8861 101.582 41.3537Z" fill="#FCC327"/>
<path d="M90.0233 51.6501C96.395 50.8937 102.826 50.7649 109.223 51.2656C111.364 51.389 113.492 51.6738 115.589 52.1176C116.749 52.3774 116.216 53.1567 116.049 53.6762C115.881 54.1957 115.578 54.0606 115.244 53.9983C106.99 52.3451 98.5761 51.6167 90.1592 51.8267C90.0025 51.8891 89.9711 51.8163 90.0233 51.6501Z" fill="#F25A19"/>
<path d="M72.0117 24.0535C72.9419 22.3287 72.9106 22.3599 74.4888 23.4405C78.6696 26.3291 80.7599 30.4852 81.617 35.3375C82.181 38.5968 82.4329 41.9018 82.3695 45.2084C82.3727 45.4561 82.3191 45.7013 82.2128 45.9253C82.0142 44.2317 81.8365 42.538 81.5961 40.8548C81.2909 37.8353 80.5627 34.8732 79.4325 32.0542C77.9097 28.6496 75.3019 25.8381 72.0117 24.0535Z" fill="#F25635"/>
<path d="M85.2148 44.7623C85.497 43.3284 85.7897 41.8946 86.051 40.4607C86.653 37.186 87.0682 33.88 87.2948 30.5586C87.5131 26.9566 87.3906 23.3422 86.9289 19.763C86.8139 18.7967 87.6397 19.0565 88.0891 18.8902C88.7789 18.6409 88.6535 19.3162 88.6744 19.5864C88.8991 21.9524 88.9305 24.3327 88.7684 26.7038C88.5005 30.4224 87.9837 34.1192 87.2216 37.7696C86.7964 40.1629 86.1239 42.5062 85.2148 44.7623Z" fill="#65CCDA"/>
<path d="M88.1289 53.9668C92.0059 54.301 95.7364 55.5978 98.978 57.7385C99.9248 58.2796 100.785 58.9591 101.528 59.7542C102.093 60.4296 101.11 60.5647 100.943 61.0011C100.776 61.4375 100.514 61.292 100.253 61.0011C97.0829 57.7952 93.1166 55.4796 88.756 54.2889C88.5392 54.1971 88.3296 54.0895 88.1289 53.9668Z" fill="#64CCDA"/>
<path d="M96.1369 47.4316C96.1369 47.6914 96.0114 47.9823 96.3459 48.1486C93.5448 48.8343 90.7855 49.6552 87.9844 50.4864C90.5874 49.1887 93.3198 48.1649 96.1369 47.4316Z" fill="#A5CE1F"/>
<path d="M95.0928 36.98C94.2671 36.98 93.849 36.5851 93.8281 35.9409C93.8465 35.6564 93.9711 35.3891 94.1775 35.1912C94.384 34.9934 94.6573 34.8793 94.944 34.8715C95.2306 34.8637 95.5099 34.9627 95.7269 35.149C95.944 35.3353 96.0831 35.5955 96.1171 35.8786C96.1256 36.0185 96.1055 36.1586 96.0581 36.2906C96.0107 36.4225 95.9369 36.5436 95.8412 36.6465C95.7456 36.7493 95.6299 36.832 95.5013 36.8893C95.3727 36.9466 95.2338 36.9774 95.0928 36.98Z" fill="#66CCDB"/>
<path d="M122.758 49.0843C122.599 49.1047 122.437 49.0921 122.283 49.0473C122.129 49.0024 121.986 48.9263 121.863 48.8237C121.74 48.7211 121.64 48.5943 121.569 48.4512C121.498 48.3082 121.458 48.152 121.45 47.9926C121.443 47.8332 121.469 47.674 121.527 47.5251C121.585 47.3763 121.673 47.241 121.786 47.1277C121.899 47.0145 122.035 46.9258 122.184 46.8674C122.333 46.8089 122.493 46.7818 122.654 46.788C122.96 46.796 123.251 46.9219 123.465 47.139C123.68 47.3561 123.801 47.6474 123.803 47.9517C123.812 48.2386 123.708 48.5176 123.512 48.7292C123.317 48.9407 123.047 49.0681 122.758 49.0843Z" fill="#F11E44"/>
<path d="M91.202 9.3201C91.0477 9.33342 90.8923 9.31248 90.7471 9.25877C90.6019 9.20506 90.4705 9.11992 90.3625 9.00954C90.2545 8.89916 90.1725 8.76629 90.1224 8.62053C90.0724 8.47478 90.0556 8.31979 90.0732 8.16678C90.1003 7.88646 90.2315 7.6262 90.4411 7.43684C90.6508 7.24747 90.924 7.14258 91.2072 7.14258C91.4905 7.14258 91.7637 7.24747 91.9733 7.43684C92.183 7.6262 92.3142 7.88646 92.3413 8.16678C92.3592 8.32074 92.3422 8.47668 92.2915 8.62326C92.2409 8.76984 92.158 8.90334 92.0487 9.01392C91.9395 9.12449 91.8067 9.20941 91.6602 9.26239C91.5137 9.31536 91.3572 9.33507 91.202 9.3201Z" fill="#A7CF2A"/>
<path d="M91.194 61.168C91.8212 61.2407 92.2392 61.542 92.2392 62.207C92.1759 62.4228 92.0439 62.6124 91.863 62.7473C91.6821 62.8822 91.462 62.9551 91.2359 62.9551C91.0097 62.9551 90.7897 62.8822 90.6087 62.7473C90.4278 62.6124 90.2958 62.4228 90.2325 62.207C90.224 62.0753 90.2424 61.9433 90.2866 61.8189C90.3309 61.6945 90.4 61.5803 90.4899 61.4832C90.5798 61.3861 90.6885 61.3081 90.8095 61.2539C90.9305 61.1997 91.0613 61.1705 91.194 61.168Z" fill="#A7CF29"/>
<path d="M76.4852 47.9408C75.9626 47.8473 75.5759 47.6084 75.6072 47.0161C75.6009 46.9035 75.6189 46.7908 75.66 46.6857C75.7011 46.5806 75.7644 46.4855 75.8456 46.4067C75.9268 46.328 76.0241 46.2674 76.1308 46.2292C76.2375 46.1909 76.3512 46.1757 76.4643 46.1848C76.5862 46.171 76.7096 46.1851 76.8251 46.226C76.9407 46.2669 77.0454 46.3335 77.1311 46.4207C77.2168 46.5079 77.2813 46.6134 77.3197 46.7292C77.3581 46.845 77.3694 46.968 77.3527 47.0888C77.3527 47.5979 76.9973 47.8785 76.4852 47.9408Z" fill="#FCC228"/>
<path d="M108.774 40.9492C109.15 41.0012 109.411 41.1986 109.422 41.5726C109.426 41.6552 109.413 41.7379 109.383 41.8151C109.353 41.8923 109.307 41.9622 109.248 42.0202C109.188 42.0782 109.117 42.123 109.039 42.1516C108.961 42.1801 108.878 42.1917 108.795 42.1857C108.719 42.1899 108.643 42.1788 108.571 42.1531C108.5 42.1275 108.434 42.0878 108.379 42.0364C108.323 41.985 108.279 41.9229 108.248 41.8539C108.217 41.785 108.2 41.7105 108.199 41.635C108.126 41.2401 108.418 41.0531 108.774 40.9492Z" fill="#F48BB9"/>
<path d="M101.207 67.829C101.552 67.829 101.813 67.9953 101.823 68.4109C101.836 68.4925 101.83 68.576 101.806 68.6551C101.782 68.7342 101.74 68.8069 101.684 68.8677C101.628 68.9286 101.559 68.9761 101.481 69.0068C101.404 69.0374 101.321 69.0503 101.238 69.0447C101.155 69.0551 101.071 69.0477 100.992 69.0232C100.912 68.9986 100.838 68.9574 100.776 68.9023C100.714 68.8472 100.664 68.7795 100.63 68.7037C100.596 68.6279 100.579 68.5458 100.58 68.4628C100.574 68.3789 100.586 68.2947 100.615 68.2158C100.644 68.1369 100.69 68.065 100.749 68.0051C100.808 67.9451 100.88 67.8984 100.959 67.868C101.038 67.8377 101.122 67.8244 101.207 67.829Z" fill="#F1193D"/>
<path d="M97.1819 44.0039C97.5999 44.1078 97.5581 44.4922 97.6104 44.7728C97.6626 45.0533 97.3177 45.2196 97.0878 45.23C96.6174 45.23 96.6383 44.7832 96.5652 44.5026C96.4397 44.0039 96.9937 44.2533 97.1819 44.0039Z" fill="#A5CF24"/>
<path d="M103.056 48.6478C103.053 48.7824 103.001 48.9113 102.908 49.0093C102.815 49.1074 102.689 49.1674 102.554 49.1777C102.415 49.1777 102.282 49.123 102.184 49.0256C102.086 48.9281 102.031 48.796 102.031 48.6582C102.031 48.5204 102.086 48.3883 102.184 48.2909C102.282 48.1934 102.415 48.1387 102.554 48.1387C102.826 48.1595 102.962 48.3776 103.056 48.6478Z" fill="#F3294C"/>
<path d="M105.072 56.7323C105.073 56.8007 105.058 56.8684 105.03 56.9309C105.002 56.9934 104.961 57.0491 104.91 57.0944C104.858 57.1397 104.798 57.1735 104.732 57.1935C104.666 57.2135 104.597 57.2193 104.528 57.2103C104.468 57.2106 104.409 57.1983 104.354 57.1744C104.299 57.1504 104.25 57.1153 104.21 57.0712C104.169 57.0271 104.139 56.9751 104.12 56.9185C104.101 56.862 104.094 56.8021 104.1 56.7427C104.094 56.6834 104.1 56.6235 104.12 56.5671C104.14 56.5107 104.172 56.4593 104.214 56.4167C104.256 56.374 104.306 56.341 104.363 56.3201C104.419 56.2993 104.479 56.291 104.539 56.296C104.603 56.2888 104.668 56.2945 104.729 56.3127C104.791 56.3309 104.849 56.3612 104.898 56.4019C104.948 56.4426 104.989 56.4929 105.019 56.5496C105.049 56.6064 105.067 56.6685 105.072 56.7323Z" fill="#F48AB8"/>
<path d="M126.04 58.8508C126.16 58.8588 126.271 58.9115 126.353 58.9983C126.434 59.0852 126.48 59.1996 126.479 59.3184C126.479 59.6405 126.249 59.786 125.936 59.7548C125.877 59.7516 125.82 59.7358 125.768 59.7085C125.716 59.6812 125.671 59.643 125.635 59.5966C125.599 59.5502 125.574 59.4967 125.561 59.4397C125.548 59.3827 125.547 59.3236 125.56 59.2665C125.561 59.2068 125.574 59.1479 125.6 59.0938C125.625 59.0396 125.662 58.9914 125.707 58.9522C125.752 58.913 125.805 58.8838 125.863 58.8663C125.92 58.8488 125.981 58.8435 126.04 58.8508Z" fill="#73D0DD"/>
<path d="M88.5395 43.6496C88.5458 43.7103 88.5386 43.7716 88.5184 43.8293C88.4982 43.8869 88.4655 43.9394 88.4226 43.983C88.3797 44.0267 88.3277 44.0604 88.2702 44.0818C88.2127 44.1032 88.1512 44.1117 88.09 44.1068C87.9709 44.1068 87.8565 44.0597 87.7722 43.9759C87.6879 43.8922 87.6406 43.7785 87.6406 43.66C87.6406 43.5415 87.6879 43.4279 87.7722 43.3441C87.8565 43.2603 87.9709 43.2132 88.09 43.2132C88.1497 43.2069 88.2101 43.2138 88.2668 43.2333C88.3235 43.2529 88.3751 43.2846 88.4181 43.3263C88.461 43.368 88.4941 43.4185 88.5151 43.4744C88.5361 43.5303 88.5444 43.5901 88.5395 43.6496Z" fill="#FCC11F"/>
<path d="M123.101 30.0913C123.112 30.1516 123.11 30.2138 123.093 30.2729C123.076 30.332 123.046 30.3864 123.004 30.4318C122.963 30.4772 122.911 30.5123 122.853 30.5344C122.796 30.5564 122.734 30.5648 122.672 30.5589C122.611 30.5646 122.55 30.5579 122.492 30.5393C122.434 30.5207 122.38 30.4906 122.334 30.4507C122.288 30.4109 122.251 30.3621 122.225 30.3075C122.198 30.2528 122.183 30.1935 122.181 30.1329C122.176 30.0721 122.185 30.0111 122.206 29.9538C122.226 29.8965 122.259 29.8441 122.301 29.8001C122.344 29.756 122.395 29.7212 122.451 29.698C122.508 29.6748 122.569 29.6637 122.63 29.6653C122.691 29.6537 122.753 29.6563 122.813 29.673C122.872 29.6896 122.927 29.7198 122.973 29.7611C123.018 29.8025 123.054 29.8539 123.076 29.9112C123.098 29.9685 123.107 30.0302 123.101 30.0913Z" fill="#FCC224"/>
<path d="M89.3947 57.1991C89.3343 57.2033 89.2736 57.1956 89.2161 57.1765C89.1587 57.1573 89.1057 57.1271 89.06 57.0875C89.0144 57.0479 88.977 56.9998 88.9502 56.9458C88.9233 56.8919 88.9074 56.8331 88.9034 56.773C88.8939 56.713 88.8981 56.6517 88.9156 56.5935C88.9331 56.5354 88.9636 56.4819 89.0048 56.437C89.0459 56.3921 89.0967 56.3569 89.1533 56.3342C89.2099 56.3114 89.271 56.3016 89.332 56.3055C89.3922 56.2945 89.4541 56.2971 89.5131 56.3132C89.5721 56.3292 89.6268 56.3584 89.673 56.3983C89.7191 56.4382 89.7557 56.4879 89.7799 56.5438C89.8041 56.5997 89.8153 56.6603 89.8127 56.7211C89.8336 57.012 89.656 57.1471 89.3947 57.1991Z" fill="#FCC01A"/>
<path d="M103.17 8.20756C103.229 8.20458 103.289 8.21413 103.345 8.23553C103.401 8.25693 103.452 8.2897 103.494 8.3318C103.536 8.3739 103.569 8.42439 103.591 8.47994C103.612 8.5355 103.622 8.59488 103.619 8.65434C103.628 8.72111 103.62 8.78898 103.596 8.85208C103.573 8.91518 103.534 8.97168 103.484 9.01665C103.433 9.06162 103.373 9.09372 103.307 9.11026C103.241 9.12679 103.173 9.12722 103.107 9.11152C103.048 9.11097 102.989 9.09756 102.935 9.07214C102.882 9.04673 102.834 9.00992 102.797 8.96439C102.759 8.91886 102.731 8.86566 102.716 8.80851C102.701 8.75137 102.699 8.6917 102.71 8.63361C102.72 8.34267 102.898 8.21795 103.17 8.20756Z" fill="#F11339"/>
<path d="M83.0386 22.3808C82.9759 22.6406 82.8296 22.838 82.5578 22.8276C82.2861 22.8172 82.1398 22.6094 82.1293 22.3496C82.1189 22.0899 82.307 21.9237 82.5892 21.9341C82.8714 21.9444 83.0386 22.1211 83.0386 22.3808Z" fill="#A7CF24"/>
<path d="M90.024 51.6504L90.1808 51.8271C89.9482 51.9275 89.6974 51.9792 89.4439 51.9792C89.1904 51.9792 88.9396 51.9275 88.707 51.8271L90.024 51.6504Z" fill="#FB9C80"/>
<path d="M84.3866 39.0476C84.3866 39.133 84.3525 39.215 84.2917 39.2754C84.231 39.3358 84.1485 39.3697 84.0626 39.3697C83.9766 39.3697 83.8943 39.3358 83.8335 39.2754C83.7727 39.215 83.7386 39.133 83.7386 39.0476C83.7366 39.0034 83.7444 38.9593 83.7615 38.9185C83.7786 38.8777 83.8046 38.8411 83.8375 38.8113C83.8704 38.7816 83.9095 38.7594 83.952 38.7463C83.9945 38.7333 84.0394 38.7297 84.0835 38.7359C84.2925 38.7047 84.3761 38.8086 84.3866 39.0476Z" fill="#A0CB0A"/>
<path d="M75.8918 13.6953L77.3341 14.5681L78.881 13.8927L78.4839 15.524L79.6127 16.7709L77.9299 16.9059L77.0833 18.3606L76.4353 16.8124L74.7734 16.4592L76.0695 15.3682L75.8918 13.6953Z" fill="#FCC22A"/>
<path d="M130.01 66.541L129.916 67.1956L130.407 67.632L129.759 67.7567L129.488 68.3593L129.174 67.7775L128.516 67.7047L128.965 67.2268L128.829 66.5826L129.435 66.8631L130.01 66.541Z" fill="#FCC22A"/>
<path d="M109.652 66.5811L110.938 66.3525L111.471 65.168L112.088 66.3109L113.373 66.4564L112.474 67.3915L112.736 68.6487L111.565 68.0877L110.436 68.7319L110.614 67.4435L109.652 66.5811Z" fill="#F48DBA"/>
<path d="M109.242 19.0672L110.925 19.1503L111.96 17.8203L112.399 19.4412L113.987 20.0127L112.566 20.927L112.524 22.5999L111.207 21.5505L109.587 22.018L110.193 20.4491L109.242 19.0672Z" fill="#FCC22A"/>
<path d="M124.512 16.2195L126.205 16.3026L127.229 14.9727L127.668 16.5936L129.257 17.165L127.846 18.0794L127.794 19.7522L126.487 18.7028L124.857 19.1704L125.463 17.6014L124.512 16.2195Z" fill="#A7D02B"/>
<path d="M129.874 49.416L131.641 51.1616L134.087 50.7148L132.958 52.928L134.149 55.0996L131.693 54.7151L129.969 56.5127L129.582 54.0709L127.324 53.0007L129.55 51.8681L129.874 49.416Z" fill="#65CCDA"/>
<path d="M83.416 3.04492L83.2801 3.95928L83.9595 4.59309L83.0502 4.74895L82.653 5.58018L82.2245 4.75934L81.3047 4.65543L81.9527 3.99045L81.775 3.08648L82.6112 3.5021L83.416 3.04492Z" fill="#F48DBA"/>
<path d="M93.347 21.1133L94.0682 22.4536L95.5942 22.6199L94.5385 23.7213L94.8521 25.2071L93.4725 24.5525L92.1451 25.311L92.3437 23.8044L91.2148 22.7757L92.7199 22.5056L93.347 21.1133Z" fill="#F48DBA"/>
<path d="M97.9359 15.2637H97.6642C97.2197 15.2637 96.8594 15.6219 96.8594 16.0637V16.3339C96.8594 16.7757 97.2197 17.1339 97.6642 17.1339H97.9359C98.3804 17.1339 98.7407 16.7757 98.7407 16.3339V16.0637C98.7407 15.6219 98.3804 15.2637 97.9359 15.2637Z" fill="#F25534"/>
<path d="M113.959 57.2887L113.598 57.1858C112.987 57.012 112.35 57.363 112.176 57.9698L112.072 58.3294C111.897 58.9363 112.25 59.5691 112.861 59.7429L113.223 59.8459C113.833 60.0197 114.47 59.6686 114.644 59.0617L114.748 58.7021C114.923 58.0953 114.57 57.4625 113.959 57.2887Z" fill="#F25534"/>
<path d="M102.371 27.9383L102.113 28.0219C101.69 28.1587 101.459 28.6102 101.597 29.0303L101.681 29.2872C101.818 29.7074 102.273 29.9371 102.695 29.8003L102.954 29.7167C103.376 29.58 103.607 29.1285 103.47 28.7083L103.386 28.4515C103.248 28.0313 102.794 27.8015 102.371 27.9383Z" fill="#F25534"/>
<path d="M84.2965 30.0363C84.3148 29.7442 84.0915 29.4926 83.7977 29.4744C83.5038 29.4562 83.2508 29.6782 83.2324 29.9703C83.2141 30.2624 83.4374 30.514 83.7313 30.5322C84.0251 30.5504 84.2782 30.3284 84.2965 30.0363Z" fill="#F25534"/>
<path d="M117.397 12.6445H117.125C116.681 12.6445 116.32 13.0027 116.32 13.4446V13.7147C116.32 14.1566 116.681 14.5148 117.125 14.5148H117.397C117.841 14.5148 118.202 14.1566 118.202 13.7147V13.4446C118.202 13.0027 117.841 12.6445 117.397 12.6445Z" fill="#F48EBB"/>
<path d="M128.637 25.8162L128.891 25.7211C129.307 25.5655 129.518 25.1042 129.361 24.6906L129.266 24.4378C129.109 24.0242 128.645 23.815 128.229 23.9705L127.975 24.0656C127.559 24.2211 127.348 24.6825 127.505 25.0961L127.6 25.349C127.757 25.7626 128.221 25.9717 128.637 25.8162Z" fill="#F48EBB"/>
<path d="M130.168 43.2849L130.422 43.1898C130.839 43.0343 131.049 42.573 130.893 42.1594L130.797 41.9065C130.64 41.4929 130.176 41.2837 129.76 41.4393L129.506 41.5344C129.09 41.6899 128.879 42.1513 129.036 42.5649L129.132 42.8178C129.288 43.2313 129.752 43.4405 130.168 43.2849Z" fill="#F48EBB"/>
<path d="M87.0632 15.7457L86.85 15.5782C86.5014 15.3042 85.9953 15.363 85.7196 15.7097L85.5511 15.9216C85.2754 16.2682 85.3345 16.7713 85.6832 17.0454L85.8964 17.2129C86.2451 17.487 86.7512 17.4281 87.0269 17.0815L87.1954 16.8696C87.4711 16.523 87.4119 16.0198 87.0632 15.7457Z" fill="#A7CF2A"/>
<path d="M112.712 32.902L112.499 32.7345C112.15 32.4604 111.644 32.5193 111.368 32.8659L111.2 33.0778C110.924 33.4245 110.983 33.9276 111.332 34.2016L111.545 34.3692C111.894 34.6432 112.4 34.5844 112.675 34.2378L112.844 34.0258C113.12 33.6792 113.06 33.1761 112.712 32.902Z" fill="#A7CF2A"/>
<path d="M135.991 32.3478L135.93 32.0845C135.831 31.6538 135.399 31.3849 134.966 31.4838L134.701 31.5443C134.268 31.6433 133.997 32.0726 134.097 32.5033L134.158 32.7666C134.257 33.1972 134.689 33.4661 135.122 33.3672L135.387 33.3067C135.82 33.2077 136.091 32.7784 135.991 32.3478Z" fill="#A7CF2A"/>
<path d="M119.789 54.8648C120.288 55.0069 120.809 54.7197 120.952 54.2232C121.095 53.7267 120.806 53.209 120.307 53.0668C119.807 52.9246 119.286 53.2118 119.143 53.7083C119 54.2048 119.289 54.7226 119.789 54.8648Z" fill="#A7CF2A"/>
<path d="M71.3965 20.83L70.5766 20.1856C70.2279 19.9116 69.7218 19.9705 69.4462 20.3171L68.798 21.1322C68.5223 21.4788 68.5815 21.9819 68.9301 22.2559L69.75 22.9003C70.0987 23.1743 70.6048 23.1155 70.8805 22.7689L71.5287 21.9538C71.8044 21.6072 71.7452 21.1041 71.3965 20.83Z" fill="#65CCDA"/>
<path d="M118.125 25.5788L118 25.3628C117.778 24.9801 117.286 24.849 116.901 25.07L116.683 25.1946C116.299 25.4156 116.167 25.9049 116.389 26.2876L116.514 26.5035C116.737 26.8862 117.229 27.0173 117.614 26.7964L117.831 26.6717C118.216 26.4508 118.348 25.9614 118.125 25.5788Z" fill="#65CCDA"/>
<path d="M122.743 39.0682L122.565 38.8919C122.251 38.5795 121.741 38.5795 121.427 38.8919L121.25 39.0682C120.935 39.3807 120.935 39.8873 121.25 40.1997L121.427 40.376C121.741 40.6885 122.251 40.6884 122.565 40.376L122.743 40.1997C123.057 39.8872 123.057 39.3807 122.743 39.0682Z" fill="#65CCDA"/>
<path d="M115.069 48.5418C115.347 48.2659 115.347 47.8185 115.069 47.5426C114.791 47.2666 114.341 47.2666 114.064 47.5426C113.786 47.8185 113.786 48.2658 114.064 48.5418C114.341 48.8177 114.791 48.8177 115.069 48.5418Z" fill="#65CCDA"/>
<path d="M122.078 61.948V61.5012C122.078 61.0593 121.718 60.7012 121.273 60.7012H120.824C120.379 60.7012 120.019 61.0593 120.019 61.5012V61.948C120.019 62.3899 120.379 62.748 120.824 62.748H121.273C121.718 62.748 122.078 62.3899 122.078 61.948Z" fill="#65CCDA"/>
<path d="M104.394 64.0633L104.712 63.7474C105.026 63.4349 105.026 62.9283 104.712 62.6159L104.394 62.3C104.08 61.9875 103.57 61.9875 103.256 62.3L102.938 62.6159C102.624 62.9283 102.624 63.4349 102.938 63.7474L103.256 64.0633C103.57 64.3757 104.08 64.3757 104.394 64.0633Z" fill="#FCC224"/>
<path d="M119.634 6.43236L119.767 6.30012C120.081 5.98767 120.081 5.48108 119.767 5.16863L119.634 5.03639C119.32 4.72395 118.81 4.72399 118.496 5.03643L118.363 5.16868C118.048 5.48112 118.048 5.98767 118.363 6.30012L118.496 6.43236C118.81 6.7448 119.32 6.7448 119.634 6.43236Z" fill="#FCC224"/>
<path d="M74.7132 35.9038C74.9298 35.6314 74.8833 35.236 74.6093 35.0207C74.3354 34.8054 73.9377 34.8517 73.7211 35.124C73.5045 35.3964 73.551 35.7917 73.8249 36.007C74.0989 36.2223 74.4966 36.1761 74.7132 35.9038Z" fill="#F48CBA"/>
</g>
<defs>
<clipPath id="clip0_6_2760">
<rect width="136" height="103" fill="white"/>
</clipPath>
<clipPath id="clip1_6_2760">
<rect width="10.51" height="4.7" fill="white" transform="translate(47.5 70.5)"/>
</clipPath>
</defs>
</svg>
