<svg width="10" height="12" viewBox="0 0 10 12" fill="none" xmlns="http://www.w3.org/2000/svg">
<path d="M8.94001 5.00039L1.46003 0.100422C1.30669 0.0209647 1.13531 -0.0174463 0.96272 -0.0110282C0.790134 -0.00461013 0.622188 0.0464161 0.475171 0.137043C0.328154 0.22767 0.207126 0.354819 0.123853 0.506123C0.0405795 0.657426 -0.00201948 0.827692 7.35687e-05 1.00039V10.7904C-0.00201948 10.9631 0.0405795 11.1334 0.123853 11.2847C0.207126 11.436 0.328154 11.5631 0.475171 11.6538C0.622188 11.7444 0.790134 11.7954 0.96272 11.8018C1.13531 11.8083 1.30669 11.7698 1.46003 11.6904L8.94001 6.80043C9.10909 6.71855 9.25162 6.59065 9.35139 6.43148C9.45116 6.2723 9.50422 6.08827 9.50422 5.90041C9.50422 5.71255 9.45116 5.52852 9.35139 5.36934C9.25162 5.21017 9.10909 5.08227 8.94001 5.00039Z" fill="white"/>
</svg>
