<svg width="320" height="207" viewBox="0 0 320 207" fill="none" xmlns="http://www.w3.org/2000/svg">
<path d="M14.0066 161.13C15.3966 161.13 16.2866 159.86 16.2866 157.31C16.2866 154.77 15.3966 153.53 14.0066 153.53C12.6066 153.53 11.7166 154.76 11.7166 157.31C11.7166 159.86 12.6066 161.13 14.0066 161.13ZM14.0066 160.4C13.1666 160.4 12.6066 159.47 12.6066 157.31C12.6066 155.17 13.1666 154.26 14.0066 154.26C14.8366 154.26 15.3966 155.17 15.3966 157.31C15.3966 159.47 14.8366 160.4 14.0066 160.4Z" fill="#999999"/>
<path d="M6.54625 131H11.1562V130.21H9.12625C8.75625 130.21 8.30625 130.25 7.92625 130.28C9.64625 128.65 10.7962 127.16 10.7962 125.7C10.7962 124.39 9.97625 123.53 8.66625 123.53C7.73625 123.53 7.10625 123.96 6.50625 124.61L7.03625 125.13C7.43625 124.65 7.95625 124.28 8.55625 124.28C9.46625 124.28 9.90625 124.89 9.90625 125.73C9.90625 126.99 8.84625 128.45 6.54625 130.46V131ZM14.2331 131.13C15.6231 131.13 16.5131 129.86 16.5131 127.31C16.5131 124.77 15.6231 123.53 14.2331 123.53C12.8331 123.53 11.9431 124.76 11.9431 127.31C11.9431 129.86 12.8331 131.13 14.2331 131.13ZM14.2331 130.4C13.3931 130.4 12.8331 129.47 12.8331 127.31C12.8331 125.17 13.3931 124.26 14.2331 124.26C15.0631 124.26 15.6231 125.17 15.6231 127.31C15.6231 129.47 15.0631 130.4 14.2331 130.4Z" fill="#999999"/>
<path d="M7.25625 98.25L8.92625 95.75C9.13625 95.39 9.33625 95.03 9.51625 94.67H9.55625C9.53625 95.05 9.50625 95.64 9.50625 96V98.25H7.25625ZM9.50625 101H10.3663V98.98H11.3362V98.25H10.3663V93.66H9.35625L6.30625 98.38V98.98H9.50625V101ZM14.2331 101.13C15.6231 101.13 16.5131 99.86 16.5131 97.31C16.5131 94.77 15.6231 93.53 14.2331 93.53C12.8331 93.53 11.9431 94.76 11.9431 97.31C11.9431 99.86 12.8331 101.13 14.2331 101.13ZM14.2331 100.4C13.3931 100.4 12.8331 99.47 12.8331 97.31C12.8331 95.17 13.3931 94.26 14.2331 94.26C15.0631 94.26 15.6231 95.17 15.6231 97.31C15.6231 99.47 15.0631 100.4 14.2331 100.4Z" fill="#999999"/>
<path d="M9.03625 67.13C9.92625 67.13 10.3663 67.76 10.3663 68.75C10.3663 69.75 9.81625 70.42 9.11625 70.42C8.19625 70.42 7.64625 69.59 7.53625 68.07C7.98625 67.4 8.57625 67.13 9.03625 67.13ZM9.11625 71.13C10.2563 71.13 11.2163 70.17 11.2163 68.75C11.2163 67.22 10.4262 66.45 9.18625 66.45C8.60625 66.45 7.96625 66.79 7.51625 67.34C7.55625 65.06 8.40625 64.29 9.40625 64.29C9.85625 64.29 10.2963 64.5 10.5862 64.85L11.0863 64.28C10.6863 63.85 10.1363 63.53 9.37625 63.53C7.95625 63.53 6.66625 64.63 6.66625 67.5C6.66625 69.92 7.70625 71.13 9.11625 71.13ZM14.2331 71.13C15.6231 71.13 16.5131 69.86 16.5131 67.31C16.5131 64.77 15.6231 63.53 14.2331 63.53C12.8331 63.53 11.9431 64.76 11.9431 67.31C11.9431 69.86 12.8331 71.13 14.2331 71.13ZM14.2331 70.4C13.3931 70.4 12.8331 69.47 12.8331 67.31C12.8331 65.17 13.3931 64.26 14.2331 64.26C15.0631 64.26 15.6231 65.17 15.6231 67.31C15.6231 69.47 15.0631 70.4 14.2331 70.4Z" fill="#999999"/>
<path d="M8.89625 41.13C10.2763 41.13 11.1962 40.3 11.1962 39.23C11.1962 38.23 10.5963 37.68 9.95625 37.31V37.26C10.3963 36.92 10.9362 36.26 10.9362 35.49C10.9362 34.36 10.1762 33.56 8.92625 33.56C7.78625 33.56 6.91625 34.3 6.91625 35.42C6.91625 36.19 7.36625 36.74 7.90625 37.11V37.16C7.23625 37.52 6.55625 38.2 6.55625 39.18C6.55625 40.31 7.54625 41.13 8.89625 41.13ZM9.39625 37.02C8.53625 36.68 7.74625 36.3 7.74625 35.42C7.74625 34.71 8.23625 34.23 8.91625 34.23C9.70625 34.23 10.1563 34.82 10.1563 35.54C10.1563 36.08 9.89625 36.58 9.39625 37.02ZM8.91625 40.45C8.03625 40.45 7.38625 39.88 7.38625 39.1C7.38625 38.4 7.79625 37.82 8.38625 37.44C9.42625 37.86 10.3263 38.23 10.3263 39.21C10.3263 39.94 9.75625 40.45 8.91625 40.45ZM14.2331 41.13C15.6231 41.13 16.5131 39.86 16.5131 37.31C16.5131 34.77 15.6231 33.53 14.2331 33.53C12.8331 33.53 11.9431 34.76 11.9431 37.31C11.9431 39.86 12.8331 41.13 14.2331 41.13ZM14.2331 40.4C13.3931 40.4 12.8331 39.47 12.8331 37.31C12.8331 35.17 13.3931 34.26 14.2331 34.26C15.0631 34.26 15.6231 35.17 15.6231 37.31C15.6231 39.47 15.0631 40.4 14.2331 40.4Z" fill="#999999"/>
<path d="M1.63937 11H5.65937V10.24H4.18937V3.66H3.48937C3.08937 3.9 2.61937 4.07 1.96937 4.19V4.77H3.26937V10.24H1.63937V11ZM8.88625 11.13C10.2763 11.13 11.1663 9.86 11.1663 7.31C11.1663 4.77 10.2763 3.53 8.88625 3.53C7.48625 3.53 6.59625 4.76 6.59625 7.31C6.59625 9.86 7.48625 11.13 8.88625 11.13ZM8.88625 10.4C8.04625 10.4 7.48625 9.47 7.48625 7.31C7.48625 5.17 8.04625 4.26 8.88625 4.26C9.71625 4.26 10.2763 5.17 10.2763 7.31C10.2763 9.47 9.71625 10.4 8.88625 10.4ZM14.2331 11.13C15.6231 11.13 16.5131 9.86 16.5131 7.31C16.5131 4.77 15.6231 3.53 14.2331 3.53C12.8331 3.53 11.9431 4.76 11.9431 7.31C11.9431 9.86 12.8331 11.13 14.2331 11.13ZM14.2331 10.4C13.3931 10.4 12.8331 9.47 12.8331 7.31C12.8331 5.17 13.3931 4.26 14.2331 4.26C15.0631 4.26 15.6231 5.17 15.6231 7.31C15.6231 9.47 15.0631 10.4 14.2331 10.4Z" fill="#999999"/>
<path d="M20 158H320" stroke="#DFE0EB"/>
<path d="M20 128H320" stroke="#DFE0EB" stroke-dasharray="2 3"/>
<path d="M20 98H320" stroke="#DFE0EB" stroke-dasharray="2 3"/>
<path d="M20 68H320" stroke="#DFE0EB" stroke-dasharray="2 3"/>
<path d="M20 38H320" stroke="#DFE0EB" stroke-dasharray="2 3"/>
<path d="M20 8H320" stroke="#DFE0EB" stroke-dasharray="2 3"/>
<path d="M50 186C56.6274 186 62 180.627 62 174C62 167.373 56.6274 162 50 162C43.3726 162 38 167.373 38 174C38 180.627 43.3726 186 50 186Z" fill="#6967F9"/>
<path d="M47.0001 175.714C47.7102 175.714 48.2858 175.139 48.2858 174.429C48.2858 173.718 47.7102 173.143 47.0001 173.143C46.29 173.143 45.7144 173.718 45.7144 174.429C45.7144 175.139 46.29 175.714 47.0001 175.714Z" fill="white"/>
<path d="M53.0001 175.714C53.7102 175.714 54.2858 175.139 54.2858 174.429C54.2858 173.718 53.7102 173.143 53.0001 173.143C52.29 173.143 51.7144 173.718 51.7144 174.429C51.7144 175.139 52.29 175.714 53.0001 175.714Z" fill="white"/>
<path d="M47.4285 177.755C47.4285 178.884 48.5776 178.704 49.9999 178.704C51.4221 178.704 52.5713 178.884 52.5713 177.755C52.5713 176.627 51.4221 175.714 49.9999 175.714C48.5776 175.714 47.4285 176.627 47.4285 177.755V177.755Z" fill="white"/>
<path d="M56.992 174.07C56.712 174.07 56.48 173.982 56.288 173.806C56.096 173.63 56 173.422 56 173.174C56 172.926 56.096 172.694 56.288 172.51C56.48 172.326 56.72 172.23 56.992 172.23C57.248 172.23 57.464 172.326 57.648 172.51C57.832 172.694 57.92 172.918 57.92 173.174C57.92 173.43 57.832 173.63 57.648 173.806C57.464 173.982 57.248 174.07 56.992 174.07V174.07ZM56.976 171.478C56.648 171.478 56.472 171.286 56.432 170.902L56.12 167.126C56.096 166.846 56.176 166.638 56.368 166.494C56.56 166.35 56.76 166.286 56.984 166.286C57.208 166.286 57.408 166.358 57.584 166.494C57.76 166.63 57.84 166.846 57.824 167.126L57.544 170.902C57.536 171.078 57.48 171.214 57.376 171.326C57.28 171.43 57.144 171.486 56.984 171.486L56.976 171.478Z" fill="white"/>
<path d="M42.4832 202.896H48.6632V200.244H41.2232V201.192H47.4272V202.008H41.2472V204.792H48.9992V203.832H42.4832V202.896ZM45.5792 198.48V197.436H48.7352V196.452H42.5432V194.22H41.3192V197.436H44.3432V198.48H40.0352V199.476H49.8752V198.48H45.5792ZM57.1583 198.708C55.6703 198.984 54.3623 199.044 52.5023 199.056V197.772H56.1863V194.652H51.2663V195.66H54.9623V196.824H51.2903V200.064H52.1663C54.2423 200.064 55.6583 200.004 57.2903 199.716L57.1583 198.708ZM53.6063 202.02H58.1063V203.808H53.6063V202.02ZM52.3943 204.792H59.3183V201.048H52.3943V204.792ZM60.8543 196.776H59.3183V194.1H58.0823V200.544H59.3183V197.796H60.8543V196.776Z" fill="#6967F9"/>
<path d="M98 186C104.627 186 110 180.627 110 174C110 167.373 104.627 162 98 162C91.3726 162 86 167.373 86 174C86 180.627 91.3726 186 98 186Z" fill="#FF913C"/>
<path d="M94.7576 174.818C94.5362 175.075 94.5362 175.471 94.776 175.701C95.062 175.968 95.4679 176.143 95.8461 176.143C96.5748 176.143 97.1652 175.554 97.1652 174.827C97.1652 174.311 96.8608 173.86 96.4272 173.64C96.132 173.492 95.7723 173.594 95.5878 173.86L94.7576 174.818V174.818Z" fill="white"/>
<path d="M101.583 174.818C101.805 175.075 101.805 175.471 101.565 175.701C101.279 175.968 100.873 176.143 100.495 176.143C99.7662 176.143 99.1758 175.554 99.1758 174.827C99.1758 174.311 99.4802 173.86 99.9138 173.64C100.209 173.492 100.569 173.594 100.753 173.86L101.583 174.818V174.818Z" fill="white"/>
<path d="M101.624 179.143C101.089 179.143 100.783 178.964 100.566 178.836C100.261 178.657 100.07 178.657 99.764 178.836C99.5475 178.964 99.2418 179.143 98.7069 179.143C98.172 179.143 97.8663 178.964 97.6498 178.836C97.497 178.746 97.4333 178.708 97.255 178.708C97.0767 178.708 97.013 178.746 96.8602 178.836C96.6437 178.964 96.3507 179.143 95.8031 179.143C95.2554 179.143 94.9625 178.964 94.746 178.836C94.5932 178.746 94.5295 178.708 94.3512 178.708C93.9946 178.708 93.7144 178.426 93.7144 178.068C93.7144 177.71 93.9946 177.429 94.3512 177.429C94.8861 177.429 95.1918 177.608 95.4083 177.736C95.7012 177.915 95.905 177.915 96.2106 177.736C96.4272 177.608 96.7201 177.429 97.2677 177.429C97.8154 177.429 98.1083 177.608 98.3248 177.736C98.4777 177.825 98.5414 177.864 98.7197 177.864C98.898 177.864 98.9744 177.825 99.1272 177.736C99.3437 177.608 99.6494 177.429 100.184 177.429C100.719 177.429 101.025 177.608 101.241 177.736C101.394 177.825 101.458 177.864 101.649 177.864C102.006 177.864 102.286 178.145 102.286 178.503C102.286 178.861 102.006 179.143 101.649 179.143H101.624Z" fill="white"/>
<path d="M90.7237 198.036H84.6517V195.696H90.5917V194.7H83.3797V199.032H90.7237V198.036ZM91.9117 200.28H82.0717V201.3H86.3437V204.9H87.5797V201.3H91.9117V200.28ZM94.4908 199.056H98.0308V195.024H93.2548V196.02H96.8188V198.06H93.2788V202.464H94.1068C95.7868 202.464 97.1788 202.428 98.8228 202.164L98.7268 201.144C97.2388 201.372 95.9668 201.432 94.4908 201.444V199.056ZM100.635 194.064V196.476H98.6548V197.484H100.635V199.428H98.5948V200.436H100.635V204.936H101.871V194.064H100.635ZM108.59 195.228C110.198 195.228 111.17 195.624 111.17 196.332C111.17 197.028 110.198 197.424 108.59 197.424C106.982 197.424 105.998 197.028 105.998 196.332C105.998 195.624 106.982 195.228 108.59 195.228ZM108.59 198.372C110.954 198.372 112.454 197.604 112.454 196.332C112.454 195.048 110.954 194.268 108.59 194.268C106.226 194.268 104.726 195.048 104.726 196.332C104.726 197.604 106.226 198.372 108.59 198.372ZM111.086 203.808H106.082V202.152H111.086V203.808ZM113.486 200.076V199.08H103.682V200.076H107.966V201.168H104.858V204.792H112.298V201.168H109.202V200.076H113.486Z" fill="#FF913C"/>
<path d="M146 186C152.627 186 158 180.627 158 174C158 167.373 152.627 162 146 162C139.373 162 134 167.373 134 174C134 180.627 139.373 186 146 186Z" fill="#FABF48"/>
<path d="M143 175.714C143.71 175.714 144.286 175.139 144.286 174.429C144.286 173.718 143.71 173.143 143 173.143C142.29 173.143 141.714 173.718 141.714 174.429C141.714 175.139 142.29 175.714 143 175.714Z" fill="white"/>
<path d="M149 175.714C149.71 175.714 150.286 175.139 150.286 174.429C150.286 173.718 149.71 173.143 149 173.143C148.29 173.143 147.714 173.718 147.714 174.429C147.714 175.139 148.29 175.714 149 175.714Z" fill="white"/>
<path d="M148.571 176.81C148.571 175.52 147.422 175.726 146 175.726C144.578 175.726 143.428 175.52 143.428 176.81C143.428 178.1 144.578 179.143 146 179.143C147.422 179.143 148.571 178.1 148.571 176.81Z" fill="white"/>
<path d="M140.319 198.432H137.667V197.028H140.319V198.432ZM141.543 194.604H140.319V196.08H137.667V194.604H136.431V199.416H141.543V194.604ZM138.303 202.992H140.667V200.388H137.091V201.312H139.467V202.128H137.115V204.816H137.787C139.695 204.816 140.511 204.78 141.483 204.576L141.375 203.664C140.511 203.844 139.791 203.88 138.303 203.892V202.992ZM141.111 201.372H143.295V204.876H144.519V200.388H141.111V201.372ZM146.043 196.38H144.519V194.088H143.283V199.848H144.519V197.4H146.043V196.38ZM151.754 194.316C149.39 194.316 147.89 195.096 147.89 196.392C147.89 197.676 149.39 198.468 151.754 198.468C154.118 198.468 155.618 197.676 155.618 196.392C155.618 195.096 154.118 194.316 151.754 194.316ZM151.754 195.276C153.362 195.276 154.334 195.672 154.334 196.392C154.334 197.1 153.362 197.496 151.754 197.496C150.146 197.496 149.162 197.1 149.162 196.392C149.162 195.672 150.146 195.276 151.754 195.276ZM148.022 201.168V204.792H155.462V201.168H148.022ZM154.25 202.152V203.808H149.246V202.152H154.25ZM146.846 199.26V200.244H156.65V199.26H146.846Z" fill="#FABF48"/>
<path d="M194 186C200.627 186 206 180.627 206 174C206 167.373 200.627 162 194 162C187.373 162 182 167.373 182 174C182 180.627 187.373 186 194 186Z" fill="#62B22F"/>
<path d="M191 174C191.71 174 192.286 173.616 192.286 173.143C192.286 172.669 191.71 172.286 191 172.286C190.29 172.286 189.714 172.669 189.714 173.143C189.714 173.616 190.29 174 191 174Z" fill="white"/>
<path d="M197 174C197.71 174 198.286 173.616 198.286 173.143C198.286 172.669 197.71 172.286 197 172.286C196.29 172.286 195.714 172.669 195.714 173.143C195.714 173.616 196.29 174 197 174Z" fill="white"/>
<path fill-rule="evenodd" clip-rule="evenodd" d="M191.118 175.714C191.42 175.714 191.665 175.947 191.665 176.235C191.665 176.546 191.731 176.725 191.803 176.832C191.873 176.935 191.98 177.018 192.159 177.084C192.564 177.234 193.166 177.245 194 177.245C194.834 177.245 195.436 177.234 195.841 177.084C196.02 177.018 196.127 176.935 196.197 176.832C196.27 176.725 196.336 176.546 196.336 176.235C196.336 175.947 196.58 175.714 196.882 175.714C197.184 175.714 197.429 175.947 197.429 176.235C197.429 176.683 197.334 177.075 197.115 177.397C196.893 177.724 196.579 177.928 196.237 178.055C195.611 178.286 194.792 178.286 194.044 178.286C194.03 178.286 194.015 178.286 194 178.286C193.985 178.286 193.971 178.286 193.956 178.286C193.208 178.286 192.389 178.286 191.763 178.055C191.421 177.928 191.107 177.724 190.885 177.397C190.667 177.075 190.572 176.683 190.572 176.235C190.572 175.947 190.816 175.714 191.118 175.714Z" fill="white"/>
<path d="M242 186C248.627 186 254 180.627 254 174C254 167.373 248.627 162 242 162C235.373 162 230 167.373 230 174C230 180.627 235.373 186 242 186Z" fill="#FF6D3B"/>
<path d="M243.878 174.389C243.657 174.647 243.657 175.042 243.897 175.272C244.183 175.539 244.588 175.714 244.967 175.714C245.695 175.714 246.286 175.125 246.286 174.398C246.286 173.883 245.981 173.432 245.548 173.211C245.253 173.063 244.893 173.165 244.708 173.432L243.878 174.389Z" fill="white"/>
<path d="M240.122 174.389C240.343 174.647 240.343 175.042 240.104 175.272C239.818 175.539 239.412 175.714 239.033 175.714C238.305 175.714 237.714 175.125 237.714 174.398C237.714 173.883 238.019 173.432 238.452 173.211C238.748 173.063 239.107 173.165 239.292 173.432L240.122 174.389Z" fill="white"/>
<path d="M239.429 178.204C239.429 179.494 240.578 179.287 242 179.287C243.422 179.287 244.572 179.494 244.572 178.204C244.572 176.913 243.422 175.871 242 175.871C240.578 175.871 239.429 176.913 239.429 178.204V178.204Z" fill="white"/>
<path d="M250.492 169.713C250.45 169.713 250.401 169.701 250.365 169.683L249.315 169.185C249.109 169.088 248.957 168.918 248.878 168.706C248.8 168.493 248.818 168.263 248.915 168.057L249.418 167.007C249.491 166.855 249.673 166.795 249.825 166.861C249.977 166.934 250.043 167.116 249.971 167.268L249.467 168.317C249.443 168.378 249.437 168.439 249.455 168.499C249.473 168.56 249.522 168.609 249.576 168.639L250.626 169.137C250.777 169.209 250.844 169.391 250.771 169.543C250.723 169.652 250.614 169.719 250.498 169.719L250.492 169.713Z" fill="white"/>
<path d="M247.556 168.257C247.429 168.257 247.307 168.226 247.192 168.172L246.142 167.668C245.991 167.595 245.924 167.413 245.997 167.262C246.07 167.11 246.252 167.049 246.403 167.116L247.453 167.62C247.508 167.644 247.574 167.65 247.635 167.632C247.696 167.608 247.744 167.565 247.774 167.511L248.278 166.461C248.351 166.309 248.533 166.243 248.685 166.315C248.836 166.388 248.903 166.57 248.83 166.722L248.327 167.771C248.229 167.978 248.06 168.129 247.847 168.208C247.756 168.239 247.659 168.257 247.562 168.257H247.556Z" fill="white"/>
<path d="M247.671 171.66C247.628 171.66 247.58 171.648 247.543 171.63C247.392 171.557 247.325 171.375 247.398 171.223L247.901 170.174C248.101 169.755 248.605 169.573 249.03 169.773L250.079 170.277C250.231 170.35 250.298 170.532 250.225 170.683C250.152 170.835 249.97 170.902 249.818 170.829L248.769 170.325C248.648 170.265 248.502 170.325 248.447 170.441L247.944 171.49C247.889 171.6 247.786 171.666 247.671 171.666V171.66Z" fill="white"/>
<path d="M246.537 171.12C246.494 171.12 246.446 171.108 246.409 171.09C246.258 171.017 246.191 170.835 246.264 170.683L246.761 169.634C246.785 169.573 246.792 169.513 246.773 169.452C246.755 169.391 246.707 169.343 246.652 169.312L245.602 168.815C245.451 168.742 245.384 168.56 245.457 168.408C245.53 168.257 245.712 168.196 245.863 168.263L246.913 168.76C247.119 168.857 247.271 169.027 247.35 169.24C247.429 169.452 247.41 169.682 247.313 169.889L246.816 170.938C246.767 171.048 246.658 171.114 246.543 171.114L246.537 171.12Z" fill="white"/>
<path d="M290 186C296.627 186 302 180.627 302 174C302 167.373 296.627 162 290 162C283.373 162 278 167.373 278 174C278 180.627 283.373 186 290 186Z" fill="#1E76FC"/>
<path d="M287 175.714C287.71 175.714 288.286 175.139 288.286 174.429C288.286 173.718 287.71 173.143 287 173.143C286.29 173.143 285.714 173.718 285.714 174.429C285.714 175.139 286.29 175.714 287 175.714Z" fill="white"/>
<path d="M293 175.714C293.71 175.714 294.286 175.139 294.286 174.429C294.286 173.718 293.71 173.143 293 173.143C292.29 173.143 291.714 173.718 291.714 174.429C291.714 175.139 292.29 175.714 293 175.714Z" fill="white"/>
<path d="M292.226 177.6H287.774C287.581 177.6 287.429 177.374 287.429 177.086C287.429 176.798 287.581 176.571 287.774 176.571H292.226C292.419 176.571 292.572 176.798 292.572 177.086C292.572 177.374 292.419 177.6 292.226 177.6Z" fill="white"/>
<path d="M280.924 198.624C280.276 198.78 279.724 198.828 278.932 198.84V195.948H280.624V194.952H277.756V199.86H278.308C279.52 199.86 280.192 199.836 281.044 199.644L280.924 198.624ZM277.324 198.624C276.688 198.768 276.124 198.816 275.596 198.828V195.948H277.168V194.952H274.432V199.86H274.936C275.716 199.86 276.472 199.848 277.42 199.644L277.324 198.624ZM275.464 202.044H281.524V204.948H282.772V201.048H275.464V202.044ZM284.08 196.908H282.772V194.088H281.536V200.58H282.772V197.928H284.08V196.908ZM291.723 198.624C291.075 198.78 290.523 198.828 289.731 198.84V195.948H291.423V194.952H288.555V199.86H289.107C290.319 199.86 290.991 199.836 291.843 199.644L291.723 198.624ZM288.123 198.624C287.487 198.768 286.923 198.816 286.395 198.828V195.948H287.967V194.952H285.231V199.86H285.735C286.515 199.86 287.271 199.848 288.219 199.644L288.123 198.624ZM286.263 202.044H292.323V204.948H293.571V201.048H286.263V202.044ZM294.879 196.908H293.571V194.088H292.335V200.58H293.571V197.928H294.879V196.908ZM302.102 195.156H299.522V194.004H298.286V195.156H295.706V196.14H302.102V195.156ZM297.458 198.528C297.458 197.904 298.034 197.52 298.898 197.52C299.762 197.52 300.35 197.904 300.35 198.528C300.35 199.164 299.762 199.548 298.898 199.548C298.034 199.548 297.458 199.164 297.458 198.528ZM301.526 198.528C301.526 197.364 300.47 196.584 298.898 196.584C297.338 196.584 296.27 197.364 296.27 198.528C296.27 199.704 297.338 200.472 298.898 200.472C300.47 200.472 301.526 199.704 301.526 198.528ZM298.454 202.14H302.942V203.808H298.454V202.14ZM297.23 204.792H304.154V201.168H297.23V204.792ZM305.69 196.872H304.154V194.088H302.918V200.616H304.154V197.892H305.69V196.872Z" fill="#1E76FC"/>
<path d="M241.311 194.952H237.579V193.944H236.331V194.952H232.539V195.9H241.311V194.952ZM239.199 197.832C239.199 198.312 238.419 198.552 236.955 198.552C235.479 198.552 234.711 198.312 234.711 197.832C234.711 197.352 235.479 197.112 236.955 197.112C238.419 197.112 239.199 197.352 239.199 197.832ZM233.391 197.832C233.391 198.864 234.663 199.404 236.955 199.404C239.235 199.404 240.507 198.864 240.507 197.832C240.507 196.8 239.235 196.26 236.955 196.26C234.663 196.26 233.391 196.8 233.391 197.832ZM236.931 204.024C235.311 204.024 234.471 203.772 234.471 203.244C234.471 202.728 235.311 202.476 236.931 202.476C238.563 202.476 239.403 202.728 239.403 203.244C239.403 203.772 238.563 204.024 236.931 204.024ZM236.931 201.564C234.567 201.564 233.199 202.152 233.199 203.244C233.199 204.348 234.567 204.936 236.931 204.936C239.307 204.936 240.663 204.348 240.663 203.244C240.663 202.152 239.307 201.564 236.931 201.564ZM232.047 199.98V200.952H241.851V199.98H232.047ZM250.166 197.844H245.342V196.632H250.166V197.844ZM251.39 194.436H250.166V195.684H245.342V194.436H244.118V198.816H251.39V194.436ZM245.282 201.756H244.046V204.72H251.582V203.712H245.282V201.756ZM242.846 199.728V200.724H247.238V202.656H248.474V200.724H252.674V199.728H242.846Z" fill="#FF6D3B"/>
<path d="M192.339 198.396C192.639 197.28 192.639 196.38 192.639 195.516V194.604H185.199V195.6H191.415C191.415 196.416 191.403 197.196 191.127 198.264L192.339 198.396ZM188.919 203.976C187.311 203.976 186.327 203.58 186.327 202.896C186.327 202.224 187.311 201.828 188.919 201.828C190.515 201.828 191.475 202.224 191.475 202.896C191.475 203.58 190.515 203.976 188.919 203.976ZM188.919 200.88C186.579 200.88 185.103 201.648 185.103 202.896C185.103 204.156 186.579 204.924 188.919 204.924C191.223 204.924 192.711 204.156 192.711 202.896C192.711 201.648 191.223 200.88 188.919 200.88ZM189.159 199.044V197.052H187.911V199.044H184.071V200.04H193.839V199.044H189.159ZM195.29 194.736V195.744H199.01C198.806 197.388 197.33 198.708 194.798 199.38L195.278 200.364C198.482 199.512 200.342 197.544 200.342 194.736H195.29ZM197.618 201.648H202.094V203.796H197.618V201.648ZM196.394 204.792H203.318V200.664H196.394V204.792ZM204.854 196.596H203.318V194.076H202.082V200.196H203.318V197.616H204.854V196.596Z" fill="#62B22F"/>
</svg>
