<svg width="214" height="245" viewBox="0 0 214 245" fill="none" xmlns="http://www.w3.org/2000/svg">
<circle cx="103" cy="135" r="91" fill="white" fill-opacity="0.2" stroke="#EBEBEB" stroke-linecap="round" stroke-linejoin="round" stroke-dasharray="1 3"/>
<path d="M103 43V226" stroke="#EBEBEB"/>
<path d="M182 89L24.3834 180" stroke="#EBEBEB" stroke-width="0.8"/>
<path d="M24 89L181.617 180" stroke="#EBEBEB" stroke-width="0.8"/>
<path d="M105.67 134.31C105.67 132.61 105.06 130.53 102.97 130.53C100.91 130.53 100.28 132.55 100.28 134.31C100.28 136.07 100.91 138.08 102.97 138.08C105.03 138.08 105.67 136.07 105.67 134.31ZM104.53 134.31C104.53 135.34 104.35 137.16 102.97 137.16C101.6 137.16 101.41 135.34 101.41 134.31C101.41 133.28 101.59 131.46 102.97 131.46C104.35 131.46 104.53 133.28 104.53 134.31Z" fill="#999999"/>
<path d="M107.67 134.31C107.67 133.276 107.493 131.946 106.845 130.799C106.131 129.534 104.84 128.53 102.97 128.53V132.53C103.144 132.53 103.199 132.568 103.206 132.573C103.225 132.585 103.284 132.628 103.362 132.766C103.542 133.084 103.67 133.644 103.67 134.31H107.67ZM102.97 128.53C101.13 128.53 99.8395 129.504 99.1168 130.766C98.4621 131.91 98.28 133.246 98.28 134.31H102.28C102.28 133.614 102.413 133.06 102.588 132.754C102.664 132.622 102.72 132.582 102.737 132.572C102.743 132.568 102.797 132.53 102.97 132.53V128.53ZM98.28 134.31C98.28 135.374 98.4621 136.709 99.1182 137.851C99.8432 139.113 101.135 140.08 102.97 140.08V136.08C102.795 136.08 102.74 136.042 102.733 136.038C102.717 136.028 102.661 135.989 102.587 135.859C102.413 135.556 102.28 135.006 102.28 134.31H98.28ZM102.97 140.08C104.804 140.08 106.096 139.115 106.824 137.856C107.484 136.714 107.67 135.379 107.67 134.31H103.67C103.67 135.001 103.536 135.551 103.361 135.854C103.285 135.985 103.228 136.026 103.21 136.037C103.202 136.042 103.145 136.08 102.97 136.08V140.08ZM102.53 134.31C102.53 134.513 102.521 134.736 102.495 134.948C102.468 135.167 102.43 135.326 102.393 135.423C102.354 135.528 102.355 135.464 102.47 135.362C102.534 135.305 102.621 135.249 102.726 135.209C102.831 135.169 102.918 135.16 102.97 135.16V139.16C103.801 139.16 104.543 138.869 105.122 138.357C105.659 137.881 105.963 137.298 106.142 136.82C106.488 135.89 106.53 134.884 106.53 134.31H102.53ZM102.97 135.16C103.025 135.16 103.114 135.17 103.22 135.21C103.326 135.25 103.412 135.307 103.476 135.363C103.589 135.464 103.589 135.526 103.549 135.419C103.512 135.321 103.473 135.162 103.446 134.943C103.419 134.731 103.41 134.51 103.41 134.31H99.41C99.41 134.891 99.4558 135.896 99.8034 136.823C99.9823 137.3 100.286 137.881 100.821 138.356C101.397 138.867 102.138 139.16 102.97 139.16V135.16ZM103.41 134.31C103.41 134.107 103.419 133.884 103.445 133.672C103.472 133.453 103.51 133.294 103.547 133.197C103.586 133.092 103.585 133.156 103.47 133.258C103.406 133.315 103.319 133.371 103.214 133.411C103.109 133.451 103.022 133.46 102.97 133.46V129.46C102.139 129.46 101.397 129.751 100.818 130.263C100.281 130.739 99.9768 131.322 99.7984 131.8C99.4522 132.73 99.41 133.736 99.41 134.31H103.41ZM102.97 133.46C102.918 133.46 102.831 133.451 102.726 133.411C102.621 133.371 102.534 133.315 102.47 133.258C102.355 133.156 102.354 133.092 102.393 133.197C102.43 133.294 102.468 133.453 102.495 133.672C102.521 133.884 102.53 134.107 102.53 134.31H106.53C106.53 133.736 106.488 132.73 106.142 131.8C105.963 131.322 105.659 130.739 105.122 130.263C104.543 129.751 103.801 129.46 102.97 129.46V133.46Z" fill="white"/>
<path d="M95.8445 42.04L97.0445 41.03C97.0345 41.2 97.0345 41.37 97.0345 41.53V46.04H95.4945V47H99.5245V46.04H98.1345V39.59H97.2345L95.2345 41.3L95.8445 42.04ZM105.691 43.31C105.691 41.61 105.081 39.53 102.991 39.53C100.931 39.53 100.301 41.55 100.301 43.31C100.301 45.07 100.931 47.08 102.991 47.08C105.051 47.08 105.691 45.07 105.691 43.31ZM104.551 43.31C104.551 44.34 104.371 46.16 102.991 46.16C101.621 46.16 101.431 44.34 101.431 43.31C101.431 42.28 101.611 40.46 102.991 40.46C104.371 40.46 104.551 42.28 104.551 43.31ZM111.449 43.31C111.449 41.61 110.839 39.53 108.749 39.53C106.689 39.53 106.059 41.55 106.059 43.31C106.059 45.07 106.689 47.08 108.749 47.08C110.809 47.08 111.449 45.07 111.449 43.31ZM110.309 43.31C110.309 44.34 110.129 46.16 108.749 46.16C107.379 46.16 107.189 44.34 107.189 43.31C107.189 42.28 107.369 40.46 108.749 40.46C110.129 40.46 110.309 42.28 110.309 43.31Z" fill="#999999"/>
<path d="M95.8445 42.04L94.3012 43.3121L95.5864 44.8713L97.1323 43.5702L95.8445 42.04ZM97.0445 41.03L99.041 41.1474L99.3141 36.5056L95.7566 39.4998L97.0445 41.03ZM97.0345 46.04V48.04H99.0345V46.04H97.0345ZM95.4945 46.04V44.04H93.4945V46.04H95.4945ZM95.4945 47H93.4945V49H95.4945V47ZM99.5245 47V49H101.524V47H99.5245ZM99.5245 46.04H101.524V44.04H99.5245V46.04ZM98.1345 46.04H96.1345V48.04H98.1345V46.04ZM98.1345 39.59H100.134V37.59H98.1345V39.59ZM97.2345 39.59V37.59H96.496L95.9347 38.0699L97.2345 39.59ZM95.2345 41.3L93.9347 39.7799L92.4417 41.0564L93.6912 42.5721L95.2345 41.3ZM97.1323 43.5702L98.3323 42.5602L95.7566 39.4998L94.5566 40.5098L97.1323 43.5702ZM95.0479 40.9126C95.0339 41.1507 95.0345 41.3789 95.0345 41.53H99.0345C99.0345 41.3611 99.035 41.2493 99.041 41.1474L95.0479 40.9126ZM95.0345 41.53V46.04H99.0345V41.53H95.0345ZM97.0345 44.04H95.4945V48.04H97.0345V44.04ZM93.4945 46.04V47H97.4945V46.04H93.4945ZM95.4945 49H99.5245V45H95.4945V49ZM101.524 47V46.04H97.5245V47H101.524ZM99.5245 44.04H98.1345V48.04H99.5245V44.04ZM100.134 46.04V39.59H96.1345V46.04H100.134ZM98.1345 37.59H97.2345V41.59H98.1345V37.59ZM95.9347 38.0699L93.9347 39.7799L96.5342 42.8201L98.5342 41.1101L95.9347 38.0699ZM93.6912 42.5721L94.3012 43.3121L97.3877 40.7679L96.7777 40.0279L93.6912 42.5721ZM107.691 43.31C107.691 42.2761 107.514 40.9458 106.867 39.7989C106.152 38.5342 104.862 37.53 102.991 37.53V41.53C103.166 41.53 103.22 41.5683 103.228 41.5729C103.246 41.5847 103.306 41.6282 103.384 41.7661C103.563 42.0842 103.691 42.6439 103.691 43.31H107.691ZM102.991 37.53C101.152 37.53 99.861 38.5038 99.1382 39.7664C98.4836 40.9101 98.3015 42.2456 98.3015 43.31H102.301C102.301 42.6144 102.434 42.0599 102.61 41.7536C102.685 41.6216 102.742 41.5817 102.758 41.5715C102.765 41.5676 102.819 41.53 102.991 41.53V37.53ZM98.3015 43.31C98.3015 44.3744 98.4835 45.7088 99.1397 46.8512C99.8647 48.1133 101.156 49.08 102.991 49.08V45.08C102.817 45.08 102.761 45.042 102.755 45.038C102.739 45.028 102.683 44.9889 102.608 44.8588C102.434 44.5562 102.301 44.0056 102.301 43.31H98.3015ZM102.991 49.08C104.825 49.08 106.118 48.1151 106.846 46.8557C107.506 45.7137 107.691 44.3787 107.691 43.31H103.691C103.691 44.0013 103.557 44.5513 103.382 44.8543C103.307 44.985 103.25 45.0255 103.232 45.0367C103.223 45.042 103.166 45.08 102.991 45.08V49.08ZM102.551 43.31C102.551 43.5134 102.542 43.7356 102.516 43.9479C102.49 44.1675 102.451 44.3259 102.415 44.423C102.376 44.5279 102.376 44.4643 102.492 44.362C102.556 44.3053 102.643 44.2486 102.748 44.209C102.852 44.1693 102.94 44.16 102.991 44.16V48.16C103.822 48.16 104.564 47.8693 105.143 47.3571C105.681 46.8813 105.985 46.2984 106.163 45.8195C106.509 44.8905 106.551 43.8843 106.551 43.31H102.551ZM102.991 44.16C103.046 44.16 103.135 44.1699 103.241 44.2101C103.347 44.2503 103.434 44.3073 103.497 44.3634C103.611 44.4645 103.61 44.5259 103.571 44.4194C103.534 44.3211 103.495 44.162 103.467 43.9431C103.441 43.7312 103.431 43.5103 103.431 43.31H99.4315C99.4315 43.891 99.4773 44.8955 99.8249 45.8231C100.004 46.3004 100.308 46.8812 100.842 47.3556C101.418 47.8666 102.159 48.16 102.991 48.16V44.16ZM103.431 43.31C103.431 43.1066 103.441 42.8844 103.466 42.6721C103.493 42.4525 103.532 42.2941 103.568 42.197C103.607 42.0921 103.607 42.1557 103.491 42.258C103.427 42.3147 103.34 42.3714 103.235 42.411C103.131 42.4507 103.043 42.46 102.991 42.46V38.46C102.161 38.46 101.419 38.7507 100.84 39.2629C100.302 39.7387 99.9983 40.3216 99.8198 40.8005C99.4737 41.7295 99.4315 42.7357 99.4315 43.31H103.431ZM102.991 42.46C102.94 42.46 102.852 42.4507 102.748 42.411C102.643 42.3714 102.556 42.3147 102.492 42.258C102.376 42.1557 102.376 42.0921 102.415 42.197C102.451 42.2941 102.49 42.4525 102.516 42.6721C102.542 42.8844 102.551 43.1066 102.551 43.31H106.551C106.551 42.7357 106.509 41.7295 106.163 40.8005C105.985 40.3216 105.681 39.7387 105.143 39.2629C104.564 38.7507 103.822 38.46 102.991 38.46V42.46ZM113.449 43.31C113.449 42.2761 113.272 40.9458 112.624 39.7989C111.909 38.5342 110.619 37.53 108.749 37.53V41.53C108.923 41.53 108.977 41.5683 108.985 41.5729C109.003 41.5847 109.063 41.6282 109.141 41.7661C109.321 42.0842 109.449 42.6439 109.449 43.31H113.449ZM108.749 37.53C106.909 37.53 105.618 38.5038 104.895 39.7664C104.241 40.9101 104.059 42.2456 104.059 43.31H108.059C108.059 42.6144 108.191 42.0599 108.367 41.7536C108.442 41.6216 108.499 41.5817 108.515 41.5715C108.522 41.5676 108.576 41.53 108.749 41.53V37.53ZM104.059 43.31C104.059 44.3744 104.241 45.7088 104.897 46.8512C105.622 48.1133 106.913 49.08 108.749 49.08V45.08C108.574 45.08 108.519 45.042 108.512 45.038C108.496 45.028 108.44 44.9889 108.365 44.8588C108.191 44.5562 108.059 44.0056 108.059 43.31H104.059ZM108.749 49.08C110.582 49.08 111.875 48.1151 112.603 46.8557C113.263 45.7137 113.449 44.3787 113.449 43.31H109.449C109.449 44.0013 109.314 44.5513 109.139 44.8543C109.064 44.985 109.007 45.0255 108.989 45.0367C108.98 45.042 108.923 45.08 108.749 45.08V49.08ZM108.309 43.31C108.309 43.5134 108.299 43.7356 108.274 43.9479C108.247 44.1675 108.208 44.3259 108.172 44.423C108.133 44.5279 108.133 44.4643 108.249 44.362C108.313 44.3053 108.4 44.2486 108.505 44.209C108.609 44.1693 108.697 44.16 108.749 44.16V48.16C109.579 48.16 110.321 47.8693 110.9 47.3571C111.438 46.8813 111.742 46.2984 111.92 45.8195C112.266 44.8905 112.309 43.8843 112.309 43.31H108.309ZM108.749 44.16C108.803 44.16 108.892 44.1699 108.998 44.2101C109.104 44.2503 109.191 44.3073 109.254 44.3634C109.368 44.4645 109.367 44.5259 109.328 44.4194C109.291 44.3211 109.252 44.162 109.224 43.9431C109.198 43.7312 109.189 43.5103 109.189 43.31H105.189C105.189 43.891 105.234 44.8955 105.582 45.8231C105.761 46.3004 106.065 46.8812 106.6 47.3556C107.176 47.8666 107.916 48.16 108.749 48.16V44.16ZM109.189 43.31C109.189 43.1066 109.198 42.8844 109.224 42.6721C109.25 42.4525 109.289 42.2941 109.325 42.197C109.364 42.0921 109.364 42.1557 109.248 42.258C109.184 42.3147 109.097 42.3714 108.992 42.411C108.888 42.4507 108.8 42.46 108.749 42.46V38.46C107.918 38.46 107.176 38.7507 106.597 39.2629C106.059 39.7387 105.755 40.3216 105.577 40.8005C105.231 41.7295 105.189 42.7357 105.189 43.31H109.189ZM108.749 42.46C108.697 42.46 108.609 42.4507 108.505 42.411C108.4 42.3714 108.313 42.3147 108.249 42.258C108.133 42.1557 108.133 42.0921 108.172 42.197C108.208 42.2941 108.247 42.4525 108.274 42.6721C108.299 42.8844 108.309 43.1066 108.309 43.31H112.309C112.309 42.7357 112.266 41.7295 111.92 40.8005C111.742 40.3216 111.438 39.7387 110.9 39.2629C110.321 38.7507 109.579 38.46 108.749 38.46V42.46Z" fill="white"/>
<path d="M91.7707 7.7L92.2657 6.765C90.3077 6.413 88.7127 4.884 88.7127 3.3V2.552H87.5137V3.3C87.5137 4.851 85.9187 6.413 83.9607 6.765L84.4447 7.7C86.0617 7.381 87.4587 6.325 88.1077 4.972C88.7567 6.325 90.1537 7.381 91.7707 7.7ZM92.6507 9.636H83.6527V10.571H92.6507V9.636ZM100.383 5.599L94.3219 5.83L94.4649 6.754L100.328 6.457C100.273 7.205 100.163 7.964 99.9539 8.855L101.076 8.954C101.516 6.875 101.516 5.5 101.516 4.059V2.86H94.5969V3.773H100.405V4.059C100.405 4.576 100.416 5.071 100.383 5.599ZM102.528 9.625H93.5519V10.56H102.528V9.625ZM111.635 1.914H110.502V7.403H111.635V1.914ZM109.6 6.919L109.468 5.995C108.027 6.226 106.795 6.292 105.079 6.292V5.192H108.478V2.376H103.935V3.3H107.367V4.334H103.957V7.216H104.793C106.696 7.216 108.049 7.183 109.6 6.919ZM110.513 7.865V8.888H106.256V7.865H105.123V11.726H111.635V7.865H110.513ZM110.513 9.779V10.813H106.256V9.779H110.513ZM121.347 8.074V7.161H115.616V5.797H121.05V4.906H115.616V3.63H121.27V2.717H114.461V8.074H121.347ZM122.359 9.702H113.35V10.626H122.359V9.702Z" fill="#999999"/>
<path d="M9.27986 62.914H8.14686V65.4H6.30986C6.10086 64.245 5.07786 63.453 3.76886 63.453C2.30586 63.453 1.18386 64.454 1.18386 65.862C1.18386 67.281 2.30586 68.293 3.76886 68.293C5.07786 68.293 6.10086 67.501 6.30986 66.324H8.14686V68.788H9.27986V62.914ZM3.76886 67.325C2.92186 67.325 2.27286 66.742 2.27286 65.862C2.27286 65.004 2.92186 64.41 3.76886 64.41C4.61586 64.41 5.27586 65.004 5.27586 65.862C5.27586 66.742 4.61586 67.325 3.76886 67.325ZM2.58086 69.294V70.207H8.14686V72.869H9.27986V69.294H2.58086ZM18.706 65.202H20.081V64.267H18.706V62.903H17.573V68.755H18.706V67.347H20.081V66.412H18.706V65.202ZM16.363 65.851C16.363 64.443 15.241 63.486 13.712 63.486C12.205 63.486 11.072 64.443 11.072 65.851C11.072 67.248 12.205 68.227 13.712 68.227C15.241 68.227 16.363 67.248 16.363 65.851ZM12.183 65.851C12.183 64.993 12.832 64.432 13.712 64.432C14.603 64.432 15.252 64.971 15.252 65.851C15.252 66.731 14.603 67.27 13.712 67.27C12.832 67.27 12.183 66.72 12.183 65.851ZM15.505 69.03C13.47 69.03 12.194 69.756 12.194 70.944C12.194 72.132 13.47 72.847 15.505 72.847C17.551 72.847 18.816 72.132 18.816 70.944C18.816 69.756 17.551 69.03 15.505 69.03ZM15.505 71.945C14.086 71.945 13.316 71.604 13.316 70.944C13.316 70.284 14.086 69.932 15.505 69.932C16.924 69.932 17.694 70.284 17.694 70.944C17.694 71.604 16.924 71.945 15.505 71.945Z" fill="#999999"/>
<path d="M192.811 55.903H191.667V59.61H189.731C189.588 57.795 188.565 56.64 187.234 56.64C185.771 56.64 184.726 58.004 184.726 60.138C184.726 62.294 185.771 63.647 187.234 63.647C188.587 63.647 189.621 62.459 189.742 60.534H191.667V65.869H192.811V55.903ZM187.234 62.635C186.387 62.635 185.804 61.733 185.804 60.138C185.804 58.587 186.387 57.663 187.234 57.663C188.114 57.663 188.675 58.587 188.675 60.138C188.675 61.733 188.114 62.635 187.234 62.635ZM203.095 55.892H202.017V59.819H201.016V56.112H199.949V65.385H201.016V60.743H202.017V65.847H203.095V55.892ZM196.902 57.08H194.669V58.004H195.945C195.857 59.841 195.505 61.447 194.394 62.943L195.274 63.449C196.616 61.612 196.902 59.335 196.902 57.08ZM199.245 57.08H197.221V58.004H198.266C198.211 59.951 197.947 61.909 196.715 63.603L197.617 64.098C199.08 61.986 199.245 59.401 199.245 57.08ZM189.049 73.841C191.216 73.841 192.591 73.148 192.591 71.971C192.591 70.794 191.216 70.079 189.049 70.079C186.882 70.079 185.507 70.794 185.507 71.971C185.507 73.148 186.882 73.841 189.049 73.841ZM189.049 70.959C190.556 70.959 191.414 71.311 191.414 71.971C191.414 72.631 190.556 72.972 189.049 72.972C187.542 72.972 186.673 72.631 186.673 71.971C186.673 71.311 187.542 70.959 189.049 70.959ZM189.61 75.403H193.537V74.49H184.55V75.403H188.477V76.404H185.628V79.726H192.448V76.404H189.61V75.403ZM191.337 77.306V78.824H186.75V77.306H191.337ZM202.644 69.903H201.511V75.909H202.644V69.903ZM200.015 75.513L200.587 74.633C199.058 74.138 198.156 72.928 198.156 71.652V71.465H200.279V70.552H194.845V71.465H197.001V71.652C197.001 72.983 196.11 74.281 194.537 74.809L195.131 75.7C196.319 75.271 197.155 74.457 197.595 73.401C198.035 74.38 198.871 75.15 200.015 75.513ZM195.945 76.404V77.317H201.511V79.847H202.644V76.404H195.945ZM212.543 69.925H211.41V75.579H212.543V69.925ZM207.186 70.409C205.657 70.409 204.546 71.366 204.546 72.752C204.546 74.138 205.657 75.095 207.186 75.095C208.704 75.095 209.815 74.138 209.815 72.752C209.815 71.366 208.704 70.409 207.186 70.409ZM207.186 71.344C208.066 71.344 208.715 71.905 208.715 72.752C208.715 73.61 208.066 74.16 207.186 74.16C206.295 74.16 205.657 73.632 205.657 72.752C205.657 71.905 206.295 71.344 207.186 71.344ZM212.543 76.074H206.042V79.726H212.543V76.074ZM207.153 76.976H211.432V78.824H207.153V76.976Z" fill="#999999"/>
<path d="M10.0609 192.768H7.62986V190.634H9.22486V189.721H7.79486V186.685H9.25786V185.772H1.78886V186.685H3.25186V189.721H1.82186V190.634H3.41686V192.768H1.05186V193.703H10.0609V192.768ZM4.38486 189.721V186.685H6.67286V189.721H4.38486ZM4.54986 192.768V190.634H6.50786V192.768H4.54986ZM18.046 187.411H16.286V188.335H18.046V190.832H19.179V184.914H18.046V187.411ZM16.297 190.513L16.858 189.622C15.362 189.094 14.526 187.895 14.526 186.63V186.498H16.594V185.585H11.281V186.498H13.382V186.641C13.382 188.005 12.491 189.325 10.951 189.875L11.534 190.777C12.722 190.348 13.547 189.49 13.987 188.39C14.416 189.358 15.197 190.128 16.297 190.513ZM15.879 191.096C13.8 191.096 12.524 191.789 12.524 192.977C12.524 194.165 13.8 194.858 15.879 194.858C17.947 194.858 19.223 194.165 19.223 192.977C19.223 191.789 17.947 191.096 15.879 191.096ZM15.879 193.978C14.46 193.978 13.657 193.637 13.657 192.977C13.657 192.317 14.46 191.976 15.879 191.976C17.298 191.976 18.09 192.317 18.09 192.977C18.09 193.637 17.298 193.978 15.879 193.978Z" fill="#999999"/>
<path d="M195.292 189.765V188.83H193.741V184.914H192.608V194.847H193.741V189.765H195.292ZM189.528 187.796V186.839H191.629V185.904H186.228V186.839H188.395V187.796C188.395 189.435 187.394 191.316 185.865 192.053L186.514 192.955C187.669 192.394 188.538 191.206 188.978 189.82C189.429 191.107 190.276 192.174 191.387 192.702L192.014 191.811C190.507 191.107 189.528 189.325 189.528 187.796ZM204.432 184.914H203.354V194.847H204.432V184.914ZM201.33 185.101V188.39H199.867V189.314H201.33V194.385H202.397V185.101H201.33ZM198.998 187.565V185.827H197.898V187.62C197.898 189.314 197.216 191.085 195.808 191.932L196.501 192.79C197.469 192.207 198.107 191.184 198.459 189.941C198.8 191.052 199.372 192.009 200.296 192.57L200.934 191.69C199.603 190.832 198.998 189.182 198.998 187.565Z" fill="#999999"/>
<path d="M91.8257 232.903H90.6817V242.869H91.8257V232.903ZM87.3157 235.367V233.739H86.1827V235.367C86.1827 237.27 85.1487 239.195 83.5647 239.899L84.2357 240.845C85.4347 240.262 86.3147 239.107 86.7657 237.644C87.2167 239.019 88.0857 240.086 89.2297 240.625L89.8897 239.723C88.3277 239.019 87.3157 237.204 87.3157 235.367ZM100.647 236.082V240.306H101.78V232.914H100.647V235.147H98.6339V236.082H100.647ZM98.8099 238.744L99.4149 237.864C97.9299 237.336 97.0939 236.016 97.0939 234.696V233.519H95.9389V234.674C95.9389 236.148 95.0809 237.534 93.5299 238.095L94.1349 238.975C95.2789 238.535 96.1039 237.655 96.5439 236.544C96.9729 237.556 97.7429 238.348 98.8099 238.744ZM102.011 241.736H96.4559V239.525H95.3119V242.66H102.011V241.736ZM111.272 237.248V233.222H110.15V234.377H105.728V233.222H104.606V237.248H111.272ZM110.15 235.246V236.357H105.728V235.246H110.15ZM112.449 238.084H103.44V238.997H107.466V240.768H108.599V238.997H112.449V238.084ZM105.673 241.736V239.943H104.54V242.66H111.448V241.736H105.673ZM122.359 240.735H118.388V238.689H121.534V237.776H120.093V234.718H121.556V233.805H114.087V234.718H115.55V237.776H114.12V238.689H117.255V240.735H113.339V241.67H122.359V240.735ZM116.683 237.776V234.718H118.971V237.776H116.683Z" fill="#999999"/>
</svg>
