<svg width="320" height="64" viewBox="0 0 320 64" fill="none" xmlns="http://www.w3.org/2000/svg">
<path d="M160 39V45" stroke="#DDDDDD"/>
<rect y="37" width="320" height="4" fill="url(#paint0_linear_440_103)"/>
<rect y="27" width="50" height="22" rx="11" fill="#8D79FE"/>
<rect x="270" y="27" width="50" height="22" rx="11" fill="#6967F9"/>
<path d="M21.98 37.252H17.024V35.872H21.98V37.252ZM23.216 33.508H21.98V34.876H17.024V33.508H15.788V38.248H23.216V33.508ZM24.428 39.424H14.6V40.42H18.86V43.936H20.096V40.42H24.428V39.424ZM31.2311 35.812V36.82H33.1511V39.544H34.3871V33.088H33.1511V35.812H31.2311ZM31.8551 38.224C30.2351 37.66 29.3111 36.316 29.3111 34.96V34.816H31.5671V33.82H25.7711V34.816H28.0631V34.972C28.0631 36.46 27.0911 37.9 25.4111 38.5L26.0471 39.484C27.3311 39.028 28.2431 38.068 28.7231 36.88C29.1791 37.924 30.0431 38.776 31.2431 39.196L31.8551 38.224ZM30.7871 42.976C29.2391 42.976 28.3631 42.592 28.3631 41.884C28.3631 41.176 29.2391 40.792 30.7871 40.792C32.3111 40.792 33.1991 41.176 33.1991 41.884C33.1991 42.592 32.3111 42.976 30.7871 42.976ZM30.7871 39.832C28.5191 39.832 27.1271 40.6 27.1271 41.884C27.1271 43.18 28.5191 43.936 30.7871 43.936C33.0431 43.936 34.4351 43.18 34.4351 41.884C34.4351 40.6 33.0431 39.832 30.7871 39.832Z" fill="white"/>
<path d="M289.496 42.916C287.9 42.916 286.964 42.544 286.964 41.836C286.964 41.14 287.9 40.768 289.496 40.768C291.104 40.768 292.028 41.14 292.028 41.836C292.028 42.544 291.104 42.916 289.496 42.916ZM289.496 39.76C287.168 39.76 285.716 40.528 285.716 41.836C285.716 43.144 287.168 43.924 289.496 43.924C291.836 43.924 293.276 43.144 293.276 41.836C293.276 40.528 291.836 39.76 289.496 39.76ZM292.928 37.636C293.204 36.328 293.204 35.32 293.204 34.468V33.628H285.848V34.636H291.992C291.992 35.464 291.968 36.388 291.68 37.636H284.6V38.644H294.428V37.636H292.928ZM301.231 35.812V36.82H303.151V39.544H304.387V33.088H303.151V35.812H301.231ZM301.855 38.224C300.235 37.66 299.311 36.316 299.311 34.96V34.816H301.567V33.82H295.771V34.816H298.063V34.972C298.063 36.46 297.091 37.9 295.411 38.5L296.047 39.484C297.331 39.028 298.243 38.068 298.723 36.88C299.179 37.924 300.043 38.776 301.243 39.196L301.855 38.224ZM300.787 42.976C299.239 42.976 298.363 42.592 298.363 41.884C298.363 41.176 299.239 40.792 300.787 40.792C302.311 40.792 303.199 41.176 303.199 41.884C303.199 42.592 302.311 42.976 300.787 42.976ZM300.787 39.832C298.519 39.832 297.127 40.6 297.127 41.884C297.127 43.18 298.519 43.936 300.787 43.936C303.043 43.936 304.435 43.18 304.435 41.884C304.435 40.6 303.043 39.832 300.787 39.832Z" fill="white"/>
<path d="M150.536 55.54C152.432 55.336 153.92 54.556 154.508 53.44C155.084 54.556 156.572 55.336 158.48 55.54L158.912 54.568C156.908 54.364 155.516 53.524 155.348 52.552H158.516V51.556H150.512V52.552H153.656C153.488 53.524 152.096 54.364 150.092 54.568L150.536 55.54ZM156.968 60.004C156.968 60.628 156.068 60.976 154.484 60.976C152.9 60.976 152.012 60.628 152.012 60.004C152.012 59.356 152.9 59.02 154.484 59.02C156.068 59.02 156.968 59.356 156.968 60.004ZM159.404 57.076V56.092H149.6V57.076H153.884V58.072C151.916 58.192 150.752 58.876 150.752 60.004C150.752 61.228 152.156 61.924 154.484 61.924C156.824 61.924 158.216 61.228 158.216 60.004C158.216 58.876 157.076 58.204 155.12 58.084V57.076H159.404ZM166.975 55.54C165.403 55.804 164.047 55.864 162.187 55.864V54.664H165.895V51.592H160.939V52.6H164.683V53.728H160.963V56.872H161.875C163.951 56.872 165.415 56.824 167.119 56.548L166.975 55.54ZM168.115 60.796H163.471V59.668H168.115V60.796ZM168.115 58.696H163.471V57.58H162.235V61.792H169.339V57.58H168.115V58.696ZM168.103 51.088V57.076H169.339V51.088H168.103Z" fill="#999999"/>
<path d="M295 21C300.523 21 305 16.523 305 11C305 5.477 300.523 1 295 1C289.477 1 285 5.477 285 11C285 16.523 289.477 21 295 21Z" stroke="#6967F9" stroke-width="1.5" stroke-linejoin="round"/>
<path d="M298.5 8.00024V9.00024" stroke="#6967F9" stroke-width="1.5" stroke-linecap="round" stroke-linejoin="round"/>
<path d="M291.5 8.00024V9.00024" stroke="#6967F9" stroke-width="1.5" stroke-linecap="round" stroke-linejoin="round"/>
<path d="M291.5 12.5C291.5 12.5 292.5 14.5 295 14.5C297.5 14.5 298.5 12.5 298.5 12.5" stroke="#6967F9" stroke-width="1.5" stroke-linecap="round" stroke-linejoin="round"/>
<path d="M25 21C30.523 21 35 16.523 35 11C35 5.477 30.523 1 25 1C19.477 1 15 5.477 15 11C15 16.523 19.477 21 25 21Z" stroke="#8D79FE" stroke-width="1.5" stroke-linejoin="round"/>
<path d="M28.5 8.00024V9.00024" stroke="#8D79FE" stroke-width="1.5" stroke-linecap="round" stroke-linejoin="round"/>
<path d="M21.5 8.00024V9.00024" stroke="#8D79FE" stroke-width="1.5" stroke-linecap="round" stroke-linejoin="round"/>
<path d="M28.5 14.5002C28.5 14.5002 27.5 12.5002 25 12.5002C22.5 12.5002 21.5 14.5002 21.5 14.5002" stroke="#8D79FE" stroke-width="1.5" stroke-linecap="round" stroke-linejoin="round"/>
<defs>
<linearGradient id="paint0_linear_440_103" x1="355.529" y1="38.9999" x2="-28.7059" y2="38.9995" gradientUnits="userSpaceOnUse">
<stop stop-color="#6967F9"/>
<stop offset="1" stop-color="#8D79FE"/>
</linearGradient>
</defs>
</svg>
