<svg width="20" height="20" viewBox="0 0 20 20" fill="none" xmlns="http://www.w3.org/2000/svg">
<path d="M6.71663 16.3891L6.8401 16.0086C6.7159 15.9683 6.57985 15.9912 6.47564 16.0698L6.71663 16.3891ZM4.58248 18.0001L4.18446 17.9603C4.16864 18.1184 4.24796 18.2709 4.38652 18.3488C4.52509 18.4267 4.69661 18.4151 4.82347 18.3193L4.58248 18.0001ZM4.82782 15.548L5.22583 15.5879C5.24143 15.4319 5.16453 15.2812 5.0291 15.2024L4.82782 15.548ZM10 17.3004C15.1174 17.3004 19.4 13.8532 19.4 9.45021H18.6C18.6 13.2765 14.8237 16.5004 10 16.5004V17.3004ZM6.59317 16.7696C7.65052 17.1127 8.79969 17.3004 10 17.3004V16.5004C8.88305 16.5004 7.81723 16.3257 6.8401 16.0086L6.59317 16.7696ZM6.47564 16.0698L4.34148 17.6808L4.82347 18.3193L6.95763 16.7083L6.47564 16.0698ZM4.98049 18.0399L5.22583 15.5879L4.42981 15.5082L4.18446 17.9603L4.98049 18.0399ZM0.6 9.45021C0.6 12.1423 2.21531 14.4896 4.62654 15.8937L5.0291 15.2024C2.81016 13.9103 1.4 11.8003 1.4 9.45021H0.6ZM10 1.6C4.88259 1.6 0.6 5.04724 0.6 9.45021H1.4C1.4 5.62391 5.17628 2.4 10 2.4V1.6ZM19.4 9.45021C19.4 5.04724 15.1174 1.6 10 1.6V2.4C14.8237 2.4 18.6 5.62391 18.6 9.45021H19.4Z" fill="#B4B3FC"/>
<ellipse cx="6.72736" cy="9.45025" rx="0.818184" ry="0.827811" fill="#6967F9"/>
<ellipse cx="10.0001" cy="9.45025" rx="0.818184" ry="0.827811" fill="#6967F9"/>
<ellipse cx="13.2728" cy="9.45025" rx="0.818184" ry="0.827811" fill="#6967F9"/>
</svg>
