<svg width="16" height="16" viewBox="0 0 16 16" fill="none" xmlns="http://www.w3.org/2000/svg">
<path d="M5.33333 2.66665H3.33333C2.59695 2.66665 2 3.2636 2 3.99998V5.99998M5.33333 2.66665H10.6667M5.33333 2.66665V1.33331M5.33333 2.66665V3.99998M10.6667 2.66665H12.6667C13.4031 2.66665 14 3.2636 14 3.99998V5.99998H2M10.6667 2.66665V1.33331M10.6667 2.66665V3.99998M2 5.99998V13.3333C2 14.0697 2.59695 14.6666 3.33333 14.6666H6.66667M11.3333 10.1666V11.3333L12.1667 12.1666M14.6667 11.3333C14.6667 13.1742 13.1743 14.6666 11.3333 14.6666C9.4924 14.6666 8 13.1742 8 11.3333C8 9.49238 9.4924 7.99998 11.3333 7.99998C13.1743 7.99998 14.6667 9.49238 14.6667 11.3333Z" stroke="#333333" stroke-linecap="round" stroke-linejoin="round"/>
</svg>
