<svg width="141" height="130" viewBox="0 0 141 130" fill="none" xmlns="http://www.w3.org/2000/svg">
<g clip-path="url(#clip0_1_5745)">
<path d="M69.4271 100.208C87.8951 100.208 102.866 85.2366 102.866 66.7687C102.866 48.3008 87.8951 33.3296 69.4271 33.3296C50.9592 33.3296 35.988 48.3008 35.988 66.7687C35.988 85.2366 50.9592 100.208 69.4271 100.208Z" stroke="#6967F9" stroke-miterlimit="10"/>
<path d="M63.5583 67.2867C64.9175 67.2867 66.0194 66.1848 66.0194 64.8256C66.0194 63.4664 64.9175 62.3645 63.5583 62.3645C62.199 62.3645 61.0972 63.4664 61.0972 64.8256C61.0972 66.1848 62.199 67.2867 63.5583 67.2867Z" fill="#6967F9"/>
<path d="M76.0929 67.2867C77.4522 67.2867 78.554 66.1848 78.554 64.8256C78.554 63.4664 77.4522 62.3645 76.0929 62.3645C74.7337 62.3645 73.6318 63.4664 73.6318 64.8256C73.6318 66.1848 74.7337 67.2867 76.0929 67.2867Z" fill="#6967F9"/>
<path d="M73.6119 68.9906C73.6119 66.9281 71.938 67.3266 69.8754 67.3266C67.8129 67.3266 66.1389 66.938 66.1389 68.9906C66.1389 71.0432 67.8129 72.7271 69.8754 72.7271C71.938 72.7271 73.6119 71.0531 73.6119 68.9906Z" fill="#6967F9"/>
<path d="M33.2777 56.9541H37.353V76.5831H33.2777C29.8301 76.5831 27.0303 73.7832 27.0303 70.3357V63.1915C27.0303 59.744 29.8301 56.9441 33.2777 56.9441V56.9541Z" fill="#6967F9"/>
<path d="M105.666 76.5831H101.591V56.954H105.666C109.114 56.954 111.914 59.7539 111.914 63.2014V70.3456C111.914 73.7931 109.114 76.593 105.666 76.593V76.5831Z" fill="#6967F9"/>
<path d="M108.117 65.7025C108.117 44.3298 90.7899 27.0024 69.4172 27.0024C48.0444 27.0024 30.7271 44.3298 30.7271 65.7025" stroke="#6967F9" stroke-miterlimit="10"/>
<path d="M104.939 73.9727V79.951H78.564" stroke="#6967F9" stroke-miterlimit="10"/>
<path d="M80.5369 77.6892H76.5812C75.3375 77.6892 74.3293 78.6974 74.3293 79.9411V79.951C74.3293 81.1947 75.3375 82.2029 76.5812 82.2029H80.5369C81.7806 82.2029 82.7888 81.1947 82.7888 79.951V79.9411C82.7888 78.6974 81.7806 77.6892 80.5369 77.6892Z" fill="#6967F9"/>
<path d="M69.427 0V1.9928" stroke="#6967F9" stroke-opacity="0.2" stroke-miterlimit="10"/>
<path d="M69.427 4.24463V9.8942" stroke="#6967F9" stroke-opacity="0.2" stroke-miterlimit="10"/>
<path d="M69.427 11.0203V13.0131" stroke="#6967F9" stroke-opacity="0.2" stroke-miterlimit="10"/>
<path d="M37.0044 8.99756L38.0008 10.7213" stroke="#6967F9" stroke-opacity="0.2" stroke-miterlimit="10"/>
<path d="M39.1267 12.6743L41.9465 17.5666" stroke="#6967F9" stroke-opacity="0.2" stroke-miterlimit="10"/>
<path d="M42.5044 18.543L43.5008 20.2667" stroke="#6967F9" stroke-opacity="0.2" stroke-miterlimit="10"/>
<path d="M13.4197 33.0007L15.1434 33.9971" stroke="#6967F9" stroke-opacity="0.2" stroke-miterlimit="10"/>
<path d="M17.0964 35.123L21.9887 37.9429" stroke="#6967F9" stroke-opacity="0.2" stroke-miterlimit="10"/>
<path d="M22.9651 38.5107L24.6889 39.5071" stroke="#6967F9" stroke-opacity="0.2" stroke-miterlimit="10"/>
<path d="M5 65.583H6.9928" stroke="#6967F9" stroke-opacity="0.2" stroke-miterlimit="10"/>
<path d="M9.24463 65.583H14.8942" stroke="#6967F9" stroke-opacity="0.2" stroke-miterlimit="10"/>
<path d="M16.0203 65.583H18.0131" stroke="#6967F9" stroke-opacity="0.2" stroke-miterlimit="10"/>
<path d="M13.9976 97.9957L15.7213 96.9993" stroke="#6967F9" stroke-opacity="0.2" stroke-miterlimit="10"/>
<path d="M17.6743 95.8735L22.5666 93.0537" stroke="#6967F9" stroke-opacity="0.2" stroke-miterlimit="10"/>
<path d="M23.543 92.4957L25.2667 91.4993" stroke="#6967F9" stroke-opacity="0.2" stroke-miterlimit="10"/>
<path d="M38.0007 121.58L38.9971 119.857" stroke="#6967F9" stroke-opacity="0.2" stroke-miterlimit="10"/>
<path d="M40.123 117.904L42.9429 113.011" stroke="#6967F9" stroke-opacity="0.2" stroke-miterlimit="10"/>
<path d="M43.5107 112.035L44.5071 110.311" stroke="#6967F9" stroke-opacity="0.2" stroke-miterlimit="10"/>
<path d="M70.573 130V128.007" stroke="#6967F9" stroke-opacity="0.2" stroke-miterlimit="10"/>
<path d="M70.573 125.755V120.106" stroke="#6967F9" stroke-opacity="0.2" stroke-miterlimit="10"/>
<path d="M70.573 118.98V116.987" stroke="#6967F9" stroke-opacity="0.2" stroke-miterlimit="10"/>
<path d="M102.996 121.002L101.999 119.279" stroke="#6967F9" stroke-opacity="0.2" stroke-miterlimit="10"/>
<path d="M100.874 117.326L98.0537 112.433" stroke="#6967F9" stroke-opacity="0.2" stroke-miterlimit="10"/>
<path d="M97.4957 111.457L96.4993 109.733" stroke="#6967F9" stroke-opacity="0.2" stroke-miterlimit="10"/>
<path d="M126.58 96.9993L124.857 96.0029" stroke="#6967F9" stroke-opacity="0.2" stroke-miterlimit="10"/>
<path d="M122.904 94.8772L118.011 92.0574" stroke="#6967F9" stroke-opacity="0.2" stroke-miterlimit="10"/>
<path d="M117.035 91.4893L115.311 90.4929" stroke="#6967F9" stroke-opacity="0.2" stroke-miterlimit="10"/>
<path d="M135 64.427H133.007" stroke="#6967F9" stroke-opacity="0.2" stroke-miterlimit="10"/>
<path d="M130.755 64.427H125.106" stroke="#6967F9" stroke-opacity="0.2" stroke-miterlimit="10"/>
<path d="M123.98 64.427H121.987" stroke="#6967F9" stroke-opacity="0.2" stroke-miterlimit="10"/>
<path d="M126.002 32.0044L124.279 33.0008" stroke="#6967F9" stroke-opacity="0.2" stroke-miterlimit="10"/>
<path d="M122.326 34.1267L117.433 36.9465" stroke="#6967F9" stroke-opacity="0.2" stroke-miterlimit="10"/>
<path d="M116.457 37.5044L114.733 38.5008" stroke="#6967F9" stroke-opacity="0.2" stroke-miterlimit="10"/>
<path d="M101.999 8.41968L101.003 10.1434" stroke="#6967F9" stroke-opacity="0.2" stroke-miterlimit="10"/>
<path d="M99.8772 12.0964L97.0574 16.9887" stroke="#6967F9" stroke-opacity="0.2" stroke-miterlimit="10"/>
<path d="M96.4893 17.9651L95.4929 19.6889" stroke="#6967F9" stroke-opacity="0.2" stroke-miterlimit="10"/>
</g>
<path d="M0 61.1528H9.51679" stroke="#6967F9" stroke-miterlimit="10"/>
<path d="M4.75879 56.7246V65.581" stroke="#6967F9" stroke-miterlimit="10"/>
<path d="M4.75879 56.7246V65.581" stroke="#6967F9" stroke-miterlimit="10"/>
<path d="M0 61.1528H9.51679" stroke="#6967F9" stroke-miterlimit="10"/>
<path d="M16.0103 42.0576V47.8689" stroke="#6967F9" stroke-miterlimit="10"/>
<path d="M12.8818 44.969H19.1256" stroke="#6967F9" stroke-miterlimit="10"/>
<path d="M131.325 64.9204L126.908 69.0433" stroke="#6967F9" stroke-miterlimit="10"/>
<path d="M126.908 64.9204L131.325 69.0433" stroke="#6967F9" stroke-miterlimit="10"/>
<path d="M120.388 41.7278V50.5719" stroke="#6967F9" stroke-miterlimit="10"/>
<path d="M115.63 46.1558H125.147" stroke="#6967F9" stroke-miterlimit="10"/>
<path d="M122.426 98.7737L117.247 103.582" stroke="#6967F9" stroke-miterlimit="10"/>
<path d="M117.247 98.7737L122.426 103.582" stroke="#6967F9" stroke-miterlimit="10"/>
<path d="M19.4939 82.316C21.0982 82.316 22.3988 81.1055 22.3988 79.6122C22.3988 78.119 21.0982 76.9084 19.4939 76.9084C17.8895 76.9084 16.5889 78.119 16.5889 79.6122C16.5889 81.1055 17.8895 82.316 19.4939 82.316Z" stroke="#6967F9" stroke-miterlimit="10"/>
<path d="M7.65019 105C8.78269 105 9.70077 104.146 9.70077 103.092C9.70077 102.038 8.78269 101.183 7.65019 101.183C6.51768 101.183 5.59961 102.038 5.59961 103.092C5.59961 104.146 6.51768 105 7.65019 105Z" stroke="#6967F9" stroke-miterlimit="10"/>
<path d="M2.7078 31.1914C3.84031 31.1914 4.75838 30.3369 4.75838 29.2828C4.75838 28.2288 3.84031 27.3743 2.7078 27.3743C1.5753 27.3743 0.657227 28.2288 0.657227 29.2828C0.657227 30.3369 1.5753 31.1914 2.7078 31.1914Z" fill="#6967F9"/>
<path d="M110.99 90.8227C112.123 90.8227 113.041 89.9682 113.041 88.9142C113.041 87.8601 112.123 87.0056 110.99 87.0056C109.858 87.0056 108.939 87.8601 108.939 88.9142C108.939 89.9682 109.858 90.8227 110.99 90.8227Z" fill="#6967F9"/>
<path d="M137.95 28.8171C139.082 28.8171 140 27.9626 140 26.9085C140 25.8545 139.082 25 137.95 25C136.817 25 135.899 25.8545 135.899 26.9085C135.899 27.9626 136.817 28.8171 137.95 28.8171Z" stroke="#6967F9" stroke-miterlimit="10"/>
<defs>
<clipPath id="clip0_1_5745">
<rect width="130" height="130" fill="white" transform="translate(5)"/>
</clipPath>
</defs>
</svg>
