<svg width="321" height="135" viewBox="0 0 321 135" fill="none" xmlns="http://www.w3.org/2000/svg">
<path d="M1.672 114.803H8.503V114.066H2.574V110.469H1.672V114.803ZM9.526 118.114V117.366H0.572V118.114H9.526ZM18.7981 115.452V109.611H17.8961V115.452H18.7981ZM16.7961 114.66L16.6971 113.934C15.1351 114.198 13.8591 114.242 12.0991 114.242V112.878H15.6741V110.194H11.1861V110.931H14.7831V112.185H11.2191V114.979H12.0111C13.8261 114.979 15.1901 114.924 16.7961 114.66ZM18.7981 116.002H12.4181V119.335H18.7981V116.002ZM17.9181 118.609H13.2981V116.717H17.9181V118.609Z" fill="#999999"/>
<path d="M8.437 8.556H9.757V7.797H8.437V3.947H7.546V13.814H8.437V8.556ZM3.498 4.871H2.75V7.401H1.54V4.871H0.77V11.427H3.498V4.871ZM6.71 4.871H5.951V7.401H4.785V4.871H4.026V11.427H6.71V4.871ZM1.54 8.127H2.75V10.69H1.54V8.127ZM4.785 8.127H5.951V10.69H4.785V8.127ZM11.8241 4.893H17.6101V5.85H11.8461V8.193H18.7101V7.489H12.7371V6.521H18.5011V4.2H11.8241V4.893ZM19.6451 9.766V9.04H10.7021V9.766H19.6451ZM18.5121 10.679H11.9011V13.682H18.5121V10.679ZM17.6211 12.956H12.7811V11.394H17.6211V12.956Z" fill="#999999"/>
<path d="M24.6685 46H320" stroke="#EBEBEB" stroke-dasharray="2 3"/>
<path d="M24.6685 80.667H320" stroke="#EBEBEB" stroke-dasharray="2 3"/>
<path d="M24.6685 11.3643H320" stroke="#EBEBEB" stroke-dasharray="2 3"/>
<path d="M24.6685 115.333H320" stroke="#EBEBEB"/>
<path d="M38.786 132V131.186H37.202V123.893H36.399L34.232 125.763L34.771 126.412L36.234 125.103C36.223 125.18 36.223 125.279 36.223 125.378V131.186H34.43V132H38.786ZM41.0157 131.12H40.0147V132.154H41.0157V131.12ZM48.3469 127.985C48.3469 125.114 47.0489 123.805 45.3879 123.805C43.7159 123.805 42.4289 125.114 42.4289 127.985C42.4289 130.845 43.7159 132.154 45.3879 132.154C47.0489 132.154 48.3469 130.845 48.3469 127.985ZM47.3349 127.985C47.3349 130.493 46.4109 131.34 45.3879 131.34C44.3649 131.34 43.4519 130.493 43.4519 127.985C43.4519 125.466 44.3649 124.63 45.3879 124.63C46.4109 124.63 47.3349 125.466 47.3349 127.985Z" fill="#999999"/>
<path d="M62.786 132V131.186H61.202V123.893H60.399L58.232 125.763L58.771 126.412L60.234 125.103C60.223 125.18 60.223 125.279 60.223 125.378V131.186H58.43V132H62.786ZM65.0157 131.12H64.0147V132.154H65.0157V131.12ZM68.1889 126.94L68.5519 124.828H71.7089V123.904H67.8479L67.1879 127.721L67.8369 127.908C68.3099 127.743 68.7279 127.644 69.1569 127.644C70.3119 127.644 70.9939 128.26 70.9939 129.316C70.9939 130.504 70.1909 131.197 69.0799 131.197C68.4199 131.197 67.7819 130.9 67.2979 130.493L66.7589 131.23C67.2539 131.703 68.0679 132.099 69.0359 132.099C70.6749 132.099 71.9619 130.977 71.9619 129.261C71.9619 127.853 71.0489 126.797 69.3439 126.797C68.9479 126.797 68.5629 126.841 68.1889 126.94Z" fill="#999999"/>
<path d="M86.995 132V131.109H83.816C83.541 131.109 83.211 131.153 82.903 131.241L85.158 129.008C86.071 128.095 86.841 127.259 86.841 126.06C86.841 124.63 85.774 123.794 84.399 123.794C83.024 123.794 81.957 124.597 81.748 126.082L82.738 126.247C82.738 125.323 83.42 124.663 84.344 124.663C85.18 124.663 85.796 125.114 85.829 126.082C85.829 127.028 85.213 127.721 84.366 128.623L81.583 131.296V132H86.995ZM89.0157 131.12H88.0147V132.154H89.0157V131.12ZM96.3469 127.985C96.3469 125.114 95.0489 123.805 93.3879 123.805C91.7159 123.805 90.4289 125.114 90.4289 127.985C90.4289 130.845 91.7159 132.154 93.3879 132.154C95.0489 132.154 96.3469 130.845 96.3469 127.985ZM95.3349 127.985C95.3349 130.493 94.4109 131.34 93.3879 131.34C92.3649 131.34 91.4519 130.493 91.4519 127.985C91.4519 125.466 92.3649 124.63 93.3879 124.63C94.4109 124.63 95.3349 125.466 95.3349 127.985Z" fill="#999999"/>
<path d="M110.995 132V131.109H107.816C107.541 131.109 107.211 131.153 106.903 131.241L109.158 129.008C110.071 128.095 110.841 127.259 110.841 126.06C110.841 124.63 109.774 123.794 108.399 123.794C107.024 123.794 105.957 124.597 105.748 126.082L106.738 126.247C106.738 125.323 107.42 124.663 108.344 124.663C109.18 124.663 109.796 125.114 109.829 126.082C109.829 127.028 109.213 127.721 108.366 128.623L105.583 131.296V132H110.995ZM113.016 131.12H112.015V132.154H113.016V131.12ZM116.189 126.94L116.552 124.828H119.709V123.904H115.848L115.188 127.721L115.837 127.908C116.31 127.743 116.728 127.644 117.157 127.644C118.312 127.644 118.994 128.26 118.994 129.316C118.994 130.504 118.191 131.197 117.08 131.197C116.42 131.197 115.782 130.9 115.298 130.493L114.759 131.23C115.254 131.703 116.068 132.099 117.036 132.099C118.675 132.099 119.962 130.977 119.962 129.261C119.962 127.853 119.049 126.797 117.344 126.797C116.948 126.797 116.563 126.841 116.189 126.94Z" fill="#999999"/>
<path d="M129.781 126.104L130.782 126.269C130.782 125.367 131.453 124.685 132.377 124.685C133.224 124.685 133.818 125.136 133.818 126.06C133.818 126.896 133.312 127.479 131.893 127.512V128.238C133.62 128.238 133.983 128.876 133.983 129.745C133.983 130.46 133.422 131.274 132.267 131.274C131.431 131.274 130.936 130.845 130.595 130.141C130.507 129.932 130.452 129.767 130.43 129.646L129.528 130.02C129.913 131.208 130.54 132.143 132.278 132.143C133.785 132.143 135.006 131.197 135.006 129.723C135.006 128.711 134.456 128.04 133.4 127.776C134.28 127.479 134.819 126.951 134.819 125.895C134.819 124.663 133.829 123.805 132.432 123.805C131.057 123.805 129.99 124.641 129.781 126.104ZM137.016 131.12H136.015V132.154H137.016V131.12ZM144.347 127.985C144.347 125.114 143.049 123.805 141.388 123.805C139.716 123.805 138.429 125.114 138.429 127.985C138.429 130.845 139.716 132.154 141.388 132.154C143.049 132.154 144.347 130.845 144.347 127.985ZM143.335 127.985C143.335 130.493 142.411 131.34 141.388 131.34C140.365 131.34 139.452 130.493 139.452 127.985C139.452 125.466 140.365 124.63 141.388 124.63C142.411 124.63 143.335 125.466 143.335 127.985Z" fill="#999999"/>
<path d="M153.781 126.104L154.782 126.269C154.782 125.367 155.453 124.685 156.377 124.685C157.224 124.685 157.818 125.136 157.818 126.06C157.818 126.896 157.312 127.479 155.893 127.512V128.238C157.62 128.238 157.983 128.876 157.983 129.745C157.983 130.46 157.422 131.274 156.267 131.274C155.431 131.274 154.936 130.845 154.595 130.141C154.507 129.932 154.452 129.767 154.43 129.646L153.528 130.02C153.913 131.208 154.54 132.143 156.278 132.143C157.785 132.143 159.006 131.197 159.006 129.723C159.006 128.711 158.456 128.04 157.4 127.776C158.28 127.479 158.819 126.951 158.819 125.895C158.819 124.663 157.829 123.805 156.432 123.805C155.057 123.805 153.99 124.641 153.781 126.104ZM161.016 131.12H160.015V132.154H161.016V131.12ZM164.189 126.94L164.552 124.828H167.709V123.904H163.848L163.188 127.721L163.837 127.908C164.31 127.743 164.728 127.644 165.157 127.644C166.312 127.644 166.994 128.26 166.994 129.316C166.994 130.504 166.191 131.197 165.08 131.197C164.42 131.197 163.782 130.9 163.298 130.493L162.759 131.23C163.254 131.703 164.068 132.099 165.036 132.099C166.675 132.099 167.962 130.977 167.962 129.261C167.962 127.853 167.049 126.797 165.344 126.797C164.948 126.797 164.563 126.841 164.189 126.94Z" fill="#999999"/>
<path d="M183.38 129.855V129.063H182.159V123.849H181.213L177.242 129.107V129.855H181.268V132H182.159V129.855H183.38ZM181.268 125.697V129.063H178.342L181.312 125.015C181.279 125.246 181.268 125.51 181.268 125.697ZM185.016 131.12H184.015V132.154H185.016V131.12ZM192.347 127.985C192.347 125.114 191.049 123.805 189.388 123.805C187.716 123.805 186.429 125.114 186.429 127.985C186.429 130.845 187.716 132.154 189.388 132.154C191.049 132.154 192.347 130.845 192.347 127.985ZM191.335 127.985C191.335 130.493 190.411 131.34 189.388 131.34C188.365 131.34 187.452 130.493 187.452 127.985C187.452 125.466 188.365 124.63 189.388 124.63C190.411 124.63 191.335 125.466 191.335 127.985Z" fill="#999999"/>
<path d="M207.38 129.855V129.063H206.159V123.849H205.213L201.242 129.107V129.855H205.268V132H206.159V129.855H207.38ZM205.268 125.697V129.063H202.342L205.312 125.015C205.279 125.246 205.268 125.51 205.268 125.697ZM209.016 131.12H208.015V132.154H209.016V131.12ZM212.189 126.94L212.552 124.828H215.709V123.904H211.848L211.188 127.721L211.837 127.908C212.31 127.743 212.728 127.644 213.157 127.644C214.312 127.644 214.994 128.26 214.994 129.316C214.994 130.504 214.191 131.197 213.08 131.197C212.42 131.197 211.782 130.9 211.298 130.493L210.759 131.23C211.254 131.703 212.068 132.099 213.036 132.099C214.675 132.099 215.962 130.977 215.962 129.261C215.962 127.853 215.049 126.797 213.344 126.797C212.948 126.797 212.563 126.841 212.189 126.94Z" fill="#999999"/>
<path d="M227.101 126.94L227.464 124.828H230.621V123.904H226.76L226.1 127.721L226.749 127.908C227.222 127.743 227.64 127.644 228.069 127.644C229.224 127.644 229.906 128.26 229.906 129.316C229.906 130.504 229.103 131.197 227.992 131.197C227.332 131.197 226.694 130.9 226.21 130.493L225.671 131.23C226.166 131.703 226.98 132.099 227.948 132.099C229.587 132.099 230.874 130.977 230.874 129.261C230.874 127.853 229.961 126.797 228.256 126.797C227.86 126.797 227.475 126.841 227.101 126.94ZM233.016 131.12H232.015V132.154H233.016V131.12ZM240.347 127.985C240.347 125.114 239.049 123.805 237.388 123.805C235.716 123.805 234.429 125.114 234.429 127.985C234.429 130.845 235.716 132.154 237.388 132.154C239.049 132.154 240.347 130.845 240.347 127.985ZM239.335 127.985C239.335 130.493 238.411 131.34 237.388 131.34C236.365 131.34 235.452 130.493 235.452 127.985C235.452 125.466 236.365 124.63 237.388 124.63C238.411 124.63 239.335 125.466 239.335 127.985Z" fill="#999999"/>
<path d="M251.101 126.94L251.464 124.828H254.621V123.904H250.76L250.1 127.721L250.749 127.908C251.222 127.743 251.64 127.644 252.069 127.644C253.224 127.644 253.906 128.26 253.906 129.316C253.906 130.504 253.103 131.197 251.992 131.197C251.332 131.197 250.694 130.9 250.21 130.493L249.671 131.23C250.166 131.703 250.98 132.099 251.948 132.099C253.587 132.099 254.874 130.977 254.874 129.261C254.874 127.853 253.961 126.797 252.256 126.797C251.86 126.797 251.475 126.841 251.101 126.94ZM257.016 131.12H256.015V132.154H257.016V131.12ZM260.189 126.94L260.552 124.828H263.709V123.904H259.848L259.188 127.721L259.837 127.908C260.31 127.743 260.728 127.644 261.157 127.644C262.312 127.644 262.994 128.26 262.994 129.316C262.994 130.504 262.191 131.197 261.08 131.197C260.42 131.197 259.782 130.9 259.298 130.493L258.759 131.23C259.254 131.703 260.068 132.099 261.036 132.099C262.675 132.099 263.962 130.977 263.962 129.261C263.962 127.853 263.049 126.797 261.344 126.797C260.948 126.797 260.563 126.841 260.189 126.94Z" fill="#999999"/>
<path d="M275.651 126.94L278.082 123.893H276.817L274.573 126.918C273.869 127.842 273.572 128.656 273.572 129.371C273.572 131.043 274.639 132.143 276.278 132.143C277.928 132.143 279.072 130.977 279.072 129.481C279.072 127.93 277.972 127.05 276.652 127.05C276.113 127.05 275.662 127.204 275.266 127.468C275.343 127.38 275.464 127.204 275.651 126.94ZM276.256 131.296C275.156 131.296 274.551 130.592 274.551 129.536C274.551 128.623 275.244 127.831 276.322 127.831C277.323 127.831 278.06 128.491 278.06 129.558C278.06 130.559 277.323 131.296 276.256 131.296ZM281.016 131.12H280.015V132.154H281.016V131.12ZM288.347 127.985C288.347 125.114 287.049 123.805 285.388 123.805C283.716 123.805 282.429 125.114 282.429 127.985C282.429 130.845 283.716 132.154 285.388 132.154C287.049 132.154 288.347 130.845 288.347 127.985ZM287.335 127.985C287.335 130.493 286.411 131.34 285.388 131.34C284.365 131.34 283.452 130.493 283.452 127.985C283.452 125.466 284.365 124.63 285.388 124.63C286.411 124.63 287.335 125.466 287.335 127.985Z" fill="#999999"/>
<path d="M299.651 126.94L302.082 123.893H300.817L298.573 126.918C297.869 127.842 297.572 128.656 297.572 129.371C297.572 131.043 298.639 132.143 300.278 132.143C301.928 132.143 303.072 130.977 303.072 129.481C303.072 127.93 301.972 127.05 300.652 127.05C300.113 127.05 299.662 127.204 299.266 127.468C299.343 127.38 299.464 127.204 299.651 126.94ZM300.256 131.296C299.156 131.296 298.551 130.592 298.551 129.536C298.551 128.623 299.244 127.831 300.322 127.831C301.323 127.831 302.06 128.491 302.06 129.558C302.06 130.559 301.323 131.296 300.256 131.296ZM305.016 131.12H304.015V132.154H305.016V131.12ZM308.189 126.94L308.552 124.828H311.709V123.904H307.848L307.188 127.721L307.837 127.908C308.31 127.743 308.728 127.644 309.157 127.644C310.312 127.644 310.994 128.26 310.994 129.316C310.994 130.504 310.191 131.197 309.08 131.197C308.42 131.197 307.782 130.9 307.298 130.493L306.759 131.23C307.254 131.703 308.068 132.099 309.036 132.099C310.675 132.099 311.962 130.977 311.962 129.261C311.962 127.853 311.049 126.797 309.344 126.797C308.948 126.797 308.563 126.841 308.189 126.94Z" fill="#999999"/>
<path d="M160.716 68.2741L41 109.818" stroke="#FF6D3B" stroke-width="3"/>
<path d="M209.415 51.3748L160.717 68.2739" stroke="#FABF48" stroke-width="3"/>
<path d="M258.113 34.4758L209.414 51.375" stroke="#62B22F" stroke-width="3"/>
<path d="M306.811 17.5769L258.113 34.4761" stroke="#1E76FC" stroke-width="3"/>
<path d="M320 12.9998L306.811 17.5767" stroke="#6967F9" stroke-width="3"/>
<mask id="mask0_317_3997" style="mask-type:alpha" maskUnits="userSpaceOnUse" x="223" y="33" width="48" height="83">
<path d="M270.5 115.5L223 115.5L223 50L270.5 33L270.5 115.5Z" fill="#D9D9D9"/>
</mask>
<g mask="url(#mask0_317_3997)">
<path d="M190.992 52.3101L275.145 22.8315" stroke="#F5F5F5"/>
<path d="M190 49.4785L274.153 19.9999" stroke="#F5F5F5"/>
<path d="M191.984 55.1411L276.137 25.6625" stroke="#F5F5F5"/>
<path d="M192.976 57.9727L277.129 28.494" stroke="#F5F5F5"/>
<path d="M193.967 60.8037L278.121 31.3251" stroke="#F5F5F5"/>
<path d="M194.959 63.6353L279.113 34.1566" stroke="#F5F5F5"/>
<path d="M195.951 66.4663L280.104 36.9877" stroke="#F5F5F5"/>
<path d="M196.943 69.2979L281.096 39.8192" stroke="#F5F5F5"/>
<path d="M197.934 72.1289L282.088 42.6503" stroke="#F5F5F5"/>
<path d="M198.926 74.9604L283.08 45.4818" stroke="#F5F5F5"/>
<path d="M199.918 77.7915L284.072 48.3129" stroke="#F5F5F5"/>
<path d="M200.91 80.623L285.063 51.1444" stroke="#F5F5F5"/>
<path d="M201.902 83.4541L286.055 53.9755" stroke="#F5F5F5"/>
<path d="M202.893 86.2856L287.047 56.807" stroke="#F5F5F5"/>
<path d="M203.885 89.1167L288.039 59.6381" stroke="#F5F5F5"/>
<path d="M204.877 91.9482L289.03 62.4696" stroke="#F5F5F5"/>
<path d="M205.869 94.7793L290.022 65.3007" stroke="#F5F5F5"/>
<path d="M206.861 97.6108L291.014 68.1322" stroke="#F5F5F5"/>
<path d="M207.853 100.442L292.006 70.9633" stroke="#F5F5F5"/>
<path d="M208.844 103.273L292.998 73.7948" stroke="#F5F5F5"/>
<path d="M209.836 106.105L293.989 76.6264" stroke="#F5F5F5"/>
<path d="M210.828 108.936L294.981 79.4574" stroke="#F5F5F5"/>
<path d="M211.82 111.768L295.973 82.289" stroke="#F5F5F5"/>
<path d="M212.812 114.599L296.965 85.12" stroke="#F5F5F5"/>
<path d="M213.803 117.43L297.957 87.9516" stroke="#F5F5F5"/>
<path d="M214.795 120.261L298.949 90.7826" stroke="#F5F5F5"/>
<path d="M215.787 123.093L299.94 93.6142" stroke="#F5F5F5"/>
<path d="M216.779 125.924L300.932 96.4452" stroke="#F5F5F5"/>
<path d="M217.771 128.755L301.924 99.2768" stroke="#F5F5F5"/>
<path d="M218.762 131.586L302.916 102.108" stroke="#F5F5F5"/>
<path d="M219.754 134.418L303.907 104.939" stroke="#F5F5F5"/>
<path d="M220.746 137.249L304.899 107.77" stroke="#F5F5F5"/>
</g>
<path d="M242.168 60.22L244.508 60.22L244.508 63.496L245.504 63.496L245.504 57.136L244.508 57.136L244.508 59.416L242.168 59.416L242.168 60.22ZM242.42 62.992L242.948 62.224C241.364 61.672 240.332 60.328 240.332 58.804L240.332 57.736L239.348 57.736L239.348 58.84C239.348 60.472 238.292 61.936 236.624 62.512L237.14 63.316C238.436 62.824 239.396 61.876 239.864 60.58C240.332 61.696 241.22 62.548 242.42 62.992ZM241.952 63.82C239.744 63.82 238.364 64.552 238.364 65.848C238.364 67.132 239.744 67.876 241.952 67.876C244.16 67.876 245.528 67.132 245.528 65.848C245.528 64.552 244.16 63.82 241.952 63.82ZM241.952 67.096C240.308 67.096 239.348 66.628 239.348 65.848C239.348 65.032 240.308 64.588 241.952 64.588C243.596 64.588 244.556 65.032 244.556 65.848C244.556 66.628 243.596 67.096 241.952 67.096ZM255.283 64.996L256.267 64.996L256.267 57.136L255.283 57.136L255.283 64.996ZM253.303 60.52C253.303 58.972 252.079 57.88 250.483 57.88C248.887 57.88 247.687 58.972 247.687 60.52C247.687 62.08 248.887 63.184 250.483 63.184C252.079 63.184 253.303 62.08 253.303 60.52ZM248.647 60.52C248.647 59.476 249.427 58.732 250.483 58.732C251.551 58.732 252.343 59.476 252.343 60.52C252.343 61.588 251.551 62.332 250.483 62.332C249.427 62.332 248.647 61.588 248.647 60.52ZM256.591 67.648L256.591 66.844L250.327 66.844L250.327 64.192L249.343 64.192L249.343 67.648L256.591 67.648ZM244.988 76.412L246.584 76.412L246.584 75.596L244.988 75.596L244.988 73.124L244.004 73.124L244.004 79.208L244.988 79.208L244.988 76.412ZM243.032 77.912L242.912 77.108C241.172 77.444 239.684 77.552 238.136 77.564L238.136 73.664L237.164 73.664L237.164 78.392L238.004 78.392C239.636 78.392 241.196 78.284 243.032 77.912ZM244.988 79.796L238.208 79.796L238.208 83.732L244.988 83.732L244.988 79.796ZM244.028 82.94L239.168 82.94L239.168 80.588L244.028 80.588L244.028 82.94ZM256.303 83.9L256.303 73.124L255.319 73.124L255.319 75.632L252.103 75.632L252.103 76.436L255.319 76.436L255.319 78.08L252.103 78.08L252.103 78.884L255.319 78.884L255.319 83.9L256.303 83.9ZM249.007 80.576L249.007 74.312L248.023 74.312L248.023 81.404L248.839 81.404C250.699 81.404 252.067 81.332 253.627 81.008L253.519 80.192C252.043 80.48 250.723 80.576 249.007 80.576ZM242.732 93.78L244.508 93.78L244.508 95.76L245.504 95.76L245.504 89.136L244.508 89.136L244.508 91.044L242.732 91.044L242.732 91.848L244.508 91.848L244.508 92.976L242.732 92.976L242.732 93.78ZM243.02 94.764L242.96 94.032C242.516 94.092 242.036 94.14 241.556 94.176L241.556 90.732L242.624 90.732L242.624 89.94L236.96 89.94L236.96 90.732L238.028 90.732L238.028 94.296C237.788 94.308 237.56 94.308 237.332 94.308L236.672 94.308L236.78 95.124C238.52 95.124 240.944 95.088 243.02 94.764ZM238.976 94.284L238.976 90.732L240.596 90.732L240.596 94.224C240.056 94.26 239.504 94.272 238.976 94.284ZM241.952 95.988C239.684 95.988 238.364 96.672 238.364 97.92C238.364 99.168 239.684 99.876 241.952 99.876C244.172 99.876 245.528 99.168 245.528 97.92C245.528 96.672 244.172 95.988 241.952 95.988ZM241.952 99.108C240.308 99.108 239.348 98.688 239.348 97.92C239.348 97.188 240.308 96.744 241.952 96.744C243.596 96.744 244.556 97.188 244.556 97.92C244.556 98.688 243.596 99.108 241.952 99.108ZM257.203 94.548L257.203 93.744L255.691 93.744C255.943 92.4 255.943 91.392 255.943 90.516L255.943 89.7L248.659 89.7L248.659 90.504L254.971 90.504L254.971 90.516C254.971 91.392 254.983 92.388 254.707 93.744L247.435 93.744L247.435 94.548L250.675 94.548L250.675 97.14L251.635 97.14L251.635 94.548L253.531 94.548L253.531 97.14L254.491 97.14L254.491 94.548L257.203 94.548ZM256.231 98.844L249.595 98.844L249.595 96.276L248.623 96.276L248.623 99.648L256.231 99.648L256.231 98.844Z" fill="#C7C7CF"/>
<path fill-rule="evenodd" clip-rule="evenodd" d="M243 0C235.82 0 230 5.8203 230 13C230 20.1797 235.82 26 243 26H252.959L257 33L261.041 26H271C278.18 26 284 20.1797 284 13C284 5.8203 278.18 0 271 0H243Z" fill="black"/>
<path d="M242.644 10.008H249.244V10.392C249.244 12.024 249.172 13.44 248.872 15.06L249.844 15.18C250.228 13.164 250.228 11.76 250.228 10.392V9.204H242.644V10.008ZM251.368 17.376V16.572H247.66V13.008H246.688V16.572H244.996V13.008H244.024V16.572H241.636V17.376H251.368ZM257.295 12.492C259.623 12.492 261.075 11.736 261.075 10.44C261.075 9.144 259.623 8.376 257.295 8.376C254.979 8.376 253.515 9.144 253.515 10.44C253.515 11.736 254.979 12.492 257.295 12.492ZM257.295 9.156C259.035 9.156 260.067 9.624 260.067 10.44C260.067 11.256 259.035 11.724 257.295 11.724C255.555 11.724 254.523 11.256 254.523 10.44C254.523 9.624 255.555 9.156 257.295 9.156ZM259.599 15.468V14.1H262.167V13.308H252.435V14.1H255.003V15.468H253.515V16.26H259.983V18.9H260.967V15.468H259.599ZM255.987 14.1H258.615V15.468H255.987V14.1ZM269.066 14.424H270.002V11.82H271.37V14.772H272.318V8.136H271.37V11.016H270.002V8.34H269.066V14.424ZM268.094 13.932L268.622 13.176C267.242 12.66 266.438 11.424 266.438 10.248V8.796H265.49V10.248C265.49 11.436 264.638 12.864 263.246 13.464L263.774 14.232C264.83 13.764 265.586 12.852 265.97 11.844C266.354 12.756 267.086 13.512 268.094 13.932ZM268.766 15.012C266.558 15.012 265.178 15.732 265.178 16.944C265.178 18.156 266.558 18.876 268.766 18.876C270.974 18.876 272.366 18.156 272.366 16.944C272.366 15.732 270.974 15.012 268.766 15.012ZM268.766 18.12C267.122 18.12 266.15 17.712 266.15 16.944C266.15 16.176 267.122 15.78 268.766 15.78C270.41 15.78 271.394 16.176 271.394 16.944C271.394 17.712 270.41 18.12 268.766 18.12Z" fill="white"/>
<circle cx="257" cy="35" r="3" fill="black"/>
<circle cx="257" cy="35" r="5" fill="black" fill-opacity="0.1"/>
<circle cx="257" cy="35" r="2" fill="white"/>
</svg>
