<svg width="58" height="82" viewBox="0 0 58 82" fill="none" xmlns="http://www.w3.org/2000/svg">
<circle cx="29.0005" cy="29" r="29" fill="#FABF48"/>
<rect x="7.28076" y="46.2456" width="13.7544" height="5.15789" rx="2.57895" fill="#FD557A"/>
<path fill-rule="evenodd" clip-rule="evenodd" d="M29.0005 58C45.0167 58 58.0005 45.0163 58.0005 29C58.0005 22.507 55.8666 16.5123 52.2619 11.6791C48.2161 9.33921 43.5191 8 38.5093 8C23.3166 8 11.0005 20.3161 11.0005 35.5088C11.0005 44.1846 15.0168 51.9223 21.2915 56.9642C23.7462 57.6394 26.3312 58 29.0005 58Z" fill="#FD557A"/>
<path d="M23.1843 36.7895C24.3712 36.7895 25.3334 35.8273 25.3334 34.6403C25.3334 33.4534 24.3712 32.4912 23.1843 32.4912C21.9974 32.4912 21.0352 33.4534 21.0352 34.6403C21.0352 35.8273 21.9974 36.7895 23.1843 36.7895Z" fill="black"/>
<path d="M33.9768 36.7895C35.1637 36.7895 36.1259 35.8273 36.1259 34.6403C36.1259 33.4534 35.1637 32.4912 33.9768 32.4912C32.7898 32.4912 31.8276 33.4534 31.8276 34.6403C31.8276 35.8273 32.7898 36.7895 33.9768 36.7895Z" fill="black"/>
<path d="M25.2317 37.9634C25.2317 36.2372 26.7159 36.5652 28.5483 36.5652C30.3807 36.5652 31.8649 36.2372 31.8649 37.9634C31.8649 39.6896 30.3807 41.0878 28.5483 41.0878C26.7159 41.0878 25.2317 39.6896 25.2317 37.9634Z" fill="black"/>
<path d="M19.506 68.942C19.506 70.482 19.506 72.19 19.058 74.5L20.5 74.668C20.948 72.218 20.948 70.524 20.948 68.942V67.612H11.848V68.788H19.506V68.942ZM17.896 76.236V72.148H16.468V76.236H14.774V72.148H13.346V76.236H10.714V77.426H22.138V76.236H17.896ZM29.0249 67.836C30.9009 67.836 32.0349 68.312 32.0349 69.166C32.0349 70.006 30.9009 70.482 29.0249 70.482C27.1349 70.482 26.0009 70.006 26.0009 69.166C26.0009 68.312 27.1349 67.836 29.0249 67.836ZM29.0249 71.616C31.7689 71.616 33.5329 70.692 33.5329 69.166C33.5329 67.64 31.7689 66.716 29.0249 66.716C26.2669 66.716 24.5169 67.64 24.5169 69.166C24.5169 70.692 26.2669 71.616 29.0249 71.616ZM30.4109 74.99H27.6109V73.604H30.4109V74.99ZM34.7369 73.604V72.442H23.2849V73.604H26.1689V74.99H24.5729V76.138H31.8949V79.078H33.3369V74.99H31.8529V73.604H34.7369ZM43.9058 70.86H45.2358V74.206H46.6078V66.45H45.2358V69.684H43.9058V66.674H42.5478V73.8H43.9058V70.86ZM42.2538 72.232C40.6158 71.588 39.7898 70.202 39.7898 68.802V67.206H38.3898V68.802C38.3898 70.244 37.5358 71.826 35.8418 72.596L36.5978 73.702C37.8158 73.17 38.6418 72.19 39.1038 71.028C39.5798 72.036 40.3638 72.876 41.4838 73.31L42.2538 72.232ZM42.3938 77.972C40.6158 77.972 39.5518 77.538 39.5518 76.768C39.5518 75.984 40.6158 75.55 42.3938 75.55C44.1718 75.55 45.2358 75.984 45.2358 76.768C45.2358 77.538 44.1718 77.972 42.3938 77.972ZM42.3938 74.444C39.7618 74.444 38.1098 75.312 38.1098 76.768C38.1098 78.21 39.7618 79.078 42.3938 79.078C45.0258 79.078 46.6778 78.21 46.6778 76.768C46.6778 75.312 45.0258 74.444 42.3938 74.444Z" fill="#FD557A"/>
</svg>
