<svg width="300" height="198" viewBox="0 0 300 198" fill="none" xmlns="http://www.w3.org/2000/svg">
<path d="M151 46.2393L151 189.849" stroke="#DDDDDD" stroke-miterlimit="10" stroke-linecap="round"/>
<path d="M206.689 93.22L198.934 106.751" stroke="#DDDDDD" stroke-miterlimit="10"/>
<path d="M94.1626 92.25L101.91 105.774" stroke="#DDDDDD" stroke-miterlimit="10"/>
<path d="M52.7178 133.799L66.137 141.613" stroke="#DDDDDD" stroke-miterlimit="10"/>
<path d="M37 189.901H262" stroke="#DDDDDD" stroke-miterlimit="10"/>
<path d="M247.454 135.197L234.035 143.005" stroke="#DDDDDD" stroke-miterlimit="10"/>
<path d="M147 49.2733L151 45.228L155 49.2733" stroke="#DDDDDD" stroke-linecap="round" stroke-linejoin="round"/>
<path d="M41 193.894L37 189.849L41 185.803" stroke="#DDDDDD" stroke-linecap="round" stroke-linejoin="round"/>
<path d="M258 185.803L262 189.849L258 193.894" stroke="#DDDDDD" stroke-linecap="round" stroke-linejoin="round"/>
<path d="M284.87 190.007C284.87 191.397 286.14 192.287 288.69 192.287C291.23 192.287 292.47 191.397 292.47 190.007C292.47 188.607 291.24 187.717 288.69 187.717C286.14 187.717 284.87 188.607 284.87 190.007ZM285.6 190.007C285.6 189.167 286.53 188.607 288.69 188.607C290.83 188.607 291.74 189.167 291.74 190.007C291.74 190.837 290.83 191.397 288.69 191.397C286.53 191.397 285.6 190.837 285.6 190.007Z" fill="#FF6D3B"/>
<path d="M268 182.06L268 186.08L268.76 186.08L268.76 184.61L275.34 184.61L275.34 183.91C275.1 183.51 274.93 183.04 274.81 182.39L274.23 182.39L274.23 183.69L268.76 183.69L268.76 182.06L268 182.06ZM267.87 189.517C267.87 190.897 268.7 191.817 269.77 191.817C270.77 191.817 271.32 191.217 271.69 190.577L271.74 190.577C272.08 191.017 272.74 191.557 273.51 191.557C274.64 191.557 275.44 190.797 275.44 189.547C275.44 188.407 274.7 187.537 273.58 187.537C272.81 187.537 272.26 187.987 271.89 188.527L271.84 188.527C271.48 187.857 270.8 187.177 269.82 187.177C268.69 187.177 267.87 188.167 267.87 189.517ZM271.98 190.017C272.32 189.157 272.7 188.367 273.58 188.367C274.29 188.367 274.77 188.857 274.77 189.537C274.77 190.327 274.18 190.777 273.46 190.777C272.92 190.777 272.42 190.517 271.98 190.017ZM268.55 189.537C268.55 188.657 269.12 188.007 269.9 188.007C270.6 188.007 271.18 188.417 271.56 189.007C271.14 190.047 270.77 190.947 269.79 190.947C269.06 190.947 268.55 190.377 268.55 189.537ZM267.87 195.053C267.87 196.443 269.14 197.333 271.69 197.333C274.23 197.333 275.47 196.443 275.47 195.053C275.47 193.653 274.24 192.763 271.69 192.763C269.14 192.763 267.87 193.653 267.87 195.053ZM268.6 195.053C268.6 194.213 269.53 193.653 271.69 193.653C273.83 193.653 274.74 194.213 274.74 195.053C274.74 195.883 273.83 196.443 271.69 196.443C269.53 196.443 268.6 195.883 268.6 195.053Z" fill="#333333"/>
<path d="M14 196.94L14 192.92L13.24 192.92L13.24 194.39L6.66 194.39L6.66 195.09C6.9 195.49 7.07 195.96 7.19 196.61L7.77 196.61L7.77 195.31L13.24 195.31L13.24 196.94L14 196.94ZM14.13 189.483C14.13 188.103 13.3 187.183 12.23 187.183C11.23 187.183 10.68 187.783 10.31 188.423L10.26 188.423C9.92 187.983 9.26 187.443 8.49 187.443C7.36 187.443 6.56 188.203 6.56 189.453C6.56 190.593 7.3 191.463 8.42 191.463C9.19 191.463 9.74 191.013 10.11 190.473L10.16 190.473C10.52 191.143 11.2 191.823 12.18 191.823C13.31 191.823 14.13 190.833 14.13 189.483ZM10.02 188.983C9.68 189.843 9.3 190.633 8.42 190.633C7.71 190.633 7.23 190.143 7.23 189.463C7.23 188.673 7.82 188.223 8.54 188.223C9.08 188.223 9.58 188.483 10.02 188.983ZM13.45 189.463C13.45 190.343 12.88 190.993 12.1 190.993C11.4 190.993 10.82 190.583 10.44 189.993C10.86 188.953 11.23 188.053 12.21 188.053C12.94 188.053 13.45 188.623 13.45 189.463ZM14.13 183.947C14.13 182.557 12.86 181.667 10.31 181.667C7.77 181.667 6.53 182.557 6.53 183.947C6.53 185.347 7.76 186.237 10.31 186.237C12.86 186.237 14.13 185.347 14.13 183.947ZM13.4 183.947C13.4 184.787 12.47 185.347 10.31 185.347C8.17 185.347 7.26 184.787 7.26 183.947C7.26 183.117 8.17 182.557 10.31 182.557C12.47 182.557 13.4 183.117 13.4 183.947Z" fill="#FF6D3B"/>
<path d="M31.13 189.993C31.13 188.603 29.86 187.713 27.31 187.713C24.77 187.713 23.53 188.603 23.53 189.993C23.53 191.393 24.76 192.283 27.31 192.283C29.86 192.283 31.13 191.393 31.13 189.993ZM30.4 189.993C30.4 190.833 29.47 191.393 27.31 191.393C25.17 191.393 24.26 190.833 24.26 189.993C24.26 189.163 25.17 188.603 27.31 188.603C29.47 188.603 30.4 189.163 30.4 189.993Z" fill="#333333"/>
<path d="M146.753 8.91C146.753 7.91 147.293 7.25 147.993 7.25C148.933 7.25 149.493 8.05 149.593 9.56C149.123 10.25 148.563 10.54 148.063 10.54C147.193 10.54 146.753 9.9 146.753 8.91ZM147.793 14.13C149.173 14.13 150.453 12.99 150.453 10.02C150.453 7.69 149.403 6.53 147.993 6.53C146.853 6.53 145.893 7.49 145.893 8.91C145.893 10.43 146.693 11.22 147.913 11.22C148.523 11.22 149.153 10.87 149.603 10.32C149.533 12.59 148.713 13.37 147.763 13.37C147.293 13.37 146.843 13.16 146.543 12.81L146.033 13.38C146.443 13.81 147.003 14.13 147.793 14.13ZM153.78 14.13C155.17 14.13 156.06 12.86 156.06 10.31C156.06 7.77 155.17 6.53 153.78 6.53C152.38 6.53 151.49 7.76 151.49 10.31C151.49 12.86 152.38 14.13 153.78 14.13ZM153.78 13.4C152.94 13.4 152.38 12.47 152.38 10.31C152.38 8.17 152.94 7.26 153.78 7.26C154.61 7.26 155.17 8.17 155.17 10.31C155.17 12.47 154.61 13.4 153.78 13.4Z" fill="#FF6D3B"/>
<path d="M146.753 25.91C146.753 24.91 147.293 24.25 147.993 24.25C148.933 24.25 149.493 25.05 149.593 26.56C149.123 27.25 148.563 27.54 148.063 27.54C147.193 27.54 146.753 26.9 146.753 25.91ZM147.793 31.13C149.173 31.13 150.453 29.99 150.453 27.02C150.453 24.69 149.403 23.53 147.993 23.53C146.853 23.53 145.893 24.49 145.893 25.91C145.893 27.43 146.693 28.22 147.913 28.22C148.523 28.22 149.153 27.87 149.603 27.32C149.533 29.59 148.713 30.37 147.763 30.37C147.293 30.37 146.843 30.16 146.543 29.81L146.033 30.38C146.443 30.81 147.003 31.13 147.793 31.13ZM153.78 31.13C155.17 31.13 156.06 29.86 156.06 27.31C156.06 24.77 155.17 23.53 153.78 23.53C152.38 23.53 151.49 24.76 151.49 27.31C151.49 29.86 152.38 31.13 153.78 31.13ZM153.78 30.4C152.94 30.4 152.38 29.47 152.38 27.31C152.38 25.17 152.94 24.26 153.78 24.26C154.61 24.26 155.17 25.17 155.17 27.31C155.17 29.47 154.61 30.4 153.78 30.4Z" fill="#333333"/>
<path d="M151 112C157.075 112 162 101.031 162 87.5C162 73.969 157.075 63 151 63" stroke="#6967F9"/>
<path d="M207.06 174.594C207.061 169.9 205.617 165.319 202.924 161.465C200.953 158.649 198.373 156.308 195.374 154.613C192.375 152.918 189.033 151.912 185.593 151.67L177.736 151.107C175.122 150.926 172.591 150.113 170.364 148.739C168.01 147.296 166.066 145.276 164.719 142.873C163.372 140.47 162.666 137.764 162.67 135.012V121.94H135.922V135.012C135.925 137.765 135.217 140.472 133.868 142.875C132.519 145.278 130.572 147.297 128.215 148.739C125.989 150.115 123.459 150.928 120.844 151.107L112.999 151.67C109.558 151.912 106.216 152.918 103.217 154.613C100.218 156.308 97.6388 158.649 95.6677 161.465C92.9744 165.319 91.5309 169.9 91.5313 174.594V190.183H207.014L207.06 174.594Z" fill="white"/>
<path d="M207.638 190.759H91V174.595C90.9936 169.793 92.4699 165.106 95.229 161.167C97.2395 158.274 99.879 155.869 102.951 154.129C106.023 152.39 109.449 151.361 112.976 151.119L120.821 150.567C123.34 150.376 125.776 149.588 127.927 148.268C130.204 146.882 132.084 144.934 133.386 142.615C134.687 140.295 135.366 137.681 135.356 135.024V121.378H163.259V135.024C163.25 137.681 163.928 140.295 165.23 142.615C166.531 144.934 168.411 146.882 170.688 148.268C172.839 149.588 175.275 150.376 177.794 150.567L185.639 151.119C189.166 151.361 192.592 152.39 195.665 154.129C198.737 155.869 201.376 158.274 203.386 161.167C206.154 165.111 207.634 169.807 207.626 174.618L207.638 190.759ZM92.1554 189.609H206.483V174.595C206.488 170.019 205.08 165.553 202.45 161.799C200.537 159.049 198.027 156.762 195.105 155.108C192.183 153.454 188.924 152.476 185.57 152.246L177.725 151.682C175.017 151.494 172.396 150.654 170.088 149.234C167.644 147.744 165.626 145.653 164.23 143.162C162.834 140.671 162.106 137.865 162.115 135.013V122.516H136.523V135.013C136.533 137.865 135.805 140.671 134.408 143.162C133.012 145.653 130.995 147.744 128.551 149.234C126.241 150.652 123.621 151.492 120.914 151.682L113.068 152.246C109.715 152.476 106.456 153.454 103.534 155.108C100.612 156.762 98.1011 159.049 96.1881 161.799C93.5525 165.55 92.1441 170.018 92.1554 174.595V189.609Z" fill="#333333"/>
<path d="M113.034 174.595C111.642 180.04 110.866 185.624 110.723 191.241L113.034 174.595Z" fill="white"/>
<path d="M113.149 173.479C112.524 176.204 112.065 178.964 111.774 181.745C111.489 184.527 111.332 187.317 111.301 190.114C111.3 190.19 111.283 190.264 111.253 190.333C111.222 190.402 111.178 190.465 111.123 190.517C111.069 190.57 111.004 190.611 110.934 190.638C110.863 190.666 110.787 190.679 110.711 190.677C110.636 190.677 110.561 190.663 110.492 190.634C110.423 190.605 110.36 190.562 110.307 190.508C110.254 190.455 110.213 190.391 110.185 190.322C110.157 190.252 110.144 190.177 110.146 190.103C110.323 187.29 110.635 184.485 111.082 181.687C111.52 178.904 112.133 176.151 112.918 173.444C112.927 173.413 112.947 173.385 112.975 173.368C113.003 173.351 113.036 173.346 113.069 173.353C113.093 173.364 113.113 173.381 113.128 173.404C113.142 173.426 113.149 173.452 113.149 173.479Z" fill="#333333"/>
<path d="M186.171 174.595C187.56 180.041 188.335 185.624 188.482 191.241L186.171 174.595Z" fill="white"/>
<path d="M186.39 173.376C187.161 176.094 187.756 178.859 188.17 181.653C188.609 184.435 188.898 187.251 189.071 190.068C189.076 190.144 189.066 190.219 189.041 190.291C189.016 190.362 188.977 190.429 188.927 190.485C188.876 190.542 188.815 190.588 188.747 190.621C188.678 190.654 188.604 190.673 188.528 190.677C188.452 190.684 188.375 190.674 188.302 190.65C188.23 190.626 188.163 190.588 188.106 190.538C188.049 190.487 188.002 190.425 187.969 190.357C187.937 190.288 187.919 190.213 187.916 190.137C187.87 187.347 187.688 184.561 187.373 181.779C187.073 179.001 186.599 176.244 185.951 173.525C185.945 173.496 185.944 173.466 185.949 173.437C185.954 173.408 185.965 173.381 185.981 173.356C185.998 173.331 186.019 173.31 186.043 173.294C186.068 173.277 186.096 173.266 186.125 173.26C186.175 173.244 186.23 173.247 186.279 173.268C186.328 173.289 186.368 173.328 186.39 173.376Z" fill="#333333"/>
<path d="M141.179 136.38C141.179 136.38 145.339 154.199 148.377 157.223L141.179 136.38Z" fill="white"/>
<path d="M141.584 136.288C142.404 139.875 143.305 143.462 144.334 147.003C144.865 148.762 145.397 150.532 146.032 152.257C146.585 153.996 147.412 155.638 148.481 157.119C148.496 157.132 148.508 157.148 148.516 157.166C148.525 157.184 148.529 157.203 148.529 157.223C148.529 157.243 148.525 157.262 148.516 157.28C148.508 157.298 148.496 157.313 148.481 157.326C148.454 157.353 148.416 157.368 148.378 157.368C148.339 157.368 148.302 157.353 148.274 157.326C147.144 155.829 146.255 154.165 145.639 152.395C144.946 150.67 144.368 148.946 143.802 147.152C142.647 143.623 141.688 140.059 140.775 136.461C140.751 136.352 140.77 136.239 140.828 136.145C140.886 136.05 140.979 135.982 141.087 135.955C141.196 135.93 141.31 135.949 141.405 136.007C141.5 136.065 141.568 136.158 141.595 136.265L141.584 136.288Z" fill="#333333"/>
<path d="M162.242 126.425C162.242 126.425 155.98 145.52 152.999 148.544L162.242 126.425Z" fill="white"/>
<path d="M162.763 126.597C161.423 130.402 160.024 134.161 158.511 137.886C157.748 139.749 156.986 141.611 156.119 143.428C155.33 145.302 154.297 147.064 153.046 148.67C153.011 148.702 152.966 148.72 152.919 148.72C152.871 148.72 152.826 148.702 152.791 148.67C152.762 148.636 152.746 148.593 152.746 148.549C152.746 148.505 152.762 148.462 152.791 148.428C153.951 146.815 154.898 145.061 155.61 143.209C156.408 141.381 157.113 139.507 157.806 137.633C159.181 133.874 160.463 130.069 161.665 126.252C161.71 126.108 161.811 125.987 161.945 125.916C162.079 125.845 162.236 125.829 162.381 125.873C162.527 125.92 162.649 126.022 162.72 126.158C162.791 126.293 162.807 126.45 162.763 126.597Z" fill="#333333"/>
<path d="M128.389 151.107L144.83 156.384C144.883 156.403 144.926 156.44 144.952 156.489C144.977 156.538 144.983 156.595 144.969 156.649C144.962 156.675 144.95 156.7 144.934 156.721C144.917 156.743 144.896 156.76 144.872 156.773C144.848 156.786 144.822 156.794 144.795 156.796C144.768 156.799 144.74 156.795 144.715 156.787L128.054 152.188C127.907 152.145 127.783 152.046 127.709 151.913C127.636 151.779 127.618 151.622 127.661 151.475C127.701 151.33 127.798 151.205 127.93 151.13C128.062 151.055 128.219 151.034 128.366 151.073L128.389 151.107Z" fill="#333333"/>
<path d="M169.637 152.211L152.976 156.81C152.952 156.818 152.928 156.822 152.903 156.82C152.878 156.818 152.853 156.811 152.831 156.799C152.809 156.787 152.79 156.771 152.775 156.751C152.76 156.73 152.75 156.708 152.745 156.683C152.734 156.638 152.741 156.589 152.765 156.549C152.789 156.508 152.827 156.478 152.872 156.465L169.302 151.153C169.374 151.128 169.45 151.118 169.526 151.123C169.602 151.128 169.677 151.149 169.744 151.183C169.812 151.217 169.873 151.265 169.922 151.323C169.971 151.381 170.008 151.449 170.03 151.521C170.077 151.666 170.065 151.824 169.996 151.959C169.926 152.095 169.805 152.198 169.66 152.245L169.637 152.211Z" fill="#333333"/>
<path d="M149.291 132.242C165.362 131.575 169.302 112.249 169.302 112.249C169.302 112.249 172.896 112.916 173.739 104.501C174.583 96.0853 170.053 98.419 170.053 98.419C170.319 74.1962 157.344 71.5867 151.775 71.5752C150.122 71.5752 148.459 71.5752 146.807 71.5752C141.226 71.5752 128.262 74.1962 128.528 98.419C128.528 98.419 124.01 96.1198 124.842 104.501C125.674 112.882 129.279 112.249 129.279 112.249C129.279 112.249 133.219 131.575 149.291 132.242Z" fill="white"/>
<path d="M149.29 132.817C134.362 132.196 129.59 115.791 128.839 112.825C128.267 112.746 127.726 112.52 127.268 112.169C125.674 111.02 124.668 108.422 124.287 104.559C123.941 101.11 124.449 98.8911 125.79 97.9829C126.11 97.7794 126.469 97.6428 126.845 97.5815C127.22 97.5203 127.604 97.5355 127.973 97.6264C127.973 87.6936 130.284 80.382 134.709 75.8869C136.302 74.3163 138.193 73.0757 140.272 72.237C142.35 71.3983 144.575 70.9783 146.818 71.0009C148.481 71.0009 150.145 71.0009 151.797 71.0009C154.042 70.9774 156.269 71.3972 158.35 72.2359C160.43 73.0746 162.323 74.3155 163.918 75.8869C168.378 80.382 170.642 87.6936 170.653 97.6264C171.021 97.5351 171.403 97.5197 171.777 97.581C172.15 97.6422 172.508 97.7791 172.826 97.9829C174.178 98.8911 174.675 101.098 174.34 104.559C173.947 108.422 172.941 110.974 171.347 112.169C170.891 112.523 170.349 112.749 169.776 112.825C169.036 115.791 164.264 132.196 149.337 132.817H149.29ZM129.729 111.583L129.845 112.135C129.845 112.319 133.877 131.001 149.29 131.679C164.692 131.012 168.69 112.33 168.736 112.135L168.84 111.583L169.406 111.686C169.874 111.693 170.327 111.525 170.677 111.215C171.578 110.514 172.734 108.778 173.161 104.444C173.554 100.512 172.699 99.305 172.167 98.9372C171.88 98.7945 171.564 98.7202 171.243 98.7202C170.922 98.7202 170.606 98.7945 170.319 98.9372L169.464 99.3739V98.4196C169.568 88.4063 167.418 81.0947 163.063 76.7031C161.574 75.2413 159.808 74.0875 157.869 73.3081C155.929 72.5287 153.855 72.1392 151.763 72.1621C150.111 72.1621 148.447 72.1621 146.794 72.1621C144.703 72.1392 142.627 72.5287 140.688 73.3081C138.748 74.0875 136.984 75.2413 135.495 76.7031C131.139 81.0947 128.978 88.4063 129.094 98.4196V99.3854L128.239 98.9372C127.952 98.7945 127.635 98.7202 127.314 98.7202C126.994 98.7202 126.677 98.7945 126.39 98.9372C125.847 99.305 125.003 100.512 125.396 104.444C125.835 108.835 127.003 110.571 127.915 111.25C128.26 111.541 128.699 111.696 129.151 111.686L129.729 111.583Z" fill="#333333"/>
<path d="M128.944 99.0863L131.07 92.4759C131.391 91.7741 131.871 91.1556 132.472 90.669C133.074 90.1823 133.78 89.8409 134.536 89.6709C135.926 89.3245 137.268 88.811 138.534 88.1418C139.789 87.503 140.92 86.6466 141.873 85.6126C142.803 84.5897 143.49 83.3716 143.883 82.0486C143.938 81.9043 144.047 81.7867 144.187 81.7203C144.327 81.6538 144.487 81.644 144.634 81.6925C144.744 81.7346 144.84 81.8061 144.912 81.8993C146.446 84.0306 148.243 85.9618 150.261 87.6475C152.249 89.3583 154.558 90.6593 157.055 91.4756C158.311 91.8523 159.613 92.0611 160.925 92.0965C162.291 92.1797 163.634 92.4866 164.9 93.0047C166.183 93.5224 167.307 94.3671 168.158 95.4536C169.006 96.5384 169.519 97.844 169.637 99.2129C169.64 99.2538 169.628 99.2943 169.602 99.3263C169.576 99.3584 169.539 99.3795 169.498 99.3853C169.459 99.3857 169.421 99.3719 169.392 99.3465C169.362 99.3212 169.343 99.2858 169.337 99.2472C169.179 97.9572 168.658 96.7379 167.835 95.7295C167.004 94.7275 165.924 93.9585 164.703 93.499C163.478 93.0443 162.186 92.7882 160.879 92.7403C159.517 92.7298 158.163 92.5483 156.847 92.2C154.229 91.4154 151.791 90.1264 149.672 88.4062C147.534 86.7363 145.617 84.805 143.964 82.658L144.992 82.4972C144.497 83.9573 143.68 85.2887 142.601 86.3943C141.539 87.4765 140.291 88.3604 138.915 89.004C137.573 89.6551 136.157 90.1415 134.698 90.4526C134.02 90.5703 133.379 90.8464 132.829 91.2581C132.279 91.6698 131.834 92.2053 131.532 92.8209L129.221 99.3622C129.216 99.3838 129.207 99.404 129.193 99.4215C129.179 99.4389 129.162 99.4531 129.142 99.463C129.122 99.4729 129.1 99.4783 129.078 99.4787C129.055 99.4792 129.034 99.4749 129.013 99.4658C128.988 99.4703 128.963 99.4698 128.938 99.4644C128.913 99.4591 128.889 99.4491 128.868 99.4347C128.826 99.4056 128.797 99.3609 128.788 99.3106C128.779 99.2603 128.79 99.2084 128.819 99.1663C128.849 99.1243 128.893 99.0955 128.944 99.0863Z" fill="#333333"/>
<path d="M140 100C140 79.5655 144.925 63 151 63" stroke="#6967F9" stroke-linecap="round"/>
<path d="M138 98.0006L140 100.001L142.001 98.0006" stroke="#6967F9" stroke-linecap="round" stroke-linejoin="round"/>
<path d="M112.258 97.4077L110 95.7031L108.295 97.9609" stroke="#FF6D3B" stroke-linecap="round" stroke-linejoin="round"/>
<path d="M189.659 98.1057L188 95.8145L185.709 97.4737" stroke="#FF6D3B" stroke-linecap="round" stroke-linejoin="round"/>
<path d="M188 96C188 102.075 170.539 107 149 107C127.461 107 110 102.075 110 96" stroke="#FF6D3B" stroke-linecap="round"/>
<path d="M181.969 112C181.969 86.0426 167.656 65 150 65C132.343 65 118.03 86.0426 118.03 112" stroke="#FABF48" stroke-linecap="round"/>
<path d="M116 111.001L118.03 113.001L120.06 111.001" stroke="#FABF48" stroke-linecap="round" stroke-linejoin="round"/>
<path d="M179.94 111.001L181.97 113.001L184 111.001" stroke="#FABF48" stroke-linecap="round" stroke-linejoin="round"/>
</svg>
