<svg width="80" height="80" viewBox="0 0 80 80" fill="none" xmlns="http://www.w3.org/2000/svg">
<path d="M70.7618 30.0642C70.7618 42.1926 63.4532 52.6394 52.9305 57.3924C51.4336 58.0683 49.8706 58.6306 48.2526 59.0632C47.9223 59.1497 47.5921 59.2362 47.2619 59.3119C47.0583 59.3606 46.8602 59.4039 46.6566 59.4471C46.4969 59.4796 46.3318 59.512 46.1722 59.5444C44.2295 59.9229 42.2207 60.123 40.1679 60.123C38.1151 60.123 36.1064 59.9229 34.1636 59.5444C34.004 59.512 33.8389 59.4796 33.6793 59.4471C33.4042 59.3876 33.129 59.3281 32.8538 59.2633C32.4686 59.1713 32.0833 59.0686 31.7036 58.9605C30.1736 58.5279 28.6987 57.9872 27.2788 57.3383C16.8222 52.5583 9.5741 42.144 9.5741 30.0642V30.0264C9.5796 24.365 11.1811 19.0659 13.9604 14.5455C15.0005 12.853 16.2113 11.2633 17.5596 9.80872C18.0825 9.24096 18.6328 8.70024 19.1942 8.17573C19.2547 8.12166 19.3097 8.06759 19.3703 8.01352C20.3334 7.13755 21.3515 6.32105 22.4192 5.57486C23.8501 4.57452 25.3691 3.68773 26.9706 2.93613C27.4109 2.73065 27.8622 2.53058 28.3134 2.34133C31.9622 0.832714 35.9633 0 40.1679 0C44.3726 0 48.3791 0.832714 52.0224 2.34133C56.1005 4.02839 59.7328 6.55897 62.6882 9.71139C64.1301 11.247 65.4069 12.9341 66.4966 14.7401C69.1383 19.1092 70.6793 24.192 70.7618 29.6208C70.7618 29.7668 70.7618 29.9128 70.7618 30.0588V30.0642Z" fill="#00BCD4"/>
<path d="M47.2178 79.7675C47.0142 79.8162 46.816 79.8594 46.6124 79.9027C46.4528 79.9351 46.2877 79.9676 46.1281 80H34.1195C33.9599 79.9676 33.7948 79.9351 33.6352 79.9027C33.36 79.8432 33.0849 79.7837 32.8097 79.7189L33.316 77.4316L33.8223 75.1551L35.3633 68.2177L35.5174 67.5255L36.1173 64.8273H43.9047L44.5046 67.5255L44.9834 69.6938L46.1942 75.1497L46.7005 77.4262L47.2178 79.7675Z" fill="#E87B41"/>
<path d="M43.9047 64.8273H36.1173L35.3633 68.2177C37.7628 69.2234 40.399 69.775 43.1672 69.775C43.7781 69.775 44.389 69.7479 44.9834 69.6938L43.9047 64.8273Z" fill="#DE5B25"/>
<path d="M49.309 77.5235C49.309 78.1778 49.0393 78.7726 48.599 79.2052C48.478 79.3241 48.3514 79.4269 48.2083 79.5188C47.8781 79.6053 47.5479 79.6918 47.2177 79.7675C47.014 79.8162 46.8159 79.8594 46.6123 79.9027H33.6351C33.3599 79.8432 33.0847 79.7837 32.8095 79.7189C32.4243 79.6269 32.0391 79.5242 31.6593 79.4161C31.0815 78.9835 30.7072 78.2968 30.7072 77.5289C30.7072 77.4965 30.7072 77.464 30.7072 77.4316C30.7347 76.8152 30.9989 76.2582 31.4117 75.8527C31.8464 75.4255 32.4518 75.1552 33.1233 75.1552H46.8874C48.1863 75.1552 49.2484 76.1663 49.3035 77.4316C49.3035 77.464 49.3035 77.4965 49.3035 77.5289L49.309 77.5235Z" fill="#DB6937"/>
<path d="M71.1084 40.4731C70.5305 39.1267 69.6995 37.9209 68.6484 36.8881C67.9824 36.2338 67.2505 35.6715 66.4525 35.2011C65.9847 34.9253 65.5004 34.682 64.994 34.4711C63.6127 33.8979 62.1433 33.6005 60.6353 33.5843C60.5968 33.5843 60.5582 33.5843 60.5197 33.5843H19.4913C19.4527 33.5843 19.4142 33.5843 19.3757 33.5843C17.8677 33.6005 16.3983 33.8979 15.0169 34.4711C14.6372 34.6279 14.2685 34.8063 13.9052 35.001C12.9752 35.5093 12.1276 36.1419 11.3626 36.8881C10.306 37.9263 9.48044 39.1321 8.90258 40.4731C8.3027 41.8682 8 43.3443 8 44.8692C8 46.394 8.3027 47.8702 8.90258 49.2653C9.08419 49.687 9.28782 50.0926 9.51897 50.4873C10.0198 51.3525 10.6417 52.1419 11.3626 52.8557C12.4193 53.8939 13.6466 54.7049 15.0114 55.2727C16.4313 55.8621 17.9338 56.1595 19.4858 56.1595H60.5142C62.0662 56.1595 63.5686 55.8621 64.9885 55.2727C66.3589 54.7049 67.5862 53.8884 68.6373 52.8557C69.4739 52.0338 70.1673 51.1091 70.7067 50.0872C70.8498 49.8222 70.9763 49.5464 71.0974 49.2707C71.6973 47.8756 72 46.3994 72 44.8746C72 43.3498 71.6973 41.8736 71.0974 40.4785L71.1084 40.4731ZM60.5252 51.9202H19.4968C15.5343 51.9202 12.3147 48.757 12.3147 44.8638C12.3147 40.9706 15.5343 37.8073 19.4968 37.8073H60.5252C64.4877 37.8073 67.7073 40.9706 67.7073 44.8638C67.7073 48.757 64.4877 51.9202 60.5252 51.9202Z" fill="#DD7243"/>
<path d="M21.0598 37.8073H60.5253C61.0096 37.8073 61.4829 37.856 61.9397 37.9479L62.1378 33.6924C61.6425 33.6221 61.1417 33.5897 60.6354 33.5843C60.5968 33.5843 60.5583 33.5843 60.5198 33.5843H20.8562L21.0543 37.8127L21.0598 37.8073Z" fill="#DE5B25"/>
<path d="M61.1526 51.8932C60.9435 51.9094 60.7344 51.9202 60.5197 51.9202H21.8523C22.1 53.391 22.5127 54.8077 23.0741 56.1487H59.9199C60.4867 54.8023 60.8995 53.3748 61.1471 51.8932H61.1526Z" fill="#DE5B25"/>
<path d="M18.5724 37.8669C18.8751 37.829 19.1833 37.8074 19.497 37.8074H59.5348L59.7329 33.5789H19.497C19.4585 33.5789 19.4199 33.5789 19.3814 33.5789C19.0457 33.5789 18.71 33.6005 18.3743 33.633L18.5724 37.8669Z" fill="#DE5B25"/>
<path d="M57.7901 56.1541C58.2855 54.8077 58.6322 53.391 58.8193 51.9257H19.4969C19.4254 51.9257 19.3593 51.9257 19.2878 51.9257C19.4694 53.3964 19.8216 54.8131 20.3169 56.1595H57.7956L57.7901 56.1541Z" fill="#DE5B25"/>
<path d="M40.0082 68.023C29.2599 68.023 20.4488 59.6418 20.1021 49.0814L19.139 28.4691H60.8774L59.9143 49.0814C59.5675 59.6363 50.7565 68.023 40.0082 68.023Z" fill="#E87B41"/>
<path d="M60.5857 34.7252L60.8774 28.4691H19.139L19.2931 31.7404L60.5857 34.7252Z" fill="#DE5B25"/>
<path d="M61.2352 30.6482H18.7869C17.7137 30.6482 16.7836 29.9074 16.5634 28.88L15.8315 25.4951C15.5343 24.1054 16.6075 22.7969 18.0549 22.7969H61.9672C63.4146 22.7969 64.4933 24.1054 64.1906 25.4951L63.4586 28.88C63.2385 29.9128 62.3084 30.6482 61.2352 30.6482Z" fill="#E87B41"/>
<path d="M42.0445 25.6682H18.7758C18.308 25.6682 17.9338 25.2951 17.9338 24.8409C17.9338 24.3812 18.3135 24.0135 18.7758 24.0135H42.0445C42.5123 24.0135 42.8866 24.3866 42.8866 24.8409C42.8866 25.3005 42.5068 25.6682 42.0445 25.6682Z" fill="white"/>
<path d="M45.9849 25.3653C46.6729 24.4785 45.6547 23.4782 44.7521 24.1541C44.0642 25.0409 45.0824 26.0412 45.9849 25.3653Z" fill="white"/>
<path d="M26.7559 38.7644C26.9815 36.0446 27.3007 34.2602 27.3007 34.2602L21.8303 34.3413C21.7202 35.8986 21.6596 37.3694 21.6376 38.759H26.7614L26.7559 38.7644Z" fill="#EF8E52"/>
<path d="M26.5411 42.6685H21.6815C22.5676 62.3994 32.7655 63.1889 32.7655 63.1889C27.2951 58.8253 26.376 49.5465 26.5411 42.6685Z" fill="#EF8E52"/>
<path d="M41.3348 36.1365L43.382 40.2082C43.6297 40.7002 44.1085 41.0463 44.6643 41.122L49.2377 41.7763C50.6356 41.9764 51.1915 43.6634 50.1789 44.6313L46.8713 47.7999C46.4695 48.1839 46.2879 48.7354 46.3815 49.2815L47.1629 53.7587C47.3996 55.1267 45.9412 56.1649 44.6919 55.5215L40.6028 53.4072C40.1075 53.1531 39.5131 53.1531 39.0178 53.4072L34.9287 55.5215C33.6794 56.1649 32.221 55.1267 32.4576 53.7587L33.2391 49.2815C33.3327 48.7408 33.1511 48.1839 32.7493 47.7999L29.4417 44.6313C28.4291 43.6634 28.9904 41.9764 30.3828 41.7763L34.9562 41.122C35.5121 41.0409 35.9909 40.7002 36.2385 40.2082L38.2858 36.1365C38.9077 34.8929 40.7129 34.8929 41.3403 36.1365H41.3348Z" fill="white"/>
<path d="M57.3496 38.4292L54.664 35.6553C54.4713 35.4552 54.1466 35.4552 53.954 35.6553L51.1858 38.4562C50.8776 38.7699 50.3382 38.5536 50.3382 38.1156V22.8456C50.3382 22.5428 50.5859 22.2994 50.8941 22.2994H57.6468C57.955 22.2994 58.2027 22.5428 58.2027 22.8456V38.094C58.2027 38.5319 57.6578 38.7482 57.3496 38.4292Z" fill="#DA2D2D"/>
<path d="M56.7224 24.219H51.5326C51.1639 24.219 50.8722 23.927 50.8722 23.5701C50.8722 23.2078 51.1694 22.9213 51.5326 22.9213H56.7224C57.0856 22.9213 57.3828 23.2133 57.3828 23.5701C57.3828 23.9324 57.0856 24.219 56.7224 24.219Z" fill="#F75959"/>
<path d="M9.10611 43.5877C9.10611 43.5877 9.0786 43.5877 9.06209 43.5877C8.83645 43.5661 8.67134 43.366 8.69886 43.1497C8.81443 42.025 9.16665 40.9382 9.75552 39.9162C10.2178 39.1051 10.8287 38.3319 11.5662 37.6181C12.821 36.4069 13.9987 35.7959 14.0482 35.7743C14.2464 35.6715 14.494 35.7472 14.5986 35.9473C14.7032 36.142 14.6261 36.3853 14.428 36.488C14.428 36.488 13.2888 37.0828 12.122 38.2129C10.5811 39.7107 9.70048 41.3978 9.51336 43.2362C9.49135 43.4417 9.31524 43.5985 9.10611 43.5985V43.5877Z" fill="white"/>
<path d="M62.0826 53.1315C61.8734 53.1315 61.6973 52.9747 61.6753 52.7638C61.6533 52.5421 61.8184 52.3474 62.044 52.3258C62.0716 52.3258 63.1888 52.2122 64.4546 51.6012C66.1386 50.7901 67.2889 49.5194 67.8667 47.8324C67.9383 47.6215 68.1694 47.5079 68.3841 47.5782C68.5987 47.6485 68.7142 47.8756 68.6427 48.0865C67.9933 49.9682 66.6614 51.439 64.7848 52.3312C63.3759 53.0017 62.1651 53.1152 62.1156 53.1207C62.1046 53.1207 62.0881 53.1207 62.0771 53.1207L62.0826 53.1315Z" fill="white"/>
<path d="M25.545 33.5303C24.0261 34.1467 22.8098 35.3417 22.1824 36.8341C22.0889 37.0612 21.7531 37.0612 21.6541 36.8341C21.0267 35.3417 19.8104 34.1467 18.2915 33.5303C18.0603 33.4383 18.0603 33.1085 18.2915 33.0166C19.8104 32.4001 21.0267 31.2051 21.6541 29.7127C21.7476 29.4856 22.0834 29.4856 22.1824 29.7127C22.8098 31.2051 24.0261 32.4001 25.545 33.0166C25.7762 33.1085 25.7762 33.4383 25.545 33.5303Z" fill="white"/>
<path d="M22.9914 40.0081H19.7499C17.7165 40.0081 16.0681 41.6277 16.0681 43.6256C16.0681 45.6234 17.7165 47.243 19.7499 47.243H22.9914C25.0249 47.243 26.6733 45.6234 26.6733 43.6256C26.6733 41.6277 25.0249 40.0081 22.9914 40.0081Z" fill="#00BCD4"/>
<path d="M60.2609 40.0081H57.0194C54.9859 40.0081 53.3375 41.6277 53.3375 43.6256C53.3375 45.6234 54.9859 47.243 57.0194 47.243H60.2609C62.2943 47.243 63.9427 45.6234 63.9427 43.6256C63.9427 41.6277 62.2943 40.0081 60.2609 40.0081Z" fill="#00BCD4"/>
<path d="M35.1652 16.8814C36.2291 16.8814 37.0915 16.0341 37.0915 14.9888C37.0915 13.9436 36.2291 13.0963 35.1652 13.0963C34.1014 13.0963 33.239 13.9436 33.239 14.9888C33.239 16.0341 34.1014 16.8814 35.1652 16.8814Z" fill="black"/>
<path d="M44.8516 16.8814C45.9154 16.8814 46.7778 16.0341 46.7778 14.9888C46.7778 13.9436 45.9154 13.0963 44.8516 13.0963C43.7878 13.0963 42.9254 13.9436 42.9254 14.9888C42.9254 16.0341 43.7878 16.8814 44.8516 16.8814Z" fill="black"/>
<path d="M44.1854 18.5143C41.8794 20.78 38.1371 20.78 35.8311 18.5143" stroke="black" stroke-width="2" stroke-linecap="round" stroke-linejoin="round"/>
</svg>
