<svg width="170" height="170" viewBox="0 0 170 170" fill="none" xmlns="http://www.w3.org/2000/svg">
<path d="M120 48.3828C120 24.9107 106.121 5.88281 89 5.88281" stroke="#FABF48" stroke-width="2" stroke-linecap="round"/>
<path d="M120.074 50.4043C119.825 49.414 118.68 47.3045 116.088 46.7894" stroke="#FABF48" stroke-width="2" stroke-linecap="round"/>
<path d="M120.199 50.3984C120.35 49.3886 121.285 47.1776 123.814 46.4127" stroke="#FABF48" stroke-width="2" stroke-linecap="round"/>
<path d="M53.17 40.3745C53.17 40.3745 56.1778 90.591 39.3364 107.429L71.8963 107.037L71.0911 40.1588L53.17 40.3745Z" fill="#0D1719"/>
<path d="M117.038 37.4384C117.038 37.4384 122.908 88.7847 141.321 111.949L99.4516 106.644L98.6464 39.7655L117.038 37.4384Z" fill="#0D1719"/>
<path d="M127.316 101.605C124.023 100.642 120.802 99.4456 117.679 98.0254L110.508 159.335C118.586 157.387 126.465 154.687 134.041 151.272C136.612 150.137 138.8 148.281 140.338 145.929C141.877 143.577 142.701 140.83 142.711 138.019V122.178C142.711 113.322 135.8 104.094 127.316 101.605Z" fill="white"/>
<path d="M102.026 88.4023L70.3185 94.0626C69.7736 94.2979 65.7725 95.9452 60.6077 98.1127L55.7773 117.757C55.7773 117.757 70.3431 127.826 101.369 123.764L111.278 94.7191C108.014 92.8898 104.918 90.776 102.026 88.4023Z" fill="white"/>
<path d="M28.1916 130.65C28.142 132.727 28.5416 134.79 29.3624 136.699C30.1833 138.608 31.4064 140.317 32.9482 141.71C34.4592 143.085 36.3047 144.646 38.497 146.281L51.7621 101.828C46.0894 104.305 40.4291 106.671 36.8991 108.269C29.7773 111.526 28.3402 123.689 28.1916 130.65Z" fill="white"/>
<path d="M111.562 94.1973C113.358 95.2253 115.377 96.2905 117.619 97.3185L111.562 94.1973Z" fill="#0D1719"/>
<path d="M111.242 94.7168L102.039 121.804C101.842 122.393 101.481 122.914 100.998 123.304C100.515 123.695 99.9308 123.94 99.3137 124.009C76.6849 126.585 63.2094 121.532 58.1189 119.055C57.4502 118.725 56.9133 118.177 56.596 117.502C56.2788 116.827 56.1998 116.065 56.3723 115.339L60.6081 98.1229L51.7651 101.839L38.5 146.291C51.2078 155.766 75.3596 167.619 110.51 159.346L117.682 98.0361C115.291 96.9338 113.137 95.8067 111.242 94.7168Z" fill="#045135"/>
<path d="M127.663 100.415C118.518 97.766 110.001 93.3008 102.62 87.2861L102.396 87.0879L70.0325 92.8597H69.9085C69.6608 92.9588 45.6448 102.905 36.4669 107.103C29.0355 110.46 27.2518 121.719 27.004 130.636C26.9529 132.891 27.3864 135.13 28.2753 137.203C29.1642 139.276 30.488 141.133 32.1567 142.65C34.0705 144.401 36.0711 146.055 38.1512 147.605C52.4402 158.064 69.7271 163.625 87.4343 163.459C95.1714 163.425 102.879 162.51 110.41 160.734C118.721 158.764 126.825 156.006 134.611 152.497C137.399 151.261 139.769 149.244 141.435 146.69C143.101 144.136 143.992 141.154 144 138.105V122.264C143.95 112.813 136.643 103.041 127.663 100.415ZM117.631 97.3186C115.376 96.2905 113.358 95.2253 111.562 94.1973L117.631 97.3186ZM142.712 138.018C142.702 140.829 141.878 143.576 140.339 145.928C138.801 148.281 136.613 150.136 134.042 151.271C126.466 154.686 118.587 157.386 110.509 159.334C75.358 167.608 51.2062 155.755 38.4984 146.28C36.3061 144.645 34.4606 143.084 32.9496 141.709C31.4078 140.316 30.1847 138.607 29.3639 136.698C28.5431 134.789 28.1435 132.726 28.193 130.649C28.3912 123.688 29.7788 111.525 36.9254 108.268C40.4305 106.67 46.0908 104.242 51.7883 101.827L60.6313 98.1113C65.7962 95.9437 69.7972 94.2964 70.3422 94.0611L102.049 88.4009C104.93 90.7727 108.014 92.8864 111.265 94.7176C113.16 95.8075 115.315 96.9345 117.705 98.0245C120.828 99.4447 124.049 100.641 127.341 101.604C135.826 104.081 142.737 113.321 142.737 122.177L142.712 138.018Z" fill="#0D1719"/>
<path d="M102.978 89.4161C106.272 94.6429 101.046 103.87 91.2982 110.026C81.5506 116.182 70.9731 116.937 67.6661 111.71C66.2417 109.444 66.4277 106.434 67.8644 103.239C69.3155 100.182 70.0602 96.8376 70.044 93.4538L69.9328 85.4773L99.9683 67.2207L102.978 89.4161Z" fill="#FFDAC7"/>
<path d="M55.0335 50.0893C54.8847 51.1068 55.1464 71.8017 58.9538 82.4827C60.3012 86.243 62.749 89.511 65.9786 91.8616C67.3875 92.9026 68.896 93.8014 70.4823 94.5447C72.6894 95.7333 75.1456 96.3843 77.6517 96.4445C80.1578 96.5047 82.6431 95.9726 84.9047 94.8914C99.6907 88.4086 106.99 77.408 108.074 64.5252C108.398 60.6467 107.909 56.7433 106.635 53.0653C105.362 49.3874 103.334 46.0161 100.681 43.1682C98.0282 40.3204 94.8092 38.0587 91.2306 36.5283C87.6521 34.9979 83.7931 34.2327 79.9014 34.2817C69.3123 34.4092 58.6035 34.8849 55.4977 47.5072C55.2972 48.3439 55.1585 49.1944 55.0826 50.0515L55.0335 50.0893Z" fill="#FFE7DA"/>
<path d="M78.2776 97.0627C75.4742 97.0461 72.7132 96.3752 70.2148 95.1036C68.5996 94.3387 67.0624 93.4197 65.6238 92.3594C62.2925 89.934 59.766 86.564 58.3723 82.686C54.6416 72.2023 54.2813 51.5208 54.4365 50.0078C54.5101 49.1178 54.6483 48.2343 54.8504 47.3644C58.157 33.9346 70.1955 33.7898 79.8557 33.6735C83.8188 33.636 87.746 34.4219 91.3895 35.9814C95.033 37.541 98.3135 39.8402 101.022 42.7335C103.755 45.637 105.842 49.0852 107.149 52.8521C108.456 56.6189 108.952 60.6193 108.605 64.5913C107.535 78.5392 99.3644 89.2157 85.1207 95.4691C82.9716 96.4597 80.6432 97.002 78.2776 97.0627ZM79.8704 34.8996C70.1483 35.0166 59.138 35.1491 56.0556 47.6472C55.8677 48.4645 55.7372 49.2938 55.6645 50.1292L55.6654 50.2036C55.5507 50.9606 55.7245 71.5946 59.5445 82.2879C60.8475 85.9364 63.2214 89.1068 66.3554 91.3844C67.7328 92.4025 69.2079 93.281 70.7592 94.007C72.8863 95.1601 75.2569 95.7923 77.6757 95.8514C80.0946 95.9106 82.4926 95.3951 84.6735 94.3474C98.4736 88.2852 106.339 77.9838 107.415 64.4942C107.758 60.6849 107.289 56.8462 106.039 53.2315C104.789 49.6168 102.787 46.3082 100.164 43.5241C97.5627 40.757 94.4141 38.5613 90.9182 37.0765C87.4224 35.5918 83.6555 34.8505 79.8577 34.8997L79.8704 34.8996Z" fill="#0D1719"/>
<path d="M106.346 71.0729C109.593 69.0508 111.943 65.8624 112.914 62.1621L117.121 46.2812C120.181 19.5759 96.4469 19.5149 96.4469 19.5149C96.4469 19.5149 74.8886 9.77834 60.8188 23.2758C49.4554 34.189 53.0797 44.0796 55.3146 47.6077C55.7322 46.1439 56.5795 44.8393 57.7468 43.8624C62.8879 38.7715 73.3145 31.2882 86.4965 36.654L106.346 71.0729Z" fill="#0D1719"/>
<path d="M64.6342 67.1345C65.7697 67.1345 66.6902 65.7149 66.6902 63.9637C66.6902 62.2126 65.7697 60.793 64.6342 60.793C63.4986 60.793 62.5781 62.2126 62.5781 63.9637C62.5781 65.7149 63.4986 67.1345 64.6342 67.1345Z" fill="#0D1719"/>
<path d="M79.5951 69.3513C80.7306 69.3513 81.6511 67.9317 81.6511 66.1805C81.6511 64.4294 80.7306 63.0098 79.5951 63.0098C78.4596 63.0098 77.5391 64.4294 77.5391 66.1805C77.5391 67.9317 78.4596 69.3513 79.5951 69.3513Z" fill="#0D1719"/>
<path d="M68.7192 74.629C68.5636 74.6301 68.4128 74.5726 68.2977 74.4679L66.5269 72.8081C66.1316 72.4383 65.8806 71.9399 65.8193 71.402C65.758 70.8642 65.8905 70.322 66.1925 69.8727L66.4029 69.5507C67.2927 68.2319 67.8283 66.7064 67.9584 65.1209C68.0885 63.5353 67.8091 61.943 67.1462 60.4968C67.0792 60.3473 67.0742 60.1772 67.1323 60.024C67.1903 59.8708 67.3066 59.7468 67.4558 59.6793C67.6057 59.6155 67.7746 59.6122 67.927 59.6699C68.0793 59.7276 68.2034 59.8418 68.2735 59.9889C69.0241 61.6265 69.3417 63.4293 69.1964 65.2249C69.0511 67.0205 68.4473 68.7488 67.4431 70.2444L67.2206 70.5664C67.0819 70.7714 67.0217 71.0195 67.0512 71.2652C67.0808 71.5109 67.1981 71.7378 67.3815 71.904L69.1401 73.5637C69.1982 73.6212 69.2442 73.6897 69.2756 73.7652C69.307 73.8407 69.3234 73.9217 69.3234 74.0035C69.3234 74.0852 69.307 74.1661 69.2756 74.2416C69.2442 74.3171 69.1982 74.3856 69.1401 74.4432C69.0281 74.5558 68.878 74.6222 68.7192 74.629Z" fill="#0D1719"/>
<path d="M66.7368 59.0592C66.5695 59.0588 66.4093 58.992 66.2911 58.8734C65.6989 58.2733 64.9198 57.8925 64.0825 57.7934C63.2452 57.6944 62.3992 57.8831 61.6834 58.3285C61.5415 58.4115 61.373 58.4359 61.2134 58.3966C61.0539 58.3572 60.9159 58.2573 60.8288 58.1179C60.7458 57.9761 60.7212 57.8074 60.7605 57.6478C60.7998 57.4883 60.8999 57.3504 61.0393 57.2634C61.999 56.6573 63.1378 56.3992 64.2651 56.5322C65.3924 56.6652 66.4398 57.1813 67.2322 57.9941C67.2902 58.0517 67.3362 58.1202 67.3676 58.1956C67.3991 58.2711 67.4154 58.352 67.4154 58.4338C67.4154 58.5155 67.3991 58.5964 67.3676 58.6719C67.3362 58.7473 67.2902 58.8159 67.2322 58.8734C67.1684 58.9391 67.091 58.9898 67.0054 59.0219C66.9197 59.054 66.828 59.0668 66.7368 59.0592Z" fill="#0D1719"/>
<path d="M82.9126 59.6908C82.7477 59.69 82.5891 59.6282 82.4669 59.5174C81.8762 58.9154 81.098 58.5322 80.2607 58.431C79.4233 58.3297 78.5764 58.5163 77.8591 58.9601C77.79 59.0034 77.7133 59.0326 77.6329 59.046C77.5526 59.0595 77.4698 59.0569 77.3904 59.0384C77.311 59.02 77.2366 58.9861 77.1703 58.9387C77.104 58.8912 77.0476 58.8311 77.0046 58.7619C76.9216 58.6201 76.8969 58.4514 76.9362 58.2919C76.9756 58.1323 77.0757 57.9944 77.2151 57.9074C78.1688 57.3172 79.2946 57.0681 80.4083 57.2008C81.522 57.3336 82.5579 57.8403 83.3462 58.6381C83.4605 58.7559 83.5241 58.9136 83.5241 59.0778C83.5241 59.2419 83.4605 59.3996 83.3462 59.5174C83.2273 59.6254 83.0733 59.687 82.9126 59.6908Z" fill="#0D1719"/>
<path d="M74.1703 80.3512C73.5145 80.3534 72.8646 80.2252 72.2587 79.9743C71.6527 79.7234 71.1026 79.3548 70.6403 78.8896C70.5822 78.8321 70.5362 78.7636 70.5048 78.6881C70.4734 78.6126 70.457 78.5317 70.457 78.45C70.457 78.3682 70.4734 78.2873 70.5048 78.2118C70.5362 78.1364 70.5822 78.0679 70.6403 78.0103C70.7581 77.896 70.9158 77.832 71.0799 77.832C71.2441 77.832 71.4018 77.896 71.5196 78.0103C72.1103 78.6123 72.8885 78.9955 73.7258 79.0968C74.5632 79.1981 75.4102 79.0114 76.1274 78.5676C76.2678 78.4835 76.4355 78.4571 76.5949 78.4941C76.7543 78.5311 76.8929 78.6285 76.9819 78.7658C77.0649 78.9077 77.0896 79.0763 77.0503 79.2359C77.011 79.3954 76.9108 79.5333 76.7715 79.6203C75.9889 80.1002 75.0883 80.3533 74.1703 80.3512Z" fill="#F66D62"/>
<path d="M72.4099 48.7966C82.5592 44.4508 89.0429 36.8547 86.8916 31.8304C84.7402 26.8061 74.7684 26.2561 64.6192 30.6019C54.4699 34.9477 47.9862 42.5437 50.1375 47.568C52.2889 52.5923 62.2607 53.1423 72.4099 48.7966Z" fill="#0D1719"/>
<path d="M100.662 62.1257C105.66 59.914 106.839 51.6303 103.296 43.6234C99.7531 35.6165 92.8294 30.9184 87.8313 33.13C82.8332 35.3417 81.6535 43.6257 85.1967 51.6326C88.7398 59.6395 95.6641 64.3374 100.662 62.1257Z" fill="#0D1719"/>
<path d="M100.6 62.0378C102.24 58.3021 103.308 54.4246 107.71 56.8985C109.23 57.6709 110.398 58.9956 110.972 60.6009C111.546 62.2063 111.485 63.9706 110.8 65.532C109.072 69.1573 106.127 73.4661 102.31 70.2544C101.188 69.2445 100.418 67.9033 100.111 66.4258C99.8034 64.9482 99.9747 63.4112 100.6 62.0378Z" fill="#FFE7DA"/>
<path d="M58 48.3828C58 24.9107 71.8792 5.88281 89 5.88281" stroke="#FABF48" stroke-width="2" stroke-linecap="round"/>
<path d="M57.9258 50.4043C58.1746 49.414 59.3201 47.3045 61.9116 46.7894" stroke="#FABF48" stroke-width="2" stroke-linecap="round"/>
<path d="M57.8008 50.3984C57.6496 49.3886 56.7149 47.1776 54.1859 46.4127" stroke="#FABF48" stroke-width="2" stroke-linecap="round"/>
<path d="M116 91.8828V110.383" stroke="#62FFD0" stroke-width="2" stroke-linecap="round"/>
<path d="M115.805 89.8828C115.604 90.8841 114.563 93.0469 112 93.6877" stroke="#62FFD0" stroke-width="2" stroke-linecap="round"/>
<path d="M115.93 89.8828C116.13 90.8841 117.171 93.0469 119.735 93.6877" stroke="#62FFD0" stroke-width="2" stroke-linecap="round"/>
<path d="M55.7344 108.383L55.7344 89.8828" stroke="#62FFD0" stroke-width="2" stroke-linecap="round"/>
<path d="M55.9297 110.383C56.1299 109.382 57.1713 107.219 59.7346 106.578" stroke="#62FFD0" stroke-width="2" stroke-linecap="round"/>
<path d="M55.8047 110.383C55.6044 109.382 54.5631 107.219 51.9998 106.578" stroke="#62FFD0" stroke-width="2" stroke-linecap="round"/>
<path d="M133.102 50.892C136.501 34.3938 116.416 16.314 88.2415 10.5097C60.0667 4.70534 34.4713 13.3745 31.0724 29.8727" stroke="#FF6D3B" stroke-width="2" stroke-linecap="round"/>
<path d="M132.926 53.4043C133.175 52.414 134.32 50.3045 136.912 49.7894" stroke="#FF6D3B" stroke-width="2" stroke-linecap="round"/>
<path d="M132.801 53.3984C132.65 52.3886 131.715 50.1776 129.186 49.4127" stroke="#FF6D3B" stroke-width="2" stroke-linecap="round"/>
<path d="M30.9258 32.4043C31.1746 31.414 32.3201 29.3045 34.9116 28.7894" stroke="#FF6D3B" stroke-width="2" stroke-linecap="round"/>
<path d="M30.8008 32.3984C30.6496 31.3886 29.7149 29.1776 27.1859 28.4127" stroke="#FF6D3B" stroke-width="2" stroke-linecap="round"/>
<path d="M44.7288 45.9551C32.1378 46.4672 23.982 48.6212 23.4661 52.2348C22.638 58.0348 41.7572 65.7324 68.3136 70.8964M132.805 59.61C141.759 63.1001 146.956 66.7197 146.516 69.803C145.668 75.7439 124.171 77.7396 96.2642 74.9806" stroke="#6967F9" stroke-width="2" stroke-linecap="round" stroke-linejoin="round"/>
<path d="M70.1797 71.2461C69.4493 70.9241 67.9744 69.7638 67.9184 67.6991" stroke="#6967F9" stroke-width="2" stroke-linecap="round"/>
<path d="M70.1602 71.3418C69.3621 71.3255 67.5354 71.7549 66.6132 73.6031" stroke="#6967F9" stroke-width="2" stroke-linecap="round"/>
<path d="M133.098 59.6113C133.791 60.0068 135.139 61.3125 134.982 63.3721" stroke="#6967F9" stroke-width="2" stroke-linecap="round"/>
<path d="M133.129 59.5176C133.921 59.6159 135.782 59.3766 136.89 57.633" stroke="#6967F9" stroke-width="2" stroke-linecap="round"/>
<path d="M23 128L146 144" stroke="#1EACFC" stroke-width="2" stroke-linecap="round"/>
<path d="M148.754 144.387C147.799 144.026 145.835 142.645 145.621 140.012" stroke="#1EACFC" stroke-width="2" stroke-linecap="round"/>
<path d="M148.734 144.51C147.714 144.544 145.41 145.218 144.359 147.642" stroke="#1EACFC" stroke-width="2" stroke-linecap="round"/>
<path d="M19.7773 127.275C20.7167 127.676 22.6215 129.136 22.7258 131.777" stroke="#1EACFC" stroke-width="2" stroke-linecap="round"/>
<path d="M19.8008 127.152C20.8219 127.161 23.1516 126.582 24.302 124.204" stroke="#1EACFC" stroke-width="2" stroke-linecap="round"/>
</svg>
