<svg width="299" height="198" viewBox="0 0 299 198" fill="none" xmlns="http://www.w3.org/2000/svg">
<path d="M151 46.2402L151 189.85" stroke="#DDDDDD" stroke-miterlimit="10" stroke-linecap="round"/>
<path d="M206.688 93.2207L198.934 106.752" stroke="#DDDDDD" stroke-miterlimit="10"/>
<path d="M94.1641 92.25L101.911 105.774" stroke="#DDDDDD" stroke-miterlimit="10"/>
<path d="M52.7188 133.799L66.138 141.614" stroke="#DDDDDD" stroke-miterlimit="10"/>
<path d="M37 189.9H262" stroke="#DDDDDD" stroke-miterlimit="10"/>
<path d="M247.454 135.197L234.035 143.005" stroke="#DDDDDD" stroke-miterlimit="10"/>
<path d="M147 49.2734L151 45.2281L155 49.2734" stroke="#DDDDDD" stroke-linecap="round" stroke-linejoin="round"/>
<path d="M41 193.895L37 189.849L41 185.804" stroke="#DDDDDD" stroke-linecap="round" stroke-linejoin="round"/>
<path d="M258 185.803L262 189.848L258 193.893" stroke="#DDDDDD" stroke-linecap="round" stroke-linejoin="round"/>
<path d="M284.87 190.007C284.87 191.397 286.14 192.287 288.69 192.287C291.23 192.287 292.47 191.397 292.47 190.007C292.47 188.607 291.24 187.717 288.69 187.717C286.14 187.717 284.87 188.607 284.87 190.007ZM285.6 190.007C285.6 189.167 286.53 188.607 288.69 188.607C290.83 188.607 291.74 189.167 291.74 190.007C291.74 190.837 290.83 191.397 288.69 191.397C286.53 191.397 285.6 190.837 285.6 190.007Z" fill="#FF6D3B"/>
<path d="M268 182.06L268 186.08L268.76 186.08L268.76 184.61L275.34 184.61L275.34 183.91C275.1 183.51 274.93 183.04 274.81 182.39L274.23 182.39L274.23 183.69L268.76 183.69L268.76 182.06L268 182.06ZM267.87 189.517C267.87 190.897 268.7 191.817 269.77 191.817C270.77 191.817 271.32 191.217 271.69 190.577L271.74 190.577C272.08 191.017 272.74 191.557 273.51 191.557C274.64 191.557 275.44 190.797 275.44 189.547C275.44 188.407 274.7 187.537 273.58 187.537C272.81 187.537 272.26 187.987 271.89 188.527L271.84 188.527C271.48 187.857 270.8 187.177 269.82 187.177C268.69 187.177 267.87 188.167 267.87 189.517ZM271.98 190.017C272.32 189.157 272.7 188.367 273.58 188.367C274.29 188.367 274.77 188.857 274.77 189.537C274.77 190.327 274.18 190.777 273.46 190.777C272.92 190.777 272.42 190.517 271.98 190.017ZM268.55 189.537C268.55 188.657 269.12 188.007 269.9 188.007C270.6 188.007 271.18 188.417 271.56 189.007C271.14 190.047 270.77 190.947 269.79 190.947C269.06 190.947 268.55 190.377 268.55 189.537ZM267.87 195.053C267.87 196.443 269.14 197.333 271.69 197.333C274.23 197.333 275.47 196.443 275.47 195.053C275.47 193.653 274.24 192.763 271.69 192.763C269.14 192.763 267.87 193.653 267.87 195.053ZM268.6 195.053C268.6 194.213 269.53 193.653 271.69 193.653C273.83 193.653 274.74 194.213 274.74 195.053C274.74 195.883 273.83 196.443 271.69 196.443C269.53 196.443 268.6 195.883 268.6 195.053Z" fill="#333333"/>
<path d="M14 196.94L14 192.92L13.24 192.92L13.24 194.39L6.66 194.39L6.66 195.09C6.9 195.49 7.07 195.96 7.19 196.61L7.77 196.61L7.77 195.31L13.24 195.31L13.24 196.94L14 196.94ZM14.13 189.483C14.13 188.103 13.3 187.183 12.23 187.183C11.23 187.183 10.68 187.783 10.31 188.423L10.26 188.423C9.92 187.983 9.26 187.443 8.49 187.443C7.36 187.443 6.56 188.203 6.56 189.453C6.56 190.593 7.3 191.463 8.42 191.463C9.19 191.463 9.74 191.013 10.11 190.473L10.16 190.473C10.52 191.143 11.2 191.823 12.18 191.823C13.31 191.823 14.13 190.833 14.13 189.483ZM10.02 188.983C9.68 189.843 9.3 190.633 8.42 190.633C7.71 190.633 7.23 190.143 7.23 189.463C7.23 188.673 7.82 188.223 8.54 188.223C9.08 188.223 9.58 188.483 10.02 188.983ZM13.45 189.463C13.45 190.343 12.88 190.993 12.1 190.993C11.4 190.993 10.82 190.583 10.44 189.993C10.86 188.953 11.23 188.053 12.21 188.053C12.94 188.053 13.45 188.623 13.45 189.463ZM14.13 183.947C14.13 182.557 12.86 181.667 10.31 181.667C7.77 181.667 6.53 182.557 6.53 183.947C6.53 185.347 7.76 186.237 10.31 186.237C12.86 186.237 14.13 185.347 14.13 183.947ZM13.4 183.947C13.4 184.787 12.47 185.347 10.31 185.347C8.17 185.347 7.26 184.787 7.26 183.947C7.26 183.117 8.17 182.557 10.31 182.557C12.47 182.557 13.4 183.117 13.4 183.947Z" fill="#FF6D3B"/>
<path d="M31.13 189.993C31.13 188.603 29.86 187.713 27.31 187.713C24.77 187.713 23.53 188.603 23.53 189.993C23.53 191.393 24.76 192.283 27.31 192.283C29.86 192.283 31.13 191.393 31.13 189.993ZM30.4 189.993C30.4 190.833 29.47 191.393 27.31 191.393C25.17 191.393 24.26 190.833 24.26 189.993C24.26 189.163 25.17 188.603 27.31 188.603C29.47 188.603 30.4 189.163 30.4 189.993Z" fill="#333333"/>
<path d="M146.753 8.91C146.753 7.91 147.293 7.25 147.993 7.25C148.933 7.25 149.493 8.05 149.593 9.56C149.123 10.25 148.563 10.54 148.063 10.54C147.193 10.54 146.753 9.9 146.753 8.91ZM147.793 14.13C149.173 14.13 150.453 12.99 150.453 10.02C150.453 7.69 149.403 6.53 147.993 6.53C146.853 6.53 145.893 7.49 145.893 8.91C145.893 10.43 146.693 11.22 147.913 11.22C148.523 11.22 149.153 10.87 149.603 10.32C149.533 12.59 148.713 13.37 147.763 13.37C147.293 13.37 146.843 13.16 146.543 12.81L146.033 13.38C146.443 13.81 147.003 14.13 147.793 14.13ZM153.78 14.13C155.17 14.13 156.06 12.86 156.06 10.31C156.06 7.77 155.17 6.53 153.78 6.53C152.38 6.53 151.49 7.76 151.49 10.31C151.49 12.86 152.38 14.13 153.78 14.13ZM153.78 13.4C152.94 13.4 152.38 12.47 152.38 10.31C152.38 8.17 152.94 7.26 153.78 7.26C154.61 7.26 155.17 8.17 155.17 10.31C155.17 12.47 154.61 13.4 153.78 13.4Z" fill="#FF6D3B"/>
<path d="M146.753 25.91C146.753 24.91 147.293 24.25 147.993 24.25C148.933 24.25 149.493 25.05 149.593 26.56C149.123 27.25 148.563 27.54 148.063 27.54C147.193 27.54 146.753 26.9 146.753 25.91ZM147.793 31.13C149.173 31.13 150.453 29.99 150.453 27.02C150.453 24.69 149.403 23.53 147.993 23.53C146.853 23.53 145.893 24.49 145.893 25.91C145.893 27.43 146.693 28.22 147.913 28.22C148.523 28.22 149.153 27.87 149.603 27.32C149.533 29.59 148.713 30.37 147.763 30.37C147.293 30.37 146.843 30.16 146.543 29.81L146.033 30.38C146.443 30.81 147.003 31.13 147.793 31.13ZM153.78 31.13C155.17 31.13 156.06 29.86 156.06 27.31C156.06 24.77 155.17 23.53 153.78 23.53C152.38 23.53 151.49 24.76 151.49 27.31C151.49 29.86 152.38 31.13 153.78 31.13ZM153.78 30.4C152.94 30.4 152.38 29.47 152.38 27.31C152.38 25.17 152.94 24.26 153.78 24.26C154.61 24.26 155.17 25.17 155.17 27.31C155.17 29.47 154.61 30.4 153.78 30.4Z" fill="#333333"/>
<path d="M151 112C157.075 112 162 101.031 162 87.5C162 73.969 157.075 63 151 63" stroke="#6967F9"/>
<path d="M152.468 134.667C159.691 134.419 166.698 132.152 172.687 128.126C173.58 127.494 174.334 126.688 174.904 125.757C175.474 124.826 175.848 123.79 176.003 122.711C181.954 81.1977 163.895 70.8624 155.98 68.3562C154.267 67.827 152.482 67.5634 150.688 67.5746H149.856C147.892 67.5687 145.941 67.8834 144.079 68.5058C135.991 71.2765 118.66 82.0025 124.53 122.711C124.685 123.79 125.059 124.826 125.629 125.757C126.199 126.688 126.954 127.494 127.846 128.126C133.835 132.152 140.842 134.419 148.066 134.667H152.468Z" fill="white"/>
<path d="M152.466 135.243H148.041C140.697 134.999 133.572 132.696 127.486 128.598C126.532 127.919 125.725 127.054 125.116 126.057C124.506 125.059 124.106 123.948 123.939 122.792C118.012 81.4055 135.909 70.6795 143.87 67.9663C145.794 67.3201 147.812 66.9938 149.843 67.0005H150.675C152.527 66.9861 154.371 67.2575 156.14 67.8052C164.228 70.3919 182.565 80.9227 176.556 122.792C176.39 123.948 175.99 125.059 175.38 126.057C174.771 127.054 173.964 127.919 173.009 128.598C166.934 132.691 159.822 134.994 152.489 135.243H152.466ZM149.855 68.1502C147.953 68.1403 146.063 68.4473 144.263 69.0584C121.155 76.922 123.154 109.135 125.095 122.632C125.238 123.633 125.585 124.594 126.113 125.457C126.641 126.321 127.34 127.069 128.168 127.655C134.062 131.632 140.969 133.864 148.087 134.093H152.454C159.564 133.86 166.463 131.628 172.351 127.655C173.178 127.069 173.878 126.321 174.406 125.457C174.934 124.594 175.281 123.633 175.424 122.632C181.305 81.6356 163.662 71.4038 155.782 68.9091C154.126 68.3934 152.399 68.1372 150.664 68.1502H149.855Z" fill="#333333"/>
<path d="M207.06 174.755C207.061 170.061 205.617 165.48 202.924 161.626C200.953 158.81 198.373 156.469 195.374 154.774C192.375 153.079 189.033 152.074 185.593 151.831L177.736 151.268C175.122 151.087 172.591 150.274 170.364 148.9C168.01 147.457 166.066 145.438 164.719 143.034C163.372 140.631 162.666 137.925 162.67 135.173V122.102H135.922V135.173C135.924 137.926 135.217 140.633 133.868 143.036C132.519 145.44 130.572 147.458 128.215 148.9C125.988 150.274 123.458 151.087 120.844 151.268L112.999 151.831C109.558 152.074 106.216 153.079 103.217 154.774C100.218 156.469 97.6388 158.81 95.6677 161.626C92.9704 165.478 91.5265 170.061 91.5313 174.755V190.344H207.014L207.06 174.755Z" fill="white"/>
<path d="M207.638 190.919H91.0001V174.755C90.9881 169.946 92.4648 165.25 95.229 161.304C97.2413 158.413 99.8811 156.009 102.953 154.27C106.025 152.531 109.45 151.501 112.976 151.257L120.833 150.705C123.352 150.514 125.788 149.725 127.939 148.406C130.214 147.017 132.093 145.07 133.394 142.751C134.695 140.431 135.375 137.818 135.367 135.162V121.516H163.271V135.162C163.262 137.818 163.94 140.432 165.242 142.752C166.543 145.072 168.422 147.019 170.7 148.406C172.85 149.725 175.286 150.514 177.805 150.705L185.651 151.257C189.177 151.499 192.604 152.527 195.676 154.267C198.748 156.006 201.388 158.412 203.398 161.304C206.166 165.249 207.646 169.945 207.638 174.755V190.919ZM92.1555 189.769H206.483V174.755C206.488 170.18 205.08 165.713 202.45 161.96C200.537 159.21 198.026 156.923 195.104 155.27C192.182 153.616 188.924 152.637 185.57 152.406L177.725 151.843C175.017 151.655 172.396 150.814 170.088 149.394C167.644 147.904 165.626 145.813 164.23 143.322C162.834 140.832 162.106 138.025 162.116 135.173V122.676H136.488V135.173C136.498 138.025 135.77 140.832 134.373 143.322C132.977 145.813 130.96 147.904 128.516 149.394C126.207 150.813 123.586 151.653 120.879 151.843L113.034 152.406C109.68 152.636 106.421 153.615 103.499 155.269C100.577 156.922 98.0662 159.209 96.1531 161.96C93.5176 165.71 92.1097 170.179 92.1211 174.755L92.1555 189.769Z" fill="#333333"/>
<path d="M113.033 174.758C111.644 180.204 110.869 185.787 110.723 191.405L113.033 174.758Z" fill="white"/>
<path d="M113.148 173.641C112.523 176.366 112.064 179.127 111.773 181.907C111.488 184.689 111.327 187.479 111.288 190.276C111.288 190.351 111.273 190.426 111.244 190.495C111.215 190.564 111.172 190.627 111.118 190.679C111.065 190.731 111.001 190.773 110.931 190.8C110.861 190.828 110.786 190.841 110.711 190.84C110.557 190.84 110.41 190.779 110.302 190.671C110.194 190.564 110.133 190.417 110.133 190.265C110.31 187.452 110.622 184.647 111.069 181.85C111.508 179.068 112.118 176.315 112.894 173.607C112.905 173.574 112.928 173.547 112.958 173.53C112.987 173.513 113.023 173.508 113.056 173.515C113.082 173.526 113.104 173.543 113.12 173.565C113.136 173.588 113.146 173.614 113.148 173.641Z" fill="#333333"/>
<path d="M186.172 174.758C187.564 180.204 188.339 185.787 188.483 191.405L186.172 174.758Z" fill="white"/>
<path d="M186.391 173.537C187.162 176.256 187.756 179.02 188.17 181.815C188.609 184.597 188.898 187.413 189.06 190.23C189.066 190.306 189.057 190.382 189.033 190.454C189.008 190.526 188.97 190.593 188.919 190.65C188.869 190.707 188.807 190.753 188.738 190.785C188.668 190.818 188.593 190.836 188.516 190.839C188.441 190.844 188.366 190.833 188.295 190.809C188.224 190.784 188.158 190.745 188.102 190.695C188.046 190.644 188.001 190.583 187.969 190.515C187.937 190.447 187.919 190.374 187.916 190.299C187.869 187.509 187.689 184.723 187.373 181.941C187.074 179.162 186.599 176.406 185.952 173.687C185.945 173.659 185.943 173.63 185.948 173.601C185.952 173.573 185.962 173.546 185.977 173.521C185.992 173.496 186.012 173.475 186.035 173.458C186.059 173.441 186.086 173.429 186.114 173.422C186.166 173.403 186.224 173.404 186.275 173.425C186.327 173.446 186.368 173.487 186.391 173.537Z" fill="#333333"/>
<path d="M141.18 136.543C141.18 136.543 145.339 154.362 148.378 157.386L141.18 136.543Z" fill="white"/>
<path d="M141.585 136.449C142.394 140.036 143.307 143.623 144.335 147.164C144.855 148.923 145.398 150.693 146.033 152.418C146.586 154.157 147.413 155.799 148.483 157.281C148.497 157.294 148.509 157.309 148.518 157.327C148.526 157.345 148.529 157.365 148.529 157.384C148.529 157.404 148.526 157.423 148.518 157.441C148.509 157.459 148.497 157.475 148.483 157.487C148.455 157.514 148.418 157.529 148.379 157.529C148.34 157.529 148.303 157.514 148.275 157.487C147.14 155.992 146.251 154.328 145.64 152.556C144.947 150.831 144.37 149.107 143.803 147.313C142.648 143.784 141.689 140.22 140.776 136.622C140.752 136.514 140.77 136.4 140.829 136.306C140.887 136.211 140.98 136.143 141.088 136.116C141.197 136.092 141.311 136.11 141.406 136.168C141.501 136.226 141.569 136.319 141.596 136.426L141.585 136.449Z" fill="#333333"/>
<path d="M162.208 126.586C162.208 126.586 155.946 145.681 152.965 148.705L162.208 126.586Z" fill="white"/>
<path d="M162.763 126.76C161.423 130.565 160.024 134.324 158.511 138.049C157.748 139.912 156.974 141.774 156.119 143.591C155.33 145.465 154.297 147.227 153.046 148.833C153.011 148.865 152.966 148.883 152.919 148.883C152.871 148.883 152.826 148.865 152.791 148.833C152.762 148.799 152.746 148.756 152.746 148.712C152.746 148.668 152.762 148.625 152.791 148.591C153.951 146.979 154.898 145.224 155.61 143.372C156.396 141.544 157.113 139.67 157.806 137.796C159.181 134.037 160.463 130.232 161.665 126.415C161.71 126.271 161.811 126.15 161.945 126.079C162.079 126.008 162.236 125.992 162.381 126.036C162.527 126.083 162.649 126.186 162.72 126.321C162.791 126.456 162.807 126.613 162.763 126.76Z" fill="#333333"/>
<path d="M128.401 151.27L144.843 156.547C144.895 156.566 144.939 156.603 144.965 156.652C144.99 156.701 144.996 156.758 144.982 156.812C144.975 156.838 144.963 156.863 144.947 156.884C144.93 156.906 144.909 156.923 144.885 156.936C144.861 156.949 144.834 156.957 144.807 156.959C144.78 156.962 144.753 156.958 144.727 156.95L128.066 152.351C127.92 152.306 127.797 152.207 127.722 152.074C127.647 151.942 127.625 151.786 127.662 151.638C127.707 151.493 127.807 151.371 127.94 151.296C128.073 151.221 128.23 151.2 128.378 151.236L128.401 151.27Z" fill="#333333"/>
<path d="M169.638 152.373L152.978 156.972C152.954 156.98 152.929 156.984 152.904 156.982C152.879 156.98 152.855 156.973 152.833 156.961C152.811 156.949 152.792 156.933 152.777 156.913C152.762 156.892 152.751 156.87 152.746 156.845C152.739 156.823 152.737 156.8 152.739 156.777C152.741 156.754 152.747 156.732 152.758 156.712C152.769 156.691 152.784 156.673 152.802 156.659C152.819 156.644 152.84 156.633 152.862 156.627L169.303 151.315C169.449 151.268 169.607 151.28 169.744 151.349C169.88 151.418 169.984 151.539 170.031 151.683C170.078 151.828 170.067 151.986 169.997 152.121C169.928 152.257 169.807 152.36 169.662 152.407L169.638 152.373Z" fill="#333333"/>
<path d="M164.818 127.335C172.906 79.9012 148.238 80.0508 148.238 80.0508C148.238 80.0508 146.158 88.0983 138.521 90.4666C136.835 90.9546 135.297 91.8473 134.04 93.0662C132.782 94.285 131.845 95.7924 131.311 97.4562C130.156 101.169 129.567 105.665 131.855 108.516C130.644 107.397 129.715 106.011 129.141 104.469C128.567 102.928 128.364 101.274 128.55 99.6406C128.55 99.6406 124.032 97.3411 124.864 105.722C125.696 114.103 129.301 113.471 129.301 113.471C129.301 113.471 133.241 132.796 149.313 133.463C156.904 133.152 161.779 128.68 164.818 124.047" fill="white"/>
<path d="M164.726 127.322C165.481 122.714 165.955 118.065 166.147 113.4C166.37 108.751 166.064 104.092 165.234 99.5122C164.473 94.9506 162.623 90.6375 159.838 86.9353C158.415 85.1486 156.657 83.6533 154.662 82.5321C152.701 81.4133 150.507 80.7603 148.25 80.6238L148.816 80.1868C147.873 83.2291 146.11 85.9566 143.72 88.0734C142.513 89.1026 141.138 89.9189 139.654 90.4874L138.498 90.8784C138.14 90.9819 137.793 91.1084 137.447 91.2464C136.763 91.5348 136.109 91.889 135.494 92.304C134.252 93.1366 133.211 94.2319 132.444 95.5115C131.716 96.8336 131.202 98.2611 130.919 99.7421C130.562 101.213 130.41 102.725 130.468 104.237C130.518 105.746 131.016 107.206 131.9 108.433C131.92 108.458 131.931 108.488 131.931 108.52C131.931 108.551 131.92 108.581 131.9 108.606C131.878 108.62 131.852 108.628 131.825 108.628C131.799 108.628 131.773 108.62 131.75 108.606C131.097 108.084 130.521 107.473 130.04 106.789C129.569 106.106 129.181 105.368 128.885 104.594C128.562 103.81 128.329 102.992 128.192 102.156C128.055 101.317 127.994 100.466 128.007 99.6158L128.319 100.168C128.056 100.032 127.766 99.9564 127.471 99.9464C127.175 99.9365 126.881 99.9923 126.609 100.11C126.351 100.284 126.131 100.508 125.962 100.769C125.793 101.03 125.679 101.322 125.627 101.628C125.343 103.083 125.307 104.575 125.523 106.042C125.647 107.541 125.994 109.013 126.551 110.411C126.82 111.069 127.212 111.669 127.706 112.181C127.927 112.416 128.189 112.607 128.48 112.745C128.725 112.863 128.994 112.922 129.266 112.917C129.408 112.902 129.549 112.94 129.664 113.023C129.779 113.105 129.86 113.227 129.89 113.365C130.47 115.782 131.319 118.126 132.421 120.355C133.495 122.595 134.859 124.686 136.476 126.575C138.097 128.428 140.058 129.957 142.253 131.081L143.94 131.829C144.518 132.036 145.095 132.173 145.708 132.334L146.597 132.576L147.51 132.691L149.347 132.898C152.413 132.789 155.396 131.873 157.99 130.242C160.563 128.551 162.749 126.337 164.402 123.747C164.485 123.619 164.616 123.529 164.765 123.496C164.915 123.464 165.071 123.492 165.2 123.574C165.327 123.66 165.415 123.793 165.446 123.944C165.476 124.094 165.446 124.25 165.361 124.379C163.624 127.106 161.324 129.433 158.614 131.208C155.84 132.954 152.65 133.934 149.37 134.047L147.418 133.829L146.447 133.714L145.5 133.45C144.864 133.277 144.229 133.128 143.605 132.909L141.803 132.116C139.474 130.919 137.393 129.296 135.667 127.333C133.978 125.37 132.556 123.194 131.438 120.861C130.295 118.544 129.415 116.107 128.816 113.595L129.498 114.044C129.013 114.08 128.526 114.004 128.075 113.823C127.624 113.641 127.221 113.359 126.898 112.997C126.308 112.38 125.845 111.654 125.534 110.859C124.92 109.365 124.531 107.788 124.379 106.18C124.145 104.568 124.188 102.927 124.506 101.329C124.599 100.872 124.785 100.439 125.051 100.056C125.317 99.6726 125.659 99.3469 126.055 99.0985C126.494 98.864 126.99 98.7564 127.487 98.7881C127.961 98.8167 128.424 98.9376 128.851 99.1442C128.951 99.1892 129.036 99.2645 129.091 99.3592C129.147 99.454 129.172 99.5638 129.163 99.6733C129.09 100.438 129.09 101.208 129.163 101.973C129.214 102.753 129.357 103.525 129.59 104.272C130.036 105.81 130.867 107.21 132.005 108.341L131.832 108.514C130.88 107.263 130.324 105.758 130.237 104.191C130.13 102.65 130.243 101.102 130.572 99.5928C130.831 98.0537 131.331 96.5642 132.051 95.1781C132.835 93.8119 133.912 92.6344 135.205 91.7291C135.85 91.2783 136.539 90.8931 137.262 90.5795C137.631 90.4186 138.001 90.2808 138.417 90.1543L139.469 89.7633C140.843 89.1909 142.112 88.3943 143.224 87.4065C145.416 85.3732 147.013 82.7868 147.845 79.9224C147.879 79.8061 147.951 79.7044 148.049 79.6335C148.147 79.5627 148.267 79.527 148.388 79.5317C150.813 79.7559 153.163 80.4858 155.286 81.6743C157.408 82.8628 159.254 84.4832 160.705 86.4295C163.51 90.2828 165.344 94.7495 166.054 99.4547C166.815 104.093 167.048 108.802 166.748 113.492C166.473 118.166 165.914 122.819 165.073 127.425C165.067 127.451 165.052 127.473 165.03 127.488C165.009 127.503 164.983 127.509 164.957 127.506C164.932 127.536 164.897 127.556 164.858 127.56C164.819 127.564 164.779 127.553 164.749 127.529C164.718 127.505 164.698 127.469 164.694 127.43C164.69 127.391 164.701 127.352 164.726 127.322Z" fill="#333333"/>
<path d="M140 100C140 79.5655 144.925 63 151 63" stroke="#6967F9" stroke-linecap="round"/>
<path d="M138 97.9996L140 100L142 97.9996" stroke="#6967F9" stroke-linecap="round" stroke-linejoin="round"/>
<path d="M112.258 97.4077L110 95.7031L108.295 97.9609" stroke="#FF6D3B" stroke-linecap="round" stroke-linejoin="round"/>
<path d="M189.659 98.1057L188 95.8145L185.709 97.4737" stroke="#FF6D3B" stroke-linecap="round" stroke-linejoin="round"/>
<path d="M188 96C188 102.075 170.539 107 149 107C127.461 107 110 102.075 110 96" stroke="#FF6D3B" stroke-linecap="round"/>
<path d="M181.971 112C181.971 86.0426 167.657 65 150.001 65C132.345 65 118.031 86.0426 118.031 112" stroke="#FABF48" stroke-linecap="round"/>
<path d="M116.001 111L118.031 113L120.061 111" stroke="#FABF48" stroke-linecap="round" stroke-linejoin="round"/>
<path d="M179.939 111L181.969 113L183.999 111" stroke="#FABF48" stroke-linecap="round" stroke-linejoin="round"/>
</svg>
