<svg width="162" height="130" viewBox="0 0 162 130" fill="none" xmlns="http://www.w3.org/2000/svg">
<g clip-path="url(#clip0_6_3538)">
<path d="M146.522 76.9529L145.454 83.1428L144.464 78.8627C144.464 78.8627 135.127 84.2101 134.52 99.185C134.52 99.185 142.012 98.8817 146.534 94.7588L143.699 92.5457L149.279 92.849C149.279 92.849 160.145 82.9182 161.439 72.8413C161.439 72.8413 151.922 72.2009 146.522 76.9641V76.9529Z" fill="white"/>
<path d="M134.519 99.7346C134.373 99.7346 134.227 99.6785 134.126 99.5661C134.013 99.4538 133.957 99.3078 133.957 99.1505C134.576 84.0407 143.789 78.5922 144.183 78.3676C144.34 78.2777 144.52 78.2664 144.689 78.3451C144.846 78.4125 144.97 78.5585 145.015 78.727L145.386 80.2998L145.982 76.851C146.005 76.7274 146.072 76.6151 146.162 76.5252C151.675 71.6609 161.09 72.2338 161.484 72.2563C161.641 72.2563 161.788 72.3461 161.878 72.4585C161.979 72.582 162.024 72.7281 162.001 72.8854C160.685 83.0521 150.111 92.8257 149.661 93.2414C149.548 93.3425 149.402 93.3987 149.245 93.3874L145.442 93.1852L146.871 94.2974C147.006 94.3985 147.085 94.5558 147.085 94.713C147.085 94.8816 147.029 95.0388 146.905 95.1512C142.293 99.3639 134.857 99.7122 134.542 99.7234H134.519V99.7346ZM144.104 79.783C142.056 81.2884 135.802 86.838 135.116 98.5663C136.882 98.3978 142.068 97.6676 145.645 94.7692L143.35 92.9718C143.159 92.8257 143.08 92.5561 143.17 92.3314C143.26 92.0955 143.485 91.9382 143.733 91.972L149.076 92.264C150.426 90.9834 159.302 82.2321 160.798 73.3684C158.672 73.3235 151.45 73.5032 147.051 77.2442L146.016 83.2319C145.971 83.4903 145.746 83.6925 145.476 83.7037C145.184 83.6812 144.97 83.524 144.914 83.2656L144.104 79.783Z" fill="#B7BDCF"/>
<path d="M130.174 106.61C130.096 106.61 130.006 106.588 129.938 106.554C129.657 106.419 129.533 106.082 129.668 105.801C135.619 93.3202 153.19 79.918 153.933 79.3563C154.18 79.1654 154.529 79.2215 154.72 79.4687C154.911 79.7158 154.855 80.0641 154.608 80.2551C154.428 80.3899 136.519 94.0504 130.68 106.284C130.579 106.486 130.388 106.61 130.174 106.61Z" fill="#B7BDCF"/>
<path d="M70.2645 12.8292C69.9833 15.3344 69.6458 18.3227 69.2521 21.8951H0.170616C0.170616 21.8951 -2.20297 0 10.7561 0H58.779C65.6748 0 71.0407 5.98773 70.2645 12.8292Z" fill="#B7BDCF"/>
<path d="M90.6451 23.0765V125.104H33.4766C18.7851 125.104 14.4541 106.141 19.5838 50.1729C24.2972 -1.33502 8.86328 0.85561 8.86328 0.85561L68.0454 0.675866C80.5208 0.642164 90.6563 10.6741 90.6563 23.0765H90.6451Z" fill="white"/>
<path d="M90.6579 125.665H33.4782C29.5522 125.665 26.4699 124.373 24.0288 121.71C16.6606 113.655 15.1644 92.2434 19.0229 50.1159C20.3166 36.006 21.2728 11.1563 13.1846 3.34868C11.5984 1.80962 10.1698 1.4726 9.43858 1.40519H8.86487C8.57239 1.40519 8.3249 1.18051 8.30241 0.888428C8.27991 0.596344 8.49364 0.337961 8.78612 0.293025C8.81987 0.293025 9.04485 0.259323 9.43858 0.293025L68.047 0.113281H68.1258C74.3016 0.113281 80.1062 2.50613 84.4709 6.85369C88.8243 11.19 91.2204 16.9531 91.2204 23.0756V125.103C91.2204 125.417 90.9729 125.665 90.6579 125.665ZM12.5434 1.40519C12.9821 1.68604 13.432 2.04553 13.9045 2.48366C18.3592 6.71888 23.0614 18.436 20.1478 50.2282C16.3231 91.9963 17.7405 113.15 24.8725 120.958C27.0774 123.373 29.9009 124.541 33.4894 124.541H90.0955V23.0756C90.0955 17.2452 87.8119 11.7742 83.6722 7.6513C79.4987 3.49472 73.9753 1.23668 68.047 1.23668L12.5434 1.40519Z" fill="#B7BDCF"/>
<path d="M30.4414 125.608C30.4414 125.608 39.7108 125.383 42.0843 103.713H111.166C111.166 103.713 113.551 125.608 100.58 125.608H30.4414Z" fill="#B7BDCF"/>
<path d="M74.0272 129.369L74.0382 129.372C75.4215 129.704 76.8124 128.853 77.1448 127.471L79.2235 118.831C79.5559 117.45 78.7039 116.061 77.3205 115.729L77.3096 115.726C75.9262 115.394 74.5354 116.245 74.203 117.626L72.1243 126.267C71.7919 127.648 72.6439 129.037 74.0272 129.369Z" fill="white"/>
<path d="M74.6514 129.999C74.404 129.999 74.1565 129.966 73.909 129.91C72.2216 129.505 71.1867 127.809 71.5917 126.124L73.6728 117.496C73.864 116.687 74.3702 115.991 75.0902 115.552C75.8101 115.114 76.6538 114.98 77.4637 115.182C78.2849 115.373 78.9711 115.878 79.4099 116.597C79.8486 117.316 79.9836 118.159 79.7811 118.968L77.7 127.595C77.5087 128.415 77.0025 129.101 76.2826 129.539C75.7764 129.842 75.2139 129.999 74.6514 129.999ZM76.7213 116.215C75.8101 116.215 74.9777 116.833 74.7639 117.766L72.6828 126.393C72.4241 127.472 73.0878 128.561 74.179 128.82C74.6964 128.943 75.2477 128.865 75.7089 128.584C76.1701 128.303 76.4963 127.865 76.6201 127.337L78.7012 118.709C78.8249 118.181 78.7462 117.642 78.4649 117.181C78.1837 116.721 77.745 116.395 77.2163 116.271C77.0588 116.238 76.9013 116.215 76.7438 116.215H76.7213Z" fill="#B7BDCF"/>
<path d="M112.797 129.348L112.808 129.345C114.191 129.013 115.043 127.624 114.711 126.243L112.632 117.603C112.3 116.221 110.909 115.37 109.525 115.702L109.514 115.705C108.131 116.037 107.279 117.426 107.611 118.807L109.69 127.447C110.023 128.829 111.413 129.68 112.797 129.348Z" fill="white"/>
<path d="M112.178 130C111.604 130 111.042 129.843 110.547 129.54C109.827 129.102 109.332 128.416 109.129 127.596L107.048 118.969C106.643 117.283 107.689 115.587 109.365 115.183C111.053 114.778 112.751 115.823 113.156 117.497L115.238 126.125C115.429 126.945 115.305 127.787 114.866 128.495C114.428 129.214 113.741 129.708 112.92 129.911C112.673 129.967 112.425 130 112.178 130ZM109.635 116.272C108.555 116.531 107.881 117.621 108.139 118.699L110.22 127.327C110.344 127.855 110.67 128.293 111.132 128.574C111.593 128.855 112.133 128.944 112.661 128.81C113.19 128.686 113.629 128.36 113.91 127.9C114.191 127.439 114.281 126.9 114.146 126.372L112.065 117.744C111.806 116.666 110.704 115.992 109.635 116.25V116.272Z" fill="#B7BDCF"/>
<path d="M124.122 90.7822L124.115 90.7909C123.219 91.8945 123.388 93.5145 124.493 94.4094L131.404 100.006C132.509 100.901 134.132 100.732 135.028 99.6287L135.035 99.62C135.931 98.5164 135.762 96.8964 134.657 96.0014L127.745 90.4044C126.64 89.5095 125.018 89.6786 124.122 90.7822Z" fill="white"/>
<path d="M133.022 101.13C132.302 101.13 131.616 100.883 131.053 100.433L124.146 94.8387C123.494 94.3107 123.089 93.558 122.999 92.7267C122.909 91.8954 123.156 91.0753 123.685 90.4237C124.214 89.7722 124.967 89.3677 125.8 89.2779C126.632 89.188 127.453 89.4352 128.106 89.9632L135.013 95.5577C135.665 96.0857 136.07 96.8384 136.16 97.6697C136.25 98.501 136.003 99.3211 135.474 99.9727C134.945 100.624 134.192 101.029 133.359 101.119C133.247 101.13 133.134 101.141 133.033 101.141L133.022 101.13ZM126.126 90.3788C126.058 90.3788 125.98 90.3788 125.912 90.3788C125.372 90.435 124.888 90.6934 124.551 91.109C124.214 91.5247 124.056 92.0527 124.112 92.5919C124.169 93.1311 124.427 93.6142 124.843 93.9512L131.75 99.5458C132.167 99.8828 132.707 100.029 133.235 99.9839C133.775 99.9277 134.259 99.6693 134.597 99.2537C134.934 98.838 135.092 98.31 135.035 97.7708C134.979 97.2316 134.72 96.7485 134.304 96.4115L127.397 90.8169C127.037 90.5248 126.587 90.3676 126.126 90.3676V90.3788Z" fill="#B7BDCF"/>
<path d="M50.1985 99.6162L50.2056 99.6249C51.1017 100.728 52.7239 100.898 53.829 100.003L60.7402 94.4056C61.8453 93.5107 62.0146 91.8907 61.1185 90.7871L61.1114 90.7784C60.2153 89.6748 58.593 89.5057 57.488 90.4006L50.5767 95.9976C49.4717 96.8926 49.3023 98.5126 50.1985 99.6162Z" fill="white"/>
<path d="M52.2196 101.129C52.1071 101.129 51.9947 101.129 51.8934 101.107C51.061 101.017 50.3073 100.613 49.7786 99.9609C49.2498 99.3094 49.0024 98.4893 49.0924 97.658C49.1823 96.8266 49.5873 96.074 50.2398 95.546L57.1468 89.9514C57.7992 89.4234 58.6204 89.1763 59.4529 89.2662C60.2853 89.356 61.039 89.7605 61.5677 90.412C62.6589 91.7601 62.4564 93.7373 61.1065 94.827L54.1995 100.422C53.637 100.882 52.9396 101.118 52.2309 101.118L52.2196 101.129ZM59.1154 90.3783C58.6542 90.3783 58.2155 90.5356 57.8442 90.8277L50.9372 96.4222C50.521 96.7592 50.2623 97.2423 50.206 97.7815C50.1498 98.3208 50.3073 98.8375 50.6447 99.2644C50.9822 99.6801 51.4659 99.9385 52.0059 99.9946C52.5234 100.04 53.0633 99.8935 53.4908 99.5565L60.3978 93.962C61.264 93.2655 61.399 91.996 60.6903 91.131C60.3528 90.7153 59.8691 90.457 59.3291 90.4008C59.2616 90.4008 59.1829 90.4008 59.1154 90.4008V90.3783Z" fill="#B7BDCF"/>
<path d="M93.4125 125.608C114.263 125.608 131.165 108.728 131.165 87.9064C131.165 67.0846 114.263 50.2051 93.4125 50.2051C72.5625 50.2051 55.6602 67.0846 55.6602 87.9064C55.6602 108.728 72.5625 125.608 93.4125 125.608Z" fill="white"/>
<path d="M93.4125 126.169C72.2865 126.169 55.0977 109.003 55.0977 87.9056C55.0977 66.8082 72.2865 49.6426 93.4125 49.6426C114.539 49.6426 131.727 66.8082 131.727 87.9056C131.727 109.003 114.539 126.169 93.4125 126.169ZM93.4125 50.7772C72.9052 50.7772 56.2226 67.4373 56.2226 87.9169C56.2226 108.396 72.9052 125.057 93.4125 125.057C113.92 125.057 130.602 108.396 130.602 87.9169C130.602 67.4373 113.92 50.7772 93.4125 50.7772Z" fill="#B7BDCF"/>
<path d="M86.3371 90.6805C87.8717 90.6805 89.1157 89.4381 89.1157 87.9057C89.1157 86.3732 87.8717 85.1309 86.3371 85.1309C84.8026 85.1309 83.5586 86.3732 83.5586 87.9057C83.5586 89.4381 84.8026 90.6805 86.3371 90.6805Z" fill="#B7BDCF"/>
<path d="M100.501 90.6805C102.036 90.6805 103.28 89.4381 103.28 87.9057C103.28 86.3732 102.036 85.1309 100.501 85.1309C98.9667 85.1309 97.7227 86.3732 97.7227 87.9057C97.7227 89.4381 98.9667 90.6805 100.501 90.6805Z" fill="#B7BDCF"/>
<path d="M88.3516 96.5338C88.3516 99.3311 90.6239 98.8817 93.4137 98.8817C96.2035 98.8817 98.4759 99.3199 98.4759 96.5338C98.4759 93.7478 96.2035 91.4785 93.4137 91.4785C90.6239 91.4785 88.3516 93.7478 88.3516 96.5338Z" fill="#B7BDCF"/>
<path d="M74.435 24.7601H35.164C34.849 24.7601 34.6016 24.513 34.6016 24.1984C34.6016 23.8839 34.849 23.6367 35.164 23.6367H74.4238C74.7388 23.6367 74.9863 23.8839 74.9863 24.1984C74.9863 24.513 74.7388 24.7601 74.4238 24.7601H74.435Z" fill="#B7BDCF"/>
<path d="M65.1657 30.6234H35.164C34.849 30.6234 34.6016 30.3763 34.6016 30.0617C34.6016 29.7471 34.849 29.5 35.164 29.5H65.1657C65.4807 29.5 65.7282 29.7471 65.7282 30.0617C65.7282 30.3763 65.4807 30.6234 65.1657 30.6234Z" fill="#B7BDCF"/>
<path d="M65.1657 36.4886H35.164C34.849 36.4886 34.6016 36.2415 34.6016 35.9269C34.6016 35.6124 34.849 35.3652 35.164 35.3652H65.1657C65.4807 35.3652 65.7282 35.6124 65.7282 35.9269C65.7282 36.2415 65.4807 36.4886 65.1657 36.4886Z" fill="#B7BDCF"/>
<path d="M65.1657 63.4379H35.164C34.849 63.4379 34.6016 63.1907 34.6016 62.8762C34.6016 62.5616 34.849 62.3145 35.164 62.3145H65.1657C65.4807 62.3145 65.7282 62.5616 65.7282 62.8762C65.7282 63.1907 65.4807 63.4379 65.1657 63.4379Z" fill="#B7BDCF"/>
<path d="M55.6714 57.5746H35.164C34.849 57.5746 34.6016 57.3274 34.6016 57.0129C34.6016 56.6983 34.849 56.4512 35.164 56.4512H55.6601C55.9751 56.4512 56.2226 56.6983 56.2226 57.0129C56.2226 57.3274 55.9751 57.5746 55.6601 57.5746H55.6714Z" fill="#B7BDCF"/>
<path d="M55.6714 70.3812H35.164C34.849 70.3812 34.6016 70.1341 34.6016 69.8195C34.6016 69.505 34.849 69.2578 35.164 69.2578H55.6601C55.9751 69.2578 56.2226 69.505 56.2226 69.8195C56.2226 70.1341 55.9751 70.3812 55.6601 70.3812H55.6714Z" fill="#B7BDCF"/>
<path d="M119.547 79.0431C119.547 81.6494 117.432 83.7614 114.822 83.7614C112.213 83.7614 110.098 81.6494 110.098 79.0431C110.098 76.4368 114.822 67.8652 114.822 67.8652C114.822 67.8652 119.547 76.4368 119.547 79.0431Z" fill="white"/>
<path d="M114.822 84.3223C111.909 84.3223 109.535 81.9519 109.535 79.0423C109.535 76.3686 113.832 68.4823 114.327 67.5948C114.429 67.4151 114.62 67.3027 114.822 67.3027C115.025 67.3027 115.216 67.4151 115.317 67.5948C115.812 68.4823 120.109 76.3686 120.109 79.0423C120.109 81.9519 117.736 84.3223 114.822 84.3223ZM114.822 69.0552C113.326 71.875 110.66 77.2561 110.66 79.0535C110.66 81.3453 112.527 83.2101 114.822 83.2101C117.117 83.2101 118.984 81.3453 118.984 79.0535C118.984 77.2561 116.318 71.875 114.822 69.0552Z" fill="#B7BDCF"/>
</g>
<defs>
<clipPath id="clip0_6_3538">
<rect width="162" height="130" fill="white"/>
</clipPath>
</defs>
</svg>
