<svg width="327" height="144" viewBox="0 0 327 144" fill="none" xmlns="http://www.w3.org/2000/svg">
<path d="M1.672 123.803H8.503V123.066H2.574V119.469H1.672V123.803ZM9.526 127.114V126.366H0.572V127.114H9.526ZM18.7981 124.452V118.611H17.8961V124.452H18.7981ZM16.7961 123.66L16.6971 122.934C15.1351 123.198 13.8591 123.242 12.0991 123.242V121.878H15.6741V119.194H11.1861V119.931H14.7831V121.185H11.2191V123.979H12.0111C13.8261 123.979 15.1901 123.924 16.7961 123.66ZM18.7981 125.002H12.4181V128.335H18.7981V125.002ZM17.9181 127.609H13.2981V125.717H17.9181V127.609Z" fill="#C2C2C2"/>
<path d="M8.437 17.556H9.757V16.797H8.437V12.947H7.546V22.814H8.437V17.556ZM3.498 13.871H2.75V16.401H1.54V13.871H0.77V20.427H3.498V13.871ZM6.71 13.871H5.951V16.401H4.785V13.871H4.026V20.427H6.71V13.871ZM1.54 17.127H2.75V19.69H1.54V17.127ZM4.785 17.127H5.951V19.69H4.785V17.127ZM11.8241 13.893H17.6101V14.85H11.8461V17.193H18.7101V16.489H12.7371V15.521H18.5011V13.2H11.8241V13.893ZM19.6451 18.766V18.04H10.7021V18.766H19.6451ZM18.5121 19.679H11.9011V22.682H18.5121V19.679ZM17.6211 21.956H12.7811V20.394H17.6211V21.956Z" fill="#C2C2C2"/>
<path d="M30.6685 55H326" stroke="#DFE0EB" stroke-dasharray="2 3"/>
<path d="M30.6685 89.6667H326" stroke="#DFE0EB" stroke-dasharray="2 3"/>
<path d="M30.6685 20.3645H326" stroke="#DFE0EB" stroke-dasharray="2 3"/>
<path d="M30.6685 124.333H326" stroke="#DFE0EB"/>
<path d="M44.786 141V140.186H43.202V132.893H42.399L40.232 134.763L40.771 135.412L42.234 134.103C42.223 134.18 42.223 134.279 42.223 134.378V140.186H40.43V141H44.786ZM47.0157 140.12H46.0147V141.154H47.0157V140.12ZM54.3469 136.985C54.3469 134.114 53.0489 132.805 51.3879 132.805C49.7159 132.805 48.4289 134.114 48.4289 136.985C48.4289 139.845 49.7159 141.154 51.3879 141.154C53.0489 141.154 54.3469 139.845 54.3469 136.985ZM53.3349 136.985C53.3349 139.493 52.4109 140.34 51.3879 140.34C50.3649 140.34 49.4519 139.493 49.4519 136.985C49.4519 134.466 50.3649 133.63 51.3879 133.63C52.4109 133.63 53.3349 134.466 53.3349 136.985Z" fill="#C2C2C2"/>
<path d="M68.786 141V140.186H67.202V132.893H66.399L64.232 134.763L64.771 135.412L66.234 134.103C66.223 134.18 66.223 134.279 66.223 134.378V140.186H64.43V141H68.786ZM71.0157 140.12H70.0147V141.154H71.0157V140.12ZM74.1889 135.94L74.5519 133.828H77.7089V132.904H73.8479L73.1879 136.721L73.8369 136.908C74.3099 136.743 74.7279 136.644 75.1569 136.644C76.3119 136.644 76.9939 137.26 76.9939 138.316C76.9939 139.504 76.1909 140.197 75.0799 140.197C74.4199 140.197 73.7819 139.9 73.2979 139.493L72.7589 140.23C73.2539 140.703 74.0679 141.099 75.0359 141.099C76.6749 141.099 77.9619 139.977 77.9619 138.261C77.9619 136.853 77.0489 135.797 75.3439 135.797C74.9479 135.797 74.5629 135.841 74.1889 135.94Z" fill="#C2C2C2"/>
<path d="M92.995 141V140.109H89.816C89.541 140.109 89.211 140.153 88.903 140.241L91.158 138.008C92.071 137.095 92.841 136.259 92.841 135.06C92.841 133.63 91.774 132.794 90.399 132.794C89.024 132.794 87.957 133.597 87.748 135.082L88.738 135.247C88.738 134.323 89.42 133.663 90.344 133.663C91.18 133.663 91.796 134.114 91.829 135.082C91.829 136.028 91.213 136.721 90.366 137.623L87.583 140.296V141H92.995ZM95.0157 140.12H94.0147V141.154H95.0157V140.12ZM102.347 136.985C102.347 134.114 101.049 132.805 99.3879 132.805C97.7159 132.805 96.4289 134.114 96.4289 136.985C96.4289 139.845 97.7159 141.154 99.3879 141.154C101.049 141.154 102.347 139.845 102.347 136.985ZM101.335 136.985C101.335 139.493 100.411 140.34 99.3879 140.34C98.3649 140.34 97.4519 139.493 97.4519 136.985C97.4519 134.466 98.3649 133.63 99.3879 133.63C100.411 133.63 101.335 134.466 101.335 136.985Z" fill="#C2C2C2"/>
<path d="M116.995 141V140.109H113.816C113.541 140.109 113.211 140.153 112.903 140.241L115.158 138.008C116.071 137.095 116.841 136.259 116.841 135.06C116.841 133.63 115.774 132.794 114.399 132.794C113.024 132.794 111.957 133.597 111.748 135.082L112.738 135.247C112.738 134.323 113.42 133.663 114.344 133.663C115.18 133.663 115.796 134.114 115.829 135.082C115.829 136.028 115.213 136.721 114.366 137.623L111.583 140.296V141H116.995ZM119.016 140.12H118.015V141.154H119.016V140.12ZM122.189 135.94L122.552 133.828H125.709V132.904H121.848L121.188 136.721L121.837 136.908C122.31 136.743 122.728 136.644 123.157 136.644C124.312 136.644 124.994 137.26 124.994 138.316C124.994 139.504 124.191 140.197 123.08 140.197C122.42 140.197 121.782 139.9 121.298 139.493L120.759 140.23C121.254 140.703 122.068 141.099 123.036 141.099C124.675 141.099 125.962 139.977 125.962 138.261C125.962 136.853 125.049 135.797 123.344 135.797C122.948 135.797 122.563 135.841 122.189 135.94Z" fill="#C2C2C2"/>
<path d="M135.781 135.104L136.782 135.269C136.782 134.367 137.453 133.685 138.377 133.685C139.224 133.685 139.818 134.136 139.818 135.06C139.818 135.896 139.312 136.479 137.893 136.512V137.238C139.62 137.238 139.983 137.876 139.983 138.745C139.983 139.46 139.422 140.274 138.267 140.274C137.431 140.274 136.936 139.845 136.595 139.141C136.507 138.932 136.452 138.767 136.43 138.646L135.528 139.02C135.913 140.208 136.54 141.143 138.278 141.143C139.785 141.143 141.006 140.197 141.006 138.723C141.006 137.711 140.456 137.04 139.4 136.776C140.28 136.479 140.819 135.951 140.819 134.895C140.819 133.663 139.829 132.805 138.432 132.805C137.057 132.805 135.99 133.641 135.781 135.104ZM143.016 140.12H142.015V141.154H143.016V140.12ZM150.347 136.985C150.347 134.114 149.049 132.805 147.388 132.805C145.716 132.805 144.429 134.114 144.429 136.985C144.429 139.845 145.716 141.154 147.388 141.154C149.049 141.154 150.347 139.845 150.347 136.985ZM149.335 136.985C149.335 139.493 148.411 140.34 147.388 140.34C146.365 140.34 145.452 139.493 145.452 136.985C145.452 134.466 146.365 133.63 147.388 133.63C148.411 133.63 149.335 134.466 149.335 136.985Z" fill="#C2C2C2"/>
<path d="M159.781 135.104L160.782 135.269C160.782 134.367 161.453 133.685 162.377 133.685C163.224 133.685 163.818 134.136 163.818 135.06C163.818 135.896 163.312 136.479 161.893 136.512V137.238C163.62 137.238 163.983 137.876 163.983 138.745C163.983 139.46 163.422 140.274 162.267 140.274C161.431 140.274 160.936 139.845 160.595 139.141C160.507 138.932 160.452 138.767 160.43 138.646L159.528 139.02C159.913 140.208 160.54 141.143 162.278 141.143C163.785 141.143 165.006 140.197 165.006 138.723C165.006 137.711 164.456 137.04 163.4 136.776C164.28 136.479 164.819 135.951 164.819 134.895C164.819 133.663 163.829 132.805 162.432 132.805C161.057 132.805 159.99 133.641 159.781 135.104ZM167.016 140.12H166.015V141.154H167.016V140.12ZM170.189 135.94L170.552 133.828H173.709V132.904H169.848L169.188 136.721L169.837 136.908C170.31 136.743 170.728 136.644 171.157 136.644C172.312 136.644 172.994 137.26 172.994 138.316C172.994 139.504 172.191 140.197 171.08 140.197C170.42 140.197 169.782 139.9 169.298 139.493L168.759 140.23C169.254 140.703 170.068 141.099 171.036 141.099C172.675 141.099 173.962 139.977 173.962 138.261C173.962 136.853 173.049 135.797 171.344 135.797C170.948 135.797 170.563 135.841 170.189 135.94Z" fill="#C2C2C2"/>
<path d="M189.38 138.855V138.063H188.159V132.849H187.213L183.242 138.107V138.855H187.268V141H188.159V138.855H189.38ZM187.268 134.697V138.063H184.342L187.312 134.015C187.279 134.246 187.268 134.51 187.268 134.697ZM191.016 140.12H190.015V141.154H191.016V140.12ZM198.347 136.985C198.347 134.114 197.049 132.805 195.388 132.805C193.716 132.805 192.429 134.114 192.429 136.985C192.429 139.845 193.716 141.154 195.388 141.154C197.049 141.154 198.347 139.845 198.347 136.985ZM197.335 136.985C197.335 139.493 196.411 140.34 195.388 140.34C194.365 140.34 193.452 139.493 193.452 136.985C193.452 134.466 194.365 133.63 195.388 133.63C196.411 133.63 197.335 134.466 197.335 136.985Z" fill="#C2C2C2"/>
<path d="M213.38 138.855V138.063H212.159V132.849H211.213L207.242 138.107V138.855H211.268V141H212.159V138.855H213.38ZM211.268 134.697V138.063H208.342L211.312 134.015C211.279 134.246 211.268 134.51 211.268 134.697ZM215.016 140.12H214.015V141.154H215.016V140.12ZM218.189 135.94L218.552 133.828H221.709V132.904H217.848L217.188 136.721L217.837 136.908C218.31 136.743 218.728 136.644 219.157 136.644C220.312 136.644 220.994 137.26 220.994 138.316C220.994 139.504 220.191 140.197 219.08 140.197C218.42 140.197 217.782 139.9 217.298 139.493L216.759 140.23C217.254 140.703 218.068 141.099 219.036 141.099C220.675 141.099 221.962 139.977 221.962 138.261C221.962 136.853 221.049 135.797 219.344 135.797C218.948 135.797 218.563 135.841 218.189 135.94Z" fill="#C2C2C2"/>
<path d="M233.101 135.94L233.464 133.828H236.621V132.904H232.76L232.1 136.721L232.749 136.908C233.222 136.743 233.64 136.644 234.069 136.644C235.224 136.644 235.906 137.26 235.906 138.316C235.906 139.504 235.103 140.197 233.992 140.197C233.332 140.197 232.694 139.9 232.21 139.493L231.671 140.23C232.166 140.703 232.98 141.099 233.948 141.099C235.587 141.099 236.874 139.977 236.874 138.261C236.874 136.853 235.961 135.797 234.256 135.797C233.86 135.797 233.475 135.841 233.101 135.94ZM239.016 140.12H238.015V141.154H239.016V140.12ZM246.347 136.985C246.347 134.114 245.049 132.805 243.388 132.805C241.716 132.805 240.429 134.114 240.429 136.985C240.429 139.845 241.716 141.154 243.388 141.154C245.049 141.154 246.347 139.845 246.347 136.985ZM245.335 136.985C245.335 139.493 244.411 140.34 243.388 140.34C242.365 140.34 241.452 139.493 241.452 136.985C241.452 134.466 242.365 133.63 243.388 133.63C244.411 133.63 245.335 134.466 245.335 136.985Z" fill="#C2C2C2"/>
<path d="M257.101 135.94L257.464 133.828H260.621V132.904H256.76L256.1 136.721L256.749 136.908C257.222 136.743 257.64 136.644 258.069 136.644C259.224 136.644 259.906 137.26 259.906 138.316C259.906 139.504 259.103 140.197 257.992 140.197C257.332 140.197 256.694 139.9 256.21 139.493L255.671 140.23C256.166 140.703 256.98 141.099 257.948 141.099C259.587 141.099 260.874 139.977 260.874 138.261C260.874 136.853 259.961 135.797 258.256 135.797C257.86 135.797 257.475 135.841 257.101 135.94ZM263.016 140.12H262.015V141.154H263.016V140.12ZM266.189 135.94L266.552 133.828H269.709V132.904H265.848L265.188 136.721L265.837 136.908C266.31 136.743 266.728 136.644 267.157 136.644C268.312 136.644 268.994 137.26 268.994 138.316C268.994 139.504 268.191 140.197 267.08 140.197C266.42 140.197 265.782 139.9 265.298 139.493L264.759 140.23C265.254 140.703 266.068 141.099 267.036 141.099C268.675 141.099 269.962 139.977 269.962 138.261C269.962 136.853 269.049 135.797 267.344 135.797C266.948 135.797 266.563 135.841 266.189 135.94Z" fill="#C2C2C2"/>
<path d="M281.651 135.94L284.082 132.893H282.817L280.573 135.918C279.869 136.842 279.572 137.656 279.572 138.371C279.572 140.043 280.639 141.143 282.278 141.143C283.928 141.143 285.072 139.977 285.072 138.481C285.072 136.93 283.972 136.05 282.652 136.05C282.113 136.05 281.662 136.204 281.266 136.468C281.343 136.38 281.464 136.204 281.651 135.94ZM282.256 140.296C281.156 140.296 280.551 139.592 280.551 138.536C280.551 137.623 281.244 136.831 282.322 136.831C283.323 136.831 284.06 137.491 284.06 138.558C284.06 139.559 283.323 140.296 282.256 140.296ZM287.016 140.12H286.015V141.154H287.016V140.12ZM294.347 136.985C294.347 134.114 293.049 132.805 291.388 132.805C289.716 132.805 288.429 134.114 288.429 136.985C288.429 139.845 289.716 141.154 291.388 141.154C293.049 141.154 294.347 139.845 294.347 136.985ZM293.335 136.985C293.335 139.493 292.411 140.34 291.388 140.34C290.365 140.34 289.452 139.493 289.452 136.985C289.452 134.466 290.365 133.63 291.388 133.63C292.411 133.63 293.335 134.466 293.335 136.985Z" fill="#C2C2C2"/>
<path d="M305.651 135.94L308.082 132.893H306.817L304.573 135.918C303.869 136.842 303.572 137.656 303.572 138.371C303.572 140.043 304.639 141.143 306.278 141.143C307.928 141.143 309.072 139.977 309.072 138.481C309.072 136.93 307.972 136.05 306.652 136.05C306.113 136.05 305.662 136.204 305.266 136.468C305.343 136.38 305.464 136.204 305.651 135.94ZM306.256 140.296C305.156 140.296 304.551 139.592 304.551 138.536C304.551 137.623 305.244 136.831 306.322 136.831C307.323 136.831 308.06 137.491 308.06 138.558C308.06 139.559 307.323 140.296 306.256 140.296ZM311.016 140.12H310.015V141.154H311.016V140.12ZM314.189 135.94L314.552 133.828H317.709V132.904H313.848L313.188 136.721L313.837 136.908C314.31 136.743 314.728 136.644 315.157 136.644C316.312 136.644 316.994 137.26 316.994 138.316C316.994 139.504 316.191 140.197 315.08 140.197C314.42 140.197 313.782 139.9 313.298 139.493L312.759 140.23C313.254 140.703 314.068 141.099 315.036 141.099C316.675 141.099 317.962 139.977 317.962 138.261C317.962 136.853 317.049 135.797 315.344 135.797C314.948 135.797 314.563 135.841 314.189 135.94Z" fill="#C2C2C2"/>
<path d="M166.716 77.2743L47 118.818" stroke="#FF6D3B" stroke-width="3"/>
<path d="M215.415 60.375L166.717 77.2742" stroke="#FABF48" stroke-width="3"/>
<path d="M264.113 43.4761L215.414 60.3752" stroke="#62B22F" stroke-width="3"/>
<path d="M312.811 26.5769L264.113 43.476" stroke="#1E76FC" stroke-width="3"/>
<path d="M326 22L312.811 26.5768" stroke="#6967F9" stroke-width="3"/>
<mask id="mask0_317_2794" style="mask-type:alpha" maskUnits="userSpaceOnUse" x="229" y="42" width="48" height="83">
<path d="M276.5 124.5L229 124.5L229 59.0001L276.5 42.0001L276.5 124.5Z" fill="#D9D9D9"/>
</mask>
<g mask="url(#mask0_317_2794)">
<path d="M196.992 61.3102L281.145 31.8316" stroke="#F5F5F5"/>
<path d="M196 58.4788L280.153 29.0002" stroke="#F5F5F5"/>
<path d="M197.984 64.1414L282.137 34.6628" stroke="#F5F5F5"/>
<path d="M198.976 66.9728L283.129 37.4942" stroke="#F5F5F5"/>
<path d="M199.967 69.804L284.121 40.3254" stroke="#F5F5F5"/>
<path d="M200.959 72.6354L285.113 43.1568" stroke="#F5F5F5"/>
<path d="M201.951 75.4666L286.104 45.988" stroke="#F5F5F5"/>
<path d="M202.943 78.2981L287.096 48.8195" stroke="#F5F5F5"/>
<path d="M203.934 81.1293L288.088 51.6507" stroke="#F5F5F5"/>
<path d="M204.926 83.9607L289.08 54.4821" stroke="#F5F5F5"/>
<path d="M205.918 86.7918L290.072 57.3132" stroke="#F5F5F5"/>
<path d="M206.91 89.6233L291.063 60.1447" stroke="#F5F5F5"/>
<path d="M207.902 92.4545L292.055 62.9759" stroke="#F5F5F5"/>
<path d="M208.893 95.2859L293.047 65.8073" stroke="#F5F5F5"/>
<path d="M209.885 98.1171L294.039 68.6385" stroke="#F5F5F5"/>
<path d="M210.877 100.949L295.03 71.4699" stroke="#F5F5F5"/>
<path d="M211.869 103.78L296.022 74.3011" stroke="#F5F5F5"/>
<path d="M212.861 106.611L297.014 77.1325" stroke="#F5F5F5"/>
<path d="M213.853 109.442L298.006 79.9637" stroke="#F5F5F5"/>
<path d="M214.844 112.274L298.998 82.7951" stroke="#F5F5F5"/>
<path d="M215.836 115.105L299.989 85.6266" stroke="#F5F5F5"/>
<path d="M216.828 117.936L300.981 88.4578" stroke="#F5F5F5"/>
<path d="M217.82 120.768L301.973 91.2892" stroke="#F5F5F5"/>
<path d="M218.812 123.599L302.965 94.1204" stroke="#F5F5F5"/>
<path d="M219.803 126.43L303.957 96.9518" stroke="#F5F5F5"/>
<path d="M220.795 129.262L304.949 99.783" stroke="#F5F5F5"/>
<path d="M221.787 132.093L305.94 102.614" stroke="#F5F5F5"/>
<path d="M222.779 134.924L306.932 105.446" stroke="#F5F5F5"/>
<path d="M223.771 137.756L307.924 108.277" stroke="#F5F5F5"/>
<path d="M224.762 140.587L308.916 111.108" stroke="#F5F5F5"/>
<path d="M225.754 143.418L309.907 113.94" stroke="#F5F5F5"/>
<path d="M226.746 146.249L310.899 116.771" stroke="#F5F5F5"/>
</g>
<path d="M248.168 69.2201L250.508 69.2201L250.508 72.4961L251.504 72.4961L251.504 66.1361L250.508 66.1361L250.508 68.4161L248.168 68.4161L248.168 69.2201ZM248.42 71.9921L248.948 71.2241C247.364 70.6721 246.332 69.3281 246.332 67.8041L246.332 66.7361L245.348 66.7361L245.348 67.8401C245.348 69.4721 244.292 70.9361 242.624 71.5121L243.14 72.3161C244.436 71.8241 245.396 70.8761 245.864 69.5801C246.332 70.6961 247.22 71.5481 248.42 71.9921ZM247.952 72.8201C245.744 72.8201 244.364 73.5521 244.364 74.8481C244.364 76.1321 245.744 76.8761 247.952 76.8761C250.16 76.8761 251.528 76.1321 251.528 74.8481C251.528 73.5521 250.16 72.8201 247.952 72.8201ZM247.952 76.0961C246.308 76.0961 245.348 75.6281 245.348 74.8481C245.348 74.0321 246.308 73.5881 247.952 73.5881C249.596 73.5881 250.556 74.0321 250.556 74.8481C250.556 75.6281 249.596 76.0961 247.952 76.0961ZM261.283 73.9961L262.267 73.9961L262.267 66.1361L261.283 66.1361L261.283 73.9961ZM259.303 69.5201C259.303 67.9721 258.079 66.8801 256.483 66.8801C254.887 66.8801 253.687 67.9721 253.687 69.5201C253.687 71.0801 254.887 72.1841 256.483 72.1841C258.079 72.1841 259.303 71.0801 259.303 69.5201ZM254.647 69.5201C254.647 68.4761 255.427 67.7321 256.483 67.7321C257.551 67.7321 258.343 68.4761 258.343 69.5201C258.343 70.5881 257.551 71.3321 256.483 71.3321C255.427 71.3321 254.647 70.5881 254.647 69.5201ZM262.591 76.6481L262.591 75.8441L256.327 75.8441L256.327 73.1921L255.343 73.1921L255.343 76.6481L262.591 76.6481ZM250.988 85.4121L252.584 85.4121L252.584 84.5961L250.988 84.5961L250.988 82.1241L250.004 82.1241L250.004 88.2081L250.988 88.2081L250.988 85.4121ZM249.032 86.9121L248.912 86.1081C247.172 86.4441 245.684 86.5521 244.136 86.5641L244.136 82.6641L243.164 82.6641L243.164 87.3921L244.004 87.3921C245.636 87.3921 247.196 87.2841 249.032 86.9121ZM250.988 88.7961L244.208 88.7961L244.208 92.7321L250.988 92.7321L250.988 88.7961ZM250.028 91.9401L245.168 91.9401L245.168 89.5881L250.028 89.5881L250.028 91.9401ZM262.303 92.9001L262.303 82.1241L261.319 82.1241L261.319 84.6321L258.103 84.6321L258.103 85.4361L261.319 85.4361L261.319 87.0801L258.103 87.0801L258.103 87.8841L261.319 87.8841L261.319 92.9001L262.303 92.9001ZM255.007 89.5761L255.007 83.3121L254.023 83.3121L254.023 90.4041L254.839 90.4041C256.699 90.4041 258.067 90.3321 259.627 90.0081L259.519 89.1921C258.043 89.4801 256.723 89.5761 255.007 89.5761ZM248.732 102.78L250.508 102.78L250.508 104.76L251.504 104.76L251.504 98.1361L250.508 98.1361L250.508 100.044L248.732 100.044L248.732 100.848L250.508 100.848L250.508 101.976L248.732 101.976L248.732 102.78ZM249.02 103.764L248.96 103.032C248.516 103.092 248.036 103.14 247.556 103.176L247.556 99.7321L248.624 99.7321L248.624 98.9401L242.96 98.9401L242.96 99.7321L244.028 99.7321L244.028 103.296C243.788 103.308 243.56 103.308 243.332 103.308L242.672 103.308L242.78 104.124C244.52 104.124 246.944 104.088 249.02 103.764ZM244.976 103.284L244.976 99.7321L246.596 99.7321L246.596 103.224C246.056 103.26 245.504 103.272 244.976 103.284ZM247.952 104.988C245.684 104.988 244.364 105.672 244.364 106.92C244.364 108.168 245.684 108.876 247.952 108.876C250.172 108.876 251.528 108.168 251.528 106.92C251.528 105.672 250.172 104.988 247.952 104.988ZM247.952 108.108C246.308 108.108 245.348 107.688 245.348 106.92C245.348 106.188 246.308 105.744 247.952 105.744C249.596 105.744 250.556 106.188 250.556 106.92C250.556 107.688 249.596 108.108 247.952 108.108ZM263.203 103.548L263.203 102.744L261.691 102.744C261.943 101.4 261.943 100.392 261.943 99.5161L261.943 98.7001L254.659 98.7001L254.659 99.5041L260.971 99.5041L260.971 99.5161C260.971 100.392 260.983 101.388 260.707 102.744L253.435 102.744L253.435 103.548L256.675 103.548L256.675 106.14L257.635 106.14L257.635 103.548L259.531 103.548L259.531 106.14L260.491 106.14L260.491 103.548L263.203 103.548ZM262.231 107.844L255.595 107.844L255.595 105.276L254.623 105.276L254.623 108.648L262.231 108.648L262.231 107.844Z" fill="#C7C7CF"/>
<path fill-rule="evenodd" clip-rule="evenodd" d="M273 0C265.82 0 260 5.8203 260 13C260 20.1797 265.82 26 273 26H282.959L287 33L291.041 26H301C308.18 26 314 20.1797 314 13C314 5.8203 308.18 0 301 0H273Z" fill="black"/>
<path d="M272.644 10.008H279.244V10.392C279.244 12.024 279.172 13.44 278.872 15.06L279.844 15.18C280.228 13.164 280.228 11.76 280.228 10.392V9.204H272.644V10.008ZM281.368 17.376V16.572H277.66V13.008H276.688V16.572H274.996V13.008H274.024V16.572H271.636V17.376H281.368ZM287.295 12.492C289.623 12.492 291.075 11.736 291.075 10.44C291.075 9.144 289.623 8.376 287.295 8.376C284.979 8.376 283.515 9.144 283.515 10.44C283.515 11.736 284.979 12.492 287.295 12.492ZM287.295 9.156C289.035 9.156 290.067 9.624 290.067 10.44C290.067 11.256 289.035 11.724 287.295 11.724C285.555 11.724 284.523 11.256 284.523 10.44C284.523 9.624 285.555 9.156 287.295 9.156ZM289.599 15.468V14.1H292.167V13.308H282.435V14.1H285.003V15.468H283.515V16.26H289.983V18.9H290.967V15.468H289.599ZM285.987 14.1H288.615V15.468H285.987V14.1ZM299.066 14.424H300.002V11.82H301.37V14.772H302.318V8.136H301.37V11.016H300.002V8.34H299.066V14.424ZM298.094 13.932L298.622 13.176C297.242 12.66 296.438 11.424 296.438 10.248V8.796H295.49V10.248C295.49 11.436 294.638 12.864 293.246 13.464L293.774 14.232C294.83 13.764 295.586 12.852 295.97 11.844C296.354 12.756 297.086 13.512 298.094 13.932ZM298.766 15.012C296.558 15.012 295.178 15.732 295.178 16.944C295.178 18.156 296.558 18.876 298.766 18.876C300.974 18.876 302.366 18.156 302.366 16.944C302.366 15.732 300.974 15.012 298.766 15.012ZM298.766 18.12C297.122 18.12 296.15 17.712 296.15 16.944C296.15 16.176 297.122 15.78 298.766 15.78C300.41 15.78 301.394 16.176 301.394 16.944C301.394 17.712 300.41 18.12 298.766 18.12Z" fill="white"/>
<circle cx="287" cy="35" r="3" fill="black"/>
<circle cx="287" cy="35" r="5" fill="black" fill-opacity="0.1"/>
<circle cx="287" cy="35" r="2" fill="white"/>
</svg>
