<svg width="327" height="135" viewBox="0 0 327 135" fill="none" xmlns="http://www.w3.org/2000/svg">
<path d="M1.672 114.803H8.503V114.066H2.574V110.469H1.672V114.803ZM9.526 118.114V117.366H0.572V118.114H9.526ZM18.7981 115.452V109.611H17.8961V115.452H18.7981ZM16.7961 114.66L16.6971 113.934C15.1351 114.198 13.8591 114.242 12.0991 114.242V112.878H15.6741V110.194H11.1861V110.931H14.7831V112.185H11.2191V114.979H12.0111C13.8261 114.979 15.1901 114.924 16.7961 114.66ZM18.7981 116.002H12.4181V119.335H18.7981V116.002ZM17.9181 118.609H13.2981V116.717H17.9181V118.609Z" fill="#C2C2C2"/>
<path d="M8.437 8.556H9.757V7.797H8.437V3.947H7.546V13.814H8.437V8.556ZM3.498 4.871H2.75V7.401H1.54V4.871H0.77V11.427H3.498V4.871ZM6.71 4.871H5.951V7.401H4.785V4.871H4.026V11.427H6.71V4.871ZM1.54 8.127H2.75V10.69H1.54V8.127ZM4.785 8.127H5.951V10.69H4.785V8.127ZM11.8241 4.893H17.6101V5.85H11.8461V8.193H18.7101V7.489H12.7371V6.521H18.5011V4.2H11.8241V4.893ZM19.6451 9.766V9.04H10.7021V9.766H19.6451ZM18.5121 10.679H11.9011V13.682H18.5121V10.679ZM17.6211 12.956H12.7811V11.394H17.6211V12.956Z" fill="#C2C2C2"/>
<path d="M30.6685 46H326" stroke="#DFE0EB" stroke-dasharray="2 3"/>
<path d="M30.6685 80.6667H326" stroke="#DFE0EB" stroke-dasharray="2 3"/>
<path d="M30.6685 11.3645H326" stroke="#DFE0EB" stroke-dasharray="2 3"/>
<path d="M30.6685 115.333H326" stroke="#DFE0EB"/>
<path d="M44.786 132V131.186H43.202V123.893H42.399L40.232 125.763L40.771 126.412L42.234 125.103C42.223 125.18 42.223 125.279 42.223 125.378V131.186H40.43V132H44.786ZM47.0157 131.12H46.0147V132.154H47.0157V131.12ZM54.3469 127.985C54.3469 125.114 53.0489 123.805 51.3879 123.805C49.7159 123.805 48.4289 125.114 48.4289 127.985C48.4289 130.845 49.7159 132.154 51.3879 132.154C53.0489 132.154 54.3469 130.845 54.3469 127.985ZM53.3349 127.985C53.3349 130.493 52.4109 131.34 51.3879 131.34C50.3649 131.34 49.4519 130.493 49.4519 127.985C49.4519 125.466 50.3649 124.63 51.3879 124.63C52.4109 124.63 53.3349 125.466 53.3349 127.985Z" fill="#C2C2C2"/>
<path d="M68.786 132V131.186H67.202V123.893H66.399L64.232 125.763L64.771 126.412L66.234 125.103C66.223 125.18 66.223 125.279 66.223 125.378V131.186H64.43V132H68.786ZM71.0157 131.12H70.0147V132.154H71.0157V131.12ZM74.1889 126.94L74.5519 124.828H77.7089V123.904H73.8479L73.1879 127.721L73.8369 127.908C74.3099 127.743 74.7279 127.644 75.1569 127.644C76.3119 127.644 76.9939 128.26 76.9939 129.316C76.9939 130.504 76.1909 131.197 75.0799 131.197C74.4199 131.197 73.7819 130.9 73.2979 130.493L72.7589 131.23C73.2539 131.703 74.0679 132.099 75.0359 132.099C76.6749 132.099 77.9619 130.977 77.9619 129.261C77.9619 127.853 77.0489 126.797 75.3439 126.797C74.9479 126.797 74.5629 126.841 74.1889 126.94Z" fill="#C2C2C2"/>
<path d="M92.995 132V131.109H89.816C89.541 131.109 89.211 131.153 88.903 131.241L91.158 129.008C92.071 128.095 92.841 127.259 92.841 126.06C92.841 124.63 91.774 123.794 90.399 123.794C89.024 123.794 87.957 124.597 87.748 126.082L88.738 126.247C88.738 125.323 89.42 124.663 90.344 124.663C91.18 124.663 91.796 125.114 91.829 126.082C91.829 127.028 91.213 127.721 90.366 128.623L87.583 131.296V132H92.995ZM95.0157 131.12H94.0147V132.154H95.0157V131.12ZM102.347 127.985C102.347 125.114 101.049 123.805 99.3879 123.805C97.7159 123.805 96.4289 125.114 96.4289 127.985C96.4289 130.845 97.7159 132.154 99.3879 132.154C101.049 132.154 102.347 130.845 102.347 127.985ZM101.335 127.985C101.335 130.493 100.411 131.34 99.3879 131.34C98.3649 131.34 97.4519 130.493 97.4519 127.985C97.4519 125.466 98.3649 124.63 99.3879 124.63C100.411 124.63 101.335 125.466 101.335 127.985Z" fill="#C2C2C2"/>
<path d="M116.995 132V131.109H113.816C113.541 131.109 113.211 131.153 112.903 131.241L115.158 129.008C116.071 128.095 116.841 127.259 116.841 126.06C116.841 124.63 115.774 123.794 114.399 123.794C113.024 123.794 111.957 124.597 111.748 126.082L112.738 126.247C112.738 125.323 113.42 124.663 114.344 124.663C115.18 124.663 115.796 125.114 115.829 126.082C115.829 127.028 115.213 127.721 114.366 128.623L111.583 131.296V132H116.995ZM119.016 131.12H118.015V132.154H119.016V131.12ZM122.189 126.94L122.552 124.828H125.709V123.904H121.848L121.188 127.721L121.837 127.908C122.31 127.743 122.728 127.644 123.157 127.644C124.312 127.644 124.994 128.26 124.994 129.316C124.994 130.504 124.191 131.197 123.08 131.197C122.42 131.197 121.782 130.9 121.298 130.493L120.759 131.23C121.254 131.703 122.068 132.099 123.036 132.099C124.675 132.099 125.962 130.977 125.962 129.261C125.962 127.853 125.049 126.797 123.344 126.797C122.948 126.797 122.563 126.841 122.189 126.94Z" fill="#C2C2C2"/>
<path d="M135.781 126.104L136.782 126.269C136.782 125.367 137.453 124.685 138.377 124.685C139.224 124.685 139.818 125.136 139.818 126.06C139.818 126.896 139.312 127.479 137.893 127.512V128.238C139.62 128.238 139.983 128.876 139.983 129.745C139.983 130.46 139.422 131.274 138.267 131.274C137.431 131.274 136.936 130.845 136.595 130.141C136.507 129.932 136.452 129.767 136.43 129.646L135.528 130.02C135.913 131.208 136.54 132.143 138.278 132.143C139.785 132.143 141.006 131.197 141.006 129.723C141.006 128.711 140.456 128.04 139.4 127.776C140.28 127.479 140.819 126.951 140.819 125.895C140.819 124.663 139.829 123.805 138.432 123.805C137.057 123.805 135.99 124.641 135.781 126.104ZM143.016 131.12H142.015V132.154H143.016V131.12ZM150.347 127.985C150.347 125.114 149.049 123.805 147.388 123.805C145.716 123.805 144.429 125.114 144.429 127.985C144.429 130.845 145.716 132.154 147.388 132.154C149.049 132.154 150.347 130.845 150.347 127.985ZM149.335 127.985C149.335 130.493 148.411 131.34 147.388 131.34C146.365 131.34 145.452 130.493 145.452 127.985C145.452 125.466 146.365 124.63 147.388 124.63C148.411 124.63 149.335 125.466 149.335 127.985Z" fill="#C2C2C2"/>
<path d="M159.781 126.104L160.782 126.269C160.782 125.367 161.453 124.685 162.377 124.685C163.224 124.685 163.818 125.136 163.818 126.06C163.818 126.896 163.312 127.479 161.893 127.512V128.238C163.62 128.238 163.983 128.876 163.983 129.745C163.983 130.46 163.422 131.274 162.267 131.274C161.431 131.274 160.936 130.845 160.595 130.141C160.507 129.932 160.452 129.767 160.43 129.646L159.528 130.02C159.913 131.208 160.54 132.143 162.278 132.143C163.785 132.143 165.006 131.197 165.006 129.723C165.006 128.711 164.456 128.04 163.4 127.776C164.28 127.479 164.819 126.951 164.819 125.895C164.819 124.663 163.829 123.805 162.432 123.805C161.057 123.805 159.99 124.641 159.781 126.104ZM167.016 131.12H166.015V132.154H167.016V131.12ZM170.189 126.94L170.552 124.828H173.709V123.904H169.848L169.188 127.721L169.837 127.908C170.31 127.743 170.728 127.644 171.157 127.644C172.312 127.644 172.994 128.26 172.994 129.316C172.994 130.504 172.191 131.197 171.08 131.197C170.42 131.197 169.782 130.9 169.298 130.493L168.759 131.23C169.254 131.703 170.068 132.099 171.036 132.099C172.675 132.099 173.962 130.977 173.962 129.261C173.962 127.853 173.049 126.797 171.344 126.797C170.948 126.797 170.563 126.841 170.189 126.94Z" fill="#C2C2C2"/>
<path d="M189.38 129.855V129.063H188.159V123.849H187.213L183.242 129.107V129.855H187.268V132H188.159V129.855H189.38ZM187.268 125.697V129.063H184.342L187.312 125.015C187.279 125.246 187.268 125.51 187.268 125.697ZM191.016 131.12H190.015V132.154H191.016V131.12ZM198.347 127.985C198.347 125.114 197.049 123.805 195.388 123.805C193.716 123.805 192.429 125.114 192.429 127.985C192.429 130.845 193.716 132.154 195.388 132.154C197.049 132.154 198.347 130.845 198.347 127.985ZM197.335 127.985C197.335 130.493 196.411 131.34 195.388 131.34C194.365 131.34 193.452 130.493 193.452 127.985C193.452 125.466 194.365 124.63 195.388 124.63C196.411 124.63 197.335 125.466 197.335 127.985Z" fill="#C2C2C2"/>
<path d="M213.38 129.855V129.063H212.159V123.849H211.213L207.242 129.107V129.855H211.268V132H212.159V129.855H213.38ZM211.268 125.697V129.063H208.342L211.312 125.015C211.279 125.246 211.268 125.51 211.268 125.697ZM215.016 131.12H214.015V132.154H215.016V131.12ZM218.189 126.94L218.552 124.828H221.709V123.904H217.848L217.188 127.721L217.837 127.908C218.31 127.743 218.728 127.644 219.157 127.644C220.312 127.644 220.994 128.26 220.994 129.316C220.994 130.504 220.191 131.197 219.08 131.197C218.42 131.197 217.782 130.9 217.298 130.493L216.759 131.23C217.254 131.703 218.068 132.099 219.036 132.099C220.675 132.099 221.962 130.977 221.962 129.261C221.962 127.853 221.049 126.797 219.344 126.797C218.948 126.797 218.563 126.841 218.189 126.94Z" fill="#C2C2C2"/>
<path d="M233.101 126.94L233.464 124.828H236.621V123.904H232.76L232.1 127.721L232.749 127.908C233.222 127.743 233.64 127.644 234.069 127.644C235.224 127.644 235.906 128.26 235.906 129.316C235.906 130.504 235.103 131.197 233.992 131.197C233.332 131.197 232.694 130.9 232.21 130.493L231.671 131.23C232.166 131.703 232.98 132.099 233.948 132.099C235.587 132.099 236.874 130.977 236.874 129.261C236.874 127.853 235.961 126.797 234.256 126.797C233.86 126.797 233.475 126.841 233.101 126.94ZM239.016 131.12H238.015V132.154H239.016V131.12ZM246.347 127.985C246.347 125.114 245.049 123.805 243.388 123.805C241.716 123.805 240.429 125.114 240.429 127.985C240.429 130.845 241.716 132.154 243.388 132.154C245.049 132.154 246.347 130.845 246.347 127.985ZM245.335 127.985C245.335 130.493 244.411 131.34 243.388 131.34C242.365 131.34 241.452 130.493 241.452 127.985C241.452 125.466 242.365 124.63 243.388 124.63C244.411 124.63 245.335 125.466 245.335 127.985Z" fill="#C2C2C2"/>
<path d="M257.101 126.94L257.464 124.828H260.621V123.904H256.76L256.1 127.721L256.749 127.908C257.222 127.743 257.64 127.644 258.069 127.644C259.224 127.644 259.906 128.26 259.906 129.316C259.906 130.504 259.103 131.197 257.992 131.197C257.332 131.197 256.694 130.9 256.21 130.493L255.671 131.23C256.166 131.703 256.98 132.099 257.948 132.099C259.587 132.099 260.874 130.977 260.874 129.261C260.874 127.853 259.961 126.797 258.256 126.797C257.86 126.797 257.475 126.841 257.101 126.94ZM263.016 131.12H262.015V132.154H263.016V131.12ZM266.189 126.94L266.552 124.828H269.709V123.904H265.848L265.188 127.721L265.837 127.908C266.31 127.743 266.728 127.644 267.157 127.644C268.312 127.644 268.994 128.26 268.994 129.316C268.994 130.504 268.191 131.197 267.08 131.197C266.42 131.197 265.782 130.9 265.298 130.493L264.759 131.23C265.254 131.703 266.068 132.099 267.036 132.099C268.675 132.099 269.962 130.977 269.962 129.261C269.962 127.853 269.049 126.797 267.344 126.797C266.948 126.797 266.563 126.841 266.189 126.94Z" fill="#C2C2C2"/>
<path d="M281.651 126.94L284.082 123.893H282.817L280.573 126.918C279.869 127.842 279.572 128.656 279.572 129.371C279.572 131.043 280.639 132.143 282.278 132.143C283.928 132.143 285.072 130.977 285.072 129.481C285.072 127.93 283.972 127.05 282.652 127.05C282.113 127.05 281.662 127.204 281.266 127.468C281.343 127.38 281.464 127.204 281.651 126.94ZM282.256 131.296C281.156 131.296 280.551 130.592 280.551 129.536C280.551 128.623 281.244 127.831 282.322 127.831C283.323 127.831 284.06 128.491 284.06 129.558C284.06 130.559 283.323 131.296 282.256 131.296ZM287.016 131.12H286.015V132.154H287.016V131.12ZM294.347 127.985C294.347 125.114 293.049 123.805 291.388 123.805C289.716 123.805 288.429 125.114 288.429 127.985C288.429 130.845 289.716 132.154 291.388 132.154C293.049 132.154 294.347 130.845 294.347 127.985ZM293.335 127.985C293.335 130.493 292.411 131.34 291.388 131.34C290.365 131.34 289.452 130.493 289.452 127.985C289.452 125.466 290.365 124.63 291.388 124.63C292.411 124.63 293.335 125.466 293.335 127.985Z" fill="#C2C2C2"/>
<path d="M305.651 126.94L308.082 123.893H306.817L304.573 126.918C303.869 127.842 303.572 128.656 303.572 129.371C303.572 131.043 304.639 132.143 306.278 132.143C307.928 132.143 309.072 130.977 309.072 129.481C309.072 127.93 307.972 127.05 306.652 127.05C306.113 127.05 305.662 127.204 305.266 127.468C305.343 127.38 305.464 127.204 305.651 126.94ZM306.256 131.296C305.156 131.296 304.551 130.592 304.551 129.536C304.551 128.623 305.244 127.831 306.322 127.831C307.323 127.831 308.06 128.491 308.06 129.558C308.06 130.559 307.323 131.296 306.256 131.296ZM311.016 131.12H310.015V132.154H311.016V131.12ZM314.189 126.94L314.552 124.828H317.709V123.904H313.848L313.188 127.721L313.837 127.908C314.31 127.743 314.728 127.644 315.157 127.644C316.312 127.644 316.994 128.26 316.994 129.316C316.994 130.504 316.191 131.197 315.08 131.197C314.42 131.197 313.782 130.9 313.298 130.493L312.759 131.23C313.254 131.703 314.068 132.099 315.036 132.099C316.675 132.099 317.962 130.977 317.962 129.261C317.962 127.853 317.049 126.797 315.344 126.797C314.948 126.797 314.563 126.841 314.189 126.94Z" fill="#C2C2C2"/>
<path d="M166.716 68.2743L47 109.818" stroke="#FF6D3B" stroke-width="3"/>
<path d="M215.415 51.375L166.717 68.2742" stroke="#FABF48" stroke-width="3"/>
<path d="M264.112 34.4761L215.414 51.3752" stroke="#62B22F" stroke-width="3"/>
<path d="M312.811 17.5769L264.113 34.476" stroke="#1E76FC" stroke-width="3"/>
<path d="M326 13L312.811 17.5768" stroke="#6967F9" stroke-width="3"/>
<mask id="mask0_317_2650" style="mask-type:alpha" maskUnits="userSpaceOnUse" x="229" y="33" width="48" height="83">
<path d="M276.5 115.5L229 115.5L229 50.0001L276.5 33.0001L276.5 115.5Z" fill="#D9D9D9"/>
</mask>
<g mask="url(#mask0_317_2650)">
<path d="M196.992 52.3102L281.146 22.8316" stroke="#F5F5F5"/>
<path d="M196 49.4788L280.154 20.0002" stroke="#F5F5F5"/>
<path d="M197.984 55.1414L282.137 25.6628" stroke="#F5F5F5"/>
<path d="M198.976 57.9728L283.129 28.4942" stroke="#F5F5F5"/>
<path d="M199.967 60.804L284.121 31.3254" stroke="#F5F5F5"/>
<path d="M200.959 63.6354L285.113 34.1568" stroke="#F5F5F5"/>
<path d="M201.951 66.4666L286.104 36.988" stroke="#F5F5F5"/>
<path d="M202.943 69.2981L287.096 39.8195" stroke="#F5F5F5"/>
<path d="M203.934 72.1293L288.088 42.6507" stroke="#F5F5F5"/>
<path d="M204.926 74.9607L289.08 45.4821" stroke="#F5F5F5"/>
<path d="M205.918 77.7918L290.072 48.3132" stroke="#F5F5F5"/>
<path d="M206.91 80.6233L291.063 51.1447" stroke="#F5F5F5"/>
<path d="M207.902 83.4545L292.055 53.9759" stroke="#F5F5F5"/>
<path d="M208.894 86.2859L293.047 56.8073" stroke="#F5F5F5"/>
<path d="M209.885 89.1171L294.039 59.6385" stroke="#F5F5F5"/>
<path d="M210.877 91.9485L295.03 62.4699" stroke="#F5F5F5"/>
<path d="M211.869 94.7797L296.022 65.3011" stroke="#F5F5F5"/>
<path d="M212.861 97.6111L297.014 68.1325" stroke="#F5F5F5"/>
<path d="M213.853 100.442L298.006 70.9637" stroke="#F5F5F5"/>
<path d="M214.844 103.274L298.998 73.7951" stroke="#F5F5F5"/>
<path d="M215.836 106.105L299.99 76.6266" stroke="#F5F5F5"/>
<path d="M216.828 108.936L300.981 79.4578" stroke="#F5F5F5"/>
<path d="M217.82 111.768L301.973 82.2892" stroke="#F5F5F5"/>
<path d="M218.812 114.599L302.965 85.1204" stroke="#F5F5F5"/>
<path d="M219.803 117.43L303.957 87.9518" stroke="#F5F5F5"/>
<path d="M220.795 120.262L304.949 90.783" stroke="#F5F5F5"/>
<path d="M221.787 123.093L305.94 93.6144" stroke="#F5F5F5"/>
<path d="M222.779 125.924L306.932 96.4456" stroke="#F5F5F5"/>
<path d="M223.771 128.756L307.924 99.277" stroke="#F5F5F5"/>
<path d="M224.762 131.587L308.916 102.108" stroke="#F5F5F5"/>
<path d="M225.754 134.418L309.907 104.94" stroke="#F5F5F5"/>
<path d="M226.746 137.249L310.899 107.771" stroke="#F5F5F5"/>
</g>
<path d="M248.168 60.2201L250.508 60.2201L250.508 63.4961L251.504 63.4961L251.504 57.1361L250.508 57.1361L250.508 59.4161L248.168 59.4161L248.168 60.2201ZM248.42 62.9921L248.948 62.2241C247.364 61.6721 246.332 60.3281 246.332 58.8041L246.332 57.7361L245.348 57.7361L245.348 58.8401C245.348 60.4721 244.292 61.9361 242.624 62.5121L243.14 63.3161C244.436 62.8241 245.396 61.8761 245.864 60.5801C246.332 61.6961 247.22 62.5481 248.42 62.9921ZM247.952 63.8201C245.744 63.8201 244.364 64.5521 244.364 65.8481C244.364 67.1321 245.744 67.8761 247.952 67.8761C250.16 67.8761 251.528 67.1321 251.528 65.8481C251.528 64.5521 250.16 63.8201 247.952 63.8201ZM247.952 67.0961C246.308 67.0961 245.348 66.6281 245.348 65.8481C245.348 65.0321 246.308 64.5881 247.952 64.5881C249.596 64.5881 250.556 65.0321 250.556 65.8481C250.556 66.6281 249.596 67.0961 247.952 67.0961ZM261.283 64.9961L262.267 64.9961L262.267 57.1361L261.283 57.1361L261.283 64.9961ZM259.303 60.5201C259.303 58.9721 258.079 57.8801 256.483 57.8801C254.887 57.8801 253.687 58.9721 253.687 60.5201C253.687 62.0801 254.887 63.1841 256.483 63.1841C258.079 63.1841 259.303 62.0801 259.303 60.5201ZM254.647 60.5201C254.647 59.4761 255.427 58.7321 256.483 58.7321C257.551 58.7321 258.343 59.4761 258.343 60.5201C258.343 61.5881 257.551 62.3321 256.483 62.3321C255.427 62.3321 254.647 61.5881 254.647 60.5201ZM262.591 67.6481L262.591 66.8441L256.327 66.8441L256.327 64.1921L255.343 64.1921L255.343 67.6481L262.591 67.6481ZM250.988 76.4121L252.584 76.4121L252.584 75.5961L250.988 75.5961L250.988 73.1241L250.004 73.1241L250.004 79.2081L250.988 79.2081L250.988 76.4121ZM249.032 77.9121L248.912 77.1081C247.172 77.4441 245.684 77.5521 244.136 77.5641L244.136 73.6641L243.164 73.6641L243.164 78.3921L244.004 78.3921C245.636 78.3921 247.196 78.2841 249.032 77.9121ZM250.988 79.7961L244.208 79.7961L244.208 83.7321L250.988 83.7321L250.988 79.7961ZM250.028 82.9401L245.168 82.9401L245.168 80.5881L250.028 80.5881L250.028 82.9401ZM262.303 83.9001L262.303 73.1241L261.319 73.1241L261.319 75.6321L258.103 75.6321L258.103 76.4361L261.319 76.4361L261.319 78.0801L258.103 78.0801L258.103 78.8841L261.319 78.8841L261.319 83.9001L262.303 83.9001ZM255.007 80.5761L255.007 74.3121L254.023 74.3121L254.023 81.4041L254.839 81.4041C256.699 81.4041 258.067 81.3321 259.627 81.0081L259.519 80.1921C258.043 80.4801 256.723 80.5761 255.007 80.5761ZM248.732 93.7801L250.508 93.7801L250.508 95.7601L251.504 95.7601L251.504 89.1361L250.508 89.1361L250.508 91.0441L248.732 91.0441L248.732 91.8481L250.508 91.8481L250.508 92.9761L248.732 92.9761L248.732 93.7801ZM249.02 94.7641L248.96 94.0321C248.516 94.0921 248.036 94.1401 247.556 94.1761L247.556 90.7321L248.624 90.7321L248.624 89.9401L242.96 89.9401L242.96 90.7321L244.028 90.7321L244.028 94.2961C243.788 94.3081 243.56 94.3081 243.332 94.3081L242.672 94.3081L242.78 95.1241C244.52 95.1241 246.944 95.0881 249.02 94.7641ZM244.976 94.2841L244.976 90.7321L246.596 90.7321L246.596 94.2241C246.056 94.2601 245.504 94.2721 244.976 94.2841ZM247.952 95.9881C245.684 95.9881 244.364 96.6721 244.364 97.9201C244.364 99.1681 245.684 99.8761 247.952 99.8761C250.172 99.8761 251.528 99.1681 251.528 97.9201C251.528 96.6721 250.172 95.9881 247.952 95.9881ZM247.952 99.1081C246.308 99.1081 245.348 98.6881 245.348 97.9201C245.348 97.1881 246.308 96.7441 247.952 96.7441C249.596 96.7441 250.556 97.1881 250.556 97.9201C250.556 98.6881 249.596 99.1081 247.952 99.1081ZM263.203 94.5481L263.203 93.7441L261.691 93.7441C261.943 92.4001 261.943 91.3921 261.943 90.5161L261.943 89.7001L254.659 89.7001L254.659 90.5041L260.971 90.5041L260.971 90.5161C260.971 91.3921 260.983 92.3881 260.707 93.7441L253.435 93.7441L253.435 94.5481L256.675 94.5481L256.675 97.1401L257.635 97.1401L257.635 94.5481L259.531 94.5481L259.531 97.1401L260.491 97.1401L260.491 94.5481L263.203 94.5481ZM262.231 98.8441L255.595 98.8441L255.595 96.2761L254.623 96.2761L254.623 99.6481L262.231 99.6481L262.231 98.8441Z" fill="#C7C7CF"/>
<path fill-rule="evenodd" clip-rule="evenodd" d="M249 0C241.82 0 236 5.8203 236 13C236 20.1797 241.82 26 249 26H258.959L263 33L267.041 26H277C284.18 26 290 20.1797 290 13C290 5.8203 284.18 0 277 0H249Z" fill="black"/>
<path d="M248.644 10.008H255.244V10.392C255.244 12.024 255.172 13.44 254.872 15.06L255.844 15.18C256.228 13.164 256.228 11.76 256.228 10.392V9.204H248.644V10.008ZM257.368 17.376V16.572H253.66V13.008H252.688V16.572H250.996V13.008H250.024V16.572H247.636V17.376H257.368ZM263.295 12.492C265.623 12.492 267.075 11.736 267.075 10.44C267.075 9.144 265.623 8.376 263.295 8.376C260.979 8.376 259.515 9.144 259.515 10.44C259.515 11.736 260.979 12.492 263.295 12.492ZM263.295 9.156C265.035 9.156 266.067 9.624 266.067 10.44C266.067 11.256 265.035 11.724 263.295 11.724C261.555 11.724 260.523 11.256 260.523 10.44C260.523 9.624 261.555 9.156 263.295 9.156ZM265.599 15.468V14.1H268.167V13.308H258.435V14.1H261.003V15.468H259.515V16.26H265.983V18.9H266.967V15.468H265.599ZM261.987 14.1H264.615V15.468H261.987V14.1ZM275.066 14.424H276.002V11.82H277.37V14.772H278.318V8.136H277.37V11.016H276.002V8.34H275.066V14.424ZM274.094 13.932L274.622 13.176C273.242 12.66 272.438 11.424 272.438 10.248V8.796H271.49V10.248C271.49 11.436 270.638 12.864 269.246 13.464L269.774 14.232C270.83 13.764 271.586 12.852 271.97 11.844C272.354 12.756 273.086 13.512 274.094 13.932ZM274.766 15.012C272.558 15.012 271.178 15.732 271.178 16.944C271.178 18.156 272.558 18.876 274.766 18.876C276.974 18.876 278.366 18.156 278.366 16.944C278.366 15.732 276.974 15.012 274.766 15.012ZM274.766 18.12C273.122 18.12 272.15 17.712 272.15 16.944C272.15 16.176 273.122 15.78 274.766 15.78C276.41 15.78 277.394 16.176 277.394 16.944C277.394 17.712 276.41 18.12 274.766 18.12Z" fill="white"/>
<circle cx="263" cy="35" r="3" fill="black"/>
<circle cx="263" cy="35" r="5" fill="black" fill-opacity="0.1"/>
<circle cx="263" cy="35" r="2" fill="white"/>
</svg>
