<svg width="327" height="40" viewBox="0 0 327 40" fill="none" xmlns="http://www.w3.org/2000/svg">
<path d="M14.852 5.568L15.944 5.748C15.944 4.764 16.676 4.02 17.684 4.02C18.608 4.02 19.256 4.512 19.256 5.52C19.256 6.432 18.704 7.068 17.156 7.104V7.896C19.04 7.896 19.436 8.592 19.436 9.54C19.436 10.32 18.824 11.208 17.564 11.208C16.652 11.208 16.112 10.74 15.74 9.972C15.644 9.744 15.584 9.564 15.56 9.432L14.576 9.84C14.996 11.136 15.68 12.156 17.576 12.156C19.22 12.156 20.552 11.124 20.552 9.516C20.552 8.412 19.952 7.68 18.8 7.392C19.76 7.068 20.348 6.492 20.348 5.34C20.348 3.996 19.268 3.06 17.744 3.06C16.244 3.06 15.08 3.972 14.852 5.568ZM22.7444 11.04H21.6524V12.168H22.7444V11.04ZM26.2061 6.48L26.6021 4.176H30.0461V3.168H25.8341L25.1141 7.332L25.8221 7.536C26.3381 7.356 26.7941 7.248 27.2621 7.248C28.5221 7.248 29.2661 7.92 29.2661 9.072C29.2661 10.368 28.3901 11.124 27.1781 11.124C26.4581 11.124 25.7621 10.8 25.2341 10.356L24.6461 11.16C25.1861 11.676 26.0741 12.108 27.1301 12.108C28.9181 12.108 30.3221 10.884 30.3221 9.012C30.3221 7.476 29.3261 6.324 27.4661 6.324C27.0341 6.324 26.6141 6.372 26.2061 6.48ZM43.1901 12.912V2.124H42.2061V12.912H43.1901ZM37.5141 2.952C35.9181 2.952 34.7781 4.416 34.7781 6.708C34.7781 9 35.9181 10.464 37.5141 10.464C39.1101 10.464 40.2501 9 40.2501 6.708C40.2501 4.416 39.1101 2.952 37.5141 2.952ZM37.5141 3.84C38.5581 3.84 39.3021 4.968 39.3021 6.708C39.3021 8.46 38.5581 9.588 37.5141 9.588C36.4581 9.588 35.7141 8.46 35.7141 6.708C35.7141 4.968 36.4581 3.84 37.5141 3.84ZM53.7132 7.38H55.4772V6.552H53.7132V2.136H52.7292V12.888H53.7132V7.38ZM51.7092 3.852H49.0572V2.256H48.0732V3.852H45.3612V4.644H51.7092V3.852ZM48.5772 5.532C47.0652 5.532 45.9732 6.576 45.9732 8.016C45.9732 9.492 47.0652 10.488 48.5772 10.488C50.1132 10.488 51.2052 9.492 51.2052 8.016C51.2052 6.576 50.1132 5.532 48.5772 5.532ZM48.5772 9.672C47.6052 9.672 46.8972 8.976 46.8972 8.016C46.8972 7.056 47.6052 6.348 48.5772 6.348C49.5732 6.348 50.2692 7.056 50.2692 8.016C50.2692 8.976 49.5732 9.672 48.5772 9.672ZM60.3318 7.8H67.7838V6.996H61.3158V3.072H60.3318V7.8ZM68.8998 11.412V10.596H59.1318V11.412H68.8998ZM79.0149 8.508V2.136H78.0309V8.508H79.0149ZM76.8309 7.644L76.7229 6.852C75.0189 7.14 73.6269 7.188 71.7069 7.188V5.7H75.6069V2.772H70.7109V3.576H74.6349V4.944H70.7469V7.992H71.6109C73.5909 7.992 75.0789 7.932 76.8309 7.644ZM79.0149 9.108H72.0549V12.744H79.0149V9.108ZM78.0549 11.952H73.0149V9.888H78.0549V11.952Z" fill="#C2C2C2"/>
<rect y="3" width="8" height="8" rx="4" fill="#FF6D3B"/>
<path d="M14.852 30.568L15.944 30.748C15.944 29.764 16.676 29.02 17.684 29.02C18.608 29.02 19.256 29.512 19.256 30.52C19.256 31.432 18.704 32.068 17.156 32.104V32.896C19.04 32.896 19.436 33.592 19.436 34.54C19.436 35.32 18.824 36.208 17.564 36.208C16.652 36.208 16.112 35.74 15.74 34.972C15.644 34.744 15.584 34.564 15.56 34.432L14.576 34.84C14.996 36.136 15.68 37.156 17.576 37.156C19.22 37.156 20.552 36.124 20.552 34.516C20.552 33.412 19.952 32.68 18.8 32.392C19.76 32.068 20.348 31.492 20.348 30.34C20.348 28.996 19.268 28.06 17.744 28.06C16.244 28.06 15.08 28.972 14.852 30.568ZM22.7444 36.04H21.6524V37.168H22.7444V36.04ZM26.2061 31.48L26.6021 29.176H30.0461V28.168H25.8341L25.1141 32.332L25.8221 32.536C26.3381 32.356 26.7941 32.248 27.2621 32.248C28.5221 32.248 29.2661 32.92 29.2661 34.072C29.2661 35.368 28.3901 36.124 27.1781 36.124C26.4581 36.124 25.7621 35.8 25.2341 35.356L24.6461 36.16C25.1861 36.676 26.0741 37.108 27.1301 37.108C28.9181 37.108 30.3221 35.884 30.3221 34.012C30.3221 32.476 29.3261 31.324 27.4661 31.324C27.0341 31.324 26.6141 31.372 26.2061 31.48ZM35.6225 32.164H31.6625V33.004H35.6225V32.164ZM43.1788 34.66V33.796H41.8468V28.108H40.8148L36.4828 33.844V34.66H40.8748V37H41.8468V34.66H43.1788ZM40.8748 30.124V33.796H37.6828L40.9228 29.38C40.8868 29.632 40.8748 29.92 40.8748 30.124ZM44.9632 36.04H43.8712V37.168H44.9632V36.04ZM48.4248 31.48L48.8208 29.176H52.2648V28.168H48.0528L47.3328 32.332L48.0408 32.536C48.5568 32.356 49.0128 32.248 49.4808 32.248C50.7408 32.248 51.4848 32.92 51.4848 34.072C51.4848 35.368 50.6088 36.124 49.3968 36.124C48.6768 36.124 47.9808 35.8 47.4528 35.356L46.8648 36.16C47.4048 36.676 48.2928 37.108 49.3488 37.108C51.1368 37.108 52.5408 35.884 52.5408 34.012C52.5408 32.476 51.5448 31.324 49.6848 31.324C49.2528 31.324 48.8328 31.372 48.4248 31.48ZM64.8808 32.188H66.6568V31.372H64.8808V27.124H63.8968V37.912H64.8808V32.188ZM58.0408 34.384V28.972H62.0608V28.156H57.0568V35.224H57.9088C59.9248 35.224 61.3648 35.164 62.9968 34.84L62.8888 34.024C61.3408 34.312 59.9608 34.384 58.0408 34.384ZM76.5079 33.196L76.9279 32.38C75.0439 32.056 72.9919 30.46 72.9919 28.672V27.844H71.9599V28.672C71.9599 30.46 69.9199 32.056 68.0359 32.38L68.4439 33.196C70.0999 32.848 71.7679 31.732 72.4759 30.196C73.1839 31.732 74.8639 32.836 76.5079 33.196ZM77.4079 36.484V35.68H72.9679V33.064H71.9839V35.68H67.6399V36.484H77.4079ZM82.5506 32.8H90.0026V31.996H83.5346V28.072H82.5506V32.8ZM91.1186 36.412V35.596H81.3506V36.412H91.1186ZM101.234 33.508V27.136H100.25V33.508H101.234ZM99.0496 32.644L98.9416 31.852C97.2376 32.14 95.8456 32.188 93.9256 32.188V30.7H97.8256V27.772H92.9296V28.576H96.8536V29.944H92.9656V32.992H93.8296C95.8096 32.992 97.2976 32.932 99.0496 32.644ZM101.234 34.108H94.2736V37.744H101.234V34.108ZM100.274 36.952H95.2336V34.888H100.274V36.952Z" fill="#C2C2C2"/>
<rect y="28" width="8" height="8" rx="4" fill="#FABF48"/>
<path d="M143.96 9.66V8.796H142.628V3.108H141.596L137.264 8.844V9.66H141.656V12H142.628V9.66H143.96ZM141.656 5.124V8.796H138.464L141.704 4.38C141.668 4.632 141.656 4.92 141.656 5.124ZM145.744 11.04H144.652V12.168H145.744V11.04ZM149.206 6.48L149.602 4.176H153.046V3.168H148.834L148.114 7.332L148.822 7.536C149.338 7.356 149.794 7.248 150.262 7.248C151.522 7.248 152.266 7.92 152.266 9.072C152.266 10.368 151.39 11.124 150.178 11.124C149.458 11.124 148.762 10.8 148.234 10.356L147.646 11.16C148.186 11.676 149.074 12.108 150.13 12.108C151.918 12.108 153.322 10.884 153.322 9.012C153.322 7.476 152.326 6.324 150.466 6.324C150.034 6.324 149.614 6.372 149.206 6.48ZM158.623 7.164H154.663V8.004H158.623V7.164ZM161.511 6.48L161.907 4.176H165.351V3.168H161.139L160.419 7.332L161.127 7.536C161.643 7.356 162.099 7.248 162.567 7.248C163.827 7.248 164.571 7.92 164.571 9.072C164.571 10.368 163.695 11.124 162.483 11.124C161.763 11.124 161.067 10.8 160.539 10.356L159.951 11.16C160.491 11.676 161.379 12.108 162.435 12.108C164.223 12.108 165.627 10.884 165.627 9.012C165.627 7.476 164.631 6.324 162.771 6.324C162.339 6.324 161.919 6.372 161.511 6.48ZM167.963 11.04H166.871V12.168H167.963V11.04ZM171.425 6.48L171.821 4.176H175.265V3.168H171.053L170.333 7.332L171.041 7.536C171.557 7.356 172.013 7.248 172.481 7.248C173.741 7.248 174.485 7.92 174.485 9.072C174.485 10.368 173.609 11.124 172.397 11.124C171.677 11.124 170.981 10.8 170.453 10.356L169.865 11.16C170.405 11.676 171.293 12.108 172.349 12.108C174.137 12.108 175.541 10.884 175.541 9.012C175.541 7.476 174.545 6.324 172.685 6.324C172.253 6.324 171.833 6.372 171.425 6.48ZM189.357 11.508V10.704H184.965V8.388H188.181V2.892H187.221V4.812H181.725V2.892H180.753V8.388H183.969V10.704H179.601V11.508H189.357ZM187.221 7.596H181.725V5.616H187.221V7.596ZM200.372 8.616V7.824H195.992V6.768H199.232V6H192.896V4.944H198.884V4.2H192.896V3.204H199.172V2.436H191.912V6.768H195.008V7.824H190.628V8.616H200.372ZM195.5 9.432C193.112 9.432 191.816 10.032 191.816 11.148C191.816 12.3 193.112 12.876 195.5 12.876C197.888 12.876 199.184 12.3 199.184 11.148C199.184 10.032 197.888 9.432 195.5 9.432ZM195.5 12.132C193.76 12.132 192.8 11.82 192.8 11.148C192.8 10.512 193.76 10.164 195.5 10.164C197.24 10.164 198.2 10.512 198.2 11.148C198.2 11.82 197.24 12.132 195.5 12.132Z" fill="#C2C2C2"/>
<rect x="123" y="3" width="8" height="8" rx="4" fill="#62B22F"/>
<path d="M139.292 31.48L139.688 29.176H143.132V28.168H138.92L138.2 32.332L138.908 32.536C139.424 32.356 139.88 32.248 140.348 32.248C141.608 32.248 142.352 32.92 142.352 34.072C142.352 35.368 141.476 36.124 140.264 36.124C139.544 36.124 138.848 35.8 138.32 35.356L137.732 36.16C138.272 36.676 139.16 37.108 140.216 37.108C142.004 37.108 143.408 35.884 143.408 34.012C143.408 32.476 142.412 31.324 140.552 31.324C140.12 31.324 139.7 31.372 139.292 31.48ZM145.744 36.04H144.652V37.168H145.744V36.04ZM149.206 31.48L149.602 29.176H153.046V28.168H148.834L148.114 32.332L148.822 32.536C149.338 32.356 149.794 32.248 150.262 32.248C151.522 32.248 152.266 32.92 152.266 34.072C152.266 35.368 151.39 36.124 150.178 36.124C149.458 36.124 148.762 35.8 148.234 35.356L147.646 36.16C148.186 36.676 149.074 37.108 150.13 37.108C151.918 37.108 153.322 35.884 153.322 34.012C153.322 32.476 152.326 31.324 150.466 31.324C150.034 31.324 149.614 31.372 149.206 31.48ZM158.623 32.164H154.663V33.004H158.623V32.164ZM162.111 31.48L164.763 28.156H163.383L160.935 31.456C160.167 32.464 159.843 33.352 159.843 34.132C159.843 35.956 161.007 37.156 162.795 37.156C164.595 37.156 165.843 35.884 165.843 34.252C165.843 32.56 164.643 31.6 163.203 31.6C162.615 31.6 162.123 31.768 161.691 32.056C161.775 31.96 161.907 31.768 162.111 31.48ZM162.771 36.232C161.571 36.232 160.911 35.464 160.911 34.312C160.911 33.316 161.667 32.452 162.843 32.452C163.935 32.452 164.739 33.172 164.739 34.336C164.739 35.428 163.935 36.232 162.771 36.232ZM167.963 36.04H166.871V37.168H167.963V36.04ZM171.425 31.48L171.821 29.176H175.265V28.168H171.053L170.333 32.332L171.041 32.536C171.557 32.356 172.013 32.248 172.481 32.248C173.741 32.248 174.485 32.92 174.485 34.072C174.485 35.368 173.609 36.124 172.397 36.124C171.677 36.124 170.981 35.8 170.453 35.356L169.865 36.16C170.405 36.676 171.293 37.108 172.349 37.108C174.137 37.108 175.541 35.884 175.541 34.012C175.541 32.476 174.545 31.324 172.685 31.324C172.253 31.324 171.833 31.372 171.425 31.48ZM187.881 32.188H189.657V31.372H187.881V27.124H186.897V37.912H187.881V32.188ZM181.041 34.384V28.972H185.061V28.156H180.057V35.224H180.909C182.925 35.224 184.365 35.164 185.997 34.84L185.889 34.024C184.341 34.312 182.961 34.384 181.041 34.384ZM199.508 33.196L199.928 32.38C198.044 32.056 195.992 30.46 195.992 28.672V27.844H194.96V28.672C194.96 30.46 192.92 32.056 191.036 32.38L191.444 33.196C193.1 32.848 194.768 31.732 195.476 30.196C196.184 31.732 197.864 32.836 199.508 33.196ZM200.408 36.484V35.68H195.968V33.064H194.984V35.68H190.64V36.484H200.408ZM212.931 32.152H214.371V31.324H212.931V27.124H211.959V37.888H212.931V32.152ZM207.543 28.132H206.727V30.892H205.407V28.132H204.567V35.284H207.543V28.132ZM211.047 28.132H210.219V30.892H208.947V28.132H208.119V35.284H211.047V28.132ZM205.407 31.684H206.727V34.48H205.407V31.684ZM208.947 31.684H210.219V34.48H208.947V31.684ZM216.626 28.156H222.938V29.2H216.65V31.756H224.138V30.988H217.622V29.932H223.91V27.4H216.626V28.156ZM225.158 33.472V32.68H215.402V33.472H225.158ZM223.922 34.468H216.71V37.744H223.922V34.468ZM222.95 36.952H217.67V35.248H222.95V36.952Z" fill="#C2C2C2"/>
<rect x="123" y="29" width="8" height="8" rx="4" fill="#1E76FC"/>
<path d="M262.892 6.48L265.544 3.156H264.164L261.716 6.456C260.948 7.464 260.624 8.352 260.624 9.132C260.624 10.956 261.788 12.156 263.576 12.156C265.376 12.156 266.624 10.884 266.624 9.252C266.624 7.56 265.424 6.6 263.984 6.6C263.396 6.6 262.904 6.768 262.472 7.056C262.556 6.96 262.688 6.768 262.892 6.48ZM263.552 11.232C262.352 11.232 261.692 10.464 261.692 9.312C261.692 8.316 262.448 7.452 263.624 7.452C264.716 7.452 265.52 8.172 265.52 9.336C265.52 10.428 264.716 11.232 263.552 11.232ZM268.744 11.04H267.652V12.168H268.744V11.04ZM272.206 6.48L272.602 4.176H276.046V3.168H271.834L271.114 7.332L271.822 7.536C272.338 7.356 272.794 7.248 273.262 7.248C274.522 7.248 275.266 7.92 275.266 9.072C275.266 10.368 274.39 11.124 273.178 11.124C272.458 11.124 271.762 10.8 271.234 10.356L270.646 11.16C271.186 11.676 272.074 12.108 273.13 12.108C274.918 12.108 276.322 10.884 276.322 9.012C276.322 7.476 275.326 6.324 273.466 6.324C273.034 6.324 272.614 6.372 272.206 6.48ZM289.19 12.912V2.124H288.206V12.912H289.19ZM283.514 2.952C281.918 2.952 280.778 4.416 280.778 6.708C280.778 9 281.918 10.464 283.514 10.464C285.11 10.464 286.25 9 286.25 6.708C286.25 4.416 285.11 2.952 283.514 2.952ZM283.514 3.84C284.558 3.84 285.302 4.968 285.302 6.708C285.302 8.46 284.558 9.588 283.514 9.588C282.458 9.588 281.714 8.46 281.714 6.708C281.714 4.968 282.458 3.84 283.514 3.84ZM301.369 5.724V4.908H299.773V2.136H298.789V8.652H299.773V5.724H301.369ZM297.121 7.956L297.637 7.188C296.101 6.672 295.033 5.304 295.033 3.864V2.676H294.049V3.78C294.049 5.4 293.005 6.9 291.373 7.476L291.889 8.256C293.149 7.776 294.109 6.792 294.553 5.532C295.033 6.636 295.957 7.524 297.121 7.956ZM296.353 8.952C294.157 8.952 292.801 9.672 292.801 10.92C292.801 12.168 294.157 12.876 296.353 12.876C298.525 12.876 299.893 12.168 299.893 10.92C299.893 9.672 298.525 8.952 296.353 8.952ZM296.353 12.108C294.757 12.108 293.785 11.688 293.785 10.92C293.785 10.152 294.757 9.72 296.353 9.72C297.949 9.72 298.909 10.152 298.909 10.92C298.909 11.688 297.949 12.108 296.353 12.108ZM313.712 7.152H315.152V6.324H313.712V2.124H312.74V12.888H313.712V7.152ZM308.324 3.132H307.508V5.892H306.188V3.132H305.348V10.284H308.324V3.132ZM311.828 3.132H311V5.892H309.728V3.132H308.9V10.284H311.828V3.132ZM306.188 6.684H307.508V9.48H306.188V6.684ZM309.728 6.684H311V9.48H309.728V6.684ZM317.407 3.156H323.719V4.2H317.431V6.756H324.919V5.988H318.403V4.932H324.691V2.4H317.407V3.156ZM325.939 8.472V7.68H316.183V8.472H325.939ZM324.703 9.468H317.491V12.744H324.703V9.468ZM323.731 11.952H318.451V10.248H323.731V11.952Z" fill="#C2C2C2"/>
<rect x="246" y="4" width="8" height="8" rx="4" fill="#6967F9"/>
</svg>
