<svg width="316" height="83" viewBox="0 0 316 83" fill="none" xmlns="http://www.w3.org/2000/svg">
<path d="M0 31.8111C4.97553 32.7217 5.71757 33.461 6.63363 38.4093C7.54969 33.4604 8.29234 32.7211 13.2673 31.8111C8.29173 30.8999 7.54969 30.1612 6.63363 25.2129C5.71757 30.1619 4.97491 30.8999 0 31.8111Z" fill="white"/>
<path d="M282.031 4.44371C285.382 5.05684 285.881 5.55479 286.499 8.88741C287.115 5.55479 287.615 5.05745 290.966 4.44371C287.615 3.83057 287.116 3.33324 286.499 0C285.881 3.33324 285.382 3.82996 282.031 4.44371V4.44371Z" fill="white"/>
<path d="M306.523 32.3836C310.077 33.0339 310.607 33.5624 311.262 37.0973C311.916 33.5624 312.446 33.0339 316.001 32.3836C312.447 31.7321 311.917 31.2049 311.262 27.6699C310.607 31.2049 310.077 31.7321 306.523 32.3836Z" fill="white"/>
<path d="M300.467 79.9841C302.737 80.3998 303.076 80.7374 303.494 82.9955C303.912 80.7374 304.251 80.3998 306.522 79.9841C304.251 79.5678 303.912 79.2308 303.494 76.9727C303.076 79.2308 302.737 79.5678 300.467 79.9841Z" fill="white"/>
<path d="M10.8828 79.989C13.153 80.4046 13.4925 80.7411 13.9104 82.9998C14.3283 80.7417 14.6678 80.4046 16.938 79.989C14.6678 79.5727 14.3283 79.2357 13.9104 76.9775C13.4925 79.2357 13.153 79.5727 10.8828 79.989V79.989Z" fill="white"/>
<path d="M29.9395 3.01143C32.2097 3.4271 32.5492 3.76353 32.967 6.02226C33.3849 3.76414 33.7244 3.4271 35.9946 3.01143C33.7244 2.59516 33.3849 2.25812 32.967 0C32.5492 2.25812 32.2097 2.59516 29.9395 3.01143V3.01143Z" fill="white"/>
</svg>
