<svg width="260" height="76" viewBox="0 0 260 76" fill="none" xmlns="http://www.w3.org/2000/svg">
<g filter="url(#filter0_d_707_295)">
<mask id="path-1-inside-1_707_295" fill="white">
<path fill-rule="evenodd" clip-rule="evenodd" d="M30.1609 0C13.5035 0 0 13.5035 0 30.1609C0 46.8183 13.5035 60.3218 30.1609 60.3218H39.1785L41.9434 66.9306C43.6561 71.0242 49.456 71.0242 51.1686 66.9306L53.9335 60.3218H227.839C244.497 60.3218 258 46.8183 258 30.1609C258 13.5035 244.497 0 227.839 0H30.1609Z"/>
</mask>
<path fill-rule="evenodd" clip-rule="evenodd" d="M30.1609 0C13.5035 0 0 13.5035 0 30.1609C0 46.8183 13.5035 60.3218 30.1609 60.3218H39.1785L41.9434 66.9306C43.6561 71.0242 49.456 71.0242 51.1686 66.9306L53.9335 60.3218H227.839C244.497 60.3218 258 46.8183 258 30.1609C258 13.5035 244.497 0 227.839 0H30.1609Z" fill="white"/>
<path d="M39.1785 60.3218L41.9461 59.1639L41.1754 57.3218H39.1785V60.3218ZM41.9434 66.9306L44.711 65.7727L44.711 65.7727L41.9434 66.9306ZM51.1686 66.9306L48.401 65.7727L48.401 65.7727L51.1686 66.9306ZM53.9335 60.3218V57.3218H51.9367L51.166 59.1639L53.9335 60.3218ZM3 30.1609C3 15.1603 15.1603 3 30.1609 3V-3C11.8466 -3 -3 11.8466 -3 30.1609H3ZM30.1609 57.3218C15.1603 57.3218 3 45.1614 3 30.1609H-3C-3 48.4751 11.8466 63.3218 30.1609 63.3218V57.3218ZM39.1785 57.3218H30.1609V63.3218H39.1785V57.3218ZM44.711 65.7727L41.9461 59.1639L36.411 61.4796L39.1759 68.0884L44.711 65.7727ZM48.401 65.7727C47.716 67.4102 45.396 67.4102 44.711 65.7727L39.1759 68.0884C41.9161 74.6383 51.1959 74.6383 53.9362 68.0884L48.401 65.7727ZM51.166 59.1639L48.401 65.7727L53.9362 68.0884L56.7011 61.4796L51.166 59.1639ZM227.839 57.3218H53.9335V63.3218H227.839V57.3218ZM255 30.1609C255 45.1614 242.84 57.3218 227.839 57.3218V63.3218C246.153 63.3218 261 48.4751 261 30.1609H255ZM227.839 3C242.84 3 255 15.1603 255 30.1609H261C261 11.8466 246.153 -3 227.839 -3V3ZM30.1609 3H227.839V-3H30.1609V3Z" fill="#5F4EEE" mask="url(#path-1-inside-1_707_295)"/>
</g>
<defs>
<filter id="filter0_d_707_295" x="0" y="0" width="260" height="76.001" filterUnits="userSpaceOnUse" color-interpolation-filters="sRGB">
<feFlood flood-opacity="0" result="BackgroundImageFix"/>
<feColorMatrix in="SourceAlpha" type="matrix" values="0 0 0 0 0 0 0 0 0 0 0 0 0 0 0 0 0 0 127 0" result="hardAlpha"/>
<feOffset dx="2" dy="6"/>
<feComposite in2="hardAlpha" operator="out"/>
<feColorMatrix type="matrix" values="0 0 0 0 0.372549 0 0 0 0 0.305882 0 0 0 0 0.933333 0 0 0 1 0"/>
<feBlend mode="normal" in2="BackgroundImageFix" result="effect1_dropShadow_707_295"/>
<feBlend mode="normal" in="SourceGraphic" in2="effect1_dropShadow_707_295" result="shape"/>
</filter>
</defs>
</svg>
