<svg width="111" height="225" viewBox="0 0 111 225" fill="none" xmlns="http://www.w3.org/2000/svg">
<path fill-rule="evenodd" clip-rule="evenodd" d="M0 0H56.5371C45.4766 0 36.5117 8.94336 36.5117 19.9766C36.5117 31.0088 45.4766 39.9531 56.5371 39.9531C67.5957 39.9531 76.5605 31.0088 76.5605 19.9766C76.5605 8.94336 67.5957 0 56.5371 0H111V225H70.0879C75.541 224.995 80.8379 221.493 80.541 214.479C79.2266 182.87 79.1836 151.218 79.1836 119.566C79.1836 118.593 79.0566 117.705 78.8438 116.816C78.8438 108.844 78.6602 100.872 78.5371 92.9082C78.4473 87.1338 78.3906 81.3633 78.4629 75.6006C84.9512 86.6025 85.5449 103.359 84.4434 114.192C83.1699 126.422 102.301 126.295 103.531 114.192C106.5 85.6299 95.6836 47.9697 62.3008 45.6416C57.5508 44.6689 52.375 44.7109 47.668 45.8115C15.8965 49.5352 5.54688 86.2646 8.47266 114.234C9.74609 126.337 28.877 126.464 27.5605 114.234C26.5 104.037 26.9668 88.6338 32.3965 77.7168V117.578C32.3965 118.043 32.4395 118.509 32.4824 118.932C32.4824 119.033 32.4727 119.125 32.4629 119.22C32.4512 119.324 32.4395 119.434 32.4395 119.566C32.4395 151.218 32.3965 182.828 31.082 214.479C30.7852 221.493 36.082 224.995 41.5352 225H0V0ZM41.5605 225H70.0645C64.6035 224.995 58.9922 221.482 58.6953 214.479C57.6777 189.683 57.4238 164.886 57.3809 140.089C56.3633 140.174 55.3027 140.174 54.2852 140.089C54.1992 164.886 53.9453 189.683 52.9277 214.479C52.6309 221.482 47.0215 224.994 41.5605 225Z" fill="#181834"/>
</svg>
