<svg width="16" height="16" viewBox="0 0 16 16" fill="none" xmlns="http://www.w3.org/2000/svg">
<path d="M6.00065 7.33333C7.47341 7.33333 8.66732 6.13943 8.66732 4.66667C8.66732 3.19391 7.47341 2 6.00065 2C4.52789 2 3.33398 3.19391 3.33398 4.66667C3.33398 6.13943 4.52789 7.33333 6.00065 7.33333Z" stroke="#333333" stroke-linecap="round" stroke-linejoin="round"/>
<path d="M1.33398 14V11.3333C1.33398 10.5969 1.93094 10 2.66732 10H9.33398C10.0704 10 10.6673 10.5969 10.6673 11.3333V14" stroke="#333333" stroke-linecap="round" stroke-linejoin="round"/>
<path d="M10.666 2C11.2396 2.14687 11.748 2.48047 12.1111 2.94821C12.4741 3.41595 12.6712 3.99122 12.6712 4.58333C12.6712 5.17545 12.4741 5.75072 12.1111 6.21846C11.748 6.6862 11.2396 7.0198 10.666 7.16667" stroke="#333333" stroke-linecap="round" stroke-linejoin="round"/>
<path d="M12.666 10H13.3327C14.0691 10 14.666 10.5969 14.666 11.3333V14" stroke="#333333" stroke-linecap="round" stroke-linejoin="round"/>
</svg>
