<svg width="222" height="157" viewBox="0 0 222 157" fill="none" xmlns="http://www.w3.org/2000/svg">
<path fill-rule="evenodd" clip-rule="evenodd" d="M76.4843 76.8988C78.7316 76.8099 80.7277 76.4959 82.4724 75.9567C84.5614 75.3111 86.2902 74.4144 87.6589 73.2667C89.0635 72.119 90.09 70.7561 90.7383 69.178C91.4226 67.564 91.7648 65.7886 91.7648 63.8519V57.665C91.7648 55.7282 91.4226 53.9708 90.7383 52.3927C90.09 50.7787 89.0635 49.3978 87.6589 48.2501C86.2902 47.0665 84.5614 46.1699 82.4724 45.5602C80.7277 45.021 78.7316 44.7069 76.4843 44.6181V52.5689C78.1431 52.745 79.4728 53.2601 80.4735 54.1142C81.7341 55.1902 82.3644 56.6428 82.3644 58.472V62.9911C82.3644 64.8202 81.7341 66.2728 80.4735 67.3488C79.4728 68.2029 78.1431 68.718 76.4843 68.8942V76.8988ZM73.9831 52.5479C72.2227 52.701 70.8205 53.2231 69.7765 54.1142C68.5519 55.1902 67.9396 56.6428 67.9396 58.472V62.9911C67.9396 64.8202 68.5519 66.2728 69.7765 67.3488C70.8205 68.2399 72.2227 68.762 73.9831 68.9151V76.9067C71.6422 76.83 69.5557 76.5133 67.7235 75.9567C65.6345 75.3111 63.9057 74.4144 62.5371 73.2667C61.1684 72.119 60.142 70.7561 59.4576 69.178C58.7733 67.564 58.4312 65.7886 58.4312 63.8519V57.665C58.4312 55.7282 58.7733 53.9708 59.4576 52.3927C60.142 50.7787 61.1684 49.3978 62.5371 48.2501C63.9057 47.0665 65.6345 46.1699 67.7235 45.5602C69.5557 45.0035 71.6422 44.6869 73.9831 44.6102V52.5479ZM5.67372 45.2374V75.2573H49.0561V45.2374H5.67372ZM39.3855 67.1874H15.3983V53.4148H39.3855V67.1874ZM32.4163 84.1341V77.194H22.1515V84.1341H2V92.473H52.7838V84.1341H32.4163ZM105.865 44H96.1408V94.3559H105.865V44ZM93.8178 90.9666V82.5739H57.5668V90.9666H93.8178ZM150.573 49.5413H143.82V45.614H114.214V73.3743H143.82V69.2318H150.573V80.4758H160.19V44H150.573V49.5413ZM129.287 85.9095V76.7098H119.617V93.8718H161.162V85.9095H129.287ZM134.744 65.681H123.614V53.4148H134.744V65.681ZM143.82 61.4309V57.3422H150.573V61.4309H143.82ZM205.329 54.2218H197.982V62.2917H205.329V70.8995H215V44H205.329V54.2218ZM183.719 76.5485V72.4597H174.211V94.1945H215V72.4597H205.492V76.5485H183.719ZM205.492 83.5961V86.9855H183.719V83.5961H205.492ZM189.014 56.9656V53.7934H179.343V56.9656L166.485 70.1464H177.344L184.152 63.2601L190.959 70.1464H201.818L189.014 56.9656ZM200.791 44.9684V51.3027L168.16 51.3027V44.9684H200.791ZM78.2044 139.569V145.272H88.4693V139.569H107.864V131.876H57.0805V139.569H78.2044ZM60.8623 106.644V129.401H104.029V106.644H94.304V110.948H70.5869V106.644H60.8623ZM94.304 118.211V122.192H70.5869V118.211H94.304ZM70.6409 148.177V142.044H60.7002V156.139H105.271V148.177H70.6409ZM149.871 115.306H141.875V123.645H149.871V136.341H159.541V106.267H149.871V115.306ZM149.925 146.186V157H159.541V138.224H117.942V146.186H149.925ZM123.722 106.59L123.668 115.198L110.864 135.104H121.021L122.469 132.968L133.393 114.125V106.59H123.722ZM134.585 117.051L129.616 125.622L136.04 135.104H146.197L134.585 117.051Z" fill="url(#paint0_linear_248_283)"/>
<path d="M0 14.5C0 6.49187 6.6681 0 14.8936 0H145.106C153.332 0 160 6.49187 160 14.5C160 22.5081 153.332 29 145.106 29H14.8936C6.6681 29 0 22.5081 0 14.5Z" fill="#0068ED"/>
<path d="M118 35L110 27H118V35Z" fill="#0068ED"/>
<path d="M38.9405 9.27111V8H43.251V9.27111H38.9405ZM37 11.3078V10.0078H45.1767V11.3078H37ZM44.6138 14.0956C44.6138 14.423 44.5249 14.7263 44.3472 15.0056C44.1793 15.2752 43.9374 15.5111 43.6214 15.7133C43.3152 15.9059 42.9449 16.06 42.5104 16.1756C42.0759 16.2815 41.6019 16.3344 41.0884 16.3344C40.565 16.3344 40.086 16.2815 39.6515 16.1756C39.2269 16.06 38.8565 15.9059 38.5405 15.7133C38.2245 15.5111 37.9777 15.2752 37.7999 15.0056C37.632 14.7263 37.5481 14.423 37.5481 14.0956C37.5481 13.7681 37.632 13.4696 37.7999 13.2C37.9777 12.9207 38.2245 12.6848 38.5405 12.4922C38.8565 12.29 39.2269 12.1359 39.6515 12.03C40.086 11.9144 40.565 11.8567 41.0884 11.8567C41.6019 11.8567 42.0759 11.9144 42.5104 12.03C42.9449 12.1359 43.3152 12.29 43.6214 12.4922C43.9374 12.6848 44.1793 12.9207 44.3472 13.2C44.5249 13.4696 44.6138 13.7681 44.6138 14.0956ZM39.0886 20.7689V17.0856H40.7921V19.3967H48.5096V20.7689H39.0886ZM46.4062 17.62V8.08667H48.08V11.8567H49.9316V13.2433H48.08V17.62H46.4062ZM42.94 14.0956C42.94 13.7585 42.7622 13.5033 42.4067 13.33C42.0512 13.1567 41.6117 13.07 41.0884 13.07C40.565 13.07 40.1206 13.1567 39.7552 13.33C39.3997 13.5033 39.2219 13.7585 39.2219 14.0956C39.2219 14.4326 39.3997 14.6878 39.7552 14.8611C40.1206 15.0344 40.565 15.1211 41.0884 15.1211C41.6117 15.1211 42.0512 15.0344 42.4067 14.8611C42.7622 14.6878 42.94 14.4326 42.94 14.0956Z" fill="white"/>
<path d="M57.6924 15.4822V18.1689H55.9593V15.4822H50.1971V14.1533H63.1436V15.4822H57.6924ZM51.8413 20.7689V16.6811H53.5448V19.4256H61.8993V20.7689H51.8413ZM51.8117 12.7233V8.11556H53.4856V11.38H61.6771V12.7233H51.8117Z" fill="white"/>
<path d="M71.6006 20.3933V13.9944H70.2822C70.2131 15.3907 69.907 16.4789 69.3638 17.2589C68.8306 18.0293 68.1146 18.4144 67.216 18.4144C66.742 18.4144 66.3173 18.3037 65.9421 18.0822C65.5668 17.8511 65.2459 17.5237 64.9792 17.1C64.7126 16.6763 64.5052 16.1611 64.3571 15.5544C64.2188 14.9381 64.1497 14.24 64.1497 13.46C64.1497 12.68 64.2188 11.9867 64.3571 11.38C64.5052 10.7637 64.7126 10.2437 64.9792 9.82C65.2459 9.3963 65.5668 9.0737 65.9421 8.85222C66.3173 8.62111 66.742 8.50556 67.216 8.50556C68.0652 8.50556 68.7565 8.85704 69.2898 9.56C69.823 10.263 70.144 11.2596 70.2526 12.55H71.6006V8.31778H73.2448V20.3933H71.6006ZM74.341 21V8.10111H76V21H74.341ZM67.216 17.0567C67.4628 17.0567 67.6752 16.97 67.8529 16.7967C68.0405 16.6137 68.1936 16.3633 68.3121 16.0456C68.4405 15.7181 68.5343 15.3378 68.5936 14.9044C68.6528 14.4615 68.6824 13.98 68.6824 13.46C68.6824 12.94 68.6528 12.4633 68.5936 12.03C68.5343 11.587 68.4405 11.2067 68.3121 10.8889C68.1936 10.5615 68.0405 10.3111 67.8529 10.1378C67.6752 9.95481 67.4628 9.86333 67.216 9.86333C66.979 9.86333 66.7666 9.95481 66.579 10.1378C66.4013 10.3111 66.2482 10.5615 66.1198 10.8889C66.0013 11.2067 65.9075 11.587 65.8384 12.03C65.7791 12.4633 65.7495 12.94 65.7495 13.46C65.7495 13.98 65.7791 14.4615 65.8384 14.9044C65.9075 15.3378 66.0013 15.7181 66.1198 16.0456C66.2482 16.3633 66.4013 16.6137 66.579 16.7967C66.7666 16.97 66.979 17.0567 67.216 17.0567Z" fill="white"/>
<path d="M97 19.7534V18.3584H102.704V15.7317H98.7007V8.38584H100.401V10.597H106.753V8.38584H108.454V15.7317H104.435V18.3584H110.154V19.7534H97ZM106.753 11.9623H100.401V14.3368H106.753V11.9623Z" fill="white"/>
<path d="M112.516 21V16.8744H114.247V19.6199H122.736V21H112.516ZM112.486 12.8824V8H114.187V11.5023H122.51V12.8824H112.486ZM110.846 15.8208V14.4555H124V15.8208H110.846Z" fill="white"/>
<path fill-rule="evenodd" clip-rule="evenodd" d="M90 15H85V14H90V15Z" fill="white"/>
<path fill-rule="evenodd" clip-rule="evenodd" d="M169 2H179.167L182.621 15.6607C182.909 14.5233 183.199 13.3956 183.49 12.2774C184.265 9.29989 185.03 6.25284 185.786 3.13626L186.061 2H203.267L208.137 10.4541L212.982 2H222L220.709 4.22327C219.268 6.70429 217.837 9.10669 216.416 11.4304C215.072 13.6266 213.719 15.8951 212.357 18.236V30H203.925V18.2361C202.563 15.8978 201.202 13.6319 199.841 11.4383L199.838 11.4344L199.836 11.4304C198.644 9.48185 197.445 7.47798 196.24 5.41881V30H188.555V21.6369L186.19 30H179.081L176.685 21.5744V30H169V2ZM175.1 10.5424L180.213 28.5169H185.057L190.14 10.5424L190.05 17.0678V28.5169H194.745V3.48305H187.24C186.482 6.60734 185.715 9.66243 184.937 12.6483C184.418 14.6412 183.904 16.6649 183.394 18.7195C183.14 19.7432 182.887 20.7745 182.635 21.8136L178 3.48305H170.495V28.5169H175.19V17.0678L175.1 10.5424ZM205.42 17.839V28.5169H210.862V17.839C212.297 15.3672 213.722 12.9746 215.138 10.661C216.268 8.81317 217.405 6.91486 218.548 4.9661C218.836 4.47496 219.125 3.98061 219.414 3.48305H213.852L208.141 13.4492L202.4 3.48305H196.838C197.127 3.98061 197.416 4.47496 197.704 4.9661C198.847 6.91486 199.984 8.81317 201.114 10.661C202.549 12.9746 203.985 15.3672 205.42 17.839Z" fill="white"/>
<defs>
<linearGradient id="paint0_linear_248_283" x1="110" y1="38.1021" x2="110" y2="162.637" gradientUnits="userSpaceOnUse">
<stop stop-color="#6C21E1"/>
<stop offset="1" stop-color="#0068ED"/>
</linearGradient>
</defs>
</svg>
