<svg width="111" height="225" viewBox="0 0 111 225" fill="none" xmlns="http://www.w3.org/2000/svg">
<path fill-rule="evenodd" clip-rule="evenodd" d="M0 0H56.0391C44.998 0 36.0469 8.94531 36.0469 19.9805C36.0469 31.0146 44.998 39.96 56.0391 39.96C67.082 39.96 76.0332 31.0146 76.0332 19.9805C76.0332 8.94531 67.082 0 56.0391 0H111V160.135L90.418 130.551C82.4551 119.123 78.1777 105.58 77.9668 91.6982C77.8828 86.3232 77.8398 80.9482 77.9238 75.6152C84.4043 86.6191 84.9961 103.379 83.8965 114.214C82.625 126.445 101.725 126.318 102.953 114.214C105.918 85.6455 95.1191 47.9785 61.7891 45.6504C57.0449 44.6768 51.8789 44.7197 47.1777 45.8193C15.457 49.5439 5.125 86.2383 8.04688 114.214C9.31641 126.318 28.375 126.445 27.1035 114.214C26.0449 104.014 26.5117 88.6084 31.9316 77.6895V92.46C31.9316 106.638 27.6133 120.478 19.4805 132.116L0 160.135V0ZM0 160.135V225H111V160.135H110.873H78.6875C78.8555 178.249 79.1523 196.363 79.9141 214.478C80.5078 228.528 58.6973 228.486 58.1055 214.478C57.3418 196.405 57.0449 178.249 56.877 160.135H53.5723C53.4453 178.249 53.1074 196.363 52.3457 214.478C51.752 228.486 29.9414 228.528 30.5352 214.478C31.2969 196.363 31.5938 178.249 31.7617 160.135H0Z" fill="#181834"/>
</svg>
