<svg width="260" height="76" viewBox="0 0 260 76" fill="none" xmlns="http://www.w3.org/2000/svg">
<g filter="url(#filter0_d_707_291)">
<mask id="path-1-inside-1_707_291" fill="white">
<path fill-rule="evenodd" clip-rule="evenodd" d="M227.839 0C244.496 0 258 13.5035 258 30.161C258 46.8184 244.496 60.322 227.839 60.322H218.821L216.057 66.93C214.344 71.0236 208.544 71.0236 206.831 66.93L204.067 60.322H30.161C13.5035 60.322 0 46.8184 0 30.161C0 13.5035 13.5035 0 30.161 0H227.839Z"/>
</mask>
<path fill-rule="evenodd" clip-rule="evenodd" d="M227.839 0C244.496 0 258 13.5035 258 30.161C258 46.8184 244.496 60.322 227.839 60.322H218.821L216.057 66.93C214.344 71.0236 208.544 71.0236 206.831 66.93L204.067 60.322H30.161C13.5035 60.322 0 46.8184 0 30.161C0 13.5035 13.5035 0 30.161 0H227.839Z" fill="white"/>
<path d="M218.821 60.322L216.054 59.1641L216.824 57.322H218.821V60.322ZM216.057 66.93L218.824 68.0878L218.824 68.0878L216.057 66.93ZM206.831 66.93L209.599 65.7721L209.599 65.7721L206.831 66.93ZM204.067 60.322V57.322H206.064L206.834 59.1641L204.067 60.322ZM255 30.161C255 15.1604 242.84 3 227.839 3V-3C246.153 -3 261 11.8467 261 30.161H255ZM227.839 57.322C242.84 57.322 255 45.1616 255 30.161H261C261 48.4753 246.153 63.322 227.839 63.322V57.322ZM218.821 57.322H227.839V63.322H218.821V57.322ZM213.289 65.7721L216.054 59.1641L221.589 61.4798L218.824 68.0878L213.289 65.7721ZM209.599 65.7721C210.284 67.4096 212.604 67.4096 213.289 65.7721L218.824 68.0878C216.084 74.6377 206.804 74.6377 204.064 68.0878L209.599 65.7721ZM206.834 59.1641L209.599 65.7721L204.064 68.0878L201.299 61.4798L206.834 59.1641ZM30.161 57.322H204.067V63.322H30.161V57.322ZM3 30.161C3 45.1616 15.1604 57.322 30.161 57.322V63.322C11.8467 63.322 -3 48.4753 -3 30.161H3ZM30.161 3C15.1604 3 3 15.1604 3 30.161H-3C-3 11.8467 11.8467 -3 30.161 -3V3ZM227.839 3H30.161V-3H227.839V3Z" fill="#5F4EEE" mask="url(#path-1-inside-1_707_291)"/>
</g>
<defs>
<filter id="filter0_d_707_291" x="0" y="0" width="260" height="76" filterUnits="userSpaceOnUse" color-interpolation-filters="sRGB">
<feFlood flood-opacity="0" result="BackgroundImageFix"/>
<feColorMatrix in="SourceAlpha" type="matrix" values="0 0 0 0 0 0 0 0 0 0 0 0 0 0 0 0 0 0 127 0" result="hardAlpha"/>
<feOffset dx="2" dy="6"/>
<feComposite in2="hardAlpha" operator="out"/>
<feColorMatrix type="matrix" values="0 0 0 0 0.372549 0 0 0 0 0.305882 0 0 0 0 0.933333 0 0 0 1 0"/>
<feBlend mode="normal" in2="BackgroundImageFix" result="effect1_dropShadow_707_291"/>
<feBlend mode="normal" in="SourceGraphic" in2="effect1_dropShadow_707_291" result="shape"/>
</filter>
</defs>
</svg>
