<svg width="14" height="14" viewBox="0 0 14 14" fill="none" xmlns="http://www.w3.org/2000/svg">
<g clip-path="url(#clip0_1667_2836)">
<path d="M12.3958 14.0013H1.6042C0.719269 14.0013 0 13.282 0 12.3971V2.77206C0 1.88713 0.719269 1.16797 1.6042 1.16797H12.3958C13.2807 1.16797 14 1.88713 14 2.77206V12.3971C14 13.282 13.2807 14.0013 12.3958 14.0013ZM1.6042 2.04297C1.20227 2.04297 0.875 2.37013 0.875 2.77206V12.3971C0.875 12.799 1.20227 13.1263 1.6042 13.1263H12.3958C12.7977 13.1263 13.125 12.799 13.125 12.3971V2.77206C13.125 2.37013 12.7977 2.04297 12.3958 2.04297H1.6042Z" fill="#DDDDDD"/>
<path d="M13.5625 5.54297H0.4375C0.195999 5.54297 0 5.34697 0 5.10547C0 4.86397 0.195999 4.66797 0.4375 4.66797H13.5625C13.804 4.66797 14 4.86397 14 5.10547C14 5.34697 13.804 5.54297 13.5625 5.54297Z" fill="#DDDDDD"/>
<path d="M3.35449 3.5C3.11299 3.5 2.91699 3.304 2.91699 3.0625V0.4375C2.91699 0.195999 3.11299 0 3.35449 0C3.59599 0 3.79199 0.195999 3.79199 0.4375V3.0625C3.79199 3.304 3.59599 3.5 3.35449 3.5Z" fill="#DDDDDD"/>
<path d="M10.6455 3.5C10.404 3.5 10.208 3.304 10.208 3.0625V0.4375C10.208 0.195999 10.404 0 10.6455 0C10.887 0 11.083 0.195999 11.083 0.4375V3.0625C11.083 3.304 10.887 3.5 10.6455 3.5Z" fill="#DDDDDD"/>
</g>
<defs>
<clipPath id="clip0_1667_2836">
<rect width="14" height="14" fill="white"/>
</clipPath>
</defs>
</svg>
