<svg xmlns="http://www.w3.org/2000/svg" xmlns:xlink="http://www.w3.org/1999/xlink" width="134" height="42" viewBox="0 0 134 42">
  <defs>
    <clipPath id="clip-path">
      <rect id="사각형_26794" data-name="사각형 26794" width="32" height="32" transform="translate(1638 492)" fill="#fff" stroke="#707070" stroke-width="1"/>
    </clipPath>
  </defs>
  <g id="btn_test" transform="translate(-939 -691)">
    <rect id="사각형_26793" data-name="사각형 26793" width="134" height="42" rx="6" transform="translate(939 691)" fill="#6f85ff"/>
    <g id="마스크_그룹_26" data-name="마스크 그룹 26" transform="translate(-687 204)" clip-path="url(#clip-path)">
      <g id="icon_computer" transform="translate(1640 494)">
        <path id="패스_2517" data-name="패스 2517" d="M25.955,4H22.164a1.167,1.167,0,1,0,0,2.333h3.5V19.165H2.333V6.333h3.5A1.167,1.167,0,1,0,5.833,4H2.041A2.042,2.042,0,0,0,0,6.041V21.789a2.042,2.042,0,0,0,2.041,2.041h8.933a5.274,5.274,0,0,1-1.472,2.5.584.584,0,0,0,.413,1h8.166a.584.584,0,0,0,.413-1,5.407,5.407,0,0,1-1.487-2.5h8.948A2.042,2.042,0,0,0,28,21.789V6.041A2.042,2.042,0,0,0,25.955,4Z" transform="translate(0 0.666)" fill="#fff"/>
        <path id="패스_2518" data-name="패스 2518" d="M7.277,7.932,8.22,9.565a.583.583,0,0,0,.733.246l1.21-.511a4.334,4.334,0,0,0,.955.568l.161,1.284a.582.582,0,0,0,.577.512h1.886a.583.583,0,0,0,.579-.511l.161-1.284a4.352,4.352,0,0,0,.955-.568l1.21.51a.583.583,0,0,0,.733-.246l.943-1.633a.584.584,0,0,0-.153-.757l-1.051-.8a4.219,4.219,0,0,0,.056-.547,4.433,4.433,0,0,0-.055-.547l1.051-.8a.584.584,0,0,0,.153-.757L17.379,2.1a.583.583,0,0,0-.731-.246l-1.21.51a4.334,4.334,0,0,0-.955-.568L14.322.511A.584.584,0,0,0,13.743,0H11.857a.583.583,0,0,0-.579.511L11.117,1.8a4.36,4.36,0,0,0-.957.568l-1.208-.51A.583.583,0,0,0,8.22,2.1L7.277,3.733a.584.584,0,0,0,.153.757l1.051.8a4.219,4.219,0,0,0-.056.547,4.433,4.433,0,0,0,.055.547l-1.05.8a.582.582,0,0,0-.153.757ZM12.8,3.5a2.333,2.333,0,1,1-2.333,2.333A2.332,2.332,0,0,1,12.8,3.5Z" transform="translate(1.199)" fill="#fff"/>
      </g>
    </g>
    <text id="환경_테스트" data-name="환경 테스트" transform="translate(985 718)" fill="#fff" font-size="14" font-family="SpoqaHanSansNeo-Medium, Spoqa Han Sans Neo" font-weight="500" letter-spacing="-0.02em"><tspan x="0" y="0">환경 테스트</tspan></text>
  </g>
</svg>
