<svg xmlns="http://www.w3.org/2000/svg" xmlns:xlink="http://www.w3.org/1999/xlink" width="32" height="32" viewBox="0 0 32 32">
  <defs>
    <clipPath id="clip-path">
      <rect id="사각형_26671" data-name="사각형 26671" width="32" height="32" transform="translate(755 503)" fill="#fff" stroke="#707070" stroke-width="1"/>
    </clipPath>
    <clipPath id="clip-path-2">
      <rect id="사각형_26668" data-name="사각형 26668" width="19" height="30" fill="#fff"/>
    </clipPath>
  </defs>
  <g id="icon_mic" transform="translate(-755 -503)" clip-path="url(#clip-path)">
    <g id="그룹_20161" data-name="그룹 20161" transform="translate(762 504)">
      <g id="그룹_20160" data-name="그룹 20160" transform="translate(0 0)" clip-path="url(#clip-path-2)">
        <path id="패스_2484" data-name="패스 2484" d="M19,14.51c-.055.464-.091.93-.166,1.391a10.038,10.038,0,0,1-3,5.774,9.1,9.1,0,0,1-4.5,2.4c-.244.053-.5.066-.74.128a.308.308,0,0,0-.2.209c-.011,1.21-.006,2.422,0,3.632a.609.609,0,0,0,.029.116h.3c1.275,0,2.549,0,3.824,0a.894.894,0,0,1,.9.815.9.9,0,0,1-.727.981,2.033,2.033,0,0,1-.375.018H5.9c-.318,0-.637,0-.955,0a.909.909,0,1,1,.006-1.815c1.1,0,2.2,0,3.3,0H8.58c.007-.115.017-.2.017-.287,0-1.122-.006-2.245.007-3.368,0-.231-.084-.3-.291-.327a9.327,9.327,0,0,1-7-4.923,10.4,10.4,0,0,1-1.3-5.128q-.015-1.244,0-2.49a.9.9,0,0,1,1.2-.934.892.892,0,0,1,.589.884c.007.792,0,1.582,0,2.374a8.817,8.817,0,0,0,.861,3.994A7.494,7.494,0,0,0,8.683,22.4,7.079,7.079,0,0,0,15,19.945a8.511,8.511,0,0,0,2.193-5.882c.006-.791,0-1.582,0-2.373a.929.929,0,0,1,.746-1.028.909.909,0,0,1,1.024.7c0,.016.025.028.038.042Z" transform="translate(0 0.02)" fill="#fff"/>
        <path id="패스_2485" data-name="패스 2485" d="M10.1,0c.245.057.293.222.292.458-.009,1.5-.007,3.008,0,4.511a2.19,2.19,0,0,0,.054.522.647.647,0,0,0,.616.56.686.686,0,0,0,.6-.618,2.972,2.972,0,0,0,.047-.523c0-1.347,0-2.694,0-4.042,0-.4.074-.454.414-.266.355.2.694.42,1.046.622a.513.513,0,0,1,.263.508c-.008,1.074-.014,2.148,0,3.221a1.919,1.919,0,0,0,.171.784.523.523,0,0,0,.966,0,1.667,1.667,0,0,0,.165-.669c.024-.5,0-1,.014-1.493a.921.921,0,0,1,.119-.3,1.113,1.113,0,0,1,.23.228,8.309,8.309,0,0,1,.808,4.458c-.014.31-.158.418-.509.419q-1.592,0-3.186,0H3.728c-.518,0-.6-.086-.6-.617A8.94,8.94,0,0,1,3.552,4.4c.117-.309.254-.61.4-.907.036-.073.14-.112.212-.167.043.079.121.157.123.238.013.468,0,.937.012,1.406a2.352,2.352,0,0,0,.044.494.664.664,0,0,0,.622.591.694.694,0,0,0,.61-.643,3.192,3.192,0,0,0,.037-.5c0-1,.015-2.011,0-3.017a.768.768,0,0,1,.427-.784c.3-.158.579-.349.877-.509s.421-.1.422.257c0,1.367-.007,2.733.009,4.1a2.43,2.43,0,0,0,.162.758.494.494,0,0,0,.5.332.5.5,0,0,0,.5-.339,2.187,2.187,0,0,0,.15-.7c.013-1.513.011-3.026,0-4.54,0-.236.063-.395.292-.468Z" transform="translate(-0.025 0)" fill="#fff"/>
        <path id="패스_2486" data-name="패스 2486" d="M9.462,9.781h5.791c.54,0,.667.124.665.675,0,1.327.038,2.656-.031,3.981a6.649,6.649,0,0,1-5.129,6.2,6.26,6.26,0,0,1-6.612-3,7.4,7.4,0,0,1-1.021-3.846c.006-1.162,0-2.323,0-3.485,0-.462.064-.527.516-.527h5.82" transform="translate(-0.025 0.019)" fill="#fff"/>
      </g>
    </g>
  </g>
</svg>
