<svg xmlns="http://www.w3.org/2000/svg" xmlns:xlink="http://www.w3.org/1999/xlink" width="400" height="400" viewBox="0 0 400 400">
  <defs>
    <clipPath id="clip-path">
      <rect id="사각형_26835" data-name="사각형 26835" width="400" height="400" transform="translate(-20919 -20762)" fill="#fff" stroke="#707070" stroke-width="1"/>
    </clipPath>
    <clipPath id="clip-path-2">
      <rect id="사각형_26837" data-name="사각형 26837" width="277.287" height="263.99" fill="none"/>
    </clipPath>
  </defs>
  <g id="img_note03" transform="translate(20919 20762)" clip-path="url(#clip-path)">
    <g id="그룹_20243" data-name="그룹 20243" transform="translate(-20857.645 -20693.996)">
      <g id="그룹_20242" data-name="그룹 20242" clip-path="url(#clip-path-2)">
        <path id="패스_2573" data-name="패스 2573" d="M273.983,87.58H246.7a3.3,3.3,0,0,1,0-6.608h27.28a3.3,3.3,0,0,1,0,6.608"/>
        <path id="패스_2574" data-name="패스 2574" d="M227.536,41.474a3.3,3.3,0,0,1-2.335-5.641l19.287-19.289a3.3,3.3,0,1,1,4.673,4.672L229.874,40.505a3.3,3.3,0,0,1-2.338.969"/>
        <path id="패스_2575" data-name="패스 2575" d="M246.824,153.144a3.3,3.3,0,0,1-2.337-.967L225.2,132.888a3.3,3.3,0,0,1,4.672-4.672L249.164,147.5a3.3,3.3,0,0,1-2.337,5.641Z"/>
        <path id="패스_2576" data-name="패스 2576" d="M211.66,26.64C208.61,2.05,204.7,0,201.27,0c-2.04,0-4.25.73-6.34,6.5C140.23,28.05,81.7,37.03,51.17,40.49A30.321,30.321,0,0,0,27.76,56.65L22.6,57A24.275,24.275,0,0,0,0,81.16v6.4a24.268,24.268,0,0,0,22.6,24.16l5.14.35a30.321,30.321,0,0,0,23.43,16.18c2.87.33,6,.7,9.35,1.13l.28,2.57a10.615,10.615,0,0,0-4.65.34,7.091,7.091,0,0,0-4.58,7.77c1.2,15-2.06,22.09-4.67,27.78a30.548,30.548,0,0,0-2.63,7.23,122.042,122.042,0,0,0-1.5,24.38,93.114,93.114,0,0,1-1.34,20.62,147.715,147.715,0,0,0-3.47,39.33l.02.59a4.287,4.287,0,0,0,2.78,3.89,1.51,1.51,0,0,0,.56.11H79.3a3.3,3.3,0,0,0,3.3-3.3V238.54c0-5.4,4.61-11.82,13.59-19.1,5.83-.94,6.86-3.84,6.91-5.62v-.33c4.7-4.51,9.9-10.82,10.46-17a12.707,12.707,0,0,0-2.26-9.27,11.055,11.055,0,0,0,2.2-8.38,10.621,10.621,0,0,0-2.06-5.84,8.945,8.945,0,0,0,.9-.84,10.036,10.036,0,0,0,2.49-7.76,10.382,10.382,0,0,0-3.57-7.16c-.08-.07-.18-.12-.27-.19a9.2,9.2,0,0,0,8.54-9.83c-.01-.13-.02-.26-.04-.39a10.718,10.718,0,0,0-2.97-7.82,511.931,511.931,0,0,1,78.42,23.24c2.1,5.75,4.3,6.47,6.34,6.47,3.43,0,7.34-2.05,10.39-26.64a494.589,494.589,0,0,0,2.96-57.72,492.42,492.42,0,0,0-2.97-57.72M51.91,121.69a23.828,23.828,0,0,1-20.73-20.03,111.4,111.4,0,0,1,.01-34.58A23.838,23.838,0,0,1,51.92,47.06c11.53-1.31,27.02-3.39,44.79-6.63-7.5,23.72-8.99,63.45-.32,87.84-17.64-3.22-33.02-5.28-44.48-6.58m44.86,15.84a10.068,10.068,0,0,0-8.44,11.18,10.712,10.712,0,0,0,3.1,6.88c.05.06.12.09.18.15l-3.09.25A10.457,10.457,0,0,0,78.91,167a9.552,9.552,0,0,0,2.22,5.98,10.51,10.51,0,0,0-1.07,1.04,10.344,10.344,0,0,0-2.45,7.63,11.793,11.793,0,0,0,.99,3.91,10.238,10.238,0,0,0,4.82,4.62,11.3,11.3,0,0,0-.83,4.94,9.625,9.625,0,0,0,10.17,9.06l.43-.03,3.35-.25-.03,6.01a3.2,3.2,0,0,1-3.06,3.17,27.306,27.306,0,0,1-11.38-1.84,11.058,11.058,0,0,1-2.98-1.84,1.231,1.231,0,0,1-.32-1.07c2.74-16.52-1.4-26.65-5.15-32.81a18.183,18.183,0,0,1-2.15-6.89c2.23-15.79,3.58-25.32-.76-31.6a10.14,10.14,0,0,0-3.02-2.74l-.44-3.99c9.4,1.3,19.35,2.84,30.79,4.99l.14,2.01c-.8.12-1.33.22-1.41.23m105.18,21.12a.714.714,0,0,1-.88.47.734.734,0,0,1-.47-.47c-2.31-7.63-4.74-25.65-5.68-51.57a26.7,26.7,0,0,0,0-45.43c.94-25.93,3.36-43.95,5.68-51.58a.715.715,0,0,1,.88-.47.734.734,0,0,1,.47.47c2.94,9.69,6.07,36.11,6.07,74.29s-3.13,64.59-6.07,74.29"/>
        <path id="패스_2577" data-name="패스 2577" d="M88.33,148.71a10.712,10.712,0,0,0,3.1,6.88c.05.06.12.09.18.15l-3.09.25A10.457,10.457,0,0,0,78.91,167a9.552,9.552,0,0,0,2.22,5.98,10.51,10.51,0,0,0-1.07,1.04,10.344,10.344,0,0,0-2.45,7.63,11.793,11.793,0,0,0,.99,3.91,10.238,10.238,0,0,0,4.82,4.62,11.3,11.3,0,0,0-.83,4.94,9.625,9.625,0,0,0,10.17,9.06l.43-.03,3.35-.25-.03,6.01a3.2,3.2,0,0,1-3.06,3.17,27.306,27.306,0,0,1-11.38-1.84,11.058,11.058,0,0,1-2.98-1.84,1.231,1.231,0,0,1-.32-1.07c2.74-16.52-1.4-26.65-5.15-32.81a18.183,18.183,0,0,1-2.15-6.89c2.23-15.79,3.58-25.32-.76-31.6a10.14,10.14,0,0,0-3.02-2.74l-.44-3.99c9.4,1.3,19.35,2.84,30.79,4.99l.14,2.01c-.8.12-1.33.22-1.41.23a10.068,10.068,0,0,0-8.44,11.18" fill="#fff"/>
        <path id="패스_2578" data-name="패스 2578" d="M208.02,84.36c0,38.18-3.13,64.59-6.07,74.29a.714.714,0,0,1-.88.47.734.734,0,0,1-.47-.47c-2.31-7.63-4.74-25.65-5.68-51.57a26.7,26.7,0,0,0,0-45.43c.94-25.93,3.36-43.95,5.68-51.58a.715.715,0,0,1,.88-.47.734.734,0,0,1,.47.47c2.94,9.69,6.07,36.11,6.07,74.29" fill="#fff"/>
        <path id="패스_2579" data-name="패스 2579" d="M96.39,128.27c-17.64-3.22-33.02-5.28-44.48-6.58a23.828,23.828,0,0,1-20.73-20.03,111.4,111.4,0,0,1,.01-34.58A23.838,23.838,0,0,1,51.92,47.06c11.53-1.31,27.02-3.39,44.79-6.63-7.5,23.72-8.99,63.45-.32,87.84" fill="#fff"/>
      </g>
    </g>
  </g>
</svg>
