<svg xmlns="http://www.w3.org/2000/svg" width="420" height="40" viewBox="0 0 420 40">
  <g id="img_bubble" transform="translate(-11072.999 -21890)" fill="rgba(255,255,255,0.5)">
    <path d="M 11538.001953125 21929.5 L 11087.0009765625 21929.5 C 11084.5185546875 21929.5 11082.498046875 21927.48046875 11082.498046875 21924.998046875 L 11082.498046875 21915.25 L 11082.498046875 21914.962890625 L 11082.25 21914.818359375 L 11073.9912109375 21910 L 11082.25 21905.181640625 L 11082.498046875 21905.037109375 L 11082.498046875 21904.75 L 11082.498046875 21895.001953125 C 11082.498046875 21892.51953125 11084.5185546875 21890.5 11087.0009765625 21890.5 L 11538.001953125 21890.5 C 11540.4814453125 21890.5 11542.4990234375 21892.51953125 11542.4990234375 21895.001953125 L 11542.4990234375 21924.998046875 C 11542.4990234375 21927.48046875 11540.4814453125 21929.5 11538.001953125 21929.5 Z" stroke="none"/>
    <path d="M 11538.001953125 21929 C 11540.2060546875 21929 11541.9990234375 21927.205078125 11541.9990234375 21924.998046875 L 11541.9990234375 21895.001953125 C 11541.9990234375 21892.794921875 11540.2060546875 21891 11538.001953125 21891 L 11087.0009765625 21891 C 11084.7939453125 21891 11082.998046875 21892.794921875 11082.998046875 21895.001953125 L 11082.998046875 21905.32421875 L 11082.501953125 21905.61328125 L 11074.9833984375 21910 L 11082.998046875 21914.67578125 L 11082.998046875 21924.998046875 C 11082.998046875 21927.205078125 11084.7939453125 21929 11087.0009765625 21929 L 11538.001953125 21929 M 11538.001953125 21930 L 11087.0009765625 21930 C 11084.23828125 21930 11081.998046875 21927.759765625 11081.998046875 21924.998046875 L 11081.998046875 21915.25 L 11072.9990234375 21910 L 11081.998046875 21904.75 L 11081.998046875 21895.001953125 C 11081.998046875 21892.240234375 11084.23828125 21890 11087.0009765625 21890 L 11538.001953125 21890 C 11540.759765625 21890 11542.9990234375 21892.240234375 11542.9990234375 21895.001953125 L 11542.9990234375 21924.998046875 C 11542.9990234375 21927.759765625 11540.759765625 21930 11538.001953125 21930 Z" stroke="none" fill="#fff"/>
  </g>
</svg>
