<svg xmlns="http://www.w3.org/2000/svg" xmlns:xlink="http://www.w3.org/1999/xlink" width="400" height="400" viewBox="0 0 400 400">
  <defs>
    <clipPath id="clip-path">
      <rect id="사각형_26833" data-name="사각형 26833" width="400" height="400" transform="translate(-21898 -20762)" fill="#fff" stroke="#707070" stroke-width="1"/>
    </clipPath>
    <clipPath id="clip-path-2">
      <rect id="사각형_26838" data-name="사각형 26838" width="193.143" height="292.036" fill="none"/>
    </clipPath>
  </defs>
  <g id="img_note01" transform="translate(21898 20762)" clip-path="url(#clip-path)">
    <g id="그룹_20247" data-name="그룹 20247" transform="translate(-21794.57 -20708.018)">
      <g id="그룹_20246" data-name="그룹 20246" clip-path="url(#clip-path-2)">
        <path id="패스_2582" data-name="패스 2582" d="M181.718,337.681a11.436,11.436,0,0,1-7.463-3.109,2.851,2.851,0,0,1,3.708-4.306,4.956,4.956,0,0,0,7.509,0,2.851,2.851,0,0,1,3.708,4.306,11.436,11.436,0,0,1-7.463,3.109" transform="translate(-85.148 -161.878)"/>
        <path id="패스_2583" data-name="패스 2583" d="M190.277,367.61a2.193,2.193,0,0,0-2.568-1.737h-.037a20.028,20.028,0,0,1-6.874.179c-.57-.083-1.126-.193-1.792-.322a8.123,8.123,0,0,0-2.9-.14,7.171,7.171,0,0,0-2.822,1.154.491.491,0,0,1-.5,0,7.171,7.171,0,0,0-2.822-1.154,8.123,8.123,0,0,0-2.9.14c-.664.128-1.222.238-1.792.322a20.017,20.017,0,0,1-6.872-.179h-.039a2.191,2.191,0,0,0-1.285,4.164,20.284,20.284,0,0,0,8.65,1.674c.737-.02,1.482-.081,2.116-.13.595-.053.849.045,1.733.564a6.434,6.434,0,0,0,3.235.937h.456a6.434,6.434,0,0,0,3.235-.937c.884-.519,1.138-.611,1.733-.564.633.049,1.378.11,2.116.13a20.284,20.284,0,0,0,8.65-1.674,2.193,2.193,0,0,0,1.283-2.427" transform="translate(-76.463 -179.456)"/>
        <path id="패스_2584" data-name="패스 2584" d="M192.917,320.04A58.183,58.183,0,0,0,178.512,298.5c-6.409-5.935-18.122-9.774-29.438-13.5a136.441,136.441,0,0,1-17.638-6.618c-11.576-5.869-12.217-16.635-12.675-24.495,0-.193-.02-.351-.036-.54a81.525,81.525,0,0,0,15.719-12.3,60.756,60.756,0,0,0,14.436-23.981c9.992-.316,20.077-10.98,21.66-20.575a25.486,25.486,0,0,0,.331-3.166,8.772,8.772,0,0,0,4.368-3.589c3.645-5.9,1.629-13.006-.494-20.524l-.132-.453c4.424-16.014,2.774-49.906-14.864-74.32-12.212-16.88-40.647-34.36-61.416-27.152a5.357,5.357,0,0,1-3.523,0C74.041,60.074,45.6,77.554,33.4,94.429c-17.648,24.419-19.3,58.31-14.864,74.32l-.132.453c-2.128,7.519-4.138,14.62-.5,20.519a8.77,8.77,0,0,0,4.373,3.584,24.13,24.13,0,0,0,.331,3.151c1.583,9.616,11.667,20.28,21.66,20.6A60.645,60.645,0,0,0,58.7,241.042a81.525,81.525,0,0,0,15.719,12.3c-.01.188-.02.346-.031.54-.468,7.86-1.1,18.626-12.675,24.495A136.229,136.229,0,0,1,44.069,285c-11.321,3.721-23.024,7.564-29.433,13.5A58.121,58.121,0,0,0,.231,320.04a3.049,3.049,0,0,0,1.659,3.981,2.956,2.956,0,0,0,1.15.229,3.053,3.053,0,0,0,2.83-1.9,52.266,52.266,0,0,1,12.9-19.369c5.431-5.029,16.992-8.827,27.188-12.181a140.314,140.314,0,0,0,18.5-6.969c13.5-6.847,15.292-19.069,15.867-27.432a64.42,64.42,0,0,0,12.66,4.184,16.433,16.433,0,0,0,7.147,0A64.917,64.917,0,0,0,112.8,256.4c.575,8.358,2.367,20.586,15.867,27.432a141.037,141.037,0,0,0,18.5,6.969c10.2,3.355,21.756,7.152,27.188,12.181a52.287,52.287,0,0,1,12.9,19.369,3.06,3.06,0,0,0,2.83,1.9,2.994,2.994,0,0,0,1.15-.229,3.055,3.055,0,0,0,1.68-3.981M154.587,185.888q1.787,1.565,3.416,2.922a2.525,2.525,0,0,0-.443-.087,9.231,9.231,0,0,0-3.146.249c.071-1.018.122-2.057.173-3.085m-1,11.1c1.252-2.367,2.851-2.24,3.385-2.184a3.043,3.043,0,0,0,3.339-2.7,3.078,3.078,0,0,0-.285-1.639c.667.534,1.339,1.074,1.96,1.553a9.071,9.071,0,0,0,2.764,1.441,19.072,19.072,0,0,1-.224,2.016c-1.018,6.185-7.407,13.591-13.642,15.185a112.44,112.44,0,0,0,2.7-13.668M38.541,185.9c.051,1.028.112,2.057.183,3.07a9.357,9.357,0,0,0-3.146-.244,2.525,2.525,0,0,0-.443.087q1.626-1.352,3.405-2.912m-9.921,9.555a18.6,18.6,0,0,1-.224-1.99,9.248,9.248,0,0,0,2.754-1.441c.621-.473,1.3-1.018,1.97-1.558a3.044,3.044,0,0,0,1.415,4.057,3.086,3.086,0,0,0,1.639.285c.534-.061,2.123-.183,3.385,2.179a111.489,111.489,0,0,0,2.708,13.668c-6.231-1.6-12.624-9-13.647-15.2m120.037-14.935a131.611,131.611,0,0,1-1.044,15.042,102.418,102.418,0,0,1-3.563,16.661c-.046.143-.407,1.3-.453,1.41a56.451,56.451,0,0,1-13.408,23.009c-7.636,7.437-16.717,14.747-31.377,17.979a10.324,10.324,0,0,1-4.5,0c-14.64-3.232-23.731-10.542-31.377-17.959A56.622,56.622,0,0,1,49.5,213.549c-.031-.092-.29-.886-.326-1.018a100.71,100.71,0,0,1-3.655-16.971,132.7,132.7,0,0,1-1.049-15.042c5.314-4.928,11.229-10.756,17.628-17.384l.127-.056a121.94,121.94,0,0,1,16.961,1.044l.1.02a2.421,2.421,0,0,0,1.476-4.571,26.7,26.7,0,0,0-8.491-2.214,38.779,38.779,0,0,0-4.48-.183c7.1-7.508,14.742-15.907,22.861-25.1a7.893,7.893,0,0,1,11.143-.682,8.626,8.626,0,0,1,.682.682c8.119,9.193,15.765,17.592,22.861,25.1a38.732,38.732,0,0,0-4.48.183,26.76,26.76,0,0,0-8.5,2.214,2.421,2.421,0,0,0,1.481,4.571l.1-.02a121.038,121.038,0,0,1,16.956-1.038" transform="translate(0 -32.214)"/>
        <path id="패스_2585" data-name="패스 2585" d="M190.367,28a28,28,0,1,0-28,28,28,28,0,0,0,28-28" transform="translate(-65.972)"/>
        <path id="패스_2586" data-name="패스 2586" d="M193.02,534.718H5.973a3.053,3.053,0,0,0,2.83-1.9,52.266,52.266,0,0,1,12.9-19.369c5.431-5.029,16.992-8.827,27.188-12.181a140.315,140.315,0,0,0,18.5-6.969H131.6a141.037,141.037,0,0,0,18.5,6.969c10.2,3.355,21.756,7.152,27.188,12.181a52.287,52.287,0,0,1,12.9,19.369,3.06,3.06,0,0,0,2.83,1.9" transform="translate(-2.933 -242.682)"/>
      </g>
    </g>
  </g>
</svg>
