<svg xmlns="http://www.w3.org/2000/svg" xmlns:xlink="http://www.w3.org/1999/xlink" width="26" height="26" viewBox="0 0 26 26">
  <defs>
    <clipPath id="clip-path">
      <rect id="사각형_26789" data-name="사각형 26789" width="26" height="26" transform="translate(-23594 -14871)" fill="#fff" stroke="#707070" stroke-width="1"/>
    </clipPath>
    <clipPath id="clip-path-2">
      <rect id="사각형_26792" data-name="사각형 26792" width="20.608" height="25.651" transform="translate(0 0)" fill="#fff"/>
    </clipPath>
  </defs>
  <g id="icon_question" transform="translate(23594 14871)" clip-path="url(#clip-path)">
    <g id="그룹_20173" data-name="그룹 20173" transform="translate(-23591.305 -14870.826)">
      <g id="그룹_20173-2" data-name="그룹 20173" clip-path="url(#clip-path-2)">
        <path id="패스_2512" data-name="패스 2512" d="M20.6,12.038c0-2.681.01-5.362,0-8.044A3.982,3.982,0,0,0,18.036.29,9.883,9.883,0,0,0,17,0H3.615c-.188.042-.377.079-.564.128A4.048,4.048,0,0,0,0,4.121Q0,8.833,0,13.546c0,.023,0,.046,0,.07,0,2.68-.01,5.361,0,8.042a3.982,3.982,0,0,0,2.563,3.7,10.153,10.153,0,0,0,1.042.29h13.38c.188-.043.377-.08.563-.128A4.048,4.048,0,0,0,20.6,21.532q.009-4.713,0-9.425c0-.023,0-.046,0-.069m-2.031,9.471a2.016,2.016,0,0,1-2.049,2.111q-6.219.009-12.44-.005a2.079,2.079,0,0,1-.832-.175,1.981,1.981,0,0,1-1.219-1.956q0-4,0-8l0-.014q0-4.662,0-9.324A2.015,2.015,0,0,1,4.084,2.032q6.22-.009,12.44,0a2.088,2.088,0,0,1,.833.175,1.983,1.983,0,0,1,1.219,1.956q0,4,0,8v.014q0,4.662,0,9.324" fill="#fff"/>
        <path id="패스_2513" data-name="패스 2513" d="M10.3,8.122c-1.722,0-3.444,0-5.166,0a1.015,1.015,0,0,1-.119-2.026c.059,0,.119,0,.178,0h10.23A1.02,1.02,0,0,1,16.543,7.1a.985.985,0,0,1-.953,1.014c-.548.018-1.1.008-1.645.008q-1.824,0-3.647,0" fill="#fff"/>
        <path id="패스_2514" data-name="패스 2514" d="M8.25,12.186c-1.047,0-2.094.009-3.141,0a1.006,1.006,0,0,1-.954-1.441,1.022,1.022,0,0,1,1.008-.589q1.989,0,3.976,0c.752,0,1.5-.006,2.255,0a1.015,1.015,0,0,1,.675,1.793,1.1,1.1,0,0,1-.754.237q-1.533,0-3.065,0" fill="#fff"/>
      </g>
    </g>
  </g>
</svg>
