<svg xmlns="http://www.w3.org/2000/svg" xmlns:xlink="http://www.w3.org/1999/xlink" width="400" height="400" viewBox="0 0 400 400">
  <defs>
    <clipPath id="clip-path">
      <rect id="사각형_26834" data-name="사각형 26834" width="400" height="400" transform="translate(-21415 -20762)" fill="#fff" stroke="#707070" stroke-width="1"/>
    </clipPath>
  </defs>
  <g id="img_note02" transform="translate(21415 20762)" clip-path="url(#clip-path)">
    <g id="img_note02-2" data-name="img_note02" transform="translate(-22180.5 -21071.211)">
      <path id="icon_cap" d="M202.633,57.495c-8.681-12.668-24.25-24.513-44.158-30.887a3.606,3.606,0,0,1-2.415-2.764,13.112,13.112,0,0,0-24.166-4.034,3.587,3.587,0,0,1-3.206,1.815C80.633,20.142,46.752,51.051,42.254,104a5.223,5.223,0,0,1-1.214,2.953c-5.984,7.035-34.775,40.936-35.811,42.539-3.613,5.582-3.946,14.4,2.725,19.2a17.629,17.629,0,0,0,10.484,3.6c10.3,0,19.913-9.458,27.126-16.828a3.5,3.5,0,0,1,3.452-.928c25.487,7.38,43.935,27.535,55.893,33.829a24.7,24.7,0,0,0,15.942,2.315c21.519-3.543,44.337-29.71,52.79-40.3a10.958,10.958,0,0,1,9.05-4.086c4.42.193,9.225.21,13.7.175A20.393,20.393,0,0,0,216.33,128.84c3.771-26.693,1.982-48.476-13.7-71.346ZM18.439,167.03a12.428,12.428,0,0,1-7.408-2.6A7.773,7.773,0,0,1,7.83,159a9.079,9.079,0,0,1,0-2.182c8.271-5.132,19.327-6.733,33.121-4.174C34.525,159.178,26.231,167.03,18.439,167.03ZM167.193,142.9a2.708,2.708,0,0,1-3.551,1.475,308.5,308.5,0,0,1-32.811-16.852c-14.76-8.378-28.7-16.291-46.389-20.443a83.286,83.286,0,0,0-34.743-.628,2.631,2.631,0,0,1-3.139-2.513,2.718,2.718,0,0,1,2.243-2.673,88.43,88.43,0,0,1,36.839.693c18.415,4.323,32.683,12.417,47.78,20.988,8.622,4.895,26.2,13.476,32.446,16.507a2.692,2.692,0,0,1,1.315,3.446Z" transform="translate(773.818 348.885)"/>
      <path id="icon_mask" d="M221.859,42.709c-.27-6.719-2.571-11.417-6.831-13.964a9.678,9.678,0,0,0-7.857-.887c-11.545,3.245-24.757,24.769-29.9,33.872C163,44.706,130.327,35.353,111.54,35.353c-18.827,0-51.6,9.393-65.818,26.483C40.62,52.8,27.349,31.114,15.758,27.857a9.69,9.69,0,0,0-7.857.887c-4.26,2.547-6.561,7.245-6.84,13.964-.838,20.979,19.4,59.951,38.286,74.055a53.667,53.667,0,0,0,5.377,14.988C57.7,153.584,85.185,168.83,111.545,168.83s53.832-15.246,66.821-37.078a53.945,53.945,0,0,0,5.409-15.12c18.824-14.227,38.93-53.013,38.084-73.924ZM57.655,67.387c15.977-14.16,39.091-20.613,53.809-20.613s37.832,6.452,53.809,20.613a2.631,2.631,0,0,1-3.492,3.937c-14.95-13.255-36.562-19.292-50.317-19.292S76.1,58.07,61.147,71.324a2.631,2.631,0,0,1-3.492-3.937ZM37.868,108.579C21.752,93.1,5.617,60.519,6.328,42.921c.195-4.832,1.631-8.082,4.272-9.66a4.507,4.507,0,0,1,3.734-.338c9.458,2.657,22.817,24.131,28.037,33.724C36.607,76.926,35.836,93.894,37.868,108.579Zm147.365-.158c2.015-14.715,1.21-31.679-4.6-41.916,5.272-9.657,18.55-30.944,27.965-33.589a4.5,4.5,0,0,1,3.734.338c2.641,1.578,4.078,4.828,4.272,9.66.709,17.542-15.311,49.956-31.367,65.512Z" transform="translate(932.328 487.6)"/>
    </g>
  </g>
</svg>
