<svg width="77" height="63" viewBox="0 0 77 63" fill="none" xmlns="http://www.w3.org/2000/svg">
<g filter="url(#filter0_d_461_44)">
<circle cx="38" cy="49" r="10" transform="rotate(90 38 49)" fill="white"/>
</g>
<rect x="77" y="35" width="77" height="35" rx="17.5" transform="rotate(-180 77 35)" fill="#3B61D5"/>
<path d="M24.885 10.925C21.93 10.925 20.055 11.915 20.055 13.55C20.055 15.17 21.93 16.16 24.885 16.16C27.84 16.16 29.715 15.17 29.715 13.55C29.715 11.915 27.84 10.925 24.885 10.925ZM24.885 12.14C26.94 12.14 28.11 12.65 28.11 13.55C28.11 14.45 26.94 14.945 24.885 14.945C22.83 14.945 21.645 14.45 21.645 13.55C21.645 12.65 22.83 12.14 24.885 12.14ZM31.005 17.075H18.75V18.32H31.005V17.075ZM24.855 19.265C21.945 19.265 20.19 20.165 20.19 21.725C20.19 23.285 21.945 24.17 24.855 24.17C27.855 24.17 29.52 23.285 29.52 21.725C29.52 20.165 27.855 19.265 24.855 19.265ZM24.855 20.465C26.85 20.465 27.96 20.885 27.96 21.725C27.96 22.565 26.85 22.985 24.855 22.985C22.86 22.985 21.765 22.565 21.765 21.725C21.765 20.885 22.86 20.465 24.855 20.465ZM43.4088 10.595H41.8488V24.185H43.4088V10.595ZM37.2588 13.955V11.735H35.7138V13.955C35.7138 16.55 34.3038 19.175 32.1438 20.135L33.0588 21.425C34.6938 20.63 35.8938 19.055 36.5088 17.06C37.1238 18.935 38.3088 20.39 39.8688 21.125L40.7688 19.895C38.6388 18.935 37.2588 16.46 37.2588 13.955ZM58.3627 17.225V15.95H56.2477V10.61H54.7027V24.155H56.2477V17.225H58.3627ZM50.5027 14.54V13.235H53.3677V11.96H46.0027V13.235H48.9577V14.54C48.9577 16.775 47.5927 19.34 45.5077 20.345L46.3927 21.575C47.9677 20.81 49.1527 19.19 49.7527 17.3C50.3677 19.055 51.5227 20.51 53.0377 21.23L53.8927 20.015C51.8377 19.055 50.5027 16.625 50.5027 14.54Z" fill="white"/>
<path d="M38.5 39L35.4689 33.75L41.5311 33.75L38.5 39Z" fill="#3B61D5"/>
<defs>
<filter id="filter0_d_461_44" x="26" y="39" width="24" height="24" filterUnits="userSpaceOnUse" color-interpolation-filters="sRGB">
<feFlood flood-opacity="0" result="BackgroundImageFix"/>
<feColorMatrix in="SourceAlpha" type="matrix" values="0 0 0 0 0 0 0 0 0 0 0 0 0 0 0 0 0 0 127 0" result="hardAlpha"/>
<feOffset dy="2"/>
<feGaussianBlur stdDeviation="1"/>
<feComposite in2="hardAlpha" operator="out"/>
<feColorMatrix type="matrix" values="0 0 0 0 0 0 0 0 0 0.0313726 0 0 0 0 0.113725 0 0 0 0.1 0"/>
<feBlend mode="normal" in2="BackgroundImageFix" result="effect1_dropShadow_461_44"/>
<feBlend mode="normal" in="SourceGraphic" in2="effect1_dropShadow_461_44" result="shape"/>
</filter>
</defs>
</svg>
