<svg width="303" height="70" viewBox="0 0 303 70" fill="none" xmlns="http://www.w3.org/2000/svg">
<path d="M87.494 13.652H100.976V11.996H95.45V10.808H93.074V11.996H87.494V13.652ZM88.718 16.1C88.718 17.486 90.572 18.188 94.262 18.188C97.97 18.188 99.824 17.486 99.824 16.1C99.824 14.66 98.078 14.012 94.262 14.012C90.464 14.012 88.718 14.66 88.718 16.1ZM97.304 16.1C97.304 16.532 96.476 16.694 94.262 16.694C92.084 16.694 91.238 16.532 91.238 16.1C91.238 15.668 92.084 15.506 94.262 15.506C96.476 15.506 97.304 15.668 97.304 16.1ZM95.45 21.23V20.42H101.75V18.71H86.774V20.42H93.074V21.23H88.484V22.85H97.52V23.534H88.502V27.422H100.364V25.802H90.932V25.046H99.932V21.23H95.45ZM104.809 13.166H113.755V14.084H104.845V18.53H116.473V16.73H107.185V15.758H116.095V11.366H104.809V13.166ZM114.709 22.904V21.212H117.985V19.358H102.973V21.212H106.231V22.868C105.151 23.318 104.611 23.984 104.611 24.884C104.611 26.63 106.591 27.566 110.425 27.566C114.259 27.566 116.239 26.63 116.239 24.884C116.239 24.002 115.735 23.354 114.709 22.904ZM108.607 21.212H112.333V22.328C111.757 22.256 111.127 22.22 110.425 22.22C109.759 22.22 109.165 22.256 108.607 22.31V21.212ZM110.425 25.82C108.031 25.82 107.023 25.532 107.023 24.884C107.023 24.236 108.031 23.948 110.425 23.948C112.819 23.948 113.845 24.236 113.845 24.884C113.845 25.532 112.819 25.82 110.425 25.82ZM133.391 27.53V10.952H131.141V17.72H129.881V11.276H127.667V26.846H129.881V19.628H131.141V27.53H133.391ZM127.073 13.472H124.319V11.42H121.979V13.472H119.153V15.362H127.073V13.472ZM123.149 16.082C121.043 16.082 119.513 17.72 119.513 20.042C119.513 22.346 121.043 23.984 123.149 23.984C125.255 23.984 126.785 22.346 126.785 20.042C126.785 17.72 125.255 16.082 123.149 16.082ZM123.149 22.004C122.231 22.004 121.601 21.284 121.601 20.042C121.601 18.8 122.231 18.062 123.149 18.062C124.067 18.062 124.697 18.8 124.697 20.042C124.697 21.284 124.067 22.004 123.149 22.004ZM150.382 25.622V23.696H147.052V19.646C148.294 18.872 149.05 17.684 149.05 16.244C149.05 13.526 146.44 11.78 142.858 11.78C139.312 11.78 136.684 13.526 136.684 16.244C136.666 17.684 137.386 18.872 138.682 19.646V23.696H135.37V25.622H150.382ZM142.858 13.652C145.162 13.652 146.71 14.588 146.71 16.244C146.71 17.9 145.162 18.836 142.858 18.836C140.554 18.836 139.024 17.9 139.024 16.244C139.024 14.588 140.554 13.652 142.858 13.652ZM144.694 23.696H141.04V20.528C141.616 20.636 142.228 20.69 142.858 20.69C143.506 20.69 144.118 20.636 144.694 20.528V23.696ZM153.26 22.184H154.988L155.366 14.822L155.456 12.32H152.792L152.882 14.822L153.26 22.184ZM152.828 26.252H155.456V23.696H152.828V26.252Z" fill="#3B61D5"/>
<path d="M99.84 50.976V49.92H94V48.256H98.32V47.2H89.792V44.544H98.224V43.488H88.48V48.256H92.688V49.92H86.848V50.976H99.84ZM93.344 52C90.272 52 88.416 52.928 88.416 54.592C88.416 56.256 90.272 57.184 93.344 57.184C96.384 57.184 98.24 56.256 98.24 54.592C98.24 52.928 96.384 52 93.344 52ZM93.344 56.16C91.024 56.16 89.744 55.616 89.744 54.592C89.744 53.568 91.024 53.024 93.344 53.024C95.6 53.024 96.912 53.568 96.912 54.592C96.912 55.616 95.6 56.16 93.344 56.16ZM113.071 57.216V42.832H111.759V48.304H108.639C108.431 45.616 107.023 43.936 105.087 43.936C102.991 43.936 101.503 45.888 101.503 48.944C101.503 52 102.991 53.952 105.087 53.952C107.087 53.952 108.511 52.192 108.639 49.376H111.759V57.216H113.071ZM105.087 52.784C103.711 52.784 102.751 51.28 102.751 48.944C102.751 46.624 103.711 45.12 105.087 45.12C106.447 45.12 107.407 46.624 107.407 48.944C107.407 51.28 106.447 52.784 105.087 52.784ZM132.168 48.288V47.184H130.04V42.848H128.728V53.376H130.04V48.288H132.168ZM119.496 50.976H126.136V43.872H124.856V46.272H120.792V43.872H119.496V50.976ZM120.792 47.296H124.856V49.92H120.792V47.296ZM130.68 55.792H122.424V52.368H121.112V56.864H130.68V55.792ZM146.278 51.312V50.24H140.454V48.528H144.582V43.168H143.286V44.8H136.31V43.168H135.014V48.528H139.142V50.24H133.286V51.312H146.278ZM143.286 47.488H136.31V45.824H143.286V47.488ZM144.678 52.704H134.742V53.76H143.366V57.184H144.678V52.704ZM163.983 55.344V54.256H160.767V50.368C161.983 49.744 162.655 48.72 162.655 47.424C162.655 45.2 160.495 43.744 157.439 43.744C154.399 43.744 152.223 45.2 152.223 47.424C152.223 48.72 152.927 49.76 154.143 50.384V54.256H150.943V55.344H163.983ZM157.439 44.768C159.743 44.768 161.407 45.824 161.407 47.424C161.407 49.024 159.743 50.08 157.439 50.08C155.135 50.08 153.487 49.024 153.487 47.424C153.487 45.824 155.135 44.768 157.439 44.768ZM159.455 54.256H155.455V50.88C156.079 51.024 156.735 51.104 157.439 51.104C158.095 51.104 158.767 51.024 159.455 50.88V54.256ZM177.182 50.928L177.742 49.84C175.23 49.408 172.494 47.28 172.494 44.896V43.792H171.118V44.896C171.118 47.28 168.398 49.408 165.886 49.84L166.43 50.928C168.638 50.464 170.862 48.976 171.806 46.928C172.75 48.976 174.99 50.448 177.182 50.928ZM178.382 55.312V54.24H172.462V50.752H171.15V54.24H165.358V55.312H178.382ZM190.797 49.744H193.101V48.656H190.797V42.832H189.485V57.184H190.797V49.744ZM187.085 44.368H180.525V45.456H185.789C185.485 48.912 183.581 51.568 179.853 53.44L180.573 54.464C185.213 52.16 187.085 48.448 187.085 44.368ZM204.982 47.28H207.91V50.432H209.238V42.848H207.91V46.208H204.982C204.726 44.544 203.254 43.472 201.334 43.472C199.206 43.472 197.638 44.8 197.638 46.768C197.638 48.736 199.206 50.08 201.334 50.08C203.318 50.08 204.726 48.96 204.982 47.28ZM201.334 48.992C199.91 48.992 198.886 48.048 198.886 46.768C198.886 45.472 199.91 44.56 201.334 44.56C202.758 44.56 203.782 45.472 203.782 46.768C203.782 48.048 202.758 48.992 201.334 48.992ZM208.086 52.368V51.152H206.806V52.368C206.806 53.84 205.91 55.408 204.198 56.128L204.87 57.12C206.15 56.56 206.982 55.584 207.446 54.416C207.878 55.632 208.742 56.56 210.038 57.12L210.694 56.128C208.982 55.44 208.086 53.888 208.086 52.368ZM204.022 51.248H202.806V53.056H200.278V51.248H199.046V56.992H204.022V51.248ZM200.278 54.032H202.806V55.968H200.278V54.032ZM223.572 48.368L224.052 47.312C221.492 47.008 218.98 45.376 218.98 43.632V42.992H217.636V43.632C217.636 45.456 215.124 47.008 212.548 47.312L213.028 48.368C215.284 48.032 217.396 46.896 218.308 45.296C219.22 46.896 221.348 48.032 223.572 48.368ZM224.788 50.432V49.376H211.796V50.432H224.788ZM223.092 51.424H221.796V53.104H214.74V51.424H213.444V56.992H223.092V51.424ZM214.74 54.112H221.796V55.936H214.74V54.112ZM237.971 57.168V42.832H236.659V57.168H237.971ZM228.419 52.352V44.224H227.107V53.472H228.291C230.595 53.472 232.819 53.312 235.331 52.8L235.187 51.68C232.803 52.176 230.611 52.352 228.419 52.352ZM251.65 49.584H254.018V48.496H251.65V42.832H250.338V57.216H251.65V49.584ZM242.53 52.512V45.296H247.89V44.208H241.218V53.632H242.354C245.042 53.632 246.962 53.552 249.138 53.12L248.994 52.032C246.93 52.416 245.09 52.512 242.53 52.512ZM256.289 54.72H254.833V56.224H256.289V54.72Z" fill="#333333"/>
<g clip-path="url(#clip0_444_1258)">
<path d="M59 18C56.4054 17.223 55.777 16.5946 55 14C54.223 16.5946 53.5946 17.223 51 18C53.5946 18.777 54.223 19.4054 55 22C55.777 19.4054 56.4054 18.777 59 18Z" fill="#3B61D5"/>
</g>
<g clip-path="url(#clip1_444_1258)">
<path d="M64 12C62.7027 11.6115 62.3885 11.2973 62 10C61.6115 11.2973 61.2973 11.6115 60 12C61.2973 12.3885 61.6115 12.7027 62 14C62.3885 12.7027 62.7027 12.3885 64 12Z" fill="#3B61D5"/>
</g>
<path d="M62.5 39.7364V39.2364H62.4756C62.2711 36.7799 60.5721 34.6771 58.168 33.8996C55.2489 27.4923 48.7191 23.3684 41.5143 23.3684H40.0907C39.1655 21.8404 37.5865 20.7424 35.7305 20.4294V15.9785C37.0754 15.5386 38.0535 14.2984 38.0535 12.8254C38.0535 10.974 36.5137 9.5 34.6461 9.5C32.7781 9.5 31.2386 10.978 31.2386 12.8254C31.2386 14.3021 32.2202 15.5424 33.5653 15.9822V20.433C31.7092 20.7459 30.1271 21.8437 29.2015 23.372H27.4785C20.2734 23.372 13.7439 27.5032 10.8248 33.9033C8.26249 34.7331 6.5 37.0724 6.5 39.74C6.5 41.9819 7.74967 44.0334 9.74344 45.1115C11.6684 53.1264 19.0195 58.7934 27.4821 58.7934H41.5215C49.9843 58.7934 57.3355 53.119 59.2567 45.1074C61.2498 44.0266 62.5 41.9789 62.5 39.7364Z" fill="white" stroke="#3B61D5" stroke-miterlimit="10"/>
<path d="M43.8158 32.1719H25.48C20.4984 32.1719 16.4619 36.0958 16.4619 40.9352V41.2224C16.4619 46.0618 20.4984 49.9857 25.48 49.9857H43.8158C48.7974 49.9857 52.8339 46.0618 52.8339 41.2224V40.9352C52.8339 36.0958 48.7974 32.1719 43.8158 32.1719Z" fill="white" stroke="#3B61D5" stroke-miterlimit="10"/>
<path d="M26.6343 43.9042C28.2395 43.9042 29.5417 42.6369 29.5417 41.0788C29.5417 39.5207 28.2395 38.2534 26.6343 38.2534C25.029 38.2534 23.7268 39.5207 23.7268 41.0788C23.7268 42.6369 25.029 43.9042 26.6343 43.9042Z" fill="#3B61D5"/>
<path d="M42.6613 43.9042C44.2665 43.9042 45.5688 42.6369 45.5688 41.0788C45.5688 39.5207 44.2665 38.2534 42.6613 38.2534C41.0561 38.2534 39.7538 39.5207 39.7538 41.0788C39.7538 42.6369 41.0561 43.9042 42.6613 43.9042Z" fill="#3B61D5"/>
<path d="M13.897 48.6396H8.29135C7.88892 48.6396 7.56268 48.9643 7.56268 49.3648V60.2535C7.56268 60.654 7.88892 60.9787 8.29135 60.9787H13.897C14.2995 60.9787 14.6257 60.654 14.6257 60.2535V49.3648C14.6257 48.9643 14.2995 48.6396 13.897 48.6396Z" fill="#3B61D5"/>
<path d="M16.4654 60.537L14.6257 59.9662V49.3827C14.6257 49.3827 18.4061 46.8517 19.261 41.4559C19.3548 40.8707 19.9067 40.4399 20.4947 40.5332C21.8294 40.7451 23.6908 41.9872 22.0855 47.7241H28.1457C29.0656 47.7241 29.8123 48.4673 29.8123 49.3827C29.8123 50.2982 29.0656 51.0413 28.1457 51.0413H29.2496C30.1189 51.0413 30.8981 51.6768 30.9811 52.5384C31.0748 53.5292 30.2957 54.3621 29.3217 54.3621H28.1457C29.1197 54.3621 29.8989 55.195 29.8051 56.1859C29.7221 57.0475 28.9429 57.6829 28.0736 57.6829H27.7129C28.6327 57.6829 29.3794 58.4261 29.3794 59.3415C29.3794 60.257 28.6327 61.0002 27.7129 61.0002L18.3015 60.8314C17.6775 60.8206 17.0606 60.7201 16.4654 60.537Z" fill="white" stroke="#3B61D5" stroke-miterlimit="10"/>
<path d="M28.1422 51.0415H24.69" stroke="#3B61D5" stroke-miterlimit="10"/>
<path d="M28.1422 54.3589H24.69" stroke="#3B61D5" stroke-miterlimit="10"/>
<path d="M27.7093 57.6792H24.69" stroke="#3B61D5" stroke-miterlimit="10"/>
<defs>
<clipPath id="clip0_444_1258">
<rect width="8" height="8" fill="white" transform="translate(51 14)"/>
</clipPath>
<clipPath id="clip1_444_1258">
<rect width="4" height="4" fill="white" transform="translate(60 10)"/>
</clipPath>
</defs>
</svg>
