<svg width="45" height="45" viewBox="0 0 45 45" fill="none" xmlns="http://www.w3.org/2000/svg">
<mask id="mask0_425_487" style="mask-type:alpha" maskUnits="userSpaceOnUse" x="0" y="0" width="45" height="45">
<circle cx="22.5" cy="22.5" r="22.5" fill="#D9D9D9"/>
</mask>
<g mask="url(#mask0_425_487)">
<path d="M22.5306 43.5281C34.1283 43.5281 43.53 34.1263 43.53 22.5287C43.53 10.931 34.1283 1.5293 22.5306 1.5293C10.933 1.5293 1.53125 10.931 1.53125 22.5287C1.53125 34.1263 10.933 43.5281 22.5306 43.5281Z" fill="#FCE3C3"/>
<path d="M52.7632 72.5894C52.2445 71.3018 51.735 70.005 51.2163 68.7174C50.7253 67.4761 50.29 66.4109 49.6416 65.2437C49.3729 64.7621 49.0117 64.1414 48.706 63.6598C47.261 60.992 45.8067 58.3335 44.3616 55.6657C43.4446 53.9799 42.5275 52.294 41.6105 50.6081C41.0084 49.5058 40.4063 48.3942 39.9431 47.2178C39.3781 45.7635 39.0354 44.2351 38.7297 42.6974C38.5074 41.5673 38.2943 40.4372 38.0627 39.3164C37.4051 39.6128 36.7474 39.9092 36.0897 40.2149C34.6817 40.8726 33.283 41.5581 31.875 42.1972C32.9495 45.3189 34.1167 48.4035 35.7284 51.2843C38.6093 56.4253 42.8795 60.4825 46.3624 65.2345C46.4921 65.4105 46.4365 65.9199 46.4458 66.1423C46.4829 66.8555 46.4273 67.5688 46.5107 68.2728C46.6033 68.986 46.7608 69.6993 47.0109 70.3755C47.122 70.6812 47.4184 70.9683 47.7334 70.6904C47.7612 70.6719 47.789 70.6534 47.8167 70.6256C48.1317 70.2921 48.1317 69.8382 48.1132 69.4121C48.0946 68.9304 48.1132 68.4673 48.3262 68.0227C48.3818 67.9022 48.4837 67.7911 48.6134 67.7633C48.6967 67.7448 48.7801 67.7633 48.8542 67.7911C49.1136 67.8837 49.3081 68.0412 49.4656 68.2357C49.5489 68.3376 49.623 68.458 49.6879 68.5784C49.7527 68.6896 49.8083 68.81 49.8639 68.9304C49.9287 69.0787 49.9936 69.2269 50.0677 69.3658C50.0769 69.3936 50.0955 69.4214 50.114 69.4492C50.1233 69.477 50.1418 69.5048 50.151 69.5233C50.2344 69.69 50.3178 69.8568 50.4011 70.0142C50.5494 70.3106 50.7068 70.6163 50.855 70.9127C50.9847 71.1721 51.1237 71.4407 51.2533 71.7001C51.4849 72.154 51.735 72.6727 52.1426 72.9969C52.4483 73.2378 52.9485 72.9969 52.7725 72.5616L52.7632 72.5894Z" fill="#FFCFCA"/>
<path d="M14.136 31.3564C9.51372 31.3564 5.08597 45.9458 4.97482 46.131C4.88218 46.2978 -4.31604 59.8311 -4.34383 59.8589C-4.34383 59.8589 -7.46549 62.9991 -8.22506 63.9439C-8.73453 64.5831 -9.27179 65.25 -9.60526 66.0003C-9.95725 66.7969 -10.1703 67.6491 -10.3926 68.4828C-10.4297 68.6125 -10.4667 68.7514 -10.4482 68.8811C-10.4204 69.122 -10.1518 69.335 -9.91094 69.2239C-9.38294 68.983 -9.19768 68.2883 -9.04021 67.7881C-8.892 67.3157 -8.78084 66.834 -8.55853 66.3894C-8.33622 65.954 -8.01201 65.639 -7.62296 65.3426C-7.34507 65.1296 -7.07644 64.9165 -6.78928 64.7127C-6.67813 64.6386 -6.56697 64.5553 -6.44655 64.4997C-6.27982 64.4163 -6.11308 64.3607 -5.92782 64.37C-5.77035 64.3793 -5.54803 64.4534 -5.46466 64.5923C-5.36277 64.7405 -5.47393 64.9165 -5.53877 65.0462C-5.61287 65.2037 -5.72403 65.3519 -5.83519 65.4908C-6.02971 65.7317 -6.24276 65.9632 -6.36318 66.2411C-6.38171 66.2875 -6.40024 66.3338 -6.4095 66.3894C-6.54844 66.9266 -6.14087 67.714 -5.53877 67.223C-5.40909 67.1211 -5.30719 66.9822 -5.2053 66.8525C-4.71436 66.2226 -4.09373 65.6946 -3.73247 64.9906C-3.50089 64.5367 -3.31563 64.0643 -3.13963 63.5919C-2.7969 62.7119 -2.65795 62.1747 -2.59311 61.7486V61.73C-2.50974 61.6745 5.85481 54.1714 10.792 47.4464C11.9499 45.8717 14.7844 39.6747 16.1553 35.1728C16.4425 34.2465 14.9604 32.2364 14.0989 31.3379L14.136 31.3564Z" fill="#FFCFCA"/>
<path d="M20.7911 20.9552C22.1898 21.6685 23.6071 22.3262 25.0429 22.9746C25.4782 23.1691 25.9136 23.3636 26.3675 23.4563L26.4601 26.0684L26.5435 28.3101C26.4601 28.3657 26.3675 28.412 26.2749 28.4491C25.8488 29.5236 24.802 30.2831 23.5793 30.2831C22.3566 30.2831 21.1524 29.4031 20.8004 28.1989C20.7726 28.1989 20.7448 28.1804 20.717 28.1712C20.717 28.06 20.717 27.9488 20.717 27.8284C20.6985 27.6802 20.68 27.532 20.68 27.3838C20.68 27.2356 20.6892 27.0966 20.7078 26.967C20.7078 26.7724 20.7078 26.5779 20.7078 26.3834C20.7078 25.6331 20.7078 24.892 20.6244 24.1417C20.5966 23.9101 20.5688 23.6878 20.5318 23.4655C20.4484 22.9005 20.328 22.3447 20.2076 21.7889C20.1057 21.335 20.013 20.8719 19.9111 20.418C20.189 20.6681 20.4391 20.7885 20.7726 20.9645L20.7911 20.9552Z" fill="#FFCFCA"/>
<path d="M29.2549 16.4545C29.1067 18.27 28.3101 20.0393 27.0133 21.3176C26.4204 21.9011 25.7257 22.3921 24.9476 22.6885C24.0954 23.022 23.1691 23.1239 22.2521 23.0776C21.7148 23.0498 21.1683 22.9664 20.6773 22.7533C20.0845 22.494 19.5843 22.0586 19.1211 21.6047C18.3338 20.8266 17.602 19.9837 17.0647 19.0111C16.5275 18.0477 16.1755 16.9547 16.1847 15.8524C16.1847 15.4726 16.2311 15.0928 16.37 14.75C16.5645 14.2869 16.9258 13.9164 17.2963 13.5829C18.519 12.4713 19.9548 11.5543 21.5388 11.1189C23.1876 10.665 24.9291 10.7206 26.6335 10.7855C27.0689 10.804 27.4579 10.8873 27.8099 11.156C28.0971 11.3783 28.2453 11.7488 28.4027 12.073C28.8288 12.9438 29.116 13.8886 29.2272 14.8519C29.292 15.3799 29.3013 15.9172 29.2549 16.4545Z" fill="#534741"/>
<path d="M26.4684 26.0684C24.8659 25.7072 23.319 25.1236 21.911 24.3085C21.4571 24.0491 20.994 23.7712 20.5493 23.4655C20.466 22.9005 20.3456 22.3447 20.2251 21.7889C20.1232 21.335 20.0306 20.8719 19.9287 20.418C20.2066 20.6681 20.4567 20.7885 20.7902 20.9645C22.1889 21.6777 23.6062 22.3354 25.0419 22.9838C25.4773 23.1784 25.9127 23.3729 26.3665 23.4655L26.4592 26.0777L26.4684 26.0684Z" fill="#F9BFBB"/>
<path d="M29.0731 15.6024C28.9712 15.1949 28.8508 14.7966 28.7118 14.4168C28.2672 13.1941 27.4428 12.0732 26.3405 11.3229C24.2285 9.8964 21.2736 10.2484 19.5692 12.1195C19.1616 12.5642 18.8374 13.0736 18.6058 13.6202C18.0315 14.9633 18.0037 16.4083 18.3187 17.8071C18.5966 19.0391 19.1338 20.2247 19.8008 21.2715C20.2083 21.9106 20.69 22.5127 21.2551 23.0314C21.5793 23.3279 21.9313 23.5965 22.3203 23.8281C23.0891 24.2912 23.9506 24.5784 24.8399 24.6154C25.6457 24.6432 26.4702 24.4302 27.1556 24.0041C27.9245 23.5224 28.3876 22.7813 28.7211 21.9754C29.5455 19.9746 29.5918 17.6959 29.0731 15.6024Z" fill="#FFCFCA"/>
<path d="M20.1652 20.8461C19.3964 21.2351 18.4238 21.1703 17.7105 20.6979C17.1084 20.2903 16.7101 19.5956 16.6545 18.873C16.6452 18.7434 16.6545 18.6137 16.6545 18.4747C16.673 18.2431 16.7379 18.0116 16.849 17.8078C17.1269 17.3076 17.7198 17.0112 18.2848 17.0575C18.8591 17.1038 19.3779 17.4743 19.6557 17.9745L19.8503 19.0768L20.1559 20.8461H20.1652Z" fill="#FFCFCA"/>
<path d="M22.5745 14.0747C23.8621 13.8339 25.1589 13.5467 26.3817 13.0836C27.3728 12.713 28.4751 11.9998 28.7437 10.9253C29.0772 9.58212 27.9471 8.55392 26.8263 8.02593C24.6309 6.99773 21.9169 7.18299 19.916 8.56319C18.7026 9.40613 17.7855 10.6566 17.3687 12.0554C17.1278 12.852 17.0259 14.0655 17.9708 14.436C19.0638 14.8713 20.4255 14.4638 21.5371 14.2692C21.8891 14.2044 22.2411 14.1396 22.5931 14.0747H22.5745Z" fill="#534741"/>
<path d="M15.1677 14.3613C15.2789 13.5276 15.6494 12.7587 16.3256 12.3326C17.3075 11.7028 18.7989 11.8788 19.3917 12.9533C19.7808 13.648 19.79 14.5465 19.6789 15.3154C19.6325 15.6766 19.5307 16.0379 19.3361 16.3528C19.2064 16.5659 18.7711 17.1031 18.4747 17.0661C18.3728 17.0475 18.2709 17.0383 18.1875 17.029C18.169 17.029 18.1505 17.029 18.1412 17.029C17.8448 17.029 17.5576 17.1031 17.2983 17.2513C17.1037 17.3532 16.9463 17.5014 16.8351 17.6774C16.4646 18.0757 15.9088 17.381 15.7143 17.0939C15.2418 16.3806 15.0288 15.3339 15.1585 14.3613H15.1677Z" fill="#534741"/>
<path d="M34.3626 44.5522C34.3533 44.5522 34.344 44.5615 34.3255 44.5708C34.6775 50.4806 34.8906 62.2725 35.3352 67.2468C28.4342 66.8207 18.2263 67.2097 12.159 66.4687C11.9922 63.4397 12.159 56.2608 12.9926 46.7754C13.076 45.8398 13.1686 44.8857 13.2798 43.9038C13.2798 43.876 13.2798 43.839 13.2891 43.8112C13.2891 43.8112 13.2891 43.8112 13.2798 43.8112C12.3813 43.1998 11.3809 42.6441 10.3712 42.1068C8.97247 41.3472 7.56449 40.6154 6.42513 39.754C6.32324 39.6799 7.74975 37.2252 7.81459 37.0955C9.75984 33.0382 13.1223 28.7402 17.7539 27.749C18.0225 27.6935 20.6903 27.3878 20.6903 27.2674C20.6903 27.3044 20.6903 27.3507 20.6903 27.3878C20.6903 28.9903 21.9871 30.2871 23.5896 30.2871C25.1921 30.2871 26.4889 28.9903 26.4889 27.3878C26.4889 25.7853 26.4889 27.3137 26.4889 27.2766C28.9159 27.7676 31.2316 28.8699 33.112 30.4631C34.8164 31.9174 36.1781 33.7608 37.0766 35.8172C37.2434 36.197 37.4008 36.586 37.5398 36.9751C38.1419 38.5961 38.605 40.2542 39.1145 41.903C38.5124 42.3476 37.8362 42.783 37.1322 43.1906C36.2522 43.7 35.3167 44.1632 34.3626 44.5615V44.5522Z" fill="#397272"/>
<path d="M34.2851 39.122C34.387 40.9283 34.2666 42.7439 34.3592 44.5502C35.304 44.1519 36.2489 43.6795 37.1289 43.1792C36.7028 42.7346 36.3322 42.2344 36.0358 41.6972C35.3226 40.4003 35.0261 38.9275 34.6371 37.5102C34.2388 36.0837 33.7293 34.7313 32.6641 33.7031C33.7756 35.2593 34.1739 37.2138 34.2851 39.122Z" fill="#306664"/>
<path d="M23.3301 15.295C23.4413 15.2857 23.5617 15.295 23.6728 15.295C23.8766 15.3135 24.0804 15.332 24.2842 15.3413C24.349 15.3413 24.4324 15.3413 24.4602 15.2857C24.4787 15.2579 24.4695 15.2209 24.4602 15.1931C24.4139 15.0727 24.2657 15.0356 24.1452 15.0171C23.8303 14.98 23.5061 14.9986 23.2097 15.119C23.1541 15.1468 22.8299 15.295 22.8484 15.3691C22.8669 15.4339 23.2653 15.295 23.3301 15.2857V15.295Z" fill="#211A17"/>
<path d="M27.7446 15.166C27.6334 15.166 27.513 15.1846 27.4018 15.1938C27.1981 15.2216 27.0035 15.2587 26.7997 15.2865C26.7349 15.2957 26.6515 15.2957 26.6145 15.2401C26.596 15.2123 26.596 15.1753 26.6145 15.1475C26.6515 15.0271 26.7997 14.9808 26.9202 14.953C27.2258 14.8881 27.5593 14.8881 27.8557 14.99C27.9113 15.0086 28.254 15.1382 28.2355 15.2123C28.217 15.2865 27.8094 15.166 27.7446 15.166Z" fill="#211A17"/>
<path d="M27.3882 20.4931C27.1566 21.086 26.7398 21.4936 26.2396 21.5306C25.7486 21.5677 25.2855 21.262 24.9705 20.7525C24.7482 20.4005 24.6 19.9559 24.5537 19.4557H24.6463L27.4716 19.2148H27.5735C27.6013 19.678 27.5364 20.1134 27.3975 20.4839L27.3882 20.4931Z" fill="#CE7872"/>
<path d="M27.458 19.2227C27.1431 19.6951 26.6614 20.0193 26.1056 20.0656C25.5499 20.1119 25.0219 19.8711 24.6328 19.4542L27.458 19.2227Z" fill="white"/>
<path d="M27.3845 20.4953C27.1529 21.0881 26.736 21.4957 26.2358 21.5327C25.7449 21.5698 25.2817 21.2641 24.9668 20.7546C25.1057 20.662 25.2447 20.5879 25.4022 20.5138C25.8375 20.3193 26.3285 20.2359 26.7916 20.31C27.0047 20.347 27.1992 20.4026 27.3937 20.486L27.3845 20.4953Z" fill="#EA8C8B"/>
<path d="M24.4461 17.1308C24.4553 17.5198 24.2515 17.8348 23.9736 17.844C23.6957 17.8533 23.4734 17.5476 23.4642 17.1586C23.4549 16.7695 23.6587 16.4546 23.9366 16.4453C24.2052 16.4453 24.4368 16.7417 24.4461 17.1308Z" fill="#211A17"/>
<path d="M24.0971 16.9062C23.9396 16.9062 23.9489 17.1564 24.0971 17.1564C24.2546 17.1564 24.2453 16.9062 24.0971 16.9062Z" fill="white"/>
<path d="M27.0657 17.0453C27.075 17.4343 27.3066 17.7308 27.5752 17.7308C27.8438 17.7308 28.0569 17.4065 28.0476 17.0175C28.0383 16.6284 27.8068 16.332 27.5381 16.332C27.2695 16.332 27.0565 16.6562 27.0657 17.0453Z" fill="#211A17"/>
<path d="M27.7074 16.7227C27.55 16.7227 27.5592 16.9728 27.7074 16.9728C27.8649 16.9728 27.8556 16.7227 27.7074 16.7227Z" fill="white"/>
<path d="M26.234 17.9182C26.0765 17.7978 25.8264 17.7978 25.6689 17.9367L26.1043 18.6963C26.2247 18.6963 26.3266 18.5851 26.3729 18.474C26.447 18.2887 26.3915 18.0479 26.2247 17.9275L26.234 17.9182Z" fill="#CE7872"/>
<path d="M22.3538 17.9566C21.6313 18.0029 21.0755 18.5216 21.1218 19.1145C21.1682 19.7073 21.7795 20.1334 22.502 20.0871C23.2246 20.0408 23.7803 19.522 23.734 18.9292C23.6877 18.3364 23.0763 17.9103 22.3538 17.9566Z" fill="#F9BFBB"/>
<path d="M29.3076 18.3182C29.2891 17.9848 28.9371 17.7439 28.5295 17.7717C28.1219 17.7995 27.8163 18.0867 27.8348 18.4201C27.8533 18.7536 28.2053 18.9944 28.6129 18.9666C29.0205 18.9389 29.3261 18.6517 29.3076 18.3182Z" fill="#F9BFBB"/>
<path d="M14.3864 36.7051C13.8399 39.0394 13.4693 41.42 13.2748 43.8099C12.3763 43.1985 11.3759 42.6427 10.3662 42.1054C10.6626 41.9017 10.959 41.6793 11.2369 41.4478C12.2374 40.6141 13.1173 39.5952 13.6268 38.391C13.8769 37.7981 13.9881 37.2145 14.3864 36.7143V36.7051Z" fill="#306664"/>
<path d="M22.5097 45.0083C22.4449 45.0083 22.3893 44.9527 22.3893 44.8879C22.3893 44.8231 22.4449 44.7675 22.5097 44.7675C22.7228 44.7675 22.9358 44.7675 23.1489 44.7675C23.2137 44.7675 23.2693 44.8138 23.2693 44.8879C23.2693 44.9527 23.223 45.0083 23.1489 45.0083C22.9358 45.0083 22.7228 45.0176 22.5097 45.0176V45.0083ZM21.8706 45.0083C21.6575 45.0083 21.4445 44.9898 21.2314 44.9805C21.1666 44.9805 21.111 44.9249 21.1203 44.8508C21.1203 44.786 21.1759 44.7304 21.25 44.7397C21.463 44.7489 21.6761 44.7582 21.8891 44.7675C21.954 44.7675 22.0095 44.8231 22.0095 44.8879C22.0095 44.9527 21.954 45.0083 21.8891 45.0083H21.8706ZM23.788 44.9805C23.7232 44.9805 23.6769 44.9342 23.6676 44.8694C23.6676 44.8045 23.7139 44.7489 23.7788 44.7397C23.9918 44.7304 24.2049 44.7119 24.4087 44.6934C24.4735 44.6934 24.5291 44.7397 24.5384 44.8045C24.5384 44.8694 24.492 44.9249 24.4272 44.9342C24.2141 44.9527 24.0011 44.9713 23.788 44.9805ZM20.5923 44.9342C20.5923 44.9342 20.5923 44.9342 20.583 44.9342C20.37 44.9157 20.1569 44.8972 19.9439 44.8694C19.879 44.8694 19.8327 44.8045 19.842 44.7397C19.842 44.6748 19.9068 44.6285 19.9717 44.6378C20.1847 44.6656 20.3978 44.6841 20.6015 44.7026C20.6664 44.7026 20.7127 44.7675 20.7127 44.8323C20.7127 44.8972 20.6571 44.9435 20.5923 44.9435V44.9342ZM25.0571 44.8694C25.0015 44.8694 24.9459 44.8231 24.9367 44.7675C24.9367 44.7026 24.9737 44.6471 25.0386 44.6378C25.2516 44.61 25.4554 44.5822 25.6684 44.5544C25.7333 44.5452 25.7981 44.5915 25.8074 44.6563C25.8167 44.7212 25.7703 44.786 25.7055 44.7953C25.4924 44.8231 25.2794 44.8508 25.0663 44.8786C25.0663 44.8786 25.0663 44.8786 25.0571 44.8786V44.8694ZM19.3232 44.7953C19.3232 44.7953 19.314 44.7953 19.3047 44.7953C19.0917 44.7675 18.8786 44.7304 18.6656 44.6934C18.6007 44.6841 18.5544 44.6193 18.5637 44.5544C18.5729 44.4896 18.6378 44.4433 18.7026 44.4525C18.9064 44.4896 19.1195 44.5174 19.3325 44.5544C19.3973 44.5637 19.4437 44.6285 19.4344 44.6934C19.4344 44.7489 19.3788 44.7953 19.314 44.7953H19.3232ZM26.3261 44.6934C26.2705 44.6934 26.215 44.6563 26.2057 44.5915C26.1964 44.5266 26.2428 44.4618 26.3076 44.4525C26.5114 44.4155 26.7244 44.3784 26.9282 44.3321C26.9931 44.3228 27.0579 44.3599 27.0672 44.4247C27.0764 44.4896 27.0394 44.5544 26.9745 44.5637C26.7615 44.61 26.5484 44.6471 26.3447 44.6841C26.3447 44.6841 26.3354 44.6841 26.3261 44.6841V44.6934ZM18.0635 44.5822C18.0635 44.5822 18.0449 44.5822 18.0357 44.5822C17.8226 44.5359 17.6188 44.4988 17.4058 44.4433C17.3409 44.4247 17.3039 44.3599 17.3132 44.3043C17.3317 44.2395 17.3873 44.2024 17.4521 44.2117C17.6559 44.258 17.8689 44.3043 18.0727 44.3414C18.1376 44.3506 18.1839 44.4155 18.1654 44.4803C18.1561 44.5359 18.1005 44.573 18.0449 44.573L18.0635 44.5822ZM27.5766 44.4433C27.5211 44.4433 27.4747 44.4062 27.4562 44.3506C27.4377 44.2858 27.484 44.221 27.5489 44.2117C27.7526 44.1654 27.9564 44.1098 28.1695 44.0635C28.2343 44.045 28.2992 44.082 28.3177 44.1469C28.3362 44.2117 28.2992 44.2765 28.2343 44.2951C28.0305 44.3506 27.8175 44.3969 27.6137 44.4525C27.6137 44.4525 27.5952 44.4525 27.5859 44.4525L27.5766 44.4433ZM16.813 44.2951C16.8037 44.2951 16.7944 44.2951 16.7852 44.2951C16.5814 44.2395 16.3683 44.1839 16.1645 44.1191C16.0997 44.1005 16.0626 44.0357 16.0812 43.9709C16.0997 43.906 16.1645 43.869 16.2294 43.8875C16.4332 43.9431 16.637 44.0079 16.8407 44.0542C16.9056 44.0727 16.9426 44.1376 16.9241 44.2024C16.9056 44.258 16.8593 44.2951 16.813 44.2951ZM28.8086 44.1191C28.753 44.1191 28.7067 44.082 28.6975 44.0357C28.6789 43.9709 28.716 43.906 28.7808 43.8875C28.9846 43.8319 29.1884 43.7671 29.3922 43.7022C29.457 43.6837 29.5219 43.7207 29.5404 43.7763C29.5589 43.8412 29.5219 43.906 29.4663 43.9245C29.2625 43.9894 29.0587 44.0542 28.8549 44.1098C28.8457 44.1098 28.8364 44.1098 28.8179 44.1098L28.8086 44.1191ZM15.581 43.9338C15.5717 43.9338 15.5532 43.9338 15.5439 43.9338C15.3401 43.869 15.1363 43.7949 14.9325 43.73C14.8677 43.7115 14.8399 43.6374 14.8584 43.5818C14.877 43.517 14.9511 43.4892 15.0067 43.5077C15.2104 43.5818 15.405 43.6466 15.6088 43.7115C15.6736 43.73 15.7014 43.7949 15.6829 43.8597C15.6643 43.906 15.618 43.9431 15.5717 43.9431L15.581 43.9338ZM30.0221 43.7207C29.9758 43.7207 29.9295 43.693 29.9109 43.6374C29.8924 43.5725 29.9202 43.5077 29.985 43.4892C30.1796 43.4151 30.3834 43.341 30.5779 43.2669C30.6427 43.2391 30.7076 43.2669 30.7353 43.3317C30.7631 43.3965 30.7353 43.4614 30.6705 43.4892C30.4667 43.5633 30.2722 43.6466 30.0684 43.7115C30.0591 43.7115 30.0406 43.7115 30.0314 43.7115L30.0221 43.7207ZM14.3768 43.5077C14.3582 43.5077 14.349 43.5077 14.3304 43.5077C14.1359 43.4336 13.9321 43.3502 13.7376 43.2669C13.6728 43.2391 13.645 43.1742 13.6728 43.1094C13.7006 43.0445 13.7654 43.0168 13.8302 43.0445C14.0248 43.1279 14.2286 43.2113 14.4231 43.2854C14.4879 43.3132 14.5157 43.378 14.4879 43.4429C14.4694 43.4892 14.4231 43.517 14.3768 43.517V43.5077ZM31.217 43.2576C31.1707 43.2576 31.1244 43.2298 31.1059 43.1835C31.0781 43.1186 31.1059 43.0538 31.1707 43.026C31.3652 42.9426 31.5598 42.8593 31.7543 42.7667C31.8099 42.7389 31.884 42.7667 31.9118 42.8222C31.9395 42.8778 31.9118 42.9519 31.8562 42.9797C31.6617 43.0723 31.4671 43.1557 31.2726 43.2391C31.2541 43.2391 31.2448 43.2483 31.2263 43.2483L31.217 43.2576ZM13.2004 43.0075C13.1818 43.0075 13.1633 43.0075 13.154 42.9982C12.9595 42.9056 12.765 42.813 12.5705 42.7203C12.5149 42.6925 12.4871 42.6184 12.5149 42.5629C12.5427 42.5073 12.6168 42.4795 12.6724 42.5073C12.8669 42.5999 13.0521 42.6925 13.2467 42.7759C13.3022 42.8037 13.33 42.8778 13.3022 42.9334C13.2837 42.9797 13.2374 43.0075 13.1911 43.0075H13.2004ZM32.3749 42.7296C32.3286 42.7296 32.2915 42.7018 32.2638 42.6648C32.236 42.6092 32.2638 42.5351 32.3193 42.5073C32.5046 42.4147 32.6991 42.3128 32.8844 42.2201C32.94 42.1923 33.0141 42.2201 33.0419 42.2664C33.0696 42.322 33.0419 42.3961 32.9955 42.4239C32.8103 42.5258 32.6158 42.6184 32.4212 42.7111C32.4027 42.7111 32.3842 42.7203 32.3656 42.7203L32.3749 42.7296ZM12.0517 42.4424C12.0332 42.4424 12.0147 42.4424 11.9962 42.4332C11.8109 42.3313 11.6164 42.2294 11.4311 42.1275C11.3755 42.0904 11.357 42.0256 11.3848 41.9608C11.4218 41.9052 11.4867 41.8867 11.5515 41.9144C11.7368 42.0163 11.922 42.1182 12.1073 42.2201C12.1629 42.2479 12.1907 42.322 12.1536 42.3776C12.1351 42.4147 12.0888 42.4424 12.0517 42.4424ZM33.505 42.1368C33.468 42.1368 33.4216 42.1182 33.4031 42.0719C33.3661 42.0163 33.3938 41.9422 33.4494 41.9052C33.6347 41.8033 33.82 41.6921 33.9959 41.581C34.0515 41.5439 34.1256 41.5625 34.1627 41.618C34.1997 41.6736 34.1812 41.7477 34.1256 41.7848C33.9404 41.8959 33.7551 42.0071 33.5698 42.109C33.5513 42.1182 33.5328 42.1275 33.5143 42.1275L33.505 42.1368ZM10.9402 41.8126C10.9216 41.8126 10.8938 41.8126 10.8753 41.794C10.6901 41.6829 10.5141 41.5717 10.3288 41.4513C10.2732 41.4142 10.2547 41.3401 10.2917 41.2846C10.3288 41.229 10.4029 41.2105 10.4585 41.2475C10.6345 41.3587 10.8197 41.4791 10.9957 41.581C11.0513 41.618 11.0698 41.6921 11.0328 41.7477C11.0143 41.7848 10.968 41.8033 10.9309 41.8033L10.9402 41.8126ZM34.598 41.4791C34.561 41.4791 34.5239 41.4606 34.4962 41.4235C34.4591 41.3679 34.4776 41.2938 34.5332 41.2568C34.7092 41.1456 34.8852 41.0252 35.0612 40.9048C35.1168 40.8677 35.1909 40.877 35.2279 40.9326C35.265 40.9881 35.2557 41.0622 35.2001 41.0993C35.0242 41.2197 34.8389 41.3401 34.6629 41.4513C34.6444 41.4606 34.6166 41.4698 34.598 41.4698V41.4791ZM9.86565 41.1271C9.83786 41.1271 9.81933 41.1271 9.8008 41.1086C9.62481 40.9881 9.44881 40.8677 9.27281 40.738C9.21723 40.701 9.20797 40.6269 9.24502 40.5713C9.28207 40.5157 9.35618 40.5065 9.41176 40.5435C9.58775 40.6639 9.75449 40.7936 9.93049 40.914C9.98606 40.9511 9.99533 41.0252 9.95828 41.0808C9.93975 41.1178 9.89343 41.1364 9.85638 41.1364L9.86565 41.1271ZM35.654 40.7658C35.617 40.7658 35.5799 40.7473 35.5614 40.7195C35.5244 40.6639 35.5336 40.5898 35.5892 40.5528C35.7559 40.4324 35.9319 40.3027 36.0987 40.173C36.1542 40.1359 36.2284 40.1452 36.2654 40.1915C36.3025 40.2471 36.2932 40.3212 36.2469 40.3583C36.0801 40.4879 35.9041 40.6176 35.7374 40.7473C35.7189 40.7658 35.6911 40.7658 35.6633 40.7658H35.654ZM8.82818 40.3768C8.80039 40.3768 8.7726 40.3768 8.75408 40.349C8.58734 40.2193 8.42061 40.0804 8.25387 39.9507C8.19829 39.9044 8.19829 39.8303 8.23534 39.7839C8.28166 39.7284 8.35576 39.7284 8.40208 39.7654C8.56882 39.8951 8.73555 40.034 8.90229 40.1637C8.95786 40.2008 8.96713 40.2749 8.92081 40.3305C8.89302 40.3583 8.86523 40.3768 8.82818 40.3768ZM36.6637 39.9877C36.6267 39.9877 36.5989 39.9692 36.5711 39.9414C36.5248 39.8858 36.534 39.8117 36.5896 39.7747C36.7563 39.645 36.9138 39.5061 37.0713 39.3671C37.1176 39.3208 37.201 39.3301 37.238 39.3764C37.2843 39.4227 37.2751 39.5061 37.2288 39.5431C37.0713 39.682 36.9046 39.821 36.7378 39.9599C36.7193 39.9785 36.6915 39.9877 36.6637 39.9877ZM7.83703 39.5709C7.80924 39.5709 7.78145 39.5616 7.76293 39.5431C7.60546 39.4042 7.43872 39.2559 7.28125 39.117C7.23493 39.0707 7.22567 38.9966 7.28125 38.9503C7.32756 38.9039 7.40167 38.8947 7.44798 38.9503C7.60546 39.0892 7.76293 39.2374 7.9204 39.3764C7.96672 39.4227 7.97598 39.4968 7.92966 39.5431C7.90188 39.5709 7.87409 39.5802 7.83703 39.5802V39.5709ZM37.6271 39.1541C37.5993 39.1541 37.5622 39.1448 37.5344 39.117C37.4881 39.0707 37.4974 38.9966 37.5344 38.9503C37.6919 38.8113 37.8494 38.6631 37.9976 38.5149C38.0439 38.4686 38.118 38.4686 38.1643 38.5149C38.2106 38.5612 38.2106 38.6353 38.1643 38.6816C38.0069 38.8298 37.8494 38.9781 37.7012 39.1263C37.6827 39.1448 37.6456 39.1541 37.6178 39.1541H37.6271ZM6.8922 38.7094C6.86441 38.7094 6.83662 38.7002 6.80883 38.6724C6.66062 38.5242 6.50315 38.376 6.35494 38.2185C6.30863 38.1722 6.30863 38.0981 6.35494 38.0517C6.40126 38.0054 6.47536 38.0054 6.52168 38.0517C6.66989 38.2 6.8181 38.3574 6.97557 38.5056C7.02188 38.552 7.02188 38.6261 6.97557 38.6724C6.94778 38.7002 6.91999 38.7094 6.8922 38.7094ZM38.5441 38.2648C38.5163 38.2648 38.4885 38.2555 38.4608 38.2277C38.4144 38.1814 38.4144 38.1073 38.4608 38.061C38.609 37.9128 38.7572 37.7553 38.8961 37.5979C38.9424 37.5515 39.0165 37.5423 39.0629 37.5979C39.1092 37.6442 39.1184 37.7183 39.0629 37.7646C38.9146 37.9221 38.7664 38.0795 38.6182 38.2277C38.5904 38.2555 38.5626 38.2648 38.5349 38.2648H38.5441ZM6.00294 37.7924C5.97516 37.7924 5.9381 37.7831 5.91958 37.7553C5.78063 37.5979 5.63242 37.4404 5.49348 37.2737C5.44716 37.2273 5.45642 37.144 5.50274 37.1069C5.54905 37.0606 5.63242 37.0699 5.66947 37.1162C5.80842 37.2737 5.94737 37.4404 6.09558 37.5886C6.14189 37.6349 6.13263 37.709 6.09558 37.7553C6.07705 37.7739 6.04 37.7831 6.01221 37.7831L6.00294 37.7924ZM39.4056 37.32C39.3778 37.32 39.35 37.3107 39.3315 37.2922C39.2852 37.2459 39.2759 37.1718 39.3222 37.1254C39.4612 36.968 39.6001 36.8012 39.7298 36.6438C39.7761 36.5882 39.8502 36.5882 39.8965 36.6252C39.9521 36.6716 39.9521 36.7457 39.9151 36.792C39.7761 36.9587 39.6372 37.1254 39.4982 37.2829C39.4704 37.3107 39.4426 37.32 39.4056 37.32ZM5.16927 36.829C5.13222 36.829 5.10443 36.8105 5.07664 36.7827C4.93769 36.616 4.80801 36.4492 4.67833 36.2825C4.64127 36.2269 4.65054 36.1528 4.69685 36.1158C4.75243 36.0787 4.82653 36.088 4.86359 36.1343C4.99327 36.301 5.12295 36.4678 5.2619 36.6345C5.30821 36.6901 5.29895 36.7642 5.24337 36.8012C5.22485 36.8198 5.19706 36.829 5.16927 36.829ZM40.2207 36.3381C40.1929 36.3381 40.1652 36.3381 40.1466 36.3103C40.0911 36.2732 40.0818 36.1991 40.1281 36.1436C40.2578 35.9768 40.3875 35.8101 40.5079 35.6341C40.5449 35.5785 40.619 35.5692 40.6746 35.6063C40.7302 35.6433 40.7395 35.7175 40.7024 35.773C40.5727 35.949 40.4431 36.1158 40.3134 36.2918C40.2856 36.3196 40.2578 36.3381 40.2207 36.3381ZM4.39117 35.8193C4.35412 35.8193 4.31706 35.8008 4.29854 35.773C4.17812 35.6063 4.04844 35.4303 3.92802 35.245C3.89096 35.1895 3.90023 35.1154 3.95581 35.0783C4.01138 35.0413 4.08549 35.0505 4.12254 35.1061C4.24296 35.2821 4.36338 35.4581 4.49306 35.6248C4.53012 35.6804 4.52085 35.7545 4.46527 35.7916C4.44675 35.8101 4.41896 35.8101 4.39117 35.8101V35.8193ZM40.9803 35.3006C40.9525 35.3006 40.934 35.3006 40.9155 35.2821C40.8599 35.245 40.8506 35.1709 40.8877 35.1154C41.0081 34.9394 41.1285 34.7634 41.2397 34.5874C41.2767 34.5318 41.3508 34.5133 41.4064 34.5503C41.462 34.5874 41.4805 34.6615 41.4435 34.717C41.3323 34.893 41.2119 35.0783 41.0915 35.2543C41.0637 35.2914 41.0266 35.3099 40.9896 35.3099L40.9803 35.3006ZM3.67791 34.7634C3.64086 34.7634 3.60381 34.7448 3.57602 34.7078C3.46486 34.5318 3.34444 34.3465 3.23329 34.1613C3.19623 34.1057 3.21476 34.0316 3.27034 33.9945C3.32592 33.9575 3.40002 33.976 3.43707 34.0316C3.54823 34.2076 3.65939 34.3928 3.77054 34.5688C3.8076 34.6244 3.78907 34.6985 3.73349 34.7356C3.71497 34.7448 3.68718 34.7541 3.66865 34.7541L3.67791 34.7634ZM41.675 34.2261C41.6565 34.2261 41.6287 34.2261 41.6102 34.2076C41.5546 34.1705 41.5361 34.0964 41.5731 34.0408C41.6843 33.8556 41.7862 33.6796 41.8974 33.4943C41.9344 33.4387 41.9992 33.4202 42.0641 33.448C42.1197 33.4851 42.1382 33.5499 42.1104 33.6147C42.0085 33.8 41.8973 33.9853 41.7862 34.1705C41.7677 34.2076 41.7214 34.2261 41.6843 34.2261H41.675ZM3.01097 33.6703C2.97392 33.6703 2.9276 33.6518 2.90908 33.6055C2.80718 33.4202 2.69603 33.235 2.6034 33.0404C2.57561 32.9848 2.6034 32.9107 2.64971 32.883C2.70529 32.8552 2.7794 32.883 2.80718 32.9293C2.90908 33.1145 3.01097 33.2998 3.11287 33.4851C3.14992 33.5406 3.12213 33.6147 3.06655 33.6518C3.04803 33.6611 3.0295 33.6703 3.01097 33.6703ZM42.3049 33.1053C42.2864 33.1053 42.2679 33.1053 42.2493 33.096C42.1938 33.0682 42.166 32.9941 42.203 32.9385C42.3049 32.7533 42.3976 32.5587 42.4902 32.3735C42.518 32.3179 42.5921 32.2901 42.6477 32.3179C42.7032 32.3457 42.731 32.4198 42.7032 32.4754C42.6106 32.6699 42.5087 32.8552 42.4068 33.0497C42.3883 33.0867 42.342 33.1145 42.3049 33.1145V33.1053ZM2.41814 32.5402C2.37182 32.5402 2.33477 32.5124 2.30698 32.4754C2.21435 32.2901 2.12172 32.0863 2.02909 31.9011C2.0013 31.8455 2.02909 31.7714 2.08467 31.7436C2.14024 31.7158 2.21435 31.7436 2.24214 31.7992C2.33477 31.9937 2.41814 32.1882 2.51077 32.3735C2.53856 32.4291 2.51077 32.5032 2.45519 32.531C2.43666 32.531 2.41814 32.5402 2.39961 32.5402H2.41814ZM42.87 31.9566C42.8514 31.9566 42.8329 31.9566 42.8237 31.9474C42.7681 31.9196 42.7403 31.8455 42.7681 31.7899C42.8607 31.5954 42.9441 31.4009 43.0274 31.2063C43.0552 31.1415 43.1201 31.1137 43.1849 31.1415C43.2498 31.1693 43.2775 31.2341 43.2498 31.299C43.1664 31.4935 43.083 31.6973 42.9904 31.8918C42.9719 31.9381 42.9256 31.9659 42.8792 31.9659L42.87 31.9566ZM1.88088 31.3823C1.83456 31.3823 1.78825 31.3545 1.76972 31.3082C1.68635 31.1137 1.60299 30.9099 1.52888 30.7154C1.50109 30.6506 1.52888 30.5857 1.59372 30.5579C1.65856 30.5301 1.7234 30.5579 1.75119 30.6228C1.8253 30.8173 1.90867 31.0118 1.99203 31.2063C2.01982 31.2712 1.99203 31.336 1.92719 31.3638C1.90867 31.3638 1.8994 31.3731 1.88088 31.3731V31.3823ZM43.3609 30.7802C43.3424 30.7802 43.3331 30.7802 43.3146 30.7802C43.2498 30.7524 43.222 30.6876 43.2498 30.6228C43.3239 30.4282 43.398 30.2245 43.4721 30.0207C43.4906 29.9558 43.5647 29.928 43.6203 29.9466C43.6851 29.9651 43.7129 30.0392 43.6944 30.0948C43.6203 30.2986 43.5462 30.5023 43.4721 30.6969C43.4535 30.7432 43.4072 30.771 43.3609 30.771V30.7802ZM1.40846 30.1967C1.36215 30.1967 1.31583 30.1689 1.2973 30.1133C1.2232 29.9095 1.15836 29.7057 1.09352 29.5019C1.07499 29.4371 1.11204 29.3722 1.16762 29.3537C1.23246 29.3352 1.2973 29.3723 1.31583 29.4278C1.38067 29.6316 1.44551 29.8261 1.51962 30.0299C1.53814 30.0948 1.51036 30.1596 1.44551 30.1781C1.43625 30.1781 1.41772 30.1781 1.40846 30.1781V30.1967ZM43.787 29.576C43.7778 29.576 43.7592 29.576 43.75 29.576C43.6851 29.5575 43.6573 29.4927 43.6759 29.4278C43.7407 29.224 43.8055 29.0203 43.8611 28.8165C43.8796 28.7516 43.9445 28.7146 44.0093 28.7331C44.0742 28.7516 44.1112 28.8165 44.0927 28.8813C44.0279 29.0851 43.9723 29.2889 43.9074 29.4927C43.8889 29.539 43.8426 29.576 43.7963 29.576H43.787ZM1.01015 28.9832C0.95457 28.9832 0.908255 28.9461 0.898992 28.8998C0.83415 28.696 0.778572 28.483 0.722994 28.2792C0.704468 28.2144 0.741519 28.1495 0.806361 28.131C0.871202 28.1125 0.936044 28.1495 0.954571 28.2144C1.01015 28.4182 1.06573 28.6219 1.12131 28.8257C1.13983 28.8906 1.10278 28.9554 1.03794 28.9739C1.02867 28.9739 1.01941 28.9739 1.00089 28.9739L1.01015 28.9832ZM44.1483 28.344C44.139 28.344 44.1297 28.344 44.1205 28.344C44.0556 28.3255 44.0186 28.2607 44.0371 28.1958C44.0927 27.9921 44.139 27.7883 44.1853 27.5752C44.2039 27.5104 44.2687 27.4733 44.3243 27.4826C44.3891 27.5011 44.4262 27.566 44.4169 27.6215C44.3706 27.8253 44.315 28.0384 44.2594 28.2422C44.2409 28.2977 44.1946 28.3348 44.1483 28.3348V28.344ZM0.685941 27.7419C0.630363 27.7419 0.584047 27.7049 0.565521 27.6493C0.519206 27.4455 0.47289 27.2325 0.426575 27.0194C0.417312 26.9546 0.454364 26.8897 0.519206 26.8805C0.584047 26.8712 0.648889 26.9083 0.658152 26.9731C0.704467 27.1769 0.74152 27.39 0.797098 27.5937C0.815624 27.6586 0.769309 27.7234 0.704467 27.7327C0.704467 27.7327 0.685942 27.7327 0.676678 27.7327L0.685941 27.7419ZM44.4354 27.0935C44.4354 27.0935 44.4169 27.0935 44.4076 27.0935C44.3428 27.0843 44.2965 27.0194 44.315 26.9546C44.3521 26.7508 44.3984 26.5378 44.4354 26.334C44.4447 26.2691 44.5095 26.2228 44.5744 26.2321C44.6392 26.2413 44.6855 26.3062 44.6763 26.371C44.6392 26.5841 44.6022 26.7971 44.5559 27.0009C44.5466 27.0565 44.491 27.0935 44.4354 27.0935ZM0.435838 26.4822C0.38026 26.4822 0.324682 26.4451 0.315418 26.3803C0.278366 26.1672 0.241314 25.9542 0.213525 25.7411C0.204262 25.6763 0.250577 25.6114 0.315418 25.6022C0.38026 25.6022 0.445101 25.6392 0.454365 25.7041C0.482154 25.9079 0.519206 26.1209 0.556258 26.334C0.565521 26.3988 0.519206 26.4636 0.454365 26.4729C0.454365 26.4729 0.445101 26.4729 0.435838 26.4729V26.4822ZM44.6577 25.8338C44.6577 25.8338 44.6485 25.8338 44.6392 25.8338C44.5744 25.8245 44.5281 25.7597 44.5373 25.6948C44.5651 25.4818 44.5929 25.2687 44.6207 25.0649C44.6207 25.0001 44.6855 24.9538 44.7504 24.963C44.8152 24.963 44.8615 25.0279 44.8523 25.0927C44.8245 25.3058 44.7967 25.5188 44.7689 25.7319C44.7689 25.7874 44.7133 25.8338 44.6485 25.8338H44.6577ZM0.25984 25.2224C0.204262 25.2224 0.148683 25.1761 0.13942 25.1205C0.111631 24.9075 0.0931049 24.6944 0.0745787 24.4813C0.0745787 24.4165 0.120894 24.3609 0.185735 24.3517C0.250577 24.3517 0.306155 24.398 0.315418 24.4628C0.333945 24.6759 0.35247 24.8889 0.38026 25.0927C0.38026 25.1576 0.343208 25.2131 0.278366 25.2224C0.278366 25.2224 0.278366 25.2224 0.269103 25.2224H0.25984ZM44.806 24.5647C44.806 24.5647 44.806 24.5647 44.7967 24.5647C44.7318 24.5647 44.6855 24.4999 44.6855 24.435C44.7041 24.222 44.7226 24.0089 44.7319 23.8051C44.7319 23.7403 44.7967 23.694 44.8615 23.694C44.9264 23.694 44.982 23.7496 44.9727 23.8237C44.9634 24.0367 44.9449 24.2498 44.9264 24.4628C44.9264 24.5277 44.8708 24.574 44.806 24.574V24.5647ZM0.148683 23.9441C0.0838414 23.9441 0.0375264 23.8978 0.0282634 23.8329C0.0190003 23.6199 0.00973694 23.4068 0.000473868 23.1938C0.000473868 23.1289 0.0467895 23.0734 0.120894 23.0734C0.185736 23.0734 0.241314 23.1289 0.241314 23.1938C0.241314 23.4068 0.25984 23.6199 0.269103 23.8329C0.269103 23.8978 0.222787 23.9534 0.157946 23.9626L0.148683 23.9441ZM44.8708 23.2864C44.806 23.2864 44.7504 23.2308 44.7504 23.166C44.7504 22.9529 44.7504 22.7399 44.7504 22.5268V22.4805C44.7504 22.4157 44.806 22.3601 44.8708 22.3601C44.9356 22.3601 44.9912 22.4157 44.9912 22.4805V22.5268C44.9912 22.7399 44.9912 22.9529 44.9912 23.166C44.9912 23.2308 44.9356 23.2864 44.8708 23.2864ZM0.11163 22.6658C0.0467889 22.6658 -0.00878906 22.6102 -0.00878906 22.5454V22.5268C-0.00878906 22.3231 -0.00878906 22.11 -0.00878906 21.9062C-0.00878906 21.8414 0.0467889 21.7858 0.11163 21.7858C0.176472 21.7858 0.232051 21.8414 0.232051 21.9062C0.232051 22.11 0.232051 22.3138 0.232051 22.5176V22.5361C0.232051 22.6009 0.176472 22.6565 0.11163 22.6565V22.6658ZM44.8708 21.9618C44.806 21.9618 44.7504 21.9062 44.7504 21.8414C44.7504 21.6283 44.7318 21.4153 44.7226 21.2022C44.7226 21.1374 44.7689 21.0818 44.8337 21.0725C44.8986 21.0725 44.9542 21.1189 44.9634 21.1837C44.9727 21.3967 44.982 21.6098 44.9912 21.8228C44.9912 21.8877 44.9449 21.9433 44.8708 21.9433V21.9618ZM0.148683 21.3875C0.0838414 21.3875 0.0282632 21.3319 0.0375263 21.2578C0.0467894 21.0448 0.0653155 20.8317 0.0838417 20.6187C0.0838417 20.5538 0.148683 20.5075 0.213525 20.5075C0.278366 20.5075 0.324681 20.5723 0.324681 20.6372C0.306155 20.8502 0.296892 21.0633 0.278366 21.2671C0.278366 21.3319 0.222787 21.3782 0.157946 21.3782L0.148683 21.3875ZM44.7967 20.6835C44.7318 20.6835 44.6855 20.6372 44.6763 20.5723C44.6577 20.3593 44.6392 20.1462 44.6114 19.9424C44.6114 19.8776 44.6485 19.822 44.7133 19.8128C44.7782 19.8128 44.8337 19.8498 44.843 19.9147C44.8708 20.1277 44.8893 20.3408 44.9078 20.5538C44.9078 20.6186 44.8615 20.6742 44.7967 20.6835C44.7967 20.6835 44.7967 20.6835 44.7874 20.6835H44.7967ZM0.250577 20.1092C0.250577 20.1092 0.250577 20.1092 0.241314 20.1092C0.176472 20.1092 0.130157 20.0443 0.13942 19.9795C0.167209 19.7664 0.194999 19.5534 0.222788 19.3403C0.222788 19.2755 0.296892 19.2292 0.361734 19.2385C0.426575 19.2477 0.472891 19.3126 0.463627 19.3774C0.435838 19.5904 0.408049 19.7942 0.38026 20.0073C0.38026 20.0721 0.324682 20.1092 0.25984 20.1092H0.250577ZM44.6485 19.4144C44.5929 19.4144 44.5373 19.3681 44.5281 19.3126C44.5003 19.0995 44.4632 18.8957 44.4262 18.6827C44.4169 18.6178 44.454 18.553 44.5188 18.5437C44.5836 18.5345 44.6485 18.5715 44.6577 18.6364C44.6948 18.8494 44.7318 19.0625 44.7596 19.2755C44.7689 19.3403 44.7226 19.4052 44.6577 19.4144C44.6577 19.4144 44.6485 19.4144 44.6392 19.4144H44.6485ZM0.426575 18.8494C0.426575 18.8494 0.417312 18.8494 0.408049 18.8494C0.343208 18.8401 0.296892 18.7753 0.306156 18.7105C0.343208 18.4974 0.38026 18.2844 0.426575 18.0806C0.435838 18.0157 0.50068 17.9787 0.565521 17.9879C0.630363 17.9972 0.676678 18.062 0.658152 18.1269C0.6211 18.3307 0.574785 18.5437 0.537732 18.7475C0.528469 18.8031 0.472891 18.8494 0.417312 18.8494H0.426575ZM44.4262 18.1547C44.3706 18.1547 44.3243 18.1176 44.3057 18.062C44.2594 17.8583 44.2224 17.6452 44.1668 17.4414C44.1483 17.3766 44.1946 17.3117 44.2594 17.3025C44.3243 17.2839 44.3891 17.3303 44.3984 17.3951C44.4447 17.6082 44.491 17.8119 44.5373 18.025C44.5466 18.0898 44.5095 18.1547 44.4447 18.1639C44.4447 18.1639 44.4262 18.1639 44.4169 18.1639L44.4262 18.1547ZM0.676678 17.5896C0.676678 17.5896 0.658152 17.5896 0.648889 17.5896C0.584047 17.5711 0.546995 17.5063 0.556258 17.4507C0.602574 17.2469 0.658152 17.0338 0.71373 16.8301C0.732256 16.7652 0.797098 16.7282 0.86194 16.7467C0.926781 16.7652 0.963833 16.8301 0.945307 16.8949C0.889728 17.0987 0.843413 17.3117 0.797098 17.5155C0.787835 17.5711 0.732257 17.6082 0.676678 17.6082V17.5896ZM44.139 16.9042C44.0834 16.9042 44.0371 16.8671 44.0279 16.8115C43.9723 16.6077 43.9167 16.404 43.8611 16.2002C43.8426 16.1353 43.8797 16.0705 43.9445 16.052C44.0093 16.0334 44.0742 16.0705 44.0927 16.1353C44.1483 16.3391 44.2131 16.5429 44.2687 16.7559C44.2872 16.8208 44.2502 16.8856 44.1853 16.9042C44.1761 16.9042 44.1668 16.9042 44.1575 16.9042H44.139ZM1.00089 16.3484C0.991623 16.3484 0.98236 16.3484 0.963834 16.3484C0.898992 16.3298 0.86194 16.265 0.880466 16.2002C0.936044 15.9964 1.00089 15.7926 1.06573 15.5888C1.08425 15.524 1.14909 15.4962 1.21394 15.5147C1.27878 15.5332 1.30657 15.5981 1.28804 15.6629C1.2232 15.8667 1.15836 16.0705 1.10278 16.2743C1.08425 16.3298 1.03794 16.3576 0.991622 16.3576L1.00089 16.3484ZM43.7778 15.6814C43.7314 15.6814 43.6851 15.6536 43.6666 15.5981C43.6018 15.3943 43.5277 15.1998 43.4628 14.996C43.4443 14.9311 43.4721 14.8663 43.5369 14.8385C43.6018 14.82 43.6666 14.8478 43.6944 14.9126C43.7685 15.1164 43.8333 15.3202 43.8982 15.524C43.9167 15.5888 43.8889 15.6536 43.8241 15.6722C43.8148 15.6722 43.7963 15.6722 43.787 15.6722L43.7778 15.6814ZM1.3992 15.1349C1.38994 15.1349 1.37141 15.1349 1.36215 15.1349C1.2973 15.1164 1.26951 15.0423 1.28804 14.9867C1.36215 14.7829 1.43625 14.5791 1.51035 14.3846C1.53814 14.3198 1.60299 14.292 1.66783 14.3198C1.73267 14.3476 1.76046 14.4124 1.73267 14.4772C1.65856 14.6718 1.58446 14.8755 1.51035 15.0793C1.49183 15.1256 1.44551 15.1627 1.3992 15.1627V15.1349ZM43.3517 14.4772C43.3053 14.4772 43.259 14.4494 43.2405 14.4031C43.1664 14.2086 43.083 14.0141 42.9997 13.8196C42.9719 13.7547 42.9997 13.6899 43.0645 13.6621C43.1293 13.6343 43.1942 13.6621 43.222 13.7269C43.3053 13.9214 43.3887 14.1252 43.4628 14.3198C43.4906 14.3846 43.4628 14.4494 43.398 14.4772C43.3794 14.4772 43.3702 14.4772 43.3517 14.4772ZM1.87161 13.94C1.85309 13.94 1.84382 13.94 1.8253 13.9307C1.76046 13.9029 1.73267 13.8381 1.76046 13.7732C1.84383 13.5787 1.92719 13.3749 2.01982 13.1804C2.04761 13.1248 2.12172 13.097 2.1773 13.1248C2.23287 13.1526 2.26066 13.2267 2.23287 13.2823C2.14951 13.4768 2.05688 13.6713 1.97351 13.8659C1.95498 13.9122 1.90867 13.94 1.86235 13.94H1.87161ZM42.8607 13.3101C42.8144 13.3101 42.7681 13.2823 42.7496 13.236C42.6662 13.0415 42.5736 12.8562 42.4809 12.6617C42.4531 12.6061 42.4809 12.532 42.5365 12.5042C42.5921 12.4764 42.6662 12.5042 42.694 12.5598C42.7866 12.7543 42.8792 12.9488 42.9719 13.1341C42.9997 13.1897 42.9719 13.2638 42.9163 13.2916C42.8978 13.2916 42.8792 13.3008 42.87 13.3008L42.8607 13.3101ZM2.40887 12.7821C2.39035 12.7821 2.37182 12.7821 2.35329 12.7728C2.29772 12.745 2.26993 12.6709 2.29772 12.6154C2.39035 12.4208 2.49224 12.2263 2.59413 12.041C2.62192 11.9855 2.69603 11.9577 2.75161 11.9947C2.80718 12.0225 2.83497 12.0966 2.79792 12.1522C2.69603 12.3375 2.6034 12.532 2.51077 12.7172C2.49224 12.7636 2.44592 12.7821 2.39961 12.7821H2.40887ZM42.2957 12.1707C42.2493 12.1707 42.2123 12.1522 42.1938 12.1059C42.0919 11.9206 41.99 11.7354 41.8881 11.5501C41.851 11.4945 41.8788 11.4204 41.9344 11.3834C41.99 11.3463 42.0641 11.3741 42.1011 11.4297C42.203 11.6149 42.3049 11.8002 42.4068 11.9947C42.4346 12.0503 42.4068 12.1244 42.3605 12.1522C42.342 12.1615 42.3235 12.1707 42.3049 12.1707H42.2957ZM3.00171 11.652C2.98318 11.652 2.96466 11.652 2.94613 11.6335C2.89055 11.5964 2.87203 11.5316 2.89982 11.4667C3.00171 11.2815 3.11287 11.0962 3.22402 10.911C3.26108 10.8554 3.33518 10.8368 3.39076 10.8739C3.44634 10.911 3.46486 10.9851 3.42781 11.0406C3.31665 11.2166 3.21476 11.4019 3.1036 11.5872C3.08508 11.6242 3.03876 11.652 3.00171 11.652ZM41.6658 11.0684C41.6287 11.0684 41.5824 11.0499 41.5639 11.0128C41.4527 10.8368 41.3416 10.6516 41.2304 10.4756C41.1934 10.42 41.2119 10.3459 41.2675 10.3089C41.323 10.2718 41.3971 10.2903 41.4342 10.3459C41.5454 10.5219 41.6658 10.7072 41.7769 10.8924C41.814 10.948 41.7955 11.0221 41.7399 11.0592C41.7213 11.0684 41.7028 11.0777 41.675 11.0777L41.6658 11.0684ZM3.66865 10.559C3.65012 10.559 3.62233 10.559 3.60381 10.5404C3.54823 10.5034 3.5297 10.4293 3.56676 10.3737C3.68718 10.1977 3.79833 10.0124 3.91875 9.83643C3.95581 9.78086 4.02991 9.77159 4.08549 9.80865C4.14107 9.8457 4.15033 9.9198 4.11328 9.97538C3.99286 10.1514 3.87244 10.3274 3.76128 10.5034C3.74276 10.5404 3.69644 10.559 3.65939 10.559H3.66865ZM40.9803 9.99391C40.9433 9.99391 40.9062 9.97538 40.8784 9.93833C40.758 9.76233 40.6376 9.58633 40.5079 9.4196C40.4708 9.36402 40.4801 9.28991 40.5357 9.25286C40.5913 9.21581 40.6654 9.22507 40.7024 9.28065C40.8321 9.45665 40.9525 9.63265 41.0729 9.80865C41.11 9.86422 41.1007 9.93833 41.0451 9.97538C41.0266 9.99391 40.9988 9.99391 40.9803 9.99391ZM4.39117 9.50296C4.36338 9.50296 4.34486 9.50296 4.31707 9.48444C4.26149 9.44738 4.25222 9.37328 4.28928 9.3177C4.41896 9.1417 4.54864 8.97497 4.67833 8.79897C4.71538 8.74339 4.78948 8.73413 4.84506 8.78044C4.90064 8.8175 4.9099 8.8916 4.86359 8.94718C4.7339 9.11391 4.60422 9.28065 4.4838 9.45665C4.45601 9.48444 4.42822 9.50296 4.39117 9.50296ZM40.2207 8.96571C40.1837 8.96571 40.1466 8.94718 40.1281 8.91939C39.9984 8.75266 39.8687 8.58592 39.7298 8.41918C39.6835 8.36361 39.6927 8.2895 39.7483 8.25245C39.7946 8.20613 39.878 8.2154 39.9151 8.27098C40.054 8.43771 40.1837 8.60445 40.3134 8.77118C40.3504 8.82676 40.3412 8.90086 40.2948 8.93792C40.2763 8.95644 40.2485 8.96571 40.2207 8.96571ZM5.16927 8.49329C5.14148 8.49329 5.11369 8.49329 5.09516 8.4655C5.03959 8.41918 5.03959 8.34508 5.07664 8.29876C5.20632 8.13203 5.35453 7.96529 5.49348 7.80782C5.53979 7.76151 5.6139 7.75224 5.66021 7.79856C5.70653 7.84487 5.71579 7.91898 5.66947 7.96529C5.53053 8.12277 5.39158 8.2895 5.2619 8.45624C5.23411 8.48403 5.20632 8.50255 5.16927 8.50255V8.49329ZM39.4148 7.98382C39.3778 7.98382 39.35 7.96529 39.3222 7.94677C39.1833 7.7893 39.0443 7.63182 38.8961 7.47435C38.8498 7.42804 38.8591 7.35393 38.8961 7.30762C38.9424 7.2613 39.0165 7.27056 39.0629 7.30762C39.2111 7.46509 39.35 7.62256 39.4889 7.7893C39.5353 7.83561 39.526 7.91898 39.4797 7.95603C39.4612 7.97456 39.4334 7.98382 39.4056 7.98382H39.4148ZM6.01221 7.52993C5.98442 7.52993 5.95663 7.52067 5.92884 7.50214C5.88252 7.45582 5.87326 7.38172 5.92884 7.3354C6.07705 7.17793 6.22526 7.02046 6.37347 6.87225C6.41978 6.82594 6.49389 6.82594 6.5402 6.87225C6.58652 6.91857 6.58652 6.99267 6.5402 7.03899C6.39199 7.1872 6.24378 7.34467 6.10484 7.50214C6.07705 7.52993 6.04926 7.53919 6.01221 7.53919V7.52993ZM38.5534 7.03899C38.5256 7.03899 38.4885 7.02972 38.47 7.00193C38.3218 6.85372 38.1736 6.69625 38.0161 6.55731C37.9698 6.51099 37.9698 6.43689 38.0161 6.39057C38.0624 6.34426 38.1365 6.34426 38.1829 6.39057C38.3311 6.53878 38.4885 6.68699 38.6367 6.84446C38.6831 6.89078 38.6831 6.96488 38.6367 7.0112C38.609 7.02972 38.5812 7.04825 38.5534 7.04825V7.03899ZM6.90146 6.61289C6.87367 6.61289 6.83662 6.60362 6.8181 6.57583C6.77178 6.52952 6.77178 6.45541 6.8181 6.4091C6.9663 6.26089 7.12378 6.11268 7.28125 5.96447C7.32756 5.91816 7.40167 5.92742 7.44798 5.96447C7.4943 6.01079 7.48504 6.08489 7.44798 6.13121C7.29051 6.27015 7.13304 6.41836 6.98483 6.56657C6.95704 6.5851 6.92925 6.60362 6.90146 6.60362V6.61289ZM37.6363 6.14973C37.6085 6.14973 37.5808 6.14047 37.553 6.12194C37.3955 5.983 37.238 5.83479 37.0806 5.69584C37.0342 5.64953 37.025 5.57542 37.0713 5.52911C37.1176 5.48279 37.1917 5.47353 37.238 5.51984C37.4048 5.65879 37.5622 5.807 37.7197 5.94594C37.766 5.99226 37.7753 6.06636 37.7197 6.11268C37.6919 6.14047 37.6641 6.14973 37.6271 6.14973H37.6363ZM7.8463 5.74216C7.80924 5.74216 7.78145 5.72363 7.75366 5.7051C7.70735 5.65879 7.71661 5.57542 7.76293 5.53837C7.9204 5.39942 8.08714 5.26048 8.25387 5.12153C8.30945 5.07521 8.38355 5.08448 8.42061 5.14006C8.46692 5.19563 8.45766 5.26974 8.40208 5.30679C8.23534 5.43647 8.07787 5.57542 7.9204 5.71437C7.90187 5.73289 7.87408 5.74216 7.8463 5.74216ZM36.673 5.30679C36.6452 5.30679 36.6174 5.30679 36.5989 5.279C36.4321 5.14932 36.2654 5.01037 36.0987 4.88069C36.0431 4.84364 36.0338 4.76953 36.0801 4.71396C36.1172 4.65838 36.1913 4.64911 36.2469 4.69543C36.4136 4.82511 36.5896 4.96406 36.7471 5.09374C36.8027 5.14006 36.8027 5.21416 36.7656 5.26048C36.7378 5.28827 36.71 5.30679 36.673 5.30679ZM8.83744 4.92701C8.80039 4.92701 8.76334 4.90848 8.74481 4.88069C8.70776 4.82511 8.71703 4.75101 8.76334 4.71396C8.93008 4.58427 9.10607 4.45459 9.27281 4.32491C9.32839 4.28785 9.40249 4.29712 9.43954 4.3527C9.4766 4.40827 9.46733 4.48238 9.41176 4.51943C9.24502 4.63985 9.06902 4.76953 8.90229 4.89922C8.88376 4.91774 8.85597 4.92701 8.82818 4.92701H8.83744ZM35.6633 4.51943C35.6355 4.51943 35.617 4.51943 35.5892 4.5009C35.4225 4.38048 35.2465 4.2508 35.0705 4.13038C35.0149 4.09333 35.0056 4.01922 35.0427 3.96365C35.0797 3.90807 35.1538 3.8988 35.2094 3.93586C35.3854 4.05628 35.5614 4.18596 35.7374 4.30638C35.793 4.34343 35.8022 4.41754 35.7652 4.47312C35.7374 4.5009 35.7096 4.51943 35.6726 4.51943H35.6633ZM9.87491 4.16743C9.83786 4.16743 9.8008 4.14891 9.77302 4.11186C9.73596 4.05628 9.74523 3.98217 9.8008 3.94512C9.9768 3.8247 10.1528 3.70428 10.3381 3.59312C10.3936 3.55607 10.4677 3.5746 10.5048 3.63018C10.5418 3.68575 10.5233 3.75986 10.4677 3.79691C10.2917 3.90807 10.1157 4.02849 9.93975 4.14891C9.92122 4.16743 9.89344 4.16743 9.87491 4.16743ZM34.6073 3.79691C34.5888 3.79691 34.561 3.79691 34.5425 3.77838C34.3665 3.66723 34.1812 3.54681 34.0052 3.44491C33.9496 3.40786 33.9311 3.33376 33.9682 3.27818C34.0052 3.2226 34.0793 3.20407 34.1349 3.24113C34.3202 3.35228 34.4962 3.46344 34.6814 3.58386C34.737 3.62091 34.7555 3.69502 34.7185 3.7506C34.6999 3.78765 34.6536 3.80617 34.6166 3.80617L34.6073 3.79691ZM10.9494 3.48197C10.9124 3.48197 10.8661 3.46344 10.8475 3.42639C10.8105 3.37081 10.829 3.29671 10.8846 3.25965C11.0698 3.1485 11.2551 3.03734 11.4404 2.93545C11.4959 2.89839 11.5701 2.92618 11.6071 2.98176C11.6442 3.03734 11.6164 3.11144 11.5608 3.1485C11.3755 3.25039 11.1903 3.36155 11.0143 3.4727C10.9957 3.48197 10.9772 3.49123 10.9494 3.49123V3.48197ZM33.5143 3.13923C33.4957 3.13923 33.4772 3.13923 33.4587 3.12071C33.2734 3.01881 33.0882 2.91692 32.9029 2.81503C32.8473 2.78724 32.8195 2.71313 32.8566 2.65755C32.8844 2.60197 32.9585 2.57419 33.0141 2.61124C33.1993 2.71313 33.3938 2.81503 33.5791 2.91692C33.6347 2.95397 33.6532 3.01881 33.6254 3.08365C33.6069 3.12071 33.5606 3.1485 33.5235 3.1485L33.5143 3.13923ZM12.061 2.85208C12.0147 2.85208 11.9776 2.83355 11.9591 2.78724C11.9313 2.73166 11.9591 2.65755 12.0054 2.62976C12.1907 2.52787 12.3852 2.43524 12.5797 2.33335C12.6353 2.30556 12.7094 2.33335 12.7372 2.38892C12.765 2.4445 12.7372 2.51861 12.6816 2.5464C12.4964 2.63903 12.3018 2.73166 12.1166 2.83355C12.098 2.84281 12.0795 2.85208 12.061 2.85208ZM32.3842 2.53713C32.3657 2.53713 32.3471 2.53713 32.3286 2.52787C32.1341 2.43524 31.9395 2.34261 31.7543 2.25924C31.6987 2.23145 31.6709 2.15735 31.6987 2.10177C31.7265 2.04619 31.8006 2.0184 31.8562 2.04619C32.0507 2.13882 32.2452 2.23145 32.4398 2.32408C32.4953 2.35187 32.5231 2.42598 32.4953 2.48155C32.4768 2.52787 32.4305 2.5464 32.3842 2.5464V2.53713ZM13.2096 2.28703C13.1633 2.28703 13.117 2.25924 13.0985 2.21293C13.0707 2.15735 13.0985 2.08324 13.154 2.05545C13.3486 1.96282 13.5431 1.87946 13.7376 1.79609C13.8025 1.7683 13.8673 1.79609 13.8951 1.86093C13.9229 1.92577 13.8951 1.99061 13.8302 2.0184C13.6357 2.10177 13.4412 2.18514 13.2467 2.27777C13.2281 2.27777 13.2096 2.28703 13.2004 2.28703H13.2096ZM31.2263 2.00914C31.2078 2.00914 31.1985 2.00914 31.18 1.99988C30.9855 1.91651 30.7817 1.83314 30.5871 1.75904C30.5223 1.73125 30.4945 1.6664 30.5223 1.60156C30.5501 1.53672 30.6149 1.50893 30.6798 1.53672C30.8743 1.61083 31.0781 1.69419 31.2726 1.77756C31.3374 1.80535 31.3652 1.87019 31.3374 1.93503C31.3189 1.98135 31.2726 2.00914 31.2263 2.00914ZM14.386 1.78682C14.3397 1.78682 14.2934 1.75904 14.2749 1.71272C14.2471 1.64788 14.2749 1.58304 14.3397 1.55525C14.5342 1.48114 14.738 1.39778 14.9418 1.33293C15.0066 1.31441 15.0715 1.3422 15.09 1.40704C15.1085 1.47188 15.0808 1.53672 15.0159 1.55525C14.8214 1.62935 14.6176 1.70346 14.4231 1.77756C14.4046 1.77756 14.3953 1.77756 14.3768 1.77756L14.386 1.78682ZM30.0314 1.54598C30.0221 1.54598 30.0036 1.54598 29.9943 1.54598C29.7998 1.47188 29.596 1.40704 29.3922 1.3422C29.3274 1.32367 29.2996 1.25883 29.3181 1.19399C29.3366 1.12915 29.4015 1.10136 29.4663 1.11988C29.6701 1.18473 29.8739 1.25883 30.0777 1.32367C30.1425 1.3422 30.1703 1.4163 30.1518 1.47188C30.1332 1.5182 30.0869 1.55525 30.0406 1.55525L30.0314 1.54598ZM15.5902 1.36072C15.5439 1.36072 15.4976 1.33293 15.4791 1.27736C15.4605 1.21251 15.4883 1.14767 15.5532 1.12915C15.757 1.06431 15.9607 0.999464 16.1645 0.934622C16.2294 0.916096 16.2942 0.953148 16.3127 1.01799C16.3313 1.08283 16.2942 1.14767 16.2294 1.1662C16.0256 1.22178 15.8218 1.28662 15.618 1.35146C15.6088 1.35146 15.5902 1.35146 15.581 1.35146L15.5902 1.36072ZM28.8179 1.15694C28.8086 1.15694 28.7994 1.15694 28.7808 1.15694C28.5771 1.10136 28.3733 1.03652 28.1695 0.990201C28.1046 0.971675 28.0676 0.906833 28.0861 0.841992C28.1046 0.77715 28.1695 0.740098 28.2343 0.758624C28.4381 0.814202 28.6512 0.869781 28.8549 0.925359C28.9198 0.943885 28.9568 1.00873 28.9383 1.07357C28.9198 1.12915 28.8735 1.15694 28.8272 1.15694H28.8179ZM16.8222 0.999464C16.7666 0.999464 16.7203 0.962411 16.7111 0.906833C16.6925 0.841992 16.7296 0.77715 16.7944 0.758624C16.9982 0.703045 17.2113 0.647467 17.4151 0.601152C17.4799 0.582626 17.5447 0.628941 17.554 0.693782C17.5725 0.758624 17.5262 0.823465 17.4614 0.832728C17.2576 0.879044 17.0445 0.934622 16.8407 0.990201C16.8315 0.990201 16.8222 0.990201 16.813 0.990201L16.8222 0.999464ZM27.5859 0.832728C27.5859 0.832728 27.5674 0.832728 27.5581 0.832728C27.3543 0.786413 27.1413 0.740098 26.9375 0.703045C26.8726 0.693782 26.8263 0.628941 26.8449 0.564099C26.8634 0.499258 26.919 0.452942 26.9838 0.471469C27.1969 0.517784 27.4006 0.554836 27.6137 0.610415C27.6785 0.628941 27.7156 0.693782 27.7063 0.749361C27.6971 0.804939 27.6415 0.841992 27.5859 0.841992V0.832728ZM18.0727 0.712308C18.0172 0.712308 17.9708 0.675256 17.9523 0.619678C17.943 0.554836 17.9801 0.489995 18.0449 0.480732C18.2487 0.434416 18.4618 0.397364 18.6748 0.360312C18.7397 0.351049 18.8045 0.397364 18.8138 0.462206C18.823 0.527047 18.786 0.591889 18.7119 0.601152C18.4988 0.638204 18.295 0.675256 18.0913 0.721572C18.0913 0.721572 18.0727 0.721572 18.0635 0.721572L18.0727 0.712308ZM26.3354 0.582626C26.3354 0.582626 26.3261 0.582626 26.3169 0.582626C26.1131 0.545573 25.9 0.517784 25.687 0.480732C25.6221 0.480732 25.5758 0.406627 25.5851 0.341786C25.5943 0.276944 25.6592 0.230629 25.724 0.239892C25.9371 0.267681 26.1501 0.304733 26.3632 0.341786C26.428 0.351049 26.4743 0.41589 26.4651 0.480732C26.4558 0.53631 26.4002 0.582626 26.3447 0.582626H26.3354ZM19.3325 0.489995C19.2769 0.489995 19.2213 0.443679 19.2121 0.388101C19.2028 0.323259 19.2491 0.258418 19.314 0.249155C19.527 0.221366 19.7401 0.193576 19.9531 0.165787C20.018 0.165787 20.0736 0.20284 20.0828 0.267681C20.0828 0.332523 20.0458 0.388101 19.9809 0.397364C19.7771 0.425153 19.5641 0.452942 19.351 0.480732C19.351 0.480732 19.3418 0.480732 19.3325 0.480732V0.489995ZM25.0663 0.397364C25.0663 0.397364 25.0663 0.397364 25.0571 0.397364C24.844 0.369575 24.631 0.351049 24.4272 0.332523C24.3624 0.332523 24.316 0.267681 24.316 0.20284C24.316 0.137998 24.3809 0.0916827 24.4457 0.0916827C24.6588 0.110209 24.8718 0.128735 25.0849 0.156524C25.1497 0.156524 25.196 0.221366 25.1868 0.286207C25.1868 0.351049 25.1312 0.388101 25.0663 0.388101V0.397364ZM20.6015 0.341786C20.5367 0.341786 20.4904 0.29547 20.4811 0.230629C20.4811 0.165787 20.5274 0.110209 20.5923 0.100946C20.8053 0.0824196 21.0184 0.0638935 21.2314 0.0546304C21.2963 0.0546304 21.3519 0.100946 21.3611 0.165787C21.3611 0.230629 21.3148 0.286207 21.25 0.29547C21.0369 0.304733 20.8239 0.323259 20.6201 0.341786C20.6201 0.341786 20.6201 0.341786 20.6108 0.341786H20.6015ZM23.7973 0.29547C23.5843 0.286207 23.3712 0.276944 23.1582 0.267681C23.0933 0.267681 23.0377 0.212103 23.0377 0.147261C23.0377 0.0824196 23.0933 0.0268412 23.1582 0.0268412C23.3712 0.0268412 23.5843 0.0453673 23.7973 0.0546304C23.8621 0.0546304 23.9177 0.110209 23.9085 0.184313C23.9085 0.249155 23.8529 0.29547 23.788 0.29547H23.7973ZM21.8799 0.267681C21.815 0.267681 21.7594 0.212103 21.7594 0.147261C21.7594 0.0824196 21.8057 0.0268412 21.8799 0.0268412C22.0929 0.0268412 22.306 0.0175781 22.519 0.0175781C22.5838 0.0175781 22.6394 0.0731566 22.6394 0.137998C22.6394 0.20284 22.5838 0.258418 22.519 0.258418C22.306 0.258418 22.0929 0.258418 21.8799 0.267681Z" fill="#FBB03B"/>
</g>
</svg>
