<svg width="663" height="48" viewBox="0 0 663 48" fill="none" xmlns="http://www.w3.org/2000/svg">
<path d="M20.752 38.456V32.926H19.31V34.522H13.528V32.926H12.086V38.456H20.752ZM19.31 35.684V37.294H13.528V35.684H19.31ZM22.166 40.99V39.828H10.7V40.99H15.67V45.092H17.112V40.99H22.166ZM32.3429 35.614H30.1029V36.79H32.3429V39.968H33.7849V32.436H32.3429V35.614ZM30.1169 39.562L30.8309 38.428C28.9269 37.756 27.8629 36.23 27.8629 34.62V34.452H30.4949V33.29H23.7329V34.452H26.4069V34.634C26.4069 36.37 25.2729 38.05 23.3129 38.75L24.0549 39.898C25.5669 39.352 26.6169 38.26 27.1769 36.86C27.7229 38.092 28.7169 39.072 30.1169 39.562ZM29.5849 40.304C26.9389 40.304 25.3149 41.186 25.3149 42.698C25.3149 44.21 26.9389 45.092 29.5849 45.092C32.2169 45.092 33.8409 44.21 33.8409 42.698C33.8409 41.186 32.2169 40.304 29.5849 40.304ZM29.5849 43.972C27.7789 43.972 26.7569 43.538 26.7569 42.698C26.7569 41.858 27.7789 41.424 29.5849 41.424C31.3909 41.424 32.3989 41.858 32.3989 42.698C32.3989 43.538 31.3909 43.972 29.5849 43.972Z" fill="#999999"/>
<path d="M320.274 36.496L320.792 37.63C323.046 37.392 324.74 36.482 325.426 35.18C326.098 36.454 327.848 37.406 330.06 37.63L330.564 36.496C328.226 36.272 326.588 35.25 326.406 34.144H330.102V32.982H320.764V34.144H324.432C324.25 35.25 322.612 36.272 320.274 36.496ZM326.14 39.422H331.138V38.274H319.7V39.422H324.698V40.584C322.332 40.738 321.044 41.494 321.044 42.838C321.044 44.294 322.612 45.078 325.398 45.078C328.198 45.078 329.752 44.294 329.752 42.838C329.752 41.494 328.492 40.752 326.14 40.598V39.422ZM328.296 42.838C328.296 43.566 327.26 43.972 325.398 43.972C323.536 43.972 322.514 43.566 322.514 42.838C322.514 42.054 323.536 41.69 325.398 41.69C327.26 41.69 328.296 42.054 328.296 42.838ZM342.729 32.436H341.287V39.422H342.729V32.436ZM340.139 38.806L339.971 37.63C338.137 37.924 336.569 38.008 334.385 38.008V36.608H338.711V33.024H332.929V34.2H337.297V35.516H332.957V39.184H334.021C336.443 39.184 338.165 39.142 340.139 38.806ZM341.301 40.01V41.312H335.883V40.01H334.441V44.924H342.729V40.01H341.301ZM341.301 42.446V43.762H335.883V42.446H341.301Z" fill="#999999"/>
<path d="M640.166 37.742H638.416C638.738 36.216 638.738 35.054 638.738 34.046V33.066H630.156V34.242H637.324C637.324 35.208 637.296 36.286 636.96 37.742H628.7V38.918H640.166V37.742ZM634.412 40.22C631.696 40.22 630.002 41.116 630.002 42.642C630.002 44.154 631.696 45.078 634.412 45.078C637.142 45.078 638.822 44.154 638.822 42.642C638.822 41.116 637.142 40.22 634.412 40.22ZM634.412 43.902C632.55 43.902 631.458 43.482 631.458 42.642C631.458 41.802 632.55 41.396 634.412 41.396C636.33 41.396 637.366 41.802 637.366 42.642C637.366 43.482 636.33 43.902 634.412 43.902ZM650.343 35.614H648.103V36.79H650.343V39.968H651.785V32.436H650.343V35.614ZM648.117 39.562L648.831 38.428C646.927 37.756 645.863 36.23 645.863 34.62V34.452H648.495V33.29H641.733V34.452H644.407V34.634C644.407 36.37 643.273 38.05 641.313 38.75L642.055 39.898C643.567 39.352 644.617 38.26 645.177 36.86C645.723 38.092 646.717 39.072 648.117 39.562ZM647.585 40.304C644.939 40.304 643.315 41.186 643.315 42.698C643.315 44.21 644.939 45.092 647.585 45.092C650.217 45.092 651.841 44.21 651.841 42.698C651.841 41.186 650.217 40.304 647.585 40.304ZM647.585 43.972C645.779 43.972 644.757 43.538 644.757 42.698C644.757 41.858 645.779 41.424 647.585 41.424C649.391 41.424 650.399 41.858 650.399 42.698C650.399 43.538 649.391 43.972 647.585 43.972Z" fill="#999999"/>
<rect x="663" width="24" height="663" rx="12" transform="rotate(90 663 0)" fill="#F7F8FB"/>
</svg>
