<svg width="125" height="40" viewBox="0 0 125 40" fill="none" xmlns="http://www.w3.org/2000/svg">
<g clip-path="url(#clip0_425_452)">
<path d="M36.5335 15.8282C36.5335 14.3425 36.2149 12.9241 35.6217 11.5627C35.1295 10.4342 34.4146 9.45835 33.622 8.52915C32.4926 7.20392 31.1612 6.11683 29.6899 5.19279C27.7964 4.00475 25.864 2.88659 23.9058 1.80985C23.1883 1.41384 22.4656 1.02559 21.6885 0.761578C21.2067 0.598513 20.7249 0.430272 20.2379 0.285325C19.207 -0.0226854 18.1553 -0.0770402 17.0907 0.101554C16.311 0.230971 15.578 0.51051 14.8372 0.769343C14.4072 0.919465 13.9798 1.09547 13.5783 1.30771C11.1822 2.57341 8.83802 3.92969 6.55338 5.38433C5.29709 6.18671 4.15476 7.13145 3.16527 8.24961C2.4374 9.07011 1.75097 9.92167 1.23809 10.9026C0.427325 12.453 0.015468 14.0992 0.00510676 15.8463C-7.38335e-05 16.6021 -7.38335e-05 17.3605 -7.38335e-05 18.1163C-7.38335e-05 18.7401 0.00251646 19.3639 0.00251646 19.9851C0.00251646 20.407 0.00251646 20.8315 -7.38335e-05 21.2559C-7.38335e-05 22.211 -0.00266413 23.1687 0.00510676 24.1238C0.015468 25.8787 0.427325 27.5352 1.24327 29.0934C1.77169 30.1028 2.48402 30.9777 3.24039 31.8215C4.31536 33.0173 5.56907 34.0009 6.92897 34.8498C8.92091 36.0896 10.9517 37.2647 13.011 38.3907C13.6637 38.7479 14.332 39.0636 15.0366 39.2992C15.4277 39.4312 15.8215 39.558 16.2178 39.6822C17.3705 40.0394 18.5465 40.1145 19.7173 39.8298C20.4762 39.646 21.2196 39.382 21.9605 39.1258C22.3412 38.9937 22.7117 38.8203 23.0691 38.6314C25.2346 37.4848 27.3457 36.2449 29.4361 34.9637C31.2622 33.8456 32.863 32.4738 34.1893 30.781C35.7098 28.8372 36.5154 26.6474 36.5309 24.1833C36.5464 21.3983 36.5361 18.6133 36.5335 15.8282ZM8.44948 11.7024C8.44948 11.6895 8.44948 11.674 8.45207 11.661C8.45207 11.6481 8.45207 11.6351 8.45466 11.6222C8.45466 11.6196 8.45466 11.6144 8.45466 11.6118C8.45466 11.6093 8.45466 11.6067 8.45466 11.6067C8.45466 11.5963 8.45725 11.586 8.45725 11.5756C8.45984 11.529 8.46761 11.485 8.47279 11.441C8.47797 11.4125 8.48315 11.3815 8.48833 11.353C8.49351 11.3245 8.50128 11.2935 8.50905 11.265C8.51164 11.2547 8.51423 11.2443 8.51682 11.2314C8.51941 11.221 8.52201 11.2107 8.5246 11.2003C8.52719 11.1899 8.52978 11.1796 8.53496 11.1692C8.53755 11.1589 8.54014 11.1485 8.54532 11.1382C8.55568 11.1097 8.56345 11.0812 8.57381 11.0528C8.58417 11.0269 8.59453 11.001 8.6049 10.9777C8.60749 10.9725 8.61008 10.9673 8.61267 10.9622C8.61526 10.957 8.61785 10.9518 8.62044 10.9466C8.62562 10.9337 8.6308 10.9233 8.63598 10.9104C8.64116 10.8975 8.64634 10.8871 8.65411 10.8742C8.65929 10.8612 8.66706 10.8509 8.67224 10.8379C8.68519 10.8146 8.69814 10.7913 8.7111 10.768C8.72664 10.7422 8.74218 10.7163 8.76031 10.6904C8.77067 10.6749 8.78104 10.6593 8.7914 10.6438C8.79399 10.6412 8.79399 10.6386 8.79658 10.636C8.80694 10.6205 8.8173 10.605 8.83025 10.592C8.83802 10.5817 8.8432 10.5739 8.85097 10.5636C8.85874 10.5506 8.86911 10.5403 8.87947 10.5273C8.88724 10.517 8.8976 10.5066 8.90537 10.4963C8.91314 10.4859 8.9235 10.4756 8.93127 10.4652C8.94163 10.4549 8.9494 10.4445 8.95977 10.4342C8.97013 10.4212 8.98308 10.4109 8.99344 10.3979C8.99862 10.3927 9.0038 10.385 9.01157 10.3798C9.01675 10.3746 9.02193 10.3694 9.0297 10.3617C9.07374 10.3203 9.11518 10.2789 9.16181 10.2426C9.17217 10.2323 9.18512 10.2245 9.19548 10.2141C9.20584 10.2064 9.21879 10.196 9.22916 10.1883C9.23952 10.1805 9.25247 10.1701 9.26283 10.1624C9.27319 10.1546 9.28096 10.1494 9.29132 10.1417C9.3768 10.0821 9.46487 10.033 9.55294 9.99155C9.5633 9.98637 9.57367 9.9812 9.58403 9.97602C9.58662 9.97602 9.58921 9.97343 9.5918 9.97343C9.59957 9.97084 9.60475 9.96826 9.61252 9.96567C9.63842 9.95531 9.66692 9.94496 9.69282 9.93461C9.70059 9.93202 9.70836 9.92943 9.71613 9.92684C9.73945 9.91908 9.76276 9.91131 9.78607 9.90614C9.79125 9.90355 9.79643 9.90355 9.80161 9.90096C9.83529 9.89319 9.86637 9.88543 9.90004 9.87766C9.90781 9.87508 9.91559 9.87508 9.92336 9.87249C9.92595 9.87249 9.92854 9.87249 9.93113 9.8699C9.94667 9.86731 9.95962 9.86472 9.97516 9.86213C9.97775 9.86213 9.98034 9.86213 9.98293 9.85954C9.99588 9.85696 10.0114 9.85437 10.0244 9.85437C10.0296 9.85437 10.0321 9.85178 10.0373 9.85178C10.0425 9.85178 10.0477 9.85178 10.0529 9.84919C10.0762 9.8466 10.0995 9.84402 10.1228 9.84402C10.1384 9.84402 10.1565 9.84143 10.172 9.84143C10.1876 9.84143 10.2057 9.84143 10.2212 9.84143C10.2342 9.84143 10.2497 9.84143 10.2627 9.84143C10.2705 9.84143 10.2756 9.84143 10.2834 9.84143C10.3274 9.84143 10.3715 9.8466 10.4155 9.85178C10.4259 9.85178 10.4362 9.85437 10.4492 9.85696C10.4621 9.85954 10.4777 9.85955 10.4906 9.86213C10.5139 9.86472 10.5373 9.8699 10.5632 9.87508C10.5761 9.87766 10.5865 9.88025 10.5994 9.88284C10.6176 9.88543 10.6357 9.8906 10.6538 9.89578C10.672 9.90096 10.6901 9.90613 10.7082 9.90872C10.7134 9.90872 10.7186 9.91131 10.7263 9.9139C10.7445 9.91908 10.7626 9.92425 10.7807 9.92943C10.7963 9.93461 10.8118 9.93978 10.8274 9.94496C10.8351 9.94755 10.8403 9.95014 10.8481 9.95273C10.8507 9.95273 10.8507 9.95273 10.8533 9.95531C10.8688 9.96049 10.8869 9.96567 10.9025 9.97343C10.918 9.97861 10.9336 9.98637 10.9517 9.99155C10.9543 9.99155 10.9595 9.99414 10.9621 9.99673C10.9802 10.0045 11.0009 10.0123 11.0191 10.0226C11.0372 10.0304 11.0553 10.0381 11.0734 10.0485C11.076 10.0485 11.076 10.0485 11.0786 10.0511C11.0942 10.0588 11.1097 10.0666 11.1253 10.0744C11.1304 10.077 11.133 10.0796 11.1382 10.0821C11.1537 10.0899 11.1693 10.1003 11.1848 10.108C11.2004 10.1158 11.2133 10.1261 11.2289 10.1339C11.234 10.1365 11.2418 10.1417 11.247 10.1468C11.2548 10.152 11.2625 10.1572 11.2703 10.1624C11.2781 10.1676 11.2859 10.1727 11.291 10.1779C11.3195 10.1986 11.348 10.2193 11.3739 10.24C11.3765 10.2426 11.3817 10.2452 11.3843 10.2478C11.4749 10.3203 11.5552 10.4031 11.6304 10.4937C11.6433 10.5092 11.6537 10.5247 11.6666 10.5403C11.6796 10.5558 11.6899 10.5713 11.7029 10.5895C11.7133 10.605 11.7236 10.6205 11.734 10.636C11.7366 10.6386 11.7366 10.6412 11.7392 10.6438C11.7469 10.6568 11.7547 10.6697 11.7625 10.6826C11.7728 10.6982 11.7806 10.7137 11.791 10.7292C11.7961 10.7396 11.8013 10.7473 11.8065 10.7577C11.8065 10.7603 11.8091 10.7603 11.8091 10.7629C11.8143 10.7706 11.8195 10.7784 11.822 10.7888C11.8272 10.7965 11.8298 10.8043 11.835 10.812C11.8428 10.825 11.8479 10.8379 11.8557 10.8509C11.8609 10.8638 11.8687 10.8768 11.8739 10.8897C11.8764 10.8975 11.8816 10.9052 11.8842 10.913C11.8946 10.9363 11.9049 10.9622 11.9153 10.9855C11.9205 10.9958 11.9257 11.0062 11.9282 11.0191C11.9334 11.0346 11.9412 11.0476 11.9464 11.0631C11.9542 11.0864 11.9619 11.1071 11.9697 11.1304C11.9723 11.1408 11.9775 11.1511 11.9801 11.1615C11.9852 11.177 11.9904 11.1951 11.9956 11.2132C11.9982 11.221 12.0008 11.2288 12.0034 11.2365C12.006 11.2443 12.0085 11.2521 12.0085 11.2598C12.0137 11.2754 12.0163 11.2935 12.0189 11.309C12.0215 11.3219 12.0241 11.3375 12.0267 11.3504C12.0293 11.3634 12.0319 11.3789 12.0344 11.3918C12.037 11.4048 12.0396 11.4203 12.0422 11.4332C12.0474 11.4695 12.0526 11.5057 12.0578 11.542C12.0629 11.5808 12.0681 11.6196 12.0733 11.6584C12.0733 11.6688 12.0759 11.6791 12.0785 11.6921C12.0811 11.7102 12.0837 11.7257 12.0863 11.7438C12.0681 12.3288 11.8635 12.8258 11.4231 13.214C10.7108 13.8404 9.68505 13.8042 9.01416 13.1312C9.00639 13.1234 8.99603 13.1131 8.98826 13.1053C8.98049 13.0975 8.97272 13.0872 8.96236 13.0794C8.95459 13.0691 8.94681 13.0613 8.93645 13.051C8.92868 13.0432 8.9235 13.0354 8.91573 13.0277C8.91055 13.0225 8.90796 13.0173 8.90278 13.0147C8.8976 13.007 8.88983 12.9992 8.88465 12.9914C8.87429 12.9811 8.86652 12.9681 8.85615 12.9578C8.84838 12.9474 8.8432 12.9397 8.83543 12.9293C8.82766 12.9189 8.82248 12.9112 8.81471 12.9034C8.79917 12.8827 8.78622 12.862 8.77326 12.8413C8.76808 12.8309 8.76031 12.8206 8.75513 12.8102C8.74736 12.7999 8.74218 12.7895 8.73441 12.7792C8.72923 12.774 8.72664 12.7662 8.72405 12.7611C8.72146 12.7559 8.71887 12.7507 8.71369 12.7455C8.7111 12.7404 8.70851 12.7352 8.70333 12.73C8.69815 12.7196 8.69296 12.7119 8.68778 12.7015C8.6826 12.6912 8.67483 12.6782 8.66965 12.6679C8.65411 12.6394 8.64116 12.6109 8.62821 12.5825C8.59712 12.5126 8.56863 12.4427 8.54791 12.3702C8.54532 12.365 8.54532 12.3599 8.54273 12.3573C8.54014 12.3469 8.53496 12.334 8.53237 12.3236C8.52719 12.3107 8.5246 12.2952 8.51941 12.2822C8.51423 12.2667 8.51164 12.2537 8.50905 12.2382C8.50646 12.2253 8.50387 12.2123 8.50128 12.202C8.49869 12.1942 8.4961 12.1865 8.4961 12.1787C8.49351 12.1632 8.49092 12.1502 8.48574 12.1347C8.48315 12.1269 8.48315 12.1192 8.48056 12.1088C8.47797 12.0959 8.47538 12.0803 8.47279 12.0674C8.47279 12.0622 8.4702 12.0544 8.4702 12.0467C8.4702 12.0415 8.46761 12.0337 8.46761 12.026C8.46502 12.0027 8.46243 11.9794 8.45984 11.9561C8.45725 11.9457 8.45725 11.9354 8.45725 11.925V11.9224C8.45725 11.9121 8.45466 11.9017 8.45466 11.8914V11.8888C8.45207 11.8629 8.45207 11.837 8.45207 11.8137V11.8034C8.45207 11.7853 8.45207 11.7671 8.45207 11.7516C8.44948 11.7361 8.44948 11.718 8.44948 11.7024ZM28.2627 13.8766C28.2601 15.8878 28.2601 17.8989 28.2601 19.9074C28.2601 22.5889 28.2575 25.2704 28.2575 27.9494C28.2575 28.1021 28.2601 28.2548 28.2575 28.4075C28.2575 28.4256 28.2575 28.4437 28.2575 28.4593C28.2575 28.4929 28.2575 28.5291 28.2549 28.5628C28.2523 28.5964 28.2523 28.6327 28.2523 28.6663C28.2523 28.6844 28.2497 28.7 28.2497 28.7181C28.2497 28.7362 28.2471 28.7517 28.2471 28.7673C28.2471 28.7724 28.2471 28.7776 28.2471 28.7828C28.2471 28.7957 28.2445 28.8087 28.2445 28.819C28.2445 28.8294 28.2419 28.8372 28.2419 28.8475C28.2394 28.8734 28.2368 28.8993 28.2342 28.9252C28.2264 28.995 28.2186 29.0623 28.2057 29.1296C28.2005 29.1529 28.1979 29.1736 28.1927 29.1969C28.1927 29.2021 28.1901 29.2099 28.1901 29.215C28.1901 29.2202 28.1875 29.228 28.1875 29.2332C28.185 29.2435 28.1824 29.2539 28.1798 29.2642C28.1772 29.2694 28.1772 29.2746 28.1772 29.2798C28.172 29.2953 28.1694 29.3108 28.1642 29.3289C28.1565 29.3548 28.1487 29.3807 28.1409 29.404C28.1332 29.4299 28.1228 29.4532 28.115 29.4791C28.1047 29.5024 28.0943 29.5282 28.0839 29.5515C28.0736 29.5722 28.0658 29.5929 28.0554 29.6137C28.0477 29.6292 28.0399 29.6421 28.0347 29.6577C28.0295 29.6654 28.0269 29.6758 28.0218 29.6835C28.014 29.7017 28.0036 29.7172 27.9933 29.7327C27.9933 29.7353 27.9907 29.7353 27.9907 29.7379C27.9829 29.7534 27.9751 29.7664 27.9648 29.7793C27.9622 29.7845 27.9596 29.7871 27.957 29.7922C27.9466 29.8078 27.9389 29.8207 27.9285 29.8362C27.9182 29.8544 27.9052 29.8699 27.8923 29.888C27.8793 29.9035 27.8689 29.9217 27.856 29.9372C27.843 29.9527 27.8327 29.9683 27.8197 29.9838C27.8042 30.0045 27.786 30.0226 27.7679 30.0433C27.7394 30.077 27.7083 30.108 27.6747 30.1391C27.6643 30.1494 27.6539 30.1598 27.6436 30.1701C27.6306 30.1831 27.6151 30.196 27.6021 30.209C27.5892 30.2193 27.5762 30.2297 27.5633 30.24C27.5503 30.2504 27.5348 30.2633 27.5218 30.2737C27.5089 30.284 27.4933 30.2944 27.4804 30.3047C27.4649 30.3151 27.4519 30.3254 27.4364 30.3358C27.426 30.3436 27.4156 30.3487 27.4053 30.3565C27.369 30.3798 27.3327 30.4031 27.2939 30.4238C27.2835 30.429 27.2758 30.4342 27.2654 30.4393C27.255 30.4445 27.2421 30.4523 27.2317 30.4574C27.2214 30.4626 27.2084 30.4678 27.1981 30.473C27.1592 30.4911 27.1178 30.5092 27.0789 30.5247C27.0711 30.5273 27.0608 30.5325 27.053 30.5351C27.04 30.5403 27.0245 30.5455 27.0116 30.5506C27.0012 30.5532 26.9908 30.5584 26.9805 30.561C26.9494 30.5713 26.9183 30.5817 26.8846 30.5895H26.882C26.8587 30.5946 26.8354 30.6024 26.8095 30.6076C26.8017 30.6102 26.7914 30.6127 26.7836 30.6127C26.781 30.6127 26.7758 30.6153 26.7732 30.6153C26.7629 30.6179 26.7551 30.6179 26.7473 30.6205C26.7318 30.6231 26.7137 30.6257 26.6981 30.6283C26.6904 30.6283 26.6852 30.6309 26.6774 30.6309C26.6489 30.6335 26.6204 30.6386 26.5919 30.6412C26.5816 30.6412 26.5712 30.6438 26.5608 30.6438C26.5505 30.6438 26.5375 30.6464 26.5272 30.6464C26.5142 30.6464 26.4987 30.649 26.4857 30.649C26.4702 30.649 26.452 30.649 26.4365 30.649C26.4028 30.649 26.3666 30.649 26.3329 30.6464C26.2733 30.6438 26.2137 30.636 26.1568 30.6257C26.1438 30.6231 26.1308 30.6205 26.1179 30.6179C26.0946 30.6127 26.0713 30.6076 26.0454 30.6024C26.0298 30.5998 26.0169 30.5946 26.0039 30.592C25.9884 30.5895 25.9754 30.5843 25.9625 30.5791C25.9573 30.5765 25.9521 30.5765 25.9469 30.5739C25.9392 30.5713 25.9288 30.5687 25.921 30.5662C25.8977 30.5584 25.877 30.5506 25.8537 30.5429C25.8304 30.5351 25.8071 30.5247 25.7863 30.517C25.7682 30.5092 25.7475 30.5014 25.7294 30.4911C25.7268 30.4885 25.7242 30.4885 25.719 30.4859C25.6775 30.4678 25.6361 30.4471 25.5972 30.4238C25.5869 30.4186 25.5765 30.4109 25.5662 30.4057C25.5454 30.3927 25.5247 30.3824 25.5066 30.3694C25.4703 30.3462 25.4315 30.3203 25.3978 30.2944C25.39 30.2892 25.3823 30.2814 25.3745 30.2763C25.3227 30.2374 25.2735 30.196 25.2268 30.152C25.2191 30.1443 25.2087 30.1339 25.2009 30.1261C25.1932 30.1184 25.1828 30.1106 25.175 30.1003C25.1673 30.0925 25.1569 30.0821 25.1491 30.0744C25.1414 30.0666 25.1336 30.0563 25.1258 30.0485C25.1155 30.0356 25.1025 30.0252 25.0921 30.0123C25.0844 30.0045 25.0792 29.9967 25.0714 29.9864C25.0662 29.9812 25.0611 29.9734 25.0559 29.9657C25.0455 29.9527 25.0352 29.9398 25.0248 29.9268C25.017 29.9165 25.0093 29.9061 24.9989 29.8932C24.9652 29.8492 24.9367 29.8026 24.9082 29.756C24.903 29.7457 24.8953 29.7353 24.8901 29.725C24.8823 29.712 24.8746 29.6965 24.8668 29.6835C24.8642 29.681 24.8642 29.6784 24.8642 29.6758C24.8564 29.6602 24.8487 29.6447 24.8383 29.6266C24.8305 29.6111 24.8227 29.5955 24.815 29.58C24.8072 29.5619 24.7994 29.5464 24.7917 29.5282C24.7839 29.5101 24.7761 29.492 24.7709 29.4765C24.7658 29.4635 24.7606 29.4532 24.758 29.4402C24.7528 29.4247 24.745 29.4092 24.7399 29.3911C24.7373 29.3807 24.7321 29.3704 24.7295 29.36C24.7243 29.3445 24.7191 29.3289 24.7165 29.3134C24.7088 29.2901 24.7036 29.2642 24.6984 29.2409C24.6958 29.228 24.6932 29.2151 24.6906 29.2047C24.6855 29.1866 24.6829 29.1685 24.6803 29.1478C24.6725 29.1089 24.6673 29.0727 24.6621 29.0339C24.6596 29.0157 24.657 28.995 24.6544 28.9769C24.6466 28.8993 24.6414 28.8216 24.6388 28.744C24.6388 28.7052 24.6362 28.6663 24.6362 28.6275C24.6337 24.758 24.6362 20.8858 24.6362 17.0163V16.6953C24.6259 16.6953 24.6155 16.6953 24.6078 16.6953C24.6026 16.6953 24.5948 16.6979 24.5896 16.6979C24.5844 16.6979 24.5793 16.7005 24.5767 16.7005C24.5715 16.7031 24.5663 16.7031 24.5637 16.7057C24.5534 16.7108 24.5456 16.716 24.5378 16.7212C24.5352 16.7238 24.53 16.7264 24.5275 16.729C24.5249 16.729 24.5249 16.7316 24.5249 16.7316C24.5223 16.7341 24.5197 16.7367 24.5145 16.7393C24.5119 16.7419 24.5119 16.7419 24.5093 16.7445L24.5041 16.7497C24.499 16.7548 24.4938 16.7626 24.4886 16.7678C24.486 16.7704 24.4834 16.7756 24.4782 16.7807C24.4756 16.7859 24.4731 16.7885 24.4679 16.7937C24.4653 16.7988 24.4627 16.8014 24.4601 16.8066C24.4575 16.8118 24.4549 16.8144 24.4523 16.8196C24.4472 16.8247 24.4446 16.8299 24.4394 16.8377C24.4394 16.8403 24.4368 16.8403 24.4342 16.8428C23.8203 17.5365 23.2064 18.2302 22.5925 18.9265C21.9786 19.6201 21.3647 20.3164 20.7508 21.0101C20.6472 21.1265 20.5436 21.243 20.44 21.3595C20.3882 21.4164 20.3364 21.476 20.2845 21.5355C20.2327 21.5924 20.1809 21.652 20.1291 21.7115C20.0851 21.7633 20.0385 21.8124 19.9944 21.8642C19.9893 21.8694 19.9867 21.8746 19.9815 21.8797C19.9478 21.916 19.9167 21.9548 19.8831 21.9936C19.8831 21.9936 19.8831 21.9936 19.8805 21.9962C19.8571 22.0247 19.8312 22.0532 19.8079 22.0816C19.8053 22.0842 19.8028 22.0868 19.8002 22.0894C19.7846 22.1049 19.7717 22.123 19.7587 22.1386C19.7509 22.1489 19.7432 22.1567 19.7354 22.167C19.7225 22.1826 19.7095 22.1955 19.6966 22.211C19.6862 22.2214 19.6758 22.2343 19.6655 22.2447C19.6525 22.2576 19.637 22.2732 19.624 22.2861C19.6111 22.2965 19.6007 22.3094 19.5878 22.3197C19.58 22.3275 19.5696 22.3353 19.5619 22.343C19.5593 22.3456 19.5593 22.3456 19.5567 22.3482C19.5489 22.356 19.5411 22.3612 19.5334 22.3689C19.5308 22.3715 19.5282 22.3741 19.5256 22.3767C19.5204 22.3819 19.5126 22.387 19.5049 22.3922C19.4867 22.4078 19.4686 22.4207 19.4505 22.4336C19.4349 22.444 19.422 22.4569 19.4064 22.4673C19.3728 22.4906 19.3365 22.5139 19.3028 22.5346C19.2847 22.5449 19.2666 22.5579 19.2484 22.5656C19.2303 22.576 19.2122 22.5863 19.1914 22.5967C19.1526 22.6174 19.1111 22.6355 19.0697 22.6536C19.0645 22.6562 19.0567 22.6588 19.0516 22.6614C19.0412 22.6666 19.0308 22.6692 19.0231 22.6744C19.0179 22.6769 19.0127 22.6769 19.0075 22.6795C18.9842 22.6899 18.9583 22.6976 18.935 22.7054C18.9272 22.708 18.9169 22.7106 18.9091 22.7132C18.8858 22.7209 18.8651 22.7261 18.8418 22.7339C18.834 22.7365 18.8288 22.7365 18.821 22.7391C18.7951 22.7468 18.7666 22.752 18.7407 22.7572C18.733 22.7598 18.7252 22.7598 18.7174 22.7624C18.6889 22.7675 18.663 22.7727 18.6345 22.7753C18.619 22.7779 18.6034 22.7805 18.5879 22.7805C18.5827 22.7805 18.5775 22.7805 18.575 22.7831C18.5568 22.7856 18.5387 22.7856 18.5206 22.7882C18.505 22.7882 18.4921 22.7908 18.4765 22.7908C18.4454 22.7934 18.4118 22.7934 18.3807 22.7934C18.3651 22.7934 18.3496 22.7934 18.3341 22.7934C18.3263 22.7934 18.3211 22.7934 18.3133 22.7934C18.3004 22.7934 18.2848 22.7908 18.2719 22.7908C18.2589 22.7908 18.2434 22.7882 18.2279 22.7882C18.2227 22.7882 18.2149 22.7882 18.2097 22.7856C18.1968 22.7856 18.1864 22.7831 18.1735 22.7831C18.1631 22.7831 18.1553 22.7805 18.145 22.7805C18.132 22.7779 18.1191 22.7779 18.1061 22.7753C18.0698 22.7701 18.031 22.7624 17.9947 22.7546C17.9792 22.752 17.9611 22.7468 17.9429 22.7442C17.9274 22.7416 17.9118 22.7365 17.8963 22.7313C17.8859 22.7287 17.8782 22.7261 17.8678 22.7235C17.8523 22.7184 17.8341 22.7132 17.8186 22.708C17.803 22.7028 17.7875 22.6976 17.7745 22.6925H17.772C17.7538 22.6873 17.7357 22.6795 17.715 22.6718C17.7124 22.6718 17.7124 22.6718 17.7124 22.6718C17.6968 22.6666 17.6813 22.6588 17.6632 22.6536C17.6606 22.6536 17.658 22.6511 17.658 22.6511C17.6399 22.6433 17.6217 22.6355 17.6036 22.6278C17.5855 22.62 17.5673 22.6122 17.5466 22.6019C17.5285 22.5941 17.5103 22.5838 17.4896 22.5734C17.3316 22.4906 17.1736 22.4078 17.013 22.3275C16.855 22.2447 16.6944 22.1644 16.5364 22.0816C16.3577 21.9884 16.1789 21.8979 16.0002 21.8073C15.8603 21.7348 15.7204 21.6649 15.5832 21.595C15.4251 21.5148 15.2646 21.4345 15.1065 21.3517C14.9459 21.2715 14.7879 21.1912 14.6273 21.1084C14.3087 20.9479 13.9901 20.7849 13.6715 20.6244C13.2467 20.4096 12.8219 20.1947 12.3971 19.9773C12.3142 19.9359 12.2287 19.8945 12.0863 19.8272V20.1792C12.0863 21.5847 12.0863 22.9901 12.0863 24.3956C12.0863 25.801 12.0863 27.2065 12.0863 28.612C12.0863 28.7181 12.0837 28.8216 12.0733 28.9252C12.0707 28.9588 12.0681 28.9925 12.0629 29.0235C12.0604 29.0442 12.0578 29.0675 12.0526 29.0882C12.05 29.096 12.05 29.1063 12.0474 29.1141C12.0474 29.1193 12.0448 29.1245 12.0448 29.1296C12.0422 29.1452 12.0396 29.1633 12.0344 29.1788C12.0319 29.1892 12.0319 29.1969 12.0293 29.2073C12.0267 29.2254 12.0215 29.2409 12.0163 29.2591C12.0137 29.2668 12.0137 29.2746 12.0111 29.2823C12.0111 29.2849 12.0085 29.2901 12.0085 29.2927C12.006 29.3031 12.0034 29.3134 12.0008 29.3238C12.0008 29.3263 11.9982 29.3289 11.9982 29.3315C11.993 29.3471 11.9904 29.36 11.9852 29.3755C11.9801 29.3911 11.9749 29.4092 11.9671 29.4247C11.9516 29.4687 11.9334 29.5127 11.9153 29.5541C11.9101 29.5671 11.9023 29.5826 11.8972 29.5955C11.8868 29.6162 11.8764 29.6369 11.8661 29.6577C11.8661 29.6602 11.8635 29.6602 11.8635 29.6628C11.8531 29.681 11.8428 29.6991 11.8324 29.7198C11.8246 29.7327 11.8169 29.7457 11.8091 29.7586C11.7987 29.7741 11.791 29.7897 11.7806 29.8052C11.7754 29.8155 11.7676 29.8233 11.7625 29.8337C11.7547 29.8466 11.7469 29.8595 11.7366 29.8699C11.7288 29.8828 11.721 29.8932 11.7107 29.9061C11.677 29.9527 11.6381 29.9993 11.6019 30.0433C11.5786 30.0692 11.5552 30.0951 11.5293 30.1184C11.519 30.1287 11.5086 30.1391 11.4983 30.1494C11.4879 30.1598 11.4775 30.1701 11.4672 30.1805C11.4387 30.2064 11.4076 30.2323 11.3765 30.2581C11.3687 30.2659 11.3584 30.2711 11.3506 30.2789C11.2936 30.3203 11.2366 30.3617 11.1771 30.3979C11.1693 30.4031 11.1589 30.4083 11.1512 30.4134C11.1382 30.4212 11.1253 30.429 11.1123 30.4342C11.1019 30.4393 11.0916 30.4471 11.0786 30.4523C11.0605 30.4626 11.0424 30.4704 11.0242 30.4782C11.0139 30.4833 11.0009 30.4885 10.9906 30.4937C10.975 30.5014 10.9595 30.5066 10.9439 30.5144C10.9362 30.517 10.931 30.5196 10.9232 30.5222C10.8921 30.5351 10.861 30.5455 10.83 30.5558C10.8144 30.561 10.7989 30.5662 10.7859 30.5687C10.7704 30.5739 10.7548 30.5791 10.7393 30.5817C10.7315 30.5843 10.7238 30.5869 10.716 30.5869C10.7082 30.5895 10.7004 30.592 10.6927 30.592C10.6901 30.592 10.6875 30.5946 10.6823 30.5946C10.6668 30.5972 10.6538 30.6024 10.6383 30.605C10.6279 30.6076 10.615 30.6102 10.6046 30.6127C10.5942 30.6153 10.5839 30.6179 10.5761 30.6179C10.5606 30.6205 10.5424 30.6231 10.5243 30.6257C10.5088 30.6283 10.4932 30.6309 10.4803 30.6309C10.4725 30.6309 10.4647 30.6335 10.457 30.6335C10.4388 30.636 10.4207 30.636 10.4026 30.6386C10.4 30.6386 10.3974 30.6386 10.3948 30.6386C10.3792 30.6386 10.3611 30.6412 10.343 30.6412C10.33 30.6412 10.3145 30.6412 10.3015 30.6438C10.299 30.6438 10.2964 30.6438 10.2964 30.6438C10.2834 30.6438 10.2705 30.6438 10.2575 30.6438H10.2316C10.1643 30.6438 10.0995 30.6412 10.0321 30.6335C9.25247 30.5506 8.56604 29.8518 8.46502 29.0339C8.46243 29.0106 8.45984 28.9899 8.45725 28.9666C8.45466 28.9485 8.45466 28.9303 8.45207 28.9148C8.44948 28.8915 8.44689 28.8682 8.44689 28.8449C8.4443 28.8294 8.4443 28.8113 8.4443 28.7957C8.4443 28.775 8.44171 28.7543 8.44171 28.7336C8.43912 28.687 8.43912 28.643 8.43912 28.5964C8.43912 27.6957 8.43912 26.7976 8.43912 25.8994C8.43912 24.4914 8.43912 23.0833 8.43912 21.6753C8.43912 20.1481 8.44171 18.6184 8.44171 17.0913C8.44171 17.0732 8.44171 17.0551 8.44171 17.037C8.44171 17.0007 8.44171 16.9671 8.4443 16.9309C8.4443 16.9127 8.4443 16.8946 8.4443 16.8765C8.44689 16.8325 8.44689 16.7859 8.44948 16.7419C8.45207 16.6979 8.45466 16.6539 8.45984 16.6073V16.6047C8.46243 16.5866 8.46243 16.5711 8.46502 16.553C8.46761 16.5348 8.4702 16.5167 8.47279 16.5012C8.47538 16.4831 8.47797 16.465 8.48056 16.4494C8.48574 16.4132 8.49351 16.3795 8.49869 16.3459C8.50646 16.3122 8.51423 16.2786 8.5246 16.2449C8.53496 16.2035 8.54791 16.1647 8.56086 16.1259C8.56604 16.1129 8.56863 16.1 8.57381 16.0871C8.59194 16.0353 8.61267 15.9861 8.63339 15.9369C8.63857 15.924 8.64375 15.9136 8.64893 15.9007C8.65929 15.8774 8.67224 15.8541 8.68519 15.8308C8.69814 15.8075 8.7111 15.7842 8.72405 15.7635C8.73441 15.748 8.74477 15.7299 8.75513 15.7143C8.76549 15.6988 8.77586 15.6833 8.78622 15.6652C8.7914 15.6574 8.79658 15.6496 8.80176 15.6445C8.80694 15.6367 8.81212 15.6315 8.8173 15.6237C8.82766 15.6082 8.84061 15.5901 8.85356 15.5746C8.86911 15.5539 8.88465 15.5357 8.90019 15.515C8.91055 15.5021 8.92091 15.4917 8.93127 15.4814C8.94681 15.4659 8.95977 15.4477 8.97531 15.4322C8.98308 15.4219 8.99344 15.4141 9.00121 15.4063C9.00898 15.3986 9.01934 15.3882 9.02711 15.3804C9.03488 15.3727 9.04525 15.3623 9.05302 15.3546C9.06338 15.3468 9.07115 15.339 9.08151 15.3287C9.09705 15.3131 9.11518 15.3002 9.13332 15.2847C9.1385 15.2795 9.14368 15.2743 9.14886 15.2717C9.1644 15.2588 9.17994 15.2484 9.19548 15.2355C9.20584 15.2277 9.21621 15.22 9.22657 15.2122C9.23952 15.2019 9.25247 15.1941 9.26542 15.1837C9.29132 15.1656 9.31723 15.1501 9.34313 15.1346C9.35608 15.1268 9.36903 15.119 9.38457 15.1113C9.41566 15.0931 9.44415 15.0776 9.47523 15.0621C9.49078 15.0543 9.50373 15.0491 9.51927 15.0414C9.53481 15.0336 9.54776 15.0284 9.56331 15.0207C9.57885 15.0155 9.5918 15.0077 9.60734 15.0025C9.6177 14.9974 9.63065 14.9922 9.6436 14.9896C9.65396 14.9844 9.66692 14.9818 9.67987 14.9767C9.69541 14.9715 9.70836 14.9663 9.7239 14.9611C9.73945 14.956 9.7524 14.9508 9.76794 14.9482C9.78089 14.943 9.79384 14.9404 9.80938 14.9378C9.81197 14.9378 9.81197 14.9378 9.81456 14.9378C9.83011 14.9327 9.84565 14.9301 9.8586 14.9275C9.86896 14.9249 9.87932 14.9223 9.88709 14.9197C9.90781 14.9145 9.92854 14.912 9.94926 14.9068C9.97516 14.9016 10.0037 14.8964 10.0296 14.8938C10.0451 14.8913 10.0606 14.8887 10.0788 14.8887C10.0995 14.8861 10.1176 14.8861 10.1384 14.8835C10.1461 14.8835 10.1513 14.8835 10.1591 14.8835C10.1694 14.8835 10.1824 14.8809 10.1927 14.8809C10.2031 14.8809 10.2135 14.8809 10.2238 14.8783C10.2394 14.8783 10.2549 14.8783 10.273 14.8783C10.5528 14.8783 10.8403 14.9456 11.1097 15.0828C13.2933 16.2087 15.4873 17.3139 17.6787 18.4269C17.7616 18.4683 17.8471 18.5097 17.9481 18.5589C17.9636 18.5408 17.9818 18.5227 17.9973 18.5046C18.0129 18.4864 18.031 18.4683 18.0465 18.4528C18.0698 18.4269 18.0957 18.401 18.1191 18.3751C18.1268 18.3674 18.1346 18.357 18.1424 18.3493C20.4141 15.7765 22.6883 13.2063 24.96 10.6335C25.0222 10.5636 25.0844 10.4911 25.1491 10.4212C25.1621 10.4083 25.1724 10.3979 25.1854 10.385C25.2087 10.3617 25.232 10.341 25.2553 10.3203C25.2786 10.2996 25.302 10.2789 25.3279 10.2581C25.333 10.2556 25.3382 10.2504 25.3434 10.2478C25.3512 10.2426 25.3589 10.2349 25.3667 10.2297C25.3771 10.2219 25.3848 10.2141 25.3952 10.2064C25.4056 10.1986 25.4185 10.1883 25.4289 10.1805C25.4444 10.1676 25.46 10.1572 25.4781 10.1468C25.491 10.1391 25.504 10.1287 25.5169 10.121C25.5299 10.1132 25.5429 10.1054 25.5558 10.0977C25.5688 10.0899 25.5817 10.0821 25.5947 10.0744C25.6076 10.0666 25.6206 10.0588 25.6335 10.0537C25.6387 10.0511 25.6465 10.0459 25.6542 10.0433C25.662 10.0407 25.6672 10.0356 25.675 10.033C25.6853 10.0278 25.6957 10.0226 25.706 10.0174C25.7423 9.99932 25.7786 9.98379 25.8148 9.97084C25.8278 9.96567 25.8433 9.96049 25.8563 9.95531C25.8692 9.95014 25.8822 9.94496 25.8977 9.93978C25.8977 9.93978 25.8977 9.93978 25.9003 9.93978C25.9288 9.92943 25.9573 9.92167 25.9858 9.9139C26.0065 9.90872 26.0298 9.90355 26.0506 9.89837C26.0609 9.89578 26.0713 9.89319 26.0816 9.89061C26.0946 9.88802 26.1049 9.88543 26.1179 9.88284C26.1308 9.88025 26.1438 9.87766 26.1568 9.87508C26.1852 9.8699 26.2137 9.86472 26.2448 9.86213C26.2604 9.85955 26.2733 9.85954 26.2889 9.85696C26.3174 9.85437 26.3458 9.85178 26.3769 9.84919C26.4158 9.8466 26.4546 9.8466 26.4935 9.8466C26.5531 9.8466 26.6126 9.85178 26.6722 9.85954C26.6826 9.85954 26.6929 9.86213 26.7007 9.86213C26.7111 9.86213 26.7214 9.86472 26.7292 9.86731C26.7603 9.87249 26.7888 9.87766 26.8173 9.88284C26.8276 9.88543 26.838 9.88543 26.8458 9.88802C26.8561 9.8906 26.8665 9.89319 26.8743 9.89578C26.895 9.90096 26.9131 9.90614 26.9312 9.91131C26.9494 9.91649 26.9701 9.92167 26.9882 9.92943C26.9986 9.93202 27.0064 9.93461 27.0167 9.93978C27.0271 9.94237 27.0349 9.94496 27.0426 9.95014C27.0996 9.97084 27.1566 9.99414 27.211 10.02C27.2214 10.0252 27.2291 10.0278 27.2395 10.033C27.268 10.0459 27.2939 10.0614 27.3198 10.077C27.3302 10.0821 27.3405 10.0899 27.3509 10.0951C27.3612 10.1028 27.3742 10.108 27.3846 10.1158C27.3923 10.121 27.4027 10.1261 27.4105 10.1313C27.4234 10.1391 27.4364 10.1494 27.4519 10.1572C27.4674 10.1701 27.4856 10.1805 27.5011 10.1934C27.5167 10.2064 27.5348 10.2193 27.5503 10.2323C27.5581 10.2374 27.5659 10.2452 27.5736 10.253C27.584 10.2607 27.5944 10.2711 27.6047 10.2789C27.6358 10.3047 27.6669 10.3332 27.6954 10.3643C27.7057 10.3746 27.7135 10.3824 27.7239 10.3927C27.7291 10.3979 27.7342 10.4031 27.7394 10.4083C27.7446 10.4134 27.7524 10.4212 27.7576 10.4264C27.7653 10.4342 27.7731 10.4419 27.7783 10.4497C27.7938 10.4652 27.8068 10.4833 27.8197 10.4989C27.8301 10.5118 27.843 10.5273 27.8534 10.5403C27.8612 10.5506 27.8715 10.5636 27.8793 10.5765C27.9 10.605 27.9233 10.636 27.9415 10.6697C27.9492 10.68 27.9544 10.6904 27.9622 10.7033C27.9726 10.7215 27.9829 10.7396 27.9933 10.7577C27.9985 10.7655 28.0036 10.7758 28.0088 10.7836C28.0166 10.7965 28.0244 10.8095 28.0295 10.8224C28.0373 10.8379 28.0451 10.8509 28.0529 10.8664C28.0632 10.8871 28.071 10.9052 28.0813 10.9259C28.0943 10.9544 28.1072 10.9855 28.1202 11.0165C28.128 11.0372 28.1357 11.0554 28.1435 11.0761C28.1513 11.0968 28.1565 11.1175 28.1642 11.1382C28.1694 11.1589 28.1772 11.1796 28.1824 11.2003C28.1875 11.221 28.1927 11.2417 28.1979 11.2624C28.2005 11.2728 28.2031 11.2831 28.2057 11.2935C28.2109 11.3142 28.216 11.3349 28.2186 11.3556C28.2238 11.3867 28.2316 11.4177 28.2368 11.4488C28.2394 11.4591 28.2394 11.4695 28.2419 11.4798C28.2445 11.4902 28.2445 11.5005 28.2471 11.5109C28.2497 11.5187 28.2497 11.529 28.2497 11.5368C28.2549 11.5808 28.2601 11.6274 28.2627 11.6714C28.2627 11.6817 28.2653 11.6921 28.2653 11.7024C28.2678 11.7335 28.2678 11.7671 28.2678 11.8008C28.2678 11.8241 28.2678 11.8448 28.2678 11.8681C28.2627 12.5359 28.2627 13.2063 28.2627 13.8766Z" fill="url(#paint0_linear_425_452)"/>
<path d="M55.813 34.8449C55.813 35.0417 55.7975 35.2461 55.7379 35.4299C55.5669 35.9735 55.0152 36.3384 54.4661 36.2996C53.8703 36.2582 53.3807 35.8337 53.2745 35.2539C53.246 35.1038 53.2383 34.9459 53.2383 34.7906C53.2357 32.0418 53.2357 29.2904 53.2357 26.5416V26.2414C53.2124 26.2388 53.1916 26.2336 53.1683 26.231C53.1139 26.3086 53.0595 26.3863 53.0077 26.4639C51.9457 28.0454 50.8837 29.6269 49.8217 31.2083C49.7595 31.3015 49.6973 31.3973 49.6248 31.4827C49.086 32.122 48.1457 32.1169 47.6173 31.4672C47.5474 31.3818 47.4852 31.286 47.423 31.1928C46.3662 29.6191 45.3094 28.0428 44.2499 26.4691C44.1981 26.3915 44.1411 26.3164 44.0634 26.2051C44.0427 26.2905 44.0246 26.3423 44.0194 26.3915C44.0142 26.4769 44.0168 26.5649 44.0168 26.6503C44.0168 29.3396 44.0168 32.0289 44.0168 34.7181C44.0168 34.8734 44.0142 35.0287 43.9961 35.1814C43.9158 35.8156 43.3692 36.2944 42.7346 36.297C42.0922 36.2996 41.5353 35.8104 41.4576 35.1685C41.442 35.0494 41.4395 34.9278 41.4395 34.8087C41.4395 30.5587 41.4395 26.3086 41.4395 22.0586C41.4395 21.8878 41.4395 21.7092 41.4887 21.5461C41.6363 21.0388 41.9808 20.7205 42.5015 20.6247C43.004 20.5315 43.4236 20.6997 43.737 21.1009C43.9313 21.352 44.0997 21.6238 44.2784 21.8904C45.6694 23.9481 47.0578 26.0058 48.4488 28.0635C48.5006 28.1412 48.5576 28.2162 48.6353 28.325C48.7052 28.2266 48.7674 28.1489 48.8218 28.0661C50.3242 25.835 51.824 23.6013 53.3263 21.3701C53.3937 21.2692 53.4584 21.1682 53.5361 21.0751C53.8781 20.6532 54.4143 20.5004 54.9349 20.6687C55.4322 20.8317 55.7767 21.2821 55.8078 21.8075C55.813 21.8852 55.813 21.9628 55.813 22.0405C55.8156 26.3112 55.8182 30.5794 55.813 34.8449Z" fill="#293E62"/>
<path d="M121.873 31.3557C121.933 31.3194 121.993 31.2884 122.055 31.2547C123.751 30.2867 124.764 28.8346 124.966 26.896C125.179 24.8538 124.446 23.1533 122.85 21.8513C121.832 21.0205 120.64 20.6297 119.33 20.6167C118.408 20.6064 117.483 20.6141 116.561 20.6141C116.043 20.6141 115.525 20.6089 115.007 20.6167C114.292 20.6271 113.768 21.093 113.683 21.7866C113.67 21.8979 113.673 22.0092 113.673 22.1231C113.673 26.3473 113.673 30.5714 113.673 34.7956C113.673 34.881 113.67 34.969 113.675 35.0544C113.711 35.6627 114.118 36.1467 114.693 36.2683C115.266 36.39 115.838 36.1208 116.107 35.6057C116.219 35.3935 116.25 35.1657 116.25 34.9302C116.247 34.0605 116.25 33.1882 116.25 32.3185V31.9665H116.543C117.206 31.9665 117.871 31.9717 118.537 31.9639C118.705 31.9613 118.827 32.0105 118.944 32.1348C119.496 32.7171 120.055 33.2917 120.615 33.8664C121.28 34.5549 121.938 35.2511 122.614 35.9293C123.303 36.6229 124.451 36.333 124.738 35.3986C124.896 34.8862 124.769 34.4306 124.391 34.045C123.601 33.2374 122.811 32.4272 122.024 31.6197C121.959 31.5524 121.899 31.4825 121.84 31.4178C121.855 31.3816 121.86 31.3634 121.873 31.3557ZM121.832 28.0944C121.819 28.1151 121.803 28.1332 121.791 28.1513C121.734 28.229 121.671 28.3015 121.609 28.3713C121.591 28.392 121.573 28.4102 121.555 28.4309C121.544 28.4412 121.537 28.4516 121.526 28.4593C121.516 28.4697 121.508 28.48 121.498 28.4878C121.469 28.5163 121.441 28.5448 121.412 28.5706C121.402 28.581 121.392 28.5888 121.384 28.5965C121.379 28.6017 121.371 28.6069 121.366 28.6121C121.353 28.625 121.34 28.6353 121.324 28.6483C121.301 28.669 121.278 28.6871 121.254 28.7052C121.244 28.713 121.234 28.7234 121.221 28.7311C121.205 28.7441 121.187 28.757 121.171 28.7699C121.156 28.7803 121.143 28.7906 121.127 28.801C121.096 28.8243 121.063 28.8476 121.032 28.8683C121.019 28.8761 121.008 28.8838 120.995 28.8916C120.967 28.9097 120.938 28.9278 120.91 28.9459C120.899 28.9511 120.892 28.9563 120.881 28.9615C120.853 28.9796 120.824 28.9951 120.793 29.0107C120.78 29.0158 120.77 29.0236 120.757 29.0288C120.744 29.0339 120.734 29.0417 120.721 29.0469C120.71 29.0521 120.7 29.0572 120.692 29.0624C120.679 29.0676 120.666 29.0754 120.653 29.0805C120.635 29.0883 120.617 29.0987 120.599 29.1064C120.586 29.1116 120.573 29.1194 120.56 29.1245C120.547 29.1297 120.534 29.1349 120.521 29.1401C120.506 29.1478 120.488 29.153 120.472 29.1608C120.459 29.166 120.446 29.1711 120.431 29.1763C120.431 29.1763 120.428 29.1763 120.428 29.1789C120.412 29.1841 120.397 29.1918 120.379 29.197C120.374 29.1996 120.366 29.2022 120.358 29.2048C120.34 29.2125 120.322 29.2177 120.304 29.2229C120.283 29.2307 120.262 29.2358 120.244 29.2436C120.234 29.2462 120.226 29.2488 120.218 29.2514C120.216 29.2514 120.213 29.254 120.208 29.254C120.195 29.2591 120.179 29.2617 120.166 29.2669C120.146 29.2721 120.125 29.2773 120.102 29.285C120.008 29.3083 119.913 29.329 119.817 29.3445C119.809 29.3471 119.804 29.3471 119.796 29.3471C119.773 29.3497 119.749 29.3523 119.726 29.3575C119.703 29.3601 119.679 29.3627 119.656 29.3653C119.635 29.3678 119.612 29.3704 119.591 29.3704C119.56 29.373 119.532 29.3756 119.501 29.3756C119.477 29.3756 119.454 29.3782 119.431 29.3782C118.423 29.4041 117.413 29.3834 116.403 29.3834C116.398 29.3834 116.39 29.3834 116.385 29.3834C116.361 29.3808 116.335 29.3782 116.299 29.3704C116.294 29.3704 116.286 29.3678 116.281 29.3678C116.278 29.3678 116.276 29.3678 116.273 29.3678C116.271 29.3678 116.268 29.3678 116.265 29.3678V23.2128C116.343 23.205 116.416 23.1895 116.491 23.1895C117.439 23.1895 118.389 23.1766 119.338 23.1921C119.446 23.1947 119.552 23.1999 119.656 23.2128C119.708 23.218 119.76 23.2257 119.812 23.2335C120.019 23.2672 120.216 23.3215 120.405 23.3914C120.451 23.4095 120.498 23.4276 120.545 23.4483C120.568 23.4587 120.591 23.469 120.612 23.4794C120.63 23.4872 120.648 23.4949 120.666 23.5053C120.677 23.5105 120.687 23.5156 120.697 23.5208C120.716 23.5286 120.731 23.5363 120.747 23.5467C120.77 23.5571 120.791 23.57 120.811 23.5829C120.827 23.5933 120.845 23.6011 120.861 23.6114C120.874 23.6192 120.887 23.6269 120.899 23.6347C120.907 23.6399 120.915 23.6425 120.923 23.6476C120.933 23.6528 120.943 23.6606 120.954 23.6658C120.993 23.6891 121.032 23.7149 121.068 23.7408C121.086 23.7538 121.101 23.7641 121.12 23.7771C121.133 23.7874 121.146 23.7952 121.156 23.8055C121.169 23.8133 121.182 23.8236 121.192 23.834C121.228 23.8625 121.265 23.8909 121.301 23.9194C121.319 23.9349 121.34 23.9505 121.358 23.9686C121.394 23.9997 121.43 24.0333 121.467 24.0695C121.485 24.0877 121.503 24.1032 121.519 24.1213C121.537 24.1394 121.552 24.1575 121.57 24.1731C121.586 24.1912 121.604 24.2093 121.62 24.2274C121.635 24.2455 121.651 24.2611 121.666 24.2792C121.671 24.2844 121.674 24.2895 121.679 24.2947C121.692 24.3103 121.705 24.3232 121.715 24.3387C121.715 24.3387 121.715 24.3387 121.718 24.3413C121.731 24.3568 121.744 24.375 121.757 24.3905C121.762 24.3957 121.765 24.4008 121.77 24.406C121.783 24.4216 121.796 24.4397 121.809 24.4552C121.824 24.4759 121.837 24.494 121.853 24.5147C121.881 24.5561 121.907 24.595 121.933 24.6364C121.946 24.6571 121.959 24.6778 121.972 24.6985C121.982 24.7166 121.993 24.7322 122.003 24.7503C122.029 24.7969 122.055 24.846 122.081 24.8926C122.104 24.9366 122.125 24.9806 122.143 25.0272C122.164 25.0738 122.182 25.1178 122.2 25.1644C122.208 25.1825 122.215 25.2032 122.221 25.2213C122.223 25.2291 122.226 25.2369 122.228 25.2446C122.233 25.2602 122.239 25.2757 122.244 25.2912C122.252 25.3145 122.259 25.3352 122.265 25.3585C122.267 25.3689 122.27 25.3792 122.275 25.3896C122.28 25.4051 122.283 25.4206 122.288 25.4362V25.4388C122.29 25.4439 122.29 25.4517 122.293 25.4569C122.296 25.4595 122.296 25.4646 122.296 25.4672C122.301 25.4828 122.303 25.4983 122.309 25.5164C122.309 25.519 122.311 25.5216 122.311 25.5242C122.324 25.5708 122.334 25.6199 122.345 25.6691C122.35 25.6976 122.355 25.7261 122.36 25.7571C122.363 25.7752 122.366 25.796 122.371 25.8141C122.371 25.8192 122.373 25.8244 122.373 25.827C122.373 25.8322 122.376 25.8348 122.376 25.84C122.379 25.8607 122.381 25.8788 122.384 25.8969C122.389 25.9487 122.397 26.0004 122.399 26.0522C122.402 26.0781 122.402 26.104 122.404 26.1298C122.407 26.1557 122.407 26.1816 122.407 26.2101C122.41 26.267 122.41 26.324 122.407 26.3809C122.404 26.4819 122.397 26.5828 122.384 26.6812C122.381 26.707 122.379 26.7303 122.373 26.7562C122.371 26.7795 122.366 26.8054 122.36 26.8287C122.355 26.852 122.353 26.8779 122.347 26.9012C122.334 26.9736 122.316 27.0461 122.296 27.116C122.29 27.1393 122.283 27.1626 122.275 27.1859C122.262 27.2325 122.246 27.2791 122.228 27.3257C122.221 27.3489 122.213 27.3722 122.202 27.393C122.195 27.4162 122.184 27.4395 122.176 27.4602C122.166 27.4835 122.158 27.5042 122.148 27.5275C122.14 27.5483 122.13 27.5664 122.122 27.5845C122.112 27.6104 122.099 27.6337 122.088 27.657C122.068 27.701 122.044 27.7424 122.021 27.7838C122.011 27.8045 121.998 27.8252 121.985 27.8459C121.938 27.9365 121.886 28.0167 121.832 28.0944Z" fill="#293E62"/>
<path d="M111.629 35.2306C111.543 35.8156 111.033 36.2634 110.406 36.3022C110.329 36.3074 110.251 36.3048 110.173 36.3048C107.446 36.3048 104.721 36.3048 101.993 36.3048C101.874 36.3048 101.75 36.3048 101.633 36.2841C100.991 36.1805 100.555 35.6939 100.519 35.0443C100.517 34.9847 100.517 34.9226 100.517 34.8631C100.517 30.5975 100.517 26.3294 100.519 22.0638C100.519 21.9266 100.527 21.7868 100.553 21.6523C100.669 21.0362 101.185 20.604 101.814 20.6014C103.047 20.5962 104.283 20.5988 105.516 20.5988C107.122 20.5988 108.725 20.5962 110.331 20.5988C110.935 20.5988 111.419 20.9586 111.593 21.5228C111.839 22.3226 111.277 23.1328 110.443 23.182C110.339 23.1871 110.235 23.1871 110.132 23.1871H103.156C103.084 23.3838 103.06 26.3501 103.12 26.8186C103.221 26.8237 103.33 26.8367 103.438 26.8367C104.956 26.8393 106.474 26.8367 107.995 26.8393C108.158 26.8393 108.326 26.8419 108.484 26.8781C109.103 27.0204 109.51 27.6209 109.451 28.2835C109.396 28.8944 108.865 29.3991 108.243 29.4302C108.148 29.4354 108.054 29.4328 107.959 29.4328C106.456 29.4328 104.956 29.4328 103.454 29.4328H103.115V33.6983H103.436C105.697 33.6983 107.956 33.6957 110.217 33.7009C110.412 33.7009 110.616 33.7242 110.8 33.7863C111.393 33.9908 111.725 34.5835 111.629 35.2306Z" fill="#293E62"/>
<path d="M71.7381 34.3755C70.3523 31.223 68.9665 28.0678 67.5807 24.9126C67.0652 23.7375 66.5523 22.5624 66.0317 21.3873C65.8063 20.8774 65.3945 20.616 64.8453 20.6212C64.3091 20.6263 63.9102 20.8878 63.6849 21.3873C63.6642 21.4339 63.6434 21.4831 63.6227 21.5297C61.882 25.4976 60.1388 29.4629 58.3981 33.4308C58.2401 33.7932 58.0691 34.1529 57.9241 34.5205C57.7324 35.0019 57.8101 35.46 58.1468 35.8509C58.4836 36.2443 58.9265 36.3789 59.4316 36.2598C59.8564 36.1589 60.1413 35.8923 60.3149 35.4937C60.719 34.5619 61.1257 33.6301 61.5323 32.6983C61.5686 32.6129 61.61 32.5275 61.6515 32.4421H68.0625C68.1039 32.5326 68.1454 32.6181 68.1842 32.7035C68.5702 33.5887 68.9535 34.4739 69.3395 35.3565C69.3835 35.46 69.4302 35.5636 69.4871 35.6593C69.7565 36.1175 70.2772 36.366 70.7797 36.2883C71.3133 36.2055 71.7252 35.8224 71.8599 35.3047C71.9479 34.9734 71.8702 34.6732 71.7381 34.3755ZM62.843 29.8356V29.833C62.843 29.833 62.843 29.833 62.843 29.8304C62.843 29.8278 62.8456 29.8253 62.8456 29.8227C62.8456 29.8201 62.8456 29.8175 62.8482 29.8149C62.8482 29.8149 62.8482 29.8149 62.8482 29.8123C62.8482 29.8097 62.8508 29.8071 62.8508 29.8071C62.8508 29.8046 62.8508 29.8046 62.8534 29.802C62.8534 29.7994 62.856 29.7968 62.856 29.7968C62.856 29.7942 62.8586 29.7916 62.8586 29.7916C62.8586 29.789 62.8612 29.789 62.8612 29.7864C62.8638 29.7813 62.8638 29.7787 62.8663 29.7735C62.8663 29.7709 62.8689 29.7657 62.8715 29.7631V29.7606C62.8741 29.7554 62.8741 29.7502 62.8767 29.7476V29.745C62.8793 29.7398 62.8819 29.7347 62.8819 29.7269C62.8845 29.7217 62.8871 29.714 62.8897 29.7088V29.7062C62.8922 29.701 62.8948 29.6958 62.8948 29.6881C62.9 29.6725 62.9052 29.6596 62.913 29.6415C62.913 29.6389 62.9156 29.6363 62.9156 29.6337C62.9156 29.6311 62.9181 29.6285 62.9181 29.626C62.9207 29.6208 62.9207 29.6156 62.9233 29.6104C62.9259 29.6052 62.9285 29.5975 62.9311 29.5897C62.9363 29.5794 62.9415 29.5664 62.9466 29.5535C62.9492 29.5457 62.9518 29.5405 62.9544 29.5328C62.9596 29.5198 62.9648 29.5069 62.97 29.494C62.97 29.4914 62.9725 29.4888 62.9725 29.4862C62.9829 29.4603 62.9933 29.4344 63.0036 29.4059C63.0062 29.4008 63.0088 29.393 63.0114 29.3878C63.0114 29.3852 63.0114 29.3852 63.014 29.3827C63.0166 29.3775 63.0192 29.3723 63.0192 29.3671C63.0192 29.3645 63.0192 29.3645 63.0218 29.3619C63.0243 29.3568 63.0269 29.3516 63.0269 29.3464C63.0295 29.3438 63.0295 29.3387 63.0321 29.3361C63.0373 29.3257 63.0399 29.3179 63.0425 29.3076C63.0477 29.2947 63.0528 29.2817 63.058 29.2688C63.0606 29.2662 63.0606 29.2636 63.0632 29.2584C63.0684 29.2481 63.071 29.2377 63.0762 29.2274C63.0787 29.2196 63.0813 29.2144 63.0839 29.2066C63.0995 29.173 63.1124 29.1368 63.128 29.1005C63.1357 29.0798 63.1461 29.0565 63.1565 29.0332C63.159 29.0281 63.159 29.0255 63.1616 29.0203C63.1642 29.0125 63.1668 29.0048 63.172 28.9996C63.1772 28.9892 63.1824 28.9763 63.1875 28.9659C63.1927 28.9504 63.2005 28.9349 63.2083 28.9193C63.2316 28.8624 63.2549 28.8055 63.2808 28.7459C63.286 28.7304 63.2937 28.7175 63.2989 28.7019C63.3041 28.6864 63.3119 28.6709 63.317 28.6553C63.33 28.6243 63.343 28.5932 63.3559 28.5622C63.3637 28.5466 63.3689 28.5311 63.3766 28.5156C63.3896 28.4845 63.4025 28.4534 63.4181 28.4198C63.431 28.3887 63.4466 28.3551 63.4595 28.324C63.4932 28.2438 63.5295 28.161 63.5657 28.0755C63.5864 28.0264 63.6098 27.9746 63.6305 27.9228C64.1485 26.7219 64.7469 25.3733 64.8505 25.2103C64.9204 25.2879 65.5214 26.6157 66.0524 27.8297C66.0757 27.8814 66.0964 27.9306 66.1198 27.9824C66.1353 28.016 66.1482 28.0497 66.1638 28.0833C66.1793 28.117 66.1923 28.1506 66.2078 28.1843C66.2156 28.1998 66.2234 28.2179 66.2285 28.2334C66.2726 28.3318 66.314 28.4301 66.3529 28.5233C66.4539 28.7589 66.5472 28.9763 66.6249 29.1652C66.6611 29.2532 66.6948 29.3335 66.7259 29.4059C66.7337 29.4267 66.744 29.4474 66.7518 29.4681C66.7647 29.4965 66.7751 29.525 66.7855 29.5509C66.7881 29.5587 66.7932 29.569 66.7958 29.5768C66.8036 29.5923 66.8088 29.6104 66.814 29.626C66.8165 29.6337 66.8191 29.6415 66.8217 29.6493C66.8269 29.6648 66.8321 29.6777 66.8373 29.6907C66.845 29.7114 66.8502 29.7269 66.858 29.7424C66.8606 29.7528 66.8658 29.7631 66.8684 29.7709C66.8761 29.7916 66.8813 29.8097 66.8839 29.8201C66.7 29.8667 63.1746 29.8822 62.843 29.8356Z" fill="#293E62"/>
<path d="M83.1072 34.5216C82.3742 35.4353 81.4002 35.9607 80.2631 36.1807C79.0198 36.4215 77.7997 36.3412 76.6445 35.7977C75.0773 35.06 74.1966 33.8047 73.9531 32.099C73.9298 31.9462 73.9376 31.7884 73.9298 31.6331C73.8936 30.9239 74.4764 30.3234 75.168 30.3078C75.8907 30.2897 76.4554 30.8229 76.5098 31.5683C76.5279 31.8142 76.5564 32.0705 76.6393 32.3008C76.8854 32.9816 77.3879 33.4035 78.0795 33.5976C78.7789 33.7917 79.4808 33.7865 80.1673 33.5432C81.1749 33.1861 81.7344 32.2154 81.5479 31.1646C81.4831 30.81 81.3096 30.5097 81.0065 30.3156C80.7553 30.1525 80.4885 29.9972 80.2087 29.8963C79.5767 29.6711 78.9291 29.4873 78.2893 29.2751C77.7997 29.112 77.3076 28.949 76.8284 28.7523C76.2663 28.5219 75.7612 28.1906 75.3234 27.7661C74.6914 27.1501 74.3469 26.3943 74.264 25.522C74.1526 24.378 74.4323 23.3297 75.124 22.4057C75.8492 21.4402 76.8413 20.9096 78.0173 20.7051C78.3566 20.6456 78.7012 20.6275 78.8877 20.6094C80.1776 20.6275 81.2396 20.8786 82.1488 21.5878C83.2704 22.4652 83.8507 23.6248 83.8636 25.0509C83.8688 25.6903 83.3922 26.2079 82.7446 26.3089C82.1333 26.4046 81.5246 26.0242 81.3355 25.4211C81.2992 25.3072 81.2785 25.1855 81.2759 25.0665C81.2604 24.1994 80.7138 23.4358 79.6492 23.2417C79.1415 23.1485 78.6364 23.1641 78.1391 23.3168C77.261 23.5911 76.7584 24.3314 76.8258 25.2451C76.8491 25.5634 76.9734 25.8352 77.2376 26.0164C77.4423 26.1587 77.6573 26.2959 77.8878 26.3813C78.5017 26.6065 79.126 26.811 79.7502 27.0025C80.3512 27.1889 80.9547 27.3675 81.5272 27.6341C82.0478 27.8774 82.527 28.1776 82.9441 28.5737C83.6642 29.257 84.0423 30.1034 84.133 31.0869C84.2522 32.3759 83.9102 33.5199 83.1072 34.5216Z" fill="#293E62"/>
<path d="M98.4934 21.9722C98.4545 22.64 97.9442 23.168 97.2759 23.1783C96.1802 23.1964 95.0845 23.1835 93.9888 23.1861C93.8878 23.1861 93.7868 23.1861 93.6469 23.1861V34.7378C93.6469 34.8336 93.6495 34.9267 93.6443 35.0225C93.6106 35.755 93.033 36.3115 92.3155 36.3011C91.6109 36.2908 91.0592 35.7291 91.0385 35.0018C91.0359 34.8983 91.0385 34.7947 91.0385 34.6912V23.2094C90.9219 23.2016 90.8235 23.1887 90.7251 23.1887C89.6812 23.1861 88.6373 23.1887 87.5934 23.1861C87.4406 23.1861 87.28 23.1809 87.1323 23.1421C86.5288 22.9816 86.1273 22.3992 86.1894 21.7987C86.2594 21.1361 86.7438 20.6702 87.4198 20.6185C87.5053 20.6133 87.5934 20.6159 87.6789 20.6159C90.7846 20.6159 93.8904 20.6159 96.9962 20.6185C97.1412 20.6185 97.2915 20.6236 97.4339 20.6469C98.0815 20.7557 98.5296 21.3225 98.4934 21.9722Z" fill="#293E62"/>
<path d="M124.894 7.37757C124.757 7.84864 124.604 8.31454 124.453 8.78303C123.542 11.638 122.63 14.4929 121.718 17.3478C121.692 17.4306 121.666 17.5135 121.63 17.5911C121.526 17.8137 121.345 17.9328 121.102 17.9509C120.856 17.9716 120.664 17.8655 120.534 17.661C120.475 17.5678 120.436 17.4617 120.392 17.3582C119.594 15.3755 118.799 13.3928 118.004 11.4102C117.965 11.3092 117.918 11.2109 117.877 11.1125C117.859 11.1125 117.84 11.1099 117.825 11.1099C117.789 11.1928 117.755 11.2782 117.721 11.361C116.916 13.367 116.108 15.3729 115.302 17.3789C115.271 17.4591 115.24 17.5393 115.198 17.617C115.071 17.8525 114.867 17.9638 114.603 17.9509C114.349 17.9405 114.16 17.8111 114.051 17.5833C113.994 17.4591 113.958 17.3245 113.916 17.1925C112.903 13.9985 111.888 10.8045 110.875 7.61311C110.844 7.51475 110.813 7.41639 110.795 7.31286C110.735 6.98414 110.932 6.64248 111.23 6.5493C111.533 6.45612 111.88 6.62178 112.023 6.93238C112.054 7.00226 112.074 7.07732 112.098 7.15238C112.927 9.764 113.753 12.373 114.582 14.9847C114.613 15.083 114.649 15.1788 114.706 15.3393C114.768 15.2021 114.81 15.1167 114.843 15.0287C115.618 13.0848 116.392 11.1384 117.167 9.19457C117.198 9.11434 117.227 9.0341 117.268 8.95645C117.395 8.72091 117.602 8.60961 117.864 8.6122C118.115 8.61479 118.314 8.73385 118.421 8.96939C118.511 9.1661 118.586 9.36799 118.667 9.56729C119.397 11.3895 120.13 13.2117 120.863 15.0364C120.897 15.1193 120.938 15.2021 121.001 15.3367C121.05 15.1969 121.083 15.1115 121.112 15.0261C121.943 12.4067 122.772 9.7873 123.601 7.1705C123.622 7.10579 123.64 7.0385 123.666 6.97379C123.801 6.63989 124.148 6.45871 124.459 6.55448C124.79 6.65284 124.997 7.02556 124.894 7.37757Z" fill="#293E62"/>
<path d="M73.6112 12.9154C74.0723 12.9103 74.3391 12.6463 74.3391 12.1933C74.3417 11.2952 74.1785 10.4281 73.8262 9.5998C72.8963 7.41267 70.8059 6.2298 68.4591 6.59475C66.8946 6.83806 65.7082 7.6715 64.9311 9.04331C64.0038 10.6817 63.8614 12.4237 64.4053 14.2148C65.0684 16.4045 67.0345 18.1102 69.7077 17.9394C71.5001 17.8255 72.8471 16.9455 73.7926 15.4339C73.8107 15.4054 73.8262 15.3744 73.8392 15.3407C74.0076 14.9343 73.7666 14.484 73.3418 14.4063C73.0724 14.3571 72.829 14.4892 72.6399 14.7842C71.7307 16.2 70.4278 16.7954 68.7726 16.565C66.6718 16.2725 65.5917 14.4089 65.444 12.9154H72.601C72.9378 12.9154 73.2745 12.9206 73.6112 12.9154ZM72.3549 11.5592C72.3368 11.5592 72.3187 11.5592 72.3005 11.5592C72.2824 11.5592 72.2617 11.5592 72.2436 11.5592C72.2177 11.5592 72.1917 11.5592 72.1633 11.5618C72.1529 11.5618 72.1399 11.5618 72.1296 11.5618C72.1192 11.5618 72.1089 11.5618 72.0985 11.5618C72.0855 11.5618 72.0726 11.5618 72.0596 11.5618C72.0415 11.5618 72.0234 11.5618 72.0053 11.5618C71.9845 11.5618 71.9638 11.5618 71.9405 11.5618C71.9275 11.5618 71.912 11.5618 71.899 11.5618C71.8757 11.5618 71.855 11.5618 71.8317 11.5618C71.8136 11.5618 71.7928 11.5618 71.7747 11.5618C71.754 11.5618 71.7307 11.5618 71.71 11.5618H71.7074C71.6918 11.5618 71.6763 11.5618 71.6607 11.5618C71.4302 11.5643 71.1789 11.5669 70.9121 11.5669C70.894 11.5669 70.8733 11.5669 70.8552 11.5669C70.7982 11.5669 70.7386 11.5669 70.679 11.5669C70.6402 11.5669 70.6013 11.5669 70.5599 11.5669C70.5236 11.5669 70.4873 11.5669 70.4485 11.5669H70.4381C70.3837 11.5669 70.3293 11.5669 70.2749 11.5669C70.2283 11.5669 70.1817 11.5669 70.1351 11.5669C70.0522 11.5669 69.9693 11.5669 69.8864 11.5669C69.7491 11.5669 69.6092 11.5669 69.4693 11.5669C69.2725 11.5669 69.073 11.5669 68.8762 11.5669C68.4436 11.5669 68.0162 11.5669 67.6173 11.5643H67.6043C67.4593 11.5643 67.3194 11.5618 67.1821 11.5618C67.1329 11.5618 67.0837 11.5618 67.0345 11.5618C67.0112 11.5618 66.9904 11.5618 66.9671 11.5618C66.9438 11.5618 66.9231 11.5618 66.8998 11.5618C66.8583 11.5618 66.8195 11.5618 66.778 11.5618C66.6796 11.5618 66.5838 11.5592 66.4931 11.5592C66.4724 11.5592 66.4542 11.5592 66.4361 11.5592C66.418 11.5592 66.3973 11.5592 66.3791 11.5592C66.361 11.5592 66.3429 11.5592 66.3247 11.5592C66.26 11.5592 66.2004 11.5566 66.1408 11.5566C66.1253 11.5566 66.1071 11.5566 66.0916 11.5566C66.0838 11.5566 66.0761 11.5566 66.0683 11.5566C66.0527 11.5566 66.0372 11.5566 66.0217 11.5566C65.9983 11.5566 65.975 11.5566 65.9543 11.554C65.931 11.554 65.9103 11.554 65.8896 11.554C65.8274 11.5514 65.7704 11.5514 65.7186 11.5488C65.6979 11.5488 65.6772 11.5488 65.659 11.5462C65.6538 11.5462 65.6461 11.5462 65.6409 11.5462C65.6202 11.5462 65.602 11.5436 65.5865 11.5436C65.5735 11.5436 65.5606 11.5436 65.5476 11.541C65.5399 11.541 65.5347 11.541 65.5269 11.541C65.5191 11.541 65.514 11.541 65.5062 11.5385C65.5036 11.5385 65.501 11.5385 65.4958 11.5385C65.4907 11.5385 65.4855 11.5385 65.4803 11.5385C65.4777 11.5385 65.4751 11.5385 65.4725 11.5385C65.4673 11.5385 65.4622 11.5385 65.4596 11.5385H65.457C65.4466 11.5385 65.4388 11.5359 65.4311 11.5359C65.4337 11.5255 65.4337 11.5126 65.4363 11.4996C65.4363 11.4945 65.4388 11.4867 65.4388 11.4815C65.4414 11.4582 65.444 11.4349 65.4492 11.4116C65.4518 11.3935 65.4544 11.3754 65.457 11.3599C65.4596 11.3366 65.4622 11.3133 65.4673 11.2874C65.4699 11.2744 65.4699 11.2641 65.4725 11.2512C65.4751 11.2382 65.4777 11.2253 65.4803 11.2097C65.4906 11.1528 65.5036 11.0984 65.5166 11.0415C65.5217 11.013 65.5295 10.9871 65.5373 10.9587C65.5425 10.9354 65.5502 10.9095 65.5554 10.8862C65.5684 10.837 65.5813 10.7904 65.5943 10.7438C65.6228 10.6507 65.6512 10.5575 65.6849 10.4643C65.6927 10.441 65.7005 10.4177 65.7108 10.397C65.7212 10.3685 65.7341 10.3401 65.7445 10.3116C65.7575 10.2754 65.773 10.2417 65.7885 10.2081C65.7989 10.1848 65.8067 10.1641 65.817 10.1408C65.817 10.1408 65.817 10.1382 65.8196 10.1382C65.83 10.1149 65.8403 10.0916 65.8507 10.0683C65.8559 10.0579 65.8585 10.0502 65.8637 10.0398C65.8714 10.0243 65.8792 10.0088 65.887 9.99323C65.8921 9.98287 65.8973 9.96993 65.9051 9.95958C65.9155 9.94146 65.9232 9.92075 65.9336 9.90264C65.9362 9.89746 65.9414 9.88969 65.944 9.88193C65.9543 9.86381 65.9647 9.84569 65.975 9.82757C65.9932 9.79393 66.0113 9.76028 66.032 9.72663C66.0605 9.68004 66.089 9.63345 66.1175 9.58427C66.2367 9.39791 66.3714 9.21932 66.5242 9.05108C66.5423 9.03037 66.563 9.00966 66.5812 8.98896C66.6019 8.96825 66.62 8.94754 66.6407 8.92684C66.6615 8.90613 66.6822 8.88542 66.7029 8.86472C67.379 8.19952 68.3193 7.83974 69.2725 7.83974C69.2906 7.83974 69.3113 7.83974 69.3295 7.83974C69.3424 7.83974 69.3528 7.83974 69.3657 7.83974C69.3787 7.83974 69.389 7.83974 69.402 7.83974C69.446 7.84233 69.4901 7.84233 69.5341 7.8475C69.5445 7.8475 69.5574 7.85009 69.5678 7.85009C69.6196 7.85527 69.6688 7.86045 69.718 7.86562C69.7361 7.86821 69.7543 7.8708 69.775 7.87339C69.7931 7.87598 69.8113 7.87856 69.832 7.88115C69.9252 7.89409 70.0185 7.91221 70.1092 7.93292C70.1247 7.93551 70.1428 7.94068 70.1584 7.94586C70.1687 7.94845 70.1765 7.95104 70.1869 7.95363C70.2024 7.95621 70.2154 7.96139 70.2309 7.96398C70.2594 7.97174 70.2879 7.97951 70.3164 7.98727C70.3267 7.98986 70.3397 7.99504 70.35 7.99763C70.3785 8.00798 70.4096 8.01575 70.4381 8.0261C70.4537 8.03128 70.4692 8.03645 70.4847 8.04163C70.6117 8.08563 70.7386 8.13999 70.8603 8.19952C70.8785 8.20728 70.894 8.21505 70.9121 8.2254C70.9277 8.23317 70.9432 8.24093 70.9588 8.2487C71.0132 8.27717 71.0702 8.30823 71.122 8.34187C71.153 8.35999 71.1841 8.37811 71.2152 8.39882C71.2644 8.42988 71.3162 8.46353 71.3654 8.49976C71.3965 8.52306 71.4276 8.54376 71.4587 8.56706C71.4768 8.58259 71.495 8.59553 71.5131 8.61106C71.526 8.62141 71.539 8.63177 71.5519 8.64212C71.5701 8.65765 71.5882 8.67318 71.6063 8.68871C71.6193 8.69906 71.6322 8.70942 71.6426 8.71977C71.6556 8.73012 71.6685 8.74307 71.6789 8.75342C71.6841 8.75601 71.6866 8.76118 71.6918 8.76377C71.7048 8.77671 71.7177 8.78707 71.7307 8.80001C71.7462 8.81295 71.7592 8.82848 71.7747 8.84142C71.7903 8.85436 71.8032 8.86989 71.8188 8.88542C71.8343 8.90095 71.8472 8.9139 71.8628 8.92943C71.8757 8.94496 71.8913 8.96048 71.9042 8.97601C71.9172 8.98896 71.9275 9.0019 71.9379 9.01484C71.9405 9.01743 71.9457 9.02261 71.9483 9.02519C71.9612 9.04072 71.9742 9.05366 71.9845 9.06919C71.9975 9.08472 72.013 9.10025 72.026 9.11837C72.0519 9.14943 72.0804 9.18308 72.1063 9.21673C72.1322 9.25038 72.1581 9.28403 72.1814 9.32026C72.2306 9.39015 72.2798 9.46262 72.3264 9.53768C72.3498 9.57651 72.3731 9.61274 72.3938 9.65157C72.4145 9.6878 72.4327 9.72145 72.4534 9.75769C72.4715 9.79393 72.4896 9.82757 72.5078 9.86381C72.5181 9.88193 72.5259 9.90005 72.5337 9.91817C72.5596 9.97252 72.5855 10.0269 72.6088 10.0812C72.6166 10.0993 72.6243 10.1175 72.6321 10.1356C72.6476 10.1718 72.6632 10.2081 72.6761 10.2469C72.6865 10.2702 72.6943 10.2935 72.7046 10.3194C72.7046 10.3194 72.7046 10.3219 72.7072 10.3245C72.715 10.3478 72.7253 10.3711 72.7331 10.3944C72.7383 10.4125 72.7461 10.4307 72.7513 10.4488C72.7616 10.4747 72.7694 10.5031 72.7772 10.529C72.7823 10.5445 72.7875 10.5601 72.7927 10.5756C72.7979 10.5911 72.8031 10.6067 72.8056 10.6222C72.8134 10.6455 72.8186 10.6688 72.8264 10.6895C72.8341 10.7154 72.8419 10.7438 72.8497 10.7697C72.8549 10.7904 72.86 10.8086 72.8652 10.8293C72.8678 10.8422 72.873 10.8577 72.8756 10.8707C72.8911 10.938 72.9067 11.0053 72.9196 11.0726C72.9248 11.0984 72.93 11.1217 72.9352 11.1476C72.9378 11.1632 72.9403 11.1813 72.9429 11.1968C72.9455 11.2046 72.9455 11.2123 72.9481 11.2201C72.9507 11.2408 72.9559 11.2589 72.9585 11.2796C72.9611 11.2926 72.9637 11.3055 72.9637 11.3159C72.9663 11.334 72.9688 11.3495 72.9714 11.3676C72.9766 11.3987 72.9792 11.4272 72.9844 11.4582C72.987 11.4815 72.9792 11.5074 72.9766 11.5307H72.974C72.9714 11.5307 72.9688 11.5307 72.9662 11.5333C72.9637 11.5333 72.9585 11.5359 72.9533 11.5359H72.9507C72.9455 11.5359 72.9403 11.5359 72.9352 11.5385C72.93 11.5385 72.9274 11.5385 72.9222 11.5385C72.917 11.5385 72.9119 11.5385 72.9093 11.5385C72.9041 11.5385 72.8963 11.5385 72.8885 11.541C72.8859 11.541 72.8808 11.541 72.8782 11.541C72.8704 11.541 72.8626 11.541 72.8549 11.541C72.8471 11.541 72.8367 11.541 72.829 11.5436H72.8264C72.8186 11.5436 72.8082 11.5436 72.7979 11.5436C72.7927 11.5436 72.7875 11.5436 72.7823 11.5436C72.772 11.5436 72.7616 11.5436 72.7487 11.5462H72.7461C72.7357 11.5462 72.7254 11.5462 72.7124 11.5462C72.6813 11.5462 72.6502 11.5488 72.614 11.5488C72.5855 11.5488 72.557 11.5514 72.5259 11.5514C72.4741 11.5566 72.4171 11.5566 72.3549 11.5592Z" fill="#293E62"/>
<path d="M107.927 12.9161C108.461 12.9161 108.728 12.6521 108.715 12.1189C108.694 11.2596 108.557 10.4184 108.207 9.62635C107.407 7.81193 106.047 6.7093 104.044 6.554C102.076 6.40129 100.514 7.17779 99.4234 8.8395C98.9079 9.62376 98.6282 10.4986 98.5246 11.4278C98.3873 12.6521 98.522 13.8427 99.0659 14.9557C99.9259 16.7184 101.33 17.7692 103.301 17.9297C105.319 18.0902 106.909 17.2852 108.052 15.6131C108.119 15.5148 108.184 15.4087 108.225 15.2974C108.344 14.9842 108.202 14.6322 107.912 14.4795C107.617 14.3242 107.293 14.3992 107.083 14.6736C107.047 14.7202 107.016 14.7745 106.984 14.8263C105.676 16.9772 102.685 17.1946 101.019 15.4915C100.423 14.8832 100.053 14.1559 99.8715 13.3302C99.8456 13.206 99.8301 13.0818 99.8042 12.9187H100.164C102.749 12.9161 105.337 12.9187 107.927 12.9161ZM99.8197 11.3968C99.8249 11.3631 99.8301 11.3321 99.8352 11.2984C99.8404 11.2751 99.843 11.2492 99.8482 11.2259C99.8534 11.2026 99.8586 11.1768 99.8637 11.1535C99.8689 11.1302 99.8741 11.1069 99.8793 11.081C99.8845 11.0577 99.8896 11.0318 99.8948 11.0085C99.9026 10.9775 99.9104 10.9464 99.9181 10.9153C99.9259 10.8869 99.9311 10.861 99.9389 10.8325C99.9466 10.8066 99.9544 10.7807 99.9622 10.7523C99.9674 10.7367 99.9699 10.7212 99.9751 10.7057C99.9803 10.6876 99.9855 10.6694 99.9907 10.6513C99.9958 10.6384 99.9984 10.6229 100.004 10.6099C100.009 10.5892 100.017 10.5685 100.024 10.5504C100.03 10.5323 100.037 10.5116 100.045 10.4934C100.055 10.4598 100.068 10.4261 100.081 10.3925C100.087 10.3796 100.092 10.3666 100.094 10.3563C100.11 10.3123 100.128 10.2708 100.146 10.2294C100.154 10.2087 100.164 10.188 100.175 10.1673C100.19 10.1311 100.206 10.0948 100.224 10.0586C100.229 10.0482 100.234 10.0353 100.239 10.0249C100.247 10.0068 100.257 9.98871 100.265 9.9706C100.265 9.96801 100.268 9.96801 100.268 9.96542C100.276 9.9473 100.286 9.92918 100.294 9.91365C100.304 9.89553 100.314 9.87483 100.325 9.85671C100.335 9.836 100.348 9.81529 100.358 9.79459C100.366 9.77906 100.374 9.76612 100.384 9.75059C100.41 9.704 100.439 9.66 100.465 9.61599C100.478 9.59529 100.488 9.57717 100.501 9.55646C100.514 9.53576 100.527 9.51764 100.54 9.49952C100.553 9.4814 100.566 9.46069 100.579 9.44258C100.594 9.42187 100.61 9.39857 100.625 9.37787C100.636 9.36234 100.649 9.34681 100.662 9.32869C100.675 9.31057 100.69 9.29245 100.706 9.27433C100.708 9.27175 100.711 9.26657 100.713 9.26398C100.726 9.24845 100.737 9.23551 100.75 9.21998C100.765 9.20186 100.781 9.18374 100.796 9.16563C100.809 9.1501 100.825 9.13457 100.838 9.11645C100.84 9.11386 100.84 9.11386 100.843 9.11127C100.858 9.09315 100.874 9.07503 100.889 9.05692C100.921 9.02068 100.954 8.98703 100.988 8.95338C101.003 8.93526 101.022 8.91973 101.04 8.90162C101.073 8.86538 101.11 8.83173 101.146 8.79808C101.169 8.77479 101.195 8.75408 101.221 8.73079C101.364 8.60396 101.516 8.49266 101.677 8.39172C101.724 8.36324 101.77 8.33477 101.817 8.30889C102.379 7.9957 103.034 7.83264 103.695 7.84299C103.716 7.84299 103.736 7.84299 103.757 7.84558C103.941 7.85076 104.127 7.87146 104.311 7.90511C104.337 7.91029 104.366 7.91546 104.392 7.92064C104.42 7.92582 104.449 7.93358 104.477 7.93876C104.531 7.9517 104.586 7.96464 104.643 7.98017C104.661 7.98535 104.679 7.99052 104.697 7.9957C104.752 8.01123 104.806 8.02935 104.86 8.04747C104.897 8.06041 104.933 8.07335 104.967 8.08629C104.985 8.09406 105.003 8.09924 105.021 8.107C105.057 8.12253 105.091 8.13547 105.127 8.151C105.145 8.15877 105.161 8.16653 105.179 8.1743C105.249 8.20794 105.319 8.24159 105.389 8.28042C105.402 8.28818 105.417 8.29595 105.43 8.30371C105.5 8.34254 105.57 8.38654 105.638 8.43313C105.653 8.44348 105.669 8.45384 105.684 8.46419C105.7 8.47454 105.715 8.48748 105.733 8.49784C105.733 8.49784 105.736 8.49784 105.736 8.50043C105.751 8.51078 105.767 8.52372 105.783 8.53407C105.798 8.54702 105.814 8.55737 105.829 8.57031C105.845 8.58066 105.858 8.5936 105.873 8.60396C105.922 8.64278 105.969 8.68161 106.016 8.72302C106.031 8.73596 106.047 8.7489 106.06 8.76443C106.073 8.77738 106.088 8.79032 106.101 8.80326C106.246 8.94044 106.384 9.09315 106.508 9.26398C106.513 9.27175 106.518 9.27692 106.523 9.28469C106.57 9.34681 106.614 9.4141 106.658 9.4814C106.671 9.50211 106.684 9.52281 106.697 9.54352C106.71 9.56423 106.723 9.58493 106.736 9.60823C106.746 9.62635 106.759 9.64705 106.769 9.66776C106.78 9.68329 106.788 9.69882 106.795 9.71694C106.821 9.76612 106.847 9.8153 106.873 9.86447C106.881 9.88 106.889 9.89812 106.896 9.91365C106.904 9.92918 106.912 9.9473 106.92 9.96283C106.927 9.97836 106.935 9.99648 106.943 10.012C106.953 10.0353 106.966 10.0612 106.977 10.0845C106.979 10.0922 106.984 10.1026 106.99 10.1104C107 10.1362 107.01 10.1621 107.021 10.1854C107.062 10.2864 107.101 10.3899 107.135 10.4934C107.14 10.5116 107.148 10.5323 107.153 10.5504C107.158 10.5659 107.163 10.5789 107.166 10.5944C107.168 10.6021 107.171 10.6125 107.174 10.6203C107.179 10.641 107.187 10.6617 107.192 10.685C107.202 10.7212 107.212 10.7574 107.223 10.7937C107.225 10.8066 107.231 10.8196 107.233 10.8325C107.241 10.861 107.246 10.8869 107.254 10.9153C107.256 10.9309 107.262 10.9464 107.264 10.9619C107.269 10.9826 107.275 11.0033 107.277 11.024C107.28 11.0396 107.285 11.0525 107.288 11.068C107.293 11.0965 107.298 11.125 107.306 11.1535C107.308 11.1586 107.308 11.1664 107.308 11.1716C107.313 11.1923 107.316 11.213 107.319 11.2337C107.321 11.2441 107.321 11.2544 107.324 11.2622C107.326 11.2803 107.329 11.2984 107.334 11.3165C107.342 11.3683 107.345 11.4201 107.345 11.4718C107.345 11.477 107.345 11.4848 107.342 11.4899C107.342 11.4951 107.339 11.5029 107.337 11.5106C107.337 11.5132 107.334 11.5184 107.334 11.521C107.332 11.5288 107.329 11.5391 107.326 11.5495C107.326 11.5521 107.324 11.5572 107.324 11.5598H99.8275C99.8249 11.4977 99.8119 11.4459 99.8197 11.3968Z" fill="#293E62"/>
<path d="M53.9686 17.1542C53.9686 17.2577 53.9608 17.3612 53.9375 17.4622C53.8701 17.7624 53.6215 17.954 53.3236 17.9514C53.0128 17.9488 52.7563 17.7391 52.7045 17.4337C52.6838 17.3147 52.6838 17.193 52.6838 17.0739C52.6812 15.2207 52.6812 13.3675 52.6838 11.5116C52.6838 10.9293 52.6164 10.3572 52.3885 9.81627C51.9663 8.81718 51.2643 8.11574 50.1712 7.91126C48.8735 7.67055 47.8088 8.11056 46.9955 9.13813C46.5396 9.71532 46.3065 10.3857 46.265 11.1208C46.2547 11.3175 46.2521 11.5168 46.2521 11.7161C46.2521 13.4995 46.2521 15.2854 46.2495 17.0713C46.2495 17.2008 46.2469 17.3328 46.221 17.457C46.1588 17.7598 45.8946 17.9566 45.5812 17.9488C45.2859 17.941 45.0424 17.734 44.988 17.4337C44.9699 17.3328 44.9673 17.2292 44.9673 17.1257C44.9673 13.867 44.9673 10.6083 44.9673 7.34701C44.9673 7.26936 44.9673 7.19171 44.9751 7.11406C45.0113 6.77757 45.2703 6.53427 45.589 6.52909C45.9257 6.52392 46.1977 6.76204 46.2365 7.10888C46.2547 7.27194 46.2443 7.43501 46.2495 7.60066C46.2521 7.69384 46.2573 7.78443 46.265 7.93456C46.3712 7.8362 46.4386 7.77667 46.5033 7.71455C47.8891 6.45403 49.9199 6.15896 51.5389 6.99758C52.6682 7.58254 53.3521 8.53505 53.7251 9.72827C53.9012 10.2925 53.966 10.8749 53.9686 11.4624C53.9712 13.3623 53.9686 15.2595 53.9686 17.1542Z" fill="#293E62"/>
<path d="M92.7557 7.35359C92.7376 7.42865 92.7065 7.50112 92.678 7.57359C91.3829 10.8685 90.0877 14.1635 88.7978 17.461C88.6942 17.7224 88.5465 17.9114 88.2538 17.9476C87.9352 17.9864 87.6839 17.8285 87.5518 17.4972C87.355 17.0106 87.1685 16.5188 86.9768 16.0297C85.8707 13.198 84.7621 10.3638 83.656 7.53218C83.6249 7.45194 83.5913 7.3717 83.5783 7.28629C83.5213 6.94722 83.713 6.64956 84.0446 6.54862C84.358 6.45285 84.6714 6.59779 84.8035 6.92133C85.0703 7.57618 85.3242 8.23621 85.5832 8.89364C86.3992 10.9695 87.2151 13.0479 88.031 15.1237C88.0673 15.2169 88.1113 15.3075 88.1502 15.4007C88.1709 15.4007 88.189 15.4007 88.2098 15.4007C88.2538 15.2894 88.3004 15.1807 88.3445 15.0694C89.391 12.4086 90.44 9.7452 91.4865 7.0844C91.5046 7.03522 91.5228 6.98863 91.5435 6.93945C91.6911 6.60297 91.9994 6.45026 92.318 6.5512C92.6444 6.65733 92.8412 7.00934 92.7557 7.35359Z" fill="#293E62"/>
<path d="M61.9623 16.8607C61.9156 16.9591 61.8431 17.0496 61.768 17.1299C60.6671 18.2895 58.8047 18.2144 57.7971 16.9668C57.3671 16.4362 57.178 15.8228 57.178 15.1446C57.178 12.8333 57.178 10.5245 57.178 8.2131V7.85074C56.963 7.85074 56.7739 7.8585 56.5874 7.84815C56.1367 7.82485 55.8492 7.42884 55.9709 6.99918C56.0486 6.72481 56.2817 6.54363 56.5822 6.53328C56.7558 6.5281 56.9267 6.5281 57.1003 6.52292C57.1158 6.52292 57.1314 6.50739 57.1676 6.48928C57.1702 6.40904 57.178 6.31845 57.178 6.22527C57.178 5.65584 57.178 5.0864 57.1806 4.51956C57.1806 4.42379 57.1832 4.32802 57.2013 4.23743C57.2661 3.90872 57.5432 3.68094 57.8592 3.69388C58.1778 3.70424 58.4369 3.94754 58.4835 4.28143C58.4939 4.3565 58.4913 4.43673 58.4913 4.51438C58.4913 5.08382 58.4913 5.65325 58.4913 6.22268V6.52551C58.6104 6.53069 58.7011 6.53846 58.7943 6.53846C59.46 6.53846 60.1231 6.54104 60.7889 6.53846C61.0841 6.53846 61.3095 6.65493 61.4338 6.92929C61.6229 7.3486 61.3432 7.80932 60.8743 7.85332C60.7371 7.86627 60.5998 7.8585 60.4599 7.8585C59.9082 7.8585 59.3564 7.8585 58.8021 7.8585H58.512C58.5042 7.95427 58.4938 8.02157 58.4938 8.08627C58.4938 10.4649 58.4913 12.8462 58.4938 15.2249C58.4938 15.9056 58.9238 16.444 59.574 16.5915C60.0273 16.695 60.4288 16.5812 60.7681 16.2628C60.8199 16.2162 60.8614 16.1619 60.9106 16.1127C61.1593 15.8745 61.4753 15.8383 61.7343 16.0195C62.0115 16.211 62.1099 16.5527 61.9623 16.8607Z" fill="#293E62"/>
<path d="M80.9128 7.85019C80.6642 7.8709 80.4103 7.87608 80.172 7.94079C78.9623 8.26174 78.2345 9.07447 77.8692 10.2418C77.7501 10.6223 77.7034 11.0157 77.706 11.4143C77.7086 13.3116 77.706 15.2062 77.706 17.1035C77.706 17.1889 77.7112 17.2769 77.7009 17.3623C77.6646 17.7143 77.3822 17.9628 77.0351 17.9524C76.7062 17.9421 76.4497 17.6832 76.429 17.3338C76.4238 17.2562 76.4264 17.1785 76.4264 17.1009C76.4264 13.8603 76.4264 10.6197 76.4264 7.37912C76.4264 7.30147 76.4238 7.22382 76.429 7.14617C76.4497 6.80451 76.7165 6.5405 77.0455 6.53532C77.3874 6.52756 77.6775 6.78898 77.7009 7.13582C77.7138 7.33253 77.7034 7.53183 77.706 7.73113C77.706 7.76219 77.719 7.79066 77.7345 7.85537C77.8252 7.77513 77.8925 7.7156 77.9625 7.65348C78.7966 6.91063 79.7783 6.54568 80.8921 6.53532C81.2159 6.53274 81.4568 6.70874 81.5423 6.98828C81.6718 7.41536 81.3817 7.81396 80.9128 7.85019Z" fill="#293E62"/>
<path d="M96.2191 7.37804C96.2191 10.6186 96.2191 13.8566 96.2191 17.0972C96.2191 17.193 96.2191 17.2861 96.2062 17.3819C96.1621 17.7236 95.9109 17.9514 95.5819 17.9565C95.2504 17.9617 94.968 17.7184 94.9214 17.3845C94.9084 17.2991 94.9136 17.2137 94.9136 17.1257C94.9136 15.4899 94.9136 13.8514 94.9136 12.2156C94.9136 10.5876 94.9136 8.9595 94.9162 7.33145C94.9162 7.20462 94.9266 7.07002 94.968 6.95096C95.0665 6.67401 95.3592 6.50577 95.6441 6.53942C95.9368 6.57307 96.1647 6.79566 96.2062 7.09591C96.2191 7.1865 96.2191 7.28227 96.2191 7.37804Z" fill="#293E62"/>
<path d="M42.8073 17.3726C42.7736 17.7039 42.5146 17.942 42.1882 17.9498C41.8541 17.9576 41.5666 17.7143 41.5277 17.383C41.5174 17.2975 41.5199 17.2121 41.5199 17.1241C41.5199 13.8602 41.5199 10.5938 41.5199 7.32731C41.5199 7.24966 41.5174 7.17201 41.5251 7.09436C41.564 6.77082 41.8619 6.51975 42.1908 6.52752C42.5172 6.53787 42.7788 6.78118 42.8099 7.1073C42.8177 7.20048 42.8151 7.29625 42.8151 7.39202C42.8151 9.01231 42.8151 10.6326 42.8151 12.2503C42.8151 13.8525 42.8151 15.4547 42.8151 17.0568C42.8151 17.1681 42.8177 17.2717 42.8073 17.3726Z" fill="#293E62"/>
<path d="M96.2841 4.73774C96.2737 5.12857 95.9577 5.43141 95.5614 5.42882C95.1676 5.42364 94.8568 5.11045 94.8594 4.71962C94.862 4.33913 95.1884 4.01042 95.5665 4.00783C95.9551 4.00524 96.2944 4.34949 96.2841 4.73774Z" fill="#293E62"/>
<path d="M42.8745 4.71444C42.8797 5.11304 42.5792 5.42105 42.1829 5.42882C41.7892 5.43658 41.468 5.13375 41.4602 4.7455C41.4498 4.34949 41.7762 4.01042 42.1674 4.00783C42.5507 4.00524 42.8719 4.3236 42.8745 4.71444Z" fill="#293E62"/>
<path d="M12.0735 19.8296C12.0735 19.9797 12.0735 20.0807 12.0735 20.1816C12.0735 22.9926 12.0735 25.8009 12.0735 28.6118C12.0735 28.8888 12.0502 29.1605 11.9544 29.4246C11.6591 30.2399 10.8872 30.7265 10.0298 30.6359C9.25011 30.5531 8.56368 29.8542 8.46266 29.0363C8.44453 28.8914 8.43676 28.7438 8.43676 28.5989C8.43417 24.763 8.43417 20.9271 8.43935 17.0912C8.43935 16.809 8.44971 16.5166 8.52224 16.2474C8.84085 15.0671 10.0894 14.5624 11.0996 15.0852C13.2832 16.2111 15.4772 17.3164 17.6686 18.4293C17.7515 18.4708 17.837 18.5122 17.938 18.5613C18.0053 18.4889 18.0701 18.4216 18.1322 18.3517C20.4039 15.7789 22.6782 13.2061 24.9499 10.6359C25.0121 10.566 25.0742 10.4935 25.139 10.4236C26.0197 9.5022 27.478 9.7248 28.0453 10.8688C28.2007 11.1846 28.2603 11.5185 28.2603 11.8705C28.2577 17.2335 28.2577 22.594 28.2525 27.957C28.2525 28.353 28.2655 28.7542 28.2007 29.1424C28.0505 30.0328 27.2501 30.7058 26.3228 30.6514C25.569 30.6074 24.8722 30.0354 24.6831 29.2563C24.6339 29.057 24.6209 28.8474 24.6209 28.6429C24.6183 24.7733 24.6209 20.9012 24.6209 17.0316C24.6209 16.9281 24.6209 16.8246 24.6209 16.7107C24.5044 16.7055 24.4707 16.7987 24.4189 16.8556C23.1885 18.243 21.9633 19.6329 20.7355 21.0228C20.4039 21.3982 20.0646 21.7657 19.7434 22.1488C19.215 22.7751 18.3317 23.0262 17.4743 22.581C15.7828 21.7036 14.081 20.8494 12.3818 19.9875C12.3015 19.9383 12.216 19.8969 12.0735 19.8296Z" fill="white"/>
<path d="M12.081 11.7403C12.0629 12.3253 11.8583 12.8222 11.4179 13.2079C10.7056 13.8343 9.67982 13.798 9.00893 13.1251C8.28365 12.4003 8.25774 11.1786 8.95971 10.4306C9.42079 9.93883 9.99583 9.74471 10.6512 9.90001C11.348 10.0631 11.7831 10.529 11.9904 11.2071C12.0422 11.3805 12.0525 11.5617 12.081 11.7403Z" fill="#65B1E3"/>
<path d="M62.8433 29.8362C62.8484 29.7844 62.9961 29.4192 63.2085 28.9141C62.9961 29.4192 62.8484 29.7844 62.8433 29.8362Z" fill="#293E62"/>
<path d="M63.2988 28.6956C63.3247 28.6361 63.3506 28.5739 63.3765 28.5117C63.3506 28.5739 63.3247 28.6361 63.2988 28.6956Z" fill="#293E62"/>
<path d="M65.436 11.5402C65.449 11.4469 65.4593 11.3511 65.4749 11.2578C65.4593 11.3511 65.4516 11.4469 65.436 11.5402Z" fill="#293E62"/>
<path d="M65.4829 11.2152C65.4932 11.1583 65.5062 11.1039 65.5191 11.0469C65.5062 11.1039 65.4958 11.1583 65.4829 11.2152C65.4803 11.2282 65.4777 11.2411 65.4751 11.2567C65.4777 11.2437 65.4803 11.2282 65.4829 11.2152Z" fill="#293E62"/>
<path d="M65.5396 10.9644C65.5862 10.7702 65.6432 10.5837 65.7131 10.4023C65.6432 10.5837 65.5862 10.7728 65.5396 10.9644Z" fill="#293E62"/>
<path d="M66.1172 9.58984C66.0861 9.63647 66.0576 9.68309 66.0317 9.73231C66.0576 9.68309 66.0861 9.63647 66.1172 9.58984Z" fill="#293E62"/>
<path d="M66.7856 11.5723C66.8245 11.5723 66.8659 11.5723 66.9074 11.5723C66.8659 11.5749 66.8271 11.5749 66.7856 11.5723Z" fill="#293E62"/>
<path d="M67.1895 11.5781C67.3241 11.5781 67.4666 11.5807 67.6117 11.5807C67.4666 11.5781 67.3267 11.5781 67.1895 11.5781Z" fill="#293E62"/>
<path d="M68.8838 11.5827C69.2205 11.5827 69.5599 11.5827 69.894 11.5801C69.5599 11.5827 69.2205 11.5827 68.8838 11.5827Z" fill="#293E62"/>
<path d="M67.625 11.5801C68.0239 11.5827 68.4513 11.5827 68.8839 11.5827C68.4513 11.5827 68.0239 11.5801 67.625 11.5801Z" fill="#293E62"/>
<path d="M100.097 10.3593C100.112 10.3153 100.13 10.2739 100.148 10.2324C100.13 10.2739 100.112 10.3153 100.097 10.3593Z" fill="#293E62"/>
<path d="M100.89 9.06064C100.921 9.02438 100.954 8.99071 100.988 8.95703C100.954 8.99071 100.921 9.02438 100.89 9.06064Z" fill="#293E62"/>
</g>
<defs>
<linearGradient id="paint0_linear_425_452" x1="6.97178" y1="31.2795" x2="30.9368" y2="7.29622" gradientUnits="userSpaceOnUse">
<stop stop-color="#363C63"/>
<stop offset="1" stop-color="#263E62"/>
</linearGradient>
<clipPath id="clip0_425_452">
<rect width="125" height="40" fill="white"/>
</clipPath>
</defs>
</svg>
