<svg xmlns="http://www.w3.org/2000/svg" xmlns:xlink="http://www.w3.org/1999/xlink" width="40" height="40" viewBox="0 0 40 40">
  <defs>
    <clipPath id="clip-path">
      <rect id="사각형_27271" data-name="사각형 27271" width="40" height="40" transform="translate(293 488)" fill="#fff" stroke="#707070" stroke-width="1"/>
    </clipPath>
    <clipPath id="clip-path-2">
      <rect id="사각형_27323" data-name="사각형 27323" width="31.231" height="25.716" fill="none"/>
    </clipPath>
  </defs>
  <g id="icon_tendency17" transform="translate(-293 -488)" clip-path="url(#clip-path)">
    <g id="그룹_21228" data-name="그룹 21228" transform="translate(297.384 495.142)">
      <g id="그룹_21227" data-name="그룹 21227" transform="translate(0 0)" clip-path="url(#clip-path-2)">
        <path id="패스_10731" data-name="패스 10731" d="M6.854,12.865C2.544,13.787,0,18.97,0,18.97l15.608-3.338s-4.441-3.688-8.752-2.767" transform="translate(0 3.831)" fill="#6a932a"/>
        <path id="패스_10732" data-name="패스 10732" d="M15.606,14.957,0,18.3s4.443,3.688,8.751,2.765,6.855-6.1,6.855-6.1" transform="translate(0 4.506)" fill="#92b742"/>
        <path id="패스_10733" data-name="패스 10733" d="M20.759,12.865c4.31.921,6.854,6.1,6.854,6.1L12.007,15.632s4.441-3.688,8.752-2.767" transform="translate(3.618 3.831)" fill="#6a932a"/>
        <path id="패스_10734" data-name="패스 10734" d="M12.007,14.957,27.613,18.3s-4.443,3.688-8.751,2.765-6.855-6.1-6.855-6.1" transform="translate(3.618 4.506)" fill="#92b742"/>
        <path id="패스_10735" data-name="패스 10735" d="M8.97,7.341c.078,4.011,4.129,7.184,4.129,7.184s3.922-3.329,3.844-7.341S12.814,0,12.814,0,8.892,3.33,8.97,7.341" transform="translate(2.702 -0.001)" fill="#fcc2c1"/>
        <path id="패스_10736" data-name="패스 10736" d="M16.7,9.127c-2.565,3.085-2.212,7.607-2.212,7.607s4.51-.48,7.075-3.566S23.78,5.561,23.78,5.561s-4.51.48-7.075,3.566" transform="translate(4.362 1.675)" fill="#fa8f91"/>
        <path id="패스_10737" data-name="패스 10737" d="M13.517,7.507c-1.239,3.815.763,7.886.763,7.886s4.012-2.116,5.252-5.933-.763-7.885-.763-7.885-4.013,2.116-5.252,5.931" transform="translate(3.951 0.474)" fill="#fba7a9"/>
        <path id="패스_10738" data-name="패스 10738" d="M18.861,10.979c-3.381,2.16-4.42,6.575-4.42,6.575s4.444.914,7.825-1.245,4.419-6.575,4.419-6.575-4.443-.915-7.823,1.245" transform="translate(4.351 2.874)" fill="#fcc2c1"/>
        <path id="패스_10739" data-name="패스 10739" d="M8.063,10.979c3.381,2.16,4.42,6.575,4.42,6.575s-4.444.914-7.825-1.245S.24,9.734.24,9.734s4.443-.915,7.823,1.245" transform="translate(0.072 2.874)" fill="#fcc2c1"/>
        <path id="패스_10740" data-name="패스 10740" d="M10.133,9.127c2.565,3.085,2.212,7.607,2.212,7.607s-4.51-.48-7.075-3.566S3.058,5.561,3.058,5.561s4.51.48,7.075,3.566" transform="translate(0.916 1.675)" fill="#fa8f91"/>
        <path id="패스_10741" data-name="패스 10741" d="M12.743,7.507c1.239,3.815-.763,7.886-.763,7.886S7.969,13.277,6.729,9.461s.763-7.885.763-7.885S11.5,3.692,12.743,7.507" transform="translate(1.905 0.474)" fill="#fba7a9"/>
        <path id="패스_10742" data-name="패스 10742" d="M9.616,12.889c.078,4.011,3.3,7.2,3.3,7.2s3.1-3.314,3.019-7.325-3.3-7.2-3.3-7.2-3.1,3.314-3.019,7.325" transform="translate(2.897 1.676)" fill="#fa8f91"/>
        <path id="패스_10743" data-name="패스 10743" d="M11.617,11.715c2.781,2.891,2.756,7.428,2.756,7.428S9.839,18.991,7.058,16.1,4.3,8.67,4.3,8.67s4.534.154,7.315,3.045" transform="translate(1.296 2.612)" fill="#fba7a9"/>
        <path id="패스_10744" data-name="패스 10744" d="M14.805,11.715c-2.781,2.891-2.756,7.428-2.756,7.428s4.534-.152,7.315-3.045S22.12,8.67,22.12,8.67s-4.534.154-7.315,3.045" transform="translate(3.63 2.612)" fill="#fba7a9"/>
      </g>
    </g>
  </g>
</svg>
