<svg xmlns="http://www.w3.org/2000/svg" xmlns:xlink="http://www.w3.org/1999/xlink" width="40" height="40" viewBox="0 0 40 40">
  <defs>
    <clipPath id="clip-path">
      <rect id="사각형_27306" data-name="사각형 27306" width="40" height="40" transform="translate(286 495)" fill="#fff" stroke="#707070" stroke-width="1"/>
    </clipPath>
    <clipPath id="clip-path-2">
      <rect id="사각형_27305" data-name="사각형 27305" width="36.905" height="35" fill="none"/>
    </clipPath>
  </defs>
  <g id="icon_tendency18" transform="translate(-286 -495)" clip-path="url(#clip-path)">
    <g id="그룹_21217" data-name="그룹 21217" transform="translate(287.547 497.5)">
      <g id="그룹_21216" data-name="그룹 21216" clip-path="url(#clip-path-2)">
        <path id="패스_10679" data-name="패스 10679" d="M18.725,10.431a3.013,3.013,0,1,0-3.013,3.013,3.014,3.014,0,0,0,3.013-3.013" fill="#facda7"/>
        <path id="패스_10680" data-name="패스 10680" d="M25.311,5.331a1.631,1.631,0,0,0-1.6,1.37,8.114,8.114,0,0,1-15.995,0,1.623,1.623,0,0,0-3.207.5,11.36,11.36,0,0,0,22.409,0A1.618,1.618,0,0,0,25.311,5.331Z" fill="#ff4d6f"/>
        <path id="패스_10681" data-name="패스 10681" d="M15.712,25.033h0a4.4,4.4,0,0,1-4.4-4.4V14.371h8.808v6.258a4.4,4.4,0,0,1-4.4,4.4" fill="#ff4d6f"/>
        <path id="패스_10682" data-name="패스 10682" d="M28.692,20.4a3.013,3.013,0,1,0-3.013,3.013A3.013,3.013,0,0,0,28.692,20.4" fill="#facda7"/>
        <path id="패스_10683" data-name="패스 10683" d="M35.278,15.3a1.631,1.631,0,0,0-1.6,1.37,8.114,8.114,0,0,1-15.995,0,1.623,1.623,0,0,0-3.207.5,11.36,11.36,0,0,0,22.409,0,1.618,1.618,0,0,0-1.6-1.869" fill="#ade660"/>
        <path id="패스_10684" data-name="패스 10684" d="M25.679,35h0a4.4,4.4,0,0,1-4.4-4.4V24.338h8.808V30.6a4.4,4.4,0,0,1-4.4,4.4" fill="#ade660"/>
        <path id="패스_10685" data-name="패스 10685" d="M1.8,6.623a.464.464,0,0,1-.464-.464V3.477a.464.464,0,0,1,.928,0V6.159a.464.464,0,0,1-.464.464" transform="translate(2.68 10.878)" fill="#8161e5"/>
        <path id="패스_10686" data-name="패스 10686" d="M3.146,5.282H.463a.464.464,0,0,1,0-.927H3.146a.464.464,0,1,1,0,.927" transform="translate(2.68 10.878)" fill="#8161e5"/>
        <path id="패스_10687" data-name="패스 10687" d="M34.487,14.04a.464.464,0,0,1-.464-.464V10.894a.464.464,0,0,1,.928,0v2.682a.464.464,0,0,1-.464.464" transform="translate(-1.854 -4.816)" fill="#8161e5"/>
        <path id="패스_10688" data-name="패스 10688" d="M35.828,12.7H33.145a.464.464,0,0,1,0-.927h2.683a.464.464,0,1,1,0,.927" transform="translate(-1.854 -4.816)" fill="#8161e5"/>
        <path id="패스_10690" data-name="패스 10690" d="M30.547,10.894A1.391,1.391,0,1,1,31.938,9.5a1.392,1.392,0,0,1-1.391,1.39m0-1.854a.464.464,0,1,0,.464.464.464.464,0,0,0-.464-.464" transform="translate(-20 22.557)" fill="#8161e5"/>
        <path id="패스_10691" data-name="패스 10691" d="M30.034,9.868a.878.878,0,1,1,.878-.877.879.879,0,0,1-.878.877m0-1.17a.293.293,0,1,0,.293.293.293.293,0,0,0-.293-.293" transform="translate(3.526 18.678)" fill="#8161e5"/>
        <path id="패스_10692" data-name="패스 10692" d="M30.034,9.868a.878.878,0,1,1,.878-.877.879.879,0,0,1-.878.877m0-1.17a.293.293,0,1,0,.293.293.293.293,0,0,0-.293-.293" transform="translate(-7.881 -7.322)" fill="#8161e5"/>
      </g>
    </g>
  </g>
</svg>
