<svg xmlns="http://www.w3.org/2000/svg" xmlns:xlink="http://www.w3.org/1999/xlink" width="40" height="40" viewBox="0 0 40 40">
  <defs>
    <clipPath id="clip-path">
      <rect id="사각형_27269" data-name="사각형 27269" width="40" height="40" transform="translate(184 266)" fill="#fff" stroke="#707070" stroke-width="1"/>
    </clipPath>
    <clipPath id="clip-path-2">
      <rect id="사각형_27268" data-name="사각형 27268" width="35.341" height="28.688" fill="none"/>
    </clipPath>
  </defs>
  <g id="icon_tendency04" transform="translate(-184 -266)" clip-path="url(#clip-path)">
    <g id="그룹_21180" data-name="그룹 21180" transform="translate(186.329 271.656)">
      <path id="패스_10580" data-name="패스 10580" d="M26.745,5.222H21.081V1.358h5.664l-.9,1.932Z" transform="translate(-4.124 -0.266)" fill="#f6737a"/>
      <rect id="사각형_27267" data-name="사각형 27267" width="0.801" height="11.023" transform="translate(16.54 0)" fill="#353535"/>
      <g id="그룹_21179" data-name="그룹 21179" transform="translate(0 0)">
        <g id="그룹_21178" data-name="그룹 21178" clip-path="url(#clip-path-2)">
          <path id="패스_10581" data-name="패스 10581" d="M39.058,32.246l-6.08-7.951a5.774,5.774,0,0,1-6.9-.083l-6.143,8.034a.733.733,0,0,0,.582,1.178H38.476a.733.733,0,0,0,.582-1.178" transform="translate(-3.869 -4.736)" fill="#70a763"/>
          <path id="패스_10582" data-name="패스 10582" d="M34.51,23.4l-2.491-3.258a1.25,1.25,0,0,0-1.985,0L27.6,23.32a5.776,5.776,0,0,0,6.9.082" transform="translate(-5.4 -3.845)" fill="#8cc47e"/>
          <path id="패스_10583" data-name="패스 10583" d="M22.141,30.584l-4.341-6.3-2.835-4.114-2.8-4.062a1.249,1.249,0,0,0-2.058,0L7.19,20.342l-1.926,2.8L.131,30.584a.733.733,0,0,0,.6,1.149h20.8a.733.733,0,0,0,.6-1.149" transform="translate(0 -3.046)" fill="#70a763"/>
          <path id="패스_10584" data-name="패스 10584" d="M32.373,31,22.462,17.823c-.2.4-.463.863-.8,1.416a1.564,1.564,0,0,1-2.209.676,2.775,2.775,0,0,0-3.269.8,4.53,4.53,0,0,1-6.6.8L2.436,31a.734.734,0,0,0,.586,1.174H31.788A.734.734,0,0,0,32.373,31" transform="translate(-0.447 -3.487)" fill="#78b56a"/>
          <path id="패스_10585" data-name="패스 10585" d="M17.953,19.277a2.777,2.777,0,0,1,3.269-.8,1.563,1.563,0,0,0,2.209-.675c.341-.553.6-1.019.8-1.416l-4.059-5.4a1.249,1.249,0,0,0-2,0L11.35,20.072a4.53,4.53,0,0,0,6.6-.795" transform="translate(-2.22 -2.053)" fill="#9dce91"/>
        </g>
      </g>
    </g>
  </g>
</svg>
