<svg xmlns="http://www.w3.org/2000/svg" xmlns:xlink="http://www.w3.org/1999/xlink" width="40" height="40" viewBox="0 0 40 40">
  <defs>
    <clipPath id="clip-path">
      <rect id="사각형_27298" data-name="사각형 27298" width="40" height="40" transform="translate(325 458)" fill="#fff" stroke="#707070" stroke-width="1"/>
    </clipPath>
    <clipPath id="clip-path-2">
      <rect id="사각형_27297" data-name="사각형 27297" width="31.365" height="30.379" fill="none"/>
    </clipPath>
  </defs>
  <g id="icon_tendency12" transform="translate(-325 -458)" clip-path="url(#clip-path)">
    <g id="그룹_21203" data-name="그룹 21203" transform="translate(329.317 462.811)">
      <g id="그룹_21202" data-name="그룹 21202" transform="translate(0 0)" clip-path="url(#clip-path-2)">
        <path id="패스_10646" data-name="패스 10646" d="M12.5,0a.61.61,0,0,1,.311.608c-.014,1.285,0,2.57-.012,3.856,0,.26.075.33.326.32.449-.02.9-.01,1.347,0A1.69,1.69,0,0,1,16.1,6.306,1.624,1.624,0,0,1,14.773,8a9.048,9.048,0,0,1-1.589.023c-.307-.013-.4.069-.39.384.02,1.275.009,2.551.008,3.826,0,.463-.11.57-.579.57H8.549c-.4,0-.516-.122-.525-.531a3.21,3.21,0,0,0-.181-1.5,1.645,1.645,0,0,0-1.855-.845A1.62,1.62,0,0,0,4.777,11.47c0,.286,0,.572,0,.857-.006.335-.134.473-.459.473-1.286,0-2.571,0-3.858,0A.534.534,0,0,1,0,12.556V1.225A1.422,1.422,0,0,1,1.348,0H4.472a.5.5,0,0,1,.387.546c.006.245,0,.49,0,.734a1.538,1.538,0,1,0,3.075.061c.016-.3,0-.591.008-.887A.416.416,0,0,1,8.27,0Z" transform="translate(0 0)" fill="#fa9693"/>
        <path id="패스_10647" data-name="패스 10647" d="M18.933,17.67q0-2.1,0-4.194c0-.464.114-.578.573-.579.378,0,.756,0,1.133,0a1.623,1.623,0,0,0,0-3.246c-.409,0-.817,0-1.225,0a.432.432,0,0,1-.474-.472q0-1.913,0-3.826c0-.341.141-.475.49-.476q1.9,0,3.8,0c.36,0,.488.136.488.508a2.464,2.464,0,0,0,.266,1.446,1.628,1.628,0,0,0,2.98-.768c.01-.255,0-.511.006-.766a.386.386,0,0,1,.423-.42c.97,0,1.94-.03,2.908.011a1.46,1.46,0,0,1,1.343,1c.029.074.022.166.1.217V17.674a.659.659,0,0,1-.47.091c-1.255,0-2.511,0-3.766,0-.436,0-.452.013-.448.444a2.355,2.355,0,0,1-.315,1.5,1.711,1.711,0,0,1-3.113-.829c-.015-.2-.006-.409-.007-.613,0-.5,0-.5-.486-.5-1.245,0-2.491,0-3.736,0-.159,0-.33.036-.465-.1" transform="translate(-0.373 -0.096)" fill="#a4ded3"/>
        <path id="패스_10648" data-name="패스 10648" d="M30.412,30.7a1.156,1.156,0,0,0,.8-.333,1.429,1.429,0,0,0,.471-.925V17.931c-1.49,0-2.98,0-4.47-.006-.243,0-.324.068-.306.309a7.337,7.337,0,0,1,0,.734,1.624,1.624,0,0,1-3.2.411,3.7,3.7,0,0,1-.041-1.1c.006-.27-.055-.364-.348-.361-1.479.015-2.96,0-4.439,0l0,.01a.625.625,0,0,0-.094.467c0,1.276,0,2.552,0,3.827,0,.355-.027.379-.384.384-.306,0-.613-.013-.919.009a1.716,1.716,0,0,0-1.571,1.535,1.683,1.683,0,0,0,1.369,1.828,4.781,4.781,0,0,0,.946.06c.561,0,.561,0,.561.546,0,.735,0,1.47,0,2.2a.564.564,0,0,0,.091.413l-.035.032a3.317,3.317,0,0,0,.012,1.42.146.146,0,0,0,.02.015.038.038,0,0,0,0,.055H30.392a.035.035,0,0,0,.02-.027" transform="translate(-0.313 -0.353)" fill="#fbb456"/>
        <path id="패스_10649" data-name="패스 10649" d="M18.683,30.608l0,0q0-.731,0-1.463l.008,0c0-.979-.009-1.96,0-2.94,0-.233-.053-.32-.3-.317a6.115,6.115,0,0,1-1.219-.044,1.6,1.6,0,0,1-.128-3.148,7.127,7.127,0,0,1,1.34-.037c.239,0,.314-.065.312-.31-.011-1.49,0-2.98,0-4.471-.081,0-.164-.007-.245-.007-1.419,0-2.837,0-4.256,0-.216,0-.283-.062-.274-.275.016-.357.011-.715,0-1.071a1.619,1.619,0,0,0-3.2-.32,5.635,5.635,0,0,0-.042,1.341c0,.248-.055.329-.317.326-1.266-.014-2.531-.006-3.8-.006-.588,0-.664.077-.665.67q-.006,4.776-.008,9.551a5.4,5.4,0,0,0,.051,1.245,1.461,1.461,0,0,0,1.224,1.28.272.272,0,0,1,.007.056H18.677l.006-.065" transform="translate(-0.115 -0.294)" fill="#f06855"/>
      </g>
    </g>
  </g>
</svg>
