<svg xmlns="http://www.w3.org/2000/svg" xmlns:xlink="http://www.w3.org/1999/xlink" width="40" height="40" viewBox="0 0 40 40">
  <defs>
    <clipPath id="clip-path">
      <rect id="사각형_27237" data-name="사각형 27237" width="40" height="40" transform="translate(260 1009)" fill="#fff" stroke="#707070" stroke-width="1"/>
    </clipPath>
    <clipPath id="clip-path-2">
      <rect id="사각형_26528" data-name="사각형 26528" width="21.436" height="29" fill="none"/>
    </clipPath>
    <clipPath id="clip-path-3">
      <rect id="사각형_26530" data-name="사각형 26530" width="9.342" height="0.767" fill="#272727"/>
    </clipPath>
    <clipPath id="clip-path-4">
      <rect id="사각형_26532" data-name="사각형 26532" width="9.342" height="0.765" fill="#272727"/>
    </clipPath>
  </defs>
  <g id="icon_tendency09" transform="translate(-260 -1009)" clip-path="url(#clip-path)">
    <g id="그룹_21160" data-name="그룹 21160" transform="translate(269 1015)">
      <g id="그룹_20435" data-name="그룹 20435" transform="translate(0 0)">
        <g id="그룹_20434" data-name="그룹 20434" clip-path="url(#clip-path-2)">
          <path id="패스_9736" data-name="패스 9736" d="M9.491.068A10.71,10.71,0,0,0,5.2,19.892a1.74,1.74,0,0,1,.849,1.486v.007a.085.085,0,0,0,.088.088H15.3a.089.089,0,0,0,.089-.088v-.01a1.733,1.733,0,0,1,.846-1.482A10.711,10.711,0,0,0,9.491.068" transform="translate(0 -0.001)" fill="#ffaa30"/>
          <path id="패스_9738" data-name="패스 9738" d="M10.306,22.552H7.363a1.425,1.425,0,0,1-1.425-1.425v-.106a.105.105,0,0,1,.106-.1h5.687a.105.105,0,0,1,.106.1,1.531,1.531,0,0,1-1.531,1.531" transform="translate(1.83 6.447)" fill="#231f20"/>
          <path id="패스_9739" data-name="패스 9739" d="M4.622,17v2.995a1.721,1.721,0,0,0,1.72,1.722h5.9a1.721,1.721,0,0,0,1.72-1.722V17a.089.089,0,0,0-.089-.089H4.711A.089.089,0,0,0,4.622,17" transform="translate(1.425 5.212)" fill="#231f20"/>
        </g>
      </g>
      <g id="그룹_20437" data-name="그룹 20437" transform="translate(6.047 23.06)">
        <g id="그룹_20436" data-name="그룹 20436" clip-path="url(#clip-path-3)">
          <rect id="사각형_26529" data-name="사각형 26529" width="2.483" height="9.323" transform="matrix(0.185, -0.983, 0.983, 0.185, -0.139, 0.74)" fill="#272727"/>
        </g>
      </g>
      <g id="그룹_20439" data-name="그룹 20439" transform="translate(6.047 24.525)">
        <g id="그룹_20438" data-name="그룹 20438" clip-path="url(#clip-path-4)">
          <rect id="사각형_26531" data-name="사각형 26531" width="2.482" height="9.322" transform="translate(-0.139 0.739) rotate(-79.33)" fill="#272727"/>
        </g>
      </g>
      <g id="그룹_20441" data-name="그룹 20441" transform="translate(0 0)">
        <g id="그룹_20440" data-name="그룹 20440" clip-path="url(#clip-path-2)">
          <path id="패스_9740" data-name="패스 9740" d="M9,12.69v4.54a.645.645,0,0,1-.275.536H7.97A.645.645,0,0,1,7.7,17.23V12.69a.656.656,0,0,1,.654-.654A.665.665,0,0,1,9,12.69" transform="translate(2.372 3.71)" fill="#fff"/>
          <path id="패스_9741" data-name="패스 9741" d="M8.813,10.754a.654.654,0,0,1-.654-.654A1.324,1.324,0,0,0,6.835,8.777a.654.654,0,1,1,0-1.308A2.634,2.634,0,0,1,9.467,10.1a.654.654,0,0,1-.654.654" transform="translate(1.905 2.302)" fill="#fff"/>
          <path id="패스_9742" data-name="패스 9742" d="M8.347,10.754a.654.654,0,0,1-.654-.654,2.634,2.634,0,0,1,2.631-2.631.654.654,0,0,1,0,1.308A1.323,1.323,0,0,0,9,10.1a.654.654,0,0,1-.654.654" transform="translate(2.371 2.302)" fill="#fff"/>
          <path id="패스_9743" data-name="패스 9743" d="M9,11.163a.654.654,0,1,0-.654.654A.654.654,0,0,0,9,11.163" transform="translate(2.371 3.239)" fill="#fff"/>
        </g>
      </g>
    </g>
  </g>
</svg>
