<svg xmlns="http://www.w3.org/2000/svg" xmlns:xlink="http://www.w3.org/1999/xlink" width="40" height="40" viewBox="0 0 40 40">
  <defs>
    <clipPath id="clip-path">
      <rect id="사각형_27284" data-name="사각형 27284" width="40" height="40" transform="translate(109 715)" fill="#fff" stroke="#707070" stroke-width="1"/>
    </clipPath>
  </defs>
  <g id="icon_tendency010" transform="translate(-109 -715)" clip-path="url(#clip-path)">
    <g id="그룹_21189" data-name="그룹 21189" transform="matrix(0.921, -0.391, 0.391, 0.921, 113.105, 727.272)">
      <g id="그룹_21204" data-name="그룹 21204">
        <path id="패스_10620" data-name="패스 10620" d="M10.7,1.11A6.534,6.534,0,0,0,4.839.388,6.939,6.939,0,0,0,.005,7.064,1.868,1.868,0,0,0,1.792,8.853a1.814,1.814,0,0,0,1.915-1.69A3.664,3.664,0,0,1,4.945,4.425c.107-.065.213-.129.32-.191a3.134,3.134,0,0,1,3.312-.064,3.077,3.077,0,0,1,1.65,2.871A3.165,3.165,0,0,1,8.253,9.992a5.119,5.119,0,0,0-3.126,4.863,1.857,1.857,0,1,0,3.714.04,1.522,1.522,0,0,1,.95-1.506A6.971,6.971,0,0,0,10.7,1.11" transform="translate(0 0)" fill="#2bbbff"/>
        <path id="패스_10621" data-name="패스 10621" d="M3.719,1.856A1.86,1.86,0,1,1,1.856,0,1.863,1.863,0,0,1,3.719,1.856" transform="translate(5.03 18.996)" fill="#2bbbff"/>
      </g>
    </g>
    <g id="그룹_21205" data-name="그룹 21205" transform="matrix(0.966, 0.259, -0.259, 0.966, 133.445, 722.467)">
      <g id="그룹_21204-2" data-name="그룹 21204" transform="translate(0 0)">
        <path id="패스_10620-2" data-name="패스 10620" d="M7.758.8A4.738,4.738,0,0,0,3.508.281,5.031,5.031,0,0,0,0,5.122a1.354,1.354,0,0,0,1.3,1.3A1.315,1.315,0,0,0,2.688,5.194a2.657,2.657,0,0,1,.9-1.986c.077-.047.155-.094.232-.139a2.272,2.272,0,0,1,2.4-.047A2.231,2.231,0,0,1,7.416,5.1,2.3,2.3,0,0,1,5.984,7.245a3.712,3.712,0,0,0-2.267,3.526A1.347,1.347,0,1,0,6.41,10.8,1.1,1.1,0,0,1,7.1,9.708,5.055,5.055,0,0,0,7.758.8" transform="translate(0 0)" fill="#ff8181"/>
        <path id="패스_10621-2" data-name="패스 10621" d="M2.7,1.346A1.348,1.348,0,1,1,1.346,0,1.351,1.351,0,0,1,2.7,1.346" transform="translate(3.647 13.774)" fill="#ff8181"/>
      </g>
    </g>
  </g>
</svg>
