<svg xmlns="http://www.w3.org/2000/svg" xmlns:xlink="http://www.w3.org/1999/xlink" width="190" height="190" viewBox="0 0 190 190">
  <defs>
    <filter id="패스_9534" x="6" y="12" width="178" height="178" filterUnits="userSpaceOnUse">
      <feOffset dy="6" input="SourceAlpha"/>
      <feGaussianBlur stdDeviation="5" result="blur"/>
      <feFlood flood-color="#144788" flood-opacity="0.2"/>
      <feComposite operator="in" in2="blur"/>
      <feComposite in="SourceGraphic"/>
    </filter>
    <clipPath id="clip-path">
      <path id="패스_9533" data-name="패스 9533" d="M266.3,33.355a58.041,58.041,0,0,0-6.89,64.292,4.5,4.5,0,1,0,7.953-4.2,49.018,49.018,0,1,1,86.81.007,4.5,4.5,0,0,0,7.961,4.189A58.03,58.03,0,0,0,266.3,33.355" transform="translate(-252.747 -12.609)" fill="none"/>
    </clipPath>
    <linearGradient id="linear-gradient" x1="0.073" y1="1" x2="0.96" y2="1" gradientUnits="objectBoundingBox">
      <stop offset="0" stop-color="#e6effa"/>
      <stop offset="1" stop-color="#d2e4fa"/>
    </linearGradient>
    <clipPath id="clip-path-2">
      <path id="패스_9532" data-name="패스 9532" d="M387.567,33.355a58.037,58.037,0,0,0-6.889,64.292,4.5,4.5,0,1,0,7.953-4.2,49.016,49.016,0,1,1,86.81.007,4.5,4.5,0,1,0,7.958,4.189,58.03,58.03,0,0,0-95.833-64.286" transform="translate(-374.009 -12.609)" fill="none"/>
    </clipPath>
    <linearGradient id="linear-gradient-2" x1="1" y1="1" x2="0" y2="1" gradientUnits="objectBoundingBox">
      <stop offset="0" stop-color="#54adff"/>
      <stop offset="1" stop-color="#2eeee3"/>
    </linearGradient>
  </defs>
  <g id="img_tension_high" transform="translate(-66 -670)">
    <g id="img_tension_high-2" data-name="img_tension_high" transform="translate(-3.002 24)">
      <g transform="matrix(1, 0, 0, 1, 69, 646)" filter="url(#패스_9534)">
        <path id="패스_9534-2" data-name="패스 9534" d="M388.569,74a74,74,0,1,0-74,74,74,74,0,0,0,74-74" transform="translate(-219.57 21)" fill="#fff"/>
      </g>
      <g id="그룹_20285" data-name="그룹 20285" transform="translate(105.999 683)" clip-path="url(#clip-path)">
        <rect id="사각형_26387" data-name="사각형 26387" width="116.039" height="88.077" transform="translate(0 0)" fill="url(#linear-gradient)"/>
      </g>
      <g id="그룹_20283" data-name="그룹 20283" transform="translate(105.999 683)">
        <g id="그룹_20282" data-name="그룹 20282" transform="translate(0 0)" clip-path="url(#clip-path-2)">
          <rect id="사각형_26386" data-name="사각형 26386" width="116.041" height="88.077" transform="translate(0 0)" fill="url(#linear-gradient-2)"/>
        </g>
      </g>
      <text id="긴장도_높음" data-name="긴장도 높음" transform="translate(133 783)" fill="#333" font-size="13" font-family="SpoqaHanSansNeo-Medium, Spoqa Han Sans Neo" font-weight="500"><tspan x="0" y="0">긴장도</tspan><tspan y="0" fill="#0068ed"> </tspan><tspan y="0" fill="#f65454">높음</tspan></text>
    </g>
    <g id="그룹_21150" data-name="그룹 21150" transform="translate(0 -191)">
      <text id="낮음" transform="translate(78 967) rotate(-90)" fill="#999" font-size="12" font-family="SpoqaHanSansNeo-Regular, Spoqa Han Sans Neo"><tspan x="0" y="0">낮음</tspan></text>
      <text id="보통" transform="translate(150 873)" fill="#999" font-size="12" font-family="SpoqaHanSansNeo-Regular, Spoqa Han Sans Neo"><tspan x="0" y="0">보통</tspan></text>
      <text id="높음" transform="translate(244 945) rotate(90)" fill="#999" font-size="12" font-family="SpoqaHanSansNeo-Regular, Spoqa Han Sans Neo"><tspan x="0" y="0">높음</tspan></text>
      <path id="패스_9541" data-name="패스 9541" d="M-17471,4177.627v-8" transform="translate(17632 -3291.627)" fill="none" stroke="#ddd" stroke-linecap="round" stroke-width="1"/>
      <path id="패스_9542" data-name="패스 9542" d="M-17471,4177.627v-8" transform="translate(-4086.627 -16515) rotate(-90)" fill="none" stroke="#ddd" stroke-linecap="round" stroke-width="1"/>
      <path id="패스_9543" data-name="패스 9543" d="M-17471,4177.627v-8" transform="translate(-3938.627 -16515) rotate(-90)" fill="none" stroke="#ddd" stroke-linecap="round" stroke-width="1"/>
    </g>
  </g>
</svg>
