<svg xmlns="http://www.w3.org/2000/svg" xmlns:xlink="http://www.w3.org/1999/xlink" width="68" height="68" viewBox="0 0 68 68">
  <defs>
    <clipPath id="clip-path">
      <rect id="사각형_27318" data-name="사각형 27318" width="68" height="68" transform="translate(743 1476)" fill="#fff" stroke="#707070" stroke-width="1"/>
    </clipPath>
    <linearGradient id="linear-gradient" y1="0.5" x2="1" y2="0.5" gradientUnits="objectBoundingBox">
      <stop offset="0" stop-color="#5f4eee"/>
      <stop offset="1" stop-color="#54adff"/>
    </linearGradient>
    <filter id="패스_10710" x="-1" y="24" width="70" height="23" filterUnits="userSpaceOnUse">
      <feOffset dy="1" input="SourceAlpha"/>
      <feGaussianBlur stdDeviation="1" result="blur"/>
      <feFlood flood-color="#144788" flood-opacity="0.2"/>
      <feComposite operator="in" in2="blur"/>
      <feComposite in="SourceGraphic"/>
    </filter>
    <filter id="패스_10710-2" x="-1" y="24" width="70" height="23" filterUnits="userSpaceOnUse">
      <feOffset dy="-1" input="SourceAlpha"/>
      <feGaussianBlur stdDeviation="0.5" result="blur-2"/>
      <feFlood flood-opacity="0.161" result="color"/>
      <feComposite operator="out" in="SourceGraphic" in2="blur-2"/>
      <feComposite operator="in" in="color"/>
      <feComposite operator="in" in2="SourceGraphic"/>
    </filter>
  </defs>
  <g id="PDF_img_arrow02" transform="translate(-743 -1476)" clip-path="url(#clip-path)">
    <g data-type="innerShadowGroup">
      <g transform="matrix(1, 0, 0, 1, 743, 1476)" filter="url(#패스_10710)">
        <path id="패스_10710-3" data-name="패스 10710" d="M63.554,7.449,56.372.436a1.549,1.549,0,0,0-2.155,0,1.462,1.462,0,0,0,0,2.1L58.8,7.017H5.2L9.784,2.54a1.462,1.462,0,0,0,0-2.1,1.549,1.549,0,0,0-2.155,0L.447,7.449a1.462,1.462,0,0,0,0,2.1l7.182,7.013a1.551,1.551,0,0,0,2.155,0,1.462,1.462,0,0,0,0-2.1L5.206,9.992H58.794l-4.577,4.47a1.462,1.462,0,0,0,0,2.1,1.551,1.551,0,0,0,2.155,0l7.182-7.013a1.462,1.462,0,0,0,0-2.1" transform="translate(2 26)" fill="url(#linear-gradient)"/>
      </g>
      <g transform="matrix(1, 0, 0, 1, 743, 1476)" filter="url(#패스_10710-2)">
        <path id="패스_10710-4" data-name="패스 10710" d="M63.554,7.449,56.372.436a1.549,1.549,0,0,0-2.155,0,1.462,1.462,0,0,0,0,2.1L58.8,7.017H5.2L9.784,2.54a1.462,1.462,0,0,0,0-2.1,1.549,1.549,0,0,0-2.155,0L.447,7.449a1.462,1.462,0,0,0,0,2.1l7.182,7.013a1.551,1.551,0,0,0,2.155,0,1.462,1.462,0,0,0,0-2.1L5.206,9.992H58.794l-4.577,4.47a1.462,1.462,0,0,0,0,2.1,1.551,1.551,0,0,0,2.155,0l7.182-7.013a1.462,1.462,0,0,0,0-2.1" transform="translate(2 26)" fill="#fff"/>
      </g>
    </g>
  </g>
</svg>
