<svg xmlns="http://www.w3.org/2000/svg" xmlns:xlink="http://www.w3.org/1999/xlink" width="50" height="63.498" viewBox="0 0 50 63.498">
  <defs>
    <clipPath id="clip-path">
      <rect id="사각형_26318" data-name="사각형 26318" width="50" height="50" fill="none"/>
    </clipPath>
    <clipPath id="clip-path-3">
      <rect id="사각형_26315" data-name="사각형 26315" width="41.702" height="22.898" fill="none"/>
    </clipPath>
    <filter id="하">
      <feOffset dx="1" input="SourceAlpha"/>
      <feGaussianBlur stdDeviation="1" result="blur"/>
      <feFlood flood-opacity="0.161" result="color"/>
      <feComposite operator="out" in="SourceGraphic" in2="blur"/>
      <feComposite operator="in" in="color"/>
      <feComposite operator="in" in2="SourceGraphic"/>
    </filter>
  </defs>
  <g id="img_poor" transform="translate(-1728 -976.75)">
    <g id="img_poor-2" data-name="img_poor" transform="translate(1728 990.248)">
      <g id="그룹_20197" data-name="그룹 20197" clip-path="url(#clip-path)">
        <g id="그룹_20196" data-name="그룹 20196">
          <g id="그룹_20195" data-name="그룹 20195" clip-path="url(#clip-path)">
            <path id="패스_9479" data-name="패스 9479" d="M49.13,34.4A25,25,0,1,1,18.447,3.72l2.144,2.144A22.433,22.433,0,0,1,46.984,32.257Z" transform="translate(0 -2.85)" fill="#f87373"/>
            <path id="패스_9480" data-name="패스 9480" d="M110.463,25a24.927,24.927,0,0,1-.87,6.553l-2.146-2.146A22.433,22.433,0,0,0,81.054,3.013L78.91.87A25.014,25.014,0,0,1,110.463,25" transform="translate(-60.463)" fill="#ffd3d3"/>
            <path id="패스_9481" data-name="패스 9481" d="M55.878,33.456A22.433,22.433,0,1,1,33.459,11.035,22.447,22.447,0,0,1,55.878,33.456" transform="translate(-8.459 -8.455)" fill="#faa0a0"/>
            <path id="패스_9482" data-name="패스 9482" d="M69.4,37.078A22.459,22.459,0,0,1,37.7,68.9,22.39,22.39,0,0,0,75.872,57.752,22.591,22.591,0,0,0,69.4,37.078" transform="translate(-28.887 -28.41)" fill="#fff"/>
            <g id="그룹_20191" data-name="그룹 20191" transform="translate(5.688 2.477)" opacity="0.8" style="mix-blend-mode: overlay;isolation: isolate">
              <g id="그룹_20190" data-name="그룹 20190">
                <g id="그룹_20189" data-name="그룹 20189" clip-path="url(#clip-path-3)">
                  <path id="패스_9483" data-name="패스 9483" d="M27.721,17.2a22.478,22.478,0,0,1,31.764-.058A22.315,22.315,0,0,1,66.027,33.5,22.39,22.39,0,0,0,31.154,15.344a22.615,22.615,0,0,0-3.435,2.82l-3.388,3.563Z" transform="translate(-24.331 -10.598)"/>
                </g>
              </g>
            </g>
          </g>
        </g>
      </g>
    </g>
    <g id="그룹_20461" data-name="그룹 20461" transform="translate(1738.723 968.975)">
      <path id="패스_9485" data-name="패스 9485" d="M106.94,33.261V39.57l2.1-2.843Z" transform="translate(-92.608 -25.485)" fill="#ffd5d5"/>
      <path id="패스_9486" data-name="패스 9486" d="M84.044,33.261V39.57l-2.1-2.843Z" transform="translate(-69.73 -25.485)" fill="#f41f50"/>
      <path id="패스_9487" data-name="패스 9487" d="M35.407,75.156l6,1.95-2.056-2.872Z" transform="translate(-27.129 -62.987)" fill="#fa7f8d"/>
      <path id="패스_9488" data-name="패스 9488" d="M35.407,85.233l6,1.95L38.056,88.3Z" transform="translate(-27.129 -73.054)" fill="#d90838"/>
      <path id="패스_9489" data-name="패스 9489" d="M62.73,113.58l3.709-5.1-3.367,1.068Z" transform="translate(-52.136 -94.306)" fill="#de2b47"/>
      <path id="패스_9490" data-name="패스 9490" d="M62.73,113.58l3.709-5.1.025,3.532Z" transform="translate(-52.136 -94.306)" fill="#f65454"/>
      <path id="패스_9491" data-name="패스 9491" d="M110.373,113.58l-3.709-5.1-.025,3.532Z" transform="translate(-92.322 -94.306)" fill="#f52353"/>
      <path id="패스_9492" data-name="패스 9492" d="M110.649,113.58l-3.709-5.1,3.367,1.068Z" transform="translate(-92.598 -94.306)" fill="#ffd5d5"/>
      <path id="패스_9493" data-name="패스 9493" d="M112.941,85.233l-6,1.95,3.351,1.115Z" transform="translate(-92.573 -73.054)" fill="#f51649"/>
      <path id="패스_9494" data-name="패스 9494" d="M112.941,75.156l-6,1.95L109,74.234Z" transform="translate(-92.573 -62.987)" fill="#fd5669"/>
    </g>
    <g data-type="innerShadowGroup">
      <text id="하-2" data-name="하" transform="translate(1745 1022.248)" fill="#f65454" font-size="18" font-family="SpoqaHanSansNeo-Bold, Spoqa Han Sans Neo" font-weight="700"><tspan x="0" y="0">하</tspan></text>
      <g transform="matrix(1, 0, 0, 1, 1728, 976.75)" filter="url(#하)">
        <text id="하-3" data-name="하" transform="translate(17 45.5)" fill="#fff" font-size="18" font-family="SpoqaHanSansNeo-Bold, Spoqa Han Sans Neo" font-weight="700"><tspan x="0" y="0">하</tspan></text>
      </g>
    </g>
  </g>
</svg>
