<svg xmlns="http://www.w3.org/2000/svg" xmlns:xlink="http://www.w3.org/1999/xlink" width="215" height="112" viewBox="0 0 215 112">
  <defs>
    <filter id="패스_10476" x="15.496" y="14" width="178" height="98" filterUnits="userSpaceOnUse">
      <feOffset dy="3" input="SourceAlpha"/>
      <feGaussianBlur stdDeviation="3" result="blur"/>
      <feFlood flood-opacity="0.102"/>
      <feComposite operator="in" in2="blur"/>
      <feComposite in="SourceGraphic"/>
    </filter>
    <filter id="패스_10476-2" x="15.496" y="14" width="178" height="98" filterUnits="userSpaceOnUse">
      <feOffset dy="2" input="SourceAlpha"/>
      <feGaussianBlur stdDeviation="2" result="blur-2"/>
      <feFlood flood-opacity="0.102" result="color"/>
      <feComposite operator="out" in="SourceGraphic" in2="blur-2"/>
      <feComposite operator="in" in="color"/>
      <feComposite operator="in" in2="SourceGraphic"/>
    </filter>
    <filter id="패스_10477">
      <feOffset dx="3" dy="2" input="SourceAlpha"/>
      <feGaussianBlur stdDeviation="3" result="blur-3"/>
      <feFlood flood-opacity="0.161" result="color-2"/>
      <feComposite operator="out" in="SourceGraphic" in2="blur-3"/>
      <feComposite operator="in" in="color-2"/>
      <feComposite operator="in" in2="SourceGraphic"/>
    </filter>
  </defs>
  <g id="img_score04" transform="translate(-98 -1491)">
    <g id="img_score_graph04" transform="translate(19213 19008.701)">
      <text id="미흡" transform="translate(-19115 -17438.875)" fill="#fff" font-size="10" font-family="SpoqaHanSansNeo-Regular, Spoqa Han Sans Neo" letter-spacing="-0.02em" opacity="0.999"><tspan x="0" y="0">미흡</tspan></text>
      <text id="보통" transform="translate(-19045.646 -17507.701)" fill="#fff" font-size="10" font-family="SpoqaHanSansNeo-Regular, Spoqa Han Sans Neo" letter-spacing="-0.02em" opacity="0.999"><tspan x="0" y="0">보통</tspan></text>
      <text id="다소_미흡" data-name="다소
미흡" transform="translate(-19098.5 -17491.771)" fill="#fff" font-size="10" font-family="SpoqaHanSansNeo-Regular, Spoqa Han Sans Neo" letter-spacing="-0.02em" opacity="0.999"><tspan x="0" y="0">다소</tspan><tspan x="0" y="14">미흡</tspan></text>
      <text id="양호" transform="translate(-18997.4 -17507.701)" fill="#fff" font-size="10" font-family="SpoqaHanSansNeo-Bold, Spoqa Han Sans Neo" font-weight="700" letter-spacing="-0.02em" opacity="0.999"><tspan x="0" y="0">양호</tspan></text>
      <text id="우수" transform="translate(-18944.5 -17484.725)" fill="#fff" font-size="10" font-family="SpoqaHanSansNeo-Regular, Spoqa Han Sans Neo" letter-spacing="-0.02em" opacity="0.999"><tspan x="0" y="0">우수</tspan></text>
      <text id="최우수" transform="translate(-18928 -17438.875)" fill="#fff" font-size="10" font-family="SpoqaHanSansNeo-Regular, Spoqa Han Sans Neo" letter-spacing="-0.02em" opacity="0.999"><tspan x="0" y="0">최우수</tspan></text>
      <line id="선_229" data-name="선 229" y2="4.127" transform="translate(-19012.521 -17506.262)" fill="none" stroke="#fff" stroke-linecap="round" stroke-width="1"/>
      <line id="선_230" data-name="선 230" x2="2.064" y2="3.575" transform="translate(-19055.402 -17494.449)" fill="none" stroke="#fff" stroke-linecap="round" stroke-width="1"/>
      <line id="선_231" data-name="선 231" x2="3.575" y2="2.064" transform="translate(-19086.93 -17462.916)" fill="none" stroke="#fff" stroke-linecap="round" stroke-width="1"/>
      <line id="선_232" data-name="선 232" x2="4" transform="translate(-19101 -17417.701)" fill="none" stroke="#fff" stroke-linecap="round" stroke-width="1"/>
      <line id="선_233" data-name="선 233" x1="4" transform="translate(-18928 -17417.701)" fill="none" stroke="#fff" stroke-linecap="round" stroke-width="1"/>
      <line id="선_234" data-name="선 234" x1="3.575" y2="2.064" transform="translate(-18941.645 -17462.916)" fill="none" stroke="#fff" stroke-linecap="round" stroke-width="1"/>
      <line id="선_235" data-name="선 235" x1="2.064" y2="3.575" transform="translate(-18971.705 -17494.449)" fill="none" stroke="#fff" stroke-linecap="round" stroke-width="1"/>
    </g>
    <g id="img_score04-2" data-name="img_score04" transform="translate(122.496 1511)">
      <g data-type="innerShadowGroup">
        <g transform="matrix(1, 0, 0, 1, -24.5, -20)" filter="url(#패스_10476)">
          <path id="패스_10476-3" data-name="패스 10476" d="M128.525,80a48.525,48.525,0,0,0-97.049,0H0a80,80,0,0,1,160,0Z" transform="translate(24.5 20)" fill="#edebec"/>
        </g>
        <g transform="matrix(1, 0, 0, 1, -24.5, -20)" filter="url(#패스_10476-2)">
          <path id="패스_10476-4" data-name="패스 10476" d="M128.525,80a48.525,48.525,0,0,0-97.049,0H0a80,80,0,0,1,160,0Z" transform="translate(24.5 20)" fill="#fff"/>
        </g>
      </g>
      <g data-type="innerShadowGroup">
        <path id="패스_10477-2" data-name="패스 10477" d="M80,31.475a48.341,48.341,0,0,1,20.663,4.615l13.4-28.476q-2.219-1.045-4.489-1.945l-.306-.121q-3.376-1.328-6.85-2.342l-.369-.1q-2-.574-4.033-1.04c-.265-.062-.527-.125-.792-.184q-1.009-.222-2.021-.418c-.576-.11-1.155-.211-1.735-.31Q92.312.953,91.146.79C90.437.691,89.728.6,89.013.518,88.605.472,88.2.424,87.787.383Q86.156.226,84.507.134c-.3-.017-.593-.029-.889-.042C82.421.038,81.22,0,80.009,0h-.034c-1.2,0-2.392.037-3.579.09-.3.013-.6.025-.894.042q-1.649.09-3.28.249c-.412.041-.822.089-1.233.136-.712.08-1.422.172-2.129.27q-1.157.163-2.307.358c-.59.1-1.18.2-1.767.316q-1.013.2-2.02.418c-.27.059-.538.125-.808.186q-2.03.47-4.034,1.043c-.118.034-.237.066-.355.1Q54.1,4.225,50.73,5.55l-.307.121q-3.26,1.3-6.4,2.883c-.25.126-.5.254-.748.383q-1.529.789-3.023,1.65c-.362.207-.728.41-1.086.624-.506.3-1.006.61-1.5.922-.306.19-.607.388-.91.582q-1.68,1.082-3.3,2.244c-.24.172-.483.338-.721.513q-1.9,1.391-3.716,2.883c-.05.042-.1.087-.148.129-1.108.922-2.184,1.879-3.239,2.858-.34.315-.671.637-1,.957q-1.19,1.141-2.329,2.33c-.32.333-.643.664-.956,1-.982,1.06-1.944,2.139-2.867,3.251-.038.046-.079.089-.117.135-1,1.205-1.953,2.446-2.879,3.71-.176.239-.342.483-.515.724q-1.155,1.613-2.232,3.283c-.147.23-.3.458-.441.689-.832,1.322-1.634,2.665-2.39,4.038-.329.6-.644,1.2-.957,1.809q-.193.372-.382.745Q6.971,47.161,5.67,50.426l-.122.31Q4.224,54.1,3.209,57.575c-.035.121-.068.243-.1.365q-.574,2-1.04,4.03c-.062.266-.126.532-.185.8q-.222,1.007-.418,2.02c-.113.585-.215,1.174-.315,1.763Q.953,67.7.79,68.855c-.1.708-.19,1.419-.27,2.132-.047.409-.1.818-.136,1.229Q.226,73.845.134,75.494c-.017.3-.029.6-.042.9C.038,77.587,0,78.79,0,80H31.477A48.525,48.525,0,0,1,80,31.475Z" fill="#a8d70f"/>
        <g transform="matrix(1, 0, 0, 1, -24.5, -20)" filter="url(#패스_10477)">
          <path id="패스_10477-3" data-name="패스 10477" d="M80,31.475a48.341,48.341,0,0,1,20.663,4.615l13.4-28.476q-2.219-1.045-4.489-1.945l-.306-.121q-3.376-1.328-6.85-2.342l-.369-.1q-2-.574-4.033-1.04c-.265-.062-.527-.125-.792-.184q-1.009-.222-2.021-.418c-.576-.11-1.155-.211-1.735-.31Q92.312.953,91.146.79C90.437.691,89.728.6,89.013.518,88.605.472,88.2.424,87.787.383Q86.156.226,84.507.134c-.3-.017-.593-.029-.889-.042C82.421.038,81.22,0,80.009,0h-.034c-1.2,0-2.392.037-3.579.09-.3.013-.6.025-.894.042q-1.649.09-3.28.249c-.412.041-.822.089-1.233.136-.712.08-1.422.172-2.129.27q-1.157.163-2.307.358c-.59.1-1.18.2-1.767.316q-1.013.2-2.02.418c-.27.059-.538.125-.808.186q-2.03.47-4.034,1.043c-.118.034-.237.066-.355.1Q54.1,4.225,50.73,5.55l-.307.121q-3.26,1.3-6.4,2.883c-.25.126-.5.254-.748.383q-1.529.789-3.023,1.65c-.362.207-.728.41-1.086.624-.506.3-1.006.61-1.5.922-.306.19-.607.388-.91.582q-1.68,1.082-3.3,2.244c-.24.172-.483.338-.721.513q-1.9,1.391-3.716,2.883c-.05.042-.1.087-.148.129-1.108.922-2.184,1.879-3.239,2.858-.34.315-.671.637-1,.957q-1.19,1.141-2.329,2.33c-.32.333-.643.664-.956,1-.982,1.06-1.944,2.139-2.867,3.251-.038.046-.079.089-.117.135-1,1.205-1.953,2.446-2.879,3.71-.176.239-.342.483-.515.724q-1.155,1.613-2.232,3.283c-.147.23-.3.458-.441.689-.832,1.322-1.634,2.665-2.39,4.038-.329.6-.644,1.2-.957,1.809q-.193.372-.382.745Q6.971,47.161,5.67,50.426l-.122.31Q4.224,54.1,3.209,57.575c-.035.121-.068.243-.1.365q-.574,2-1.04,4.03c-.062.266-.126.532-.185.8q-.222,1.007-.418,2.02c-.113.585-.215,1.174-.315,1.763Q.953,67.7.79,68.855c-.1.708-.19,1.419-.27,2.132-.047.409-.1.818-.136,1.229Q.226,73.845.134,75.494c-.017.3-.029.6-.042.9C.038,77.587,0,78.79,0,80H31.477A48.525,48.525,0,0,1,80,31.475Z" transform="translate(24.5 20)" fill="#fff"/>
        </g>
      </g>
    </g>
  </g>
</svg>
