<svg xmlns="http://www.w3.org/2000/svg" xmlns:xlink="http://www.w3.org/1999/xlink" width="180" height="180" viewBox="0 0 180 180">
  <defs>
    <clipPath id="clip-path">
      <rect id="사각형_27409" data-name="사각형 27409" width="180" height="180" transform="translate(-1364 -18709)" fill="#fff"/>
    </clipPath>
    <clipPath id="clip-path-2">
      <rect id="사각형_27351" data-name="사각형 27351" width="164.796" height="154.497" fill="none"/>
    </clipPath>
  </defs>
  <g id="img_mbti03_infj" transform="translate(1364 18709)" clip-path="url(#clip-path)">
    <g id="그룹_21236" data-name="그룹 21236" transform="translate(-1356 -18696)">
      <g id="그룹_21235" data-name="그룹 21235" clip-path="url(#clip-path-2)">
        <path id="패스_10772" data-name="패스 10772" d="M77.919,173.115c.017-.263.04-.525.04-.793a11.9,11.9,0,0,0-21.764-6.646,8.316,8.316,0,0,0-13.33,6.646c0,.066.008.129.009.194a8.326,8.326,0,0,0,1.775,16.461H74.39a8.323,8.323,0,0,0,3.529-15.863" transform="translate(-9.99 -44.125)" fill="#5fa04a"/>
        <path id="패스_10773" data-name="패스 10773" d="M204.919,173.115c.017-.263.04-.525.04-.793a11.9,11.9,0,0,0-21.764-6.646,8.316,8.316,0,0,0-13.33,6.646c0,.066.008.129.01.194a8.326,8.326,0,0,0,1.775,16.461H201.39a8.323,8.323,0,0,0,3.529-15.863" transform="translate(-44.922 -44.125)" fill="#5fa04a"/>
        <rect id="사각형_27348" data-name="사각형 27348" width="19.312" height="67.592" transform="translate(34.118 82.077)" fill="#8e3e30"/>
        <rect id="사각형_27349" data-name="사각형 27349" width="19.312" height="67.592" transform="translate(111.366 82.077)" fill="#8e3e30"/>
        <path id="패스_10774" data-name="패스 10774" d="M77.314,88.45a19.035,19.035,0,0,0,.257-2.539,19.239,19.239,0,0,0-33.8-12.652A19.182,19.182,0,0,0,29.29,66.6,19.589,19.589,0,0,0,9.656,85.911a18.916,18.916,0,0,0,.257,2.539A19.228,19.228,0,0,0,0,105.223a19.589,19.589,0,0,0,19.634,19.312,19.112,19.112,0,0,0,9.656-2.679,18.952,18.952,0,0,0,24.14-3.982A19.244,19.244,0,1,0,77.314,88.45" transform="translate(0 -18.318)" fill="#61ad53"/>
        <path id="패스_10775" data-name="패스 10775" d="M184.315,88.45a19.034,19.034,0,0,0,.257-2.539A19.589,19.589,0,0,0,164.937,66.6a19.184,19.184,0,0,0-14.484,6.66,19.239,19.239,0,0,0-33.8,12.652,18.916,18.916,0,0,0,.257,2.539,19.232,19.232,0,1,0,19.055,33.406,18.952,18.952,0,0,0,24.14-3.982,19.182,19.182,0,0,0,14.484,6.661,19.589,19.589,0,0,0,19.634-19.312,19.227,19.227,0,0,0-9.912-16.772" transform="translate(-29.431 -18.318)" fill="#b4cd6e"/>
        <path id="패스_10776" data-name="패스 10776" d="M110,86.578h-9.656v86.9h19.313v-86.9Z" transform="translate(-27.599 -23.813)" fill="#a34f3e"/>
        <rect id="사각형_27350" data-name="사각형 27350" width="9.656" height="86.904" transform="translate(82.398 62.765)" fill="#a34f3e"/>
        <path id="패스_10777" data-name="패스 10777" d="M159.968,199.794H4.827a4.828,4.828,0,0,0,0,9.656H159.968a4.828,4.828,0,0,0,0-9.656" transform="translate(0 -54.954)" fill="#c5d762"/>
        <path id="패스_10778" data-name="패스 10778" d="M196.058,204.622a4.826,4.826,0,0,0-4.828-4.828H113.66v9.656h77.57a4.826,4.826,0,0,0,4.828-4.828" transform="translate(-31.262 -54.954)" fill="#a4c662"/>
        <path id="패스_10779" data-name="패스 10779" d="M136.789,41.175a18.4,18.4,0,0,0,.175-2.551,19.157,19.157,0,0,0-19.8-19.307,24.141,24.141,0,0,0-47.309,0,19.06,19.06,0,0,0-19.8,19.307,18.41,18.41,0,0,0,.175,2.551,19.272,19.272,0,0,0,9.482,36.073,18.884,18.884,0,0,0,9.067-2.31A24.343,24.343,0,0,0,93.511,72.33a24.34,24.34,0,0,0,24.729,2.608,18.884,18.884,0,0,0,9.067,2.31,19.272,19.272,0,0,0,9.482-36.073" transform="translate(-11.113)" fill="#226b27"/>
        <path id="패스_10780" data-name="패스 10780" d="M138.39,74.938a18.882,18.882,0,0,0,9.067,2.31,19.272,19.272,0,0,0,9.482-36.073,18.511,18.511,0,0,0,.174-2.55,19.157,19.157,0,0,0-19.8-19.308A24.181,24.181,0,0,0,113.661,0V72.331a24.339,24.339,0,0,0,24.729,2.607" transform="translate(-31.263)" fill="#226b27"/>
        <path id="패스_10781" data-name="패스 10781" d="M41.919,173.115c.017-.263.04-.525.04-.793a11.9,11.9,0,0,0-21.764-6.646,8.316,8.316,0,0,0-13.33,6.646c0,.066.008.129.009.194a8.326,8.326,0,0,0,1.775,16.461H38.39a8.323,8.323,0,0,0,3.529-15.863" transform="translate(-0.088 -44.125)" fill="#80b571"/>
      </g>
    </g>
  </g>
</svg>
