<svg xmlns="http://www.w3.org/2000/svg" xmlns:xlink="http://www.w3.org/1999/xlink" width="180" height="29" viewBox="0 0 180 29">
  <defs>
    <filter id="타원_524" x="156" y="0" width="24" height="24" filterUnits="userSpaceOnUse">
      <feOffset dx="3" dy="4" input="SourceAlpha"/>
      <feGaussianBlur stdDeviation="3" result="blur"/>
      <feFlood flood-color="#bbb" flood-opacity="0.161"/>
      <feComposite operator="in" in2="blur"/>
      <feComposite in="SourceGraphic"/>
    </filter>
    <filter id="타원_1240" x="34" y="0" width="24" height="24" filterUnits="userSpaceOnUse">
      <feOffset dx="3" dy="4" input="SourceAlpha"/>
      <feGaussianBlur stdDeviation="3" result="blur-2"/>
      <feFlood flood-color="#bbb" flood-opacity="0.161"/>
      <feComposite operator="in" in2="blur-2"/>
      <feComposite in="SourceGraphic"/>
    </filter>
  </defs>
  <g id="img_grade_a_" data-name="img_grade_a+" transform="translate(-110 -1104)">
    <line id="선_236" data-name="선 236" x2="161" transform="translate(273.5 1112) rotate(180)" fill="none" stroke="#fff" stroke-linecap="round" stroke-width="1"/>
    <g id="그룹_21107" data-name="그룹 21107" transform="translate(1030 1667) rotate(180)">
      <path id="패스_10085" data-name="패스 10085" d="M5,0A5,5,0,1,1,0,5,5,5,0,0,1,5,0Z" transform="translate(750 550)" fill="#fff"/>
      <g transform="matrix(-1, 0, 0, -1, 920, 563)" filter="url(#타원_524)">
        <circle id="타원_524-2" data-name="타원 524" cx="3" cy="3" r="3" transform="translate(168 11) rotate(180)" fill="#0068ed"/>
      </g>
    </g>
    <circle id="타원_1236" data-name="타원 1236" cx="3" cy="3" r="3" transform="translate(258 1115) rotate(180)" fill="#fff"/>
    <circle id="타원_1237" data-name="타원 1237" cx="3" cy="3" r="3" transform="translate(197 1115) rotate(180)" fill="#fff"/>
    <circle id="타원_1238" data-name="타원 1238" cx="3" cy="3" r="3" transform="translate(217 1115) rotate(180)" fill="#fff"/>
    <circle id="타원_1239" data-name="타원 1239" cx="3" cy="3" r="3" transform="translate(237 1115) rotate(180)" fill="#fff"/>
    <g transform="matrix(1, 0, 0, 1, 110, 1104)" filter="url(#타원_1240)">
      <circle id="타원_1240-2" data-name="타원 1240" cx="3" cy="3" r="3" transform="translate(46 11) rotate(180)" fill="#3b61d5"/>
    </g>
    <circle id="타원_1241" data-name="타원 1241" cx="3" cy="3" r="3" transform="translate(116 1115) rotate(180)" fill="#fff"/>
    <circle id="타원_1242" data-name="타원 1242" cx="3" cy="3" r="3" transform="translate(156 1115) rotate(180)" fill="#fff"/>
    <circle id="타원_1243" data-name="타원 1243" cx="3" cy="3" r="3" transform="translate(136 1115) rotate(180)" fill="#fff"/>
    <circle id="타원_1244" data-name="타원 1244" cx="3" cy="3" r="3" transform="translate(177 1115) rotate(180)" fill="#fff"/>
    <text id="F" transform="translate(112 1130)" fill="#fff" font-size="10" font-family="SpoqaHanSansNeo-Regular, Spoqa Han Sans Neo" letter-spacing="-0.02em"><tspan x="0" y="0">F</tspan></text>
    <text id="D0" transform="translate(129 1130)" fill="#fff" font-size="10" font-family="SpoqaHanSansNeo-Regular, Spoqa Han Sans Neo" letter-spacing="-0.02em"><tspan x="0" y="0">D0</tspan></text>
    <text id="D_" data-name="D+" transform="translate(150 1130)" fill="#fff" font-size="10" font-family="SpoqaHanSansNeo-Regular, Spoqa Han Sans Neo" letter-spacing="-0.02em"><tspan x="0" y="0">D+</tspan></text>
    <text id="C_" data-name="C+" transform="translate(190 1130)" fill="#fff" font-size="10" font-family="SpoqaHanSansNeo-Regular, Spoqa Han Sans Neo" letter-spacing="-0.02em"><tspan x="0" y="0">C+</tspan></text>
    <text id="B_" data-name="B+" transform="translate(231 1130)" fill="#fff" font-size="10" font-family="SpoqaHanSansNeo-Regular, Spoqa Han Sans Neo" letter-spacing="-0.02em"><tspan x="0" y="0">B+</tspan></text>
    <text id="A_" data-name="A+" transform="translate(272 1130)" fill="#0068ed" font-size="10" font-family="SpoqaHanSansNeo-Medium, Spoqa Han Sans Neo" font-weight="500" letter-spacing="-0.02em"><tspan x="0" y="0">A+</tspan></text>
    <text id="B0" transform="translate(210 1130)" fill="#fff" font-size="10" font-family="SpoqaHanSansNeo-Regular, Spoqa Han Sans Neo" letter-spacing="-0.02em"><tspan x="0" y="0">B0</tspan></text>
    <text id="A0" transform="translate(251 1130)" fill="#fff" font-size="10" font-family="SpoqaHanSansNeo-Regular, Spoqa Han Sans Neo" letter-spacing="-0.02em"><tspan x="0" y="0">A0</tspan></text>
    <text id="C0" transform="translate(170 1130)" fill="#fff" font-size="10" font-family="SpoqaHanSansNeo-Regular, Spoqa Han Sans Neo" letter-spacing="-0.02em"><tspan x="0" y="0">C0</tspan></text>
  </g>
</svg>
