<svg xmlns="http://www.w3.org/2000/svg" xmlns:xlink="http://www.w3.org/1999/xlink" width="180" height="180" viewBox="0 0 180 180">
  <defs>
    <clipPath id="clip-path">
      <rect id="사각형_27410" data-name="사각형 27410" width="180" height="180" transform="translate(-1144 -18707)" fill="#fff"/>
    </clipPath>
    <clipPath id="clip-path-2">
      <rect id="사각형_27346" data-name="사각형 27346" width="177.044" height="157.885" fill="none"/>
    </clipPath>
  </defs>
  <g id="img_mbti04_intj" transform="translate(1144 18707)" clip-path="url(#clip-path)">
    <g id="그룹_21232" data-name="그룹 21232" transform="translate(-1143 -18696)">
      <rect id="사각형_27324" data-name="사각형 27324" width="123.839" height="33.941" transform="translate(38.528 79.807)" fill="#6097ef"/>
      <path id="패스_10745" data-name="패스 10745" d="M0,103.262l38.528,30.386V72.875Z" transform="translate(0 -6.025)" fill="#6097ef"/>
      <g id="그룹_21230" data-name="그룹 21230">
        <g id="그룹_21229" data-name="그룹 21229" clip-path="url(#clip-path-2)">
          <path id="패스_10746" data-name="패스 10746" d="M175.662,2h-35.04a14.373,14.373,0,0,0-8.45,2.747l-21.46,15.6a13.035,13.035,0,0,0-5.268,12.159l4.246,33.974a4.733,4.733,0,0,0,4.7,4.145,9.187,9.187,0,0,0,9.186-9l.616-30.4,51.473-1.242Z" transform="translate(-8.709 -0.165)" fill="#fcc69c"/>
          <path id="패스_10747" data-name="패스 10747" d="M52.759,76.777,37.78,98.882a7.518,7.518,0,0,0-1.113,5.961c.927,3.862,3.845,8.5,13.016,1.682l5.246-2.805a2.545,2.545,0,0,1,1.829-.205c1.348.338,4.215.544,8.209-1.932,0,0-14.936,26.778-.23,34.7a14.141,14.141,0,0,0,9.116,1.368c6.1-1.055,18.768-4.076,21.061-11.2l6.177-1.753L94.2,94.646a38.443,38.443,0,0,0-9-17.448c-4.995-5.445-12.572-10.436-23.317-9.691a2.23,2.23,0,0,1-2.074-1.145,3.338,3.338,0,0,0-1.3-1.209.764.764,0,0,0-1.135.69l.082,2.588s-6.177,1.754-8.324,4.27l3.534,3.317a.587.587,0,0,1,.084.759" transform="translate(-3.015 -5.378)"/>
          <rect id="사각형_27325" data-name="사각형 27325" width="21.099" height="4.587" transform="matrix(0.962, -0.273, 0.273, 0.962, 67.089, 131.935)"/>
          <path id="패스_10748" data-name="패스 10748" d="M103.245,142.371,66.181,152.893l3.5-5.762,27.56-7.823Z" transform="translate(-5.471 -11.517)"/>
          <rect id="사각형_27326" data-name="사각형 27326" width="43.114" height="7.339" transform="translate(61.009 150.826) rotate(-15.848)"/>
          <rect id="사각형_27327" data-name="사각형 27327" width="38.528" height="9.173" transform="matrix(0.962, -0.273, 0.273, 0.962, 60.71, 141.375)"/>
          <rect id="사각형_27328" data-name="사각형 27328" width="11.008" height="3.669" transform="translate(63.496 152.027) rotate(-15.848)" fill="#fff"/>
          <rect id="사각형_27329" data-name="사각형 27329" width="6.421" height="1.835" transform="translate(65.033 137.288) rotate(-15.851)" fill="#fff"/>
          <rect id="사각형_27330" data-name="사각형 27330" width="1.835" height="2.752" transform="translate(69.958 131.121) rotate(-15.843)" fill="#fff"/>
          <rect id="사각형_27331" data-name="사각형 27331" width="8.256" height="7.339" transform="translate(63.387 141.569) rotate(-15.849)" fill="#fff"/>
          <path id="패스_10749" data-name="패스 10749" d="M66.6,83.308s6.249,8.716-.112,18.149c0,0,9.8-7.549.112-18.149" transform="translate(-5.497 -6.887)" fill="#fff"/>
          <path id="패스_10750" data-name="패스 10750" d="M70.475,102.821s-15.417,26.309-.689,34.524c0,0-10.066-8.586.689-34.524" transform="translate(-5.243 -8.501)" fill="#fff"/>
          <path id="패스_10751" data-name="패스 10751" d="M60.991,68.418l.282,4.859a.445.445,0,0,0,.7.342l.705-.481a.814.814,0,0,0,.291-.992l-1.615-3.812a.186.186,0,0,0-.358.083" transform="translate(-5.042 -5.64)" fill="#fff"/>
          <path id="패스_10752" data-name="패스 10752" d="M59.067,70.8a10.185,10.185,0,0,0-4.041,1.466,2.006,2.006,0,0,0,.1,3.434l-.09-.316a2,2,0,0,1,1.021-2.332A15.187,15.187,0,0,1,59.2,71.894Z" transform="translate(-4.473 -5.854)" fill="#fff"/>
          <path id="패스_10753" data-name="패스 10753" d="M64.568,71.294A30.443,30.443,0,0,1,76.373,73.71,43.447,43.447,0,0,0,64.1,70.649Z" transform="translate(-5.299 -5.841)" fill="#fff"/>
          <path id="패스_10754" data-name="패스 10754" d="M77.239,76.133s13.183,6.747,15.592,26.426a75.309,75.309,0,0,0,1.552,7.911L97.7,124.68l1.6-.455-3.713-13.532c-.738-2.69-1.366-5.4-1.917-8.139C92.326,95.9,89.539,83.13,77.239,76.133" transform="translate(-6.386 -6.294)" fill="#fff"/>
          <path id="패스_10755" data-name="패스 10755" d="M54.854,84.966A3.456,3.456,0,0,1,52.823,88.5a7.64,7.64,0,0,0-3.744,3.6c-1.359,2.752-2.694,5.38-3.654,7.248a11.888,11.888,0,0,1-2.958,3.537c-2.452,2.1-1.31,6.677-1.31,6.677-4.35-4.487-.541-9.382-.541-9.382L54.638,79.031l-.1,2.155a9.429,9.429,0,0,0,.05,1.483Z" transform="translate(-3.23 -6.534)" fill="#fff"/>
          <path id="패스_10756" data-name="패스 10756" d="M58.707,86.349c-.277-.975-1.686-1.428-3.148-1.014s-2.424,1.542-2.147,2.517,1.686,1.428,3.148,1.013,2.424-1.541,2.147-2.516" transform="translate(-4.412 -7.042)"/>
          <path id="패스_10757" data-name="패스 10757" d="M39.818,108.19c.367.051.759-.576.875-1.4s-.087-1.537-.454-1.589-.64.442-.757,1.268-.031,1.671.336,1.723" transform="translate(-3.26 -8.697)"/>
          <path id="패스_10758" data-name="패스 10758" d="M148.869,31.514l5.592-6.64,18.2,5.944-25.2-18.428L115.934,34.507,115.2,71.49l9.226-10.955L125,32.091Z" transform="translate(-9.524 -1.024)" fill="#f9b485"/>
          <path id="패스_10759" data-name="패스 10759" d="M142.778,134.586H104.25L109.19,130h28.648Z" transform="translate(-8.619 -10.748)" fill="#f4efe9"/>
          <rect id="사각형_27332" data-name="사각형 27332" width="43.114" height="7.339" transform="translate(93.338 133.012)" fill="#f4efe9"/>
          <rect id="사각형_27333" data-name="사각형 27333" width="38.528" height="9.173" transform="translate(95.631 123.839)" fill="#f4efe9"/>
          <rect id="사각형_27334" data-name="사각형 27334" width="11.008" height="3.669" transform="translate(95.402 134.847)" fill="#fff"/>
          <rect id="사각형_27335" data-name="사각형 27335" width="6.421" height="1.835" transform="translate(100.906 121.087)" fill="#fff"/>
          <rect id="사각형_27336" data-name="사각형 27336" width="8.256" height="7.339" transform="translate(98.154 124.756)" fill="#fff"/>
          <rect id="사각형_27337" data-name="사각형 27337" width="16.512" height="5.504" transform="translate(106.41 27.978)" fill="#f4efe9"/>
          <rect id="사각형_27338" data-name="사각형 27338" width="5.504" height="16.512" transform="translate(112.067 22.474)" fill="#f4efe9"/>
          <rect id="사각형_27339" data-name="사각형 27339" width="16.512" height="6.421" transform="translate(106.563 38.528)" fill="#f4efe9"/>
          <rect id="사각형_27340" data-name="사각형 27340" width="26.602" height="6.421" transform="translate(101.518 44.949)" fill="#f4efe9"/>
          <rect id="사각형_27341" data-name="사각형 27341" width="22.016" height="6.421" transform="translate(103.658 73.386)" fill="#f4efe9"/>
          <path id="패스_10760" data-name="패스 10760" d="M123.959,56v67.882H109.635s11.343-55.957.947-67.882Z" transform="translate(-9.064 -4.63)" fill="#f4efe9"/>
          <path id="패스_10761" data-name="패스 10761" d="M125,56v67.882h14.324S127.981,67.925,138.377,56Z" transform="translate(-10.334 -4.63)" fill="#f4efe9"/>
          <rect id="사각형_27342" data-name="사각형 27342" width="2.752" height="4.587" transform="translate(108.244 39.445)" fill="#fff"/>
          <rect id="사각형_27343" data-name="사각형 27343" width="4.587" height="2.752" transform="translate(103.658 46.784)" fill="#fff"/>
          <rect id="사각형_27344" data-name="사각형 27344" width="4.587" height="2.752" transform="translate(106.41 75.221)" fill="#fff"/>
          <path id="패스_10762" data-name="패스 10762" d="M115,59.264s2.752,3.426,2.752,19.021h2.166S120.5,60.007,115,59.264" transform="translate(-9.508 -4.9)" fill="#fff"/>
          <path id="패스_10763" data-name="패스 10763" d="M116.587,87h2.948L117.5,126.445H112Z" transform="translate(-9.26 -7.193)" fill="#fff"/>
          <path id="패스_10764" data-name="패스 10764" d="M154.872,12.391,138.464,24.324a18.12,18.12,0,0,0-6.435,8.639l-8.956,25.454a3.074,3.074,0,0,0,2.937,4.09c4.421-.029,11.574-1.824,17.6-11.432a17.632,17.632,0,0,1,13.547-8.451c6.359-.441,14.015-4.011,16.141-11.805Z" transform="translate(-10.16 -1.024)" fill="#fcc69c"/>
          <rect id="사각형_27345" data-name="사각형 27345" width="10.091" height="39.445" transform="translate(166.953)" fill="#809ace"/>
          <path id="패스_10765" data-name="패스 10765" d="M87.364,30.448a2.75,2.75,0,0,1-.438-.035l-7.246-1.159a2.752,2.752,0,0,1,.869-5.435l7.247,1.159a2.752,2.752,0,0,1-.431,5.47" transform="translate(-6.396 -1.966)" fill="#ffbe57"/>
          <path id="패스_10766" data-name="패스 10766" d="M88.323,50.26a2.752,2.752,0,0,1-2.135-4.488l4.627-5.7a2.753,2.753,0,0,1,4.273,3.471l-4.627,5.7a2.749,2.749,0,0,1-2.138,1.016" transform="translate(-7.075 -3.229)" fill="#ffbe57"/>
          <path id="패스_10767" data-name="패스 10767" d="M97.234,18.292a2.751,2.751,0,0,1-2.571-1.77L92.042,9.666A2.752,2.752,0,0,1,97.183,7.7l2.62,6.854a2.75,2.75,0,0,1-1.588,3.553,2.722,2.722,0,0,1-.982.183" transform="translate(-7.594 -0.49)" fill="#ffbe57"/>
        </g>
      </g>
    </g>
  </g>
</svg>
