<svg xmlns="http://www.w3.org/2000/svg" xmlns:xlink="http://www.w3.org/1999/xlink" width="180" height="180" viewBox="0 0 180 180">
  <defs>
    <clipPath id="clip-path">
      <rect id="사각형_27417" data-name="사각형 27417" width="180" height="180" transform="translate(367 -18708)" fill="#fff"/>
    </clipPath>
    <clipPath id="clip-path-2">
      <rect id="사각형_27388" data-name="사각형 27388" width="150.576" height="167.314" fill="none"/>
    </clipPath>
  </defs>
  <g id="img_mbti11_enfp" transform="translate(-367 18708)" clip-path="url(#clip-path)">
    <g id="그룹_21257" data-name="그룹 21257" transform="translate(382 -18702)">
      <g id="그룹_21256" data-name="그룹 21256" transform="translate(0 0)" clip-path="url(#clip-path-2)">
        <path id="패스_10988" data-name="패스 10988" d="M52.877,58.09c0-5.046-7.57-6.308-7.57-16.4a15.139,15.139,0,0,1,30.279,0c0,10.093-7.57,11.355-7.57,16.4Z" transform="translate(16.166 9.473)" fill="#f0c419"/>
        <path id="패스_10989" data-name="패스 10989" d="M49.905,37.977a1.262,1.262,0,0,1-1.168-1.735A11.4,11.4,0,0,1,55,29.982a1.262,1.262,0,1,1,.946,2.339,8.871,8.871,0,0,0-4.867,4.867,1.264,1.264,0,0,1-1.171.788" transform="translate(17.357 10.664)" fill="#f3d55b"/>
        <path id="패스_10990" data-name="패스 10990" d="M56.8,53.712a1.261,1.261,0,0,1-1.262-1.262V43.618a1.262,1.262,0,0,1,2.524,0V52.45A1.261,1.261,0,0,1,56.8,53.712" transform="translate(19.816 15.114)" fill="#e57e25"/>
        <path id="패스_10991" data-name="패스 10991" d="M42.582,39.3H40.058a1.262,1.262,0,0,1,0-2.524h2.524a1.262,1.262,0,0,1,0,2.524" transform="translate(13.844 13.123)" fill="#f29c1f"/>
        <path id="패스_10992" data-name="패스 10992" d="M74.2,39.3H71.674a1.262,1.262,0,0,1,0-2.524H74.2a1.262,1.262,0,0,1,0,2.524" transform="translate(25.124 13.123)" fill="#f29c1f"/>
        <path id="패스_10993" data-name="패스 10993" d="M69.681,32.2a1.262,1.262,0,0,1-.631-2.354l2.186-1.262a1.262,1.262,0,1,1,1.26,2.186l-2.184,1.26A1.257,1.257,0,0,1,69.681,32.2Z" transform="translate(24.413 10.136)" fill="#f29c1f"/>
        <path id="패스_10994" data-name="패스 10994" d="M44.488,32.2a1.257,1.257,0,0,1-.631-.17l-2.184-1.26a1.262,1.262,0,1,1,1.26-2.186l2.186,1.262a1.262,1.262,0,0,1-.631,2.354" transform="translate(14.641 10.136)" fill="#f29c1f"/>
        <path id="패스_10995" data-name="패스 10995" d="M61.576,45.213h-7.57a1.261,1.261,0,0,1-1.262-1.262V42.689a1.262,1.262,0,0,1,2.524,0h5.046a1.262,1.262,0,0,1,2.524,0v1.262a1.261,1.261,0,0,1-1.262,1.262" transform="translate(18.82 14.782)" fill="#f29c1f"/>
        <path id="패스_10996" data-name="패스 10996" d="M50.886,49.8H66.025V52.32A2.523,2.523,0,0,1,63.5,54.842H53.41a2.523,2.523,0,0,1-2.524-2.522Z" transform="translate(18.157 17.768)" fill="#95a5a5"/>
        <path id="패스_10997" data-name="패스 10997" d="M52.745,53.516H62.838v1.262a3.785,3.785,0,0,1-3.786,3.784H56.531a3.785,3.785,0,0,1-3.786-3.784Z" transform="translate(18.82 19.095)" fill="#7f8c8d"/>
        <path id="패스_10998" data-name="패스 10998" d="M86.215,52.815v18.82A22.611,22.611,0,0,1,63.6,94.247H61.715A22.611,22.611,0,0,1,39.1,71.635V52.815Z" transform="translate(13.953 18.845)" fill="#ffceb6"/>
        <path id="패스_10999" data-name="패스 10999" d="M19.105,38.333A11.553,11.553,0,0,1,9.84,29.275c0-.208-.417-.208-.417,0A11.556,11.556,0,0,1,.156,38.333c-.208,0-.208.312,0,.417a11.556,11.556,0,0,1,9.267,9.058c0,.208.417.208.417,0a11.553,11.553,0,0,1,9.266-9.058c.208-.1.208-.417,0-.417" transform="translate(0 10.39)" fill="#f5c84c"/>
        <path id="패스_11000" data-name="패스 11000" d="M95.866,6.465A8.106,8.106,0,0,1,89.365.11c0-.145-.293-.145-.293,0a8.1,8.1,0,0,1-6.5,6.355c-.145,0-.145.218,0,.293a8.106,8.106,0,0,1,6.5,6.355c0,.145.293.145.293,0a8.1,8.1,0,0,1,6.5-6.355c.147-.075.147-.293,0-.293" transform="translate(29.423 0)" fill="#70d6f9"/>
        <path id="패스_11001" data-name="패스 11001" d="M106.809,83.719h-2.395V81.324a3.354,3.354,0,0,0-3.331-3.331,3.29,3.29,0,0,0-3.334,3.331v2.395H95.355a3.353,3.353,0,0,0-3.33,3.332,3.288,3.288,0,0,0,3.33,3.331h2.395v2.395a3.356,3.356,0,0,0,3.334,3.332,3.289,3.289,0,0,0,3.331-3.332V90.382h2.395a3.354,3.354,0,0,0,3.332-3.331,3.291,3.291,0,0,0-3.332-3.332" transform="translate(32.836 27.829)" fill="#87d147"/>
        <path id="패스_11002" data-name="패스 11002" d="M17.314,53.559a3.54,3.54,0,1,1-3.54,3.54,3.54,3.54,0,0,1,3.54-3.54" transform="translate(4.915 19.111)" fill="#fc657e"/>
        <path id="패스_11003" data-name="패스 11003" d="M109.3,64.18a3.54,3.54,0,1,1-3.54,3.54,3.54,3.54,0,0,1,3.54-3.54" transform="translate(37.737 22.9)" fill="#f5c84c"/>
        <path id="패스_11004" data-name="패스 11004" d="M80.514,83.3h-19.7A44.129,44.129,0,0,0,16.68,127.424v10.165H124.641V127.426A44.128,44.128,0,0,0,80.514,83.3Z" transform="translate(5.951 29.721)" fill="#fff2a0"/>
      </g>
    </g>
  </g>
</svg>
