<svg xmlns="http://www.w3.org/2000/svg" width="340" height="75.319" viewBox="0 0 336 75.319">
  <g id="img_report_result" transform="translate(15410 24368.918)">
    <text id="자정_24:00_" data-name="자정
(24:00)" transform="translate(-15389 -24356.918)" fill="#333" font-size="12" font-family="SpoqaHanSansNeo-Medium, Spoqa Han Sans Neo" font-weight="500"><tspan x="-11" y="0">자정</tspan><tspan x="-20" y="14">(24:00)</tspan></text>
    <text id="정오_12:00_" data-name="정오
(12:00)" transform="translate(-15287 -24356.918)" fill="#333" font-size="12" font-family="SpoqaHanSansNeo-Medium, Spoqa Han Sans Neo" font-weight="500"><tspan x="-11" y="0">정오</tspan><tspan x="-20" y="14">(12:00)</tspan></text>
    <text id="다음날_자정" data-name="다음날
자정" transform="translate(-15187 -24356.918)" fill="#333" font-size="12" font-family="SpoqaHanSansNeo-Medium, Spoqa Han Sans Neo" font-weight="500"><tspan x="-16" y="0">다음날</tspan><tspan x="-11" y="14">자정</tspan></text>
    <path id="패스_11522" data-name="패스 11522" d="M-15409-24248.812v298" transform="translate(-39339.813 -8903.359) rotate(90)" fill="#f7f6ff" stroke="#d8d3ff" stroke-width="1"/>
    <text id="다음날_정오" data-name="다음날
정오" transform="translate(-15091 -24356.918)" fill="#333" font-size="12" font-family="SpoqaHanSansNeo-Medium, Spoqa Han Sans Neo" font-weight="500"><tspan x="-16" y="0">다음날</tspan><tspan x="-11" y="14">정오</tspan></text>
    <path id="패스_11524" data-name="패스 11524" d="M-15409-24248.812v10.109" transform="translate(-30500 -48556.117) rotate(180)" fill="#f7f6ff" stroke="#e9e7fd" stroke-width="1"/>
    <g id="타원_1302" data-name="타원 1302" transform="translate(-15097 -24317.918)" fill="#f7f6ff" stroke="#ffaa30" stroke-width="3">
      <circle cx="6" cy="6" r="6" stroke="none"/>
      <circle cx="6" cy="6" r="4.5" fill="none"/>
    </g>
    <path id="패스_11528" data-name="패스 11528" d="M-15409-24248.812v10.109" transform="translate(-30696 -48556.117) rotate(180)" fill="#f7f6ff" stroke="#d8d3ff" stroke-width="1"/>
    <path id="패스_11529" data-name="패스 11529" d="M-15409-24248.812v10.109" transform="translate(-30798 -48556.117) rotate(180)" fill="#f7f6ff" stroke="#e9e7fd" stroke-width="1"/>
    <path id="패스_11520" data-name="패스 11520" d="M-15409-24248.814v102" transform="translate(-39535.813 -8903.359) rotate(90)" fill="none" stroke="#5f4eee" stroke-width="3"/>
    <path id="패스_11521" data-name="패스 11521" d="M-15409-24248.812v100" transform="translate(-39435.813 -8903.359) rotate(90)" fill="none" stroke="#ffaa30" stroke-width="3"/>
    <g id="타원_1301" data-name="타원 1301" transform="translate(-15193 -24317.918)" fill="#f7f6ff" stroke="#5f4eee" stroke-width="3">
      <circle cx="6" cy="6" r="6" stroke="none"/>
      <circle cx="6" cy="6" r="4.5" fill="none"/>
    </g>
    <g id="그룹_21315" data-name="그룹 21315" transform="translate(0 -8.836)">
      <path id="패스_11527" data-name="패스 11527" d="M-15346.357-24231.3v-9.918h160.65v4.852" transform="translate(-1.143 -79.782)" fill="none" stroke="#5f4eee" stroke-linecap="round" stroke-linejoin="round" stroke-width="0.8" stroke-dasharray="2 4"/>
      <path id="다각형_19" data-name="다각형 19" d="M3,0,6,4H0Z" transform="translate(-15184 -24312) rotate(180)" fill="#5f4eee"/>
    </g>
    <g id="그룹_21316" data-name="그룹 21316" transform="translate(-15241.5 -24303.918)">
      <path id="패스_11527-2" data-name="패스 11527" d="M0,0V9.918H150.92V5.066" transform="translate(0 0.001)" fill="none" stroke="#ffaa30" stroke-linecap="round" stroke-linejoin="round" stroke-width="0.8" stroke-dasharray="2 4"/>
      <path id="다각형_19-2" data-name="다각형 19" d="M3,0,6,4H0Z" transform="translate(147.77 0.918)" fill="#ffaa30"/>
    </g>
  </g>
</svg>
