<svg xmlns="http://www.w3.org/2000/svg" xmlns:xlink="http://www.w3.org/1999/xlink" width="52" height="52" viewBox="0 0 52 52">
  <defs>
    <linearGradient id="linear-gradient" x1="0.089" y1="0.014" x2="0.942" y2="0.968" gradientUnits="objectBoundingBox">
      <stop offset="0" stop-color="#158fe4"/>
      <stop offset="1" stop-color="#0068ed"/>
    </linearGradient>
    <filter id="사각형_27562" x="0" y="0" width="52" height="52" filterUnits="userSpaceOnUse">
      <feOffset dx="1" dy="1" input="SourceAlpha"/>
      <feGaussianBlur stdDeviation="1" result="blur"/>
      <feFlood flood-color="#144788" flood-opacity="0.2"/>
      <feComposite operator="in" in2="blur"/>
    </filter>
    <filter id="사각형_27562-2" x="0" y="0" width="52" height="52" filterUnits="userSpaceOnUse">
      <feOffset dx="1" dy="3" input="SourceAlpha"/>
      <feGaussianBlur stdDeviation="1" result="blur-2"/>
      <feFlood flood-color="#fff" flood-opacity="0.161" result="color"/>
      <feComposite operator="out" in="SourceGraphic" in2="blur-2"/>
      <feComposite operator="in" in="color"/>
      <feComposite operator="in" in2="SourceGraphic"/>
    </filter>
  </defs>
  <g id="img_1" transform="translate(-110 -1554)">
    <g data-type="innerShadowGroup">
      <g transform="matrix(1, 0, 0, 1, 110, 1554)" filter="url(#사각형_27562)">
        <g id="사각형_27562-3" data-name="사각형 27562" transform="translate(2 2)" stroke="#fff" stroke-width="0.8" fill="url(#linear-gradient)">
          <rect width="46" height="46" rx="5" stroke="none"/>
          <rect x="0.4" y="0.4" width="45.2" height="45.2" rx="4.6" fill="none"/>
        </g>
      </g>
      <rect id="사각형_27562-4" data-name="사각형 27562" width="46" height="46" rx="5" transform="translate(112 1556)" fill="url(#linear-gradient)"/>
      <g transform="matrix(1, 0, 0, 1, 110, 1554)" filter="url(#사각형_27562-2)">
        <rect id="사각형_27562-5" data-name="사각형 27562" width="46" height="46" rx="5" transform="translate(2 2)" fill="#fff"/>
      </g>
      <g id="사각형_27562-6" data-name="사각형 27562" transform="translate(112 1556)" fill="none" stroke="#fff" stroke-width="0.8">
        <rect width="46" height="46" rx="5" stroke="none"/>
        <rect x="0.4" y="0.4" width="45.2" height="45.2" rx="4.6" fill="none"/>
      </g>
    </g>
    <text id="상" transform="translate(126 1586)" fill="#fff" font-size="20" font-family="SpoqaHanSansNeo-Bold, Spoqa Han Sans Neo" font-weight="700"><tspan x="0" y="0">상</tspan></text>
  </g>
</svg>
