<svg xmlns="http://www.w3.org/2000/svg" xmlns:xlink="http://www.w3.org/1999/xlink" width="120" height="120" viewBox="0 0 120 120">
  <defs>
    <clipPath id="clip-path">
      <rect id="사각형_26914" data-name="사각형 26914" width="120" height="120" transform="translate(1690 661)" fill="#fff" stroke="#707070" stroke-width="1"/>
    </clipPath>
  </defs>
  <g id="img_mask_cap" transform="translate(-1690 -661)" clip-path="url(#clip-path)">
    <g id="그룹_20295" data-name="그룹 20295" transform="translate(9.93 10.232)">
      <g id="타원_618" data-name="타원 618" transform="translate(1757.143 673.857)" fill="none" stroke="#f45959" stroke-width="2">
        <circle cx="12.857" cy="12.857" r="12.857" stroke="none"/>
        <circle cx="12.857" cy="12.857" r="11.857" fill="none"/>
      </g>
      <path id="Shape" d="M42.736,4.72c.339-4.516-7.21-5.242-7.752-.64-4.719.62-12.694,2.587-17.016,8.779-4.051,5.814-5.116,13.634-5.33,15.582C7.783,31.95,3.5,34.585,1.562,36.436a1.841,1.841,0,0,0-.252,2.355,1.812,1.812,0,0,0,2.51.533c.233-.155,2.452-1.454,8.188-.64,10.32,1.463,8.072,6.783,19.119,5.814,9.593-.872,15.378-7.752,16.851-9.69,1.831.087,3.624.2,5.427.436a5.436,5.436,0,0,0,3.634-.426,4.118,4.118,0,0,0,1.822-2.81,27.046,27.046,0,0,0,.436-5.7c-.019-11.047-6.25-18.3-16.561-21.59ZM23.443,28.374c.581-4.913,3.363-20.214,15.185-22.588,8.993,5.068,4.622,22.288,3.363,26.619-7.345-1.066-14.681-3.3-18.547-4.031ZM40.788,4.148a7.9,7.9,0,0,0-3.75-.242c.533-1.463,3.479-1.24,3.75.271ZM19.605,13.974C22.58,9.691,27.7,7.637,31.9,6.648,24.15,12.24,22.047,23.781,21.524,28.132a32.094,32.094,0,0,0-6.783-.223C15.07,25.225,16.262,18.761,19.605,13.974ZM30.953,42.551C20.72,43.52,23.2,38.3,12.279,36.737c-4.787-.678-7.481,0-8.721.533,2.093-1.754,6.163-4.293,10.417-7.365,9.041-1.357,19.545,4.089,31.6,4.845A22.4,22.4,0,0,1,30.953,42.551Zm26.009-10.96c-.4,1.88-1.386,2.025-3.3,1.773-4.235-.552-6.551-.378-9.69-.717C46.2,24.9,47.843,13.063,42.813,6.794c6.958,2.394,12.21,6.783,13.944,14.07A28.47,28.47,0,0,1,56.961,31.591Z" transform="translate(1693.074 666.807)" fill="#3b61d5" stroke="#3b61d5" stroke-width="0.4"/>
      <g id="Page-1" transform="translate(1723.227 708.586)">
        <g id="_022---Surgical-Mask" data-name="022---Surgical-Mask" transform="translate(0 0)">
          <path id="Shape-2" data-name="Shape" d="M16.731,25.041a46.594,46.594,0,0,0,13.887,2.123A46.594,46.594,0,0,0,44.5,25.041a1.044,1.044,0,1,0-.62-1.994,44.382,44.382,0,0,1-26.527,0,1.044,1.044,0,0,0-.62,1.994Z" transform="translate(0.706 1.013)" fill="#3b61d5" stroke="#3b61d5" stroke-width="0.4"/>
          <path id="Shape-3" data-name="Shape" d="M16.883,19.076a89.416,89.416,0,0,0,13.734,1.05,89.416,89.416,0,0,0,13.734-1.05,1.044,1.044,0,1,0-.322-2.063,88.2,88.2,0,0,1-26.826,0,1.044,1.044,0,0,0-.322,2.063Z" transform="translate(0.706 0.748)" fill="#3b61d5" stroke="#3b61d5" stroke-width="0.4"/>
          <path id="Shape-4" data-name="Shape" d="M43.744,30.106a29.9,29.9,0,0,1-26.247,0,1.044,1.044,0,1,0-.9,1.879,31.95,31.95,0,0,0,28.047,0,1.044,1.044,0,1,0-.9-1.879Z" transform="translate(0.703 1.321)" fill="#3b61d5" stroke="#3b61d5" stroke-width="0.4"/>
          <path id="Shape-5" data-name="Shape" d="M58.471,10.441H53.058a3.132,3.132,0,0,0-2.94-2.088H48.541a12.881,12.881,0,0,1-9.933-4.887,9.389,9.389,0,0,0-14.568,0,12.882,12.882,0,0,1-9.935,4.887H12.529a3.132,3.132,0,0,0-2.94,2.088H4.176A4.177,4.177,0,0,0,0,14.618v5.221C0,25.326,4.914,30.377,10.878,31.2A22.508,22.508,0,0,0,29.6,45.844a15.323,15.323,0,0,0,3.446,0A22.508,22.508,0,0,0,51.77,31.2c5.964-.823,10.878-5.873,10.878-11.361V14.618A4.177,4.177,0,0,0,58.471,10.441Zm-45.941,0h1.577A14.969,14.969,0,0,0,25.661,4.782a7.3,7.3,0,0,1,11.328,0,14.964,14.964,0,0,0,11.552,5.659h1.577a1.044,1.044,0,0,1,1.044,1.044v1.044l-3.132-.005h-.021A16.533,16.533,0,0,1,35.364,6.1a5.209,5.209,0,0,0-8.089.009,16.519,16.519,0,0,1-12.634,6.415h-.024l-3.132.007V11.485a1.044,1.044,0,0,1,1.044-1.044Zm-10.441,9.4V14.618a2.088,2.088,0,0,1,2.088-2.088H9.4V22.971a23.638,23.638,0,0,0,.778,5.976C6.027,27.947,2.088,24.4,2.088,19.838ZM32.829,43.768a13.444,13.444,0,0,1-3.011,0A20.431,20.431,0,0,1,12.655,29.926v-.01a21.4,21.4,0,0,1-1.169-6.944V14.618l3.132-.005A18.5,18.5,0,0,0,28.9,7.427a3.122,3.122,0,0,1,4.85-.008,18.61,18.61,0,0,0,14.26,7.194h.024l3.132.005v8.353A21.4,21.4,0,0,1,50,29.913v.01A20.431,20.431,0,0,1,32.829,43.768Zm27.73-23.929c0,4.565-3.938,8.109-8.087,9.11a23.638,23.638,0,0,0,.778-5.978V12.529h5.221a2.088,2.088,0,0,1,2.088,2.088Z" transform="translate(0 -0.002)" fill="#3b61d5" stroke="#3b61d5" stroke-width="0.4"/>
        </g>
      </g>
      <g id="그룹_20290" data-name="그룹 20290" transform="translate(1767.141 683.857)">
        <path id="패스_2685" data-name="패스 2685" d="M0,0V8.081" transform="translate(5.714 0) rotate(45)" fill="none" stroke="#f45959" stroke-linecap="round" stroke-width="2"/>
        <path id="패스_2686" data-name="패스 2686" d="M0,0V8.081" transform="translate(0 0.001) rotate(-45)" fill="none" stroke="#f45959" stroke-linecap="round" stroke-width="2"/>
      </g>
    </g>
  </g>
</svg>
