<svg xmlns="http://www.w3.org/2000/svg" xmlns:xlink="http://www.w3.org/1999/xlink" width="180" height="180" viewBox="0 0 180 180">
  <defs>
    <clipPath id="clip-path">
      <rect id="사각형_27408" data-name="사각형 27408" width="180" height="180" transform="translate(-1574 -18712)" fill="#fff"/>
    </clipPath>
    <clipPath id="clip-path-2">
      <rect id="사각형_27347" data-name="사각형 27347" width="119.476" height="141.764" fill="none"/>
    </clipPath>
  </defs>
  <g id="img_mbti02_isfj" transform="translate(1574 18712)" clip-path="url(#clip-path)">
    <g id="그룹_21234" data-name="그룹 21234" transform="translate(-1544 -18693)">
      <g id="그룹_21233" data-name="그룹 21233" transform="translate(0 0)" clip-path="url(#clip-path-2)">
        <path id="패스_10768" data-name="패스 10768" d="M118.519,19.972l-.162-.182a16.013,16.013,0,0,1-2.288.182,15.919,15.919,0,0,1-15.92-15.92V4.011A3.917,3.917,0,0,0,96.278,0H23.2a3.917,3.917,0,0,0-3.872,4.012v.042a15.919,15.919,0,0,1-15.92,15.92,16.013,16.013,0,0,1-2.288-.182l-.162.182c-9.8,102.866,58.781,121.792,58.781,121.792s68.577-18.926,58.781-121.792" transform="translate(0 0)" fill="#edc962"/>
        <path id="패스_10769" data-name="패스 10769" d="M22.956,8.309A13.624,13.624,0,0,1,7.746,25.348l-.138.157c-8.435,88.565,50.608,104.86,50.608,104.86V8.309Z" transform="translate(1.523 1.866)" fill="#efab3c"/>
        <path id="패스_10770" data-name="패스 10770" d="M58.771,133.487a3.023,3.023,0,0,1-.814-.111c-.637-.175-15.781-4.489-29.922-20.114C4.629,87.4,2.653,51.142,5.116,25.277a3.056,3.056,0,0,1,.747-1.732L6,23.388A3.054,3.054,0,0,1,8.741,22.38a10.645,10.645,0,0,0,1.531.126A10.6,10.6,0,0,0,20.551,9.148a3.062,3.062,0,0,1,2.961-3.839H94.029A3.061,3.061,0,0,1,96.99,9.148,10.559,10.559,0,0,0,108.8,22.38a3.053,3.053,0,0,1,2.738,1.008l.138.158a3.057,3.057,0,0,1,.748,1.732c2.463,25.865.486,62.124-22.918,87.985C75.367,128.887,60.223,133.2,59.585,133.376a3.016,3.016,0,0,1-.814.111M10.969,28.614c-2.717,33.908,4.649,61.62,21.366,80.275,11.161,12.452,23.227,17.218,26.437,18.322,3.2-1.1,15.272-5.866,26.437-18.322,16.717-18.654,24.083-46.367,21.366-80.275A16.789,16.789,0,0,1,90.5,11.861c0-.142,0-.285.006-.429H27.033c0,.143.006.287.006.429a16.789,16.789,0,0,1-16.07,16.754" transform="translate(0.967 1.192)" fill="#fff"/>
        <path id="패스_10771" data-name="패스 10771" d="M64.334,40.31a13.406,13.406,0,0,0-11.385,6.223A13.4,13.4,0,0,0,41.565,40.31,13.168,13.168,0,0,0,28.228,53.3c0,11.446,12.054,22.485,24.721,29.983,12.668-7.5,24.722-18.537,24.722-29.983A13.167,13.167,0,0,0,64.334,40.31" transform="translate(6.34 9.053)" fill="#f76f6f"/>
      </g>
    </g>
  </g>
</svg>
