<svg xmlns="http://www.w3.org/2000/svg" width="374.997" height="184.002" viewBox="0 0 374.997 184.002">
  <g id="img_bubble" transform="translate(-16230.001 -23912.998)" fill="#f7f6ff">
    <path d="M 16549.001953125 24096.044921875 L 16543.890625 24087.740234375 L 16543.744140625 24087.501953125 L 16543.46484375 24087.501953125 L 16239.193359375 24087.501953125 C 16234.400390625 24087.501953125 16230.5009765625 24082.880859375 16230.5009765625 24077.201171875 L 16230.5009765625 23923.8046875 C 16230.5009765625 23918.12109375 16234.400390625 23913.498046875 16239.193359375 23913.498046875 L 16595.810546875 23913.498046875 C 16600.6015625 23913.498046875 16604.498046875 23918.12109375 16604.498046875 23923.8046875 L 16604.498046875 24077.201171875 C 16604.498046875 24082.880859375 16600.6015625 24087.501953125 16595.810546875 24087.501953125 L 16554.53515625 24087.501953125 L 16554.255859375 24087.501953125 L 16554.109375 24087.740234375 L 16549.001953125 24096.044921875 Z" stroke="none"/>
    <path d="M 16549.001953125 24095.091796875 L 16553.9765625 24087.001953125 L 16595.810546875 24087.001953125 C 16600.32421875 24087.001953125 16603.998046875 24082.60546875 16603.998046875 24077.201171875 L 16603.998046875 23923.8046875 C 16603.998046875 23918.396484375 16600.32421875 23913.998046875 16595.810546875 23913.998046875 L 16239.193359375 23913.998046875 C 16234.67578125 23913.998046875 16231.0009765625 23918.396484375 16231.0009765625 23923.8046875 L 16231.0009765625 24077.201171875 C 16231.0009765625 24082.60546875 16234.67578125 24087.001953125 16239.193359375 24087.001953125 L 16544.0234375 24087.001953125 L 16544.31640625 24087.478515625 L 16549.001953125 24095.091796875 M 16549.001953125 24097 L 16543.46484375 24088.001953125 L 16239.193359375 24088.001953125 C 16234.11328125 24088.001953125 16230.0009765625 24083.1640625 16230.0009765625 24077.201171875 L 16230.0009765625 23923.8046875 C 16230.0009765625 23917.8359375 16234.11328125 23912.998046875 16239.193359375 23912.998046875 L 16595.810546875 23912.998046875 C 16600.884765625 23912.998046875 16604.998046875 23917.8359375 16604.998046875 23923.8046875 L 16604.998046875 24077.201171875 C 16604.998046875 24083.1640625 16600.884765625 24088.001953125 16595.810546875 24088.001953125 L 16554.53515625 24088.001953125 L 16549.001953125 24097 Z" stroke="none" fill="#5f4eee"/>
  </g>
</svg>
