<svg xmlns="http://www.w3.org/2000/svg" xmlns:xlink="http://www.w3.org/1999/xlink" width="64.35" height="30.352" viewBox="0 0 64.35 30.352">
  <defs>
    <filter id="패스_9513">
      <feOffset dx="1" dy="2" input="SourceAlpha"/>
      <feGaussianBlur stdDeviation="1.5" result="blur"/>
      <feFlood flood-opacity="0.192" result="color"/>
      <feComposite operator="out" in="SourceGraphic" in2="blur"/>
      <feComposite operator="in" in="color"/>
      <feComposite operator="in" in2="SourceGraphic"/>
    </filter>
    <filter id="패스_9515">
      <feOffset dx="1" dy="2" input="SourceAlpha"/>
      <feGaussianBlur stdDeviation="1.5" result="blur-2"/>
      <feFlood flood-opacity="0.192" result="color-2"/>
      <feComposite operator="out" in="SourceGraphic" in2="blur-2"/>
      <feComposite operator="in" in="color-2"/>
      <feComposite operator="in" in2="SourceGraphic"/>
    </filter>
  </defs>
  <g id="img_eyes01" transform="translate(-259 -1504)">
    <g data-type="innerShadowGroup">
      <path id="패스_9513-2" data-name="패스 9513" d="M72.854,59.518A15.176,15.176,0,1,0,57.678,74.694,15.176,15.176,0,0,0,72.854,59.518" transform="translate(216.498 1459.658)" fill="#fff"/>
      <g transform="matrix(1, 0, 0, 1, 259, 1504)" filter="url(#패스_9513)">
        <path id="패스_9513-3" data-name="패스 9513" d="M72.854,59.518A15.176,15.176,0,1,0,57.678,74.694,15.176,15.176,0,0,0,72.854,59.518" transform="translate(-42.5 -44.34)" fill="#fff"/>
      </g>
    </g>
    <g data-type="innerShadowGroup">
      <path id="패스_9515-2" data-name="패스 9515" d="M131.393,59.518a15.176,15.176,0,1,0-15.177,15.176,15.176,15.176,0,0,0,15.177-15.176" transform="translate(191.957 1459.658)" fill="#fff"/>
      <g transform="matrix(1, 0, 0, 1, 259, 1504)" filter="url(#패스_9515)">
        <path id="패스_9515-3" data-name="패스 9515" d="M131.393,59.518a15.176,15.176,0,1,0-15.177,15.176,15.176,15.176,0,0,0,15.177-15.176" transform="translate(-67.04 -44.34)" fill="#fff"/>
      </g>
    </g>
  </g>
</svg>
