<svg xmlns="http://www.w3.org/2000/svg" xmlns:xlink="http://www.w3.org/1999/xlink" width="172" height="29" viewBox="0 0 172 29">
  <defs>
    <filter id="타원_524" x="55" y="0" width="24" height="24" filterUnits="userSpaceOnUse">
      <feOffset dx="3" dy="4" input="SourceAlpha"/>
      <feGaussianBlur stdDeviation="3" result="blur"/>
      <feFlood flood-color="#bbb" flood-opacity="0.161"/>
      <feComposite operator="in" in2="blur"/>
      <feComposite in="SourceGraphic"/>
    </filter>
    <filter id="타원_350" x="116" y="0" width="24" height="24" filterUnits="userSpaceOnUse">
      <feOffset dx="3" dy="4" input="SourceAlpha"/>
      <feGaussianBlur stdDeviation="3" result="blur-2"/>
      <feFlood flood-color="#bbb" flood-opacity="0.161"/>
      <feComposite operator="in" in2="blur-2"/>
      <feComposite in="SourceGraphic"/>
    </filter>
  </defs>
  <g id="img_grade_c0" transform="translate(-630 -547)">
    <line id="선_220" data-name="선 220" x2="161" transform="translate(634.5 555)" fill="none" stroke="#fff" stroke-linecap="round" stroke-width="1"/>
    <g id="그룹_21103" data-name="그룹 21103" transform="translate(-61)">
      <path id="패스_10085" data-name="패스 10085" d="M5,0A5,5,0,1,1,0,5,5,5,0,0,1,5,0Z" transform="translate(750 550)" fill="#fff"/>
      <g transform="matrix(1, 0, 0, 1, 691, 547)" filter="url(#타원_524)">
        <circle id="타원_524-2" data-name="타원 524" cx="3" cy="3" r="3" transform="translate(61 5)" fill="#0068ed"/>
      </g>
    </g>
    <circle id="타원_350-2" data-name="타원 350" cx="3" cy="3" r="3" transform="translate(630 552)" fill="#fff"/>
    <circle id="타원_1232" data-name="타원 1232" cx="3" cy="3" r="3" transform="translate(711 552)" fill="#fff"/>
    <circle id="타원_1153" data-name="타원 1153" cx="3" cy="3" r="3" transform="translate(671 552)" fill="#fff"/>
    <circle id="타원_1152" data-name="타원 1152" cx="3" cy="3" r="3" transform="translate(650 552)" fill="#fff"/>
    <g transform="matrix(1, 0, 0, 1, 630, 547)" filter="url(#타원_350)">
      <circle id="타원_350-3" data-name="타원 350" cx="3" cy="3" r="3" transform="translate(122 5)" fill="#3b61d5"/>
    </g>
    <circle id="타원_1155" data-name="타원 1155" cx="3" cy="3" r="3" transform="translate(792 552)" fill="#fff"/>
    <circle id="타원_1156" data-name="타원 1156" cx="3" cy="3" r="3" transform="translate(752 552)" fill="#fff"/>
    <circle id="타원_525" data-name="타원 525" cx="3" cy="3" r="3" transform="translate(772 552)" fill="#fff"/>
    <text id="F" transform="translate(630 573)" fill="#fff" font-size="10" font-family="SpoqaHanSansNeo-Regular, Spoqa Han Sans Neo" letter-spacing="-0.02em"><tspan x="0" y="0">F</tspan></text>
    <text id="D0" transform="translate(647 573)" fill="#fff" font-size="10" font-family="SpoqaHanSansNeo-Regular, Spoqa Han Sans Neo" letter-spacing="-0.02em"><tspan x="0" y="0">D0</tspan></text>
    <text id="D_" data-name="D+" transform="translate(668 573)" fill="#fff" font-size="10" font-family="SpoqaHanSansNeo-Regular, Spoqa Han Sans Neo" letter-spacing="-0.02em"><tspan x="0" y="0">D+</tspan></text>
    <text id="C_" data-name="C+" transform="translate(708 573)" fill="#fff" font-size="10" font-family="SpoqaHanSansNeo-Regular, Spoqa Han Sans Neo" letter-spacing="-0.02em"><tspan x="0" y="0">C+</tspan></text>
    <text id="B_" data-name="B+" transform="translate(749 573)" fill="#fff" font-size="10" font-family="SpoqaHanSansNeo-Regular, Spoqa Han Sans Neo" letter-spacing="-0.02em"><tspan x="0" y="0">B+</tspan></text>
    <text id="A_" data-name="A+" transform="translate(790 573)" fill="#fff" font-size="10" font-family="SpoqaHanSansNeo-Regular, Spoqa Han Sans Neo" letter-spacing="-0.02em"><tspan x="0" y="0">A+</tspan></text>
    <text id="B0" transform="translate(728 573)" fill="#fff" font-size="10" font-family="SpoqaHanSansNeo-Regular, Spoqa Han Sans Neo" letter-spacing="-0.02em"><tspan x="0" y="0">B0</tspan></text>
    <text id="A0" transform="translate(769 573)" fill="#fff" font-size="10" font-family="SpoqaHanSansNeo-Regular, Spoqa Han Sans Neo" letter-spacing="-0.02em"><tspan x="0" y="0">A0</tspan></text>
    <text id="C0" transform="translate(688 573)" fill="#0068ed" font-size="10" font-family="SpoqaHanSansNeo-Medium, Spoqa Han Sans Neo" font-weight="500" letter-spacing="-0.02em"><tspan x="0" y="0">C0</tspan></text>
    <circle id="타원_351" data-name="타원 351" cx="3" cy="3" r="3" transform="translate(731 552)" fill="#fff"/>
  </g>
</svg>
