<svg width="252" height="91" viewBox="0 0 252 91" fill="none" xmlns="http://www.w3.org/2000/svg">
<path d="M250.584 81.724V80.908H248.988V78.136H248.004V84.652H248.988V81.724H250.584ZM246.336 83.956L246.852 83.188C245.316 82.672 244.248 81.304 244.248 79.864V78.676H243.264V79.78C243.264 81.4 242.22 82.9 240.588 83.476L241.104 84.256C242.364 83.776 243.324 82.792 243.768 81.532C244.248 82.636 245.172 83.524 246.336 83.956ZM245.568 84.952C243.372 84.952 242.016 85.672 242.016 86.92C242.016 88.168 243.372 88.876 245.568 88.876C247.74 88.876 249.108 88.168 249.108 86.92C249.108 85.672 247.74 84.952 245.568 84.952ZM245.568 88.108C243.972 88.108 243 87.688 243 86.92C243 86.152 243.972 85.72 245.568 85.72C247.164 85.72 248.124 86.152 248.124 86.92C248.124 87.688 247.164 88.108 245.568 88.108Z" fill="#C2C2C2"/>
<path d="M122.188 81.736L122.536 82.516C124.3 82.288 125.92 81.52 126.508 80.32C127.12 81.52 128.716 82.288 130.48 82.516L130.828 81.736C128.932 81.508 127.24 80.608 127.144 79.408H130.492V78.616H122.536V79.408H125.872C125.776 80.608 124.084 81.508 122.188 81.736ZM127 85.108V83.956H131.368V83.164H121.636V83.956H126.004V85.108C123.952 85.204 122.812 85.864 122.812 86.98C122.812 88.216 124.204 88.876 126.508 88.876C128.812 88.876 130.18 88.216 130.18 86.98C130.18 85.864 129.052 85.204 127 85.108ZM129.184 86.98C129.184 87.7 128.188 88.12 126.496 88.12C124.804 88.12 123.808 87.7 123.808 86.98C123.808 86.26 124.804 85.852 126.496 85.852C128.188 85.852 129.184 86.26 129.184 86.98Z" fill="#C2C2C2"/>
<path d="M9.928 83.38H11.692V82.552H9.928V78.136H8.944V88.888H9.928V83.38ZM7.924 79.852H5.272V78.256H4.288V79.852H1.576V80.644H7.924V79.852ZM4.792 81.532C3.28 81.532 2.188 82.576 2.188 84.016C2.188 85.492 3.28 86.488 4.792 86.488C6.328 86.488 7.42 85.492 7.42 84.016C7.42 82.576 6.328 81.532 4.792 81.532ZM4.792 85.672C3.82 85.672 3.112 84.976 3.112 84.016C3.112 83.056 3.82 82.348 4.792 82.348C5.788 82.348 6.484 83.056 6.484 84.016C6.484 84.976 5.788 85.672 4.792 85.672Z" fill="#C2C2C2"/>
<path d="M0 2H252" stroke="#DFE0EB"/>
<path d="M7 0L7 72" stroke="#DFE0EB"/>
<path d="M246 0L246 72" stroke="#DFE0EB" stroke-width="0.5"/>
<path d="M0 70H252" stroke="#DFE0EB"/>
</svg>
