<svg width="41" height="38" viewBox="0 0 41 38" fill="none" xmlns="http://www.w3.org/2000/svg">
<path d="M7.47317 35.4262C7.02961 35.9475 7.0811 36.735 7.58819 37.1851C8.09527 37.6352 8.86593 37.5774 9.30949 37.056L12.0465 33.839C12.4901 33.3176 12.4386 32.5302 11.9315 32.0801C11.4244 31.63 10.6538 31.6878 10.2102 32.2092L7.47317 35.4262Z" fill="#FF6D3B"/>
<path d="M32.0785 34.1819C32.544 34.6829 33.3164 34.7062 33.8037 34.2339C34.291 33.7615 34.3087 32.9725 33.8432 32.4715L30.9708 29.38C30.5053 28.879 29.7329 28.8557 29.2456 29.328C28.7583 29.8004 28.7407 30.5894 29.2062 31.0904L32.0785 34.1819Z" fill="#FF6D3B"/>
<path d="M30.6665 34.1565C30.223 34.6779 30.2745 35.4654 30.7815 35.9154C31.2886 36.3655 32.0593 36.3077 32.5029 35.7864L33.8661 34.1841C34.3097 33.6627 34.2582 32.8752 33.7511 32.4252C33.244 31.9751 32.4733 32.0329 32.0298 32.5542L30.6665 34.1565Z" fill="#FF6D3B"/>
<path d="M19.3769 35.4667C29.1707 35.4667 37.1102 27.5272 37.1102 17.7333C37.1102 7.93948 29.1707 0 19.3769 0C9.58304 0 1.64355 7.93948 1.64355 17.7333C1.64355 27.5272 9.58304 35.4667 19.3769 35.4667Z" fill="#FF6D3B"/>
<path d="M27.8667 15.922C27.8667 15.048 28.576 15.2127 29.4627 15.2127C30.3494 15.2127 31.0587 15.048 31.0587 15.922C31.0587 16.796 30.3494 17.518 29.4627 17.518C28.576 17.518 27.8667 16.8087 27.8667 15.922Z" fill="#2C2C2C"/>
<path d="M26.4222 14.777C27.1429 14.777 27.7272 14.1802 27.7272 13.4441C27.7272 12.708 27.1429 12.1112 26.4222 12.1112C25.7015 12.1112 25.1172 12.708 25.1172 13.4441C25.1172 14.1802 25.7015 14.777 26.4222 14.777Z" fill="#2C2C2C"/>
<path d="M31.5618 14.5137C32.2826 14.5137 32.8668 13.9169 32.8668 13.1808C32.8668 12.4447 32.2826 11.8479 31.5618 11.8479C30.8411 11.8479 30.2568 12.4447 30.2568 13.1808C30.2568 13.9169 30.8411 14.5137 31.5618 14.5137Z" fill="#2C2C2C"/>
<path d="M5.78471 25.7804C6.4462 25.637 6.8693 24.9765 6.72974 24.3054C6.59019 23.6342 5.94081 23.2064 5.27932 23.3499L1.19757 24.2353C0.536084 24.3788 0.112975 25.0392 0.252534 25.7103C0.392093 26.3815 1.04147 26.8093 1.70296 26.6658L5.78471 25.7804Z" fill="#FF6D3B"/>
<path d="M34.7075 20.5394C34.0514 20.7068 33.6516 21.3822 33.8145 22.0479C33.9773 22.7135 34.6412 23.1174 35.2973 22.95L39.3456 21.9168C40.0017 21.7493 40.4015 21.0739 40.2386 20.4083C40.0758 19.7426 39.4119 19.3387 38.7558 19.5061L34.7075 20.5394Z" fill="#FF6D3B"/>
<path d="M37.8251 20.8754C37.9254 21.5585 38.5453 22.0297 39.2097 21.9279C39.874 21.8262 40.3313 21.1899 40.231 20.5069L39.9227 18.4076C39.8224 17.7246 39.2025 17.2533 38.5382 17.3551C37.8738 17.4569 37.4165 18.0931 37.5168 18.7762L37.8251 20.8754Z" fill="#FF6D3B"/>
</svg>
