<svg width="326" height="226" viewBox="0 0 326 226" fill="none" xmlns="http://www.w3.org/2000/svg">
<path d="M14.852 166.568L15.944 166.748C15.944 165.764 16.676 165.02 17.684 165.02C18.608 165.02 19.256 165.512 19.256 166.52C19.256 167.432 18.704 168.068 17.156 168.104V168.896C19.04 168.896 19.436 169.592 19.436 170.54C19.436 171.32 18.824 172.208 17.564 172.208C16.652 172.208 16.112 171.74 15.74 170.972C15.644 170.744 15.584 170.564 15.56 170.432L14.576 170.84C14.996 172.136 15.68 173.156 17.576 173.156C19.22 173.156 20.552 172.124 20.552 170.516C20.552 169.412 19.952 168.68 18.8 168.392C19.76 168.068 20.348 167.492 20.348 166.34C20.348 164.996 19.268 164.06 17.744 164.06C16.244 164.06 15.08 164.972 14.852 166.568ZM22.7444 172.04H21.6524V173.168H22.7444V172.04ZM26.2061 167.48L26.6021 165.176H30.0461V164.168H25.8341L25.1141 168.332L25.8221 168.536C26.3381 168.356 26.7941 168.248 27.2621 168.248C28.5221 168.248 29.2661 168.92 29.2661 170.072C29.2661 171.368 28.3901 172.124 27.1781 172.124C26.4581 172.124 25.7621 171.8 25.2341 171.356L24.6461 172.16C25.1861 172.676 26.0741 173.108 27.1301 173.108C28.9181 173.108 30.3221 171.884 30.3221 170.012C30.3221 168.476 29.3261 167.324 27.4661 167.324C27.0341 167.324 26.6141 167.372 26.2061 167.48ZM43.1901 173.912V163.124H42.2061V173.912H43.1901ZM37.5141 163.952C35.9181 163.952 34.7781 165.416 34.7781 167.708C34.7781 170 35.9181 171.464 37.5141 171.464C39.1101 171.464 40.2501 170 40.2501 167.708C40.2501 165.416 39.1101 163.952 37.5141 163.952ZM37.5141 164.84C38.5581 164.84 39.3021 165.968 39.3021 167.708C39.3021 169.46 38.5581 170.588 37.5141 170.588C36.4581 170.588 35.7141 169.46 35.7141 167.708C35.7141 165.968 36.4581 164.84 37.5141 164.84ZM53.7132 168.38H55.4772V167.552H53.7132V163.136H52.7292V173.888H53.7132V168.38ZM51.7092 164.852H49.0572V163.256H48.0732V164.852H45.3612V165.644H51.7092V164.852ZM48.5772 166.532C47.0652 166.532 45.9732 167.576 45.9732 169.016C45.9732 170.492 47.0652 171.488 48.5772 171.488C50.1132 171.488 51.2052 170.492 51.2052 169.016C51.2052 167.576 50.1132 166.532 48.5772 166.532ZM48.5772 170.672C47.6052 170.672 46.8972 169.976 46.8972 169.016C46.8972 168.056 47.6052 167.348 48.5772 167.348C49.5732 167.348 50.2692 168.056 50.2692 169.016C50.2692 169.976 49.5732 170.672 48.5772 170.672ZM60.3318 168.8H67.7838V167.996H61.3158V164.072H60.3318V168.8ZM68.8998 172.412V171.596H59.1318V172.412H68.8998ZM79.0149 169.508V163.136H78.0309V169.508H79.0149ZM76.8309 168.644L76.7229 167.852C75.0189 168.14 73.6269 168.188 71.7069 168.188V166.7H75.6069V163.772H70.7109V164.576H74.6349V165.944H70.7469V168.992H71.6109C73.5909 168.992 75.0789 168.932 76.8309 168.644ZM79.0149 170.108H72.0549V173.744H79.0149V170.108ZM78.0549 172.952H73.0149V170.888H78.0549V172.952Z" fill="#C2C2C2"/>
<rect y="164" width="8" height="8" rx="4" fill="#FF6D3B"/>
<path d="M14.852 191.568L15.944 191.748C15.944 190.764 16.676 190.02 17.684 190.02C18.608 190.02 19.256 190.512 19.256 191.52C19.256 192.432 18.704 193.068 17.156 193.104V193.896C19.04 193.896 19.436 194.592 19.436 195.54C19.436 196.32 18.824 197.208 17.564 197.208C16.652 197.208 16.112 196.74 15.74 195.972C15.644 195.744 15.584 195.564 15.56 195.432L14.576 195.84C14.996 197.136 15.68 198.156 17.576 198.156C19.22 198.156 20.552 197.124 20.552 195.516C20.552 194.412 19.952 193.68 18.8 193.392C19.76 193.068 20.348 192.492 20.348 191.34C20.348 189.996 19.268 189.06 17.744 189.06C16.244 189.06 15.08 189.972 14.852 191.568ZM22.7444 197.04H21.6524V198.168H22.7444V197.04ZM26.2061 192.48L26.6021 190.176H30.0461V189.168H25.8341L25.1141 193.332L25.8221 193.536C26.3381 193.356 26.7941 193.248 27.2621 193.248C28.5221 193.248 29.2661 193.92 29.2661 195.072C29.2661 196.368 28.3901 197.124 27.1781 197.124C26.4581 197.124 25.7621 196.8 25.2341 196.356L24.6461 197.16C25.1861 197.676 26.0741 198.108 27.1301 198.108C28.9181 198.108 30.3221 196.884 30.3221 195.012C30.3221 193.476 29.3261 192.324 27.4661 192.324C27.0341 192.324 26.6141 192.372 26.2061 192.48ZM35.6225 193.164H31.6625V194.004H35.6225V193.164ZM43.1788 195.66V194.796H41.8468V189.108H40.8148L36.4828 194.844V195.66H40.8748V198H41.8468V195.66H43.1788ZM40.8748 191.124V194.796H37.6828L40.9228 190.38C40.8868 190.632 40.8748 190.92 40.8748 191.124ZM44.9632 197.04H43.8712V198.168H44.9632V197.04ZM48.4248 192.48L48.8208 190.176H52.2648V189.168H48.0528L47.3328 193.332L48.0408 193.536C48.5568 193.356 49.0128 193.248 49.4808 193.248C50.7408 193.248 51.4848 193.92 51.4848 195.072C51.4848 196.368 50.6088 197.124 49.3968 197.124C48.6768 197.124 47.9808 196.8 47.4528 196.356L46.8648 197.16C47.4048 197.676 48.2928 198.108 49.3488 198.108C51.1368 198.108 52.5408 196.884 52.5408 195.012C52.5408 193.476 51.5448 192.324 49.6848 192.324C49.2528 192.324 48.8328 192.372 48.4248 192.48ZM64.8808 193.188H66.6568V192.372H64.8808V188.124H63.8968V198.912H64.8808V193.188ZM58.0408 195.384V189.972H62.0608V189.156H57.0568V196.224H57.9088C59.9248 196.224 61.3648 196.164 62.9968 195.84L62.8888 195.024C61.3408 195.312 59.9608 195.384 58.0408 195.384ZM76.5079 194.196L76.9279 193.38C75.0439 193.056 72.9919 191.46 72.9919 189.672V188.844H71.9599V189.672C71.9599 191.46 69.9199 193.056 68.0359 193.38L68.4439 194.196C70.0999 193.848 71.7679 192.732 72.4759 191.196C73.1839 192.732 74.8639 193.836 76.5079 194.196ZM77.4079 197.484V196.68H72.9679V194.064H71.9839V196.68H67.6399V197.484H77.4079ZM82.5506 193.8H90.0026V192.996H83.5346V189.072H82.5506V193.8ZM91.1186 197.412V196.596H81.3506V197.412H91.1186ZM101.234 194.508V188.136H100.25V194.508H101.234ZM99.0496 193.644L98.9416 192.852C97.2376 193.14 95.8456 193.188 93.9256 193.188V191.7H97.8256V188.772H92.9296V189.576H96.8536V190.944H92.9656V193.992H93.8296C95.8096 193.992 97.2976 193.932 99.0496 193.644ZM101.234 195.108H94.2736V198.744H101.234V195.108ZM100.274 197.952H95.2336V195.888H100.274V197.952Z" fill="#C2C2C2"/>
<rect y="189" width="8" height="8" rx="4" fill="#FABF48"/>
<path d="M20.96 220.66V219.796H19.628V214.108H18.596L14.264 219.844V220.66H18.656V223H19.628V220.66H20.96ZM18.656 216.124V219.796H15.464L18.704 215.38C18.668 215.632 18.656 215.92 18.656 216.124ZM22.7444 222.04H21.6524V223.168H22.7444V222.04ZM26.2061 217.48L26.6021 215.176H30.0461V214.168H25.8341L25.1141 218.332L25.8221 218.536C26.3381 218.356 26.7941 218.248 27.2621 218.248C28.5221 218.248 29.2661 218.92 29.2661 220.072C29.2661 221.368 28.3901 222.124 27.1781 222.124C26.4581 222.124 25.7621 221.8 25.2341 221.356L24.6461 222.16C25.1861 222.676 26.0741 223.108 27.1301 223.108C28.9181 223.108 30.3221 221.884 30.3221 220.012C30.3221 218.476 29.3261 217.324 27.4661 217.324C27.0341 217.324 26.6141 217.372 26.2061 217.48ZM35.6225 218.164H31.6625V219.004H35.6225V218.164ZM38.5108 217.48L38.9068 215.176H42.3508V214.168H38.1388L37.4188 218.332L38.1268 218.536C38.6428 218.356 39.0988 218.248 39.5668 218.248C40.8268 218.248 41.5708 218.92 41.5708 220.072C41.5708 221.368 40.6948 222.124 39.4828 222.124C38.7628 222.124 38.0668 221.8 37.5388 221.356L36.9508 222.16C37.4908 222.676 38.3788 223.108 39.4348 223.108C41.2228 223.108 42.6268 221.884 42.6268 220.012C42.6268 218.476 41.6308 217.324 39.7708 217.324C39.3388 217.324 38.9188 217.372 38.5108 217.48ZM44.9632 222.04H43.8712V223.168H44.9632V222.04ZM48.4248 217.48L48.8208 215.176H52.2648V214.168H48.0528L47.3328 218.332L48.0408 218.536C48.5568 218.356 49.0128 218.248 49.4808 218.248C50.7408 218.248 51.4848 218.92 51.4848 220.072C51.4848 221.368 50.6088 222.124 49.3968 222.124C48.6768 222.124 47.9808 221.8 47.4528 221.356L46.8648 222.16C47.4048 222.676 48.2928 223.108 49.3488 223.108C51.1368 223.108 52.5408 221.884 52.5408 220.012C52.5408 218.476 51.5448 217.324 49.6848 217.324C49.2528 217.324 48.8328 217.372 48.4248 217.48ZM66.3568 222.508V221.704H61.9648V219.388H65.1808V213.892H64.2208V215.812H58.7248V213.892H57.7528V219.388H60.9688V221.704H56.6008V222.508H66.3568ZM64.2208 218.596H58.7248V216.616H64.2208V218.596ZM77.3719 219.616V218.824H72.9919V217.768H76.2319V217H69.8959V215.944H75.8839V215.2H69.8959V214.204H76.1719V213.436H68.9119V217.768H72.0079V218.824H67.6279V219.616H77.3719ZM72.4999 220.432C70.1119 220.432 68.8159 221.032 68.8159 222.148C68.8159 223.3 70.1119 223.876 72.4999 223.876C74.8879 223.876 76.1839 223.3 76.1839 222.148C76.1839 221.032 74.8879 220.432 72.4999 220.432ZM72.4999 223.132C70.7599 223.132 69.7999 222.82 69.7999 222.148C69.7999 221.512 70.7599 221.164 72.4999 221.164C74.2399 221.164 75.1999 221.512 75.1999 222.148C75.1999 222.82 74.2399 223.132 72.4999 223.132Z" fill="#C2C2C2"/>
<rect y="214" width="8" height="8" rx="4" fill="#62B22F"/>
<path d="M139.292 192.48L139.688 190.176H143.132V189.168H138.92L138.2 193.332L138.908 193.536C139.424 193.356 139.88 193.248 140.348 193.248C141.608 193.248 142.352 193.92 142.352 195.072C142.352 196.368 141.476 197.124 140.264 197.124C139.544 197.124 138.848 196.8 138.32 196.356L137.732 197.16C138.272 197.676 139.16 198.108 140.216 198.108C142.004 198.108 143.408 196.884 143.408 195.012C143.408 193.476 142.412 192.324 140.552 192.324C140.12 192.324 139.7 192.372 139.292 192.48ZM145.744 197.04H144.652V198.168H145.744V197.04ZM149.206 192.48L149.602 190.176H153.046V189.168H148.834L148.114 193.332L148.822 193.536C149.338 193.356 149.794 193.248 150.262 193.248C151.522 193.248 152.266 193.92 152.266 195.072C152.266 196.368 151.39 197.124 150.178 197.124C149.458 197.124 148.762 196.8 148.234 196.356L147.646 197.16C148.186 197.676 149.074 198.108 150.13 198.108C151.918 198.108 153.322 196.884 153.322 195.012C153.322 193.476 152.326 192.324 150.466 192.324C150.034 192.324 149.614 192.372 149.206 192.48ZM158.623 193.164H154.663V194.004H158.623V193.164ZM162.111 192.48L164.763 189.156H163.383L160.935 192.456C160.167 193.464 159.843 194.352 159.843 195.132C159.843 196.956 161.007 198.156 162.795 198.156C164.595 198.156 165.843 196.884 165.843 195.252C165.843 193.56 164.643 192.6 163.203 192.6C162.615 192.6 162.123 192.768 161.691 193.056C161.775 192.96 161.907 192.768 162.111 192.48ZM162.771 197.232C161.571 197.232 160.911 196.464 160.911 195.312C160.911 194.316 161.667 193.452 162.843 193.452C163.935 193.452 164.739 194.172 164.739 195.336C164.739 196.428 163.935 197.232 162.771 197.232ZM167.963 197.04H166.871V198.168H167.963V197.04ZM171.425 192.48L171.821 190.176H175.265V189.168H171.053L170.333 193.332L171.041 193.536C171.557 193.356 172.013 193.248 172.481 193.248C173.741 193.248 174.485 193.92 174.485 195.072C174.485 196.368 173.609 197.124 172.397 197.124C171.677 197.124 170.981 196.8 170.453 196.356L169.865 197.16C170.405 197.676 171.293 198.108 172.349 198.108C174.137 198.108 175.541 196.884 175.541 195.012C175.541 193.476 174.545 192.324 172.685 192.324C172.253 192.324 171.833 192.372 171.425 192.48ZM187.881 193.188H189.657V192.372H187.881V188.124H186.897V198.912H187.881V193.188ZM181.041 195.384V189.972H185.061V189.156H180.057V196.224H180.909C182.925 196.224 184.365 196.164 185.997 195.84L185.889 195.024C184.341 195.312 182.961 195.384 181.041 195.384ZM199.508 194.196L199.928 193.38C198.044 193.056 195.992 191.46 195.992 189.672V188.844H194.96V189.672C194.96 191.46 192.92 193.056 191.036 193.38L191.444 194.196C193.1 193.848 194.768 192.732 195.476 191.196C196.184 192.732 197.864 193.836 199.508 194.196ZM200.408 197.484V196.68H195.968V194.064H194.984V196.68H190.64V197.484H200.408ZM212.931 193.152H214.371V192.324H212.931V188.124H211.959V198.888H212.931V193.152ZM207.543 189.132H206.727V191.892H205.407V189.132H204.567V196.284H207.543V189.132ZM211.047 189.132H210.219V191.892H208.947V189.132H208.119V196.284H211.047V189.132ZM205.407 192.684H206.727V195.48H205.407V192.684ZM208.947 192.684H210.219V195.48H208.947V192.684ZM216.626 189.156H222.938V190.2H216.65V192.756H224.138V191.988H217.622V190.932H223.91V188.4H216.626V189.156ZM225.158 194.472V193.68H215.402V194.472H225.158ZM223.922 195.468H216.71V198.744H223.922V195.468ZM222.95 197.952H217.67V196.248H222.95V197.952Z" fill="#C2C2C2"/>
<rect x="123" y="190" width="8" height="8" rx="4" fill="#1E76FC"/>
<path d="M139.892 167.48L142.544 164.156H141.164L138.716 167.456C137.948 168.464 137.624 169.352 137.624 170.132C137.624 171.956 138.788 173.156 140.576 173.156C142.376 173.156 143.624 171.884 143.624 170.252C143.624 168.56 142.424 167.6 140.984 167.6C140.396 167.6 139.904 167.768 139.472 168.056C139.556 167.96 139.688 167.768 139.892 167.48ZM140.552 172.232C139.352 172.232 138.692 171.464 138.692 170.312C138.692 169.316 139.448 168.452 140.624 168.452C141.716 168.452 142.52 169.172 142.52 170.336C142.52 171.428 141.716 172.232 140.552 172.232ZM145.744 172.04H144.652V173.168H145.744V172.04ZM149.206 167.48L149.602 165.176H153.046V164.168H148.834L148.114 168.332L148.822 168.536C149.338 168.356 149.794 168.248 150.262 168.248C151.522 168.248 152.266 168.92 152.266 170.072C152.266 171.368 151.39 172.124 150.178 172.124C149.458 172.124 148.762 171.8 148.234 171.356L147.646 172.16C148.186 172.676 149.074 173.108 150.13 173.108C151.918 173.108 153.322 171.884 153.322 170.012C153.322 168.476 152.326 167.324 150.466 167.324C150.034 167.324 149.614 167.372 149.206 167.48ZM166.19 173.912V163.124H165.206V173.912H166.19ZM160.514 163.952C158.918 163.952 157.778 165.416 157.778 167.708C157.778 170 158.918 171.464 160.514 171.464C162.11 171.464 163.25 170 163.25 167.708C163.25 165.416 162.11 163.952 160.514 163.952ZM160.514 164.84C161.558 164.84 162.302 165.968 162.302 167.708C162.302 169.46 161.558 170.588 160.514 170.588C159.458 170.588 158.714 169.46 158.714 167.708C158.714 165.968 159.458 164.84 160.514 164.84ZM178.369 166.724V165.908H176.773V163.136H175.789V169.652H176.773V166.724H178.369ZM174.121 168.956L174.637 168.188C173.101 167.672 172.033 166.304 172.033 164.864V163.676H171.049V164.78C171.049 166.4 170.005 167.9 168.373 168.476L168.889 169.256C170.149 168.776 171.109 167.792 171.553 166.532C172.033 167.636 172.957 168.524 174.121 168.956ZM173.353 169.952C171.157 169.952 169.801 170.672 169.801 171.92C169.801 173.168 171.157 173.876 173.353 173.876C175.525 173.876 176.893 173.168 176.893 171.92C176.893 170.672 175.525 169.952 173.353 169.952ZM173.353 173.108C171.757 173.108 170.785 172.688 170.785 171.92C170.785 171.152 171.757 170.72 173.353 170.72C174.949 170.72 175.909 171.152 175.909 171.92C175.909 172.688 174.949 173.108 173.353 173.108ZM190.712 168.152H192.152V167.324H190.712V163.124H189.74V173.888H190.712V168.152ZM185.324 164.132H184.508V166.892H183.188V164.132H182.348V171.284H185.324V164.132ZM188.828 164.132H188V166.892H186.728V164.132H185.9V171.284H188.828V164.132ZM183.188 167.684H184.508V170.48H183.188V167.684ZM186.728 167.684H188V170.48H186.728V167.684ZM194.407 164.156H200.719V165.2H194.431V167.756H201.919V166.988H195.403V165.932H201.691V163.4H194.407V164.156ZM202.939 169.472V168.68H193.183V169.472H202.939ZM201.703 170.468H194.491V173.744H201.703V170.468ZM200.731 172.952H195.451V171.248H200.731V172.952Z" fill="#C2C2C2"/>
<rect x="123" y="165" width="8" height="8" rx="4" fill="#6967F9"/>
<path d="M1.672 112.803H8.503V112.066H2.574V108.469H1.672V112.803ZM9.526 116.114V115.366H0.572V116.114H9.526ZM18.7981 113.452V107.611H17.8961V113.452H18.7981ZM16.7961 112.66L16.6971 111.934C15.1351 112.198 13.8591 112.242 12.0991 112.242V110.878H15.6741V108.194H11.1861V108.931H14.7831V110.185H11.2191V112.979H12.0111C13.8261 112.979 15.1901 112.924 16.7961 112.66ZM18.7981 114.002H12.4181V117.335H18.7981V114.002ZM17.9181 116.609H13.2981V114.717H17.9181V116.609Z" fill="#C2C2C2"/>
<path d="M8.437 6.556H9.757V5.797H8.437V1.947H7.546V11.814H8.437V6.556ZM3.498 2.871H2.75V5.401H1.54V2.871H0.77V9.427H3.498V2.871ZM6.71 2.871H5.951V5.401H4.785V2.871H4.026V9.427H6.71V2.871ZM1.54 6.127H2.75V8.69H1.54V6.127ZM4.785 6.127H5.951V8.69H4.785V6.127ZM11.8241 2.893H17.6101V3.85H11.8461V6.193H18.7101V5.489H12.7371V4.521H18.5011V2.2H11.8241V2.893ZM19.6451 7.766V7.04H10.7021V7.766H19.6451ZM18.5121 8.679H11.9011V11.682H18.5121V8.679ZM17.6211 10.956H12.7811V9.394H17.6211V10.956Z" fill="#C2C2C2"/>
<path d="M30.6685 44H326" stroke="#DFE0EB" stroke-dasharray="2 3"/>
<path d="M30.6685 78.6667H326" stroke="#DFE0EB" stroke-dasharray="2 3"/>
<path d="M30.6685 9.36441H326" stroke="#DFE0EB" stroke-dasharray="2 3"/>
<path d="M47.7006 132.326V131.512H46.1166V124.219H45.3136L43.1466 126.089L43.6856 126.738L45.1486 125.429C45.1376 125.506 45.1376 125.605 45.1376 125.704V131.512H43.3446V132.326H47.7006ZM49.9303 131.446H48.9293V132.48H49.9303V131.446ZM57.2614 128.311C57.2614 125.44 55.9634 124.131 54.3024 124.131C52.6304 124.131 51.3434 125.44 51.3434 128.311C51.3434 131.171 52.6304 132.48 54.3024 132.48C55.9634 132.48 57.2614 131.171 57.2614 128.311ZM56.2494 128.311C56.2494 130.819 55.3254 131.666 54.3024 131.666C53.2794 131.666 52.3664 130.819 52.3664 128.311C52.3664 125.792 53.2794 124.956 54.3024 124.956C55.3254 124.956 56.2494 125.792 56.2494 128.311Z" fill="#C2C2C2"/>
<path d="M89.8236 132.326V131.435H86.6446C86.3696 131.435 86.0396 131.479 85.7316 131.567L87.9866 129.334C88.8996 128.421 89.6696 127.585 89.6696 126.386C89.6696 124.956 88.6026 124.12 87.2276 124.12C85.8526 124.12 84.7856 124.923 84.5766 126.408L85.5666 126.573C85.5666 125.649 86.2486 124.989 87.1726 124.989C88.0086 124.989 88.6246 125.44 88.6576 126.408C88.6576 127.354 88.0416 128.047 87.1946 128.949L84.4116 131.622V132.326H89.8236ZM91.8443 131.446H90.8433V132.48H91.8443V131.446ZM99.1755 128.311C99.1755 125.44 97.8775 124.131 96.2165 124.131C94.5445 124.131 93.2575 125.44 93.2575 128.311C93.2575 131.171 94.5445 132.48 96.2165 132.48C97.8775 132.48 99.1755 131.171 99.1755 128.311ZM98.1635 128.311C98.1635 130.819 97.2395 131.666 96.2165 131.666C95.1935 131.666 94.2805 130.819 94.2805 128.311C94.2805 125.792 95.1935 124.956 96.2165 124.956C97.2395 124.956 98.1635 125.792 98.1635 128.311Z" fill="#C2C2C2"/>
<path d="M126.524 126.43L127.525 126.595C127.525 125.693 128.196 125.011 129.12 125.011C129.967 125.011 130.561 125.462 130.561 126.386C130.561 127.222 130.055 127.805 128.636 127.838V128.564C130.363 128.564 130.726 129.202 130.726 130.071C130.726 130.786 130.165 131.6 129.01 131.6C128.174 131.6 127.679 131.171 127.338 130.467C127.25 130.258 127.195 130.093 127.173 129.972L126.271 130.346C126.656 131.534 127.283 132.469 129.021 132.469C130.528 132.469 131.749 131.523 131.749 130.049C131.749 129.037 131.199 128.366 130.143 128.102C131.023 127.805 131.562 127.277 131.562 126.221C131.562 124.989 130.572 124.131 129.175 124.131C127.8 124.131 126.733 124.967 126.524 126.43ZM133.758 131.446H132.757V132.48H133.758V131.446ZM141.09 128.311C141.09 125.44 139.792 124.131 138.131 124.131C136.459 124.131 135.172 125.44 135.172 128.311C135.172 131.171 136.459 132.48 138.131 132.48C139.792 132.48 141.09 131.171 141.09 128.311ZM140.078 128.311C140.078 130.819 139.154 131.666 138.131 131.666C137.108 131.666 136.195 130.819 136.195 128.311C136.195 125.792 137.108 124.956 138.131 124.956C139.154 124.956 140.078 125.792 140.078 128.311Z" fill="#C2C2C2"/>
<path d="M174.037 130.181V129.389H172.816V124.175H171.87L167.899 129.433V130.181H171.925V132.326H172.816V130.181H174.037ZM171.925 126.023V129.389H168.999L171.969 125.341C171.936 125.572 171.925 125.836 171.925 126.023ZM175.673 131.446H174.672V132.48H175.673V131.446ZM183.004 128.311C183.004 125.44 181.706 124.131 180.045 124.131C178.373 124.131 177.086 125.44 177.086 128.311C177.086 131.171 178.373 132.48 180.045 132.48C181.706 132.48 183.004 131.171 183.004 128.311ZM181.992 128.311C181.992 130.819 181.068 131.666 180.045 131.666C179.022 131.666 178.109 130.819 178.109 128.311C178.109 125.792 179.022 124.956 180.045 124.956C181.068 124.956 181.992 125.792 181.992 128.311Z" fill="#C2C2C2"/>
<path d="M211.673 127.266L212.036 125.154H215.193V124.23H211.332L210.672 128.047L211.321 128.234C211.794 128.069 212.212 127.97 212.641 127.97C213.796 127.97 214.478 128.586 214.478 129.642C214.478 130.83 213.675 131.523 212.564 131.523C211.904 131.523 211.266 131.226 210.782 130.819L210.243 131.556C210.738 132.029 211.552 132.425 212.52 132.425C214.159 132.425 215.446 131.303 215.446 129.587C215.446 128.179 214.533 127.123 212.828 127.123C212.432 127.123 212.047 127.167 211.673 127.266ZM217.588 131.446H216.587V132.48H217.588V131.446ZM224.919 128.311C224.919 125.44 223.621 124.131 221.96 124.131C220.288 124.131 219.001 125.44 219.001 128.311C219.001 131.171 220.288 132.48 221.96 132.48C223.621 132.48 224.919 131.171 224.919 128.311ZM223.907 128.311C223.907 130.819 222.983 131.666 221.96 131.666C220.937 131.666 220.024 130.819 220.024 128.311C220.024 125.792 220.937 124.956 221.96 124.956C222.983 124.956 223.907 125.792 223.907 128.311Z" fill="#C2C2C2"/>
<path d="M254.137 127.266L256.568 124.219H255.303L253.059 127.244C252.355 128.168 252.058 128.982 252.058 129.697C252.058 131.369 253.125 132.469 254.764 132.469C256.414 132.469 257.558 131.303 257.558 129.807C257.558 128.256 256.458 127.376 255.138 127.376C254.599 127.376 254.148 127.53 253.752 127.794C253.829 127.706 253.95 127.53 254.137 127.266ZM254.742 131.622C253.642 131.622 253.037 130.918 253.037 129.862C253.037 128.949 253.73 128.157 254.808 128.157C255.809 128.157 256.546 128.817 256.546 129.884C256.546 130.885 255.809 131.622 254.742 131.622ZM259.502 131.446H258.501V132.48H259.502V131.446ZM266.833 128.311C266.833 125.44 265.535 124.131 263.874 124.131C262.202 124.131 260.915 125.44 260.915 128.311C260.915 131.171 262.202 132.48 263.874 132.48C265.535 132.48 266.833 131.171 266.833 128.311ZM265.821 128.311C265.821 130.819 264.897 131.666 263.874 131.666C262.851 131.666 261.938 130.819 261.938 128.311C261.938 125.792 262.851 124.956 263.874 124.956C264.897 124.956 265.821 125.792 265.821 128.311Z" fill="#C2C2C2"/>
<path d="M299.461 124.912V124.263H294.159V125.121H298.372L297.998 125.737L294.709 132.326H295.82L299.461 124.912ZM301.416 131.446H300.415V132.48H301.416V131.446ZM308.747 128.311C308.747 125.44 307.449 124.131 305.788 124.131C304.116 124.131 302.829 125.44 302.829 128.311C302.829 131.171 304.116 132.48 305.788 132.48C307.449 132.48 308.747 131.171 308.747 128.311ZM307.735 128.311C307.735 130.819 306.811 131.666 305.788 131.666C304.765 131.666 303.852 130.819 303.852 128.311C303.852 125.792 304.765 124.956 305.788 124.956C306.811 124.956 307.735 125.792 307.735 128.311Z" fill="#C2C2C2"/>
<path d="M30.6685 113.333H326" stroke="#DFE0EB"/>
<path d="M51.8563 106.528C51.4467 105.569 51.9153 104.52 52.9028 104.185L159.886 67.8943L161.37 71.3671L54.3859 107.658C53.3984 107.993 52.2658 107.487 51.8563 106.528V106.528Z" fill="#FF6D3B"/>
<path d="M159.887 67.8942L196.144 55.5954L197.626 59.0672L161.37 71.366L159.887 67.8942Z" fill="#FABF48"/>
<path d="M196.144 55.5949L232.4 43.2962L233.883 46.7679L197.627 59.0667L196.144 55.5949Z" fill="#62B22F"/>
<path d="M232.401 43.2959L268.658 30.9972L270.14 34.4689L233.884 46.7677L232.401 43.2959Z" fill="#1E76FC"/>
<path d="M268.659 30.9969L303.128 19.3045C304.115 18.9696 305.247 19.4753 305.656 20.434V20.434C306.066 21.3927 305.597 22.4414 304.61 22.7762L270.141 34.4687L268.659 30.9969Z" fill="#6967F9"/>
<path d="M197 58.8921L242 44V113H197V58.8921Z" fill="url(#paint0_linear_48_89)" fill-opacity="0.2"/>
<path d="M268.988 166.412H270.584V165.596H268.988V163.124H268.004V169.208H268.988V166.412ZM267.032 167.912L266.912 167.108C265.172 167.444 263.684 167.552 262.136 167.564V163.664H261.164V168.392H262.004C263.636 168.392 265.196 168.284 267.032 167.912ZM268.988 169.796H262.208V173.732H268.988V169.796ZM268.028 172.94H263.168V170.588H268.028V172.94ZM280.543 173.9V163.124H279.559V165.632H276.343V166.436H279.559V168.08H276.343V168.884H279.559V173.9H280.543ZM273.247 170.576V164.312H272.263V171.404H273.079C274.939 171.404 276.307 171.332 277.867 171.008L277.759 170.192C276.283 170.48 274.963 170.576 273.247 170.576ZM291.722 170.66V169.796H290.39V164.108H289.358L285.026 169.844V170.66H289.418V173H290.39V170.66H291.722ZM289.418 166.124V169.796H286.226L289.466 165.38C289.43 165.632 289.418 165.92 289.418 166.124ZM293.506 172.04H292.414V173.168H293.506V172.04ZM301.288 164.912V164.204H295.504V165.14H300.1L299.692 165.812L296.104 173H297.316L301.288 164.912ZM306.336 169.556C306.912 169.556 307.512 169.22 308.004 168.356L307.38 167.912C307.08 168.488 306.744 168.728 306.36 168.728C305.592 168.728 305.04 167.6 303.984 167.6C303.396 167.6 302.796 167.936 302.304 168.8L302.916 169.232C303.24 168.656 303.564 168.416 303.948 168.416C304.716 168.416 305.268 169.556 306.336 169.556ZM310.772 167.48L311.168 165.176H314.612V164.168H310.4L309.68 168.332L310.388 168.536C310.904 168.356 311.36 168.248 311.828 168.248C313.088 168.248 313.832 168.92 313.832 170.072C313.832 171.368 312.956 172.124 311.744 172.124C311.024 172.124 310.328 171.8 309.8 171.356L309.212 172.16C309.752 172.676 310.64 173.108 311.696 173.108C313.484 173.108 314.888 171.884 314.888 170.012C314.888 168.476 313.892 167.324 312.032 167.324C311.6 167.324 311.18 167.372 310.772 167.48ZM317.225 172.04H316.133V173.168H317.225V172.04ZM325.007 164.912V164.204H319.223V165.14H323.819L323.411 165.812L319.823 173H321.035L325.007 164.912Z" fill="#C2C2C2"/>
<rect x="246" y="164" width="8" height="8" fill="url(#paint1_linear_48_89)" fill-opacity="0.2"/>
<defs>
<linearGradient id="paint0_linear_48_89" x1="219.5" y1="44" x2="219.5" y2="113" gradientUnits="userSpaceOnUse">
<stop stop-color="#FD557A"/>
<stop offset="1" stop-color="#1E76FC"/>
</linearGradient>
<linearGradient id="paint1_linear_48_89" x1="250" y1="164" x2="250" y2="172" gradientUnits="userSpaceOnUse">
<stop stop-color="#FD557A"/>
<stop offset="1" stop-color="#1E76FC"/>
</linearGradient>
</defs>
</svg>
