<svg width="395" height="257" viewBox="0 0 395 257" fill="none" xmlns="http://www.w3.org/2000/svg">
<path d="M80.7146 245.204H78.5066V254H80.7626C83.4026 254 84.8666 252.356 84.8666 249.572C84.8666 246.704 83.4866 245.204 80.7146 245.204ZM80.6186 253.088H79.6226V246.104H80.6186C82.7426 246.104 83.7146 247.304 83.7146 249.572C83.7146 251.792 82.6946 253.088 80.6186 253.088ZM92.3729 249.62C92.3729 246.488 90.9569 245.06 89.1449 245.06C87.3209 245.06 85.9169 246.488 85.9169 249.62C85.9169 252.74 87.3209 254.168 89.1449 254.168C90.9569 254.168 92.3729 252.74 92.3729 249.62ZM91.2689 249.62C91.2689 252.356 90.2609 253.28 89.1449 253.28C88.0289 253.28 87.0329 252.356 87.0329 249.62C87.0329 246.872 88.0289 245.96 89.1449 245.96C90.2609 245.96 91.2689 246.872 91.2689 249.62Z" fill="#C2C2C2"/>
<path d="M74.1298 238V237.186H72.5458V229.893H71.7428L69.5758 231.763L70.1148 232.412L71.5777 231.103C71.5668 231.18 71.5668 231.279 71.5668 231.378V237.186H69.7738V238H74.1298ZM81.1555 233.985C81.1555 231.114 79.8575 229.805 78.1965 229.805C76.5245 229.805 75.2375 231.114 75.2375 233.985C75.2375 236.845 76.5245 238.154 78.1965 238.154C79.8575 238.154 81.1555 236.845 81.1555 233.985ZM80.1435 233.985C80.1435 236.493 79.2195 237.34 78.1965 237.34C77.1735 237.34 76.2605 236.493 76.2605 233.985C76.2605 231.466 77.1735 230.63 78.1965 230.63C79.2195 230.63 80.1435 231.466 80.1435 233.985ZM85.5852 234.843C86.1132 234.843 86.6632 234.535 87.1142 233.743L86.5422 233.336C86.2672 233.864 85.9592 234.084 85.6072 234.084C84.9032 234.084 84.3972 233.05 83.4292 233.05C82.8902 233.05 82.3402 233.358 81.8892 234.15L82.4502 234.546C82.7472 234.018 83.0442 233.798 83.3962 233.798C84.1002 233.798 84.6062 234.843 85.5852 234.843ZM93.3368 238V237.186H91.7528V229.893H90.9498L88.7828 231.763L89.3218 232.412L90.7848 231.103C90.7738 231.18 90.7738 231.279 90.7738 231.378V237.186H88.9808V238H93.3368ZM98.1185 234.799L95.6105 238H96.8755L99.0865 234.953C99.7025 234.106 100.055 233.369 100.055 232.412C100.055 230.839 99.0095 229.739 97.4255 229.739C95.8195 229.739 94.6865 230.894 94.6865 232.335C94.6865 233.864 95.7425 234.7 97.0075 234.7C97.6125 234.7 98.1295 234.524 98.5585 234.183C98.4815 234.282 98.3495 234.491 98.1185 234.799ZM95.7095 232.258C95.7095 231.279 96.3915 230.608 97.4145 230.608C98.3605 230.608 99.0755 231.235 99.0755 232.291C99.0755 233.138 98.4375 233.908 97.3375 233.908C96.3255 233.908 95.7095 233.325 95.7095 232.258Z" fill="#C2C2C2"/>
<path d="M120.461 245.204H118.253V254H120.509C123.149 254 124.613 252.356 124.613 249.572C124.613 246.704 123.233 245.204 120.461 245.204ZM120.365 253.088H119.369V246.104H120.365C122.489 246.104 123.461 247.304 123.461 249.572C123.461 251.792 122.441 253.088 120.365 253.088ZM125.747 249.98H128.183V252.608H129.059V249.98H131.495V249.164H129.059V246.548H128.183V249.164H125.747V249.98Z" fill="#C2C2C2"/>
<path d="M114.339 238V237.109H111.16C110.885 237.109 110.555 237.153 110.247 237.241L112.502 235.008C113.415 234.095 114.185 233.259 114.185 232.06C114.185 230.63 113.118 229.794 111.743 229.794C110.368 229.794 109.301 230.597 109.092 232.082L110.082 232.247C110.082 231.323 110.764 230.663 111.688 230.663C112.524 230.663 113.14 231.114 113.173 232.082C113.173 233.028 112.557 233.721 111.71 234.623L108.927 237.296V238H114.339ZM121.155 233.985C121.155 231.114 119.857 229.805 118.196 229.805C116.524 229.805 115.237 231.114 115.237 233.985C115.237 236.845 116.524 238.154 118.196 238.154C119.857 238.154 121.155 236.845 121.155 233.985ZM120.143 233.985C120.143 236.493 119.219 237.34 118.196 237.34C117.173 237.34 116.26 236.493 116.26 233.985C116.26 231.466 117.173 230.63 118.196 230.63C119.219 230.63 120.143 231.466 120.143 233.985ZM125.585 234.843C126.113 234.843 126.663 234.535 127.114 233.743L126.542 233.336C126.267 233.864 125.959 234.084 125.607 234.084C124.903 234.084 124.397 233.05 123.429 233.05C122.89 233.05 122.34 233.358 121.889 234.15L122.45 234.546C122.747 234.018 123.044 233.798 123.396 233.798C124.1 233.798 124.606 234.843 125.585 234.843ZM128.332 232.104L129.333 232.269C129.333 231.367 130.004 230.685 130.928 230.685C131.775 230.685 132.369 231.136 132.369 232.06C132.369 232.896 131.863 233.479 130.444 233.512V234.238C132.171 234.238 132.534 234.876 132.534 235.745C132.534 236.46 131.973 237.274 130.818 237.274C129.982 237.274 129.487 236.845 129.146 236.141C129.058 235.932 129.003 235.767 128.981 235.646L128.079 236.02C128.464 237.208 129.091 238.143 130.829 238.143C132.336 238.143 133.557 237.197 133.557 235.723C133.557 234.711 133.007 234.04 131.951 233.776C132.831 233.479 133.37 232.951 133.37 231.895C133.37 230.663 132.38 229.805 130.983 229.805C129.608 229.805 128.541 230.641 128.332 232.104ZM136.205 232.94L136.568 230.828H139.725V229.904H135.864L135.204 233.721L135.853 233.908C136.326 233.743 136.744 233.644 137.173 233.644C138.328 233.644 139.01 234.26 139.01 235.316C139.01 236.504 138.207 237.197 137.096 237.197C136.436 237.197 135.798 236.9 135.314 236.493L134.775 237.23C135.27 237.703 136.084 238.099 137.052 238.099C138.691 238.099 139.978 236.977 139.978 235.261C139.978 233.853 139.065 232.797 137.36 232.797C136.964 232.797 136.579 232.841 136.205 232.94Z" fill="#C2C2C2"/>
<path d="M161.624 254.156C162.776 254.156 163.604 253.712 164.324 252.896L163.712 252.2C163.148 252.812 162.536 253.184 161.672 253.184C159.992 253.184 158.936 251.792 158.936 249.572C158.936 247.364 160.04 246.008 161.708 246.008C162.476 246.008 163.04 246.356 163.508 246.848L164.108 246.128C163.604 245.564 162.764 245.036 161.696 245.036C159.452 245.036 157.796 246.764 157.796 249.608C157.796 252.452 159.452 254.156 161.624 254.156ZM171.58 249.62C171.58 246.488 170.164 245.06 168.352 245.06C166.528 245.06 165.124 246.488 165.124 249.62C165.124 252.74 166.528 254.168 168.352 254.168C170.164 254.168 171.58 252.74 171.58 249.62ZM170.476 249.62C170.476 252.356 169.468 253.28 168.352 253.28C167.236 253.28 166.24 252.356 166.24 249.62C166.24 246.872 167.236 245.96 168.352 245.96C169.468 245.96 170.476 246.872 170.476 249.62Z" fill="#C2C2C2"/>
<path d="M149.125 232.104L150.126 232.269C150.126 231.367 150.797 230.685 151.721 230.685C152.568 230.685 153.162 231.136 153.162 232.06C153.162 232.896 152.656 233.479 151.237 233.512V234.238C152.964 234.238 153.327 234.876 153.327 235.745C153.327 236.46 152.766 237.274 151.611 237.274C150.775 237.274 150.28 236.845 149.939 236.141C149.851 235.932 149.796 235.767 149.774 235.646L148.872 236.02C149.257 237.208 149.884 238.143 151.622 238.143C153.129 238.143 154.35 237.197 154.35 235.723C154.35 234.711 153.8 234.04 152.744 233.776C153.624 233.479 154.163 232.951 154.163 231.895C154.163 230.663 153.173 229.805 151.776 229.805C150.401 229.805 149.334 230.641 149.125 232.104ZM157.547 232.94L159.978 229.893H158.713L156.469 232.918C155.765 233.842 155.468 234.656 155.468 235.371C155.468 237.043 156.535 238.143 158.174 238.143C159.824 238.143 160.968 236.977 160.968 235.481C160.968 233.93 159.868 233.05 158.548 233.05C158.009 233.05 157.558 233.204 157.162 233.468C157.239 233.38 157.36 233.204 157.547 232.94ZM158.152 237.296C157.052 237.296 156.447 236.592 156.447 235.536C156.447 234.623 157.14 233.831 158.218 233.831C159.219 233.831 159.956 234.491 159.956 235.558C159.956 236.559 159.219 237.296 158.152 237.296ZM165.585 234.843C166.113 234.843 166.663 234.535 167.114 233.743L166.542 233.336C166.267 233.864 165.959 234.084 165.607 234.084C164.903 234.084 164.397 233.05 163.429 233.05C162.89 233.05 162.34 233.358 161.889 234.15L162.45 234.546C162.747 234.018 163.044 233.798 163.396 233.798C164.1 233.798 164.606 234.843 165.585 234.843ZM173.931 235.855V235.063H172.71V229.849H171.764L167.793 235.107V235.855H171.819V238H172.71V235.855H173.931ZM171.819 231.697V235.063H168.893L171.863 231.015C171.83 231.246 171.819 231.51 171.819 231.697ZM176.205 232.94L176.568 230.828H179.725V229.904H175.864L175.204 233.721L175.853 233.908C176.326 233.743 176.744 233.644 177.173 233.644C178.328 233.644 179.01 234.26 179.01 235.316C179.01 236.504 178.207 237.197 177.096 237.197C176.436 237.197 175.798 236.9 175.314 236.493L174.775 237.23C175.27 237.703 176.084 238.099 177.052 238.099C178.691 238.099 179.978 236.977 179.978 235.261C179.978 233.853 179.065 232.797 177.36 232.797C176.964 232.797 176.579 232.841 176.205 232.94Z" fill="#C2C2C2"/>
<path d="M201.87 254.156C203.022 254.156 203.85 253.712 204.57 252.896L203.958 252.2C203.394 252.812 202.782 253.184 201.918 253.184C200.238 253.184 199.182 251.792 199.182 249.572C199.182 247.364 200.286 246.008 201.954 246.008C202.722 246.008 203.286 246.356 203.754 246.848L204.354 246.128C203.85 245.564 203.01 245.036 201.942 245.036C199.698 245.036 198.042 246.764 198.042 249.608C198.042 252.452 199.698 254.156 201.87 254.156ZM205.454 249.98H207.89V252.608H208.766V249.98H211.202V249.164H208.766V246.548H207.89V249.164H205.454V249.98Z" fill="#C2C2C2"/>
<path d="M15 145H395" stroke="#DFE0EB" stroke-dasharray="2 3"/>
<path d="M15 183H395" stroke="#DFE0EB" stroke-dasharray="2 3"/>
<path d="M194.724 235.855V235.063H193.503V229.849H192.557L188.586 235.107V235.855H192.612V238H193.503V235.855H194.724ZM192.612 231.697V235.063H189.686L192.656 231.015C192.623 231.246 192.612 231.51 192.612 231.697ZM197.547 232.94L199.978 229.893H198.713L196.469 232.918C195.765 233.842 195.468 234.656 195.468 235.371C195.468 237.043 196.535 238.143 198.174 238.143C199.824 238.143 200.968 236.977 200.968 235.481C200.968 233.93 199.868 233.05 198.548 233.05C198.009 233.05 197.558 233.204 197.162 233.468C197.239 233.38 197.36 233.204 197.547 232.94ZM198.152 237.296C197.052 237.296 196.447 236.592 196.447 235.536C196.447 234.623 197.14 233.831 198.218 233.831C199.219 233.831 199.956 234.491 199.956 235.558C199.956 236.559 199.219 237.296 198.152 237.296ZM205.585 234.843C206.113 234.843 206.663 234.535 207.114 233.743L206.542 233.336C206.267 233.864 205.959 234.084 205.607 234.084C204.903 234.084 204.397 233.05 203.429 233.05C202.89 233.05 202.34 233.358 201.889 234.15L202.45 234.546C202.747 234.018 203.044 233.798 203.396 233.798C204.1 233.798 204.606 234.843 205.585 234.843ZM209.652 232.94L210.015 230.828H213.172V229.904H209.311L208.651 233.721L209.3 233.908C209.773 233.743 210.191 233.644 210.62 233.644C211.775 233.644 212.457 234.26 212.457 235.316C212.457 236.504 211.654 237.197 210.543 237.197C209.883 237.197 209.245 236.9 208.761 236.493L208.222 237.23C208.717 237.703 209.531 238.099 210.499 238.099C212.138 238.099 213.425 236.977 213.425 235.261C213.425 233.853 212.512 232.797 210.807 232.797C210.411 232.797 210.026 232.841 209.652 232.94ZM218.119 234.799L215.611 238H216.876L219.087 234.953C219.703 234.106 220.055 233.369 220.055 232.412C220.055 230.839 219.01 229.739 217.426 229.739C215.82 229.739 214.687 230.894 214.687 232.335C214.687 233.864 215.743 234.7 217.008 234.7C217.613 234.7 218.13 234.524 218.559 234.183C218.482 234.282 218.35 234.491 218.119 234.799ZM215.71 232.258C215.71 231.279 216.392 230.608 217.415 230.608C218.361 230.608 219.076 231.235 219.076 232.291C219.076 233.138 218.438 233.908 217.338 233.908C216.326 233.908 215.71 233.325 215.71 232.258Z" fill="#C2C2C2"/>
<path d="M240.298 245.204H237.682V254H240.49C242.458 254 243.826 253.148 243.826 251.42C243.826 250.22 243.082 249.524 242.026 249.32V249.26C242.854 248.984 243.322 248.228 243.322 247.352C243.322 245.816 242.086 245.204 240.298 245.204ZM240.106 248.948H238.798V246.08H240.154C241.558 246.08 242.23 246.44 242.23 247.496C242.23 248.396 241.63 248.948 240.106 248.948ZM240.334 253.112H238.798V249.8H240.334C241.882 249.8 242.734 250.28 242.734 251.384C242.734 252.584 241.882 253.112 240.334 253.112ZM251.197 249.62C251.197 246.488 249.781 245.06 247.969 245.06C246.145 245.06 244.741 246.488 244.741 249.62C244.741 252.74 246.145 254.168 247.969 254.168C249.781 254.168 251.197 252.74 251.197 249.62ZM250.093 249.62C250.093 252.356 249.085 253.28 247.969 253.28C246.853 253.28 245.857 252.356 245.857 249.62C245.857 246.872 246.853 245.96 247.969 245.96C249.085 245.96 250.093 246.872 250.093 249.62Z" fill="#C2C2C2"/>
<path d="M230.995 232.94L233.426 229.893H232.161L229.917 232.918C229.213 233.842 228.916 234.656 228.916 235.371C228.916 237.043 229.983 238.143 231.622 238.143C233.272 238.143 234.416 236.977 234.416 235.481C234.416 233.93 233.316 233.05 231.996 233.05C231.457 233.05 231.006 233.204 230.61 233.468C230.687 233.38 230.808 233.204 230.995 232.94ZM231.6 237.296C230.5 237.296 229.895 236.592 229.895 235.536C229.895 234.623 230.588 233.831 231.666 233.831C232.667 233.831 233.404 234.491 233.404 235.558C233.404 236.559 232.667 237.296 231.6 237.296ZM241.155 233.985C241.155 231.114 239.857 229.805 238.196 229.805C236.524 229.805 235.237 231.114 235.237 233.985C235.237 236.845 236.524 238.154 238.196 238.154C239.857 238.154 241.155 236.845 241.155 233.985ZM240.143 233.985C240.143 236.493 239.219 237.34 238.196 237.34C237.173 237.34 236.26 236.493 236.26 233.985C236.26 231.466 237.173 230.63 238.196 230.63C239.219 230.63 240.143 231.466 240.143 233.985ZM245.585 234.843C246.113 234.843 246.663 234.535 247.114 233.743L246.542 233.336C246.267 233.864 245.959 234.084 245.607 234.084C244.903 234.084 244.397 233.05 243.429 233.05C242.89 233.05 242.34 233.358 241.889 234.15L242.45 234.546C242.747 234.018 243.044 233.798 243.396 233.798C244.1 233.798 244.606 234.843 245.585 234.843ZM253.612 230.586V229.937H248.31V230.795H252.523L252.149 231.411L248.86 238H249.971L253.612 230.586ZM256.205 232.94L256.568 230.828H259.725V229.904H255.864L255.204 233.721L255.853 233.908C256.326 233.743 256.744 233.644 257.173 233.644C258.328 233.644 259.01 234.26 259.01 235.316C259.01 236.504 258.207 237.197 257.096 237.197C256.436 237.197 255.798 236.9 255.314 236.493L254.775 237.23C255.27 237.703 256.084 238.099 257.052 238.099C258.691 238.099 259.978 236.977 259.978 235.261C259.978 233.853 259.065 232.797 257.36 232.797C256.964 232.797 256.579 232.841 256.205 232.94Z" fill="#C2C2C2"/>
<path d="M281.045 245.204H278.429V254H281.237C283.205 254 284.573 253.148 284.573 251.42C284.573 250.22 283.829 249.524 282.773 249.32V249.26C283.601 248.984 284.069 248.228 284.069 247.352C284.069 245.816 282.833 245.204 281.045 245.204ZM280.853 248.948H279.545V246.08H280.901C282.305 246.08 282.977 246.44 282.977 247.496C282.977 248.396 282.377 248.948 280.853 248.948ZM281.081 253.112H279.545V249.8H281.081C282.629 249.8 283.481 250.28 283.481 251.384C283.481 252.584 282.629 253.112 281.081 253.112ZM285.571 249.98H288.007V252.608H288.883V249.98H291.319V249.164H288.883V246.548H288.007V249.164H285.571V249.98Z" fill="#C2C2C2"/>
<path d="M274.405 230.586V229.937H269.103V230.795H273.316L272.942 231.411L269.653 238H270.764L274.405 230.586ZM277.547 232.94L279.978 229.893H278.713L276.469 232.918C275.765 233.842 275.468 234.656 275.468 235.371C275.468 237.043 276.535 238.143 278.174 238.143C279.824 238.143 280.968 236.977 280.968 235.481C280.968 233.93 279.868 233.05 278.548 233.05C278.009 233.05 277.558 233.204 277.162 233.468C277.239 233.38 277.36 233.204 277.547 232.94ZM278.152 237.296C277.052 237.296 276.447 236.592 276.447 235.536C276.447 234.623 277.14 233.831 278.218 233.831C279.219 233.831 279.956 234.491 279.956 235.558C279.956 236.559 279.219 237.296 278.152 237.296ZM285.585 234.843C286.113 234.843 286.663 234.535 287.114 233.743L286.542 233.336C286.267 233.864 285.959 234.084 285.607 234.084C284.903 234.084 284.397 233.05 283.429 233.05C282.89 233.05 282.34 233.358 281.889 234.15L282.45 234.546C282.747 234.018 283.044 233.798 283.396 233.798C284.1 233.798 284.606 234.843 285.585 234.843ZM292.006 233.798C292.886 233.479 293.326 232.841 293.326 231.906C293.326 230.718 292.303 229.739 290.829 229.739C289.3 229.739 288.332 230.718 288.332 231.906C288.332 232.83 288.794 233.479 289.63 233.798C288.618 234.073 288.035 234.777 288.035 235.833C288.035 237.274 289.179 238.187 290.829 238.187C292.457 238.187 293.601 237.274 293.601 235.833C293.601 234.777 293.029 234.073 292.006 233.798ZM290.829 230.542C291.819 230.542 292.303 231.169 292.303 231.939C292.303 232.676 291.918 233.413 290.829 233.413C289.718 233.413 289.333 232.676 289.333 231.939C289.333 231.169 289.817 230.542 290.829 230.542ZM290.829 237.362C289.729 237.362 289.102 236.746 289.102 235.822C289.102 234.689 289.905 234.216 290.829 234.216C291.742 234.216 292.534 234.689 292.534 235.822C292.534 236.746 291.929 237.362 290.829 237.362ZM296.205 232.94L296.568 230.828H299.725V229.904H295.864L295.204 233.721L295.853 233.908C296.326 233.743 296.744 233.644 297.173 233.644C298.328 233.644 299.01 234.26 299.01 235.316C299.01 236.504 298.207 237.197 297.096 237.197C296.436 237.197 295.798 236.9 295.314 236.493L294.775 237.23C295.27 237.703 296.084 238.099 297.052 238.099C298.691 238.099 299.978 236.977 299.978 235.261C299.978 233.853 299.065 232.797 297.36 232.797C296.964 232.797 296.579 232.841 296.205 232.94Z" fill="#C2C2C2"/>
<path d="M319.297 251.312H322.513L323.353 254H324.529L321.541 245.204H320.305L317.317 254H318.445L319.297 251.312ZM321.817 249.08L322.237 250.424H319.573L320.005 249.08C320.329 248.072 320.605 247.16 320.881 246.104H320.929C321.217 247.124 321.493 248.072 321.817 249.08ZM331.398 249.62C331.398 246.488 329.982 245.06 328.17 245.06C326.346 245.06 324.942 246.488 324.942 249.62C324.942 252.74 326.346 254.168 328.17 254.168C329.982 254.168 331.398 252.74 331.398 249.62ZM330.294 249.62C330.294 252.356 329.286 253.28 328.17 253.28C327.054 253.28 326.058 252.356 326.058 249.62C326.058 246.872 327.054 245.96 328.17 245.96C329.286 245.96 330.294 246.872 330.294 249.62Z" fill="#C2C2C2"/>
<path d="M312.799 233.798C313.679 233.479 314.119 232.841 314.119 231.906C314.119 230.718 313.096 229.739 311.622 229.739C310.093 229.739 309.125 230.718 309.125 231.906C309.125 232.83 309.587 233.479 310.423 233.798C309.411 234.073 308.828 234.777 308.828 235.833C308.828 237.274 309.972 238.187 311.622 238.187C313.25 238.187 314.394 237.274 314.394 235.833C314.394 234.777 313.822 234.073 312.799 233.798ZM311.622 230.542C312.612 230.542 313.096 231.169 313.096 231.939C313.096 232.676 312.711 233.413 311.622 233.413C310.511 233.413 310.126 232.676 310.126 231.939C310.126 231.169 310.61 230.542 311.622 230.542ZM311.622 237.362C310.522 237.362 309.895 236.746 309.895 235.822C309.895 234.689 310.698 234.216 311.622 234.216C312.535 234.216 313.327 234.689 313.327 235.822C313.327 236.746 312.722 237.362 311.622 237.362ZM317.547 232.94L319.978 229.893H318.713L316.469 232.918C315.765 233.842 315.468 234.656 315.468 235.371C315.468 237.043 316.535 238.143 318.174 238.143C319.824 238.143 320.968 236.977 320.968 235.481C320.968 233.93 319.868 233.05 318.548 233.05C318.009 233.05 317.558 233.204 317.162 233.468C317.239 233.38 317.36 233.204 317.547 232.94ZM318.152 237.296C317.052 237.296 316.447 236.592 316.447 235.536C316.447 234.623 317.14 233.831 318.218 233.831C319.219 233.831 319.956 234.491 319.956 235.558C319.956 236.559 319.219 237.296 318.152 237.296ZM325.585 234.843C326.113 234.843 326.663 234.535 327.114 233.743L326.542 233.336C326.267 233.864 325.959 234.084 325.607 234.084C324.903 234.084 324.397 233.05 323.429 233.05C322.89 233.05 322.34 233.358 321.889 234.15L322.45 234.546C322.747 234.018 323.044 233.798 323.396 233.798C324.1 233.798 324.606 234.843 325.585 234.843ZM331.566 234.799L329.058 238H330.323L332.534 234.953C333.15 234.106 333.502 233.369 333.502 232.412C333.502 230.839 332.457 229.739 330.873 229.739C329.267 229.739 328.134 230.894 328.134 232.335C328.134 233.864 329.19 234.7 330.455 234.7C331.06 234.7 331.577 234.524 332.006 234.183C331.929 234.282 331.797 234.491 331.566 234.799ZM329.157 232.258C329.157 231.279 329.839 230.608 330.862 230.608C331.808 230.608 332.523 231.235 332.523 232.291C332.523 233.138 331.885 233.908 330.785 233.908C329.773 233.908 329.157 233.325 329.157 232.258ZM334.885 232.104L335.886 232.269C335.886 231.367 336.557 230.685 337.481 230.685C338.328 230.685 338.922 231.136 338.922 232.06C338.922 232.896 338.416 233.479 336.997 233.512V234.238C338.724 234.238 339.087 234.876 339.087 235.745C339.087 236.46 338.526 237.274 337.371 237.274C336.535 237.274 336.04 236.845 335.699 236.141C335.611 235.932 335.556 235.767 335.534 235.646L334.632 236.02C335.017 237.208 335.644 238.143 337.382 238.143C338.889 238.143 340.11 237.197 340.11 235.723C340.11 234.711 339.56 234.04 338.504 233.776C339.384 233.479 339.923 232.951 339.923 231.895C339.923 230.663 338.933 229.805 337.536 229.805C336.161 229.805 335.094 230.641 334.885 232.104Z" fill="#C2C2C2"/>
<path d="M360.043 251.312H363.259L364.099 254H365.275L362.287 245.204H361.051L358.063 254H359.191L360.043 251.312ZM362.563 249.08L362.983 250.424H360.319L360.751 249.08C361.075 248.072 361.351 247.16 361.627 246.104H361.675C361.963 247.124 362.239 248.072 362.563 249.08ZM365.772 249.98H368.208V252.608H369.084V249.98H371.52V249.164H369.084V246.548H368.208V249.164H365.772V249.98Z" fill="#C2C2C2"/>
<path d="M349.082 234.799L346.574 238H347.839L350.05 234.953C350.666 234.106 351.018 233.369 351.018 232.412C351.018 230.839 349.973 229.739 348.389 229.739C346.783 229.739 345.65 230.894 345.65 232.335C345.65 233.864 346.706 234.7 347.971 234.7C348.576 234.7 349.093 234.524 349.522 234.183C349.445 234.282 349.313 234.491 349.082 234.799ZM346.673 232.258C346.673 231.279 347.355 230.608 348.378 230.608C349.324 230.608 350.039 231.235 350.039 232.291C350.039 233.138 349.401 233.908 348.301 233.908C347.289 233.908 346.673 233.325 346.673 232.258ZM358 235.855V235.063H356.779V229.849H355.833L351.862 235.107V235.855H355.888V238H356.779V235.855H358ZM355.888 231.697V235.063H352.962L355.932 231.015C355.899 231.246 355.888 231.51 355.888 231.697ZM362.309 234.843C362.837 234.843 363.387 234.535 363.838 233.743L363.266 233.336C362.991 233.864 362.683 234.084 362.331 234.084C361.627 234.084 361.121 233.05 360.153 233.05C359.614 233.05 359.064 233.358 358.613 234.15L359.174 234.546C359.471 234.018 359.768 233.798 360.12 233.798C360.824 233.798 361.33 234.843 362.309 234.843ZM370.06 238V237.186H368.476V229.893H367.673L365.506 231.763L366.045 232.412L367.508 231.103C367.497 231.18 367.497 231.279 367.497 231.378V237.186H365.704V238H370.06ZM377.086 233.985C377.086 231.114 375.788 229.805 374.127 229.805C372.455 229.805 371.168 231.114 371.168 233.985C371.168 236.845 372.455 238.154 374.127 238.154C375.788 238.154 377.086 236.845 377.086 233.985ZM376.074 233.985C376.074 236.493 375.15 237.34 374.127 237.34C373.104 237.34 372.191 236.493 372.191 233.985C372.191 231.466 373.104 230.63 374.127 230.63C375.15 230.63 376.074 231.466 376.074 233.985ZM383.639 233.985C383.639 231.114 382.341 229.805 380.68 229.805C379.008 229.805 377.721 231.114 377.721 233.985C377.721 236.845 379.008 238.154 380.68 238.154C382.341 238.154 383.639 236.845 383.639 233.985ZM382.627 233.985C382.627 236.493 381.703 237.34 380.68 237.34C379.657 237.34 378.744 236.493 378.744 233.985C378.744 231.466 379.657 230.63 380.68 230.63C381.703 230.63 382.627 231.466 382.627 233.985Z" fill="#C2C2C2"/>
<path d="M6.804 221.572C6.804 219.532 6.072 217.036 3.564 217.036C1.092 217.036 0.336 219.46 0.336 221.572C0.336 223.684 1.092 226.096 3.564 226.096C6.036 226.096 6.804 223.684 6.804 221.572ZM5.436 221.572C5.436 222.808 5.22 224.992 3.564 224.992C1.92 224.992 1.692 222.808 1.692 221.572C1.692 220.336 1.908 218.152 3.564 218.152C5.22 218.152 5.436 220.336 5.436 221.572Z" fill="#C2C2C2"/>
<path d="M1.164 141.168V150H2.484V145.836C2.484 144.876 2.388 143.856 2.304 142.944H2.364L3.288 144.792L6.216 150H7.644V141.168H6.324V145.284C6.324 146.244 6.42 147.312 6.504 148.224H6.444L5.52 146.352L2.592 141.168H1.164Z" fill="#C2C2C2"/>
<path d="M48.4655 245.204H43.3895V254H44.5055V250.052H47.8655V249.116H44.5055V246.14H48.4655V245.204Z" fill="#C2C2C2"/>
<path d="M41.6555 233.985C41.6555 231.114 40.3575 229.805 38.6965 229.805C37.0245 229.805 35.7375 231.114 35.7375 233.985C35.7375 236.845 37.0245 238.154 38.6965 238.154C40.3575 238.154 41.6555 236.845 41.6555 233.985ZM40.6435 233.985C40.6435 236.493 39.7195 237.34 38.6965 237.34C37.6735 237.34 36.7605 236.493 36.7605 233.985C36.7605 231.466 37.6735 230.63 38.6965 230.63C39.7195 230.63 40.6435 231.466 40.6435 233.985ZM46.0852 234.843C46.6132 234.843 47.1632 234.535 47.6142 233.743L47.0422 233.336C46.7672 233.864 46.4592 234.084 46.1072 234.084C45.4032 234.084 44.8972 233.05 43.9292 233.05C43.3902 233.05 42.8402 233.358 42.3892 234.15L42.9502 234.546C43.2472 234.018 43.5442 233.798 43.8962 233.798C44.6002 233.798 45.1062 234.843 46.0852 234.843ZM52.0658 234.799L49.5578 238H50.8228L53.0338 234.953C53.6498 234.106 54.0018 233.369 54.0018 232.412C54.0018 230.839 52.9568 229.739 51.3728 229.739C49.7668 229.739 48.6338 230.894 48.6338 232.335C48.6338 233.864 49.6898 234.7 50.9548 234.7C51.5598 234.7 52.0768 234.524 52.5058 234.183C52.4288 234.282 52.2968 234.491 52.0658 234.799ZM49.6568 232.258C49.6568 231.279 50.3388 230.608 51.3618 230.608C52.3078 230.608 53.0228 231.235 53.0228 232.291C53.0228 233.138 52.3848 233.908 51.2848 233.908C50.2728 233.908 49.6568 233.325 49.6568 232.258Z" fill="#C2C2C2"/>
<rect x="60" y="183" width="38" height="30" transform="rotate(90 60 183)" fill="#E8F1FF"/>
<rect x="100" y="183" width="38" height="30" transform="rotate(90 100 183)" fill="#E8F1FF"/>
<rect x="140" y="150" width="71" height="30" transform="rotate(90 140 150)" fill="#E8F1FF"/>
<rect x="180" y="150" width="71" height="30" transform="rotate(90 180 150)" fill="#E8F1FF"/>
<rect x="220" y="183" width="38" height="30" transform="rotate(90 220 183)" fill="#E8F1FF"/>
<rect x="260" y="161" width="60" height="30" transform="rotate(90 260 161)" fill="#E8F1FF"/>
<rect x="300" y="183" width="38" height="30" transform="rotate(90 300 183)" fill="#E8F1FF"/>
<rect x="340" y="198" width="23" height="30" transform="rotate(90 340 198)" fill="#1E76FC"/>
<path d="M324 12.3757C328.418 12.3757 332 9.73677 332 6.48149C332 3.22621 328.418 0.58728 324 0.58728C319.582 0.58728 316 3.22621 316 6.48149C316 9.73677 319.582 12.3757 324 12.3757Z" fill="white" stroke="#1E76FC" stroke-width="0.7" stroke-miterlimit="10"/>
<path d="M322.283 7.78606C322.704 7.78606 323.045 7.53448 323.045 7.22415C323.045 6.91381 322.704 6.66223 322.283 6.66223C321.861 6.66223 321.52 6.91381 321.52 7.22415C321.52 7.53448 321.861 7.78606 322.283 7.78606Z" fill="#1E76FC"/>
<path d="M325.717 7.78606C326.138 7.78606 326.48 7.53448 326.48 7.22415C326.48 6.91381 326.138 6.66223 325.717 6.66223C325.296 6.66223 324.955 6.91381 324.955 7.22415C324.955 7.53448 325.296 7.78606 325.717 7.78606Z" fill="#1E76FC"/>
<path d="M325.205 8.23795C325.205 7.74677 324.667 7.82536 324 7.82536C323.333 7.82536 322.795 7.74677 322.795 8.23795C322.795 8.72914 323.333 9.12601 324 9.12601C324.667 9.12601 325.205 8.72914 325.205 8.23795Z" fill="#1E76FC"/>
<path d="M309.825 163.008H316.425V163.392C316.425 165.024 316.353 166.44 316.053 168.06L317.025 168.18C317.409 166.164 317.409 164.76 317.409 163.392V162.204H309.825V163.008ZM318.549 170.376V169.572H314.841V166.008H313.869V169.572H312.177V166.008H311.205V169.572H308.817V170.376H318.549ZM324.476 165.492C326.804 165.492 328.256 164.736 328.256 163.44C328.256 162.144 326.804 161.376 324.476 161.376C322.16 161.376 320.696 162.144 320.696 163.44C320.696 164.736 322.16 165.492 324.476 165.492ZM324.476 162.156C326.216 162.156 327.248 162.624 327.248 163.44C327.248 164.256 326.216 164.724 324.476 164.724C322.736 164.724 321.704 164.256 321.704 163.44C321.704 162.624 322.736 162.156 324.476 162.156ZM326.78 168.468V167.1H329.348V166.308H319.616V167.1H322.184V168.468H320.696V169.26H327.164V171.9H328.148V168.468H326.78ZM323.168 167.1H325.796V168.468H323.168V167.1ZM336.248 167.424H337.184V164.82H338.552V167.772H339.5V161.136H338.552V164.016H337.184V161.34H336.248V167.424ZM335.276 166.932L335.804 166.176C334.424 165.66 333.62 164.424 333.62 163.248V161.796H332.672V163.248C332.672 164.436 331.82 165.864 330.428 166.464L330.956 167.232C332.012 166.764 332.768 165.852 333.152 164.844C333.536 165.756 334.268 166.512 335.276 166.932ZM335.948 168.012C333.74 168.012 332.36 168.732 332.36 169.944C332.36 171.156 333.74 171.876 335.948 171.876C338.156 171.876 339.548 171.156 339.548 169.944C339.548 168.732 338.156 168.012 335.948 168.012ZM335.948 171.12C334.304 171.12 333.332 170.712 333.332 169.944C333.332 169.176 334.304 168.78 335.948 168.78C337.592 168.78 338.576 169.176 338.576 169.944C338.576 170.712 337.592 171.12 335.948 171.12Z" fill="#1E76FC"/>
<rect x="380" y="161" width="60" height="30" transform="rotate(90 380 161)" fill="#E8F1FF"/>
<path d="M285 221L285 164" stroke="#FABF48" stroke-width="0.8" stroke-dasharray="2 2"/>
<path fill-rule="evenodd" clip-rule="evenodd" d="M263 131C255.268 131 249 137.268 249 145C249 152.732 255.268 159 263 159H282.113L285 164L287.887 159H306C313.732 159 320 152.732 320 145C320 137.268 313.732 131 306 131H263Z" fill="#FABF48"/>
<path d="M266.732 143.78H268.508V145.76H269.504V139.136H268.508V141.044H266.732V141.848H268.508V142.976H266.732V143.78ZM267.02 144.764L266.96 144.032C266.516 144.092 266.036 144.14 265.556 144.176V140.732H266.624V139.94H260.96V140.732H262.028V144.296C261.788 144.308 261.56 144.308 261.332 144.308H260.672L260.78 145.124C262.52 145.124 264.944 145.088 267.02 144.764ZM262.976 144.284V140.732H264.596V144.224C264.056 144.26 263.504 144.272 262.976 144.284ZM265.952 145.988C263.684 145.988 262.364 146.672 262.364 147.92C262.364 149.168 263.684 149.876 265.952 149.876C268.172 149.876 269.528 149.168 269.528 147.92C269.528 146.672 268.172 145.988 265.952 145.988ZM265.952 149.108C264.308 149.108 263.348 148.688 263.348 147.92C263.348 147.188 264.308 146.744 265.952 146.744C267.596 146.744 268.556 147.188 268.556 147.92C268.556 148.688 267.596 149.108 265.952 149.108ZM281.203 144.548V143.744H279.691C279.943 142.4 279.943 141.392 279.943 140.516V139.7H272.659V140.504H278.971V140.516C278.971 141.392 278.983 142.388 278.707 143.744H271.435V144.548H274.675V147.14H275.635V144.548H277.531V147.14H278.491V144.548H281.203ZM280.231 148.844H273.595V146.276H272.623V149.648H280.231V148.844ZM290.761 141.26V140.084H284.713V141.56H288.997C288.913 141.668 288.829 141.812 288.745 141.98V141.992C288.733 141.992 288.733 142.004 288.733 142.004L288.685 142.1C288.685 142.1 288.685 142.1 288.673 142.112V142.124C288.601 142.244 288.493 142.46 288.445 142.544C287.425 144.74 286.309 146.792 285.289 149H287.125L290.761 141.26ZM295.089 143.42C294.717 143.42 294.393 143.468 294.117 143.564L293.985 143.624L294.285 143.336C295.161 142.22 296.013 141.128 296.925 140.012H294.909L292.473 143.3C291.789 144.26 291.405 145.184 291.405 146C291.405 147.932 292.617 149.228 294.561 149.228C296.493 149.228 297.789 147.848 297.789 146.156C297.789 144.32 296.481 143.42 295.089 143.42ZM292.989 146.24C292.989 145.28 293.589 144.668 294.549 144.668C295.521 144.668 296.181 145.196 296.181 146.252C296.181 147.224 295.449 147.872 294.537 147.872C293.613 147.872 292.989 147.26 292.989 146.24ZM307.65 145.364V138.98H306.066V141.536H304.398V142.82H306.066V145.364H307.65ZM304.302 145.184L305.07 143.948C303.39 143.372 302.61 142.076 302.574 140.804H304.722V139.544H298.782V140.804H300.954C300.918 142.184 300.114 143.564 298.35 144.14L299.154 145.4C300.45 144.968 301.302 144.116 301.794 143.012C302.274 144.02 303.09 144.788 304.302 145.184ZM307.65 145.82H300.294V149.9H307.65V145.82ZM306.102 148.664H301.854V147.056H306.102V148.664Z" fill="white"/>
<path d="M15 221H395" stroke="#DFE0EB"/>
</svg>
