<svg xmlns="http://www.w3.org/2000/svg" xmlns:xlink="http://www.w3.org/1999/xlink" width="40" height="40" viewBox="0 0 40 40">
  <defs>
    <clipPath id="clip-path">
      <rect id="사각형_27250" data-name="사각형 27250" width="40" height="40" transform="translate(306 634)" fill="#fff" stroke="#707070" stroke-width="1"/>
    </clipPath>
  </defs>
  <g id="icon_tendency25" transform="translate(-306 -634)" clip-path="url(#clip-path)">
    <path id="패스_10543" data-name="패스 10543" d="M19.747,14.109,19.5,14,22.735,6.42l.248.105Z" transform="translate(313.555 639.969)" fill="#ffaa30"/>
    <path id="패스_10671" data-name="패스 10671" d="M19.747,14.109,19.5,14,22.735,6.42l.248.105Z" transform="translate(292.741 639.969)" fill="#ffaa30"/>
    <path id="패스_10544" data-name="패스 10544" d="M25.38,14.109,22.144,6.525l.248-.105L25.628,14Z" transform="translate(314.148 639.969)" fill="#ffaa30"/>
    <path id="패스_10674" data-name="패스 10674" d="M25.38,14.109,22.144,6.525l.248-.105L25.628,14Z" transform="translate(293.333 639.969)" fill="#ffaa30"/>
    <path id="패스_10548" data-name="패스 10548" d="M14.993,2.988a61.912,61.912,0,0,0-8.425,3.76A6.634,6.634,0,0,1,1.2,7.225.9.9,0,0,0,0,8.07V8.1A.915.915,0,0,0,.761,9a8.936,8.936,0,0,0,5.854-.826c2.856-1.712,7-3.284,8.662-3.093S16.8,2.988,16.8,2.988Z" transform="translate(309.188 638.738)" fill="#ff6d02"/>
    <path id="패스_10549" data-name="패스 10549" d="M15.554,2.988a61.912,61.912,0,0,1,8.425,3.76,6.634,6.634,0,0,0,5.361.48A.917.917,0,1,1,29.785,9a8.936,8.936,0,0,1-5.854-.826c-2.856-1.712-7-3.284-8.662-3.093s-1.524-2.094-1.524-2.094Z" transform="translate(312.266 638.738)" fill="#ff6d02"/>
    <path id="패스_10545" data-name="패스 10545" d="M25.232,26.982h-.016A2.965,2.965,0,0,1,22.649,25.5l-3.321-3.864a4.251,4.251,0,0,0-7.362,0L8.644,25.5a2.964,2.964,0,0,1-2.567,1.482.824.824,0,0,0-.837.75.794.794,0,0,0,.793.836H25.261a.794.794,0,0,0,.778-.95.813.813,0,0,0-.808-.636" transform="translate(310.361 640.375)" fill="#ffaa30"/>
    <path id="패스_10546" data-name="패스 10546" d="M13.923,30.507h0c-.578,0-1.033-.729-.985-1.581l.45-6.361a75.144,75.144,0,0,0,0-10.578l-.45-6.361c-.048-.852.408-1.581.985-1.581s1.033.729.985,1.581l-.45,6.361a75.145,75.145,0,0,0,0,10.578l.45,6.361c.048.852-.408,1.581-.985,1.581" transform="translate(312.085 638.438)" fill="#ffaa30"/>
    <path id="패스_10547" data-name="패스 10547" d="M14.809,2.808a.3.3,0,0,1-.164-.432,3.633,3.633,0,0,0,.562-1.329,1.047,1.047,0,0,0-2.094,0,3.633,3.633,0,0,0,.562,1.329.3.3,0,0,1-.184.438,2.284,2.284,0,1,0,1.318-.006" transform="translate(311.848 637.531)" fill="#ffbf64"/>
    <path id="패스_10552" data-name="패스 10552" d="M19.426,12.382a.865.865,0,0,0-.853,1.044,4.618,4.618,0,0,0,9,0,.864.864,0,0,0-.852-1.044Z" transform="translate(313.343 640.305)" fill="#ffaa30"/>
    <path id="패스_10672" data-name="패스 10672" d="M19.426,12.382a.865.865,0,0,0-.853,1.044,4.618,4.618,0,0,0,9,0,.864.864,0,0,0-.852-1.044Z" transform="translate(292.529 640.305)" fill="#ffaa30"/>
    <path id="패스_10553" data-name="패스 10553" d="M25.991,12.382h-1.1a.864.864,0,0,1,.852,1.044,4.616,4.616,0,0,1-3.946,3.536,4.541,4.541,0,0,0,.551.037,4.62,4.62,0,0,0,4.5-3.573.865.865,0,0,0-.853-1.044" transform="translate(314.07 640.305)" fill="#ff960e"/>
    <path id="패스_10673" data-name="패스 10673" d="M25.991,12.382h-1.1a.864.864,0,0,1,.852,1.044,4.616,4.616,0,0,1-3.946,3.536,4.541,4.541,0,0,0,.551.037,4.62,4.62,0,0,0,4.5-3.573.865.865,0,0,0-.853-1.044" transform="translate(293.255 640.305)" fill="#ff960e"/>
  </g>
</svg>
