<svg xmlns="http://www.w3.org/2000/svg" width="103" height="40" viewBox="0 0 103 40">
  <g id="logo_text" transform="translate(-1600.06 -142.546)">
    <path id="패스_8967" data-name="패스 8967" d="M1617.771,813.524a2.437,2.437,0,0,1-.091.722,1.571,1.571,0,0,1-3.037-.216,3.217,3.217,0,0,1-.043-.571q0-5.089,0-10.178v-.37l-.082-.013c-.066.1-.133.191-.2.287l-3.928,5.854a3.857,3.857,0,0,1-.241.337,1.581,1.581,0,0,1-2.474-.019c-.087-.107-.162-.224-.239-.339l-3.911-5.827c-.064-.1-.133-.188-.231-.326a1.755,1.755,0,0,0-.053.232c-.007.106,0,.213,0,.319q0,4.977,0,9.954a4.575,4.575,0,0,1-.026.573,1.576,1.576,0,0,1-3.128-.016,3.763,3.763,0,0,1-.021-.445q0-7.865,0-15.729a2.306,2.306,0,0,1,.06-.632,1.521,1.521,0,0,1,1.25-1.138,1.477,1.477,0,0,1,1.521.589c.241.31.448.647.668.973l5.141,7.614c.065.1.134.189.229.323.087-.121.162-.217.23-.318l5.552-8.26c.083-.123.164-.249.257-.365a1.549,1.549,0,0,1,1.724-.5,1.569,1.569,0,0,1,1.077,1.4c.006.1.005.191.005.287Q1617.775,805.628,1617.771,813.524Z" transform="translate(0 -632.783)" fill="#293e62"/>
    <path id="패스_8968" data-name="패스 8968" d="M4398.357,809.559c.072-.044.148-.083.223-.125a7,7,0,0,0-3.363-13.123c-1.138-.012-2.276,0-3.414,0-.639,0-1.277-.008-1.915,0a1.6,1.6,0,0,0-1.631,1.442,3.443,3.443,0,0,0-.012.414q0,7.817,0,15.635c0,.106,0,.213,0,.319a1.591,1.591,0,0,0,3,.68,1.747,1.747,0,0,0,.174-.833c0-1.074,0-2.149,0-3.223v-.436h.362c.819,0,1.639.005,2.458,0a.622.622,0,0,1,.5.209c.679.718,1.371,1.426,2.058,2.137.821.849,1.632,1.707,2.465,2.543a1.562,1.562,0,0,0,2.618-.653,1.586,1.586,0,0,0-.427-1.67q-1.462-1.494-2.919-2.993c-.08-.082-.154-.169-.226-.247C4398.335,809.592,4398.342,809.568,4398.357,809.559Zm-.051-4.021-.052.071q-.105.142-.224.273l-.069.073c-.011.012-.022.024-.035.036s-.023.024-.035.036c-.035.035-.07.069-.106.1l-.036.034-.022.02-.051.044c-.028.025-.057.049-.086.072l-.041.032-.061.047h0l-.054.04-.119.083-.045.029c-.035.023-.071.045-.106.066l-.034.02c-.035.021-.071.041-.107.06l-.043.024-.044.023-.037.019-.047.023-.067.031-.048.021-.046.02-.061.025-.05.02,0,0-.061.023-.024.008-.067.024-.075.024h0l-.033.01-.012,0-.051.015-.079.021c-.116.03-.233.054-.352.072l-.025,0-.084.011-.086.01-.081.007-.111.007-.086,0c-1.243.031-2.488.006-3.732.006h-.022c-.028,0-.059-.008-.105-.015l-.023,0h-.018v-7.6a2.668,2.668,0,0,1,.277-.029c1.17,0,2.34-.017,3.51,0,.133,0,.265.011.394.026.065.007.129.016.193.027a3.9,3.9,0,0,1,.732.2c.059.022.117.045.173.07l.084.038.067.032.038.018.062.031.081.043.061.034.047.027.027.017.039.024c.047.029.094.06.14.092l.064.044.046.034.046.034c.045.035.09.07.133.107.023.02.046.039.068.059.046.04.09.081.134.123l.064.064c.021.021.042.044.063.065l.062.067c.019.021.038.042.056.064l.016.019.045.055,0,0,.048.061.016.02.046.062c.018.024.036.049.053.074h0c.034.049.068.1.1.151h0c.017.026.032.051.048.078s.025.042.037.064c.034.058.065.117.1.176s.054.11.078.166h0c.024.056.048.113.07.17.009.024.018.047.026.071a.216.216,0,0,1,.011.029c.007.019.014.038.02.058s.019.056.027.084c0,.013.008.026.012.039h0c.006.018.011.037.016.056a.009.009,0,0,1,0,0,.188.188,0,0,1,.006.023.066.066,0,0,1,0,.014c.005.019.011.039.016.059l0,.009c.015.059.028.118.04.179.007.035.014.071.02.107s.007.047.011.071h0l0,.017c0,.005,0,.011,0,.017,0,.024.007.047.009.072.008.063.015.127.019.192,0,.032.005.064.006.1s0,.065,0,.1c0,.07,0,.14,0,.211,0,.125-.014.249-.029.371,0,.03-.008.061-.013.091s-.009.061-.015.091-.01.06-.017.09q-.026.135-.063.265c-.008.029-.016.058-.025.087-.018.058-.036.115-.056.171-.01.028-.021.056-.031.084s-.021.056-.033.083-.023.055-.035.082-.021.048-.032.071-.028.061-.043.091c-.026.053-.054.106-.082.158-.014.026-.029.052-.044.077Q4398.409,805.393,4398.306,805.537Z" transform="translate(-2699.152 -633.123)" fill="#293e62"/>
    <path id="패스_8969" data-name="패스 8969" d="M3894.193,813.842a1.6,1.6,0,0,1-1.507,1.322c-.1.006-.191,0-.287,0h-10.083a2.833,2.833,0,0,1-.445-.025,1.587,1.587,0,0,1-1.373-1.528c0-.074,0-.149,0-.223q0-7.9,0-15.792a2.75,2.75,0,0,1,.042-.507,1.57,1.57,0,0,1,1.555-1.3c1.521-.007,3.042,0,4.563,0q2.968,0,5.936,0a1.6,1.6,0,0,1,.136,3.187c-.127.007-.255.005-.383.005h-8.6a39.839,39.839,0,0,0-.043,4.48c.126.008.259.023.392.023q2.808,0,5.616,0a2.747,2.747,0,0,1,.6.047,1.6,1.6,0,0,1-.3,3.147c-.117.006-.234,0-.351,0h-5.971v5.263h.4q4.18,0,8.36,0a2.268,2.268,0,0,1,.719.106A1.577,1.577,0,0,1,3894.193,813.842Z" transform="translate(-2207.617 -632.626)" fill="#293e62"/>
    <path id="패스_8970" data-name="패스 8970" d="M2249.575,813.667q-2.565-5.836-5.124-11.675-.954-2.175-1.908-4.349a1.579,1.579,0,0,0-2.892,0c-.026.058-.051.117-.076.175l-6.441,14.682c-.2.448-.4.891-.583,1.345a1.591,1.591,0,1,0,2.948,1.2q.749-1.725,1.5-3.448c.046-.106.1-.21.146-.316h7.9c.052.112.1.216.149.323q.712,1.637,1.424,3.274a3.382,3.382,0,0,0,.18.373,1.588,1.588,0,0,0,1.595.775,1.62,1.62,0,0,0,1.331-1.215A1.7,1.7,0,0,0,2249.575,813.667Zm-10.967-5.6s0,0,0,0a0,0,0,0,1,0,0l0-.011,0-.008v0h0l0-.008v-.006h0l0-.008,0-.008h0l0-.007.006-.016a.091.091,0,0,1,0-.014h0v0l.006-.017h0v0l.008-.021h0l.009-.023v0h0l.008-.021.022-.057,0-.01h0l0-.01.007-.018.009-.025.018-.045.011-.027c.006-.016.013-.032.019-.048l0-.009h0c.013-.031.026-.064.04-.1l.009-.022h0l0-.006.008-.019,0-.007.008-.02h0l.005-.013.014-.034.02-.049h0l0-.012.015-.038h0l.01-.025.054-.132.034-.082.007-.015.011-.027.018-.043.024-.058.09-.214.023-.055.024-.056.048-.114.025-.058.05-.117.051-.119.13-.305.081-.187c.638-1.482,1.377-3.146,1.5-3.345.085.1.827,1.734,1.481,3.23l.083.189.054.125.054.123.026.061c.053.122.1.241.155.357.125.29.239.559.336.791.045.108.087.208.124.3l.031.075.042.1.013.032.023.059.011.028.019.051.024.065.012.036c.009.027.015.047.018.06C2243.362,808.106,2239.016,808.125,2238.608,808.067Z" transform="translate(-612.172 -633.505)" fill="#293e62"/>
    <path id="패스_8971" data-name="패스 8971" d="M2865.383,813.508a5.739,5.739,0,0,1-3.506,2.047,7.078,7.078,0,0,1-4.461-.473,5.624,5.624,0,0,1-3.317-4.562c-.027-.188-.018-.382-.028-.573a1.578,1.578,0,0,1,1.525-1.635,1.607,1.607,0,0,1,1.654,1.554,3.421,3.421,0,0,0,.161.9,2.484,2.484,0,0,0,1.775,1.6,4.193,4.193,0,0,0,2.574-.065,2.568,2.568,0,0,0,1.7-2.934,1.513,1.513,0,0,0-.667-1.047,4.927,4.927,0,0,0-.984-.516c-.78-.278-1.578-.5-2.365-.766-.6-.2-1.21-.4-1.8-.644a5.784,5.784,0,0,1-1.857-1.218,4.325,4.325,0,0,1-1.307-2.767,5.351,5.351,0,0,1,1.061-3.843,5.437,5.437,0,0,1,3.566-2.1c.417-.073.844-.094,1.074-.119a6.331,6.331,0,0,1,4.019,1.208,5.25,5.25,0,0,1,2.115,4.273,1.6,1.6,0,0,1-3.191.02,2.277,2.277,0,0,0-2.006-2.251,3.843,3.843,0,0,0-1.862.094,2.224,2.224,0,0,0-1.618,2.38,1.206,1.206,0,0,0,.506.953,3.667,3.667,0,0,0,.8.45c.758.277,1.525.529,2.3.768a17.087,17.087,0,0,1,2.191.778,6.474,6.474,0,0,1,1.747,1.16,4.728,4.728,0,0,1,1.466,3.1A5.678,5.678,0,0,1,2865.383,813.508Z" transform="translate(-1213.966 -633.168)" fill="#293e62"/>
    <path id="패스_8972" data-name="패스 8972" d="M3342.318,798.055a1.539,1.539,0,0,1-1.5,1.489c-1.35.021-2.7.008-4.052.009h-.422V813.8c0,.117,0,.234,0,.351a1.606,1.606,0,0,1-3.212-.027c0-.127,0-.255,0-.383V799.58c-.142-.01-.264-.025-.385-.025-1.287,0-2.574,0-3.861,0a2.278,2.278,0,0,1-.568-.055,1.569,1.569,0,0,1-1.161-1.658,1.589,1.589,0,0,1,1.517-1.456c.106-.008.213,0,.319,0q5.744,0,11.487,0a3.206,3.206,0,0,1,.539.037A1.564,1.564,0,0,1,3342.318,798.055Z" transform="translate(-1671.935 -633.193)" fill="#293e62"/>
    <path id="패스_8973" data-name="패스 8973" d="M4294.378,253c-.17.581-.36,1.157-.543,1.734q-1.685,5.284-3.371,10.567a2.353,2.353,0,0,1-.108.3.742.742,0,0,1-.65.445.715.715,0,0,1-.7-.358,2.266,2.266,0,0,1-.174-.375q-1.474-3.668-2.946-7.337c-.05-.123-.1-.245-.156-.367l-.065,0c-.043.1-.087.206-.129.31q-1.49,3.712-2.983,7.425a2.9,2.9,0,0,1-.126.292.793.793,0,0,1-1.414-.042,3.966,3.966,0,0,1-.165-.482q-1.875-5.909-3.748-11.819a3.135,3.135,0,0,1-.1-.369.842.842,0,0,1,.537-.942.831.831,0,0,1,.976.472,2.358,2.358,0,0,1,.093.271q1.531,4.831,3.062,9.662c.038.12.083.238.153.437.076-.17.127-.275.17-.384q1.433-3.6,2.865-7.2a2.921,2.921,0,0,1,.125-.293.769.769,0,0,1,.733-.424.723.723,0,0,1,.686.439c.111.241.2.49.3.737l2.707,6.746c.042.1.091.2.168.371.062-.172.1-.277.137-.385q1.537-4.846,3.071-9.693c.025-.081.047-.163.079-.242a.821.821,0,0,1,.977-.517A.835.835,0,0,1,4294.378,253Z" transform="translate(-2591.448 -105.906)" fill="#293e62"/>
    <path id="패스_8974" data-name="패스 8974" d="M2485.953,260.123a.823.823,0,0,0,.9-.891,8.043,8.043,0,0,0-.632-3.2,6,6,0,0,0-6.615-3.708,5.825,5.825,0,0,0-4.348,3.022,7.864,7.864,0,0,0-.65,6.381,6.3,6.3,0,0,0,6.537,4.6,6.151,6.151,0,0,0,5.037-3.091.819.819,0,1,0-1.423-.8,4.54,4.54,0,0,1-4.767,2.2,4.959,4.959,0,0,1-4.1-4.5h8.823C2485.124,260.124,2485.539,260.129,2485.953,260.123Zm-1.549-1.673h-.136l-.1,0h-.616l-.924.008h-2.505c-.533,0-1.06,0-1.552,0h-.016l-.52,0h-.5l-.35,0h-.21l-.227,0h-.148l-.083,0-.079,0-.21-.006-.074,0h-.023l-.068,0-.047,0-.025,0-.025,0h-.012l-.02,0h-.009l-.017,0h0l-.031,0h0c0-.014,0-.029.006-.043s0-.015,0-.023c0-.028.007-.057.011-.085s.006-.043.009-.065.008-.059.012-.088l.007-.044c0-.017.007-.033.01-.05.013-.07.028-.139.043-.207.008-.034.016-.068.024-.1s.015-.059.022-.089c.015-.059.032-.118.049-.176h0q.05-.174.111-.344h0c.01-.028.02-.056.031-.084s.027-.071.041-.107.035-.086.053-.129.023-.055.036-.083a.009.009,0,0,1,0,0c.013-.029.026-.058.04-.087l.017-.035.027-.057.021-.041.036-.071.013-.024c.011-.023.024-.046.037-.068.023-.042.047-.084.071-.125q.051-.088.107-.174a5.114,5.114,0,0,1,.5-.659l.071-.078.074-.077.075-.076a4.528,4.528,0,0,1,3.167-1.264h.16l.164.009.042,0c.062.005.125.011.187.019l.069.009.069.01c.115.017.229.039.343.065l.062.015.034.009.053.014.1.03.042.012.109.035.058.02a4.416,4.416,0,0,1,.464.194l.063.032.057.029q.1.054.2.114l.113.07q.094.06.184.125c.038.027.076.056.113.085l.069.054.047.038.066.056.046.04.046.041.015.014.049.045.054.052.054.053.052.054.052.056.042.047.013.014.047.054.049.059c.033.04.066.08.1.122s.063.084.094.127c.061.086.121.176.178.268q.043.069.084.141c.025.043.05.087.073.131s.047.088.069.132c.011.022.022.044.032.066q.049.1.093.2l.03.067q.028.068.055.136l.034.088,0,0c.011.029.022.058.032.087l.023.066.033.1c.007.019.013.039.019.059l.017.056c.009.028.017.056.025.085s.018.066.027.1.013.048.019.072.009.034.012.05c.02.082.039.165.055.248q.01.046.018.093c0,.02.008.041.011.062l.005.029c0,.024.008.049.012.073l.008.046.009.063c.006.037.011.074.015.111a.35.35,0,0,1-.01.089h0l-.01,0-.017,0h0l-.017,0h-.033l-.025,0h-.014l-.029,0h0l-.032,0h0l-.034,0h-.019l-.04,0h0l-.041,0-.12,0-.107,0Z" transform="translate(-846.242 -106.194)" fill="#293e62"/>
    <path id="패스_8975" data-name="패스 8975" d="M3813.243,260.391a.853.853,0,0,0,.971-.984,8,8,0,0,0-.626-3.074,6.113,6.113,0,0,0-10.829-.969,7.177,7.177,0,0,0-1.108,3.194,7.758,7.758,0,0,0,.668,4.354,6.343,6.343,0,0,0,11.078.809,1.868,1.868,0,0,0,.215-.389.821.821,0,0,0-.386-1.01.779.779,0,0,0-1.021.24,2.083,2.083,0,0,0-.121.187,4.719,4.719,0,0,1-7.355.82,5.406,5.406,0,0,1-1.416-2.668c-.033-.152-.052-.307-.085-.508h.444Q3808.458,260.392,3813.243,260.391Zm-9.992-1.874.021-.12c.005-.03.011-.06.017-.089s.011-.059.017-.089l.019-.088c.007-.03.013-.059.02-.089l.027-.114.027-.1c.009-.033.018-.065.028-.1s.011-.038.017-.057.013-.044.02-.066.01-.035.016-.051.016-.05.024-.074l.024-.07c.015-.042.03-.084.045-.126l.018-.046q.03-.079.063-.158s0,0,0,0c.011-.026.022-.052.033-.078.019-.045.039-.089.06-.133l.02-.042c.01-.022.021-.044.032-.066l0-.006.033-.065.037-.07.042-.076.031-.054c.032-.056.066-.111.1-.166l.046-.072.047-.071.049-.071.057-.08.044-.059.053-.069.01-.013.044-.055.056-.068.051-.06.005-.006.058-.065.121-.129.063-.063c.043-.043.087-.086.132-.127l.091-.083a4.153,4.153,0,0,1,.563-.418c.057-.035.115-.069.174-.1a4.639,4.639,0,0,1,2.316-.576l.076,0a4.575,4.575,0,0,1,.682.072l.1.02.1.023c.068.016.136.033.2.052l.067.02c.067.02.134.042.2.065.044.015.089.032.132.049l.065.026.131.056.064.029c.087.041.173.084.258.131l.052.029q.13.074.257.158l.057.039.06.042,0,0,.056.041.059.044.053.041q.089.071.176.148l.055.05.052.048a4.464,4.464,0,0,1,.5.568l.019.025c.058.078.113.159.167.242l.049.078.049.079.042.072.033.06c.032.06.065.12.1.181.01.02.021.041.03.061s.02.041.029.061l.029.061.041.09.015.033.039.094q.077.188.14.38c.008.024.016.047.023.071l.017.056.01.033c.008.026.016.052.023.079.013.044.025.089.037.134,0,.016.008.031.012.047.009.034.017.068.025.1,0,.019.009.038.014.057s.012.051.017.077.009.037.012.055c.008.035.015.07.021.1,0,.007,0,.015,0,.022.005.025.01.05.014.076s0,.024.007.036.007.045.011.067a1.184,1.184,0,0,1,.013.191.1.1,0,0,1,0,.023.227.227,0,0,1-.006.025s0,.009,0,.014l-.011.034a.074.074,0,0,1,0,.013h-9.242A1.074,1.074,0,0,1,3803.251,258.517Z" transform="translate(-2131.231 -106.462)" fill="#293e62"/>
    <path id="패스_8976" data-name="패스 8976" d="M1747.1,265.2a1.758,1.758,0,0,1-.037.38.756.756,0,0,1-.757.6.764.764,0,0,1-.763-.639,2.652,2.652,0,0,1-.025-.445q0-3.43,0-6.861a5.285,5.285,0,0,0-.366-2.091,3.612,3.612,0,0,0-2.733-2.349,3.821,3.821,0,0,0-3.916,1.515,4.249,4.249,0,0,0-.9,2.446c-.014.244-.016.489-.016.734q0,3.3,0,6.605a2.359,2.359,0,0,1-.034.476.775.775,0,0,1-1.52-.028,2.2,2.2,0,0,1-.025-.381q0-6.031,0-12.062a2.7,2.7,0,0,1,.01-.287.781.781,0,0,1,1.556-.008c.022.2.01.4.015.605,0,.114.01.227.018.411.131-.12.213-.2.3-.271a5.524,5.524,0,0,1,6.206-.885,5.411,5.411,0,0,1,2.7,3.368,7.135,7.135,0,0,1,.3,2.14Q1747.1,261.694,1747.1,265.2Z" transform="translate(-131.603 -106.047)" fill="#293e62"/>
    <path id="패스_8977" data-name="패스 8977" d="M3237.426,252.945a2.106,2.106,0,0,1-.1.27q-2.393,6.1-4.785,12.2a.808.808,0,0,1-.671.6.794.794,0,0,1-.866-.555c-.242-.6-.473-1.207-.709-1.811q-2.047-5.241-4.094-10.484a1.529,1.529,0,0,1-.1-.3.792.792,0,0,1,.573-.91.749.749,0,0,1,.935.46c.329.807.642,1.621.961,2.432q1.51,3.843,3.019,7.685c.046.116.1.228.148.342h.074c.055-.136.111-.272.165-.408l3.874-9.851c.023-.059.045-.119.07-.178a.765.765,0,0,1,.953-.479A.831.831,0,0,1,3237.426,252.945Z" transform="translate(-1574.113 -105.877)" fill="#293e62"/>
    <path id="패스_8978" data-name="패스 8978" d="M2167.071,158.8a1.358,1.358,0,0,1-.241.333,3.249,3.249,0,0,1-4.895-.2,3.461,3.461,0,0,1-.763-2.249q0-4.276,0-8.552v-.448c-.266,0-.5.01-.727,0a.809.809,0,0,1-.762-1.048.783.783,0,0,1,.754-.576c.213-.008.425-.007.638-.012.018,0,.037-.018.082-.042,0-.1.014-.212.014-.326,0-.7,0-1.4,0-2.106a1.846,1.846,0,0,1,.026-.349.8.8,0,0,1,1.58.051,2.156,2.156,0,0,1,.009.287q0,1.053,0,2.106v.372c.146.006.259.016.372.016q1.229,0,2.458,0a.794.794,0,0,1,.794.481.81.81,0,0,1-.689,1.141c-.169.016-.34.005-.51.006h-2.4c-.01.118-.022.2-.022.283q0,4.4,0,8.807a1.68,1.68,0,0,0,1.331,1.686,1.553,1.553,0,0,0,1.473-.4c.062-.058.115-.126.176-.185a.77.77,0,0,1,1.016-.114A.813.813,0,0,1,2167.071,158.8Z" transform="translate(-541.721 0)" fill="#293e62"/>
    <path id="패스_8979" data-name="패스 8979" d="M2955.886,253.993a5.244,5.244,0,0,0-.914.111,3.927,3.927,0,0,0-2.84,2.837,4.761,4.761,0,0,0-.2,1.447q0,3.509,0,7.018a3.019,3.019,0,0,1-.006.319.791.791,0,0,1-.82.728.779.779,0,0,1-.748-.764c-.007-.1,0-.192,0-.287q0-6,0-12c0-.1,0-.192,0-.287a.786.786,0,0,1,1.57-.013c.016.244,0,.489.008.733a.964.964,0,0,0,.034.154l.28-.247a5.326,5.326,0,0,1,3.61-1.38.786.786,0,0,1,.8.558A.82.82,0,0,1,2955.886,253.993Z" transform="translate(-1307.174 -106.313)" fill="#293e62"/>
    <path id="패스_8980" data-name="패스 8980" d="M3665.888,253.37q0,5.995,0,11.99a2.739,2.739,0,0,1-.015.35.772.772,0,0,1-.768.708.81.81,0,0,1-.815-.7,2.3,2.3,0,0,1-.009-.318q0-3.029,0-6.059,0-3.013,0-6.027a1.445,1.445,0,0,1,.063-.468.792.792,0,0,1,1.526.179A2.653,2.653,0,0,1,3665.888,253.37Z" transform="translate(-1998.306 -106.276)" fill="#293e62"/>
    <path id="패스_8981" data-name="패스 8981" d="M1604.418,265.746a.774.774,0,0,1-.764.712.8.8,0,0,1-.816-.7,2.59,2.59,0,0,1-.009-.319q0-6.042,0-12.085a2.465,2.465,0,0,1,.007-.287.811.811,0,0,1,.82-.7.782.782,0,0,1,.763.717c.011.116.007.234.007.351q0,3,0,5.995,0,2.965,0,5.931A3.8,3.8,0,0,1,1604.418,265.746Z" transform="translate(-2.681 -106.317)" fill="#293e62"/>
    <path id="패스_8982" data-name="패스 8982" d="M3663.875,155.662a.879.879,0,0,1-1.757-.023.879.879,0,1,1,1.757.023Z" transform="translate(-1996.214 -11.824)" fill="#293e62"/>
    <path id="패스_8983" data-name="패스 8983" d="M1602.337,155.632a.855.855,0,0,1-.853.881.866.866,0,0,1-.892-.844.893.893,0,0,1,.872-.908A.882.882,0,0,1,1602.337,155.632Z" transform="translate(-0.515 -11.824)" fill="#293e62"/>
    <rect id="사각형_25607" data-name="사각형 25607" height="7.597" transform="translate(1692.29 166.454)" fill="#293e62"/>
    <path id="패스_8984" data-name="패스 8984" d="M2426.084,1118.209c.007-.063.188-.514.451-1.137-.262.623-.443,1.074-.45,1.137Z" transform="translate(-799.648 -943.598)" fill="#293e62"/>
    <path id="패스_8985" data-name="패스 8985" d="M2443.743,1101.748l.1-.227C2443.807,1101.6,2443.775,1101.674,2443.743,1101.748Z" transform="translate(-816.744 -928.537)" fill="#293e62"/>
    <path id="패스_8986" data-name="패스 8986" d="M2526.244,435.219c.016-.114.028-.232.048-.348-.02.116-.031.234-.048.348Z" transform="translate(-896.61 -283.046)" fill="#293e62"/>
    <path id="패스_8987" data-name="패스 8987" d="M2527.763,427.029c.014-.07.028-.139.044-.207q-.023.1-.044.207l-.009.05Z" transform="translate(-898.071 -275.253)" fill="#293e62"/>
    <path id="패스_8988" data-name="패스 8988" d="M2530.154,402.6a5.907,5.907,0,0,1,.213-.694A6.072,6.072,0,0,0,2530.154,402.6Z" transform="translate(-900.395 -251.124)" fill="#293e62"/>
    <path id="패스_8989" data-name="패스 8989" d="M2549.24,370.461c-.037.057-.072.116-.107.174Q2549.185,370.547,2549.24,370.461Z" transform="translate(-918.768 -220.637)" fill="#293e62"/>
    <path id="패스_8990" data-name="패스 8990" d="M2578.344,447.141h0Z" transform="translate(-947.046 -294.926)" fill="#293e62"/>
    <path id="패스_8991" data-name="패스 8991" d="M2593.9,447.262l.519,0Z" transform="translate(-962.109 -295.044)" fill="#293e62"/>
    <path id="패스_8992" data-name="패스 8992" d="M2659.274,447.423l1.245,0Z" transform="translate(-1025.391 -295.198)" fill="#293e62"/>
    <path id="패스_8993" data-name="패스 8993" d="M2610.684,447.362c.491,0,1.018,0,1.552,0C2611.7,447.366,2611.175,447.364,2610.684,447.362Z" transform="translate(-978.354 -295.14)" fill="#293e62"/>
    <path id="패스_8994" data-name="패스 8994" d="M3864.273,395.409c.021-.053.042-.106.064-.158C3864.315,395.3,3864.294,395.356,3864.273,395.409Z" transform="translate(-2191.914 -244.684)" fill="#293e62"/>
    <path id="패스_8995" data-name="패스 8995" d="M3894.9,346.05c.039-.043.08-.087.122-.129Q3894.963,345.985,3894.9,346.05Z" transform="translate(-2221.566 -196.88)" fill="#293e62"/>
  </g>
</svg>
