<svg xmlns="http://www.w3.org/2000/svg" xmlns:xlink="http://www.w3.org/1999/xlink" width="180" height="180" viewBox="0 0 180 180">
  <defs>
    <clipPath id="clip-path">
      <rect id="사각형_27413" data-name="사각형 27413" width="180" height="180" transform="translate(-519 -18708)" fill="#fff"/>
    </clipPath>
    <clipPath id="clip-path-2">
      <rect id="사각형_27357" data-name="사각형 27357" width="131.105" height="158.961" fill="none"/>
    </clipPath>
  </defs>
  <g id="img_mbti07_infp" transform="translate(519 18708)" clip-path="url(#clip-path)">
    <g id="그룹_21242" data-name="그룹 21242" transform="translate(-502.981 -18699)">
      <g id="그룹_21241" data-name="그룹 21241" transform="translate(7.981 2)" clip-path="url(#clip-path-2)">
        <path id="패스_10806" data-name="패스 10806" d="M128.041,101.212h0a10.461,10.461,0,0,0-14.8,0L88.6,125.858a10,10,0,0,0-9.793-11.985H43.689s-14.319-1.612-24.957,11.748L0,144.353l30.4,29.985,6.235-5.988a28.434,28.434,0,0,1,16.793-7.78l21.565-2.215a33.3,33.3,0,0,0,19.772-9.215,10.6,10.6,0,0,0,1.115-.966l32.165-32.165a10.461,10.461,0,0,0,0-14.8" transform="translate(-6.731 -17.064)" fill="#fde8c9"/>
        <path id="패스_10807" data-name="패스 10807" d="M86.515,138.855H48.6a1.025,1.025,0,1,1,0-2.049H86.515a8.984,8.984,0,0,0,7.833-4.6,1.025,1.025,0,0,1,1.789,1,11.034,11.034,0,0,1-9.622,5.648" transform="translate(-14.184 -22.318)" fill="#f7be9f"/>
        <path id="패스_10808" data-name="패스 10808" d="M61.891,59.835A21.865,21.865,0,0,0,53.2,65.7a21.672,21.672,0,0,0,2.865-10.1c0-7.415-8.342-10.2-8.342-10.2s-8.343,2.781-8.343,10.2a21.672,21.672,0,0,0,2.865,10.1,21.85,21.85,0,0,0-8.695-5.83c-7.054-2.327-12.272,4.745-12.272,4.745s.065,8.8,7.119,11.123a21.714,21.714,0,0,0,10.483.389,21.64,21.64,0,0,0-8.259,6.489c-4.357,6,.76,13.153.76,13.153s8.342,2.65,12.736-3.346a21.6,21.6,0,0,0,3.606-9.956,21.582,21.582,0,0,0,3.605,9.891c4.357,6,12.736,3.345,12.736,3.345s5.116-7.156.76-13.153a21.743,21.743,0,0,0-8.231-6.487,21.59,21.59,0,0,0,10.456-.39c7.054-2.289,7.119-11.123,7.119-11.123S68.945,57.545,61.891,59.835Z" transform="translate(-10.064 -8.8)" fill="#f0c419"/>
        <path id="패스_10809" data-name="패스 10809" d="M59.424,55.6c0,5.811-3.374,11.865-7.1,16.24a1.853,1.853,0,0,0-2.169-.232A36.348,36.348,0,0,0,45.6,65.7c.158,0-2.864-4.458-2.864-10.1,0-7.415,8.342-10.2,8.342-10.2s8.342,2.78,8.342,10.2" transform="translate(-13.427 -8.8)" fill="#f29c1f"/>
        <path id="패스_10810" data-name="패스 10810" d="M52.46,74.866a.927.927,0,0,1-.927-.927V62.817a.927.927,0,1,1,1.854,0V73.939a.927.927,0,0,1-.927.927" transform="translate(-14.804 -11.383)" fill="#e57e25"/>
        <path id="패스_10811" data-name="패스 10811" d="M45.859,76.195a35.431,35.431,0,0,0-7.007,2.484,21.988,21.988,0,0,1-10.5-.38c-7.054-2.29-7.119-11.123-7.119-11.123S26.486,60.14,33.54,62.43c5.561,1.8,10.2,6.841,13.245,11.772a1.854,1.854,0,0,0-.927,1.993" transform="translate(-10.057 -11.396)" fill="#f3d55b"/>
        <path id="패스_10812" data-name="패스 10812" d="M48.412,77.812c-.213,0,.593.25-10.864-3.485a.927.927,0,0,1,.575-1.761L48.7,76a.927.927,0,0,1-.288,1.807" transform="translate(-12.518 -13.05)" fill="#e57e25"/>
        <path id="패스_10813" data-name="패스 10813" d="M49.128,87.708A21.587,21.587,0,0,1,45.522,97.6c-4.356,6-12.735,3.345-12.735,3.345s-5.117-7.156-.761-13.153c3.393-4.672,9.686-7.582,15.248-8.954A1.853,1.853,0,0,0,48.9,80.293,35.92,35.92,0,0,0,49.128,87.708Z" transform="translate(-11.473 -14.038)" fill="#f0c419"/>
        <path id="패스_10814" data-name="패스 10814" d="M43.42,89.918a.927.927,0,0,1-.713-1.474l6.488-9a.93.93,0,1,1,1.446,1.168l-6.489,8.926a.926.926,0,0,1-.732.38" transform="translate(-13.394 -14.079)" fill="#e57e25"/>
        <path id="패스_10815" data-name="패스 10815" d="M68.917,101.011s-8.342,2.651-12.736-3.346c-3.43-4.718-4.236-11.577-3.8-17.305a1.854,1.854,0,0,0,1.854-1.094A36.974,36.974,0,0,0,61.381,81.4a21.817,21.817,0,0,1,8.259,6.489C74.033,93.856,68.917,101.011,68.917,101.011Z" transform="translate(-14.92 -14.105)" fill="#f3d55b"/>
        <path id="패스_10816" data-name="패스 10816" d="M60.29,89.91a.926.926,0,0,1-.751-.38l-6.544-9a.937.937,0,0,1,1.521-1.094l6.488,9a.927.927,0,0,1-.713,1.474" transform="translate(-15.006 -14.071)" fill="#e57e25"/>
        <path id="패스_10817" data-name="패스 10817" d="M79.311,67.218s-.065,8.8-7.119,11.123c-5.562,1.854-12.272.473-17.611-1.742a1.855,1.855,0,0,0-.455-2.123A36.385,36.385,0,0,0,58.344,68.3a21.85,21.85,0,0,1,8.695-5.83c7.054-2.327,12.272,4.745,12.272,4.745" transform="translate(-15.211 -11.401)" fill="#f0c419"/>
        <path id="패스_10818" data-name="패스 10818" d="M54.548,77.812A.927.927,0,0,1,54.261,76l10.576-3.439a.927.927,0,0,1,.575,1.761C53.946,78.062,54.771,77.812,54.548,77.812Z" transform="translate(-15.132 -13.05)" fill="#e57e25"/>
        <path id="패스_10819" data-name="패스 10819" d="M54.141,78.032a1.853,1.853,0,1,1-.928-1.6A1.854,1.854,0,0,1,54.141,78.032Z" transform="translate(-14.632 -13.622)" fill="#d25627"/>
        <path id="패스_10820" data-name="패스 10820" d="M109.961,32.952a15.637,15.637,0,0,0-7.369-1.43,15.513,15.513,0,0,0,6.562-3.663c3.753-3.753.939-9.381.939-9.381s-5.629-2.814-9.381.938a15.514,15.514,0,0,0-3.663,6.562,15.63,15.63,0,0,0-1.45-7.35c-2.392-4.747-8.611-3.808-8.611-3.808s-4.419,4.484-2.027,9.23a15.531,15.531,0,0,0,5.108,5.5,15.48,15.48,0,0,0-7.463-.9c-5.24.831-6.272,7.041-6.272,7.041s2.88,5.563,8.138,4.751a15.454,15.454,0,0,0,6.863-3.213,15.445,15.445,0,0,0-3.18,6.829c-.831,5.24,4.751,8.138,4.751,8.138s6.21-1.031,7.04-6.271a15.562,15.562,0,0,0-.881-7.448,15.454,15.454,0,0,0,5.488,5.094c4.729,2.411,9.231-2.027,9.231-2.027s.9-6.187-3.823-8.6" transform="translate(-18.69 -3.997)" fill="#f0c419"/>
        <path id="패스_10821" data-name="패스 10821" d="M112.876,28.364c-2.941,2.941-7.711,4.3-11.811,4.625a1.327,1.327,0,0,0-.98-1.214,26.081,26.081,0,0,0,.685-5.291,16.3,16.3,0,0,1,3.663-6.563c3.752-3.752,9.38-.938,9.38-.938s2.815,5.628-.938,9.381" transform="translate(-22.411 -4.502)" fill="#f29c1f"/>
        <path id="패스_10822" data-name="패스 10822" d="M100.2,34.044a.663.663,0,0,1,0-.938l5.628-5.629a.664.664,0,0,1,.939.939l-5.629,5.628a.663.663,0,0,1-.938,0" transform="translate(-22.398 -5.961)" fill="#e57e25"/>
        <path id="패스_10823" data-name="패스 10823" d="M96.355,31.8a25.386,25.386,0,0,0-4.8-2.289,15.732,15.732,0,0,1-5.122-5.507c-2.411-4.728,2.027-9.231,2.027-9.231s6.22-.9,8.631,3.828c1.9,3.724,1.7,8.621.746,12.659a1.327,1.327,0,0,0-1.478.54" transform="translate(-20.159 -3.991)" fill="#f3d55b"/>
        <path id="패스_10824" data-name="패스 10824" d="M97.705,33.487c-.108-.108.174.427-3.733-7.261a.663.663,0,0,1,1.182-.6l3.612,7.092a.663.663,0,0,1-1.06.769" transform="translate(-21.444 -5.648)" fill="#e57e25"/>
        <path id="패스_10825" data-name="패스 10825" d="M91.341,39.787a15.455,15.455,0,0,1-6.829,3.18c-5.24.83-8.138-4.751-8.138-4.751s1.031-6.21,6.271-7.041c4.081-.647,8.739,1.065,12.247,3.185a1.326,1.326,0,0,0,.085,1.557A25.681,25.681,0,0,0,91.341,39.787Z" transform="translate(-18.696 -6.549)" fill="#f0c419"/>
        <path id="패스_10826" data-name="패스 10826" d="M88.21,37.694a.664.664,0,0,1,.385-1.107l7.838-1.271a.665.665,0,0,1,.141,1.323l-7.8,1.233a.662.662,0,0,1-.563-.178" transform="translate(-20.523 -7.219)" fill="#e57e25"/>
        <path id="패스_10827" data-name="패스 10827" d="M95.087,55.665s-5.563-2.88-4.751-8.138c.652-4.123,3.715-8,6.834-10.681a1.327,1.327,0,0,0,1.491.385,26.466,26.466,0,0,0,2.538,4.695,15.615,15.615,0,0,1,.9,7.463c-.8,5.244-7.008,6.276-7.008,6.276" transform="translate(-20.871 -7.459)" fill="#f3d55b"/>
        <path id="패스_10828" data-name="패스 10828" d="M97.362,45.62a.664.664,0,0,1-.187-.573l1.242-7.866a.67.67,0,0,1,1.323.216l-1.271,7.838a.664.664,0,0,1-1.107.385" transform="translate(-21.954 -7.424)" fill="#e57e25"/>
        <path id="패스_10829" data-name="패스 10829" d="M117.5,44.7s-4.484,4.418-9.231,2.027c-3.752-1.876-6.45-5.972-8.03-9.794a1.325,1.325,0,0,0,.844-1.3,26.044,26.044,0,0,0,5.258-.989,15.641,15.641,0,0,1,7.35,1.449c4.746,2.393,3.808,8.612,3.808,8.612" transform="translate(-22.435 -7.11)" fill="#f0c419"/>
        <path id="패스_10830" data-name="패스 10830" d="M100.488,36.915a.663.663,0,0,1,.769-1.06l7.092,3.612a.663.663,0,0,1-.6,1.181c-7.693-3.911-7.149-3.621-7.261-3.733" transform="translate(-22.444 -7.293)" fill="#e57e25"/>
        <path id="패스_10831" data-name="패스 10831" d="M100.37,36.548a1.327,1.327,0,1,1,.342-1.281,1.326,1.326,0,0,1-.342,1.281" transform="translate(-22.101 -7.058)" fill="#d25627"/>
        <path id="패스_10832" data-name="패스 10832" d="M25.7,11.449a9.31,9.31,0,0,0,4.383.851,9.227,9.227,0,0,0-3.9,2.179c-2.231,2.231-.558,5.579-.558,5.579s3.348,1.674,5.58-.558a9.229,9.229,0,0,0,2.178-3.9,9.314,9.314,0,0,0,.862,4.372c1.424,2.823,5.122,2.265,5.122,2.265s2.628-2.667,1.205-5.49a9.237,9.237,0,0,0-3.038-3.273A9.2,9.2,0,0,0,41.975,14c3.116-.493,3.73-4.187,3.73-4.187s-1.713-3.309-4.841-2.826A9.19,9.19,0,0,0,36.783,8.9,9.181,9.181,0,0,0,38.674,4.84C39.169,1.724,35.848,0,35.848,0s-3.694.613-4.187,3.729a9.254,9.254,0,0,0,.525,4.431,9.19,9.19,0,0,0-3.265-3.03c-2.812-1.434-5.49,1.205-5.49,1.205S22.892,10.015,25.7,11.449Z" transform="translate(-3.665)" fill="#f0c419"/>
        <path id="패스_10833" data-name="패스 10833" d="M26.488,16.658c1.749-1.749,4.587-2.555,7.025-2.751a.788.788,0,0,0,.583.723,15.515,15.515,0,0,0-.407,3.147,9.707,9.707,0,0,1-2.178,3.9c-2.232,2.231-5.58.557-5.58.557s-1.673-3.348.558-5.579" transform="translate(-3.968 -2.179)" fill="#f29c1f"/>
        <path id="패스_10834" data-name="패스 10834" d="M34.889,14.17a.394.394,0,0,1,0,.558l-3.348,3.347a.394.394,0,1,1-.557-.557l3.347-3.348a.394.394,0,0,1,.558,0" transform="translate(-4.836 -2.202)" fill="#e57e25"/>
        <path id="패스_10835" data-name="패스 10835" d="M36.525,14.383a15.138,15.138,0,0,0,2.856,1.361,9.367,9.367,0,0,1,3.047,3.275c1.434,2.812-1.205,5.49-1.205,5.49s-3.7.536-5.133-2.276c-1.133-2.215-1.01-5.127-.444-7.53a.789.789,0,0,0,.879-.32" transform="translate(-5.519 -2.253)" fill="#f3d55b"/>
        <path id="패스_10836" data-name="패스 10836" d="M36.6,14.343c.064.064-.1-.254,2.22,4.319a.394.394,0,0,1-.7.357L35.965,14.8a.395.395,0,0,1,.631-.458" transform="translate(-5.628 -2.229)" fill="#e57e25"/>
        <path id="패스_10837" data-name="패스 10837" d="M38.87,10.2A9.19,9.19,0,0,1,42.933,8.3c3.116-.493,4.84,2.826,4.84,2.826s-.614,3.694-3.73,4.188c-2.427.385-5.2-.633-7.284-1.895a.789.789,0,0,0-.051-.926,15.263,15.263,0,0,0,2.162-2.3" transform="translate(-5.751 -1.293)" fill="#f0c419"/>
        <path id="패스_10838" data-name="패스 10838" d="M41.778,12.483a.395.395,0,0,1-.229.659l-4.662.756a.4.4,0,0,1-.083-.787l4.639-.734a.4.4,0,0,1,.335.106" transform="translate(-5.711 -1.938)" fill="#e57e25"/>
        <path id="패스_10839" data-name="패스 10839" d="M37.376,0S40.684,1.713,40.2,4.841c-.388,2.452-2.21,4.759-4.065,6.352a.79.79,0,0,0-.887-.229,15.74,15.74,0,0,0-1.509-2.793,9.286,9.286,0,0,1-.533-4.438C33.682.614,37.376,0,37.376,0" transform="translate(-5.192)" fill="#f3d55b"/>
        <path id="패스_10840" data-name="패스 10840" d="M37.059,7.039a.4.4,0,0,1,.111.341l-.739,4.678a.4.4,0,1,1-.787-.128L36.4,7.268a.395.395,0,0,1,.659-.229" transform="translate(-5.584 -1.086)" fill="#e57e25"/>
        <path id="패스_10841" data-name="패스 10841" d="M23.454,7.187s2.667-2.628,5.49-1.205C31.176,7.1,32.78,9.533,33.72,11.806a.79.79,0,0,0-.5.776,15.417,15.417,0,0,0-3.127.589,9.314,9.314,0,0,1-4.372-.862C22.9,10.886,23.454,7.187,23.454,7.187Z" transform="translate(-3.668 -0.871)" fill="#f0c419"/>
        <path id="패스_10842" data-name="패스 10842" d="M34.558,12.688a.395.395,0,0,1-.458.631L29.882,11.17a.394.394,0,0,1,.357-.7c4.575,2.327,4.252,2.154,4.319,2.22" transform="translate(-4.65 -1.634)" fill="#e57e25"/>
        <path id="패스_10843" data-name="패스 10843" d="M35.262,13.156a.79.79,0,1,1-.2.762.789.789,0,0,1,.2-.762" transform="translate(-5.488 -2.025)" fill="#d25627"/>
      </g>
    </g>
  </g>
</svg>
