<svg xmlns="http://www.w3.org/2000/svg" xmlns:xlink="http://www.w3.org/1999/xlink" width="180" height="180" viewBox="0 0 180 180">
  <defs>
    <clipPath id="clip-path">
      <rect id="사각형_27415" data-name="사각형 27415" width="180" height="180" transform="translate(-129 -18703)" fill="#fff"/>
    </clipPath>
    <clipPath id="clip-path-2">
      <rect id="사각형_27387" data-name="사각형 27387" width="115.922" height="177.99" fill="none"/>
    </clipPath>
  </defs>
  <g id="img_mbti09_estp" transform="translate(129 18703)" clip-path="url(#clip-path)">
    <g id="그룹_21255" data-name="그룹 21255" transform="translate(-97 -18702)">
      <g id="그룹_21254" data-name="그룹 21254" clip-path="url(#clip-path-2)">
        <path id="패스_10957" data-name="패스 10957" d="M68.11,132.332H46.376a4.132,4.132,0,0,1-4.133-4.133V98.465a4.132,4.132,0,0,1,4.133-4.133H68.11a4.133,4.133,0,0,1,4.133,4.133V128.2a4.133,4.133,0,0,1-4.133,4.133" fill="#f07800"/>
        <path id="패스_10958" data-name="패스 10958" d="M70.231,169.728l2.132,6.4a2.3,2.3,0,0,0,.557.9l.29.29a2.3,2.3,0,0,0,3.933-1.629V160.512H70.231Z" transform="translate(1)" fill="#1e1e1e"/>
        <path id="패스_10959" data-name="패스 10959" d="M109.993,146.876a2.125,2.125,0,0,1-1.871.716l-4.7-.594-7.389-6.4,4.266-4.926,9.48,8.209a2.123,2.123,0,0,1,.215,2.994" transform="translate(1)" fill="#1e1e1e"/>
        <path id="패스_10970" data-name="패스 10970" d="M95.935,49.966s-4-17.988-21.985-11.992a15.869,15.869,0,0,0-9.993-7.235,24.04,24.04,0,0,0-11.992,0,15.869,15.869,0,0,0-9.994,7.235c-17.988-6-21.985,11.992-21.985,11.992C9.913,48.707,4.6,58.6,2.038,63.117v.02a16.717,16.717,0,0,0,19.947,2.818S29.5,75.329,44.51,72.271a22.74,22.74,0,0,0,13.451,3.677,22.742,22.742,0,0,0,13.451-3.677c15.009,3.058,22.524-6.316,22.524-6.316a16.7,16.7,0,0,0,19.947-2.838c-2.558-4.517-7.875-14.41-17.948-13.151" fill="#2e3a7f"/>
        <rect id="사각형_27384" data-name="사각형 27384" width="3.001" height="35.788" transform="matrix(0.94, -0.342, 0.342, 0.94, 17.748, 51.706)" fill="#e4c05c"/>
        <rect id="사각형_27385" data-name="사각형 27385" width="34.736" height="3.001" transform="matrix(0.682, -0.731, 0.731, 0.682, 88.331, 85.197)" fill="#e4c05c"/>
        <rect id="사각형_27386" data-name="사각형 27386" width="33.736" height="3.001" transform="translate(85.107 83.698) rotate(-73)" fill="#e4c05c"/>
        <path id="패스_10971" data-name="패스 10971" d="M71.412,72.271a22.743,22.743,0,0,1-13.451,3.678A22.743,22.743,0,0,1,44.51,72.271c.02-21.885,4.677-32.918,7.455-37.535a24.063,24.063,0,0,1,11.992,0c2.778,4.617,7.435,15.65,7.455,37.535" fill="#4e63dd"/>
        <rect id="사각형_27378" data-name="사각형 27378" width="3.001" height="35.736" transform="translate(1.797 62.137) rotate(-41)" fill="#e4c05c"/>
        <path id="패스_10972" data-name="패스 10972" d="M76.928,2.758a66.586,66.586,0,0,0-37.934,0C16.289,9.513,0,28.1,0,49.966A80.035,80.035,0,0,0,2.018,63.117a.02.02,0,0,0,.02.02v-.02a17.118,17.118,0,0,1,17.948-9.154s4-17.987,21.986-11.991a15.869,15.869,0,0,1,9.993-7.236,24.063,24.063,0,0,1,11.992,0,15.874,15.874,0,0,1,9.993,7.236c17.988-6,21.985,11.991,21.985,11.991a17.118,17.118,0,0,1,17.948,9.154,79.3,79.3,0,0,0,2.039-13.151C115.922,28.1,99.633,9.513,76.928,2.758Z" fill="#5572ff"/>
        <path id="패스_10973" data-name="패스 10973" d="M41.972,41.972c-17.988-6-21.985,11.992-21.985,11.992C12.892,25.583,34.117,6.656,38.994,2.758A65.362,65.362,0,0,1,57.961,0S39.973,7.995,41.972,41.972" fill="#ecf0f1"/>
        <path id="패스_10969" data-name="패스 10969" d="M26.726,76.649v6.663a1.317,1.317,0,1,0,2.634,0V76.649a1.317,1.317,0,1,0-2.634,0" fill="#ffceb6"/>
        <path id="패스_10968" data-name="패스 10968" d="M21.458,77.888v5.424a1.317,1.317,0,1,0,2.634,0V77.888a1.317,1.317,0,1,0-2.634,0" fill="#ffceb6"/>
        <path id="패스_10967" data-name="패스 10967" d="M24.092,77.888v5.424a1.317,1.317,0,1,0,2.634,0V77.888a1.317,1.317,0,1,0-2.634,0" fill="#ffceb6"/>
        <path id="패스_10966" data-name="패스 10966" d="M29.361,77.888v5.424a1.317,1.317,0,1,0,2.634,0V77.888a1.317,1.317,0,1,0-2.634,0" fill="#ffceb6"/>
        <path id="패스_10965" data-name="패스 10965" d="M33.374,82.788c-.062-.006-.124-.014-.186-.017-.5-.018-1.149.151-1.446-.1-.354-.3-.094-.976-.119-1.488s.01-1-.009-1.5a1.959,1.959,0,0,0-1.921-1.919q-3.09-.036-6.181,0a2.1,2.1,0,0,0-1.9,1.471c0,3.38-.053,6.759,0,10.138a4.974,4.974,0,0,0,4.6,4.4,6.421,6.421,0,0,0,2.163-.1c-.074-.068-.016-.107.039-.122a4.9,4.9,0,0,0,3.34-4.769c-.089-1.33.175-2.113,1.64-2.474a1.8,1.8,0,0,0,1.044-2.84,1.578,1.578,0,0,0-1.068-.684" fill="#ffceb6"/>
        <path id="패스_10976" data-name="패스 10976" d="M32.45,88.864v8.264H82.036V88.864h11.02v11.493a7.793,7.793,0,0,1-7.793,7.791H71.017v24.793H43.469V108.148H29.222a7.793,7.793,0,0,1-7.791-7.794V88.864Z" fill="#f35244"/>
        <path id="패스_10964" data-name="패스 10964" d="M87.522,76.649v6.663a1.317,1.317,0,1,1-2.634,0V76.649a1.317,1.317,0,0,1,2.634,0" fill="#ffceb6"/>
        <path id="패스_10963" data-name="패스 10963" d="M92.791,77.888v5.424a1.317,1.317,0,0,1-2.634,0V77.888a1.317,1.317,0,0,1,2.634,0" fill="#ffceb6"/>
        <path id="패스_10962" data-name="패스 10962" d="M90.157,77.888v5.424a1.317,1.317,0,0,1-2.635,0V77.888a1.317,1.317,0,0,1,2.635,0" fill="#ffceb6"/>
        <path id="패스_10961" data-name="패스 10961" d="M84.888,77.888v5.424a1.317,1.317,0,0,1-2.634,0V77.888a1.317,1.317,0,0,1,2.634,0" fill="#ffceb6"/>
        <path id="패스_10960" data-name="패스 10960" d="M80.875,82.788c.062-.006.124-.014.186-.017.5-.018,1.149.151,1.446-.1.354-.3.094-.976.119-1.488s-.01-1,.009-1.5a1.959,1.959,0,0,1,1.921-1.919q3.09-.036,6.181,0a2.1,2.1,0,0,1,1.9,1.471c0,3.38.053,6.759,0,10.138a4.974,4.974,0,0,1-4.6,4.4,6.421,6.421,0,0,1-2.163-.1c.074-.068.016-.107-.039-.122a4.9,4.9,0,0,1-3.34-4.769c.089-1.33-.175-2.113-1.64-2.474a1.8,1.8,0,0,1-1.044-2.84,1.578,1.578,0,0,1,1.068-.684" fill="#ffceb6"/>
        <path id="패스_10974" data-name="패스 10974" d="M73.95,41.972a15.869,15.869,0,0,0-9.993-7.235,24.04,24.04,0,0,0-11.992,0,15.864,15.864,0,0,0-9.993,7.235C39.973,7.995,57.961,0,57.961,0S75.949,7.995,73.95,41.972" fill="#5572ff"/>
        <path id="패스_10975" data-name="패스 10975" d="M95.935,53.964s-4-17.988-21.985-11.992C75.948,7.995,57.961,0,57.961,0A65.334,65.334,0,0,1,76.928,2.759c4.877,3.9,26.1,22.824,19.007,51.205" fill="#ecf0f1"/>
        <path id="패스_10978" data-name="패스 10978" d="M52.08,171.508a9.406,9.406,0,0,1-9.406-9.406V132.941H70.222L86.751,149.47l9.642-9.642,8.264,8.264-14.58,14.581a6.651,6.651,0,0,1-9.406,0L64.713,146.715H56.448v13.774H70.222v11.019Z" transform="translate(1)" fill="#34507b"/>
        <path id="패스_10979" data-name="패스 10979" d="M68.845,150.847l-4.132-4.132,5.509-13.774,6.887,6.887Z" transform="translate(1)" fill="#353f52"/>
        <path id="패스_10980" data-name="패스 10980" d="M56.448,152.224l-13.774-5.51V132.94l13.774,13.774Z" transform="translate(1)" fill="#353f52"/>
        <path id="패스_10977" data-name="패스 10977" d="M32.655,88.864v8.264h13.53a120.805,120.805,0,0,0,10.051,35.813H43.674V108.148H29.427a7.793,7.793,0,0,1-7.791-7.794V88.864Z" fill="#e64c3f"/>
        <path id="패스_10981" data-name="패스 10981" d="M57.572,96.989h0a9.725,9.725,0,0,1-9.725-9.725V80.273a9.725,9.725,0,1,1,19.45,0v6.991a9.725,9.725,0,0,1-9.725,9.725" fill="#ffceb6"/>
        <rect id="사각형_27379" data-name="사각형 27379" width="5" height="35.951" transform="translate(45.039 96.988)" fill="#f98500"/>
        <rect id="사각형_27380" data-name="사각형 27380" width="5" height="35.951" transform="translate(65.039 96.988)" fill="#f98500"/>
        <rect id="사각형_27381" data-name="사각형 27381" width="20.362" height="1.818" transform="translate(47.202 80.512)" fill="#faf8f9"/>
        <path id="패스_10982" data-name="패스 10982" d="M47.2,80.512h7.04V70.83a10.182,10.182,0,0,0-7.04,9.682" fill="#dbe7f6"/>
        <path id="패스_10983" data-name="패스 10983" d="M60.523,70.831v9.682h7.041a10.182,10.182,0,0,0-7.041-9.682" fill="#dbe7f6"/>
        <path id="패스_10984" data-name="패스 10984" d="M54.242,70.831v9.682h2.094V70.385a10.152,10.152,0,0,0-2.094.446" fill="#8bb5e3"/>
        <path id="패스_10985" data-name="패스 10985" d="M57.383,70.332h0a10.351,10.351,0,0,0-1.047.053V80.513H58.43V70.385a10.336,10.336,0,0,0-1.047-.053" fill="#4e92d6"/>
        <path id="패스_10986" data-name="패스 10986" d="M58.43,70.385V80.513h2.094V70.831a10.087,10.087,0,0,0-2.094-.446" fill="#8bb5e3"/>
        <path id="패스_10987" data-name="패스 10987" d="M48.039,82.505h17.45v6.2H59.883L58.82,87.619H54.686L53.625,88.7H48.039Z" transform="translate(0.808 -0.175)" fill="#e4f7fd"/>
        <rect id="사각형_27383" data-name="사각형 27383" width="1" height="5" transform="translate(66.297 82.331)" fill="#4e92d6"/>
        <rect id="사각형_27382" data-name="사각형 27382" width="1" height="5" transform="translate(47.847 82.331)" fill="#4e92d6"/>
      </g>
    </g>
  </g>
</svg>
