<svg xmlns="http://www.w3.org/2000/svg" xmlns:xlink="http://www.w3.org/1999/xlink" width="180" height="180" viewBox="0 0 180 180">
  <defs>
    <clipPath id="clip-path">
      <rect id="사각형_27420" data-name="사각형 27420" width="180" height="180" transform="translate(1098 -18708)" fill="#fff"/>
    </clipPath>
  </defs>
  <g id="img_mbti14_esfj" transform="translate(-1098 18708)" clip-path="url(#clip-path)">
    <g id="그룹_21262" data-name="그룹 21262" transform="translate(312.633 -127.999)">
      <path id="패스_11071" data-name="패스 11071" d="M79.176,147.483V129.526h2.566l12.827-17.958-6.847-38.8A10.262,10.262,0,0,0,82.6,65.583L63.783,55.13,56.528,44.245H38.041L30.784,55.13,11.969,65.583A10.262,10.262,0,0,0,6.847,72.77L0,111.568l12.827,17.958h2.566v17.957Z" transform="translate(828.367 -18563.469)" fill="#417dfd"/>
      <path id="패스_11072" data-name="패스 11072" d="M69.525,29.022a4.167,4.167,0,1,0-4.167,4.167,4.167,4.167,0,0,0,4.167-4.167" transform="translate(828 -18564)" fill="#fcc3ac"/>
      <path id="패스_11073" data-name="패스 11073" d="M34.1,29.022a4.167,4.167,0,1,0-4.167,4.167A4.167,4.167,0,0,0,34.1,29.022" transform="translate(828 -18564)" fill="#fcc3ac"/>
      <path id="패스_11074" data-name="패스 11074" d="M63.646,54.844,57.552,70.075l-9.9,24.754-9.9-24.754L31.658,54.844l5.331-8L39.2,43.535H56.1l2.21,3.312Z" transform="translate(828 -18564)" fill="#b2caef"/>
      <path id="패스_11113" data-name="패스 11113" d="M72.4,37.686l2.8,11.984-5.3,11.912L64.566,49.67l2.8-11.984Z" transform="translate(805.766 -18530.564)" fill="#272727"/>
      <path id="패스_11075" data-name="패스 11075" d="M47.652,60.175l-9.9,9.9L31.658,54.844l5.331-8Z" transform="translate(828 -18564)" fill="#c8dfff"/>
      <path id="패스_11076" data-name="패스 11076" d="M63.646,54.844,57.552,70.075l-9.9-9.9L58.315,46.847Z" transform="translate(828 -18564)" fill="#c8dfff"/>
      <path id="패스_11077" data-name="패스 11077" d="M51.1,109.99v-9.51a2.8,2.8,0,0,1,2.8-2.8H77.081L71.014,109.99Z" transform="translate(828 -18561.717)" fill="#e3ebff"/>
      <path id="패스_11078" data-name="패스 11078" d="M53.924,109.99v-3.38a.428.428,0,0,1,.855,0v3.38Z" transform="translate(828 -18561.717)" fill="#b2bfff"/>
      <path id="패스_11079" data-name="패스 11079" d="M62.992,109.99l1.452-11.166h1.843l1.452,11.166Z" transform="translate(828 -18561.717)" fill="#ff6476"/>
      <path id="패스_11080" data-name="패스 11080" d="M62.992,109.99l1.452-11.166h.924L63.929,109.99Z" transform="translate(828 -18561.717)" fill="#f6556d"/>
      <path id="패스_11081" data-name="패스 11081" d="M61.509,97.689l3.807,3.807,3.807-3.807Z" transform="translate(828 -18561.717)" fill="#ff6476"/>
      <path id="패스_11082" data-name="패스 11082" d="M69.12,97.685H65.314l4.1,2.272Z" transform="translate(828 -18561.717)" fill="#b2bfff"/>
      <path id="패스_11083" data-name="패스 11083" d="M61.21,99.957l3.5-1.935.608-.337h-3.8Z" transform="translate(828 -18561.717)" fill="#b2bfff"/>
      <rect id="사각형_27395" data-name="사각형 27395" width="7.553" height="5.481" transform="translate(889.539 -18469.512)" fill="#ffbdaa"/>
      <path id="패스_11084" data-name="패스 11084" d="M61.539,92.206v3.927a14.248,14.248,0,0,0,7.554-1.794V92.206Z" transform="translate(828 -18561.717)" fill="#efaa98"/>
      <path id="패스_11085" data-name="패스 11085" d="M67.809,89.56c0,.036.011.071.011.107a2.5,2.5,0,0,1-5.008,0c0-.036.01-.071.011-.107Z" transform="translate(828 -18561.717)" fill="#fff"/>
      <path id="패스_11086" data-name="패스 11086" d="M57.986,83.507a2.191,2.191,0,1,1-1.856,2.165,2.028,2.028,0,0,1,1.856-2.165" transform="translate(828 -18561.717)" fill="#ffbdaa"/>
      <path id="패스_11087" data-name="패스 11087" d="M72.705,83.507a2.191,2.191,0,1,1-1.856,2.165,2.028,2.028,0,0,1,1.856-2.165" transform="translate(828 -18561.717)" fill="#ffbdaa"/>
      <path id="패스_11088" data-name="패스 11088" d="M57.736,83.312V87.3a7.664,7.664,0,0,0,15.327,0V83.312a7.664,7.664,0,1,0-15.327,0" transform="translate(828 -18561.717)" fill="#ffbdaa"/>
      <path id="패스_11089" data-name="패스 11089" d="M46.947,109.99v-5.912a6.386,6.386,0,0,1,6.386-6.386h.662v12.3Z" transform="translate(828 -18561.717)" fill="#e3ebff"/>
      <path id="패스_11090" data-name="패스 11090" d="M23.669,98.125c2.837,4.6,19.482,3.359,21.633-1.6.164-.379.416-13.508-1.565-18.742S38.33,74.6,38.33,74.6c0-.066-.036-2.21-4.74-3.081-4.776-.881-9.8,3.254-10.647,10.576-.674,5.837-.727,13.675.726,16.032" transform="translate(828 -18561.717)" fill="#3d3d3d"/>
      <path id="패스_11091" data-name="패스 11091" d="M26.807,83.879a2.11,2.11,0,0,1,0,4.171,2.11,2.11,0,0,1,0-4.171" transform="translate(828 -18561.717)" fill="#ffbdaa"/>
      <path id="패스_11092" data-name="패스 11092" d="M40.987,83.879A2.11,2.11,0,1,1,39.2,85.964a1.954,1.954,0,0,1,1.787-2.085" transform="translate(828 -18561.717)" fill="#ffbdaa"/>
      <rect id="사각형_27396" data-name="사각형 27396" width="7.553" height="5.481" transform="translate(857.983 -18469.512)" fill="#ffbdaa"/>
      <path id="패스_11093" data-name="패스 11093" d="M29.983,92.206v3.927a14.248,14.248,0,0,0,7.554-1.794V92.206Z" transform="translate(828 -18561.717)" fill="#efaa98"/>
      <path id="패스_11094" data-name="패스 11094" d="M26.566,83.691V87.53a7.383,7.383,0,1,0,14.766,0V83.691a7.383,7.383,0,1,0-14.766,0" transform="translate(828 -18561.717)" fill="#ffbdaa"/>
      <path id="패스_11095" data-name="패스 11095" d="M24.9,83.368a8.95,8.95,0,0,0,11.675-4.895l.665-1.622-8.283-3.394Z" transform="translate(828 -18561.717)" fill="#3d3d3d"/>
      <path id="패스_11096" data-name="패스 11096" d="M36.984,74.732l5.645,2.527v3.972l-1.186,2.648-1.167-.522a6.527,6.527,0,0,1-3.292-8.625" transform="translate(828 -18561.717)" fill="#3d3d3d"/>
      <path id="패스_11097" data-name="패스 11097" d="M27,109.99,21.8,97.741a2.8,2.8,0,0,1,.529-.053H45.8a2.8,2.8,0,0,1,2.794,2.793v9.509Z" transform="translate(828 -18561.717)" fill="#e3ebff"/>
      <path id="패스_11098" data-name="패스 11098" d="M29,97.688l4.765,9.689,4.756-9.689Z" transform="translate(828 -18561.717)" fill="#b2bfff"/>
      <path id="패스_11099" data-name="패스 11099" d="M44.671,109.99v-3.38a.428.428,0,0,1,.855,0v3.38Z" transform="translate(828 -18561.717)" fill="#b2bfff"/>
      <path id="패스_11100" data-name="패스 11100" d="M29.982,97.688l3.779,7.963,3.771-7.963Z" transform="translate(828 -18561.717)" fill="#ffbdaa"/>
      <path id="패스_11112" data-name="패스 11112" d="M0,12.3Z" transform="translate(849.804 -18464.025)" fill="#e3ebff"/>
      <path id="패스_11101" data-name="패스 11101" d="M45.454,109.99v-12.3h.662a6.386,6.386,0,0,1,6.386,6.386v5.912Z" transform="translate(828 -18561.717)" fill="#e3ebff"/>
      <path id="패스_11102" data-name="패스 11102" d="M69.419,80.712H58.456a3.083,3.083,0,0,1,0-6.167H69.419a3.083,3.083,0,0,1,0,6.167" transform="translate(828 -18561.717)" fill="#3d3d3d"/>
      <path id="패스_11103" data-name="패스 11103" d="M69.761,80.712l3.484,3.175V77.41a2.865,2.865,0,0,0-2.864-2.865h-.515Z" transform="translate(828 -18561.717)" fill="#3d3d3d"/>
      <path id="패스_11104" data-name="패스 11104" d="M49.467,118.625,23.7,112.183a2.594,2.594,0,0,1-1.928-2.089L19.6,97.1a2.592,2.592,0,0,1,5.113-.852L26.6,107.566l24.121,6.03Z" transform="translate(828 -18564.047)" fill="#3868ee"/>
      <path id="패스_11105" data-name="패스 11105" d="M48.568,113.6l24.121-6.03,1.886-11.318a2.592,2.592,0,1,1,5.114.852l-2.166,12.994a2.592,2.592,0,0,1-1.928,2.088l-25.77,6.443Z" transform="translate(828 -18564.047)" fill="#3868ee"/>
      <path id="패스_11106" data-name="패스 11106" d="M47.652,60.175,36.989,46.847,39.2,43.535H56.106l2.209,3.312Z" transform="translate(828 -18564)" fill="#ffb596"/>
      <path id="패스_11107" data-name="패스 11107" d="M65.794,11.182V31.916a18.142,18.142,0,0,1-36.285,0V11.182L37.285,6H60.61Z" transform="translate(828 -18564)" fill="#ffceb6"/>
      <path id="패스_11108" data-name="패스 11108" d="M56.223,16.066H27.017a7.711,7.711,0,0,1-7.711-7.711V7.711A7.711,7.711,0,0,1,27.017,0H56.223a7.711,7.711,0,0,1,7.711,7.711v.644a7.711,7.711,0,0,1-7.711,7.711" transform="translate(828 -18564)" fill="#3d3d3d"/>
      <path id="패스_11109" data-name="패스 11109" d="M56.794,16.066l9.078,8.272V7.464A7.464,7.464,0,0,0,58.408,0H57.069Z" transform="translate(828 -18564)" fill="#3d3d3d"/>
      <path id="패스_11110" data-name="패스 11110" d="M49.7,113.58l.024,11.4,7.125,3.632A14.2,14.2,0,0,0,68.916,129l15.518-6.688a2.717,2.717,0,0,0-2.089-5.015l-10.26,4.13,0-2.292A2.972,2.972,0,0,0,69.1,116.17l-4.924.011-.86-.664a9.382,9.382,0,0,0-5.75-1.954Z" transform="translate(828 -18563.648)" fill="#ffceb6"/>
      <path id="패스_11111" data-name="패스 11111" d="M62.217,122.107l7.9-.017s2.632-.006,2.036-2.3" transform="translate(828 -18563.648)" fill="none" stroke="#f99f87" stroke-linecap="round" stroke-width="1"/>
      <rect id="사각형_27398" data-name="사각형 27398" width="63.657" height="17.684" transform="translate(844.068 -18433.67)" fill="#3868ee"/>
      <path id="패스_11114" data-name="패스 11114" d="M67.583,38.908l-2.736-5.474,5.473-5.473,5.474,5.473-2.736,5.474Z" transform="translate(805.332 -18531.785)" fill="#212121"/>
    </g>
  </g>
</svg>
