<svg xmlns="http://www.w3.org/2000/svg" xmlns:xlink="http://www.w3.org/1999/xlink" width="180" height="180" viewBox="0 0 180 180">
  <defs>
    <clipPath id="clip-path">
      <rect id="사각형_27407" data-name="사각형 27407" width="180" height="180" transform="translate(-1785 -18712)" fill="#fff"/>
    </clipPath>
    <clipPath id="clip-path-2">
      <rect id="사각형_27322" data-name="사각형 27322" width="151.769" height="141.804" fill="none"/>
    </clipPath>
  </defs>
  <g id="img_mbti01_istj" transform="translate(1785 18712)" clip-path="url(#clip-path)">
    <g id="그룹_21226" data-name="그룹 21226" transform="translate(-1771 -18693)">
      <g id="그룹_21225" data-name="그룹 21225" clip-path="url(#clip-path-2)">
        <path id="패스_10718" data-name="패스 10718" d="M79.6,27.774V20.806l-5.425-.834A19.26,19.26,0,0,0,71.7,14.005l3.246-4.427L70.021,4.651,65.594,7.9a19.212,19.212,0,0,0-5.967-2.472L58.793,0H51.825l-.834,5.426A19.212,19.212,0,0,0,45.024,7.9L40.6,4.651,35.67,9.578l3.246,4.427a19.259,19.259,0,0,0-2.472,5.967l-5.425.834v6.968l5.425.835a19.27,19.27,0,0,0,2.472,5.967L35.67,39,40.6,43.929l4.427-3.246a19.211,19.211,0,0,0,5.967,2.472l.834,5.425h6.968l.834-5.425a19.211,19.211,0,0,0,5.967-2.472l4.427,3.246L74.948,39,71.7,34.576a19.27,19.27,0,0,0,2.472-5.967ZM55.309,35.9A11.612,11.612,0,1,1,66.922,24.29,11.613,11.613,0,0,1,55.309,35.9" fill="#4f4f4f"/>
        <path id="패스_10719" data-name="패스 10719" d="M125.6,54.042l-1.83-5.688-4.648.745a16.522,16.522,0,0,0-3.586-4.222l1.487-4.467-5.316-2.726L108.945,41.5a16.489,16.489,0,0,0-5.52-.451l-2.107-4.209L95.63,38.668l.744,4.646A16.54,16.54,0,0,0,92.153,46.9l-4.467-1.487L84.959,50.73l3.813,2.761a16.492,16.492,0,0,0-.45,5.521l-4.21,2.106,1.831,5.688,4.648-.744a16.517,16.517,0,0,0,3.586,4.221L92.69,74.75l5.316,2.727,2.761-3.814a16.463,16.463,0,0,0,5.52.452l2.107,4.209,5.688-1.831-.744-4.649a16.457,16.457,0,0,0,4.221-3.585l4.466,1.487,2.728-5.316-3.813-2.761a16.49,16.49,0,0,0,.45-5.521ZM107.907,67.06a9.958,9.958,0,1,1,6.429-12.531,9.96,9.96,0,0,1-6.429,12.531" fill="#4f4f4f"/>
        <path id="패스_10720" data-name="패스 10720" d="M73.049,77l-1.566-4.864-3.975.637a14.106,14.106,0,0,0-3.066-3.61l1.271-3.82-4.546-2.333-2.361,3.261a14.09,14.09,0,0,0-4.721-.385l-1.8-3.6-4.864,1.566.636,3.975a14.1,14.1,0,0,0-3.61,3.066l-3.82-1.271-2.332,4.546,3.261,2.361a14.09,14.09,0,0,0-.385,4.721l-3.6,1.8,1.566,4.864,3.974-.636a14.143,14.143,0,0,0,3.067,3.61L44.9,94.714l4.547,2.333,2.361-3.261a14.09,14.09,0,0,0,4.721.385l1.8,3.6L63.2,96.205l-.637-3.975a14.086,14.086,0,0,0,3.61-3.066l3.82,1.272,2.333-4.547-3.261-2.361a14.142,14.142,0,0,0,.385-4.721ZM57.918,88.138a8.517,8.517,0,1,1,5.5-10.716,8.516,8.516,0,0,1-5.5,10.716" fill="#4f4f4f"/>
        <path id="패스_10721" data-name="패스 10721" d="M43.548,83.449,33.6,118.116,76.881,141.1a5.672,5.672,0,0,0,5.545-.031,4.5,4.5,0,0,0,2.232-3.714.576.576,0,0,1,.684-.513c1.984.368,7.8.972,9.006-4.318a.594.594,0,0,1,.532-.47c1.673-.115,7.544-.918,8.21-6.518a.582.582,0,0,1,.452-.514c1.627-.341,7.459-1.991,6.452-7.955a9.445,9.445,0,0,0-3.609-5.81L69.894,82.961a12.315,12.315,0,0,0-9.645-2.4Z" fill="#ffdac9"/>
        <path id="패스_10722" data-name="패스 10722" d="M38.047,125.059h0a4,4,0,0,1-1.164-5.536l2.733-4.187a4,4,0,1,1,6.7,4.372L43.583,123.9a4,4,0,0,1-5.536,1.163" fill="#fcc3ac"/>
        <path id="패스_10723" data-name="패스 10723" d="M24.544,123.641,2.333,118.026a3.09,3.09,0,0,1-2.238-3.754L9.518,77a3.091,3.091,0,0,1,3.754-2.238l22.211,5.615Z" fill="#809ace"/>
        <path id="패스_10724" data-name="패스 10724" d="M32.761,127.673l-7.77-1.964a1.493,1.493,0,0,1-1.081-1.814l11.149-44.1a1.493,1.493,0,0,1,1.813-1.081l7.77,1.964a1.493,1.493,0,0,1,1.082,1.813l-11.15,44.1a1.493,1.493,0,0,1-1.813,1.081" fill="#c5cfe2"/>
        <path id="패스_10725" data-name="패스 10725" d="M44.382,128.333h0a5.5,5.5,0,0,1,0-7.778l5.657-5.657a5.5,5.5,0,0,1,7.778,7.778l-5.657,5.657a5.5,5.5,0,0,1-7.778,0" fill="#fcc3ac"/>
        <path id="패스_10726" data-name="패스 10726" d="M65.382,138.333h0a5.5,5.5,0,0,1,0-7.778l5.657-5.657a5.5,5.5,0,1,1,7.778,7.778l-5.657,5.657a5.5,5.5,0,0,1-7.778,0" fill="#fcc3ac"/>
        <path id="패스_10727" data-name="패스 10727" d="M52.938,135.889h0a6.285,6.285,0,0,1,0-8.889l9.328-9.329a6.286,6.286,0,1,1,8.89,8.89l-9.329,9.328a6.285,6.285,0,0,1-8.889,0" fill="#fcc3ac"/>
        <path id="패스_10728" data-name="패스 10728" d="M99.29,84.664,83.035,74.445a15.423,15.423,0,0,0-9.151-2.338l-1.007.062a4.949,4.949,0,0,0-2.357.765l-2.741,1.744a30.482,30.482,0,0,0-10.5,11.314L55.6,89.116l-2.845,3.962a4.7,4.7,0,0,0,.449,6.078c1.476,1.453,3.867,2.509,7.625,1.279a13.169,13.169,0,0,0,6.386-4.762,30.108,30.108,0,0,1,4.71-5.116,6.051,6.051,0,0,1,7.7.076l25.98,21.592a8.983,8.983,0,0,1,3.385,8.938l-.127.631a1.132,1.132,0,0,0,1.23,1.346,8.383,8.383,0,0,0,6.295-4.1c1.889-2.9.363-12.555-1.212-20a16.236,16.236,0,0,0-10.979-12.1,21.389,21.389,0,0,1-4.911-2.278" fill="#fcc3ac"/>
        <path id="패스_10729" data-name="패스 10729" d="M127.225,123.641l22.211-5.615a3.091,3.091,0,0,0,2.238-3.754L142.251,77a3.091,3.091,0,0,0-3.754-2.238l-22.212,5.615Z" fill="#484849"/>
        <path id="패스_10730" data-name="패스 10730" d="M119.008,127.673l7.77-1.964a1.493,1.493,0,0,0,1.081-1.814l-11.149-44.1a1.493,1.493,0,0,0-1.813-1.081l-7.77,1.964a1.493,1.493,0,0,0-1.082,1.813l11.15,44.1a1.493,1.493,0,0,0,1.813,1.081" fill="#f5f5f5"/>
      </g>
    </g>
  </g>
</svg>
