<svg xmlns="http://www.w3.org/2000/svg" xmlns:xlink="http://www.w3.org/1999/xlink" width="180" height="180" viewBox="0 0 180 180">
  <defs>
    <clipPath id="clip-path">
      <rect id="사각형_27151" data-name="사각형 27151" width="180" height="180" transform="translate(1644 1194)" fill="#c7c7c7"/>
    </clipPath>
    <linearGradient id="linear-gradient" x1="0.247" y1="-0.065" x2="0.878" y2="0.928" gradientUnits="objectBoundingBox">
      <stop offset="0" stop-color="#ff4d6f"/>
      <stop offset="1" stop-color="#f65454"/>
    </linearGradient>
    <filter id="타원_1224" x="0" y="0" width="190" height="190" filterUnits="userSpaceOnUse">
      <feOffset dx="5" dy="5" input="SourceAlpha"/>
      <feGaussianBlur stdDeviation="5" result="blur"/>
      <feFlood flood-color="#144788" flood-opacity="0.2"/>
      <feComposite operator="in" in2="blur"/>
      <feComposite in="SourceGraphic"/>
    </filter>
    <filter id="타원_1224-2" x="0" y="0" width="190" height="190" filterUnits="userSpaceOnUse">
      <feOffset dx="2" dy="3" input="SourceAlpha"/>
      <feGaussianBlur stdDeviation="4" result="blur-2"/>
      <feFlood flood-color="#fdbbbb" result="color"/>
      <feComposite operator="out" in="SourceGraphic" in2="blur-2"/>
      <feComposite operator="in" in="color"/>
      <feComposite operator="in" in2="SourceGraphic"/>
    </filter>
    <filter id="타원_1225" x="21" y="26" width="138" height="138" filterUnits="userSpaceOnUse">
      <feOffset dy="3" input="SourceAlpha"/>
      <feGaussianBlur stdDeviation="3" result="blur-3"/>
      <feFlood flood-opacity="0.161"/>
      <feComposite operator="in" in2="blur-3"/>
      <feComposite in="SourceGraphic"/>
    </filter>
    <filter id="타원_1225-2" x="21" y="26" width="138" height="138" filterUnits="userSpaceOnUse">
      <feOffset dx="2" dy="2" input="SourceAlpha"/>
      <feGaussianBlur stdDeviation="2" result="blur-4"/>
      <feFlood flood-opacity="0.161" result="color-2"/>
      <feComposite operator="out" in="SourceGraphic" in2="blur-4"/>
      <feComposite operator="in" in="color-2"/>
      <feComposite operator="in" in2="SourceGraphic"/>
    </filter>
    <clipPath id="clip-path-2">
      <rect id="사각형_27150" data-name="사각형 27150" width="80" height="80" transform="translate(1752 1128)" fill="#fff" stroke="#707070" stroke-width="1"/>
    </clipPath>
    <linearGradient id="linear-gradient-2" x1="0.5" x2="0.5" y2="1" gradientUnits="objectBoundingBox">
      <stop offset="0" stop-color="#ff9fb1"/>
      <stop offset="1" stop-color="#f65454"/>
    </linearGradient>
    <filter id="합치기_51" x="84.533" y="4.652" width="94.698" height="94.699" filterUnits="userSpaceOnUse">
      <feOffset dx="2" dy="2" input="SourceAlpha"/>
      <feGaussianBlur stdDeviation="3" result="blur-5"/>
      <feFlood flood-opacity="0.161"/>
      <feComposite operator="in" in2="blur-5"/>
      <feComposite in="SourceGraphic"/>
    </filter>
    <filter id="합치기_51-2" x="84.533" y="4.652" width="94.698" height="94.699" filterUnits="userSpaceOnUse">
      <feOffset dy="2" input="SourceAlpha"/>
      <feGaussianBlur stdDeviation="1.5" result="blur-6"/>
      <feFlood flood-color="#fff" flood-opacity="0.161" result="color-3"/>
      <feComposite operator="out" in="SourceGraphic" in2="blur-6"/>
      <feComposite operator="in" in="color-3"/>
      <feComposite operator="in" in2="SourceGraphic"/>
    </filter>
  </defs>
  <g id="img_inappropriate" transform="translate(-1644 -1194)" clip-path="url(#clip-path)">
    <g id="그룹_21044" data-name="그룹 21044" transform="translate(-72 61)">
      <g data-type="innerShadowGroup">
        <g transform="matrix(1, 0, 0, 1, 1716, 1133)" filter="url(#타원_1224)">
          <circle id="타원_1224-3" data-name="타원 1224" cx="80" cy="80" r="80" transform="translate(10 10)" fill="url(#linear-gradient)"/>
        </g>
        <g transform="matrix(1, 0, 0, 1, 1716, 1133)" filter="url(#타원_1224-2)">
          <circle id="타원_1224-4" data-name="타원 1224" cx="80" cy="80" r="80" transform="translate(10 10)" fill="#fff"/>
        </g>
      </g>
      <g data-type="innerShadowGroup">
        <g transform="matrix(1, 0, 0, 1, 1716, 1133)" filter="url(#타원_1225)">
          <circle id="타원_1225-3" data-name="타원 1225" cx="60" cy="60" r="60" transform="translate(30 32)" fill="#fff"/>
        </g>
        <g transform="matrix(1, 0, 0, 1, 1716, 1133)" filter="url(#타원_1225-2)">
          <circle id="타원_1225-4" data-name="타원 1225" cx="60" cy="60" r="60" transform="translate(30 32)" fill="#fff"/>
        </g>
      </g>
      <g id="마스크_그룹_13" data-name="마스크 그룹 13" transform="translate(54 15)" clip-path="url(#clip-path-2)">
        <g data-type="innerShadowGroup">
          <g transform="matrix(1, 0, 0, 1, 1662, 1118)" filter="url(#합치기_51)">
            <path id="합치기_51-3" data-name="합치기 51" d="M18351.119,15715.617a6.01,6.01,0,1,1,4.1,1.615A6.006,6.006,0,0,1,18351.119,15715.617Zm-.152-.146c.051.05.1.1.152.146.023.023.045.048.07.071Zm8.57-8.434-.068-.068.223.217C18359.641,15707.136,18359.588,15707.087,18359.537,15707.038Zm-19.178-2.174-31.6-31.6a6.014,6.014,0,0,1,8.5-8.507l31.6,31.6a6.014,6.014,0,0,1-8.506,8.5Z" transform="translate(-1739.71 -24008.76) rotate(45)" fill="url(#linear-gradient-2)"/>
          </g>
          <g transform="matrix(1, 0, 0, 1, 1662, 1118)" filter="url(#합치기_51-2)">
            <path id="합치기_51-4" data-name="합치기 51" d="M18351.119,15715.617a6.01,6.01,0,1,1,4.1,1.615A6.006,6.006,0,0,1,18351.119,15715.617Zm-.152-.146c.051.05.1.1.152.146.023.023.045.048.07.071Zm8.57-8.434-.068-.068.223.217C18359.641,15707.136,18359.588,15707.087,18359.537,15707.038Zm-19.178-2.174-31.6-31.6a6.014,6.014,0,0,1,8.5-8.507l31.6,31.6a6.014,6.014,0,0,1-8.506,8.5Z" transform="translate(-1739.71 -24008.76) rotate(45)" fill="#fff"/>
          </g>
        </g>
      </g>
    </g>
  </g>
</svg>
