<svg xmlns="http://www.w3.org/2000/svg" xmlns:xlink="http://www.w3.org/1999/xlink" width="180" height="180" viewBox="0 0 180 180">
  <defs>
    <clipPath id="clip-path">
      <rect id="사각형_27418" data-name="사각형 27418" width="180" height="180" transform="translate(576 -18708)" fill="#fff"/>
    </clipPath>
    <clipPath id="clip-path-2">
      <rect id="사각형_27366" data-name="사각형 27366" width="139.541" height="129.563" fill="none"/>
    </clipPath>
  </defs>
  <g id="img_mbti12_entp" transform="translate(-576 18708)" clip-path="url(#clip-path)">
    <g id="그룹_21247" data-name="그룹 21247" transform="translate(596 -18683)">
      <rect id="사각형_27360" data-name="사각형 27360" width="41.831" height="16.268" transform="translate(7.901 97.492)" fill="#fc8c29"/>
      <rect id="사각형_27361" data-name="사각형 27361" width="36.254" height="4.183" transform="translate(10.69 93.31)" fill="#fff"/>
      <g id="그룹_21246" data-name="그룹 21246">
        <g id="그룹_21245" data-name="그룹 21245" clip-path="url(#clip-path-2)">
          <path id="패스_10860" data-name="패스 10860" d="M10.69,93.31V88.52S9.3,83.085,6.507,80.761a14.027,14.027,0,0,1-2.745-4.587A46.008,46.008,0,0,1,0,57.786V41.275l60.422,5.091S59.493,74.254,53.451,78.9l-3.125,4.2a17.1,17.1,0,0,0-3.382,10.21Z" fill="#bf7e68"/>
          <path id="패스_10861" data-name="패스 10861" d="M6.275,47.063h0A5.577,5.577,0,0,1,.7,41.486V30.331a5.577,5.577,0,1,1,11.154,0V41.486a5.577,5.577,0,0,1-5.577,5.577" fill="#bf7e68"/>
          <path id="패스_10862" data-name="패스 10862" d="M17.43,49.387h0a5.577,5.577,0,0,1-5.577-5.577V25.683a5.577,5.577,0,1,1,11.154,0V43.81a5.577,5.577,0,0,1-5.577,5.577" fill="#bf7e68"/>
          <path id="패스_10863" data-name="패스 10863" d="M42.528,51.014h0a6.739,6.739,0,0,1-6.739-6.739v-25.1a6.739,6.739,0,1,1,13.478,0v25.1a6.739,6.739,0,0,1-6.739,6.739" fill="#bf7e68"/>
          <path id="패스_10864" data-name="패스 10864" d="M29.747,53.57h0a6.739,6.739,0,0,1-6.74-6.739v-25.1a6.74,6.74,0,0,1,13.479,0v25.1a6.739,6.739,0,0,1-6.739,6.739" fill="#bf7e68"/>
          <path id="패스_10865" data-name="패스 10865" d="M12.317,41.486a5.578,5.578,0,0,1-11.155,0" fill="#bf7e68"/>
          <path id="패스_10866" data-name="패스 10866" d="M6.739,48.225A6.746,6.746,0,0,1,0,41.486a1.162,1.162,0,0,1,2.324,0,4.415,4.415,0,1,0,8.83,0,1.162,1.162,0,0,1,2.324,0,6.746,6.746,0,0,1-6.739,6.739" fill="#ed9877"/>
          <path id="패스_10867" data-name="패스 10867" d="M23.472,33.584V43.809a5.577,5.577,0,1,1-11.155,0V33.584" fill="#bf7e68"/>
          <path id="패스_10868" data-name="패스 10868" d="M17.894,50.549a6.746,6.746,0,0,1-6.739-6.739V33.584a1.162,1.162,0,0,1,2.324,0V43.81a4.415,4.415,0,0,0,8.83,0V33.584a1.162,1.162,0,0,1,2.324,0V43.81a6.746,6.746,0,0,1-6.739,6.739" fill="#ed9877"/>
          <path id="패스_10869" data-name="패스 10869" d="M36.951,29.633v17.2a6.74,6.74,0,1,1-13.479,0v-17.2" fill="#bf7e68"/>
          <path id="패스_10870" data-name="패스 10870" d="M30.211,54.732a7.909,7.909,0,0,1-7.9-7.9v-17.2a1.162,1.162,0,0,1,2.324,0v17.2a5.577,5.577,0,1,0,11.154,0v-17.2a1.162,1.162,0,0,1,2.324,0v17.2a7.909,7.909,0,0,1-7.9,7.9" fill="#ed9877"/>
          <path id="패스_10871" data-name="패스 10871" d="M50.208,33.016l.347,14.451A6.74,6.74,0,0,1,37.1,46.706l-.123-24.742" fill="#bf7e68"/>
          <path id="패스_10872" data-name="패스 10872" d="M43.836,54.988c-.152,0-.3,0-.456-.013a7.91,7.91,0,0,1-7.445-8.3L35.812,21.97A1.161,1.161,0,0,1,36.968,20.8h.006a1.163,1.163,0,0,1,1.162,1.156L38.259,46.7c0,.024,0,.048,0,.071a5.578,5.578,0,0,0,11.135.675l-.346-14.4a1.162,1.162,0,0,1,2.324-.056l.346,14.451c0,.031,0,.062,0,.093a7.9,7.9,0,0,1-7.879,7.456" fill="#ed9877"/>
          <path id="패스_10873" data-name="패스 10873" d="M59.763,53.753S63.587,30.9,49.92,29.571l-19.326.467a3.8,3.8,0,0,0-3.636,4.608c.9,3.845,4.527,8.833,17.2,9.4h3.719l-1.183,3.332a8.931,8.931,0,0,1-5.276,5.366A23.22,23.22,0,0,0,26.7,68.944" fill="#bf7e68"/>
          <path id="패스_10874" data-name="패스 10874" d="M27.887,71.233a1.163,1.163,0,0,1-1.066-1.624c6.09-14.071,16-17.373,18.617-18.017l2.143-4.771c-14.233-2.355-19.452-8.748-19.674-9.028a1.162,1.162,0,0,1,1.818-1.449c.066.082,5.346,6.419,19.7,8.406a1.162,1.162,0,0,1,.9,1.628l-3.011,6.7a1.162,1.162,0,0,1-.873.67c-.107.019-11.109,2.039-17.49,16.78a1.162,1.162,0,0,1-1.067.7" fill="#ed9877"/>
          <rect id="사각형_27362" data-name="사각형 27362" width="41.831" height="16.268" transform="translate(79.479 97.492)" fill="#a9ba5a"/>
          <rect id="사각형_27363" data-name="사각형 27363" width="36.254" height="4.183" transform="translate(82.267 93.31)" fill="#fff"/>
          <path id="패스_10875" data-name="패스 10875" d="M82.268,93.31V88.52s-1.394-5.435-4.183-7.759a14.027,14.027,0,0,1-2.745-4.587,46.008,46.008,0,0,1-3.762-18.388V41.275L132,46.366s-.929,27.888-6.971,32.536L121.9,83.1a17.1,17.1,0,0,0-3.382,10.21Z" fill="#ffb39f"/>
          <path id="패스_10876" data-name="패스 10876" d="M77.852,47.063h0a5.577,5.577,0,0,1-5.577-5.577V30.331a5.577,5.577,0,1,1,11.154,0V41.486a5.577,5.577,0,0,1-5.577,5.577" fill="#ffb39f"/>
          <path id="패스_10877" data-name="패스 10877" d="M89.007,49.387h0A5.577,5.577,0,0,1,83.43,43.81V25.683a5.577,5.577,0,1,1,11.154,0V43.81a5.577,5.577,0,0,1-5.577,5.577" fill="#ffb39f"/>
          <path id="패스_10878" data-name="패스 10878" d="M114.106,51.014h0a6.739,6.739,0,0,1-6.739-6.739v-25.1a6.739,6.739,0,0,1,13.478,0v25.1a6.739,6.739,0,0,1-6.739,6.739" fill="#ffb39f"/>
          <path id="패스_10879" data-name="패스 10879" d="M101.324,53.57h0a6.739,6.739,0,0,1-6.739-6.739v-25.1a6.739,6.739,0,0,1,13.478,0v25.1a6.739,6.739,0,0,1-6.739,6.739" fill="#ffb39f"/>
          <path id="패스_10880" data-name="패스 10880" d="M83.894,41.486a5.577,5.577,0,0,1-11.155,0" fill="#ffb39f"/>
          <path id="패스_10881" data-name="패스 10881" d="M78.317,48.225a6.746,6.746,0,0,1-6.739-6.739,1.162,1.162,0,1,1,2.324,0,4.415,4.415,0,0,0,8.83,0,1.162,1.162,0,1,1,2.324,0,6.747,6.747,0,0,1-6.739,6.739" fill="#f99f87"/>
          <path id="패스_10882" data-name="패스 10882" d="M95.049,33.584V43.809a5.578,5.578,0,1,1-11.155,0V33.584" fill="#ffb39f"/>
          <path id="패스_10883" data-name="패스 10883" d="M89.472,50.549a6.746,6.746,0,0,1-6.739-6.739V33.584a1.162,1.162,0,1,1,2.324,0V43.81a4.415,4.415,0,0,0,8.83,0V33.584a1.162,1.162,0,1,1,2.324,0V43.81a6.746,6.746,0,0,1-6.739,6.739" fill="#f99f87"/>
          <path id="패스_10884" data-name="패스 10884" d="M108.528,29.633v17.2a6.739,6.739,0,1,1-13.479,0v-17.2" fill="#ffb39f"/>
          <path id="패스_10885" data-name="패스 10885" d="M101.789,54.732a7.909,7.909,0,0,1-7.9-7.9v-17.2a1.162,1.162,0,1,1,2.324,0v17.2a5.577,5.577,0,1,0,11.154,0v-17.2a1.162,1.162,0,0,1,2.324,0v17.2a7.909,7.909,0,0,1-7.9,7.9" fill="#f99f87"/>
          <path id="패스_10886" data-name="패스 10886" d="M121.785,33.016l.347,14.451a6.74,6.74,0,0,1-13.458-.761l-.123-24.742" fill="#ffb39f"/>
          <path id="패스_10887" data-name="패스 10887" d="M115.413,54.988c-.152,0-.3,0-.456-.013a7.91,7.91,0,0,1-7.445-8.3l-.123-24.707a1.161,1.161,0,0,1,1.157-1.168h.005a1.164,1.164,0,0,1,1.163,1.156l.122,24.742c0,.024,0,.048,0,.071a5.578,5.578,0,0,0,11.135.675l-.346-14.4a1.162,1.162,0,0,1,2.324-.056l.346,14.451c0,.031,0,.062,0,.093a7.9,7.9,0,0,1-7.879,7.456" fill="#f99f87"/>
          <path id="패스_10888" data-name="패스 10888" d="M131.34,53.753S135.164,30.9,121.5,29.571l-19.326.467a3.794,3.794,0,0,0-3.635,4.608c.894,3.845,4.526,8.833,17.2,9.4h3.719l-1.183,3.332a8.931,8.931,0,0,1-5.276,5.366,23.222,23.222,0,0,0-14.716,16.2" fill="#ffb39f"/>
          <path id="패스_10889" data-name="패스 10889" d="M98.07,71.233A1.163,1.163,0,0,1,97,69.609c6.09-14.071,16-17.373,18.617-18.017l2.143-4.771c-14.233-2.355-19.452-8.748-19.674-9.028a1.162,1.162,0,0,1,1.818-1.449c.066.082,5.346,6.419,19.7,8.406a1.162,1.162,0,0,1,.9,1.628l-3.011,6.7a1.162,1.162,0,0,1-.873.67c-.107.019-11.109,2.039-17.49,16.78a1.162,1.162,0,0,1-1.067.7" fill="#f99f87"/>
          <rect id="사각형_27364" data-name="사각형 27364" width="41.831" height="16.268" transform="translate(43.69 113.295)" fill="#9dc1e4"/>
          <rect id="사각형_27365" data-name="사각형 27365" width="36.254" height="4.183" transform="translate(46.478 109.112)" fill="#fff"/>
          <path id="패스_10890" data-name="패스 10890" d="M46.479,109.112v-4.79s-1.394-5.435-4.183-7.759a14.027,14.027,0,0,1-2.745-4.587,46.006,46.006,0,0,1-3.762-18.387V57.077l60.422,5.091S95.282,90.056,89.24,94.7l-3.125,4.2a17.1,17.1,0,0,0-3.382,10.21Z" fill="#ffe8dc"/>
          <path id="패스_10891" data-name="패스 10891" d="M42.063,62.866h0a5.577,5.577,0,0,1-5.577-5.577V46.134a5.577,5.577,0,1,1,11.154,0V57.289a5.577,5.577,0,0,1-5.577,5.577" fill="#ffe8dc"/>
          <path id="패스_10892" data-name="패스 10892" d="M53.218,65.19h0a5.577,5.577,0,0,1-5.577-5.577V41.486a5.577,5.577,0,1,1,11.154,0V59.613a5.577,5.577,0,0,1-5.577,5.577" fill="#ffe8dc"/>
          <path id="패스_10893" data-name="패스 10893" d="M78.317,66.817h0a6.739,6.739,0,0,1-6.739-6.739v-25.1a6.739,6.739,0,1,1,13.478,0v25.1a6.739,6.739,0,0,1-6.739,6.739" fill="#ffe8dc"/>
          <path id="패스_10894" data-name="패스 10894" d="M65.535,69.373h0A6.739,6.739,0,0,1,58.8,62.634v-25.1a6.739,6.739,0,1,1,13.478,0v25.1a6.739,6.739,0,0,1-6.739,6.739" fill="#ffe8dc"/>
          <path id="패스_10895" data-name="패스 10895" d="M48.106,57.288a5.577,5.577,0,0,1-11.155,0" fill="#ffe8dc"/>
          <path id="패스_10896" data-name="패스 10896" d="M42.528,64.028a6.746,6.746,0,0,1-6.739-6.739,1.162,1.162,0,1,1,2.324,0,4.415,4.415,0,0,0,8.83,0,1.162,1.162,0,1,1,2.324,0,6.746,6.746,0,0,1-6.739,6.739" fill="#ffd8c7"/>
          <path id="패스_10897" data-name="패스 10897" d="M59.261,49.387V59.612a5.578,5.578,0,1,1-11.155,0V49.387" fill="#ffe8dc"/>
          <path id="패스_10898" data-name="패스 10898" d="M53.683,66.352a6.746,6.746,0,0,1-6.739-6.739V49.387a1.162,1.162,0,1,1,2.324,0V59.613a4.415,4.415,0,1,0,8.83,0V49.387a1.162,1.162,0,1,1,2.324,0V59.613a6.747,6.747,0,0,1-6.739,6.739" fill="#ffd8c7"/>
          <path id="패스_10899" data-name="패스 10899" d="M72.739,45.436v17.2a6.74,6.74,0,1,1-13.479,0v-17.2" fill="#ffe8dc"/>
          <path id="패스_10900" data-name="패스 10900" d="M66,70.535a7.909,7.909,0,0,1-7.9-7.9v-17.2a1.162,1.162,0,1,1,2.324,0v17.2a5.577,5.577,0,0,0,11.154,0v-17.2a1.162,1.162,0,1,1,2.324,0v17.2a7.909,7.909,0,0,1-7.9,7.9" fill="#ffd8c7"/>
          <path id="패스_10901" data-name="패스 10901" d="M86,48.819l.347,14.451a6.74,6.74,0,0,1-13.458-.761l-.123-24.742" fill="#ffe8dc"/>
          <path id="패스_10902" data-name="패스 10902" d="M79.625,70.791c-.152,0-.3,0-.456-.013a7.91,7.91,0,0,1-7.445-8.3L71.6,37.773A1.162,1.162,0,0,1,72.757,36.6h.006a1.163,1.163,0,0,1,1.162,1.156L74.048,62.5c0,.024,0,.048,0,.072a5.578,5.578,0,0,0,11.135.674l-.346-14.4a1.162,1.162,0,0,1,2.324-.056L87.5,63.242c0,.031,0,.062,0,.094a7.9,7.9,0,0,1-7.879,7.455" fill="#ffd8c7"/>
          <path id="패스_10903" data-name="패스 10903" d="M95.551,69.555S99.375,46.7,85.708,45.373l-19.326.467a3.794,3.794,0,0,0-3.635,4.608c.894,3.845,4.526,8.833,17.2,9.4h3.719l-1.183,3.332A8.931,8.931,0,0,1,77.2,68.542a23.222,23.222,0,0,0-14.716,16.2" fill="#ffe8dc"/>
          <path id="패스_10904" data-name="패스 10904" d="M62.281,85.641a1.163,1.163,0,0,1-1.066-1.624c6.09-14.07,16-17.373,18.617-18.016l2.143-4.772C67.742,58.875,62.523,52.481,62.3,52.2a1.162,1.162,0,0,1,1.818-1.448c.066.081,5.346,6.418,19.7,8.405a1.162,1.162,0,0,1,.9,1.628l-3.011,6.7a1.165,1.165,0,0,1-.873.671c-.107.018-11.109,2.038-17.49,16.779a1.162,1.162,0,0,1-1.067.7" fill="#ffd8c7"/>
          <path id="패스_10905" data-name="패스 10905" d="M17.887,10.1c-3.481-.7-4.045-1.26-4.741-4.741C12.45,8.839,11.886,9.4,8.4,10.1c3.481.7,4.045,1.26,4.741,4.741.7-3.481,1.26-4.045,4.741-4.741" fill="#f3b74d"/>
          <path id="패스_10906" data-name="패스 10906" d="M139.541,14.345c-3.481-.7-4.045-1.26-4.741-4.741-.7,3.481-1.26,4.045-4.741,4.741,3.481.7,4.045,1.26,4.741,4.741.7-3.481,1.26-4.045,4.741-4.741" fill="#f3b74d"/>
          <path id="패스_10907" data-name="패스 10907" d="M5.276.868a.869.869,0,1,0-.869.869A.869.869,0,0,0,5.276.868" fill="#f3b74d"/>
          <path id="패스_10908" data-name="패스 10908" d="M68,18.251a3.1,3.1,0,1,0-3.1,3.1,3.1,3.1,0,0,0,3.1-3.1" fill="#f3b74d"/>
          <path id="패스_10909" data-name="패스 10909" d="M75,7.748a1.567,1.567,0,1,0-1.567,1.567A1.567,1.567,0,0,0,75,7.748" fill="#f3b74d"/>
        </g>
      </g>
    </g>
  </g>
</svg>
