<svg xmlns="http://www.w3.org/2000/svg" width="146" height="96.681" viewBox="0 0 146 96.681"><defs><style>.a{isolation:isolate;}.b{fill:#3b61d5;}.c{fill:#000470;}.d{fill:#4ec99d;}.e{fill:#ff504c;}.f{fill:#fff;}</style></defs><g transform="translate(-777.933 -437.244)"><g class="a" transform="translate(785.869 451.951)"><path class="b" d="M900.427,484.831A14.472,14.472,0,0,0,914.9,499.3c.059,0,.118,0,.179,0v30.358H783.566V499.3c.055,0,.114,0,.173,0a14.476,14.476,0,1,0,0-28.952c-.059,0-.118,0-.173,0V447.684H915.079v22.672c-.061,0-.12,0-.179,0A14.476,14.476,0,0,0,900.427,484.831Z" transform="translate(-783.566 -447.684)"/></g><g class="a" transform="translate(779.8 446.356)"><path class="c" d="M913.587,528.5H779.258V495.174l1.551.158a13.068,13.068,0,1,0,.031-26.136l-1.552.159-.03-1.562V443.712H913.587v25.626l-1.538-.142A13.067,13.067,0,1,0,912,495.331l1.54-.142.047,1.547Zm-131.512-2.817H910.77V498.1a15.886,15.886,0,0,1,0-31.677v-19.9H782.076v19.9a15.885,15.885,0,0,1,0,31.674Z" transform="translate(-779.258 -443.712)"/></g><g class="a" transform="translate(917.381 437.244)"><circle class="d" cx="3.275" cy="3.275" r="3.275"/></g><g class="a" transform="translate(777.933 526.463)"><circle class="e" cx="3.275" cy="3.275" r="3.275"/></g><g transform="translate(807.009 501.047)"><path class="f" d="M810.322,490.965h-4.986v4.242h-1.859v-4.242h-4.9v-1.479h11.749Zm-1.409-2.858h-8.988v-5.242h8.988ZM807.1,484.33h-5.339v2.312H807.1Z" transform="translate(-798.573 -482.4)"/><path class="f" d="M820.525,492.2v1.521H808.764V492.2h2.986v-1.971h-1.621v-4.368h7.242v-1.379h-7.255v-1.479H819.2v4.309h-7.227v1.423H819.5v1.495h-1.817V492.2Zm-6.944,0h2.268v-1.971h-2.268Z" transform="translate(-794.408 -482.342)"/><path class="f" d="M822.616,483.508a2.758,2.758,0,0,1,1.3.308,2.982,2.982,0,0,1,1.014.888,4.492,4.492,0,0,1,.662,1.389,7.062,7.062,0,0,1,0,3.647,4.476,4.476,0,0,1-.662,1.389,2.952,2.952,0,0,1-1.014.888,2.876,2.876,0,0,1-2.592,0,2.952,2.952,0,0,1-1.014-.888,4.476,4.476,0,0,1-.662-1.389,7.062,7.062,0,0,1,0-3.647,4.492,4.492,0,0,1,.662-1.389,2.982,2.982,0,0,1,1.014-.888A2.762,2.762,0,0,1,822.616,483.508Zm0,1.042a1.584,1.584,0,0,0-.852.239,2.119,2.119,0,0,0-.669.673,3.483,3.483,0,0,0-.437,1.061,6.3,6.3,0,0,0,0,2.778,3.576,3.576,0,0,0,.437,1.061,2.106,2.106,0,0,0,.669.682,1.6,1.6,0,0,0,.852.24,1.557,1.557,0,0,0,.845-.24,2.148,2.148,0,0,0,.662-.682,3.537,3.537,0,0,0,.435-1.061,6.247,6.247,0,0,0,0-2.778,3.446,3.446,0,0,0-.435-1.061,2.162,2.162,0,0,0-.662-.673A1.547,1.547,0,0,0,822.616,484.551Zm6.663-2.016V495.2h-1.155V482.535Z" transform="translate(-790.059 -482.535)"/><path class="f" d="M840.7,488.726v.93H829.263v-.93h2.832v-1.775a2.893,2.893,0,0,1-1.155-.783,1.692,1.692,0,0,1-.395-1.12,1.645,1.645,0,0,1,.311-.985,2.445,2.445,0,0,1,.886-.74,5.158,5.158,0,0,1,1.395-.465,9.493,9.493,0,0,1,1.845-.163,9.6,9.6,0,0,1,1.852.163,5.043,5.043,0,0,1,1.395.465,2.471,2.471,0,0,1,.88.74,1.727,1.727,0,0,1-.092,2.1,2.827,2.827,0,0,1-1.134.776v1.789Zm-5.719,1.874a7.049,7.049,0,0,1,3.174.585,1.789,1.789,0,0,1,0,3.332,8.99,8.99,0,0,1-6.341,0,1.785,1.785,0,0,1,0-3.332A7.054,7.054,0,0,1,834.982,490.6Zm-3.24-5.559q0,.674.865,1.059a7.548,7.548,0,0,0,4.766,0q.864-.385.864-1.059t-.864-1.065a7.708,7.708,0,0,0-4.766,0Q831.743,484.354,831.742,485.04Zm3.247,9.15a6.169,6.169,0,0,0,2.32-.349q.828-.351.828-1t-.828-.995a7.845,7.845,0,0,0-4.639,0q-.83.351-.83.995t.83,1A6.156,6.156,0,0,0,834.989,494.19Zm-1.754-5.464h3.508v-1.479c-.262.047-.541.082-.831.106s-.6.034-.93.034-.624-.01-.916-.034-.568-.059-.831-.106Z" transform="translate(-786.029 -482.47)"/><path class="f" d="M850.909,490.054H845.78v4.89h-1.154v-4.89h-5.143v-.944h8.369q.154-.674.247-1.266c.061-.394.106-.771.132-1.127l-7.521.366-.156-.973,7.748-.3c.02-.272.03-.535.03-.794v-.979H840.92V483.1h8.524v1.155c0,.328,0,.672-.007,1.028s-.023.732-.049,1.126-.073.816-.135,1.262-.148.927-.261,1.443h1.917Z" transform="translate(-781.852 -482.306)"/><path class="f" d="M861.088,489.215v.93H849.663v-.93h5.156V487.68h-4.043v-.93h1.874v-2.875h-1.914v-.93H860v.93h-1.9v2.875h1.861v.93h-3.987v1.535Zm-8.79,4.564h7.538v.944h-8.692v-3.465H852.3Zm1.509-7.03h3.141v-2.875h-3.141Z" transform="translate(-777.691 -482.367)"/></g><g class="a" transform="translate(814.274 469.648)"><path class="f" d="M816.948,472.122h-8.364l-1.292-2.245v10.609H803.73V460.246h13.993v3.1h-10.43v5.681h9.655Z" transform="translate(-803.73 -460.246)"/><path class="f" d="M815.863,479.047V463.971h3.356v2.272c.544-1.162,2.117-2.478,4.957-2.478v3.613c-3.975,0-4.905,1.731-4.905,4v7.666Z" transform="translate(-798.771 -458.808)"/><path class="f" d="M826.234,470.75c-.025.258-.025.516-.025.8,0,3.408,2.117,4.725,4.39,4.725a3.6,3.6,0,0,0,3.356-1.7h3.51a6.974,6.974,0,0,1-6.866,4.75,7.369,7.369,0,0,1-7.642-7.771,7.472,7.472,0,0,1,7.513-7.821c3.847,0,7.254,3.071,7.254,8.158v.981h-9.989Zm.13-.723h7.9a3.714,3.714,0,0,0-3.794-3.3A4.042,4.042,0,0,0,826.364,470.027Z" transform="translate(-795.872 -458.822)"/><path class="f" d="M838.477,470.75c-.025.258-.025.516-.025.8,0,3.408,2.117,4.725,4.39,4.725a3.6,3.6,0,0,0,3.355-1.7h3.511a6.971,6.971,0,0,1-6.866,4.75,7.369,7.369,0,0,1-7.642-7.771,7.472,7.472,0,0,1,7.513-7.821c3.847,0,7.255,3.071,7.255,8.158v.981h-9.991Zm.13-.723h7.9a3.716,3.716,0,0,0-3.8-3.3A4.041,4.041,0,0,0,838.607,470.027Z" transform="translate(-790.868 -458.822)"/><path class="f" d="M848.725,481.932v-3.95h3.923v3.95Zm.256-21.686h3.408v15.465h-3.408Z" transform="translate(-785.339 -460.246)"/></g></g></svg>