<svg xmlns="http://www.w3.org/2000/svg" xmlns:xlink="http://www.w3.org/1999/xlink" width="247.439" height="133.074" viewBox="0 0 247.439 133.074"><defs><style>.a{fill:url(#a);}.b{fill:url(#b);}.c{fill:none;stroke:#fff;stroke-linecap:round;stroke-linejoin:round;stroke-width:1.5px;}</style><linearGradient id="a" y1="0.5" x2="1" y2="0.5" gradientUnits="objectBoundingBox"><stop offset="0" stop-color="#23b128"/><stop offset="1" stop-color="#118c01"/></linearGradient><linearGradient id="b" x1="0" y1="0.65" x2="1" y2="0.5" xlink:href="#a"/></defs><g transform="translate(-733 -513.926)"><g transform="translate(1058.426 292.886)"><path class="a" d="M-83.987,354.114a6,6,0,0,1-6-6c0-63.452-50.117-115.074-111.719-115.074s-111.72,51.622-111.72,115.074a6,6,0,0,1-6,6,6,6,0,0,1-6-6c0-70.069,55.5-127.074,123.72-127.074S-77.987,278.045-77.987,348.114A6,6,0,0,1-83.987,354.114Z"/></g><g transform="translate(3.261 3.261)"><circle class="b" cx="15" cy="15" r="15" transform="translate(839.739 562.739)"/><path class="c" d="M2840.319,4880.076l4.092,5.428,6.179-10.323" transform="translate(-1991.009 -4302.871)"/></g></g></svg>