<svg xmlns="http://www.w3.org/2000/svg" xmlns:xlink="http://www.w3.org/1999/xlink" width="247.439" height="133.073" viewBox="0 0 247.439 133.073"><defs><style>.a{fill:url(#a);}.b,.c,.f{fill:none;}.b,.c{stroke:#fff;}.b{stroke-linecap:round;stroke-width:1.5px;}.d{fill:url(#b);}.e{stroke:none;}</style><linearGradient id="a" y1="0.65" x2="1" y2="0.5" gradientUnits="objectBoundingBox"><stop offset="0" stop-color="#f50000"/><stop offset="1" stop-color="#c60000"/></linearGradient><linearGradient id="b" x1="0.028" y1="0.569" x2="0.947" y2="0.479" xlink:href="#a"/></defs><g transform="translate(-1103.281 -513.926)"><g transform="translate(373.261 3.261)"><circle class="a" cx="15" cy="15" r="15" transform="translate(839.739 562.739)"/><g transform="translate(0 -0.791)"><path class="b" d="M854.739,570.32v9.858"/><g class="c" transform="translate(852.739 582.739)"><circle class="e" cx="2" cy="2" r="2"/><circle class="f" cx="2" cy="2" r="1.5"/></g></g></g><g transform="translate(1428.707 436.883)"><path class="d" d="M-83.987,210.116a6,6,0,0,1-6-6c0-63.451-50.117-115.073-111.719-115.073s-111.72,51.622-111.72,115.073a6,6,0,0,1-6,6,6,6,0,0,1-6-6c0-70.068,55.5-127.073,123.72-127.073S-77.987,134.048-77.987,204.116A6,6,0,0,1-83.987,210.116Z"/></g></g></svg>