<svg xmlns="http://www.w3.org/2000/svg" width="274" height="272" viewBox="0 0 274 272"><defs><style>.a{fill:#9fc4e5;stroke:#0054b1;stroke-width:3px;}.a,.b,.c,.d{stroke-miterlimit:10;}.a,.d{isolation:isolate;}.b,.c,.d{fill:none;}.b,.c{stroke:#000;opacity:0.28;}.c{stroke-dasharray:3;}.d{stroke:#00e894;stroke-width:9px;}.e,.g{font-size:7px;font-family:MalgunGothic, Malgun Gothic;}.f{font-family:SegoeUI, Segoe UI;}.g{opacity:0.4;}</style></defs><g transform="translate(-1057 -1435.542)"><path class="a" d="M795.728,325.3l-62.7,30.058,4.581,70.612,62.14,33.557L863.218,428l-4.559-69.451Z" transform="translate(402.303 1180.359)"/><path class="b" d="M838.953,447.192v28.89l25.02,14.445,25.02-14.445v-28.89l-25.02-14.445Z" transform="translate(334.058 1111.136)"/><path class="b" d="M790.179,400.889v48.926l42.371,24.463,42.371-24.463V400.889l-42.371-24.463Z" transform="translate(365.482 1147.421)"/><path class="b" d="M745.9,358.857v67.113l58.122,33.557,58.122-33.557V358.857L804.024,325.3Z" transform="translate(394.007 1180.359)"/><path class="b" d="M707.578,322.476v82.856l71.755,41.428,71.755-41.428V322.476l-71.755-41.428Z" transform="translate(418.698 1208.869)"/><path class="b" d="M660.265,277.56V379.852L748.852,431l88.587-51.146V277.56l-88.587-51.146Z" transform="translate(449.18 1244.067)"/><line class="c" y2="118.463" transform="translate(1198.108 1454.148)"/><line class="c" x2="102.592" y2="59.231" transform="translate(1095.516 1513.379)"/><line class="c" y1="59.231" x2="102.592" transform="translate(1095.516 1572.611)"/><line class="c" y1="118.463" transform="translate(1198.108 1572.611)"/><line class="c" x1="102.592" y1="59.231" transform="translate(1198.108 1572.611)"/><line class="c" x1="102.592" y2="59.231" transform="translate(1198.108 1513.379)"/><path class="d" d="M822.425,306.042l-47.962,46.067v55.47L822.5,454.744,872.822,408.9,887.87,342.1Z" transform="translate(375.606 1192.767)"/><text class="e" transform="translate(1071 1507.542)"><tspan x="-14" y="0">발화속도</tspan></text><text class="e" transform="translate(1313 1507.542)"><tspan x="-17.5" y="0">상체움직임</tspan></text><text class="e" transform="translate(1072 1640.542)"><tspan x="-14.959" y="0">목소리</tspan><tspan class="f" y="0"> </tspan><tspan y="0">톤</tspan></text><text class="e" transform="translate(1316 1640.542)"><tspan x="-10.5" y="0">제스처</tspan></text><text class="e" transform="translate(1192 1705.542)"><tspan x="-18.459" y="0">목소리</tspan><tspan class="f" y="0"> </tspan><tspan y="0">크기</tspan></text><text class="g" transform="translate(1298 1683.542)"><tspan x="-14.959" y="0">평균</tspan><tspan class="f" y="0"> </tspan><tspan y="0">분포</tspan></text><text class="e" transform="translate(1193 1443.542)"><tspan x="-14" y="0">시선처리</tspan></text><line class="d" x2="14.585" transform="translate(1264.81 1683.069)"/></g></svg>