<svg xmlns="http://www.w3.org/2000/svg" xmlns:xlink="http://www.w3.org/1999/xlink" width="160" height="180" viewBox="0 0 160 180">
  <defs>
    <clipPath id="clip-path">
      <rect id="사각형_27459" data-name="사각형 27459" width="40" height="40" transform="translate(309 660)" fill="#fff"/>
    </clipPath>
  </defs>
  <g id="img_01" transform="translate(-360 -460)">
    <rect id="사각형_27440" data-name="사각형 27440" width="160" height="180" rx="12" transform="translate(360 460)" fill="#d8dbff" opacity="0.651"/>
    <text id="취업을_위한_실전_기업면접_" data-name="취업을 위한
실전 기업면접!" transform="translate(440 595)" fill="#333" font-size="13" font-family="Pretendard-Medium, Pretendard" font-weight="500" letter-spacing="-0.045em"><tspan x="-28" y="0">취업을 위한</tspan><tspan x="-35" y="18">실전 기업면접!</tspan></text>
    <text id="AI_기업면접" data-name="AI 기업면접" transform="translate(440 497)" fill="#211049" font-size="15" font-family="GmarketSansBold, Gmarket Sans" letter-spacing="-0.045em"><tspan x="-37" y="0">AI </tspan><tspan y="0" fill="#814eff">기업</tspan><tspan y="0">면접</tspan></text>
    <g id="마스크_그룹_385" data-name="마스크 그룹 385" transform="translate(111 -138)" clip-path="url(#clip-path)">
      <g id="building_1_" data-name="building (1)" transform="translate(309.01 660)">
        <path id="패스_10932" data-name="패스 10932" d="M39.434,36.408H36.212V32.895a4.309,4.309,0,0,0,2.016-7.742c0-.052,0-.1,0-.156A2.567,2.567,0,1,0,33.1,25c0,.052,0,.1,0,.156a4.309,4.309,0,0,0,2.016,7.742v3.513H29.4V5.212a.547.547,0,0,0-.547-.547H26.628V.546A.547.547,0,0,0,26.081,0H13.9a.547.547,0,0,0-.547.547V4.666H11.128a.547.547,0,0,0-.547.547v31.2H4.861V32.895a4.309,4.309,0,0,0,2.016-7.742c0-.052,0-.1,0-.156a2.567,2.567,0,1,0-5.134,0c0,.052,0,.1,0,.156a4.309,4.309,0,0,0,2.016,7.742v3.513H.547A.547.547,0,0,0,0,36.955v2.5A.547.547,0,0,0,.547,40H39.434a.547.547,0,0,0,.547-.547v-2.5a.547.547,0,0,0-.547-.547Zm-6.989-7.789a3.2,3.2,0,0,1,1.532-2.739.546.546,0,0,0,.247-.578,1.474,1.474,0,1,1,2.884,0,.546.546,0,0,0,.247.578,3.22,3.22,0,1,1-4.91,2.739Zm-31.352,0a3.2,3.2,0,0,1,1.53-2.739.546.546,0,0,0,.247-.578,1.474,1.474,0,1,1,2.884,0A.546.546,0,0,0,6,25.88a3.22,3.22,0,1,1-4.909,2.739ZM14.446,1.093H25.534V4.666H14.446ZM11.675,5.759H28.305V36.408H22.821V30.591a.547.547,0,0,0-.547-.547H17.706a.546.546,0,0,0-.547.547v5.817H11.675ZM21.728,36.408H18.253V31.137h3.475Zm17.159,2.5H1.093V37.5H38.887Z"/>
        <path id="패스_10933" data-name="패스 10933" d="M16.242,7.165H13.627a.547.547,0,0,0-.547.547V10.95a.547.547,0,0,0,.547.547h2.615a.547.547,0,0,0,.547-.547V7.711a.547.547,0,0,0-.547-.547ZM15.7,10.4H14.174V8.258H15.7Z"/>
        <path id="패스_10934" data-name="패스 10934" d="M18.683,11.5H21.3a.547.547,0,0,0,.547-.547V7.711a.547.547,0,0,0-.547-.547H18.683a.547.547,0,0,0-.547.547V10.95a.547.547,0,0,0,.547.547Zm.547-3.238h1.522V10.4H19.229Z"/>
        <path id="패스_10935" data-name="패스 10935" d="M23.738,11.5h2.615a.547.547,0,0,0,.547-.547V7.711a.547.547,0,0,0-.547-.547H23.738a.547.547,0,0,0-.547.547V10.95a.547.547,0,0,0,.547.547Zm.547-3.238h1.522V10.4H24.285Z"/>
        <path id="패스_10936" data-name="패스 10936" d="M16.242,12.878H13.627a.547.547,0,0,0-.547.547v3.239a.547.547,0,0,0,.547.547h2.615a.547.547,0,0,0,.547-.547V13.424A.547.547,0,0,0,16.242,12.878ZM15.7,16.117H14.174V13.971H15.7Z"/>
        <path id="패스_10937" data-name="패스 10937" d="M18.683,17.21H21.3a.547.547,0,0,0,.547-.547V13.424a.547.547,0,0,0-.547-.547H18.683a.547.547,0,0,0-.547.547v3.239a.547.547,0,0,0,.547.547Zm.547-3.239h1.522v2.146H19.229Z"/>
        <path id="패스_10938" data-name="패스 10938" d="M23.738,17.21h2.615a.547.547,0,0,0,.547-.547V13.424a.547.547,0,0,0-.547-.547H23.738a.547.547,0,0,0-.547.547v3.239a.547.547,0,0,0,.547.547Zm.547-3.239h1.522v2.146H24.285Z"/>
        <path id="패스_10939" data-name="패스 10939" d="M16.242,18.591H13.627a.547.547,0,0,0-.547.547v3.238a.547.547,0,0,0,.547.547h2.615a.547.547,0,0,0,.547-.547V19.138a.547.547,0,0,0-.547-.547ZM15.7,21.83H14.174V19.685H15.7Z"/>
        <path id="패스_10940" data-name="패스 10940" d="M18.683,22.923H21.3a.547.547,0,0,0,.547-.547V19.138a.547.547,0,0,0-.547-.547H18.683a.547.547,0,0,0-.547.547v3.238a.547.547,0,0,0,.547.547Zm.547-3.238h1.522V21.83H19.229Z"/>
        <path id="패스_10941" data-name="패스 10941" d="M23.738,22.923h2.615a.547.547,0,0,0,.547-.547V19.138a.547.547,0,0,0-.547-.547H23.738a.547.547,0,0,0-.547.547v3.238a.547.547,0,0,0,.547.547Zm.547-3.238h1.522V21.83H24.285Z"/>
        <path id="패스_10942" data-name="패스 10942" d="M16.242,24.3H13.627a.547.547,0,0,0-.547.547V28.09a.547.547,0,0,0,.547.547h2.615a.547.547,0,0,0,.547-.547V24.852A.547.547,0,0,0,16.242,24.3ZM15.7,27.543H14.174V25.4H15.7Z"/>
        <path id="패스_10943" data-name="패스 10943" d="M18.683,28.636H21.3a.547.547,0,0,0,.547-.547V24.852A.547.547,0,0,0,21.3,24.3H18.683a.547.547,0,0,0-.547.547V28.09A.547.547,0,0,0,18.683,28.636Zm.547-3.238h1.522v2.145H19.229Z"/>
        <path id="패스_10944" data-name="패스 10944" d="M23.738,28.636h2.615a.547.547,0,0,0,.547-.547V24.852a.547.547,0,0,0-.547-.547H23.738a.547.547,0,0,0-.547.547V28.09A.547.547,0,0,0,23.738,28.636Zm.547-3.238h1.522v2.145H24.285Z"/>
      </g>
    </g>
  </g>
</svg>
