<svg width="128" height="75" viewBox="0 0 128 75" fill="none" xmlns="http://www.w3.org/2000/svg">
<path d="M11.46 65.21H13.47V63.575H11.46V58.475H9.48V72.32H11.46V65.21ZM3.15 67.355V61.355H7.62V59.75H1.17V69.005H2.355C4.755 69.005 6.645 68.915 8.73 68.555L8.535 66.92C6.75 67.22 5.115 67.34 3.15 67.355ZM15.6738 60.29H23.1738V61.235H15.7038V65.09H25.3938V63.59H17.6538V62.63H25.1238V58.79H15.6738V60.29ZM26.6538 67.52V65.945H14.1438V67.52H26.6538ZM25.4388 70.475H17.6988V68.27H15.7188V72.05H25.4388V70.475ZM41.5561 65.375H43.5661V63.74H41.5561V58.475H39.5761V72.29H41.5561V65.375ZM35.8111 62.195V61.43H38.5561V59.795H30.9661V61.43H33.8311V62.195C33.8311 64.475 32.7061 67.085 30.4411 68.12L31.5511 69.695C33.1261 68.93 34.2361 67.445 34.8511 65.63C35.4661 67.265 36.5161 68.645 38.0761 69.35L39.1711 67.79C36.9061 66.755 35.8111 64.295 35.8111 62.195ZM55.7449 72.275V58.46H53.7499V72.275H55.7449ZM51.6349 59.9H45.0049V61.475H49.6099C49.3249 64.535 47.7949 66.71 44.2699 68.39L45.3049 69.95C50.2099 67.595 51.6349 64.115 51.6349 59.9ZM69.0188 66.41L69.8288 64.775C66.6788 64.265 64.9838 62.21 64.9838 60.23V59.24H62.8688V60.23C62.8688 62.15 61.1588 64.25 58.0388 64.775L58.8488 66.41C61.2638 65.975 63.0188 64.67 63.9188 62.975C64.8188 64.73 66.4838 65.975 69.0188 66.41ZM70.2488 70.655V69.065H64.9238V65.975H62.9438V69.065H57.7388V70.655H70.2488ZM83.0726 72.29V58.475H81.1826V63.68H79.9526V58.835H78.1076V71.705H79.9526V65.27H81.1826V72.29H83.0726ZM77.2076 60.185H71.7626V61.76H75.2576C75.0176 64.445 73.8176 66.485 71.0576 68.09L72.2126 69.47C76.0676 67.22 77.2076 64.055 77.2076 60.185ZM96.3314 72.32V58.46H94.3514V62.795H91.6964V64.385H94.3514V72.32H96.3314ZM89.9264 61.535V59.54H87.9314V61.535C87.9314 64.16 86.8964 66.845 84.5414 67.925L85.7714 69.515C87.3314 68.735 88.3514 67.34 88.9514 65.525C89.5364 67.22 90.5264 68.54 92.0414 69.275L93.2114 67.7C90.9314 66.695 89.9264 64.13 89.9264 61.535ZM102.924 64.595H112.239V58.91H110.274V60.32H104.889V58.91H102.924V64.595ZM104.889 61.805H110.274V63.05H104.889V61.805ZM113.844 67.115V65.555H101.319V67.115H106.764V69.29H108.744V67.115H113.844ZM112.464 70.475H104.754V68.255H102.774V72.05H112.464V70.475ZM126.383 66.695V58.475H124.403V61.055H121.883V62.66H124.403V66.695H126.383ZM122.048 66.26L123.083 64.73C120.923 64.01 119.993 62.33 119.993 60.605V59.18H117.983V60.485C117.983 62.36 117.038 64.175 114.743 64.94L115.778 66.5C117.338 65.96 118.403 64.895 119.003 63.56C119.588 64.775 120.548 65.735 122.048 66.26ZM126.383 67.325H116.963V68.885H124.403V72.305H126.383V67.325Z" fill="#283E62"/>
<rect x="39" width="50" height="50" rx="25" fill="#283E62"/>
<path d="M80.9976 28.4747C80.9976 26.9139 79.9415 25.5412 78.4073 25.1045C76.6828 21.1675 72.72 18.6172 68.3362 18.6172H59.659C55.2752 18.6172 51.3124 21.1698 49.5879 25.1045C48.0561 25.5412 47 26.9139 47 28.4747C47 29.794 47.7588 31.0041 48.9647 31.6011C50.0684 36.5066 54.5188 40 59.6614 40H68.341C73.4836 40 77.934 36.5043 79.0353 31.5988C80.2412 30.9995 81 29.7917 81 28.4724L80.9976 28.4747Z" fill="white"/>
<path d="M64.0906 23.7619C66.0781 23.7619 67.6894 22.1885 67.6894 20.2476C67.6894 18.3068 66.0781 16.7334 64.0906 16.7334C62.103 16.7334 60.4917 18.3068 60.4917 20.2476C60.4917 22.1885 62.103 23.7619 64.0906 23.7619Z" fill="white"/>
<path d="M69.7587 23.7759H58.4246C55.3454 23.7759 52.8491 26.2134 52.8491 29.2203V29.3991C52.8491 32.406 55.3454 34.8435 58.4246 34.8435H69.7587C72.838 34.8435 75.3342 32.406 75.3342 29.3991V29.2203C75.3342 26.2134 72.838 23.7759 69.7587 23.7759Z" fill="#D6ECFF"/>
<path d="M59.1381 31.0647C60.1312 31.0647 60.9363 30.2785 60.9363 29.3087C60.9363 28.3389 60.1312 27.5527 59.1381 27.5527C58.1449 27.5527 57.3398 28.3389 57.3398 29.3087C57.3398 30.2785 58.1449 31.0647 59.1381 31.0647Z" fill="#5673B1"/>
<path d="M69.0448 31.0647C70.038 31.0647 70.8431 30.2785 70.8431 29.3087C70.8431 28.3389 70.038 27.5527 69.0448 27.5527C68.0517 27.5527 67.2466 28.3389 67.2466 29.3087C67.2466 30.2785 68.0517 31.0647 69.0448 31.0647Z" fill="#5673B1"/>
<path d="M64.4522 12.6108H63.7314V17.881H64.4522V12.6108Z" fill="white"/>
<path d="M50.4181 29.3085C50.4181 23.4018 55.3204 18.6147 61.3692 18.6147H59.659C55.2752 18.6147 51.3124 21.1674 49.5879 25.1044C48.0561 25.541 47 26.9138 47 28.4746C47 29.7939 47.7588 31.004 48.9647 31.601C50.0684 36.5065 54.5188 39.9998 59.6614 39.9998H61.3692C55.3204 39.9998 50.4181 35.2128 50.4205 29.3061L50.4181 29.3085Z" fill="#D7ECFF"/>
<path d="M64.0902 13.5119C65.0834 13.5119 65.8885 12.7258 65.8885 11.756C65.8885 10.7862 65.0834 10 64.0902 10C63.0971 10 62.292 10.7862 62.292 11.756C62.292 12.7258 63.0971 13.5119 64.0902 13.5119Z" fill="white"/>
</svg>
