<svg width="73" height="75" viewBox="0 0 73 75" fill="none" xmlns="http://www.w3.org/2000/svg">
<path d="M3.97 68.15H7.57L8.35 71H10.675L7.105 59.9H4.495L0.94 71H3.19L3.97 68.15ZM6.76 65.21L7.09 66.425H4.45L4.78 65.21C5.125 64.055 5.44 62.795 5.725 61.58H5.785C6.13 62.78 6.415 64.055 6.76 65.21ZM13.8944 59.9H11.6744V71H13.8944V59.9ZM20.294 64.595H29.609V58.91H27.644V60.32H22.259V58.91H20.294V64.595ZM22.259 61.805H27.644V63.05H22.259V61.805ZM31.214 67.115V65.555H18.689V67.115H24.134V69.29H26.114V67.115H31.214ZM29.834 70.475H22.124V68.255H20.144V72.05H29.834V70.475ZM43.7528 66.695V58.475H41.7728V61.055H39.2528V62.66H41.7728V66.695H43.7528ZM39.4178 66.26L40.4528 64.73C38.2928 64.01 37.3628 62.33 37.3628 60.605V59.18H35.3528V60.485C35.3528 62.36 34.4078 64.175 32.1128 64.94L33.1478 66.5C34.7078 65.96 35.7728 64.895 36.3728 63.56C36.9578 64.775 37.9178 65.735 39.4178 66.26ZM43.7528 67.325H34.3328V68.885H41.7728V72.305H43.7528V67.325ZM56.5466 65.51H58.5266V63.875H56.5466V58.475H54.5666V72.29H56.5466V65.51ZM53.6666 60.515H50.6666V58.715H48.6866V60.515H45.6266V62.09H53.6666V60.515ZM49.6916 62.87C47.6816 62.87 46.1816 64.235 46.1816 66.155C46.1816 68.12 47.6816 69.47 49.6916 69.47C51.6866 69.47 53.1716 68.12 53.1716 66.155C53.1716 64.235 51.6866 62.87 49.6916 62.87ZM49.6916 67.85C48.7316 67.85 48.0716 67.25 48.0716 66.17C48.0716 65.09 48.7316 64.475 49.6916 64.475C50.6516 64.475 51.2966 65.12 51.2966 66.155C51.2966 67.235 50.6516 67.85 49.6916 67.85ZM70.7055 72.275V58.46H68.7105V72.275H70.7055ZM66.5955 59.9H59.9655V61.475H64.5705C64.2855 64.535 62.7555 66.71 59.2305 68.39L60.2655 69.95C65.1705 67.595 66.5955 64.115 66.5955 59.9Z" fill="#283E62"/>
<rect x="12" width="50" height="50" rx="25" fill="#283E62"/>
<path d="M53.9976 28.4747C53.9976 26.9139 52.9415 25.5412 51.4073 25.1045C49.6828 21.1675 45.72 18.6172 41.3362 18.6172H32.659C28.2752 18.6172 24.3124 21.1698 22.5879 25.1045C21.0561 25.5412 20 26.9139 20 28.4747C20 29.794 20.7588 31.0041 21.9647 31.6011C23.0684 36.5066 27.5188 40 32.6614 40H41.341C46.4836 40 50.934 36.5043 52.0353 31.5988C53.2412 30.9995 54 29.7917 54 28.4724L53.9976 28.4747Z" fill="white"/>
<path d="M37.0906 23.7619C39.0781 23.7619 40.6894 22.1885 40.6894 20.2476C40.6894 18.3068 39.0781 16.7334 37.0906 16.7334C35.103 16.7334 33.4917 18.3068 33.4917 20.2476C33.4917 22.1885 35.103 23.7619 37.0906 23.7619Z" fill="white"/>
<path d="M42.7587 23.7759H31.4246C28.3454 23.7759 25.8491 26.2134 25.8491 29.2203V29.3991C25.8491 32.406 28.3454 34.8435 31.4246 34.8435H42.7587C45.838 34.8435 48.3342 32.406 48.3342 29.3991V29.2203C48.3342 26.2134 45.838 23.7759 42.7587 23.7759Z" fill="#D6ECFF"/>
<path d="M32.1381 31.0647C33.1312 31.0647 33.9363 30.2785 33.9363 29.3087C33.9363 28.3389 33.1312 27.5527 32.1381 27.5527C31.1449 27.5527 30.3398 28.3389 30.3398 29.3087C30.3398 30.2785 31.1449 31.0647 32.1381 31.0647Z" fill="#5673B1"/>
<path d="M42.0448 31.0647C43.038 31.0647 43.8431 30.2785 43.8431 29.3087C43.8431 28.3389 43.038 27.5527 42.0448 27.5527C41.0517 27.5527 40.2466 28.3389 40.2466 29.3087C40.2466 30.2785 41.0517 31.0647 42.0448 31.0647Z" fill="#5673B1"/>
<path d="M37.4522 12.6108H36.7314V17.881H37.4522V12.6108Z" fill="white"/>
<path d="M23.4181 29.3085C23.4181 23.4018 28.3204 18.6147 34.3692 18.6147H32.659C28.2752 18.6147 24.3124 21.1674 22.5879 25.1044C21.0561 25.541 20 26.9138 20 28.4746C20 29.7939 20.7588 31.004 21.9647 31.601C23.0684 36.5065 27.5188 39.9998 32.6614 39.9998H34.3692C28.3204 39.9998 23.4181 35.2128 23.4205 29.3061L23.4181 29.3085Z" fill="#D7ECFF"/>
<path d="M37.0902 13.5119C38.0834 13.5119 38.8885 12.7258 38.8885 11.756C38.8885 10.7862 38.0834 10 37.0902 10C36.0971 10 35.292 10.7862 35.292 11.756C35.292 12.7258 36.0971 13.5119 37.0902 13.5119Z" fill="white"/>
</svg>
