<svg xmlns="http://www.w3.org/2000/svg" xmlns:xlink="http://www.w3.org/1999/xlink" width="297.5" height="171" viewBox="0 0 297.5 171"><defs><style>.a{fill:#dcdcdc;}.b{fill:#fff;}.c{opacity:0.42;}.d,.f{fill:none;}.d{stroke:#d9d9d9;stroke-width:10px;}.e{font-size:90px;font-family:SpoqaHanSansNeo-Medium, Spoqa Han Sans Neo;font-weight:500;letter-spacing:-0.05em;opacity:0.1;}.f{stroke:#fff;stroke-dasharray:3;}.g{fill:#fcfdff;}.h{filter:url(#a);}</style><filter id="a" x="0" y="0" width="222" height="171" filterUnits="userSpaceOnUse"><feOffset dy="3" input="SourceAlpha"/><feGaussianBlur stdDeviation="2.5" result="b"/><feFlood flood-color="#dfdfdf" flood-opacity="0.161"/><feComposite operator="in" in2="b"/><feComposite in="SourceGraphic"/></filter></defs><g transform="translate(-59.5 -528.5)"><path class="a" d="M558.178,574.485h-72a11,11,0,0,0-22,0h-196v-156h196a11,11,0,0,0,22,0h72Z" transform="translate(-201.178 114.515)"/><g transform="translate(-698 -171)"><g class="h" transform="matrix(1, 0, 0, 1, 757.5, 699.5)"><path class="b" d="M475.178,762.778a11,11,0,0,0-11,11h-196v-156h196a11,11,0,0,0,11,11" transform="translate(-260.68 -613.28)"/></g><g class="c" transform="translate(344.501 391.866)"><g transform="translate(508 377.615)"><line class="d" x2="25" y2="27" transform="translate(0 -0.48)"/><line class="d" y1="26" x2="25" transform="translate(0 -0.48)"/></g><text class="e" transform="translate(577 422.134)"><tspan x="-26.82" y="0">3</tspan></text></g><line class="f" y2="133" transform="translate(972.5 715.5)"/></g><g transform="translate(9247.501 -4877)"><path class="g" d="M11,0A11,11,0,1,1,0,11,11,11,0,0,1,11,0Z" transform="translate(-8942 5476)"/></g></g></svg>