<svg xmlns="http://www.w3.org/2000/svg" xmlns:xlink="http://www.w3.org/1999/xlink" width="142" height="101" viewBox="0 0 142 101"><defs><style>.a,.b{fill:#fff;}.a{stroke:#707070;}.b{stroke:#ddd;}.c{clip-path:url(#a);}.d{fill:#ececef;}.e{stroke:none;}.f{fill:none;}</style><clipPath id="a"><rect class="a" width="43" height="43" transform="translate(462 561)"/></clipPath></defs><g transform="translate(-438 -561)"><g class="b" transform="translate(438 561)"><rect class="e" width="142" height="101" rx="10"/><rect class="f" x="0.5" y="0.5" width="141" height="100" rx="9.5"/></g><g class="c" transform="translate(26 29)"><g transform="translate(465.308 561)"><path class="d" d="M39.642,27.984a1.654,1.654,0,1,0-2.326,2.352,14.782,14.782,0,0,1,4.414,10.579c0,2.023-5.8,4.962-14.885,4.962s-14.885-2.94-14.885-4.965a14.783,14.783,0,0,1,4.358-10.523A1.654,1.654,0,1,0,13.98,28.05,18.071,18.071,0,0,0,8.654,40.915c0,5.371,9.372,8.269,18.192,8.269s18.192-2.9,18.192-8.269A18.06,18.06,0,0,0,39.642,27.984Z" transform="translate(-8.654 -6.184)"/><path class="d" d="M27.154,28.346A11.577,11.577,0,1,0,15.577,16.769,11.577,11.577,0,0,0,27.154,28.346Zm0-19.846a8.269,8.269,0,1,1-8.269,8.269A8.269,8.269,0,0,1,27.154,8.5Z" transform="translate(-8.961 -5.192)"/></g></g></g></svg>