<svg xmlns="http://www.w3.org/2000/svg" xmlns:xlink="http://www.w3.org/1999/xlink" width="124" height="124" viewBox="0 0 124 124"><defs><style>.a,.g{fill:#fff;}.a{stroke:#707070;}.b{clip-path:url(#a);}.c{fill:#89bcff;opacity:0.53;}.d,.e,.j{fill:none;}.d,.f,.i{stroke:#3b61d5;}.d,.f{stroke-linecap:round;stroke-linejoin:round;}.d{stroke-width:2.5px;}.f,.i{fill:#3b61d5;}.f{stroke-width:8px;}.g{font-size:35px;font-family:SpoqaHanSansNeo-Regular, Spoqa Han Sans Neo;letter-spacing:-0.02em;}.h{fill:#1a1311;stroke:#1a1311;stroke-miterlimit:10;stroke-width:2px;}.j{stroke:#fff;stroke-width:3px;}.k{stroke:none;}</style><clipPath id="a"><rect class="a" width="124" height="124" transform="translate(746 483)"/></clipPath></defs><g class="b" transform="translate(-746 -483)"><g transform="translate(275.479 76.873)"><path class="c" d="M1135.376,128.3a46.024,46.024,0,1,0-86.688,0" transform="translate(-551.856 375.35)"/><g transform="translate(487.204 438.622)"><path class="d" d="M1133.8,127.221a45.215,45.215,0,1,0-85.163,0" transform="translate(-1046.008 -66.786)"/><path class="e" d="M1093.194,67.63a45.228,45.228,0,0,0-42.55,29.9h85.1A45.229,45.229,0,0,0,1093.194,67.63Z" transform="translate(-1047.979 -67.145)"/><g transform="translate(8.949 9.784)"><ellipse class="f" cx="0.501" cy="0.501" rx="0.501" ry="0.501" transform="translate(35.765)"/><ellipse class="f" cx="0.501" cy="0.501" rx="0.501" ry="0.501" transform="translate(35.765)"/><ellipse class="f" cx="0.501" cy="0.501" rx="0.501" ry="0.501" transform="translate(26.508 1.219)"/><ellipse class="f" cx="0.501" cy="0.501" rx="0.501" ry="0.501" transform="translate(17.882 4.792)"/><ellipse class="f" cx="0.501" cy="0.501" rx="0.501" ry="0.501" transform="translate(10.475 10.475)"/><ellipse class="f" cx="0.501" cy="0.501" rx="0.501" ry="0.501" transform="translate(4.792 17.882)"/><ellipse class="f" cx="0.501" cy="0.501" rx="0.501" ry="0.501" transform="translate(1.219 26.508)"/><ellipse class="f" cx="0.501" cy="0.501" rx="0.501" ry="0.501" transform="translate(0 35.764)"/><ellipse class="f" cx="0.501" cy="0.501" rx="0.501" ry="0.501" transform="translate(1.219 45.021)"/><ellipse class="f" cx="0.501" cy="0.501" rx="0.501" ry="0.501" transform="translate(70.31 45.021)"/><ellipse class="f" cx="0.501" cy="0.501" rx="0.501" ry="0.501" transform="translate(71.529 35.764)"/><ellipse class="f" cx="0.501" cy="0.501" rx="0.501" ry="0.501" transform="translate(70.31 26.508)"/><ellipse class="f" cx="0.501" cy="0.501" rx="0.501" ry="0.501" transform="translate(66.738 17.882)"/><ellipse class="f" cx="0.501" cy="0.501" rx="0.501" ry="0.501" transform="translate(61.054 10.475)"/><ellipse class="f" cx="0.501" cy="0.501" rx="0.501" ry="0.501" transform="translate(53.647 4.792)"/><ellipse class="f" cx="0.501" cy="0.501" rx="0.501" ry="0.501" transform="translate(45.021 1.219)"/></g></g><text class="g" transform="translate(539.382 496.877)"><tspan x="-20.51" y="0">10</tspan></text><g transform="translate(576.053 432.4)"><rect class="h" width="0.208" height="0.208" transform="translate(4.938)"/><rect class="h" width="0.208" height="0.208" transform="translate(1.671 1.293) rotate(-40)"/><rect class="h" width="0.208" height="0.208" transform="matrix(0.174, -0.985, 0.985, 0.174, 0, 4.382)"/><rect class="h" width="0.208" height="0.208" transform="translate(0.706 7.823) rotate(-120)"/><rect class="h" width="0.208" height="0.208" transform="translate(3.458 10.006) rotate(-160)"/><rect class="h" width="0.208" height="0.208" transform="translate(6.97 9.908) rotate(160)"/><rect class="h" width="0.208" height="0.208" transform="translate(9.597 7.576) rotate(120)"/><rect class="h" width="0.208" height="0.208" transform="matrix(0.174, 0.985, -0.985, 0.174, 10.111, 4.102)"/><rect class="h" width="0.208" height="0.208" transform="translate(8.271 1.109) rotate(40)"/></g><g transform="translate(470.521 434.12)"><rect class="h" width="0.371" height="0.371" transform="translate(8.814)"/><rect class="h" width="0.371" height="0.371" transform="translate(2.983 2.307) rotate(-40)"/><rect class="h" width="0.371" height="0.371" transform="matrix(0.174, -0.985, 0.985, 0.174, 0, 7.822)"/><rect class="h" width="0.371" height="0.371" transform="translate(1.26 13.964) rotate(-120)"/><rect class="h" width="0.371" height="0.371" transform="translate(6.173 17.86) rotate(-160)"/><rect class="h" width="0.371" height="0.371" transform="translate(12.441 17.686) rotate(160)"/><rect class="h" width="0.371" height="0.371" transform="translate(17.13 13.524) rotate(120)"/><rect class="h" width="0.371" height="0.371" transform="matrix(0.174, 0.985, -0.985, 0.174, 18.047, 7.321)"/><rect class="h" width="0.371" height="0.371" transform="translate(14.763 1.98) rotate(40)"/></g><g class="i" transform="translate(495.534 428.127)"><ellipse class="k" cx="1.891" cy="1.891" rx="1.891" ry="1.891"/><ellipse class="e" cx="1.891" cy="1.891" rx="1.391" ry="1.391"/></g><g class="i" transform="translate(588.146 453.546)"><ellipse class="k" cx="3.026" cy="3.026" rx="3.026" ry="3.026"/><ellipse class="e" cx="3.026" cy="3.026" rx="2.526" ry="2.526"/></g><g transform="translate(502.961 485.193) rotate(-45)"><g transform="translate(0 0)"><line class="j" x2="13.198" transform="translate(0 6.599)"/><line class="j" y2="13.198" transform="translate(6.599 0)"/></g></g></g></g></svg>