<svg width="32" height="32" viewBox="0 0 32 32" fill="none" xmlns="http://www.w3.org/2000/svg">
<circle cx="16" cy="16" r="16" fill="white"/>
<g clip-path="url(#clip0_368_1064)">
<path d="M21.9488 8.90234H20.759C20.4302 8.90234 20.1641 9.16842 20.1641 9.49728C20.1641 9.8261 20.4301 10.0922 20.759 10.0922H21.9488C22.2777 10.0922 22.5438 9.82614 22.5438 9.49728C22.5437 9.16842 22.2777 8.90234 21.9488 8.90234Z" fill="#5F4EEE"/>
<path d="M15.9371 6.85138L15.3422 5.66155C15.1941 5.36757 14.8379 5.24965 14.5439 5.39547C14.2499 5.54244 14.1308 5.89976 14.2778 6.19375L14.8728 7.38358C15.0195 7.67638 15.3751 7.79667 15.671 7.64966C15.9649 7.50269 16.0841 7.14537 15.9371 6.85138Z" fill="#5F4EEE"/>
<path d="M19.837 5.39546C19.5442 5.24964 19.1858 5.3676 19.0388 5.66154L18.4438 6.85138C18.2968 7.14536 18.416 7.50264 18.7099 7.64965C19.0067 7.79706 19.3618 7.67538 19.5082 7.38357L20.1031 6.19374C20.2501 5.89976 20.131 5.54244 19.837 5.39546Z" fill="#5F4EEE"/>
<path d="M13.6207 8.90234H12.4309C12.1021 8.90234 11.8359 9.16842 11.8359 9.49728C11.8359 9.8261 12.102 10.0922 12.4309 10.0922H13.6207C13.9495 10.0922 14.2156 9.82614 14.2156 9.49728C14.2156 9.16842 13.9495 8.90234 13.6207 8.90234Z" fill="#5F4EEE"/>
<path d="M10.0508 14.8906H7.67111C7.34257 14.8906 7.07617 15.157 7.07617 15.4856V25.0042C7.07617 25.3328 7.34253 25.5992 7.67111 25.5992H10.0508C10.3793 25.5992 10.6457 25.3328 10.6457 25.0042V15.4855C10.6457 15.157 10.3794 14.8906 10.0508 14.8906Z" fill="#181834"/>
<path d="M24.9123 16.4676C24.8074 15.5447 23.9453 14.8906 23.0165 14.8906H18.3783C18.7725 14.1848 18.984 12.1885 18.9747 11.373C18.9591 10.0231 17.8412 8.94141 16.4913 8.94141H16.0004C15.6716 8.94141 15.4055 9.20749 15.4055 9.53634C15.4055 10.9121 14.8698 13.3952 13.8595 14.4055C13.1795 15.0855 12.5982 15.3319 11.8359 15.7129V24.6396C13.003 25.0286 14.4847 25.5992 16.7432 25.5992H20.6349C21.9172 25.5992 22.9159 24.4116 22.419 23.1568C23.176 22.9506 23.7343 22.2563 23.7343 21.4348C23.7343 21.2029 23.6896 20.981 23.6088 20.7771C24.8846 20.4295 25.3541 18.8543 24.4687 17.8652C24.794 17.5018 24.9734 17.0047 24.9123 16.4676Z" fill="#181834"/>
</g>
<defs>
<clipPath id="clip0_368_1064">
<rect width="20.2667" height="20.2667" fill="white" transform="translate(5.86719 5.33301)"/>
</clipPath>
</defs>
</svg>
