<svg width="520" height="269" viewBox="0 0 520 269" fill="none" xmlns="http://www.w3.org/2000/svg">
<path fill-rule="evenodd" clip-rule="evenodd" d="M497.59 142.272C485.415 96.8342 438.71 69.8694 393.273 82.0444C347.835 94.2194 320.87 140.924 333.045 186.361C345.22 231.799 391.924 258.764 437.362 246.589C482.8 234.414 509.765 187.71 497.59 142.272ZM449.879 155.056C444.764 135.969 425.145 124.642 406.058 129.756C386.971 134.871 375.644 154.49 380.758 173.577C385.872 192.664 405.492 203.992 424.579 198.877C443.666 193.763 454.993 174.143 449.879 155.056Z" fill="url(#paint0_linear_707_313)" fill-opacity="0.15"/>
<path fill-rule="evenodd" clip-rule="evenodd" d="M118.589 52.2891C110.851 23.4107 81.1673 6.27299 52.2889 14.0109C23.4105 21.7489 6.27277 51.4323 14.0107 80.3107C21.7486 109.189 51.432 126.327 80.3104 118.589C109.189 110.851 126.327 81.1675 118.589 52.2891ZM88.2651 60.4143C85.0146 48.2833 72.5453 41.0841 60.4143 44.3346C48.2832 47.5852 41.0841 60.0544 44.3346 72.1855C47.5851 84.3165 60.0543 91.5157 72.1854 88.2651C84.3165 85.0146 91.5156 72.5454 88.2651 60.4143Z" fill="url(#paint1_linear_707_313)" fill-opacity="0.15"/>
<defs>
<linearGradient id="paint0_linear_707_313" x1="333.045" y1="186.361" x2="497.59" y2="142.272" gradientUnits="userSpaceOnUse">
<stop stop-color="#7C2EF8"/>
<stop offset="1" stop-color="#0068ED"/>
</linearGradient>
<linearGradient id="paint1_linear_707_313" x1="14.0107" y1="80.3107" x2="118.589" y2="52.2891" gradientUnits="userSpaceOnUse">
<stop stop-color="#7C2EF8"/>
<stop offset="1" stop-color="#0068ED"/>
</linearGradient>
</defs>
</svg>
