<svg width="148" height="108" viewBox="0 0 148 108" fill="none" xmlns="http://www.w3.org/2000/svg">
<g clip-path="url(#clip0_365_152)">
<path d="M66.5614 101.004C88.8625 101.004 106.941 82.8581 106.941 60.4745C106.941 38.0908 88.8625 19.9453 66.5614 19.9453C44.2603 19.9453 26.1816 38.0908 26.1816 60.4745C26.1816 82.8581 44.2603 101.004 66.5614 101.004Z" fill="#F6F9FB"/>
<path d="M63.1073 44.1254C65.0186 44.1254 66.568 42.5702 66.568 40.6518C66.568 38.7334 65.0186 37.1782 63.1073 37.1782C61.1959 37.1782 59.6465 38.7334 59.6465 40.6518C59.6465 42.5702 61.1959 44.1254 63.1073 44.1254Z" stroke="#AAB7D1" stroke-linecap="round" stroke-linejoin="round"/>
<path d="M144.24 19.9457C146.151 19.9457 147.701 18.3905 147.701 16.4721C147.701 14.5537 146.151 12.9985 144.24 12.9985C142.329 12.9985 140.779 14.5537 140.779 16.4721C140.779 18.3905 142.329 19.9457 144.24 19.9457Z" stroke="#AAB7D1" stroke-linecap="round" stroke-linejoin="round"/>
<path d="M124.081 52.2016C125.431 52.2016 126.526 51.1026 126.526 49.7468C126.526 48.3911 125.431 47.292 124.081 47.292C122.73 47.292 121.635 48.3911 121.635 49.7468C121.635 51.1026 122.73 52.2016 124.081 52.2016Z" stroke="#AAB7D1" stroke-linecap="round" stroke-linejoin="round"/>
<path d="M135.87 92.7065C138.18 92.7065 140.052 90.8271 140.052 88.5088C140.052 86.1904 138.18 84.311 135.87 84.311C133.56 84.311 131.688 86.1904 131.688 88.5088C131.688 90.8271 133.56 92.7065 135.87 92.7065Z" stroke="#AAB7D1" stroke-linecap="round" stroke-linejoin="round"/>
<path d="M2.75242 73.7368C4.10318 73.7368 5.19819 72.6377 5.19819 71.282C5.19819 69.9262 4.10318 68.8271 2.75242 68.8271C1.40165 68.8271 0.306641 69.9262 0.306641 71.282C0.306641 72.6377 1.40165 73.7368 2.75242 73.7368Z" stroke="#AAB7D1" stroke-linecap="round" stroke-linejoin="round"/>
<path d="M102.838 26.064H111.368" stroke="#AAB7D1" stroke-linecap="round" stroke-linejoin="round"/>
<path d="M107.107 21.7803V30.3476" stroke="#AAB7D1" stroke-linecap="round" stroke-linejoin="round"/>
<path d="M12.7793 10.126H32.3455" stroke="#AAB7D1" stroke-linecap="round" stroke-linejoin="round"/>
<path d="M22.5625 0.306641V19.9452" stroke="#AAB7D1" stroke-linecap="round" stroke-linejoin="round"/>
<path d="M75.5935 74.2339V107.693L42.2637 98.4876V65.0283L68.25 72.2025L75.5935 74.2339Z" fill="white" stroke="#AAB7D1" stroke-linecap="round" stroke-linejoin="round"/>
<path d="M108.924 65.0283V98.4876L75.5938 107.693V74.2339L75.6304 74.2216L108.924 65.0283Z" fill="white" stroke="#AAB7D1" stroke-linecap="round" stroke-linejoin="round"/>
<path d="M107.174 74.8783V94.8299C107.14 95.4799 106.888 96.0992 106.458 96.5865C106.028 97.0737 105.446 97.4 104.807 97.5118L81.6764 103.649C79.6403 104.134 77.6348 102.802 77.6348 100.961V78.2537H77.6653L103.108 72.1534C105.162 71.7054 107.174 73.0433 107.174 74.8783Z" fill="#F6F8FD"/>
<path d="M75.6724 74.2339L75.6357 74.2953L75.5929 74.3505L68.3351 85.1947L42.2631 78.0696L34.6445 75.9891L41.9819 65.0283L42.2631 65.1081L68.2495 72.2025L75.6296 74.2216L75.6724 74.2339Z" fill="white" stroke="#AAB7D1" stroke-linecap="round" stroke-linejoin="round"/>
<path d="M82.9311 85.1947L116.622 75.9891L109.284 65.0283L75.5938 74.2339L82.9311 85.1947Z" fill="white" stroke="#AAB7D1" stroke-linecap="round" stroke-linejoin="round"/>
<path d="M109.278 65.0281H108.923L75.6302 74.2214L68.2501 72.2023L42.2637 65.0281H41.9824L75.673 56.8105L109.278 65.0281Z" fill="white" stroke="#AAB7D1" stroke-linecap="round" stroke-linejoin="round"/>
</g>
<defs>
<clipPath id="clip0_365_152">
<rect width="148" height="108" fill="white"/>
</clipPath>
</defs>
</svg>
