<svg width="525" height="435" viewBox="0 0 525 435" fill="none" xmlns="http://www.w3.org/2000/svg">
<path fill-rule="evenodd" clip-rule="evenodd" d="M182.774 215.974C229.622 243.022 245.673 302.926 218.625 349.774C191.578 396.622 131.674 412.673 84.8256 385.625C37.9777 358.578 21.9264 298.674 48.9741 251.826C76.0217 204.978 135.926 188.927 182.774 215.974ZM154.372 265.167C174.052 276.529 180.795 301.693 169.433 321.372C158.071 341.052 132.906 347.795 113.227 336.433C93.5471 325.071 86.8044 299.907 98.1664 280.227C109.528 260.547 134.693 253.805 154.372 265.167Z" fill="url(#paint0_linear_704_287)" fill-opacity="0.2"/>
<path fill-rule="evenodd" clip-rule="evenodd" d="M446.699 137.984C418.699 130.481 402.082 101.7 409.585 73.6995C417.088 45.6991 445.869 29.0824 473.869 36.5851C501.87 44.0878 518.486 72.8688 510.984 100.869C503.481 128.87 474.7 145.486 446.699 137.984ZM454.578 108.582C442.816 105.43 435.835 93.3402 438.987 81.578C442.139 69.8157 454.229 62.8355 465.991 65.9872C477.753 69.1388 484.734 81.229 481.582 92.9913C478.43 104.754 466.34 111.734 454.578 108.582Z" fill="url(#paint1_linear_704_287)" fill-opacity="0.2"/>
<circle cx="470" cy="28" r="27.5" stroke="white"/>
<path d="M162.715 202.714L175 214.999" stroke="white"/>
<path d="M175 202.714L162.715 214.999" stroke="white"/>
<circle cx="131" cy="400" r="19.5" stroke="white"/>
<path d="M469 335L489.284 355.284" stroke="white"/>
<path d="M489.285 335L469.001 355.284" stroke="white"/>
<defs>
<linearGradient id="paint0_linear_704_287" x1="84.8256" y1="385.625" x2="182.774" y2="215.974" gradientUnits="userSpaceOnUse">
<stop stop-color="#7C2EF8"/>
<stop offset="1" stop-color="#0068ED"/>
</linearGradient>
<linearGradient id="paint1_linear_704_287" x1="473.869" y1="36.5851" x2="446.699" y2="137.984" gradientUnits="userSpaceOnUse">
<stop stop-color="#7C2EF8"/>
<stop offset="1" stop-color="#0068ED"/>
</linearGradient>
</defs>
</svg>
