<svg xmlns="http://www.w3.org/2000/svg" xmlns:xlink="http://www.w3.org/1999/xlink" width="26" height="26" viewBox="0 0 26 26">
  <defs>
    <clipPath id="clip-path">
      <rect id="사각형_26790" data-name="사각형 26790" width="26" height="26" transform="translate(-23637 -14873)" fill="#fff" stroke="#707070" stroke-width="1"/>
    </clipPath>
  </defs>
  <g id="icon_voice" transform="translate(23637 14873)" clip-path="url(#clip-path)">
    <g id="그룹_20172" data-name="그룹 20172" transform="translate(-2.999 30)">
      <path id="패스_2496" data-name="패스 2496" d="M8.862,25.958l-.184-.079a.972.972,0,0,1-.622-.906.937.937,0,0,1,.594-.947,10.921,10.921,0,0,1,2.916-.807c.124-.016.247-.035.378-.053v-2a13.368,13.368,0,0,1-1.587-.606,5.636,5.636,0,0,1-3.208-5.137c-.047-2.136-.015-4.274-.009-6.411A5.825,5.825,0,0,1,18.672,7.853a6.567,6.567,0,0,1,.119,1.283c.012,2.011-.023,4.022.012,6.032a5.882,5.882,0,0,1-4.7,5.914l-.112.025V23.1c.85.213,1.682.415,2.511.633a5.572,5.572,0,0,1,.711.263,1.011,1.011,0,0,1-.057,1.92.807.807,0,0,0-.087.046h-.406a8.859,8.859,0,0,0-7.4,0Zm.3-13.789c0,1.039-.011,2.079,0,3.118a3.777,3.777,0,0,0,5.217,3.6A3.69,3.69,0,0,0,16.761,15.4c.024-2.138.035-4.276,0-6.413a3.8,3.8,0,1,0-7.593.09c-.007,1.03,0,2.061,0,3.092" transform="translate(-23634 -14903)" fill="#fff"/>
      <path id="패스_2497" data-name="패스 2497" d="M25.943,4.361c-.007.005-.018.008-.02.015a1,1,0,0,1-.984.765,1.051,1.051,0,0,1-1.016-.77,11.5,11.5,0,0,0-1.59-2.694A.984.984,0,0,1,22.211.541.962.962,0,0,1,23.145,0a.993.993,0,0,1,.777.413A13.658,13.658,0,0,1,25.9,3.847a.329.329,0,0,0,.044.058Z" transform="translate(-23634 -14903)" fill="#fff"/>
      <path id="패스_2498" data-name="패스 2498" d="M22.844,8.739a3.645,3.645,0,0,1,0,.4,1.011,1.011,0,0,1-2.016-.121,7.918,7.918,0,0,0-4.411-7.047A1.034,1.034,0,0,1,15.777.767,1.016,1.016,0,0,1,17.246.126,9.427,9.427,0,0,1,20.5,2.648a9.808,9.808,0,0,1,2.342,6.091" transform="translate(-23634 -14903)" fill="#fff"/>
      <path id="패스_2499" data-name="패스 2499" d="M3.086,8.721a9.868,9.868,0,0,1,5.62-8.6,1,1,0,0,1,1.378.453,1.018,1.018,0,0,1-.535,1.39A7.775,7.775,0,0,0,5.3,7.386a10.746,10.746,0,0,0-.184,1.656,1.02,1.02,0,0,1-1.374.943.994.994,0,0,1-.654-.91c-.007-.117,0-.236,0-.354" transform="translate(-23634 -14903)" fill="#fff"/>
      <path id="패스_2500" data-name="패스 2500" d="M3.9,1.038a3.173,3.173,0,0,1-.292.626A13.063,13.063,0,0,0,1.951,4.5a1.013,1.013,0,1,1-1.857-.8A13.729,13.729,0,0,1,2.022.41,1,1,0,0,1,3.175.061a1.151,1.151,0,0,1,.721.977" transform="translate(-23634 -14903)" fill="#fff"/>
      <path id="패스_2501" data-name="패스 2501" d="M12.97,15.007c-.405,0-.81,0-1.215,0a1.014,1.014,0,1,1,0-2.025q1.214-.009,2.429,0a1.014,1.014,0,1,1,.005,2.025c-.405.005-.81,0-1.215,0" transform="translate(-23634 -14903)" fill="#fff"/>
    </g>
  </g>
</svg>
