<svg xmlns="http://www.w3.org/2000/svg" xmlns:xlink="http://www.w3.org/1999/xlink" width="26" height="26" viewBox="0 0 26 26">
  <defs>
    <clipPath id="clip-path">
      <rect id="사각형_26791" data-name="사각형 26791" width="26" height="26" transform="translate(-23555 -14870)" fill="#fff" stroke="#707070" stroke-width="1"/>
    </clipPath>
  </defs>
  <g id="icon_idea" transform="translate(23555 14870)" clip-path="url(#clip-path)">
    <g id="그룹_20170" data-name="그룹 20170" transform="translate(9.746 26.8)">
      <path id="패스_2508" data-name="패스 2508" d="M82.943,32.145H81.371A1.015,1.015,0,0,0,81.2,32.1a12.869,12.869,0,0,1-4.778-1.3,4.492,4.492,0,0,0-5.256.853,5.429,5.429,0,0,1-.693.485h-.406a1.082,1.082,0,0,1-.812-1.088c0-4.064-.015-8.127.012-12.191a12.172,12.172,0,0,1,1.6-5.979,13.235,13.235,0,0,1,13.75-6.5A13.04,13.04,0,0,1,95,16.754c.085.5.139,1,.208,1.5v1.571a1.376,1.376,0,0,0-.043.2,12.963,12.963,0,0,1-2,6.066,12.529,12.529,0,0,1-8.692,5.857c-.506.089-1.019.134-1.528.2M71.294,29.027c.025.008.034.014.04.012A.958.958,0,0,0,71.427,29a6.449,6.449,0,0,1,5.922,0A10.974,10.974,0,0,0,90.4,26.382,10.779,10.779,0,0,0,93.007,17.2a10.891,10.891,0,0,0-14.833-8.16,10.8,10.8,0,0,0-6.883,10c-.017,3.268,0,6.537,0,9.806,0,.064,0,.128.008.186" transform="translate(-23634 -14903)" fill="#fff"/>
      <path id="패스_2509" data-name="패스 2509" d="M85.375,19.146a1.266,1.266,0,1,1,1.249,1.284,1.25,1.25,0,0,1-1.249-1.284" transform="translate(-23634 -14903)" fill="#fff"/>
      <path id="패스_2510" data-name="패스 2510" d="M81.017,19.165a1.266,1.266,0,0,1,2.531-.033,1.266,1.266,0,1,1-2.531.033" transform="translate(-23634 -14903)" fill="#fff"/>
      <path id="패스_2511" data-name="패스 2511" d="M77.96,17.9a1.266,1.266,0,0,1-.035,2.532A1.266,1.266,0,1,1,77.96,17.9" transform="translate(-23634 -14903)" fill="#fff"/>
    </g>
  </g>
</svg>
