<svg xmlns="http://www.w3.org/2000/svg" xmlns:xlink="http://www.w3.org/1999/xlink" width="666" height="76" viewBox="0 0 666 76">
  <defs>
    <clipPath id="clip-path">
      <circle id="타원_541" data-name="타원 541" cx="38" cy="38" r="38" transform="translate(0.402 0.402)" fill="#fff" stroke="#707070" stroke-width="1"/>
    </clipPath>
    <clipPath id="clip-path-2">
      <rect id="사각형_26665" data-name="사각형 26665" width="49.995" height="68.095" fill="none"/>
    </clipPath>
    <clipPath id="clip-path-3">
      <rect id="사각형_26659" data-name="사각형 26659" width="12.433" height="12.938" fill="none"/>
    </clipPath>
    <clipPath id="clip-path-4">
      <rect id="사각형_26660" data-name="사각형 26660" width="31.478" height="16.269" fill="none"/>
    </clipPath>
    <clipPath id="clip-path-5">
      <rect id="사각형_26661" data-name="사각형 26661" width="33.065" height="16.665" fill="none"/>
    </clipPath>
    <clipPath id="clip-path-6">
      <rect id="사각형_26662" data-name="사각형 26662" width="5.29" height="5.29" fill="none"/>
    </clipPath>
    <clipPath id="clip-path-8">
      <rect id="사각형_26664" data-name="사각형 26664" width="21.129" height="32.206" fill="none"/>
    </clipPath>
  </defs>
  <g id="img_text_title" transform="translate(23709 18861)">
    <g id="img-chatbotim_02" transform="translate(469.459 -55.541)">
      <g id="패스_2480" data-name="패스 2480" transform="translate(-23883.459 -18805.459)" fill="#6f85ff">
        <path d="M 38 74.5 C 33.07186508178711 74.5 28.29194450378418 73.53515625 23.79301071166992 71.63226318359375 C 19.44680023193359 69.79396820068359 15.54317760467529 67.16197967529297 12.19060039520264 63.80939865112305 C 8.838022232055664 60.45682144165039 6.206033229827881 56.55319976806641 4.367733478546143 52.20698928833008 C 2.464844465255737 47.70805740356445 1.5 42.92813491821289 1.5 38 C 1.5 33.07186508178711 2.464844465255737 28.29194450378418 4.367733478546143 23.79301071166992 C 6.206033229827881 19.44680023193359 8.838022232055664 15.54317760467529 12.19060039520264 12.19060039520264 C 15.54317760467529 8.838022232055664 19.44680023193359 6.206033229827881 23.79301071166992 4.367733478546143 C 28.29194450378418 2.464844465255737 33.07186508178711 1.5 38 1.5 C 42.92813491821289 1.5 47.70805740356445 2.464844465255737 52.20698928833008 4.367733478546143 C 56.55319976806641 6.206033229827881 60.45682144165039 8.838022232055664 63.80939865112305 12.19060039520264 C 67.16197967529297 15.54317760467529 69.79396820068359 19.44680023193359 71.63226318359375 23.79301071166992 C 73.53515625 28.29194450378418 74.5 33.07186508178711 74.5 38 C 74.5 42.92813491821289 73.53515625 47.70805740356445 71.63226318359375 52.20698928833008 C 69.79396820068359 56.55319976806641 67.16197967529297 60.45682144165039 63.80939865112305 63.80939865112305 C 60.45682144165039 67.16197967529297 56.55319976806641 69.79396820068359 52.20698928833008 71.63226318359375 C 47.70805740356445 73.53515625 42.92813491821289 74.5 38 74.5 Z" stroke="none"/>
        <path d="M 38 3 C 33.27371215820312 3 28.69038772583008 3.924972534179688 24.37734985351562 5.749237060546875 C 20.20992660522461 7.511909484863281 16.46657562255859 10.03596496582031 13.25126266479492 13.25126266479492 C 10.03596496582031 16.46657562255859 7.511909484863281 20.20992660522461 5.749237060546875 24.37734985351562 C 3.924972534179688 28.69038772583008 3 33.27371215820312 3 38 C 3 42.72628784179688 3.924972534179688 47.30961227416992 5.749237060546875 51.62265014648438 C 7.511909484863281 55.79007720947266 10.03596496582031 59.53342437744141 13.25126266479492 62.74873733520508 C 16.46657562255859 65.96403503417969 20.20992660522461 68.48809051513672 24.37734985351562 70.25076293945312 C 28.69038772583008 72.07502746582031 33.27371215820312 73 38 73 C 42.72628784179688 73 47.30961227416992 72.07502746582031 51.62265014648438 70.25076293945312 C 55.79007720947266 68.48809051513672 59.53342437744141 65.96403503417969 62.74873733520508 62.74873733520508 C 65.96403503417969 59.53342437744141 68.48809051513672 55.79007720947266 70.25076293945312 51.62265014648438 C 72.07502746582031 47.30961227416992 73 42.72628784179688 73 38 C 73 33.27371215820312 72.07502746582031 28.69038772583008 70.25076293945312 24.37734985351562 C 68.48809051513672 20.20992660522461 65.96403503417969 16.46657562255859 62.74873733520508 13.25126266479492 C 59.53342437744141 10.03596496582031 55.79007720947266 7.511909484863281 51.62265014648438 5.749237060546875 C 47.30961227416992 3.924972534179688 42.72628784179688 3 38 3 M 38 0 C 58.98681259155273 0 76 17.01318740844727 76 38 C 76 58.98681259155273 58.98681259155273 76 38 76 C 17.01318740844727 76 0 58.98681259155273 0 38 C 0 17.01318740844727 17.01318740844727 0 38 0 Z" stroke="none" fill="#fff"/>
      </g>
      <g id="마스크_그룹_24" data-name="마스크 그룹 24" transform="translate(-23883.861 -18805.861)" clip-path="url(#clip-path)">
        <g id="그룹_20157" data-name="그룹 20157" transform="translate(13.097 10.404)">
          <g id="그룹_20156" data-name="그룹 20156" clip-path="url(#clip-path-2)">
            <g id="그룹_20140" data-name="그룹 20140" transform="translate(18.916 41.049)" style="isolation: isolate">
              <g id="그룹_20139" data-name="그룹 20139">
                <g id="그룹_20138" data-name="그룹 20138" clip-path="url(#clip-path-3)">
                  <rect id="사각형_26658" data-name="사각형 26658" width="12.433" height="12.938" transform="translate(0)" fill="#d7ecff"/>
                </g>
              </g>
            </g>
            <g id="그룹_20143" data-name="그룹 20143" transform="translate(9.393 51.825)" style="isolation: isolate">
              <g id="그룹_20142" data-name="그룹 20142">
                <g id="그룹_20141" data-name="그룹 20141" clip-path="url(#clip-path-4)">
                  <path id="패스_2473" data-name="패스 2473" d="M35.29,210.982a16.011,16.011,0,0,1,15.739-16.269,16.011,16.011,0,0,1,15.739,16.269Z" transform="translate(-35.29 -194.713)" fill="#fbfcfe"/>
                </g>
              </g>
            </g>
            <path id="패스_2474" data-name="패스 2474" d="M46.187,22.744a16.106,16.106,0,0,0-14.808-9.771H29.814a5.29,5.29,0,0,0-4.153-2.8V5.237a2.645,2.645,0,1,0-1.058,0v4.931a5.289,5.289,0,0,0-4.153,2.8H18.616A16.106,16.106,0,0,0,3.807,22.744a5.286,5.286,0,0,0-.919,9.785,16.106,16.106,0,0,0,15.728,12.65H31.379a16.106,16.106,0,0,0,15.728-12.65,5.286,5.286,0,0,0-.92-9.785" fill="#fff"/>
            <g id="그룹_20146" data-name="그룹 20146" transform="translate(8.599 20.744)" style="isolation: isolate">
              <g id="그룹_20145" data-name="그룹 20145">
                <g id="그룹_20144" data-name="그룹 20144" clip-path="url(#clip-path-5)">
                  <path id="패스_2475" data-name="패스 2475" d="M57.041,94.6H40.64a8.332,8.332,0,1,1,0-16.665h16.4a8.332,8.332,0,0,1,0,16.665" transform="translate(-32.308 -77.936)" fill="#d6ecff"/>
                </g>
              </g>
            </g>
            <g id="그룹_20149" data-name="그룹 20149" transform="translate(15.204 26.431)" style="isolation: isolate">
              <g id="그룹_20148" data-name="그룹 20148">
                <g id="그룹_20147" data-name="그룹 20147" clip-path="url(#clip-path-6)">
                  <path id="패스_2476" data-name="패스 2476" d="M62.413,101.949a2.645,2.645,0,1,0-2.645,2.645,2.645,2.645,0,0,0,2.645-2.645" transform="translate(-57.123 -99.304)" fill="#5673b1"/>
                </g>
              </g>
            </g>
            <g id="그룹_20152" data-name="그룹 20152" transform="translate(29.769 26.431)" style="isolation: isolate">
              <g id="그룹_20151" data-name="그룹 20151">
                <g id="그룹_20150" data-name="그룹 20150" clip-path="url(#clip-path-6)">
                  <path id="패스_2477" data-name="패스 2477" d="M117.137,101.949a2.645,2.645,0,1,0-2.645,2.645,2.645,2.645,0,0,0,2.645-2.645" transform="translate(-111.846 -99.304)" fill="#5673b1"/>
                </g>
              </g>
            </g>
            <g id="그룹_20155" data-name="그룹 20155" transform="translate(0 12.973)" style="isolation: isolate">
              <g id="그룹_20154" data-name="그룹 20154">
                <g id="그룹_20153" data-name="그룹 20153" clip-path="url(#clip-path-8)">
                  <path id="패스_2478" data-name="패스 2478" d="M5.026,64.846h0c0-8.893,6.531-16.1,15.424-16.1H18.616A16.106,16.106,0,0,0,3.807,58.514,5.285,5.285,0,0,0,2.888,68.3a16.106,16.106,0,0,0,15.728,12.65h2.513a16.1,16.1,0,0,1-16.1-16.1" transform="translate(0 -48.743)" fill="#d7ecff"/>
                </g>
              </g>
            </g>
          </g>
        </g>
      </g>
    </g>
    <circle id="타원_550" data-name="타원 550" cx="5" cy="5" r="5" transform="translate(-23434 -18828)" fill="#fff"/>
    <circle id="타원_551" data-name="타원 551" cx="5" cy="5" r="5" transform="translate(-23328 -18828)" fill="#fff"/>
    <path id="패스_2580" data-name="패스 2580" d="M-23761.664-18326h280" transform="translate(52.664 -497)" fill="none" stroke="#fff" stroke-width="1"/>
    <path id="패스_2581" data-name="패스 2581" d="M-23761.664-18326h280" transform="translate(438.664 -497)" fill="none" stroke="#fff" stroke-width="1"/>
  </g>
</svg>
