<svg xmlns="http://www.w3.org/2000/svg" xmlns:xlink="http://www.w3.org/1999/xlink" width="400" height="400" viewBox="0 0 400 400">
  <defs>
    <clipPath id="clip-path">
      <rect id="사각형_26836" data-name="사각형 26836" width="400" height="400" transform="translate(-20376 -20762)" fill="#fff" stroke="#707070" stroke-width="1"/>
    </clipPath>
  </defs>
  <g id="img_note04" transform="translate(20376 20762)" clip-path="url(#clip-path)">
    <g id="img_note04-2" data-name="img_note04" transform="translate(-20371.598 -20701.803)">
      <path id="패스_2550" data-name="패스 2550" d="M127.262,117.23A71.6,71.6,0,0,0,111.429,59.9a60.574,60.574,0,0,0-94.1,0A71.6,71.6,0,0,0,1.5,117.23c5.105,30.8,33.308,36.44,39.762,37.338a36.769,36.769,0,0,0,6.717,3.555c-1.177,4.311-3.628,5.516-8.647,7.844-1.995.919-4.253,1.973-6.711,3.389A63.123,63.123,0,0,0,11.228,187.83,11.059,11.059,0,0,0,8.7,197.022a14.068,14.068,0,0,0,7.912,8.58c9.4,5.013,29.836,10.2,47.768,10.2s38.37-5.2,47.765-10.213a14.062,14.062,0,0,0,7.915-8.58,11.059,11.059,0,0,0-2.537-9.193,63.1,63.1,0,0,0-21.385-18.468c-2.451-1.416-4.716-2.451-6.711-3.389-5.031-2.335-7.483-3.536-8.656-7.875a36.678,36.678,0,0,0,6.7-3.564C93.969,153.636,122.16,148.007,127.262,117.23ZM71.9,160.512a17.53,17.53,0,0,0,5.068,8.678,42.972,42.972,0,0,1-12.723,1.492,42.287,42.287,0,0,1-12.444-1.514,17.546,17.546,0,0,0,5.044-8.641,48.123,48.123,0,0,0,7.507.7A48.108,48.108,0,0,0,71.9,160.512Zm.791-9.5a44.293,44.293,0,0,1-8.338,1.017,44.238,44.238,0,0,1-8.381-1.017C40.565,147.8,33.607,132.2,31.838,127.495a66.037,66.037,0,0,1-3.113-21.272C40.17,98.106,56.7,95.906,64.27,95.906h.147c7.547,0,24.091,2.2,35.527,10.314a66.044,66.044,0,0,1-3.122,21.275C95.063,132.2,88.1,147.8,72.694,151.013Z" transform="translate(0 11.727)"/>
      <path id="패스_2551" data-name="패스 2551" d="M179.715,148.2c.879-15.836,1.71-30.8,1.688-42.286-.049-28.5-16.593-55.858-41.171-68.057a56.324,56.324,0,0,0-60.2,5.978c-11.932,3.717-21.888,14.38-28.841,30.9-10.6,25.213-7.841,55.113-5.176,84.009,1.786,19.391,3.616,39.424,1.376,57.681a12.006,12.006,0,0,0-2.145,9.193c1.115,5.035,5.791,8.044,9.211,9.864,11.466,6.128,36.428,12.45,58.346,12.45,21.854,0,46.773-6.328,58.242-12.45,3.42-1.82,8.093-4.829,9.193-9.864a11.95,11.95,0,0,0-2.084-9.11C176.964,197.951,178.422,171.559,179.715,148.2Zm-77.044,32.107a37.641,37.641,0,0,0,19.878.067c2.672,10.351,9.312,13.32,16.3,16.43,1.247.555,2.516,1.121,3.818,1.747A73.848,73.848,0,0,1,112.7,203.73a70.061,70.061,0,0,1-29.6-5.3c1.146-.552,2.274-1.069,3.371-1.569C93.408,193.717,100.008,190.707,102.671,180.307ZM76.205,142.924a98.975,98.975,0,0,1-3.371-29.931c1.085-16.259,6.159-29.723,12.919-34.27a8.7,8.7,0,0,1,4.94-1.609,9.44,9.44,0,0,1,2.96.5,4.6,4.6,0,0,0,3.815-.432c7.636-4.621,10.3-1.943,19.265,9.006a115.4,115.4,0,0,0,19.28,19.648,36.14,36.14,0,0,1,13.378,36.731s-.337,1.373-.481,1.878a39.789,39.789,0,0,1-23.972,25.7,38.34,38.34,0,0,1-12.186,2.353,38.274,38.274,0,0,1-12.168-2.347,39.664,39.664,0,0,1-24.379-27.238Z" transform="translate(88.74 0)"/>
      <path id="패스_2552" data-name="패스 2552" d="M203.392,196.76a66.1,66.1,0,0,0-22.369-19.3l-1.59-.919c-8.381-4.8-13.789-7.933-15.658-16.081a45.4,45.4,0,0,0,22.675-25.85,18.548,18.548,0,0,0,15.116-25.283,12.756,12.756,0,0,0-3.928-4.811c7.691-49.386-16.222-61.842-35.1-66.88-13.915-3.711-44.153-2.329-50.98,17.724a1.189,1.189,0,0,1-.383.588c-14.5,9.551-18.306,23.368-13.21,48.663a12.738,12.738,0,0,0-3.815,4.713,18.545,18.545,0,0,0,15.11,25.28,45.394,45.394,0,0,0,22.675,25.853c-1.878,8.117-7.275,11.252-15.646,16.041l-1.661.953a66.037,66.037,0,0,0-22.369,19.3,11.378,11.378,0,0,0-2.614,9.441,14.543,14.543,0,0,0,8.185,8.856c9.839,5.249,31.228,10.679,50,10.679s40.157-5.43,49.993-10.679a14.528,14.528,0,0,0,8.185-8.856A11.39,11.39,0,0,0,203.392,196.76Zm-55.53-32.076a30.471,30.471,0,0,0,7.232-.984,25.666,25.666,0,0,0,5.341,10.21,37.577,37.577,0,0,1-25.209.052,25.633,25.633,0,0,0,5.4-10.262,30.337,30.337,0,0,0,7.235.984Zm-30.912-36.32c-.159-.668-.76-4.6-1.345-9.723a4.6,4.6,0,1,0-9.131,1.039c.184,1.621.4,3.4.613,5.068a10.011,10.011,0,0,1-4.458-5.27,8.411,8.411,0,0,1-.153-6.273,3.637,3.637,0,0,1,2.2-1.976,9.23,9.23,0,0,1,2.739-.426,7.538,7.538,0,0,0,7.4-6.564c1.468-10.918,7.789-27.612,14.35-28.923a9.015,9.015,0,0,0,4.759-2.7c3.181-3.371,11.88-5.43,19.758-3.159a19.531,19.531,0,0,1,14.178,16.106c.2,1.005.325,2.1.46,3.248.735,6.23,1.839,15.643,13.832,21.143a10.137,10.137,0,0,0,5.074.882,9.974,9.974,0,0,1,3.827.4,3.594,3.594,0,0,1,2.166,1.964,8.408,8.408,0,0,1-.147,6.266,10.054,10.054,0,0,1-4.462,5.286c.2-1.5.4-3.064.564-4.514a4.6,4.6,0,0,0-9.135-1.06c-.57,4.9-1.128,8.537-1.272,9.153a35.891,35.891,0,0,1-21.833,25.154,21.637,21.637,0,0,1-18.2,0,35.87,35.87,0,0,1-21.787-25.124Z" transform="translate(183.46 8.68)"/>
    </g>
  </g>
</svg>
