<svg xmlns="http://www.w3.org/2000/svg" xmlns:xlink="http://www.w3.org/1999/xlink" width="840.068" height="963.882" viewBox="0 0 840.068 963.882">
  <defs>
    <clipPath id="clip-path">
      <rect id="사각형_26821" data-name="사각형 26821" width="840.068" height="963.882"/>
    </clipPath>
  </defs>
  <g id="img_user_line" opacity="0.3">
    <g id="그룹_20206" data-name="그룹 20206" clip-path="url(#clip-path)">
      <path id="패스_2531" data-name="패스 2531" d="M420.515,963.862q-131.939,0-263.878-.05c-20.9-.029-41.578-2.635-61.244-9.917C45.33,935.357,14.53,900.061,3.844,847.459-1.325,822.013-.064,796.415.765,770.752c.635-19.651,2.184-39.2,4.395-58.719,2.449-21.625,6.555-42.951,11.241-64.178,6.126-27.751,14.693-54.687,27.276-80.241,13.457-27.331,29.741-52.653,53.6-72.218,22.142-18.159,47.68-29.1,75.847-33.846,7.91-1.333,16-1.609,23.931-2.816,9.16-1.393,16.824,2.016,24.118,6.75,17.88,11.6,35.458,23.69,53.566,34.925,33.746,20.936,70.421,34.062,109.716,40.1,49.579,7.618,96.631-1.366,142.47-20.213,21.3-8.759,40.362-21.176,59.488-33.658,12.627-8.242,24.835-17.139,38.146-24.342a29.4,29.4,0,0,1,15.862-3.708c36.634,1.649,70.307,12,99.568,34.526,18.591,14.314,32.591,32.749,44.59,52.772,17.927,29.916,29.769,62.253,37.645,96.046a635.076,635.076,0,0,1,14.944,94.1c2.191,27.66,3.618,55.339,2.534,83.011-1.452,37.075-12.459,71.1-38.414,98.592-19.289,20.433-43.055,33.939-70.632,40.48a219.152,219.152,0,0,1-50.8,5.739q-129.668.012-259.336,0"/>
      <path id="패스_2532" data-name="패스 2532" d="M190.918,229.309C188.94,104.336,294.81-.2,420.727,0c124.326.193,231.26,104.322,229,234.207C647.647,353.981,546.54,461.432,415.1,458.991c-120.328-2.235-226.127-103.31-224.183-229.682"/>
    </g>
  </g>
</svg>
