<svg xmlns="http://www.w3.org/2000/svg" xmlns:xlink="http://www.w3.org/1999/xlink" width="30" height="30" viewBox="0 0 30 30"><defs><style>.a,.c{fill:#fff;}.a{stroke:#707070;}.b{clip-path:url(#a);}</style><clipPath id="a"><rect class="a" width="30" height="30" transform="translate(96 531)"/></clipPath></defs><g class="b" transform="translate(-96 -531)"><g transform="translate(101.006 533.727)"><g transform="translate(0 0)"><g transform="translate(0 0)"><path class="c" d="M340.251,258.3a5.562,5.562,0,0,1,2.649-4.681,5.739,5.739,0,0,0-4.485-2.447c-1.913-.193-3.734,1.131-4.7,1.131s-2.467-1.1-4.05-1.068a6,6,0,0,0-5.08,3.084c-2.164,3.768-.556,9.353,1.557,12.408,1.03,1.5,2.257,3.176,3.87,3.116,1.557-.06,2.145-1.008,4.025-1.008s2.407,1.008,4.053.982c1.671-.035,2.733-1.531,3.753-3.027a13.674,13.674,0,0,0,1.7-3.505A5.429,5.429,0,0,1,340.251,258.3Z" transform="translate(-323.557 -245.299)"/><path class="c" d="M394.723,214.812a5.328,5.328,0,0,0,1.265-3.877,5.44,5.44,0,0,0-3.576,1.839,5.09,5.09,0,0,0-1.292,3.762A4.509,4.509,0,0,0,394.723,214.812Z" transform="translate(-381.126 -210.935)"/></g></g></g></g></svg>