<svg xmlns="http://www.w3.org/2000/svg" width="17.946" height="22" viewBox="0 0 17.946 22"><path d="M61.316,128.028c-.605-3.038,2.286-4.82,2.286-4.82a5.523,5.523,0,0,0-3.019-2.044,5.273,5.273,0,0,0-3.784.5,4.223,4.223,0,0,1-1.418.394c-1.365,0-2.363-1.442-4.964-.785a6.122,6.122,0,0,0-4.019,4.978,13.473,13.473,0,0,0,1.813,8.044c1.418,2.438,2.863,3.355,3.888,3.381s2.049-.733,3.283-.917,1.995.446,3.206.786,1.63.025,3.019-1.155,2.655-4.561,2.655-4.561A4.889,4.889,0,0,1,61.316,128.028Z" transform="translate(-46.315 -115.673)"/><path d="M255.291,3.507A4.2,4.2,0,0,0,256.184,0a6.47,6.47,0,0,0-3.168,1.655,4.768,4.768,0,0,0-1.06,3.413A5.968,5.968,0,0,0,255.291,3.507Z" transform="translate(-242.966)"/></svg>