<svg xmlns="http://www.w3.org/2000/svg" width="46" height="46" viewBox="0 0 46 46"><defs><style>.a,.b{fill:none;}.b,.c,.d{stroke:#000;stroke-linecap:round;stroke-linejoin:round;stroke-width:1.5px;}.c{fill:#fff;}.d{fill:#3b61d5;}</style></defs><g transform="translate(0 0)"><rect class="a" width="46" height="46" transform="translate(0 0)"/><g transform="translate(3.554 3.577)"><g transform="translate(0.818 18.703)"><line class="b" x1="8.547" transform="translate(29.398)"/><line class="b" x1="8.547"/></g><g transform="translate(5.035 4.147)"><path class="c" d="M8.02,0H21.594a8.02,8.02,0,0,1,8.02,8.02v2.916a0,0,0,0,1,0,0H0a0,0,0,0,1,0,0V8.02A8.02,8.02,0,0,1,8.02,0Z" transform="translate(0 19.662)"/><path class="d" d="M5.246,0h3.2a5.246,5.246,0,0,1,5.246,5.246V7.466a0,0,0,0,1,0,0H0a0,0,0,0,1,0,0V5.246A5.246,5.246,0,0,1,5.246,0Z" transform="translate(7.721)"/><path class="c" d="M82.953,56.024A2.761,2.761,0,0,1,80.9,58.3a4.832,4.832,0,0,1-2.136,3.241v1.281a3.448,3.448,0,0,1-3.442,3.448H72.938a3.45,3.45,0,0,1-3.448-3.448V61.535A4.818,4.818,0,0,1,67.353,58.3a2.761,2.761,0,0,1-2.063-2.276c-.5-2.677,1.991-2.319,1.991-2.319V51.9a3.28,3.28,0,0,1,3.277-3.278H77.7A3.276,3.276,0,0,1,80.974,51.9v1.8C81.162,53.681,83.438,53.457,82.953,56.024Z" transform="translate(-59.553 -44.37)"/><g transform="translate(10.859 9.837)"><circle cx="0.871" cy="0.871" r="0.871"/><circle cx="0.871" cy="0.871" r="0.871" transform="translate(5.675)"/></g><path class="c" d="M72.283,58.695a1.881,1.881,0,0,0,1.839.926h0a1.928,1.928,0,0,0,1.82-.878" transform="translate(-59.553 -44.37)"/><line class="c" y1="8.115" transform="translate(14.807 26.445)"/></g><path class="b" d="M54.518,46.554V40.407h6.011" transform="translate(-54.518 -40.223)"/><path class="b" d="M93.409,72.783V78.93H87.4" transform="translate(-54.518 -40.223)"/><path class="b" d="M60.849,79.114H54.7V73.1" transform="translate(-54.518 -40.223)"/><path class="b" d="M87.078,40.223h6.147v6.01" transform="translate(-54.518 -40.223)"/><line class="c" y2="6.331" transform="translate(19.445)"/></g></g></svg>