<svg xmlns="http://www.w3.org/2000/svg" xmlns:xlink="http://www.w3.org/1999/xlink" width="27" height="27" viewBox="0 0 27 27"><defs><style>.a{fill:#fff;stroke:#707070;}.b{clip-path:url(#a);}.c{fill:#283e62;}</style><clipPath id="a"><rect class="a" width="27" height="27" transform="translate(1024 1444)"/></clipPath></defs><g class="b" transform="translate(-1024 -1444)"><g transform="translate(1024 1444)"><path class="c" d="M13.5,6.328a3.955,3.955,0,1,0,3.955,3.955A3.96,3.96,0,0,0,13.5,6.328Zm0,6.328a2.373,2.373,0,1,1,2.373-2.373A2.376,2.376,0,0,1,13.5,12.656Z"/><path class="c" d="M12.709,3.164h1.582V4.746H12.709Z"/><path class="c" d="M15.082,0H11.918a8.711,8.711,0,0,0-8.7,8.7v3.164a8.711,8.711,0,0,0,8.7,8.7h.791v1.688H10.336a3.96,3.96,0,0,0-3.955,3.955V27H20.619v-.791a3.96,3.96,0,0,0-3.955-3.955H14.291V20.566h.791a8.711,8.711,0,0,0,8.7-8.7V8.7A8.711,8.711,0,0,0,15.082,0ZM18.9,25.418H8.1a2.377,2.377,0,0,1,2.238-1.582h6.328A2.377,2.377,0,0,1,18.9,25.418Zm-3.82-6.434H11.918A7.127,7.127,0,0,1,4.8,11.865v-.791H7.963V9.492H4.8V8.7a7.127,7.127,0,0,1,7.119-7.119h3.164A7.127,7.127,0,0,1,22.2,8.7v.791H19.037v1.582H22.2v.791A7.127,7.127,0,0,1,15.082,18.984Z"/></g></g></svg>