<svg xmlns="http://www.w3.org/2000/svg" width="46" height="46" viewBox="0 0 46 46"><defs><style>.a{fill:#65b1e3;}.b{fill:#fff;}.b,.c{stroke:#000;stroke-linecap:round;stroke-linejoin:round;stroke-width:1.5px;}.c,.d{fill:none;}</style></defs><g transform="translate(-120.002 -109.022)"><path class="a" d="M143.614,119.076a3.812,3.812,0,0,1,.178-1.572,2.944,2.944,0,0,1,2.654-1.484,28.023,28.023,0,0,0,3.2-.035c1.695-.294,3.179-1.569,4.9-1.5a4.54,4.54,0,0,1,2.743,1.236A20.835,20.835,0,0,1,159.34,118a20.87,20.87,0,0,1,2.893,3.732,7.581,7.581,0,0,1-.53,7.689,9.08,9.08,0,0,0-.889,1.323,7.244,7.244,0,0,0-.374,2.886,3.459,3.459,0,0,1-.987,2.664,13.186,13.186,0,0,1-2.1.941c-1.565.856-1.947,2.907-3.035,4.32a4.969,4.969,0,0,1-2.593,1.747,2.691,2.691,0,0,0-1.094.435,2.622,2.622,0,0,0-.564,1.736,5.7,5.7,0,0,1-5.272,4.975,4.59,4.59,0,0,1-1.456-.077c-.462-.12-.375-.624-.394-1.011-.12-2.448-.128-4.9-.075-7.351s.167-4.88.291-7.318c.125-2.453.26-4.9.355-7.359s.149-4.906.112-7.359Q143.625,119.521,143.614,119.076Z"/><path class="b" d="M143.2,117.584V150.57s-14.518-7.874-19.631-20.2S132.937,107.325,143.2,117.584Z"/><path class="c" d="M145.118,150.115s5.635-.1,5.234-6.216"/><path class="c" d="M148.426,143.548s4.411.5,6.617-2.506a9.489,9.489,0,0,0,1.7-6.416"/><path class="c" d="M159.9,129.614s3.1,5.714-3.109,7.619"/><path class="c" d="M159.7,118.436s8.042,5.6.713,12.5"/><path class="c" d="M150.352,115.83s3.137-3.208,6.646-1,2.355,6.416,2.355,6.416"/><path class="d" d="M149.78,123.549"/><path class="c" d="M154.141,127.509s-3.71.3-4.361-3.96"/><path class="c" d="M150.782,130.566a3.781,3.781,0,0,1,.566-3.976"/><path class="c" d="M147.616,137.734s-3.936.251-4.42-3.358"/><path class="c" d="M152.035,117.648s-3.693-4.725-8.839-.064"/><rect class="d" width="46" height="46" transform="translate(120.002 109.022)"/></g></svg>