<svg xmlns="http://www.w3.org/2000/svg" xmlns:xlink="http://www.w3.org/1999/xlink" width="46" height="46" viewBox="0 0 46 46"><defs><style>.a{fill:#bb1414;}.b{clip-path:url(#a);}.c,.d{fill:none;}.c,.d,.e,.f,.g,.h{stroke:#000;}.c,.d,.e,.h{stroke-linecap:round;}.c,.g,.h{stroke-linejoin:round;}.c,.f,.g,.h{stroke-width:1.5px;}.d,.e,.f{stroke-miterlimit:10;}.d,.e{stroke-width:1.4px;}.e{fill:#fff;}.f,.h{fill:#0069ff;}.g{fill:#e4f0ff;}</style><clipPath id="a"><rect class="a" width="46" height="46" transform="translate(1223 1702)"/></clipPath></defs><g class="b" transform="translate(-1223 -1702)"><g transform="translate(1127.121 1310.231)"><line class="c" x2="43.919" transform="translate(96.921 433.166)"/><path class="d" d="M134.713,410.157" transform="translate(-6.328 -2.366)"/><path class="d" d="M143.779,401.232" transform="translate(-7.846 -0.871)"/><path class="d" d="M137.913,404.743" transform="translate(-6.864 -1.459)"/><path class="d" d="M134.963,406.51" transform="translate(-6.37 -1.755)"/><path class="d" d="M126.065,411.837" transform="translate(-4.88 -2.647)"/><g transform="translate(99.022 396.03)"><circle class="e" cx="1.434" cy="1.434" r="1.434" transform="translate(0 6.375)"/><circle class="e" cx="1.434" cy="1.434" r="1.434" transform="translate(7.341 2.47)"/><circle class="f" cx="1.434" cy="1.434" r="1.434" transform="translate(36.707)"/><circle class="e" cx="1.434" cy="1.434" r="1.434" transform="translate(22.024 8.79)"/><circle class="e" cx="1.434" cy="1.434" r="1.434" transform="translate(14.683 12.304)"/><circle class="e" cx="1.434" cy="1.434" r="1.434" transform="translate(29.365 4.395)"/><line class="d" y1="2.529" x2="4.636" transform="translate(2.869 4.556)"/><line class="d" x2="5.048" y2="7.129" transform="translate(9.922 5.525)"/><line class="d" y1="2.923" x2="4.883" transform="translate(32.028 2.171)"/><line class="d" y1="2.923" x2="4.882" transform="translate(24.689 6.565)"/><path class="d" d="M129.1,407.426" transform="translate(-104.41 -397.938)"/><line class="d" y1="2.531" x2="4.229" transform="translate(17.935 11)"/></g><rect class="g" width="4.163" height="18.023" transform="translate(98.374 415.143)"/><rect class="g" width="4.163" height="22.135" transform="translate(105.716 411.031)"/><rect class="g" width="4.163" height="12.782" transform="translate(113.057 420.384)"/><rect class="g" width="4.163" height="15.452" transform="translate(120.398 417.714)"/><rect class="g" width="4.163" height="19.803" transform="translate(127.74 413.363)"/><rect class="h" width="4.163" height="24.595" transform="translate(135.081 408.571)"/></g></g></svg>