<svg xmlns="http://www.w3.org/2000/svg" width="46.757" height="46.324" viewBox="0 0 46.757 46.324"><defs><style>.a{fill:none;}.b{fill:#3b61d5;}.b,.c{stroke:#000;stroke-linecap:round;stroke-linejoin:round;stroke-width:1.5px;}.c{fill:#fff;}</style></defs><g transform="translate(0.757 0.324)"><rect class="a" width="46" height="46" transform="translate(0 0)"/><g transform="translate(0 0.426)"><path class="b" d="M8.209,0h5.009a8.209,8.209,0,0,1,8.209,8.209v3.473a0,0,0,0,1,0,0H0a0,0,0,0,1,0,0V8.209A8.209,8.209,0,0,1,8.209,0Z" transform="translate(3.211)"/><path class="c" d="M148.584,55.309a4.321,4.321,0,0,1-3.21,3.562,7.564,7.564,0,0,1-3.344,5.072v2a5.4,5.4,0,0,1-5.385,5.4h-3.733a5.4,5.4,0,0,1-5.394-5.4V63.933a7.538,7.538,0,0,1-3.344-5.062,4.323,4.323,0,0,1-3.229-3.562c-.788-4.188,3.115-3.628,3.115-3.628v-2.83a5.132,5.132,0,0,1,5.129-5.129h11.17a5.125,5.125,0,0,1,5.129,5.129v2.82C145.782,51.643,149.344,51.292,148.584,55.309Z" transform="translate(-120.84 -37.072)"/><g transform="translate(8.121 15.393)"><circle cx="1.363" cy="1.363" r="1.363"/><circle cx="1.363" cy="1.363" r="1.363" transform="translate(8.881)"/></g></g><g transform="translate(17.195 10.71)"><path class="b" d="M8.209,0h5.009a8.209,8.209,0,0,1,8.209,8.209v3.473a0,0,0,0,1,0,0H0a0,0,0,0,1,0,0V8.209A8.209,8.209,0,0,1,8.209,0Z" transform="translate(3.211)"/><path class="c" d="M165.779,65.593a4.32,4.32,0,0,1-3.21,3.562,7.562,7.562,0,0,1-3.343,5.072v2a5.4,5.4,0,0,1-5.386,5.395h-3.732a5.4,5.4,0,0,1-5.4-5.395V74.217a7.541,7.541,0,0,1-3.344-5.062,4.323,4.323,0,0,1-3.229-3.562c-.788-4.188,3.116-3.628,3.116-3.628v-2.83a5.131,5.131,0,0,1,5.128-5.129h11.17a5.125,5.125,0,0,1,5.129,5.129v2.82C162.977,61.927,166.539,61.576,165.779,65.593Z" transform="translate(-138.035 -47.356)"/><g transform="translate(8.122 15.393)"><circle cx="1.363" cy="1.363" r="1.363"/><circle cx="1.363" cy="1.363" r="1.363" transform="translate(8.881)"/></g><path class="c" d="M149.084,69.772c.273.827,1.457,1.449,2.876,1.449h0a3.018,3.018,0,0,0,2.849-1.374" transform="translate(-138.035 -47.356)"/></g><line class="c" x2="5.081" transform="translate(11.385 23.305)"/></g></svg>