<svg xmlns="http://www.w3.org/2000/svg" xmlns:xlink="http://www.w3.org/1999/xlink" width="27" height="27" viewBox="0 0 27 27"><defs><style>.a{fill:#fff;stroke:#707070;}.b{opacity:0.4;clip-path:url(#a);}</style><clipPath id="a"><rect class="a" width="27" height="27" transform="translate(1517 1367)"/></clipPath></defs><g class="b" transform="translate(-1517 -1367)"><g transform="translate(1517 1367)"><path d="M23.447,6.856V4.089H21.865V6.856H19.895V.881L7.105,3.89V6.856H5.135V4.089H3.553V6.856H0V26.119H27V6.856ZM1.582,24.537V8.438H7.105v16.1Zm12.709,0H12.709V22.955h1.582Zm4.022,0h-2.44V21.373H11.127v3.164H8.687V5.143l9.626-2.265V24.537Zm7.105,0H19.895V8.438h5.523Z"/><path d="M10.269,7.134h2.44V8.716h-2.44Z"/><path d="M14.291,7.134h2.44V8.716h-2.44Z"/><path d="M10.269,10.3h2.44v1.582h-2.44Z"/><path d="M14.291,10.3h2.44v1.582h-2.44Z"/><path d="M10.269,13.463h2.44v1.582h-2.44Z"/><path d="M14.291,13.463h2.44v1.582h-2.44Z"/><path d="M10.269,16.627h2.44v1.582h-2.44Z"/><path d="M3.124,10.3h2.44v1.582H3.124Z"/><path d="M3.124,13.463h2.44v1.582H3.124Z"/><path d="M3.124,16.627h2.44v1.582H3.124Z"/><path d="M21.437,10.3h2.44v1.582h-2.44Z"/><path d="M21.437,13.463h2.44v1.582h-2.44Z"/><path d="M21.437,16.627h2.44v1.582h-2.44Z"/><path d="M3.124,19.791h2.44v1.582H3.124Z"/><path d="M21.437,19.791h2.44v1.582h-2.44Z"/><path d="M14.291,16.627h2.44v1.582h-2.44Z"/></g></g></svg>