<svg xmlns="http://www.w3.org/2000/svg" width="46" height="46" viewBox="0 0 46 46"><defs><style>.a{fill:none;}.b{fill:#65b1e3;}.b,.c{stroke:#000;stroke-linecap:round;stroke-linejoin:round;stroke-width:1.5px;}.c{fill:#fff;}</style></defs><g transform="translate(-435.886 -243.31)"><rect class="a" width="46" height="46" transform="translate(481.886 289.31) rotate(-180)"/><path class="b" d="M481.124,283.509a3.824,3.824,0,0,1-3.82,3.821h-9.48a3.825,3.825,0,0,1-2.7-6.53,3.763,3.763,0,0,1,2.37-1.1V275.28l4.4,4.4h5.41A3.828,3.828,0,0,1,481.124,283.509Z"/><path class="c" d="M466.744,269.71h-3.49v2.84a6.308,6.308,0,0,1-6.31,6.3h-4.67V287H442.3V267.21h2.99V254.84h17.96v10.68Z"/><path class="c" d="M446.915,249.1s-10.267,1.484-10.267,11.46S442.3,272.54,442.3,272.54s8.809-1.5,8.809-6.822v-8.48h10.642s6.486-1.284,4.989-11.948l-3.813,3.813Z"/><circle cx="1.651" cy="1.651" r="1.651" transform="translate(455.917 261.762)"/><circle cx="1.651" cy="1.651" r="1.651" transform="translate(466.744 281.795)"/><circle cx="1.651" cy="1.651" r="1.651" transform="translate(471.307 281.795)"/><circle cx="1.651" cy="1.651" r="1.651" transform="translate(475.962 281.795)"/><path class="c" d="M463.085,274.164"/><path class="c" d="M451.089,263.6h-3.01a2.422,2.422,0,0,0-2.422,2.422h0a2.422,2.422,0,0,0,2.422,2.422h3.036Z"/></g></svg>