<svg xmlns="http://www.w3.org/2000/svg" width="46" height="46" viewBox="0 0 46 46"><defs><style>.a,.c{fill:none;}.b{fill:#fff;stroke:#000;}.b,.c{stroke-linecap:round;stroke-linejoin:round;stroke-width:1.5px;}.c{stroke:#3b61d5;}</style></defs><rect class="a" width="46" height="46" transform="translate(0 0)"/><g transform="translate(4.687 2.334)"><path class="b" d="M394.617,247.284s-9.668-.476-13.9,8.767a17.448,17.448,0,0,0-.457,13.556,13.76,13.76,0,0,0,3.574,5.327c4.944,4.411,2.944,13.76,2.944,13.76h15.483v-3.955h1.8a4.794,4.794,0,0,0,4.794-4.794h0s-2.7-1.878-1.348-3.112l1.348-1.233v-2.97h.7a1.793,1.793,0,0,0,1.677-2.427l-1.6-4.228a9.244,9.244,0,0,1-.606-3.747C409.239,258.071,408.4,247.644,394.617,247.284Z" transform="translate(-379.102 -247.28)"/><path class="c" d="M377.334,274.934a5.539,5.539,0,0,1,0,6.059" transform="translate(-344.254 -247.28)"/><path class="c" d="M373.127,272.63s3.693,5.392,0,10.667" transform="translate(-336.549 -247.28)"/><circle cx="1.612" cy="1.612" r="1.612" transform="translate(23.81 15.896)"/></g></svg>