<svg xmlns="http://www.w3.org/2000/svg" width="28" height="28" viewBox="0 0 28 28"><defs><style>.a{fill:#3764b9;}.a,.b,.c,.d{fill-rule:evenodd;}.b{fill:#507dd2;}.c{fill:#1e4ba0;}.d{fill:#fff;}.e{fill:none;}</style></defs><g transform="translate(-1424 -3738)"><g transform="translate(1425.648 3739.648)"><path class="a" d="M12.47,24.94H6.235A6.235,6.235,0,0,1,0,18.705V6.235A6.235,6.235,0,0,1,6.235,0H18.7A6.235,6.235,0,0,1,24.94,6.235V18.7A6.235,6.235,0,0,1,18.7,24.94H16.367a1.948,1.948,0,1,0-3.9,0Z" transform="translate(0 0)"/><path class="b" d="M11.691,7.014H18.7a3.507,3.507,0,0,0,.359-7C18.944.011,18.826,0,18.7,0H6.235A6.235,6.235,0,0,0,0,6.235V18.7A11.691,11.691,0,0,1,11.69,7.014"/><path class="c" d="M38.235,22.235A6.235,6.235,0,1,0,44.47,28.47V16a6.235,6.235,0,0,1-6.235,6.235" transform="translate(-19.53 -9.765)"/><path class="d" d="M34.911,13.117a.779.779,0,0,1-.779.779H31.794a.779.779,0,0,0-.779.779v3.117H33.96a.779.779,0,0,1,.764.932l-.468,2.338a.779.779,0,0,1-.764.627H31.014v9.352h-3.9V21.691H24.779A.779.779,0,0,1,24,20.911V18.573a.779.779,0,0,1,.779-.779h2.338V14.676A4.676,4.676,0,0,1,31.794,10h2.338a.779.779,0,0,1,.779.779Z" transform="translate(-14.648 -6.103)"/></g><rect class="e" width="28" height="28" transform="translate(1424 3738)"/></g></svg>