<svg xmlns="http://www.w3.org/2000/svg" width="46" height="46" viewBox="0 0 46 46"><defs><style>.a{fill:#fff;}.a,.c{stroke:#000;stroke-linecap:round;stroke-linejoin:round;stroke-width:1.5px;}.b{fill:none;}.c{fill:#0069ff;}</style></defs><g transform="translate(-405 -349.576)"><path class="a" d="M446.911,361.242v25.79a2.129,2.129,0,0,1-2.128,2.129H411.462a2.129,2.129,0,0,1-2.128-2.129V357.869a2.128,2.128,0,0,1,2.128-2.128h16.776a2.131,2.131,0,0,1,1.506.623l2.159,2.159a2.128,2.128,0,0,0,1.511.624l11.362-.033A2.128,2.128,0,0,1,446.911,361.242Z"/><rect class="b" width="46" height="46" transform="translate(405 349.576)"/><path class="a" d="M414.433,362.918h18.816a1.358,1.358,0,0,1,1.358,1.358v8.646a1.358,1.358,0,0,0,1.358,1.358h10.946"/><line class="a" y2="5.681" transform="translate(434.94 383.48)"/><line class="a" y2="6.928" transform="translate(418.534 355.99)"/><circle class="a" cx="2.508" cy="2.508" r="2.508" transform="translate(438.5 362.685)"/><line class="a" x1="3.33" transform="translate(443.516 365.193)"/><circle class="c" cx="2.508" cy="2.508" r="2.508" transform="translate(438.5 371.772)"/><line class="a" x1="3.33" transform="translate(443.516 374.28)"/><circle class="a" cx="2.508" cy="2.508" r="2.508" transform="translate(438.567 380.859)"/><line class="a" x1="3.33" transform="translate(443.581 383.367)"/></g></svg>