<svg xmlns="http://www.w3.org/2000/svg" width="16" height="16" viewBox="0 0 16 16"><defs><style>.a{fill:#3b61d5;}</style></defs><g transform="translate(3.035 2.136)"><path class="a" d="M134.047,64.516a.641.641,0,0,0-.906,0l-7.687,7.667-2.773-3.012a.641.641,0,0,0-.943.868l3.225,3.5a.64.64,0,0,0,.458.207h.014a.641.641,0,0,0,.452-.187l8.159-8.138A.641.641,0,0,0,134.047,64.516Z" transform="translate(-121.568 -64.327)"/></g><path class="a" d="M15.4,7.4a.6.6,0,0,0-.6.6A6.794,6.794,0,1,1,8,1.206.6.6,0,1,0,8,0a8,8,0,1,0,8,8A.6.6,0,0,0,15.4,7.4Z"/></svg>