<svg xmlns="http://www.w3.org/2000/svg" width="28" height="28" viewBox="0 0 28 28"><defs><style>.a{opacity:0.4;}.b{fill:none;}</style></defs><g transform="translate(-1378 -3738)"><g class="a" transform="translate(1381 3738)"><path d="M64.629,129.578c-.739-3.709,2.79-5.885,2.79-5.885a6.742,6.742,0,0,0-3.686-2.5,6.438,6.438,0,0,0-4.619.607,5.155,5.155,0,0,1-1.731.481c-1.667,0-2.885-1.76-6.06-.959-2.188.551-4.49,3.07-4.906,6.077a16.447,16.447,0,0,0,2.213,9.82c1.731,2.977,3.495,4.1,4.746,4.128s2.5-.895,4.007-1.12,2.435.545,3.914.96,1.989.03,3.686-1.41,3.241-5.568,3.241-5.568A5.968,5.968,0,0,1,64.629,129.578Z" transform="translate(-46.315 -114.495)"/><path d="M256.03,4.282A5.122,5.122,0,0,0,257.121,0a7.9,7.9,0,0,0-3.867,2.021,5.821,5.821,0,0,0-1.294,4.167A7.286,7.286,0,0,0,256.03,4.282Z" transform="translate(-240.983)"/></g><rect class="b" width="28" height="28" transform="translate(1378 3738)"/></g></svg>