<svg xmlns="http://www.w3.org/2000/svg" xmlns:xlink="http://www.w3.org/1999/xlink" width="40" height="40" viewBox="0 0 40 40">
  <defs>
    <clipPath id="clip-path">
      <rect id="사각형_27308" data-name="사각형 27308" width="40" height="40" transform="translate(276 410)" fill="#fff" stroke="#707070" stroke-width="1"/>
    </clipPath>
    <clipPath id="clip-path-2">
      <rect id="사각형_27307" data-name="사각형 27307" width="33.678" height="32.632" fill="none"/>
    </clipPath>
  </defs>
  <g id="icon_tendency14" transform="translate(-276 -410)" clip-path="url(#clip-path)">
    <g id="그룹_21219" data-name="그룹 21219" transform="translate(279 414)">
      <g id="그룹_21218" data-name="그룹 21218" transform="translate(0 0)" clip-path="url(#clip-path-2)">
        <path id="패스_10693" data-name="패스 10693" d="M28.013,20.242q-1.636-1.62-3.257-3.253-.639-.639-1.279-1.278c-.369-.367-.41-.366-.79.011-.155.153-.3.315-.466.463a3.253,3.253,0,0,1-1.687.9,8.708,8.708,0,0,1-1.8.075,3.463,3.463,0,0,1-2.011-.718c-.329-.257-.341-.26-.647.043-.584.579-1.158,1.168-1.747,1.741a1.8,1.8,0,0,1-2.008.4,1.818,1.818,0,0,1-.606-3.007c1.384-1.391,2.775-2.774,4.158-4.165.108-.108.283-.189.244-.394q-3.286,0-6.572,0a3.015,3.015,0,0,0-.554.042,3.059,3.059,0,0,0-1.578.95,2.279,2.279,0,0,1-1.849.743c-1.65-.068-3.307-.02-4.961-.021-.275,0-.505.056-.54.389a.925.925,0,0,0-.025.357q0,2.87,0,5.741A.668.668,0,0,1,0,19.615v3.42a.872.872,0,0,0,.679.249l5.106,0c-.108-.21-.326-.313-.478-.48a1.535,1.535,0,0,1-.013-2.067c.612-.642,1.243-1.268,1.884-1.882a1.372,1.372,0,0,1,1.088-.375,1.584,1.584,0,0,1,1.366,2.218c-.049.094-.12.21-.019.3s.208.007.309-.024a1.851,1.851,0,0,1,.74-.126,1.6,1.6,0,0,1,1.394,2.09c-.04.14-.182.309-.056.426s.285-.037.43-.069a1.576,1.576,0,0,1,1.633.417,1.519,1.519,0,0,1,.346,1.643c-.023.061-.044.124-.062.187-.051.175,0,.259.19.207.074-.02.144-.052.218-.074a1.6,1.6,0,0,1,2.081,1.879.283.283,0,0,0,0,.222c.326.092.447.43.715.593a2.837,2.837,0,0,0,.226.237,1.61,1.61,0,0,0,1.8.287,1.548,1.548,0,0,0,.945-1.518c0-.238-.12-.447-.121-.717a1.653,1.653,0,0,0,2.021.323,1.7,1.7,0,0,0,.76-2.156c.249.206.451.434.671.644a1.633,1.633,0,0,0,2.231.125,1.587,1.587,0,0,0,.213-2.284c-.042-.055-.1-.106-.077-.193a1.673,1.673,0,0,0,2.19-.79.559.559,0,0,0,.214-.455,1.93,1.93,0,0,0-.617-1.628" transform="translate(0 2.091)" fill="#ffb2aa"/>
        <path id="패스_10694" data-name="패스 10694" d="M26.658,22.477a1.75,1.75,0,0,0-.35-1.911q-2.4-2.39-4.787-4.792c-.161-.162-.252-.138-.394.011-.264.277-.534.552-.822.8a3.262,3.262,0,0,1-2.068.8,6.9,6.9,0,0,1-2.119-.125,2.935,2.935,0,0,1-1.29-.686c-.156-.15-.229-.12-.361.015-.605.618-1.22,1.228-1.834,1.84a1.954,1.954,0,0,1-3.242-.793,1.788,1.788,0,0,1,.453-1.874c1.419-1.433,2.849-2.855,4.274-4.282.084-.084.158-.181.237-.271a3.1,3.1,0,0,1,2.522-.942c1.445.043,2.893.025,4.339.006a2.794,2.794,0,0,1,2.17.9c.415.438.857.848,1.274,1.284a.762.762,0,0,0,.6.254c1.973-.01,3.944-.006,5.917,0,.592,0,.737.145.738.731q0,4.158,0,8.317c0,.559-.156.713-.724.713l-4.536,0" transform="translate(1.758 1.941)" fill="#facda7"/>
        <path id="패스_10695" data-name="패스 10695" d="M5.018,22.113a1.671,1.671,0,0,1-.5-2.662q.892-.9,1.79-1.79a1.663,1.663,0,0,1,2.67.631,1.7,1.7,0,0,1-.194,1.565,1.778,1.778,0,0,1,2.158.207,1.711,1.711,0,0,1,.281,2.124,1.787,1.787,0,0,1,2.1.259,1.669,1.669,0,0,1,.254,2.115,1.8,1.8,0,0,1,2.177.319,1.519,1.519,0,0,1,.32,1.728,1.344,1.344,0,0,1-.4.625q-.763.769-1.532,1.533a1.7,1.7,0,0,1-2.307.27,1.729,1.729,0,0,1-.364-2.334,1.674,1.674,0,0,1-2.307-.345,1.635,1.635,0,0,1-.048-2.041,1.708,1.708,0,0,1-2.457-2.265,2.1,2.1,0,0,1-1.64.061" transform="translate(0.767 3.257)" fill="#facda7"/>
        <path id="패스_10696" data-name="패스 10696" d="M14.626,3.1a.407.407,0,0,1,.383.249c.208.334.426.664.618,1.007a.668.668,0,0,0,.692.388c.272-.021.547,0,.822,0a.383.383,0,0,1,.376.213.366.366,0,0,1-.068.426c-.295.367-.586.737-.893,1.094a.617.617,0,0,0-.137.688c.147.388.257.79.385,1.186.033.1.083.21-.017.3s-.224.063-.337.013c-.451-.2-.9-.394-1.35-.6a1.053,1.053,0,0,0-.947.008c-.423.2-.86.382-1.289.572-.122.055-.253.119-.367.014s-.054-.245-.015-.37c.125-.4.24-.8.381-1.187a.537.537,0,0,0-.1-.576c-.3-.36-.595-.73-.9-1.092a.436.436,0,0,1-.108-.483c.083-.188.256-.216.441-.213.275,0,.549-.012.822,0a.584.584,0,0,0,.587-.329c.209-.36.436-.709.655-1.062a.406.406,0,0,1,.365-.251" transform="translate(2.216 0.585)" fill="#ffad29"/>
        <path id="패스_10697" data-name="패스 10697" d="M14.761.855a2.2,2.2,0,0,1,0,.425.482.482,0,0,1-.5.43.459.459,0,0,1-.488-.4,2.446,2.446,0,0,1-.014-.848A.484.484,0,0,1,14.287,0a.513.513,0,0,1,.479.526c.007.109,0,.219,0,.328h-.007" transform="translate(2.596 0)" fill="#ffad29"/>
        <path id="패스_10698" data-name="패스 10698" d="M17.632,3.113a.516.516,0,0,1-.441-.272.482.482,0,0,1,.046-.554,5.412,5.412,0,0,1,.579-.577.464.464,0,0,1,.606-.015.434.434,0,0,1,.174.574,2.07,2.07,0,0,1-.794.8.594.594,0,0,1-.17.048" transform="translate(3.239 0.3)" fill="#ffad29"/>
        <path id="패스_10699" data-name="패스 10699" d="M10.952,3.112a.521.521,0,0,1-.333-.14c-.181-.174-.364-.346-.532-.533a.481.481,0,0,1,.024-.7.477.477,0,0,1,.678-.006,7.4,7.4,0,0,1,.553.557.446.446,0,0,1,.055.547.536.536,0,0,1-.445.277" transform="translate(1.881 0.301)" fill="#ffad29"/>
      </g>
    </g>
  </g>
</svg>
