<svg xmlns="http://www.w3.org/2000/svg" xmlns:xlink="http://www.w3.org/1999/xlink" width="40" height="40" viewBox="0 0 40 40">
  <defs>
    <clipPath id="clip-path">
      <rect id="사각형_27304" data-name="사각형 27304" width="40" height="40" transform="translate(306 634)" fill="#fff" stroke="#707070" stroke-width="1"/>
    </clipPath>
    <clipPath id="clip-path-2">
      <rect id="사각형_27303" data-name="사각형 27303" width="33.624" height="32.939" fill="#ffaa30"/>
    </clipPath>
  </defs>
  <g id="icon_tendency16" transform="translate(-306 -634)" clip-path="url(#clip-path)">
    <g id="그룹_21211" data-name="그룹 21211" transform="translate(309.188 637.53)">
      <g id="그룹_21210" data-name="그룹 21210" transform="translate(0 0)">
        <g id="그룹_21209" data-name="그룹 21209" clip-path="url(#clip-path-2)">
          <g id="그룹_21215" data-name="그룹 21215" transform="translate(-294.772 -452.531)">
            <circle id="타원_1296" data-name="타원 1296" cx="4" cy="4" r="4" transform="translate(318 462)" fill="#fe5794"/>
            <path id="패스_10676" data-name="패스 10676" d="M131.626,2.762c-.018-.339.251-.54.483-.743s.221-.331-.006-.5a1.942,1.942,0,0,1-.306-.31.733.733,0,0,1,.014-.963A.705.705,0,0,1,132.8.167a3.479,3.479,0,0,1,.442.432c.11.124.184.109.288,0a4.093,4.093,0,0,1,.445-.429.69.69,0,0,1,.93.03.688.688,0,0,1,.1.952,3.712,3.712,0,0,1-.449.475c-.109.1-.132.175,0,.284a3.492,3.492,0,0,1,.409.414.712.712,0,0,1-.048,1.015.737.737,0,0,1-.993-.007c-.182-.158-.343-.44-.535-.459s-.345.3-.527.454a.722.722,0,0,1-.812.134.681.681,0,0,1-.415-.7" transform="translate(188.614 464.236)" fill="#fff"/>
          </g>
          <path id="패스_10677" data-name="패스 10677" d="M19.747,14.109,19.5,14,22.735,6.42l.248.105Z" transform="translate(4.368 2.438)" fill="#ffaa30"/>
          <path id="패스_10678" data-name="패스 10678" d="M25.38,14.109,22.144,6.525l.248-.105L25.628,14Z" transform="translate(4.96 2.438)" fill="#ffaa30"/>
          <g id="그룹_21214" data-name="그룹 21214" transform="translate(-321.846 -457.189)">
            <circle id="타원_1295" data-name="타원 1295" cx="4" cy="4" r="4" transform="translate(323.658 470.658)" fill="#80d261"/>
            <path id="패스_10675" data-name="패스 10675" d="M.7,1.087c.181-.008.339.142.5.3.318.32.32.319.645-.007S2.476.743,2.8.43A.627.627,0,0,1,3.74.379a.641.641,0,0,1-.069.943q-.825.835-1.661,1.66a.627.627,0,0,1-.987,0C.739,2.7.457,2.425.184,2.138a.582.582,0,0,1-.119-.692A.621.621,0,0,1,.7,1.087" transform="translate(325.7 472.953)" fill="#fff"/>
          </g>
          <rect id="사각형_27301" data-name="사각형 27301" width="10.673" height="0.27" transform="translate(1.825 19.729) rotate(-72.305)" fill="#ffaa30"/>
          <rect id="사각형_27302" data-name="사각형 27302" width="0.27" height="10.673" transform="translate(5.065 9.642) rotate(-17.652)" fill="#ffaa30"/>
          <path id="패스_10662" data-name="패스 10662" d="M14.993,2.988a61.912,61.912,0,0,0-8.425,3.76A6.634,6.634,0,0,1,1.2,7.225.9.9,0,0,0,0,8.07V8.1A.915.915,0,0,0,.761,9a8.936,8.936,0,0,0,5.854-.826c2.856-1.712,7-3.284,8.662-3.093S16.8,2.988,16.8,2.988Z" transform="translate(0 1.207)" fill="#ff6d02"/>
          <path id="패스_10663" data-name="패스 10663" d="M15.554,2.988a61.912,61.912,0,0,1,8.425,3.76,6.634,6.634,0,0,0,5.361.48A.917.917,0,1,1,29.785,9a8.936,8.936,0,0,1-5.854-.826c-2.856-1.712-7-3.284-8.662-3.093s-1.524-2.094-1.524-2.094Z" transform="translate(3.078 1.207)" fill="#ff6d02"/>
          <path id="패스_10664" data-name="패스 10664" d="M25.232,26.982h-.016A2.965,2.965,0,0,1,22.649,25.5l-3.321-3.864a4.251,4.251,0,0,0-7.362,0L8.644,25.5a2.964,2.964,0,0,1-2.567,1.482.824.824,0,0,0-.837.75.794.794,0,0,0,.793.836H25.261a.794.794,0,0,0,.778-.95.813.813,0,0,0-.808-.636" transform="translate(1.174 2.844)" fill="#ffaa30"/>
          <path id="패스_10665" data-name="패스 10665" d="M13.923,30.507h0c-.578,0-1.033-.729-.985-1.581l.45-6.361a75.144,75.144,0,0,0,0-10.578l-.45-6.361c-.048-.852.408-1.581.985-1.581s1.033.729.985,1.581l-.45,6.361a75.145,75.145,0,0,0,0,10.578l.45,6.361c.048.852-.408,1.581-.985,1.581" transform="translate(2.897 0.905)" fill="#ffaa30"/>
          <path id="패스_10666" data-name="패스 10666" d="M14.809,2.808a.3.3,0,0,1-.164-.432,3.633,3.633,0,0,0,.562-1.329,1.047,1.047,0,0,0-2.094,0,3.633,3.633,0,0,0,.562,1.329.3.3,0,0,1-.184.438,2.284,2.284,0,1,0,1.318-.006" transform="translate(2.66 0)" fill="#ffbf64"/>
          <path id="패스_10667" data-name="패스 10667" d="M1.124,15.739A.893.893,0,0,0,.18,16.783a5.029,5.029,0,0,0,4.976,3.573,5.028,5.028,0,0,0,4.976-3.573.892.892,0,0,0-.942-1.044Z" transform="translate(0.035 3.525)" fill="#ffaa30"/>
          <path id="패스_10668" data-name="패스 10668" d="M7.595,15.739h-1.1a.864.864,0,0,1,.852,1.044A4.616,4.616,0,0,1,3.4,20.319a4.541,4.541,0,0,0,.551.037,4.62,4.62,0,0,0,4.5-3.573.865.865,0,0,0-.853-1.044" transform="translate(1.722 3.525)" fill="#ff9600"/>
          <path id="패스_10669" data-name="패스 10669" d="M19.519,12.382a.893.893,0,0,0-.944,1.044A5.029,5.029,0,0,0,23.551,17a5.028,5.028,0,0,0,4.976-3.573.892.892,0,0,0-.942-1.044Z" transform="translate(3.677 2.773)" fill="#ffaa30"/>
          <path id="패스_10670" data-name="패스 10670" d="M25.991,12.382h-1.1a.864.864,0,0,1,.852,1.044,4.616,4.616,0,0,1-3.946,3.536,4.541,4.541,0,0,0,.551.037,4.62,4.62,0,0,0,4.5-3.573.865.865,0,0,0-.853-1.044" transform="translate(5.362 2.773)" fill="#ff960e"/>
        </g>
      </g>
    </g>
  </g>
</svg>
