<svg xmlns="http://www.w3.org/2000/svg" xmlns:xlink="http://www.w3.org/1999/xlink" width="40" height="40" viewBox="0 0 40 40">
  <defs>
    <clipPath id="clip-path">
      <rect id="사각형_27246" data-name="사각형 27246" width="40" height="40" transform="translate(168 391)" fill="#fff" stroke="#707070" stroke-width="1"/>
    </clipPath>
    <clipPath id="clip-path-2">
      <rect id="사각형_27245" data-name="사각형 27245" width="29.5" height="29.49" transform="translate(0 0)" fill="none"/>
    </clipPath>
  </defs>
  <g id="icon_tendency02" transform="translate(-168 -391)" clip-path="url(#clip-path)">
    <g id="그룹_21168" data-name="그룹 21168" transform="translate(173 396)">
      <rect id="사각형_27243" data-name="사각형 27243" width="4.698" height="3.16" transform="translate(8.329 18.937) rotate(-45)" fill="#fcd982"/>
      <rect id="사각형_27244" data-name="사각형 27244" width="4.698" height="1.58" transform="translate(9.446 20.054) rotate(-45)" fill="#fbc378"/>
      <g id="그룹_21167" data-name="그룹 21167">
        <g id="그룹_21166" data-name="그룹 21166" clip-path="url(#clip-path-2)">
          <path id="패스_10536" data-name="패스 10536" d="M26.5,17.46a10.228,10.228,0,1,0-14.464,0,10.228,10.228,0,0,0,14.464,0" fill="#fbbf3f"/>
          <path id="패스_10537" data-name="패스 10537" d="M24.155,15.11a8.021,8.021,0,1,0-11.343,0,8.022,8.022,0,0,0,11.343,0" transform="translate(0.789 0.789)" fill="#fff"/>
          <path id="패스_10538" data-name="패스 10538" d="M24.877,15.11A8.02,8.02,0,0,0,18.526,1.447a8.02,8.02,0,0,1,0,15.983,8,8,0,0,0,6.351-2.32" transform="translate(0.067 0.789)" fill="#e1eeff"/>
          <path id="패스_10539" data-name="패스 10539" d="M9.944,22.089,7.411,19.556a.617.617,0,0,1,0-.873l.253-.254a.619.619,0,0,1,.874,0l2.533,2.533a.619.619,0,0,1,0,.874l-.254.253a.617.617,0,0,1-.873,0" fill="#fdeab5"/>
          <path id="패스_10540" data-name="패스 10540" d="M10.944,20.835l-.97-.97a.8.8,0,0,1-1.126,1.127l.969.97a.8.8,0,0,0,1.127-1.127" fill="#fcd982"/>
          <path id="패스_10541" data-name="패스 10541" d="M1.257,28.967l-.734-.734a1.788,1.788,0,0,1,0-2.528l6.1-6.1a.6.6,0,0,1,.844,0l2.419,2.418a.6.6,0,0,1,0,.844l-6.1,6.1a1.789,1.789,0,0,1-2.529,0" fill="#5173ba"/>
          <path id="패스_10542" data-name="패스 10542" d="M9.769,21.914l-.943-.943a.771.771,0,0,1,0,1.089L3.219,27.666a2.306,2.306,0,0,1-2.721.4,2.306,2.306,0,0,0,3.664.542L9.769,23a.77.77,0,0,0,0-1.089" fill="#395b9e"/>
        </g>
      </g>
    </g>
  </g>
</svg>
