<svg id="img_highlight_marker" xmlns="http://www.w3.org/2000/svg" xmlns:xlink="http://www.w3.org/1999/xlink" width="20" height="20" viewBox="0 0 20 20">
  <defs>
    <linearGradient id="linear-gradient" x1="0.863" y1="0.141" x2="0" y2="1" gradientUnits="objectBoundingBox">
      <stop offset="0" stop-color="#21e5db"/>
      <stop offset="1" stop-color="#1379df"/>
    </linearGradient>
  </defs>
  <path id="패스_1902" data-name="패스 1902" d="M4.945,9.95l5.744,6.272a.4.4,0,0,0,.269.11.288.288,0,0,0,.218-.091l.015-.016,7.826-10a.573.573,0,0,0,.125-.35.4.4,0,0,0-.1-.275L14.87,1.05a.324.324,0,0,0-.244-.108.516.516,0,0,0-.337.14l-9.379,8.3-.018.02a.324.324,0,0,0-.075.222.5.5,0,0,0,.1.291l.031.032ZM15.818,6.722a.408.408,0,0,1,.61,0,.5.5,0,0,1,0,.667l-4.154,4.534a.408.408,0,0,1-.61,0,.5.5,0,0,1,0-.667l4.154-4.534ZM13.321,4a.408.408,0,0,1,.61,0,.5.5,0,0,1,0,.667L9.779,9.2a.408.408,0,0,1-.61,0,.5.5,0,0,1,0-.667L13.321,4ZM4.99,18.8l-.968,1.058a.408.408,0,0,1-.378.132L.387,19.6a.463.463,0,0,1-.381-.519A.49.49,0,0,1,.13,18.8h0l2.428-2.652-.174-.19a.5.5,0,0,1,0-.667l.763-.834,0,0,.011-.012a.82.82,0,0,0,.088-.11.9.9,0,0,0,.07-.133,4.776,4.776,0,0,0,.039-1.712h0c-.015-.171-.026-.329-.033-.437a1.956,1.956,0,0,1,.828-1.69,1.519,1.519,0,0,1-.194-.73,1.3,1.3,0,0,1,.324-.9c.021-.023.049-.05.085-.082l9.377-8.3A1.331,1.331,0,0,1,14.626,0a1.141,1.141,0,0,1,.855.384l4.168,4.552a1.378,1.378,0,0,1,.355.94,1.567,1.567,0,0,1-.334.962l-7.826,10c-.024.032-.046.057-.059.071a1.1,1.1,0,0,1-.835.363,1.207,1.207,0,0,1-.662-.208c-.412.5-.828,1-1.548.9-.148-.009-.27-.021-.4-.034v0a3.652,3.652,0,0,0-1.567.044.714.714,0,0,0-.122.076.731.731,0,0,0-.086.08.222.222,0,0,1-.026.03L5.775,19a.408.408,0,0,1-.61,0L4.99,18.8ZM3.3,15.623l.174.19L5.295,17.8l.174.19.47-.514a1.626,1.626,0,0,1,.21-.2,1.718,1.718,0,0,1,.26-.165,4.016,4.016,0,0,1,2-.124v0c.16.016.308.03.391.036l.036,0c.282.041.549-.284.814-.61L4.736,11.055c-.3.29-.6.583-.557.89l0,.037c.008.153.02.286.031.427h0A5.225,5.225,0,0,1,4.1,14.6a1.811,1.811,0,0,1-.151.284,1.628,1.628,0,0,1-.194.242l0,0-.459.5Z" transform="translate(-0.004 0)" fill="url(#linear-gradient)"/>
</svg>
