<svg xmlns="http://www.w3.org/2000/svg" xmlns:xlink="http://www.w3.org/1999/xlink" width="180" height="180" viewBox="0 0 180 180">
  <defs>
    <clipPath id="clip-path">
      <rect id="사각형_27422" data-name="사각형 27422" width="180" height="180" transform="translate(1693 -18856)" fill="#fff"/>
    </clipPath>
  </defs>
  <g id="img_mbti16_entj" transform="translate(-1693 18856)" clip-path="url(#clip-path)">
    <g id="그룹_21266" data-name="그룹 21266" transform="translate(-1.626 -136.999)">
      <path id="패스_10844" data-name="패스 10844" d="M98.72,62.2A22.586,22.586,0,1,0,76.134,84.789,22.587,22.587,0,0,0,98.72,62.2" transform="translate(1683.899 -18693.555)" fill="#f98e00"/>
      <path id="패스_10845" data-name="패스 10845" d="M182.312,35.23a15.019,15.019,0,0,0-28.1-9.384,14.983,14.983,0,0,0-21.064,9.8,14.641,14.641,0,0,0,3.583,28.839h44.74a14.64,14.64,0,0,0,.841-29.256" transform="translate(1676.21 -18692.701)" fill="#f0f6ff"/>
      <path id="패스_10846" data-name="패스 10846" d="M184.051,35.2a14.893,14.893,0,0,0-17.678-17.053A14.913,14.913,0,0,1,178.191,35.2a14.64,14.64,0,0,1-.841,29.256h5.858a14.64,14.64,0,0,0,.843-29.256" transform="translate(1674.472 -18692.701)" fill="#e1edff"/>
      <path id="패스_10847" data-name="패스 10847" d="M42.45,77.372a9.514,9.514,0,0,0-17.8-5.944,9.49,9.49,0,0,0-13.343,6.208,9.275,9.275,0,0,0,2.269,18.269H41.918a9.274,9.274,0,0,0,.532-18.533" transform="translate(1694.831 -18694.604)" fill="#f0f6ff"/>
      <path id="패스_10848" data-name="패스 10848" d="M43.551,77.356a9.432,9.432,0,0,0-11.2-10.8,9.523,9.523,0,0,1,7.612,9.329,9.422,9.422,0,0,1-.126,1.473,9.274,9.274,0,0,1-.532,18.533h3.711a9.274,9.274,0,0,0,.533-18.533" transform="translate(1693.731 -18694.604)" fill="#e1edff"/>
      <path id="패스_10849" data-name="패스 10849" d="M92.792,53.19l12.036-25.328h14.953l21.154,46.263h12.3l26.818,42.518V127.91H40.664V115.874L80.38,53.438Z" transform="translate(1692.094 -18693.006)" fill="#377230"/>
      <path id="패스_10850" data-name="패스 10850" d="M0,132.707H105.488v-6.394L57.546,63.125H50l-14.644,25.2H27.081L0,125.688Z" transform="translate(1697.626 -18697.803)" fill="#418c48"/>
      <path id="패스_10851" data-name="패스 10851" d="M111.668,59.05H101.139a1.88,1.88,0,1,1,0-3.761h10.529a1.88,1.88,0,1,1,0,3.761" transform="translate(1684.123 -18696.736)" fill="#2a7f2c"/>
      <path id="패스_10852" data-name="패스 10852" d="M153.9,83.43H143.368a1.88,1.88,0,1,1,0-3.761H153.9a1.88,1.88,0,1,1,0,3.761" transform="translate(1678.378 -18700.053)" fill="#2a7f2c"/>
      <path id="패스_10853" data-name="패스 10853" d="M51.611,95.511H41.082a1.88,1.88,0,1,1,0-3.761H51.611a1.88,1.88,0,1,1,0,3.761" transform="translate(1692.293 -18701.697)" fill="#2a7f2c"/>
      <path id="패스_10854" data-name="패스 10854" d="M136.651,12.184h-13.8V2.771h13.8l-2.192,4.707Z" transform="translate(1681.18 -18692.109)" fill="#f6737a"/>
      <rect id="사각형_27358" data-name="사각형 27358" width="1.951" height="26.856" transform="translate(1803.016 -18692)" fill="#353535"/>
      <path id="패스_10855" data-name="패스 10855" d="M116.224,6.944,98.973,16.313c-1.538.837-1.96,2.306-2.5,4.2l-3.43,12.133L97.577,34.2l3.876-5,3.263-9.865,8.681-5.275a6.355,6.355,0,0,0,2.828-7.115" transform="translate(1682.349 -18692.271)" fill="#83d9ff"/>
      <path id="패스_10856" data-name="패스 10856" d="M116.224,6.944l-1.991,1.081a6.352,6.352,0,0,1-2.935,4.212l-7.911,4.807a2.454,2.454,0,0,0-1.055,1.325l-1.13,3.416a12.8,12.8,0,0,1-7.3,7.826l-.858,3.034,8.407-3.445,3.263-9.864,8.681-5.276a6.355,6.355,0,0,0,2.828-7.115" transform="translate(1682.349 -18692.271)" fill="#5fc9ed"/>
      <path id="패스_10857" data-name="패스 10857" d="M101.453,30.108l4.968,5.872c.823,1.09,1.539,1.856,1.39,3.055l-3.28,9.062-.913.331-.793-8.074a1.348,1.348,0,0,0-.809-1.107l-8.971-5.693Z" transform="translate(1682.349 -18693.182)" fill="#38627c"/>
      <path id="패스_10858" data-name="패스 10858" d="M92.784,33.553l-.484,8.9a3.931,3.931,0,0,1-.217,1.787L86.361,56.28h3.217l8.6-11.427a4.649,4.649,0,0,0,.731-2.112l2.281-12.633Z" transform="translate(1682.612 -18693.182)" fill="#4f7693"/>
      <path id="패스_10859" data-name="패스 10859" d="M100.906,8.886l1.41,2.755a2.633,2.633,0,0,1-1.143,3.544l-1.09.558A2.633,2.633,0,0,1,96.54,14.6l-1.411-2.754A2.633,2.633,0,0,1,96.271,8.3l1.09-.558a2.634,2.634,0,0,1,3.544,1.143" transform="translate(1682.279 -18692.293)" fill="#fecbaa"/>
    </g>
  </g>
</svg>
