<svg xmlns="http://www.w3.org/2000/svg" xmlns:xlink="http://www.w3.org/1999/xlink" width="180" height="180" viewBox="0 0 180 180">
  <defs>
    <clipPath id="clip-path">
      <rect id="사각형_27421" data-name="사각형 27421" width="180" height="180" transform="translate(1327 -18708)" fill="#fff"/>
    </clipPath>
    <clipPath id="clip-path-2">
      <rect id="사각형_27373" data-name="사각형 27373" width="156.935" height="158.359" fill="none"/>
    </clipPath>
  </defs>
  <g id="img_mbti15_enfj" transform="translate(-1327 18708)" clip-path="url(#clip-path)">
    <g id="그룹_21249" data-name="그룹 21249" transform="translate(1339 -18697)">
      <g id="그룹_21248" data-name="그룹 21248" clip-path="url(#clip-path-2)">
        <path id="패스_10910" data-name="패스 10910" d="M156.354,38.328l-9.466,11.834-5.437,6.8a18.354,18.354,0,0,1-25.8,2.865,18.706,18.706,0,0,1-1.511-1.352l-8.309-8.309V74.793H51.1V50.161l-8.309,8.309a18.352,18.352,0,0,1-27.307-1.513l-5.436-6.8L.58,38.328A2.649,2.649,0,0,1,3.289,34.1l9.494,2.374,1.8-3.6a3.381,3.381,0,0,1,6.407,1.512v7.564l8.21,5.473L45.488,31.14a19.158,19.158,0,0,1,13.547-5.611H97.9a19.161,19.161,0,0,1,13.548,5.611L127.73,47.424l8.21-5.473V34.387a3.382,3.382,0,0,1,6.408-1.512l1.8,3.6,9.494-2.374a2.506,2.506,0,0,1,.639-.079,2.649,2.649,0,0,1,2.07,4.3Z" transform="translate(0 3.207)" fill="#ffceb6"/>
        <path id="패스_10911" data-name="패스 10911" d="M145.767,50.16l-5.436,6.8a18.348,18.348,0,0,1-27.307,1.512l-8.309-8.309V74.792H49.977V50.16L41.668,58.47a18.358,18.358,0,0,1-27.307-1.512l-5.436-6.8,10.948-8.21,8.21,5.474L44.367,31.139a19.152,19.152,0,0,1,13.547-5.61H96.778a19.152,19.152,0,0,1,13.547,5.61l16.284,16.285,8.212-5.474Z" transform="translate(1.121 3.207)" fill="#548aff"/>
        <path id="패스_10912" data-name="패스 10912" d="M84.921,25.529V41.95L71.236,58.371,57.552,41.95V25.529Z" transform="translate(7.231 3.207)" fill="#91c0ff"/>
        <path id="패스_10913" data-name="패스 10913" d="M84.921,41.645l-7.9,9.473-5.789,6.947-5.788-6.947-7.9-9.473L71.236,27.96Z" transform="translate(7.231 3.513)" fill="#7dafff"/>
        <path id="패스_10914" data-name="패스 10914" d="M73.092,37.686,76.144,49.9l-5.788,6.949L64.566,49.9l3.052-12.21Z" transform="translate(8.112 4.735)" fill="#3d3d3d"/>
        <path id="패스_10915" data-name="패스 10915" d="M67.583,38.908l-2.736-5.474,5.473-5.473,5.474,5.473-2.736,5.474Z" transform="translate(8.147 3.513)" fill="#212121"/>
        <path id="패스_10916" data-name="패스 10916" d="M46.833,57.191a1.369,1.369,0,0,1-1.369-1.37V46.244a1.369,1.369,0,0,1,.293-.845l3.763-4.791A1.369,1.369,0,0,1,51.672,42.3L48.2,46.717v9.1a1.369,1.369,0,0,1-1.369,1.37" transform="translate(5.712 5.036)" fill="#33373f"/>
        <path id="패스_10917" data-name="패스 10917" d="M48.238,43.669h0a2.209,2.209,0,0,1,0-3.124l1.23-1.23a2.209,2.209,0,1,1,3.124,3.124l-1.23,1.23a2.209,2.209,0,0,1-3.124,0" transform="translate(5.979 4.858)" fill="#797a7c"/>
        <rect id="사각형_27367" data-name="사각형 27367" width="79.026" height="10.947" transform="translate(39.713 60.859)" fill="#c69b58"/>
        <rect id="사각형_27368" data-name="사각형 27368" width="79.026" height="10.947" transform="translate(39.713 136.465)" fill="#b5884d"/>
        <rect id="사각형_27369" data-name="사각형 27369" width="57.644" height="64.658" transform="translate(50.403 71.806)" fill="#c69b58"/>
        <rect id="사각형_27370" data-name="사각형 27370" width="98.184" height="10.947" transform="translate(30.133 147.412)" fill="#c69b58"/>
        <rect id="사각형_27371" data-name="사각형 27371" width="57.474" height="3.421" transform="translate(50.488 71.807)" fill="#a0753d"/>
        <rect id="사각형_27372" data-name="사각형 27372" width="33.526" height="50.289" transform="translate(62.462 86.175)" fill="#a5763d"/>
        <path id="패스_10918" data-name="패스 10918" d="M71,31.251h0A10.947,10.947,0,0,1,60.053,20.3V12.435a10.947,10.947,0,1,1,21.894,0V20.3A10.947,10.947,0,0,1,71,31.251" transform="translate(7.545 0.187)" fill="#ffceb6"/>
        <path id="패스_10919" data-name="패스 10919" d="M76.494,10.131H58.483A5.065,5.065,0,1,1,58.483,0h18.01a5.065,5.065,0,0,1,0,10.131" transform="translate(6.711)" fill="#3d3d3d"/>
        <path id="패스_10920" data-name="패스 10920" d="M74.418,10.131l5.724,5.216V4.706A4.706,4.706,0,0,0,75.436,0h-.844Z" transform="translate(9.35)" fill="#3d3d3d"/>
      </g>
    </g>
  </g>
</svg>
