<svg xmlns="http://www.w3.org/2000/svg" xmlns:xlink="http://www.w3.org/1999/xlink" width="180" height="180" viewBox="0 0 180 180">
  <defs>
    <clipPath id="clip-path">
      <rect id="사각형_27411" data-name="사각형 27411" width="180" height="180" transform="translate(-934 -18711)" fill="#fff"/>
    </clipPath>
    <clipPath id="clip-path-2">
      <rect id="사각형_27355" data-name="사각형 27355" width="159.052" height="146.181" fill="none"/>
    </clipPath>
  </defs>
  <g id="img_mbti05_istp" transform="translate(934 18711)" clip-path="url(#clip-path)">
    <g id="그룹_21238" data-name="그룹 21238" transform="translate(-924 -18694)">
      <g id="그룹_21237" data-name="그룹 21237" clip-path="url(#clip-path-2)">
        <path id="패스_10782" data-name="패스 10782" d="M158.17,33.47,139.934,51.7,125.46,48.2l-3.5-14.478,18.236-18.232A25.5,25.5,0,0,0,108.6,45.552L80.279,73.878l-48.76,48.76a13.791,13.791,0,0,0,19.5,19.5l37.755-37.755,11-11,28.323-28.327A25.5,25.5,0,0,0,158.17,33.47M42.284,140.682a9.63,9.63,0,1,1,9.63-9.63,9.63,9.63,0,0,1-9.63,9.63" fill="#c4cbce"/>
        <rect id="사각형_27352" data-name="사각형 27352" width="15.563" height="27.58" transform="translate(69.273 84.884) rotate(-45)" fill="#c2c9cc"/>
        <path id="패스_10783" data-name="패스 10783" d="M80.048,85.381,60.175,105.254a3.47,3.47,0,0,0,0,4.9l3.33,3.327a3.466,3.466,0,0,0,4.9,0L88.277,93.61" fill="#94a6ad"/>
        <rect id="사각형_27353" data-name="사각형 27353" width="21.111" height="32.752" transform="translate(54.404 54.926) rotate(-45)" fill="#929596"/>
        <rect id="사각형_27354" data-name="사각형 27354" width="8.161" height="32.752" transform="translate(54.403 54.928) rotate(-45)" fill="#5b6062"/>
        <path id="패스_10784" data-name="패스 10784" d="M90.575,56.437,154.8,120.662a13.972,13.972,0,0,1-.24,19.971,14.126,14.126,0,0,1-19.679-.42L70.84,76.172a2.37,2.37,0,0,1,0-3.354l.726-.727L86.494,57.163l.726-.726a2.371,2.371,0,0,1,3.355,0" fill="#f97b76"/>
        <path id="패스_10785" data-name="패스 10785" d="M140.393,134.7,76.352,70.66a2.37,2.37,0,0,1,0-3.354l-4.786,4.786-.726.726a2.37,2.37,0,0,0,0,3.354l64.042,64.041a14.124,14.124,0,0,0,19.678.42,13.918,13.918,0,0,0,2.613-3.4,14.237,14.237,0,0,1-16.78-2.532" fill="#ed5454"/>
        <path id="패스_10786" data-name="패스 10786" d="M110.29,4.968c-13.644,6.057-29.039,20.071-34.7,29.873L60.264,43.414,50.537,36.6l8.207-18.619.007-.006C62.619,14.108,65.43,11.3,65.735,11,77.22-.489,95.407-3.774,110.29,4.968" fill="#929596"/>
        <path id="패스_10787" data-name="패스 10787" d="M110.29,4.968c-13.644,6.057-29.039,20.071-34.7,29.873L70.255,29.51l-.94-.943,1.209-2.614C77.36,11.22,93.306,1.878,110.29,4.968" fill="#5b6062"/>
        <path id="패스_10788" data-name="패스 10788" d="M29.517,39.923l20.778,5.193,3.571,19.156-.566.85c-3.34-1.664-8.043-.647-11.448,2.758-3.384,3.384-4.409,8.052-2.783,11.387l-.363.166L20.627,75.756,14.356,55.083l.182-.4c3.33,1.568,7.944.531,11.3-2.823,3.41-3.41,4.428-8.128,2.748-11.47Z" fill="#5b6062"/>
        <path id="패스_10789" data-name="패스 10789" d="M14.538,54.688l-.182.4,24.35,24.35.363-.166A6.709,6.709,0,0,0,40.3,81.024L27.626,93.7,0,66.07,12.671,53.4a6.639,6.639,0,0,0,1.867,1.29" fill="#929596"/>
        <path id="패스_10790" data-name="패스 10790" d="M32.923,73.073l-.257.32,7.163,7.163.294-.235a.9.9,0,0,0,.175.7L27.626,93.7,19.5,85.569,32.17,72.9a.915.915,0,0,0,.753.176" fill="#5b6062"/>
        <path id="패스_10791" data-name="패스 10791" d="M49.877,16.193a5.006,5.006,0,0,1,7.083,0l1.785,1.789,11.51,11.526,5.331,5.33,1.908,1.908a5.006,5.006,0,0,1,0,7.08L75.327,46l0,0L60.4,60.921l0,0-5.4,5.4a6.76,6.76,0,0,0-1.7-1.2l.566-.849-24.35-24.35-.932.473a6.725,6.725,0,0,0-1.212-1.7Z" fill="#929596"/>
      </g>
    </g>
  </g>
</svg>
