<svg xmlns="http://www.w3.org/2000/svg" xmlns:xlink="http://www.w3.org/1999/xlink" width="89" height="136.584" viewBox="0 0 89 136.584">
  <defs>
    <filter id="분석_어려움">
      <feOffset dx="1" input="SourceAlpha"/>
      <feGaussianBlur stdDeviation="1" result="blur"/>
      <feFlood flood-opacity="0.161" result="color"/>
      <feComposite operator="out" in="SourceGraphic" in2="blur"/>
      <feComposite operator="in" in="color"/>
      <feComposite operator="in" in2="SourceGraphic"/>
    </filter>
  </defs>
  <g id="img_rank05" transform="translate(0 0)">
    <path id="패스_11726" data-name="패스 11726" d="M44.584,0,0,44.584H13.572L44.584,13.573Z" transform="translate(0)" fill="#fbfbf9"/>
    <path id="패스_11727" data-name="패스 11727" d="M62,0V13.573L93.011,44.584h13.573Z" transform="translate(-17.584)" fill="#b0b0b0"/>
    <path id="패스_11728" data-name="패스 11728" d="M0,62l44.584,44.584V93.012L13.572,62Z" transform="translate(0 -17.584)" fill="#b0b0ae"/>
    <path id="패스_11729" data-name="패스 11729" d="M93.012,62,62,93.012v13.572L106.585,62Z" transform="translate(-17.585 -17.584)" fill="#969698"/>
    <path id="패스_11730" data-name="패스 11730" d="M62,49.886H93.011L62,18.874Z" transform="translate(-17.545 -5.341)" fill="#c4c4c6"/>
    <path id="패스_11731" data-name="패스 11731" d="M49.886,18.874,18.874,49.886H49.886Z" transform="translate(-5.341 -5.341)" fill="#f3f3f5"/>
    <path id="패스_11732" data-name="패스 11732" d="M18.874,62,49.886,93.012V62Z" transform="translate(-5.341 -17.545)" fill="#d3d4cf"/>
    <path id="패스_11733" data-name="패스 11733" d="M62,93.012,93.011,62H62Z" transform="translate(-17.545 -17.545)" fill="#dedede"/>
    <g data-type="innerShadowGroup">
      <text id="분석_어려움-2" data-name="분석
어려움" transform="translate(45.001 109.584)" fill="#999" font-size="17" font-family="SpoqaHanSansNeo-Bold, Spoqa Han Sans Neo" font-weight="700"><tspan x="-15" y="0">분석</tspan><tspan x="-23" y="22">어려움</tspan></text>
      <g transform="matrix(1, 0, 0, 1, 0, 0)" filter="url(#분석_어려움)">
        <text id="분석_어려움-3" data-name="분석
어려움" transform="translate(45 109.58)" fill="#fff" font-size="17" font-family="SpoqaHanSansNeo-Bold, Spoqa Han Sans Neo" font-weight="700"><tspan x="-15" y="0">분석</tspan><tspan x="-23" y="22">어려움</tspan></text>
      </g>
    </g>
  </g>
</svg>
