<svg xmlns="http://www.w3.org/2000/svg" xmlns:xlink="http://www.w3.org/1999/xlink" width="14" height="14" viewBox="0 0 14 14"><defs><style>.a,.c{fill:#7e7e7e;}.a{stroke:#707070;}.b{clip-path:url(#a);}</style><clipPath id="a"><rect class="a" width="14" height="14" transform="translate(50 318)"/></clipPath></defs><g class="b" transform="translate(-50 -318)"><g transform="translate(50.413 319.357)"><ellipse class="c" cx="2.23" cy="2.23" rx="2.23" ry="2.23" transform="translate(4.332)"/><ellipse class="c" cx="1.41" cy="1.41" rx="1.41" ry="1.41" transform="translate(9.663 1.64)"/><ellipse class="c" cx="1.41" cy="1.41" rx="1.41" ry="1.41" transform="translate(0.641 1.64)"/><path class="c" d="M3.439,7.444a2.279,2.279,0,0,0-1.7-.394A1.737,1.737,0,0,0,0,8.779v2.8a.753.753,0,0,0,.754.751c1.795,0,1.579.032,1.579-.077C2.332,10.268,2.1,8.814,3.439,7.444Z" transform="translate(0 -1.718)"/><path class="c" d="M7.612,7.057a3.805,3.805,0,0,0-2.935.695c-1.406,1.126-1.135,2.643-1.135,4.5a.9.9,0,0,0,.9.9c5.41,0,5.626.175,5.946-.536.105-.24.076-.164.076-2.462A3.107,3.107,0,0,0,7.612,7.057Z" transform="translate(-0.441 -1.716)"/><path class="c" d="M12.768,7.049a2.278,2.278,0,0,0-1.7.394c1.332,1.36,1.107,2.715,1.107,4.808,0,.111-.179.077,1.552.077a.78.78,0,0,0,.781-.778V8.779A1.737,1.737,0,0,0,12.768,7.049Z" transform="translate(-1.385 -1.718)"/></g></g></svg>