<svg xmlns="http://www.w3.org/2000/svg" xmlns:xlink="http://www.w3.org/1999/xlink" width="14" height="14" viewBox="0 0 14 14"><defs><style>.a,.c{fill:#fff;}.a{stroke:#fff;}.b{clip-path:url(#a);}</style><clipPath id="a"><rect class="a" width="14" height="14" transform="translate(6382 2188)"/></clipPath></defs><g class="b" transform="translate(-6382 -2188)"><g transform="translate(6382 2188)"><path class="c" d="M7,0a7,7,0,1,0,7,7A7,7,0,0,0,7,0ZM7,13.125A6.125,6.125,0,1,1,13.125,7,6.125,6.125,0,0,1,7,13.125Z"/><path class="c" d="M210.188,176.875a.875.875,0,0,0-.875-.875H208v.875h1.313v4.812h-.875v.875h2.625v-.875h-.875Z" transform="translate(-202.313 -171.188)"/><circle class="c" cx="1" cy="1" r="1" transform="translate(6 2)"/></g></g></svg>