<svg xmlns="http://www.w3.org/2000/svg" xmlns:xlink="http://www.w3.org/1999/xlink" width="14" height="14" viewBox="0 0 14 14"><defs><style>.a{fill:#fff;}.b{clip-path:url(#a);}</style><clipPath id="a"><rect class="a" width="14" height="14" transform="translate(6338 2319)"/></clipPath></defs><g class="b" transform="translate(-6338 -2319)"><g transform="translate(6338 2319)"><path class="a" d="M34.406,362H32v2.461h.843v-.8a6.989,6.989,0,0,0,5.276,2.437,7.108,7.108,0,0,0,1.756-.219l-.205-.795a6.276,6.276,0,0,1-1.551.194A6.176,6.176,0,0,1,33.2,362.82h1.2Z" transform="translate(-31.125 -352.102)"/><path class="a" d="M193.744.82a6.175,6.175,0,0,1,4.917,2.461h-1.219V4.1h2.406V1.641H199v.794a6.923,6.923,0,0,0-7-2.215l.205.795A6.181,6.181,0,0,1,193.744.82Z" transform="translate(-186.75)"/><path class="a" d="M365.087,192.2a6.165,6.165,0,0,1-2.267,6.462v-1.2H362v2.379h2.461V199h-.791a6.945,6.945,0,0,0,2.432-5.25,7.067,7.067,0,0,0-.219-1.75Z" transform="translate(-352.102 -186.75)"/><path class="a" d="M0,39.1a7.067,7.067,0,0,0,.219,1.75l.795-.2a6.166,6.166,0,0,1,2.267-6.463v1.226H4.1V33H1.641v.848h.8A6.933,6.933,0,0,0,0,39.1Z" transform="translate(0 -32.098)"/><path class="a" d="M117.557,124.461a2.373,2.373,0,0,0,0,.461l-.952.55,1.23,2.132.96-.555a2.891,2.891,0,0,0,.391.227v1.108h2.461v-1.108a2.891,2.891,0,0,0,.391-.227l.96.555,1.23-2.132-.952-.55a2.374,2.374,0,0,0,0-.461l.952-.55L123,121.78l-.96.555a2.89,2.89,0,0,0-.391-.227V121h-2.461v1.108a2.891,2.891,0,0,0-.391.227l-.96-.555-1.23,2.132Zm2.871-1a1.231,1.231,0,0,1,0,2.461,1.231,1.231,0,1,1,0-2.461Z" transform="translate(-113.417 -117.691)"/></g><g transform="translate(6315 2319)"><path class="a" d="M34.406,362H32v2.461h.843v-.8a6.989,6.989,0,0,0,5.276,2.437,7.108,7.108,0,0,0,1.756-.219l-.205-.795a6.276,6.276,0,0,1-1.551.194A6.176,6.176,0,0,1,33.2,362.82h1.2Z" transform="translate(-31.125 -352.102)"/><path class="a" d="M193.744.82a6.175,6.175,0,0,1,4.917,2.461h-1.219V4.1h2.406V1.641H199v.794a6.923,6.923,0,0,0-7-2.215l.205.795A6.181,6.181,0,0,1,193.744.82Z" transform="translate(-186.75)"/><path class="a" d="M365.087,192.2a6.165,6.165,0,0,1-2.267,6.462v-1.2H362v2.379h2.461V199h-.791a6.945,6.945,0,0,0,2.432-5.25,7.067,7.067,0,0,0-.219-1.75Z" transform="translate(-352.102 -186.75)"/><path class="a" d="M0,39.1a7.067,7.067,0,0,0,.219,1.75l.795-.2a6.166,6.166,0,0,1,2.267-6.463v1.226H4.1V33H1.641v.848h.8A6.933,6.933,0,0,0,0,39.1Z" transform="translate(0 -32.098)"/><path class="a" d="M117.557,124.461a2.373,2.373,0,0,0,0,.461l-.952.55,1.23,2.132.96-.555a2.891,2.891,0,0,0,.391.227v1.108h2.461v-1.108a2.891,2.891,0,0,0,.391-.227l.96.555,1.23-2.132-.952-.55a2.374,2.374,0,0,0,0-.461l.952-.55L123,121.78l-.96.555a2.89,2.89,0,0,0-.391-.227V121h-2.461v1.108a2.891,2.891,0,0,0-.391.227l-.96-.555-1.23,2.132Zm2.871-1a1.231,1.231,0,0,1,0,2.461,1.231,1.231,0,1,1,0-2.461Z" transform="translate(-113.417 -117.691)"/></g></g></svg>