<svg xmlns="http://www.w3.org/2000/svg" xmlns:xlink="http://www.w3.org/1999/xlink" width="14" height="14" viewBox="0 0 14 14"><defs><style>.a{fill:gray;}.b{clip-path:url(#a);}</style><clipPath id="a"><rect class="a" width="14" height="14" transform="translate(6420 2368)"/></clipPath></defs><g class="b" transform="translate(-6420 -2368)"><g transform="translate(6420 2368)"><path class="a" d="M8.19,2.382H7.78V8.06L4.414,12.624l.33.244A5.809,5.809,0,1,0,8.19,2.382Z"/><path class="a" d="M1.676,3.245a7.779,7.779,0,0,0-.933,1.26,5.809,5.809,0,0,0,.563,6.511,7.387,7.387,0,0,0,1.386,1.251L6.364,7.289Z"/><path class="a" d="M6.546,0A5.652,5.652,0,0,0,4.12.44,5.659,5.659,0,0,0,2.2,1.991L6.546,5.736Z"/></g></g></svg>