<svg xmlns="http://www.w3.org/2000/svg" xmlns:xlink="http://www.w3.org/1999/xlink" width="14" height="14" viewBox="0 0 14 14"><defs><style>.a{fill:gray;}.b{clip-path:url(#a);}.c{fill:none;stroke:gray;stroke-miterlimit:10;}</style><clipPath id="a"><rect class="a" width="14" height="14" transform="translate(6420 2090)"/></clipPath></defs><g class="b" transform="translate(-6420 -2090)"><g transform="translate(5763.32 1729.674)"><g transform="translate(656.68 361)"><ellipse class="a" cx="1.695" cy="1.695" rx="1.695" ry="1.695" transform="translate(0.847)"/><path class="a" d="M658.969,373.819a2.483,2.483,0,0,1-3.495,0,1.522,1.522,0,0,0-.794,1.337V376.8h5.083v-1.641A1.522,1.522,0,0,0,658.969,373.819Z" transform="translate(-654.68 -370.471)"/></g><g transform="translate(665.597 367.326)"><ellipse class="a" cx="1.695" cy="1.695" rx="1.695" ry="1.695" transform="translate(0.847)"/><path class="a" d="M658.969,373.819a2.483,2.483,0,0,1-3.495,0,1.522,1.522,0,0,0-.794,1.337V376.8h5.083v-1.641A1.522,1.522,0,0,0,658.969,373.819Z" transform="translate(-654.68 -370.471)"/></g><path class="c" d="M671.041,393.833a5.551,5.551,0,0,1-5.929-4.1" transform="translate(-6.852 -21.07)"/><path class="c" d="M678.251,366.684a5.553,5.553,0,0,1,6.8,3.985" transform="translate(-16.053 -4.799)"/></g></g></svg>