<svg xmlns="http://www.w3.org/2000/svg" xmlns:xlink="http://www.w3.org/1999/xlink" width="14" height="14" viewBox="0 0 14 14"><defs><style>.a{fill:gray;}.b{clip-path:url(#a);}</style><clipPath id="a"><rect class="a" width="14" height="14" transform="translate(6420 2512)"/></clipPath></defs><g class="b" transform="translate(-6420 -2512)"><g transform="translate(6420 2512)"><path class="a" d="M8.16.82A1.231,1.231,0,0,0,5.84.82H0V2.461H14V.82Z"/><path class="a" d="M361,195h.82v4.1H361Z" transform="translate(-351.129 -189.668)"/><path class="a" d="M31,128.2h5.742v2.516h.82V128.2H43.3V120H31Zm8.2-6.973h2.461v5.742H39.2Zm-3.281,1.641h2.461v4.1H35.922Zm-3.281,1.641H35.1v2.461H32.641Z" transform="translate(-30.152 -116.719)"/><path class="a" d="M241,255h.82v2.461H241Z" transform="translate(-234.41 -248.027)"/><path class="a" d="M121,315h.82v.82H121Z" transform="translate(-117.691 -306.387)"/></g></g></svg>