<svg xmlns="http://www.w3.org/2000/svg" xmlns:xlink="http://www.w3.org/1999/xlink" width="15" height="15" viewBox="0 0 15 15"><defs><style>.a,.c{fill:#fff;}.a{stroke:#fff;}.b{clip-path:url(#a);}</style><clipPath id="a"><rect class="a" width="15" height="15" transform="translate(30 459)"/></clipPath></defs><g class="b" transform="translate(-30 -459)"><g transform="translate(30 460.13)"><path class="c" d="M15,13.61v.205a.206.206,0,0,1-.205.205H.822A.822.822,0,0,1,0,13.2V1.486a.206.206,0,0,1,.205-.205H.411a.206.206,0,0,1,.205.205V13.2a.206.206,0,0,0,.205.206H14.795A.205.205,0,0,1,15,13.61ZM9.32,3.939,6.9,6.013a.206.206,0,0,1-.239.02L4.038,4.46a.206.206,0,0,0-.248.028L1.3,6.875a.2.2,0,0,0-.063.148V9.352a.205.205,0,0,0,.348.148l2.2-2.115a.205.205,0,0,1,.247-.029L7.049,9.147a.205.205,0,0,0,.221-.008l2.455-1.7a.209.209,0,0,1,.065-.03L14.64,6.161a.2.2,0,0,0,.154-.2V2.673a.206.206,0,0,0-.26-.2L9.4,3.9A.208.208,0,0,0,9.32,3.939Zm.415,4.306L7.311,9.938a.206.206,0,0,1-.222.009L4.037,8.157a.206.206,0,0,0-.246.029L1.3,10.574a.2.2,0,0,0-.063.148v1.86a.206.206,0,0,0,.205.205H14.589a.206.206,0,0,0,.205-.205V7.189a.205.205,0,0,0-.257-.2L9.8,8.215A.207.207,0,0,0,9.735,8.245Z" transform="translate(0 -1.281)"/></g></g></svg>