<svg xmlns="http://www.w3.org/2000/svg" xmlns:xlink="http://www.w3.org/1999/xlink" width="63" height="63" viewBox="0 0 63 63">
  <defs>
    <filter id="타원_58" x="0" y="0" width="63" height="63" filterUnits="userSpaceOnUse">
      <feOffset dy="3" input="SourceAlpha"/>
      <feGaussianBlur stdDeviation="3" result="blur"/>
      <feFlood flood-color="#144788" flood-opacity="0.2"/>
      <feComposite operator="in" in2="blur"/>
      <feComposite in="SourceGraphic"/>
    </filter>
  </defs>
  <g id="btn_pdf" transform="translate(-1614 -108)">
    <g transform="matrix(1, 0, 0, 1, 1614, 108)" filter="url(#타원_58)">
      <circle id="타원_58-2" data-name="타원 58" cx="22.5" cy="22.5" r="22.5" transform="translate(9 6)" fill="#fff"/>
    </g>
    <g id="icon_pdf" transform="translate(1636.179 124.386)">
      <g id="그룹_1396" data-name="그룹 1396" transform="translate(0)">
        <g id="그룹_1395" data-name="그룹 1395">
          <path id="패스_1914" data-name="패스 1914" d="M82.276,5.268,77.158.15A.511.511,0,0,0,76.8,0H66.047A2.049,2.049,0,0,0,64,2.047V22.521a2.049,2.049,0,0,0,2.047,2.047H80.379a2.049,2.049,0,0,0,2.047-2.047V5.63A.511.511,0,0,0,82.276,5.268ZM77.308,1.747l3.371,3.371H78.331a1.025,1.025,0,0,1-1.024-1.024ZM81.4,22.521a1.025,1.025,0,0,1-1.024,1.024H66.047a1.025,1.025,0,0,1-1.024-1.024V2.047a1.025,1.025,0,0,1,1.024-1.024H76.284V4.095a2.049,2.049,0,0,0,2.047,2.047H81.4Z" transform="translate(-64 0)" fill="#ff3d3d"/>
          <path id="패스_1915" data-name="패스 1915" d="M136.752,177.5a14.836,14.836,0,0,1-1.224-1.056c-.39-.39-.737-.768-1.039-1.128a11.459,11.459,0,0,0,.677-2.605c0-1.7-.614-2.047-1.535-2.047-.7,0-1.536.364-1.536,2.1a4.908,4.908,0,0,0,1.248,2.769c-.2.619-.441,1.334-.709,2.139-.129.386-.269.744-.417,1.075-.12.053-.237.108-.35.164-.407.2-.793.386-1.152.556-1.634.774-2.714,1.286-2.714,2.3,0,.734.8,1.188,1.535,1.188.952,0,2.389-1.271,3.438-3.412a20.364,20.364,0,0,1,3.513-.948,5.872,5.872,0,0,0,2.261,1.289c1.269,0,1.535-.734,1.535-1.349,0-1.21-1.383-1.21-2.047-1.21A12.137,12.137,0,0,0,136.752,177.5Zm-7.216,4.424a.809.809,0,0,1-.512-.164c0-.363,1.082-.876,2.129-1.372l.2-.1C130.586,181.41,129.826,181.926,129.535,181.926Zm3.583-9.164c0-1.073.333-1.073.512-1.073.362,0,.512,0,.512,1.024a8.207,8.207,0,0,1-.407,1.6A3.145,3.145,0,0,1,133.118,172.762Zm.392,5.5q.048-.133.093-.27c.19-.57.361-1.082.513-1.543q.319.351.687.719c.1.1.334.312.651.582C134.824,177.89,134.152,178.06,133.511,178.264Zm5.75.266c0,.23,0,.325-.475.328a3.774,3.774,0,0,1-.86-.491c.144-.016.251-.024.311-.024C138.993,178.344,139.207,178.417,139.26,178.53Z" transform="translate(-124.929 -162.477)" fill="#ff3d3d"/>
        </g>
      </g>
    </g>
  </g>
</svg>
