<svg xmlns="http://www.w3.org/2000/svg" xmlns:xlink="http://www.w3.org/1999/xlink" width="40" height="40" viewBox="0 0 40 40">
  <defs>
    <clipPath id="clip-path">
      <rect id="사각형_27299" data-name="사각형 27299" width="40" height="40" transform="translate(299.07 419.699)" fill="#501c1c"/>
    </clipPath>
    <clipPath id="clip-path-2">
      <rect id="사각형_27300" data-name="사각형 27300" width="30.856" height="30.301" transform="translate(0 0)" fill="none"/>
    </clipPath>
  </defs>
  <g id="icon_tendency13" transform="translate(-299.07 -419.699)" clip-path="url(#clip-path)">
    <g id="그룹_21208" data-name="그룹 21208" transform="translate(303.642 424.549)">
      <g id="그룹_21207" data-name="그룹 21207" clip-path="url(#clip-path-2)">
        <path id="패스_10655" data-name="패스 10655" d="M29.653,14.924c-.007-.026-.017-.05-.026-.075a9.828,9.828,0,0,0,1.229-4.764A10.227,10.227,0,0,0,20.494,0,10.27,10.27,0,0,0,10.221,8.781a10.729,10.729,0,0,1,1.614-.122A10.226,10.226,0,0,1,22.2,18.744a9.8,9.8,0,0,1-.089,1.3,10.491,10.491,0,0,0,4.032-1.506l3.075.824A1.048,1.048,0,0,0,30.5,18.08Z" fill="#cce0ff"/>
        <path id="패스_10656" data-name="패스 10656" d="M10.362,10.132a10.729,10.729,0,0,0-1.614.122A10.176,10.176,0,0,0,0,20.217a9.827,9.827,0,0,0,1.228,4.764c-.008.025-.018.049-.025.075L.357,28.212A1.048,1.048,0,0,0,1.641,29.5l3.075-.824A10.513,10.513,0,0,0,10.362,30.3a10.27,10.27,0,0,0,10.273-8.784,9.8,9.8,0,0,0,.089-1.3A10.226,10.226,0,0,0,10.362,10.132" fill="#cce0ff"/>
        <path id="패스_10657" data-name="패스 10657" d="M15.856,16.723h-11a.5.5,0,0,1,0-1h11a.5.5,0,1,1,0,1" transform="translate(0.072 0.428)" fill="#6893d6"/>
        <path id="패스_10658" data-name="패스 10658" d="M15.856,20.223h-11a.5.5,0,0,1,0-1h11a.5.5,0,1,1,0,1" transform="translate(0.072 0.928)" fill="#6893d6"/>
        <path id="패스_10659" data-name="패스 10659" d="M11.856,24.223h-7a.5.5,0,0,1,0-1h7a.5.5,0,1,1,0,1" transform="translate(0.072 0.928)" fill="#6893d6"/>
      </g>
    </g>
  </g>
</svg>
