<svg xmlns="http://www.w3.org/2000/svg" xmlns:xlink="http://www.w3.org/1999/xlink" width="40" height="40" viewBox="0 0 40 40">
  <defs>
    <clipPath id="clip-path">
      <rect id="사각형_27286" data-name="사각형 27286" width="40" height="40" transform="translate(316 466)" fill="#fff" stroke="#707070" stroke-width="1"/>
    </clipPath>
    <clipPath id="clip-path-2">
      <rect id="사각형_27285" data-name="사각형 27285" width="26" height="26" transform="translate(0 -0.002)" fill="none"/>
    </clipPath>
  </defs>
  <g id="icon_tendency05" transform="translate(-316 -466)" clip-path="url(#clip-path)">
    <g id="그룹_21191" data-name="그룹 21191" transform="translate(323 473.002)">
      <g id="그룹_21190" data-name="그룹 21190" transform="translate(0 0)" clip-path="url(#clip-path-2)">
        <path id="패스_10623" data-name="패스 10623" d="M23.76,0a1.127,1.127,0,0,1,.38.46c.571,1.131,1.148,2.26,1.721,3.39a1.742,1.742,0,0,1,.112.253.448.448,0,0,1-.223.562.47.47,0,0,1-.62-.158,4.725,4.725,0,0,1-.236-.44L23.685,1.692c-.248.688-.475,1.323-.705,1.956A26.139,26.139,0,0,1,8.458,19.159a25.437,25.437,0,0,1-8,2.066c-.415.039-.415.039-.447-.361-.041-.528-.041-.527.6-.6a25.267,25.267,0,0,0,7.907-2.173A25.225,25.225,0,0,0,22.118,3.214q.308-.861.609-1.722c0-.007-.006-.016-.021-.049l-1.645.81c-.326.161-.653.322-.982.479s-.625.1-.753-.162-.009-.517.333-.687Q21.568.94,23.478,0Z" transform="translate(0 0)" fill="#3a3a3a"/>
        <path id="패스_10624" data-name="패스 10624" d="M19.209,16.808c0-2.658,0-5.316-.007-7.973,0-.248.067-.306.311-.3.931.014,1.861.011,2.792,0,.209,0,.287.038.287.267q-.01,8,0,16c0,.222-.064.276-.282.273-.94-.011-1.88-.013-2.819,0-.246,0-.288-.076-.287-.3q.01-3.987,0-7.973" transform="translate(2.467 0.921)" fill="#4777e2"/>
        <path id="패스_10625" data-name="패스 10625" d="M17.89,19.458c0,1.56,0,3.12.006,4.681,0,.22-.042.3-.287.295-.94-.014-1.881-.01-2.821,0-.194,0-.279-.027-.279-.25q.012-4.723,0-9.444c0-.176.042-.239.232-.237q1.454.013,2.906,0c.205,0,.245.064.245.25-.008,1.57,0,3.139,0,4.709" transform="translate(1.864 1.565)" fill="#4eba53"/>
        <path id="패스_10626" data-name="패스 10626" d="M9.82,20.769c0-1,.008-1.994-.006-2.99,0-.236.073-.29.3-.287q1.41.017,2.82,0c.216,0,.263.062.263.265q-.012,3.046,0,6.092c0,.209-.058.264-.267.261q-1.425-.017-2.848,0c-.216,0-.27-.061-.267-.266.01-1.024,0-2.049,0-3.074" transform="translate(1.261 1.888)" fill="#f5d326"/>
        <path id="패스_10627" data-name="패스 10627" d="M8.5,21.751c0,.618-.007,1.236,0,1.855,0,.2-.036.275-.26.271-.949-.012-1.9-.01-2.847,0-.2,0-.257-.053-.256-.248q.012-1.868,0-3.737c0-.215.074-.261.278-.259q1.408.013,2.819,0c.212,0,.272.06.267.265-.012.618,0,1.236,0,1.855" transform="translate(0.66 2.119)" fill="#f7b841"/>
        <path id="패스_10628" data-name="패스 10628" d="M2.118,23.738c-.478,0-.957-.007-1.435,0-.175,0-.245-.034-.243-.225q.015-1.2,0-2.4c0-.177.061-.213.227-.212q1.451.012,2.9,0c.174,0,.246.033.243.224q-.015,1.2,0,2.405c0,.179-.063.215-.228.212-.487-.009-.976,0-1.464,0" transform="translate(0.057 2.256)" fill="#e83027"/>
      </g>
    </g>
  </g>
</svg>
