<svg width="48" height="48" viewBox="0 0 48 48" fill="none" xmlns="http://www.w3.org/2000/svg">
<circle cx="24" cy="24" r="24" fill="#3D6AD6"/>
<path d="M21.789 25.4428C21.7164 25.4428 20.1935 25.4433 19.4911 25.4426C19.1295 25.4424 19.0004 25.3124 19.0004 24.9485C19 24.0137 18.9997 23.079 19.0004 22.1442C19.0007 21.7849 19.1371 21.6478 19.4941 21.6476C20.1965 21.6471 21.7111 21.6473 21.789 21.6473C21.789 21.5833 21.7888 20.2337 21.789 19.6123C21.7895 18.6934 21.9534 17.8139 22.4202 17.0086C22.8981 16.1844 23.5936 15.6198 24.4849 15.2933C25.0557 15.0841 25.6483 15.0006 26.2541 15.0001C27.012 14.9997 27.7699 15.0004 28.528 15.0018C28.8538 15.0022 28.9983 15.1463 28.999 15.4743C29.0003 16.3536 29.0003 17.2329 28.999 18.112C28.9985 18.4435 28.86 18.5767 28.5268 18.5804C27.9056 18.5871 27.2839 18.5829 26.6633 18.6079C26.0365 18.6079 25.7068 18.914 25.7068 19.5628C25.6918 20.249 25.7006 20.9359 25.7006 21.6471C25.7593 21.6471 27.5431 21.6469 28.3768 21.6471C28.7555 21.6471 28.885 21.7773 28.885 22.1581C28.885 23.0877 28.8847 24.0177 28.884 24.9473C28.8838 25.3226 28.7622 25.4424 28.3812 25.4426C27.5474 25.443 25.7706 25.4428 25.6929 25.4428V32.9674C25.6929 33.3686 25.5667 33.4964 25.1709 33.4964C24.2058 33.4964 23.2405 33.4967 22.2755 33.4964C21.9257 33.4964 21.7892 33.3605 21.7892 33.0107C21.789 30.5601 21.789 25.5288 21.789 25.4428Z" fill="white"/>
</svg>
