<svg xmlns="http://www.w3.org/2000/svg" xmlns:xlink="http://www.w3.org/1999/xlink" width="160" height="180" viewBox="0 0 160 180">
  <defs>
    <clipPath id="clip-path">
      <rect id="사각형_27458" data-name="사각형 27458" width="40" height="40" transform="translate(528 660)" fill="#fff"/>
    </clipPath>
  </defs>
  <g id="img_02" transform="translate(-540 -460)">
    <rect id="사각형_27441" data-name="사각형 27441" width="160" height="180" rx="12" transform="translate(540 460)" fill="#d8dbff" opacity="0.651"/>
    <text id="실전과_똑같은_면접_연습_" data-name="실전과 똑같은
면접 연습!" transform="translate(620 595)" fill="#333" font-size="13" font-family="Pretendard-Medium, Pretendard" font-weight="500" letter-spacing="-0.045em"><tspan x="-33" y="0">실전과 똑같은</tspan><tspan x="-24" y="18">면접 연습!</tspan></text>
    <text id="AI_모의면접" data-name="AI 모의면접" transform="translate(620 499)" fill="#211049" font-size="15" font-family="GmarketSansBold, Gmarket Sans" letter-spacing="-0.045em"><tspan x="-37" y="0">AI </tspan><tspan y="0" fill="#814eff">모의</tspan><tspan y="0">면접</tspan></text>
    <g id="마스크_그룹_388" data-name="마스크 그룹 388" transform="translate(72 -138)" clip-path="url(#clip-path)">
      <g id="online-education" transform="translate(528 660)">
        <g id="그룹_21367" data-name="그룹 21367">
          <g id="그룹_21354" data-name="그룹 21354">
            <g id="그룹_21353" data-name="그룹 21353">
              <g id="그룹_21352" data-name="그룹 21352">
                <path id="패스_10958" data-name="패스 10958" d="M37.714,19.557h-13.9a.594.594,0,0,1-.4-1.032l3.22-2.949V11.587A2.289,2.289,0,0,1,28.919,9.3h8.794A2.288,2.288,0,0,1,40,11.587V17.27A2.288,2.288,0,0,1,37.714,19.557Zm-12.369-1.19H37.714a1.1,1.1,0,0,0,1.1-1.1V11.587a1.1,1.1,0,0,0-1.1-1.1H28.919a1.1,1.1,0,0,0-1.1,1.1v4.251a.594.594,0,0,1-.192.438Z"/>
              </g>
            </g>
          </g>
          <g id="그룹_21356" data-name="그룹 21356">
            <g id="그룹_21355" data-name="그룹 21355">
              <path id="패스_10959" data-name="패스 10959" d="M19.728,8.866H18.366a.594.594,0,1,1,0-1.188h1.362a.594.594,0,0,1,0,1.188Z"/>
            </g>
          </g>
          <g id="그룹_21358" data-name="그룹 21358">
            <g id="그룹_21357" data-name="그룹 21357">
              <path id="패스_10960" data-name="패스 10960" d="M35.535,34.57H2.559A2.561,2.561,0,0,1,0,32.012V30.8A.594.594,0,0,1,.594,30.2H17.7a.594.594,0,0,1,0,1.188H1.188v.619a1.372,1.372,0,0,0,1.37,1.37H35.535a1.372,1.372,0,0,0,1.37-1.37v-.619H20.39a.594.594,0,0,1,0-1.188H37.5a.594.594,0,0,1,.594.594v1.215a2.563,2.563,0,0,1-2.56,2.559Z"/>
            </g>
          </g>
          <g id="그룹_21360" data-name="그룹 21360">
            <g id="그룹_21359" data-name="그룹 21359">
              <path id="패스_10961" data-name="패스 10961" d="M17.7,31.391H2.586a.594.594,0,0,1-.594-.594V7.99A2.562,2.562,0,0,1,4.551,5.43H33.543A2.561,2.561,0,0,1,36.1,7.99v1.9a.594.594,0,1,1-1.188,0V7.99a1.372,1.372,0,0,0-1.37-1.37H4.551A1.372,1.372,0,0,0,3.18,7.99V30.2H17.7a.594.594,0,1,1,0,1.188Z"/>
            </g>
          </g>
          <g id="그룹_21362" data-name="그룹 21362">
            <g id="그룹_21361" data-name="그룹 21361">
              <path id="패스_10962" data-name="패스 10962" d="M35.507,31.391H20.39a.594.594,0,1,1,0-1.188H34.913V18.962a.594.594,0,1,1,1.188,0V30.8A.6.6,0,0,1,35.507,31.391Z"/>
            </g>
          </g>
          <g id="그룹_21364" data-name="그룹 21364">
            <g id="그룹_21363" data-name="그룹 21363">
              <path id="패스_10963" data-name="패스 10963" d="M19.046,32.734A1.939,1.939,0,0,1,17.109,30.8a.594.594,0,1,1,1.188,0,.748.748,0,1,0,1.5,0,.594.594,0,1,1,1.188,0,1.938,1.938,0,0,1-1.937,1.938Z"/>
            </g>
          </g>
          <g id="그룹_21366" data-name="그룹 21366">
            <g id="그룹_21365" data-name="그룹 21365">
              <path id="패스_10964" data-name="패스 10964" d="M24.769,27.1a.594.594,0,0,1-.594-.594v-2.64a.412.412,0,0,0-.019-.125c-.006-.019-.01-.036-.015-.055-.165-.783-.9-2.607-4.13-2.607h-.83a.6.6,0,0,1-.135-.016.6.6,0,0,1-.135.016h-.83c-3.231,0-3.965,1.823-4.13,2.607,0,.019-.009.038-.015.055a.4.4,0,0,0-.019.125v2.64a.594.594,0,0,1-1.188,0v-2.64a1.574,1.574,0,0,1,.066-.451,4.448,4.448,0,0,1,3.865-3.408,2.9,2.9,0,0,1-.654-1.835V16a2.909,2.909,0,0,1,2.907-2.907h.269A2.909,2.909,0,0,1,22.088,16v2.174a2.891,2.891,0,0,1-.654,1.835A4.452,4.452,0,0,1,25.3,23.414a1.581,1.581,0,0,1,.064.451v2.64a.592.592,0,0,1-.594.594ZM18.912,14.279A1.72,1.72,0,0,0,17.194,16V18.17a1.719,1.719,0,0,0,1.718,1.717.6.6,0,0,1,.135.016.6.6,0,0,1,.135-.016A1.72,1.72,0,0,0,20.9,18.17V16a1.719,1.719,0,0,0-1.718-1.717h-.271Z"/>
            </g>
          </g>
        </g>
      </g>
    </g>
  </g>
</svg>
