<svg id="bg_section01" xmlns="http://www.w3.org/2000/svg" xmlns:xlink="http://www.w3.org/1999/xlink" width="809" height="685" viewBox="0 0 809 685">
  <g id="img_section01" transform="translate(0 0)">
    <g id="그룹_21350" data-name="그룹 21350" clip-path="url(#clip-path)">
      <path id="패스_10816" data-name="패스 10816" d="M631.183,514.661c-47.1,60.009-116.083,102.448-190.9,117.4-53.585,10.724-100.93,27.927-153.27,27.049a218.383,218.383,0,0,1-25.054-1.848c-60.173-7.961-117.236-36.712-160.078-79.646a269.257,269.257,0,0,1-27.8-32.649C30.2,484.135,27.034,404.673,26.21,329.658c-.877-77.761,30.38-155.375,84.88-210.845C165.572,63.361,242.637,30.749,320.4,30.236c86.8-.567,180.795,4.209,252.717,52.835,71.9,48.626,122.561,130.01,127.191,216.683,4.081,76.168-22.032,154.9-69.122,214.908" transform="translate(21.742 25.065)" fill="#d8dbff"/>
      <path id="패스_10817" data-name="패스 10817" d="M500.111,449.24H282.123a13.842,13.842,0,0,1-13.638-16.211L333.827,56.8a19.978,19.978,0,0,1,19.684-16.562H571.5a13.84,13.84,0,0,1,13.638,16.209L519.8,432.679a19.978,19.978,0,0,1-19.684,16.56" transform="translate(222.695 33.397)" fill="#2a2a59"/>
      <path id="패스_10818" data-name="패스 10818" d="M466.114,46.843h0A24.683,24.683,0,0,1,441.8,67.3h-2.643a17.471,17.471,0,0,1-17.212-20.46H336.979L274.617,405.931H495.2L557.564,46.843Z" transform="translate(227.957 38.884)" fill="#060305"/>
      <path id="패스_10819" data-name="패스 10819" d="M377.239,51.317a7.253,7.253,0,1,0-7.253,7.253,7.252,7.252,0,0,0,7.253-7.253" transform="translate(301.102 36.577)" fill="#875aff"/>
      <line id="선_404" data-name="선 404" x1="71.388" y2="409.007" transform="translate(724.746 73.63)" fill="none" stroke="#060305" stroke-linecap="round" stroke-linejoin="round" stroke-width="1"/>
      <path id="패스_10820" data-name="패스 10820" d="M325.136,253.926q18.5.154,37,.309" transform="translate(269.892 210.782)" fill="none" stroke="#060305" stroke-linecap="round" stroke-linejoin="round" stroke-width="1"/>
      <path id="패스_10821" data-name="패스 10821" d="M442.762,17.422H168.288V78.465H386.355L397.4,97.6l11.046-19.134h34.314Z" transform="translate(139.695 14.462)" fill="#f6921e"/>
      <path id="패스_10822" data-name="패스 10822" d="M114.816,71.946H389.29v61.043H171.223l-11.048,19.134L149.13,132.988H114.816Z" transform="translate(95.308 59.721)" fill="#fff"/>
      <path id="패스_10823" data-name="패스 10823" d="M247.914,325.891l18.165,10.488V315.4Z" transform="translate(205.791 261.813)" fill="#814eff"/>
      <path id="패스_10824" data-name="패스 10824" d="M402.23,287.527l-10.488,18.165h20.976Z" transform="translate(325.181 238.673)" fill="#814eff"/>
      <path id="패스_10825" data-name="패스 10825" d="M32.074,107.421,42.562,89.256H21.585Z" transform="translate(17.918 74.09)" fill="#814eff"/>
      <path id="패스_10826" data-name="패스 10826" d="M208.431,278.593a2.913,2.913,0,1,0-2.912,2.912,2.911,2.911,0,0,0,2.912-2.912" transform="translate(168.181 228.84)" fill="#814eff"/>
      <path id="패스_10827" data-name="패스 10827" d="M228.632,271.593a2.913,2.913,0,1,0-2.912,2.912,2.911,2.911,0,0,0,2.912-2.912" transform="translate(184.95 223.03)" fill="#814eff"/>
      <path id="패스_10828" data-name="패스 10828" d="M203.05,333.475a2.913,2.913,0,1,0-2.912,2.912,2.911,2.911,0,0,0,2.912-2.912" transform="translate(163.715 274.397)" fill="#814eff"/>
      <path id="패스_10829" data-name="패스 10829" d="M330.574,278.593a2.912,2.912,0,1,0-2.912,2.912,2.911,2.911,0,0,0,2.912-2.912" transform="translate(269.573 228.84)" fill="#814eff"/>
      <path id="패스_10830" data-name="패스 10830" d="M266.805,196.442a2.913,2.913,0,1,0-2.912,2.912,2.911,2.911,0,0,0,2.912-2.912" transform="translate(216.637 160.647)" fill="#814eff"/>
      <path id="패스_10831" data-name="패스 10831" d="M384.94,313.907a2.913,2.913,0,1,0-2.912,2.912,2.912,2.912,0,0,0,2.912-2.912" transform="translate(314.7 258.154)" fill="#814eff"/>
      <path id="패스_10832" data-name="패스 10832" d="M419.958,273.184a2.913,2.913,0,1,0-2.912,2.912,2.911,2.911,0,0,0,2.912-2.912" transform="translate(343.768 224.35)" fill="#814eff"/>
      <path id="패스_10833" data-name="패스 10833" d="M243.805,149.135a2.913,2.913,0,1,0-2.912,2.912,2.912,2.912,0,0,0,2.912-2.912" transform="translate(197.545 121.378)" fill="#814eff"/>
      <path id="패스_10834" data-name="패스 10834" d="M356.953,18.441a2.913,2.913,0,1,0-2.912,2.912,2.911,2.911,0,0,0,2.912-2.912" transform="translate(291.468 12.89)" fill="#814eff"/>
      <path id="패스_10835" data-name="패스 10835" d="M63.427,133.32a2.913,2.913,0,1,0-2.912,2.912,2.911,2.911,0,0,0,2.912-2.912" transform="translate(47.815 108.25)" fill="#814eff"/>
      <path id="패스_10836" data-name="패스 10836" d="M43.953,293.811a2.912,2.912,0,1,0-2.912,2.912,2.911,2.911,0,0,0,2.912-2.912" transform="translate(31.651 241.473)" fill="#814eff"/>
      <path id="패스_10837" data-name="패스 10837" d="M31.549,320.009a2.912,2.912,0,1,0-2.912,2.912,2.911,2.911,0,0,0,2.912-2.912" transform="translate(21.355 263.219)" fill="#814eff"/>
      <path id="패스_10838" data-name="패스 10838" d="M22.3,144.891a2.913,2.913,0,1,0-2.912,2.912,2.911,2.911,0,0,0,2.912-2.912" transform="translate(13.678 117.855)" fill="#814eff"/>
      <path id="패스_10839" data-name="패스 10839" d="M335.206,2.913a2.913,2.913,0,1,0-2.912,2.912,2.911,2.911,0,0,0,2.912-2.912" transform="translate(273.416 0.001)" fill="#814eff"/>
      <path id="패스_10840" data-name="패스 10840" d="M247.511,62.553a2.913,2.913,0,1,0-2.912,2.912,2.911,2.911,0,0,0,2.912-2.912" transform="translate(200.621 49.507)" fill="#814eff"/>
      <path id="패스_10841" data-name="패스 10841" d="M192.648,53.9h0a6.075,6.075,0,0,1-11.566,0,6.074,6.074,0,0,0-11.564,0,6.074,6.074,0,0,1-11.564,0,6.075,6.075,0,0,0-11.566,0,6.074,6.074,0,0,1-11.564,0,6.075,6.075,0,0,0-11.566,0,6.074,6.074,0,0,1-11.564,0,6.075,6.075,0,0,0-11.566,0,6.074,6.074,0,0,1-11.564,0,6.075,6.075,0,0,0-11.566,0" transform="translate(63.913 41.244)" fill="none" stroke="#060305" stroke-linecap="round" stroke-linejoin="round" stroke-width="1"/>
      <path id="패스_10842" data-name="패스 10842" d="M408.654,319.007h0a6.075,6.075,0,0,1-11.566,0,6.074,6.074,0,0,0-11.564,0,6.074,6.074,0,0,1-11.564,0,6.075,6.075,0,0,0-11.566,0,6.074,6.074,0,0,1-11.564,0,6.075,6.075,0,0,0-11.566,0,6.074,6.074,0,0,1-11.564,0,6.075,6.075,0,0,0-11.566,0,6.074,6.074,0,0,1-11.564,0,6.075,6.075,0,0,0-11.566,0" transform="translate(243.217 261.307)" fill="none" stroke="#060305" stroke-linecap="round" stroke-linejoin="round" stroke-width="1"/>
      <path id="패스_10843" data-name="패스 10843" d="M279.137,126.2h0a6.075,6.075,0,0,1-11.566,0,6.074,6.074,0,0,0-11.564,0,6.074,6.074,0,0,1-11.564,0,6.075,6.075,0,0,0-11.566,0,6.075,6.075,0,0,1-11.566,0,6.074,6.074,0,0,0-11.564,0,6.074,6.074,0,0,1-11.564,0,6.075,6.075,0,0,0-11.566,0,6.074,6.074,0,0,1-11.564,0,6.075,6.075,0,0,0-11.566,0" transform="translate(135.707 101.261)" fill="none" stroke="#060305" stroke-linecap="round" stroke-linejoin="round" stroke-width="1"/>
      <path id="패스_10844" data-name="패스 10844" d="M269.553,206.736c-12.64-14.542-31.108-22.393-48.907-29.774l-24.106,69.523q8.386,3.58,16.773,7.156c-23.407,22.305-44.365,46.784-61.791,74.018,5.2,15.843,10.871,31.015,18.727,45.727,7.459.761,14.716,2.05,22.177,2.811,3.935-5.348,7.275-10.3,11.209-15.644-3-2.679-9.139-.339-10.492,3.446-.558-2.6-.921-5.752-1.481-8.351,26.364-18.219,50.93-39.7,73.8-62.148a65.922,65.922,0,0,0,19.375-42.95,63.253,63.253,0,0,0-15.281-43.814" transform="translate(125.776 146.895)" fill="#ff9a7d"/>
      <path id="패스_10845" data-name="패스 10845" d="M185.046,221.475q3.091-2.847,6.184-5.692" transform="translate(153.605 179.119)" fill="none" stroke="#060305" stroke-linecap="round" stroke-linejoin="round" stroke-width="1"/>
      <path id="패스_10846" data-name="패스 10846" d="M172.679,270.262q.818,4.565,1.632,9.13" transform="translate(143.339 224.342)" fill="none" stroke="#060305" stroke-linecap="round" stroke-linejoin="round" stroke-width="1"/>
      <path id="패스_10847" data-name="패스 10847" d="M252.687,482.417a218.414,218.414,0,0,1-25.054-1.848C167.46,472.608,110.4,443.857,67.555,400.923a448.446,448.446,0,0,1,21.6-140.148c47.088-18.96,100.033-23.736,148.658-9.279a810.943,810.943,0,0,1,14.879,230.921" transform="translate(56.071 201.758)" fill="#875aff"/>
      <path id="패스_10848" data-name="패스 10848" d="M127.618,290.816Q133.808,332,140,373.174c2.873,19.124,2.542,37.572-3.371,55.516" transform="translate(105.935 241.404)" fill="none" stroke="#060305" stroke-linecap="round" stroke-linejoin="round" stroke-width="1"/>
      <path id="패스_10849" data-name="패스 10849" d="M77.041,263.835q77.649-3.22,155.3-6.442" transform="translate(63.951 213.66)" fill="none" stroke="#060305" stroke-linecap="round" stroke-linejoin="round" stroke-width="1"/>
      <path id="패스_10850" data-name="패스 10850" d="M111.631,260.422a68.448,68.448,0,0,1-35.881,42.8" transform="translate(62.879 216.174)" fill="none" stroke="#060305" stroke-linecap="round" stroke-linejoin="round" stroke-width="1"/>
      <path id="패스_10851" data-name="패스 10851" d="M150.5,258.085q14.876,23.424,29.754,46.847" transform="translate(124.927 214.234)" fill="none" stroke="#060305" stroke-linecap="round" stroke-linejoin="round" stroke-width="1"/>
      <path id="패스_10852" data-name="패스 10852" d="M119.45,287.758c-11.936-8.6-23.6-17.589-35.537-26.187q9.15-7.867,18.3-15.735L40.291,194.9c-9.03,8.863-19.21,17.609-26.89,27.665C5.847,232.454-.047,244.244,0,256.688c.04,10.649,4.478,20.949,10.906,29.437A80.223,80.223,0,0,0,34.547,307.5c27.023,15.455,53.858,33.09,79.706,50.437q-3.6,3.492-7.2,6.984a6.4,6.4,0,0,0-1.779,2.366,1.918,1.918,0,0,0,.712,2.443c2.979-.878,6.658-1.775,9.637-2.655a45.1,45.1,0,0,0-5.58,5.038,5.02,5.02,0,0,0-1.479,2.407,2,2,0,0,0,1.318,2.322c10.658-1.678,21.723-3.32,32.382-5,2.906-15.806,5.714-31.624,8.622-47.429-8.1-13.815-18.44-27.3-31.435-36.659" transform="translate(0 161.784)" fill="#ff9a7d"/>
      <path id="패스_10853" data-name="패스 10853" d="M40.437,227.838l11.12,6.588" transform="translate(33.566 189.126)" fill="none" stroke="#060305" stroke-linecap="round" stroke-linejoin="round" stroke-width="1"/>
      <path id="패스_10854" data-name="패스 10854" d="M62.087,283.911l10.2,6.643" transform="translate(51.538 235.672)" fill="none" stroke="#060305" stroke-linecap="round" stroke-linejoin="round" stroke-width="1"/>
      <path id="패스_10855" data-name="패스 10855" d="M62.292,291.438q2.967-2.171,5.937-4.341" transform="translate(51.708 238.317)" fill="none" stroke="#060305" stroke-linecap="round" stroke-linejoin="round" stroke-width="1"/>
      <path id="패스_10856" data-name="패스 10856" d="M341.2,189.5c-27.969-10.616-56.239-20.772-85.906-24.617-21.315-2.762-43-6.008-64.311-8.772a12.848,12.848,0,0,1-11.874,8.3,13.2,13.2,0,0,1-11.936-8.589q-36.461,14.431-72.92,28.861C66.586,195.637,41.343,212.2,16.593,228.7c23.319,18.72,46.762,38.015,70.081,56.735,8.444-5.721,16.681-10.988,25.123-16.709,6.6,23.784,12.082,43.276,18.68,67.06l151.661-7.34c-.128-24.441.071-44.268-.055-68.709,9.165,3.424,19.163,7.3,28.328,10.721,10.344-26.957,20.44-54,30.784-80.956" transform="translate(13.774 129.351)" fill="#fff"/>
      <path id="패스_10857" data-name="패스 10857" d="M90.1,162.269a31.033,31.033,0,0,0,17.631,18.29,29.368,29.368,0,0,0,24.842-1.878,31.513,31.513,0,0,0,14.9-20.748" transform="translate(74.791 131.099)" fill="none" stroke="#060305" stroke-linecap="round" stroke-linejoin="round" stroke-width="1"/>
      <path id="패스_10858" data-name="패스 10858" d="M50.6,175.944a145.627,145.627,0,0,1,33.361,78.245" transform="translate(42.007 146.049)" fill="none" stroke="#060305" stroke-linecap="round" stroke-linejoin="round" stroke-width="1"/>
      <path id="패스_10859" data-name="패스 10859" d="M163.734,254.222q-1.85-45.223-3.7-90.449" transform="translate(132.843 135.946)" fill="none" stroke="#060305" stroke-linecap="round" stroke-linejoin="round" stroke-width="1"/>
      <path id="패스_10860" data-name="패스 10860" d="M22.815,191.794q31.734,29.93,63.466,59.862" transform="translate(18.939 159.206)" fill="none" stroke="#060305" stroke-linecap="round" stroke-linejoin="round" stroke-width="1"/>
      <path id="패스_10861" data-name="패스 10861" d="M199.757,172.853q-11.587,40.864-25.248,81.1" transform="translate(144.858 143.484)" fill="none" stroke="#060305" stroke-linecap="round" stroke-linejoin="round" stroke-width="1"/>
      <path id="패스_10862" data-name="패스 10862" d="M138.382,164.285c-1.98-.221-4.145-.653-6.125-.875.049-3.96-.555-7.655-.505-11.616-10.051-.119-19.291-.361-29.34-.479q-.574,5.938-1.146,11.877c-2.361.99-5.551,2.363-7.911,3.353,3.959,9.641,13.164,16.5,23.564,15.816a23.849,23.849,0,0,0,21.463-18.076" transform="translate(77.492 125.605)" fill="#ff9a7d"/>
      <path id="패스_10863" data-name="패스 10863" d="M99.182,132.56a15.739,15.739,0,0,1,15.742-11.27" transform="translate(82.33 100.671)" fill="none" stroke="#060305" stroke-linecap="round" stroke-linejoin="round" stroke-width="1"/>
      <path id="패스_10864" data-name="패스 10864" d="M94.439,135.676l-3.6-.172" transform="translate(75.406 112.481)" fill="none" stroke="#060305" stroke-linecap="round" stroke-linejoin="round" stroke-width="1"/>
      <path id="패스_10865" data-name="패스 10865" d="M138.848,182.142a19.015,19.015,0,0,0,8.982-18.747c-.342-2.3-1.409-4.579-3.689-5.033-1.4-3.413-3.336-6.76-4.736-10.174a3.366,3.366,0,0,0,.641-6.222,3.2,3.2,0,0,0,1.788-3.746c-.436-1.451-1.991-1.92-3.479-1.625a18.2,18.2,0,0,0-13.8-13.354c-6.629-1.334-14.039,1.883-18.014,7.353a5.271,5.271,0,0,0-5.556.589,5.6,5.6,0,0,0-1.5,5.569,5.694,5.694,0,0,0-5.525,3.08,5.914,5.914,0,0,0,.906,6.393,10.118,10.118,0,0,0,2.529,18.012A28.543,28.543,0,0,0,113.156,182.8c7.663,3.441,18.442,3.585,25.693-.653" transform="translate(75.045 102.051)" fill="#060305"/>
      <path id="패스_10866" data-name="패스 10866" d="M104.511,141.669a11.47,11.47,0,0,0-7.48,1.534,8.785,8.785,0,0,0-4.1,6.31,8.532,8.532,0,0,0,4.824,8.316,9.991,9.991,0,0,0,9.747-.931Z" transform="translate(77.107 117.519)" fill="#ff9a7d"/>
      <path id="패스_10867" data-name="패스 10867" d="M95.434,144.911l5.485,1.016" transform="translate(79.219 120.289)" fill="none" stroke="#060305" stroke-linecap="round" stroke-linejoin="round" stroke-width="1"/>
      <path id="패스_10868" data-name="패스 10868" d="M136.453,152.584c-.445-5.6-2.264-11.707-6.133-15.775-2.76-2.9-6.716-4.077-10.722-4.094a6.63,6.63,0,0,1-3.808,3.75,5.872,5.872,0,0,1-4.978-.569,13.8,13.8,0,0,1-9.952,11.218c1.316,4.028,2.37,8.051,3.686,12.079,8.541-7.051,21.538-10.5,31.908-6.608" transform="translate(83.723 110.166)" fill="#ff9a7d"/>
      <path id="패스_10869" data-name="패스 10869" d="M110.32,141.917a1.83,1.83,0,1,0-1.83,1.83,1.831,1.831,0,0,0,1.83-1.83" transform="translate(88.537 116.285)" fill="#060305"/>
      <path id="패스_10870" data-name="패스 10870" d="M119.387,140.192a1.83,1.83,0,1,0-1.83,1.83,1.831,1.831,0,0,0,1.83-1.83" transform="translate(96.064 114.853)" fill="#060305"/>
      <path id="패스_10871" data-name="패스 10871" d="M115.423,144.989l-4.773-.225a2.429,2.429,0,1,0,4.773.225" transform="translate(91.804 120.167)" fill="#fff"/>
      <path id="패스_10872" data-name="패스 10872" d="M105.79,138.545a4.323,4.323,0,0,1,4.83-1.105" transform="translate(87.815 113.821)" fill="none" stroke="#060305" stroke-linecap="round" stroke-linejoin="round" stroke-width="1"/>
      <path id="패스_10873" data-name="패스 10873" d="M114.066,134.754q1.109-.28,2.214-.562" transform="translate(94.685 111.392)" fill="none" stroke="#060305" stroke-linecap="round" stroke-linejoin="round" stroke-width="1"/>
      <path id="패스_10874" data-name="패스 10874" d="M112.8,138.91q1.482,2.817,2.963,5.635c-.972.342-2.138.961-3.107,1.3" transform="translate(93.513 115.308)" fill="none" stroke="#060305" stroke-linecap="round" stroke-linejoin="round" stroke-width="1"/>
      <path id="패스_10875" data-name="패스 10875" d="M111.214,132.057a5.187,5.187,0,0,1-.269,4.994" transform="translate(92.094 109.619)" fill="none" stroke="#060305" stroke-linecap="round" stroke-linejoin="round" stroke-width="1"/>
      <path id="패스_10876" data-name="패스 10876" d="M344.072,187.369a17.26,17.26,0,0,1-10.851-3.849c-9.784-7.937-26.728-15.781-51.876-8.054a3.883,3.883,0,0,1-2.278-7.425c28.416-8.724,47.8.322,59.048,9.449a9.315,9.315,0,0,0,7.209,2.028,9.21,9.21,0,0,0,6.319-3.845l15.214-21.529a3.883,3.883,0,1,1,6.341,4.482l-15.215,21.531a17.045,17.045,0,0,1-13.91,7.212" transform="translate(229.372 126.59)" fill="#9e97ff"/>
      <path id="패스_10877" data-name="패스 10877" d="M306.69,163.1q-1.543,3.6-3.084,7.194" transform="translate(252.021 135.39)" fill="none" stroke="#060305" stroke-linecap="round" stroke-linejoin="round" stroke-width="1"/>
      <path id="패스_10878" data-name="패스 10878" d="M309.327,165.154q-1.375,3.766-2.751,7.534" transform="translate(254.486 137.093)" fill="none" stroke="#060305" stroke-linecap="round" stroke-linejoin="round" stroke-width="1"/>
      <path id="패스_10879" data-name="패스 10879" d="M311.728,166.654q-.346,3.6-.69,7.194" transform="translate(258.19 138.338)" fill="none" stroke="#060305" stroke-linecap="round" stroke-linejoin="round" stroke-width="1"/>
      <path id="패스_10880" data-name="패스 10880" d="M314.392,167.609l1.131,6.491" transform="translate(260.974 139.131)" fill="none" stroke="#060305" stroke-linecap="round" stroke-linejoin="round" stroke-width="1"/>
      <path id="패스_10881" data-name="패스 10881" d="M317.093,165.907q2.059,3.253,4.12,6.5" transform="translate(263.216 137.718)" fill="none" stroke="#060305" stroke-linecap="round" stroke-linejoin="round" stroke-width="1"/>
      <path id="패스_10882" data-name="패스 10882" d="M319.086,163.548q2.792,2.339,5.582,4.676" transform="translate(264.87 135.76)" fill="none" stroke="#060305" stroke-linecap="round" stroke-linejoin="round" stroke-width="1"/>
      <path id="패스_10883" data-name="패스 10883" d="M270.865,159.466A16.253,16.253,0,0,0,261.7,176.5l14.064-6.614,4.032,8.576-14.064,6.612a16.249,16.249,0,1,0,5.135-25.6" transform="translate(217.094 131.087)" fill="#875aff"/>
      <path id="패스_10884" data-name="패스 10884" d="M270.471,180.688a13.266,13.266,0,0,0,12.7-14.778" transform="translate(224.515 137.72)" fill="none" stroke="#060305" stroke-linecap="round" stroke-linejoin="round" stroke-width="1"/>
      <path id="패스_10885" data-name="패스 10885" d="M393.725,233.8h0c-21.513,4.83-43.095-5.772-50.77-24.94l-19.384-48.4L425.8,137.5l3.166,52.042c1.255,20.61-13.724,39.42-35.237,44.25" transform="translate(268.592 114.14)" fill="#875aff"/>
      <path id="패스_10886" data-name="패스 10886" d="M366.312,199.338a35.594,35.594,0,0,0,23.383-30.429" transform="translate(304.072 140.21)" fill="none" stroke="#fff" stroke-linecap="round" stroke-linejoin="round" stroke-width="1"/>
      <path id="패스_10887" data-name="패스 10887" d="M365.777,155.671a4.464,4.464,0,1,0-3.378,5.335,4.464,4.464,0,0,0,3.378-5.335" transform="translate(296.306 126.326)" fill="#fff"/>
      <path id="패스_10888" data-name="패스 10888" d="M355.272,157.093a6.007,6.007,0,0,1,6.184-6.133" transform="translate(294.899 125.299)" fill="none" stroke="#060305" stroke-linecap="round" stroke-linejoin="round" stroke-width="1"/>
      <path id="패스_10889" data-name="패스 10889" d="M374.364,153.744a4.465,4.465,0,1,0-3.378,5.335,4.465,4.465,0,0,0,3.378-5.335" transform="translate(303.433 124.726)" fill="#f6921e"/>
      <path id="패스_10890" data-name="패스 10890" d="M363.863,154.873a6.253,6.253,0,0,1,7.227-6.089" transform="translate(302.036 123.409)" fill="none" stroke="#060305" stroke-linecap="round" stroke-linejoin="round" stroke-width="1"/>
      <path id="패스_10891" data-name="패스 10891" d="M410.992,220.438a3.884,3.884,0,0,1-3.882-3.8c-.977-47.758-27.762-63.023-28.9-63.651a3.882,3.882,0,0,1,3.7-6.828c1.3.7,31.893,17.781,32.971,70.319a3.881,3.881,0,0,1-3.8,3.96c-.026,0-.055,0-.081,0" transform="translate(312.272 120.938)" fill="#9e97ff"/>
      <path id="패스_10892" data-name="패스 10892" d="M387.469,162q3.761-1.894,7.523-3.8" transform="translate(321.634 131.323)" fill="none" stroke="#060305" stroke-linecap="round" stroke-linejoin="round" stroke-width="1"/>
      <path id="패스_10893" data-name="패스 10893" d="M388.209,162.861l6.83-2.46" transform="translate(322.249 133.147)" fill="none" stroke="#060305" stroke-linecap="round" stroke-linejoin="round" stroke-width="1"/>
      <path id="패스_10894" data-name="패스 10894" d="M389.316,164.77l6.881-3.018" transform="translate(323.168 134.269)" fill="none" stroke="#060305" stroke-linecap="round" stroke-linejoin="round" stroke-width="1"/>
      <path id="패스_10895" data-name="패스 10895" d="M389.525,166.927q4.112-1.367,8.226-2.732" transform="translate(323.341 136.297)" fill="none" stroke="#060305" stroke-linecap="round" stroke-linejoin="round" stroke-width="1"/>
      <path id="패스_10896" data-name="패스 10896" d="M390.47,168.679l7.877-2.41" transform="translate(324.126 138.018)" fill="none" stroke="#060305" stroke-linecap="round" stroke-linejoin="round" stroke-width="1"/>
      <path id="패스_10897" data-name="패스 10897" d="M384.128,193.339a16.256,16.256,0,0,0,4.246,18.87l6.283-14.218,8.667,3.83-6.283,14.218a16.249,16.249,0,1,0-12.913-22.7" transform="translate(317.708 152.45)" fill="#875aff"/>
      <path id="패스_10898" data-name="패스 10898" d="M393.1,205.309a12.275,12.275,0,0,0,9.661-13.354" transform="translate(326.306 159.34)" fill="none" stroke="#060305" stroke-linecap="round" stroke-linejoin="round" stroke-width="1"/>
      <path id="패스_10899" data-name="패스 10899" d="M346.537,210.105a11.366,11.366,0,0,1,10.68-4.736c4.945.673,8.88,4.537,13.68,5.909a14.555,14.555,0,0,0,16.31-6.9" transform="translate(287.657 169.651)" fill="none" stroke="#fff" stroke-linecap="round" stroke-linejoin="round" stroke-width="1"/>
      <path id="패스_10900" data-name="패스 10900" d="M347.214,220.3c.018-5.025,6.1-8.014,11.083-7.394s9.385,3.5,14.2,4.947,11.032.9,13.488-3.483" transform="translate(288.219 176.661)" fill="none" stroke="#fff" stroke-linecap="round" stroke-linejoin="round" stroke-width="1"/>
      <line id="선_405" data-name="선 405" x1="10.307" y1="7.97" transform="translate(522.392 149.43)" fill="none" stroke="#fff" stroke-linecap="round" stroke-linejoin="round" stroke-width="1"/>
      <path id="패스_10901" data-name="패스 10901" d="M319.5,98.41a15.246,15.246,0,1,0-15.246,15.246A15.247,15.247,0,0,0,319.5,98.41" transform="translate(239.9 69.034)" fill="#875aff"/>
      <path id="패스_10902" data-name="패스 10902" d="M289.719,82.033a4.2,4.2,0,1,0-4.2,4.2,4.195,4.195,0,0,0,4.2-4.2" transform="translate(233.528 64.613)" fill="#875aff"/>
      <path id="패스_10903" data-name="패스 10903" d="M369.352,70.654c-47.857,0-86.655,49.359-86.655,110.246H456c0-60.887-38.8-110.246-86.653-110.246" transform="translate(234.664 58.649)" fill="#9e97ff"/>
      <path id="패스_10904" data-name="패스 10904" d="M295.273,114.48A79.59,79.59,0,0,1,340.6,74.428" transform="translate(245.103 61.782)" fill="none" stroke="#fff" stroke-linecap="round" stroke-linejoin="round" stroke-width="1"/>
      <path id="패스_10905" data-name="패스 10905" d="M309.147,112.223h62.935s-27.594,31.326-62.935,0" transform="translate(256.62 93.155)" fill="#fff"/>
      <path id="패스_10906" data-name="패스 10906" d="M338.094,99.826a9.632,9.632,0,1,0-9.632,9.632,9.632,9.632,0,0,0,9.632-9.632" transform="translate(264.658 74.869)" fill="#875aff"/>
      <path id="패스_10907" data-name="패스 10907" d="M316.5,99.545A16.346,16.346,0,0,1,330.922,87.77" transform="translate(262.726 72.857)" fill="none" stroke="#060305" stroke-linecap="round" stroke-linejoin="round" stroke-width="1"/>
      <path id="패스_10908" data-name="패스 10908" d="M377.073,108.251a15.251,15.251,0,0,0-17.487-23.928s-1.532,17.924,17.487,23.928" transform="translate(298.465 69.034)" fill="#875aff"/>
      <line id="선_406" data-name="선 406" y1="8.204" x2="9.915" transform="translate(675.558 149.431)" fill="none" stroke="#fff" stroke-linecap="round" stroke-linejoin="round" stroke-width="1"/>
      <path id="패스_10909" data-name="패스 10909" d="M382.335,82.121a4.2,4.2,0,1,0-4.2,4.2,4.195,4.195,0,0,0,4.2-4.2" transform="translate(310.408 64.686)" fill="#875aff"/>
    </g>
  </g>
</svg>
