<svg xmlns="http://www.w3.org/2000/svg" xmlns:xlink="http://www.w3.org/1999/xlink" width="63" height="63" viewBox="0 0 63 63">
  <defs>
    <filter id="타원_57" x="0" y="0" width="63" height="63" filterUnits="userSpaceOnUse">
      <feOffset dy="3" input="SourceAlpha"/>
      <feGaussianBlur stdDeviation="3" result="blur"/>
      <feFlood flood-color="#144788" flood-opacity="0.2"/>
      <feComposite operator="in" in2="blur"/>
      <feComposite in="SourceGraphic"/>
    </filter>
  </defs>
  <g id="btn_printer" transform="translate(-1532 -109)">
    <g transform="matrix(1, 0, 0, 1, 1532, 109)" filter="url(#타원_57)">
      <circle id="타원_57-2" data-name="타원 57" cx="22.5" cy="22.5" r="22.5" transform="translate(9 6)" fill="#fff"/>
    </g>
    <g id="icon_printer" transform="translate(1550.413 124.555)">
      <path id="패스_1920" data-name="패스 1920" d="M22.946,18.807h-3.2a.534.534,0,1,1,0-1.067h3.2a1.6,1.6,0,0,0,1.6-1.6V8.668a1.6,1.6,0,0,0-1.6-1.6H2.668a1.6,1.6,0,0,0-1.6,1.6v7.471a1.6,1.6,0,0,0,1.6,1.6h3.2a.534.534,0,1,1,0,1.067h-3.2A2.671,2.671,0,0,1,0,16.139V8.668A2.671,2.671,0,0,1,2.668,6H22.946a2.671,2.671,0,0,1,2.668,2.668v7.471A2.671,2.671,0,0,1,22.946,18.807Z" transform="translate(0 0.404)" fill="#137dde"/>
      <path id="패스_1921" data-name="패스 1921" d="M14.937,21.067h-6.4a.534.534,0,1,1,0-1.067h6.4a.534.534,0,1,1,0,1.067Z" transform="translate(0.538 1.345)" fill="#137dde"/>
      <path id="패스_1922" data-name="패스 1922" d="M14.937,19.067h-6.4a.534.534,0,0,1,0-1.067h6.4a.534.534,0,0,1,0,1.067Z" transform="translate(0.538 1.211)" fill="#137dde"/>
      <path id="패스_1923" data-name="패스 1923" d="M10.668,17.067H8.534a.534.534,0,1,1,0-1.067h2.135a.534.534,0,1,1,0,1.067Z" transform="translate(0.538 1.076)" fill="#137dde"/>
      <path id="패스_1924" data-name="패스 1924" d="M19.408,7.471a.534.534,0,0,1-.534-.534V2.668a1.6,1.6,0,0,0-1.6-1.6H7.668a1.6,1.6,0,0,0-1.6,1.6V6.937A.534.534,0,1,1,5,6.937V2.668A2.671,2.671,0,0,1,7.668,0h9.605a2.671,2.671,0,0,1,2.668,2.668V6.937A.534.534,0,0,1,19.408,7.471Z" transform="translate(0.336)" fill="#137dde"/>
      <path id="패스_1925" data-name="패스 1925" d="M17.273,24.74H7.668A2.671,2.671,0,0,1,5,22.072V13.534A.534.534,0,0,1,5.534,13H19.408a.534.534,0,0,1,.534.534v8.538A2.671,2.671,0,0,1,17.273,24.74ZM6.067,14.067v8a1.6,1.6,0,0,0,1.6,1.6h9.605a1.6,1.6,0,0,0,1.6-1.6v-8Z" transform="translate(0.336 0.874)" fill="#137dde"/>
    </g>
  </g>
</svg>
