<svg xmlns="http://www.w3.org/2000/svg" xmlns:xlink="http://www.w3.org/1999/xlink" width="40" height="40" viewBox="0 0 40 40">
  <defs>
    <clipPath id="clip-path">
      <rect id="사각형_27288" data-name="사각형 27288" width="40" height="40" transform="translate(313 536)" fill="#fff" stroke="#707070" stroke-width="1"/>
    </clipPath>
    <clipPath id="clip-path-2">
      <rect id="사각형_27287" data-name="사각형 27287" width="36" height="36" fill="none"/>
    </clipPath>
  </defs>
  <g id="icon_tendency06" transform="translate(-313 -536)" clip-path="url(#clip-path)">
    <g id="그룹_21193" data-name="그룹 21193" transform="translate(315 537.52)">
      <g id="그룹_21192" data-name="그룹 21192" transform="translate(0 0.48)" clip-path="url(#clip-path-2)">
        <path id="패스_10629" data-name="패스 10629" d="M56.838,50.329c-.254-.2-.525-.387-.775-.6a.489.489,0,0,1-.16-.279,1.51,1.51,0,0,1,.858-1.8.383.383,0,0,0,.084-.063.717.717,0,0,0,.193-1q-.653-1.191-1.33-2.369a.676.676,0,0,0-.947-.315c-.3.124-.588.272-.889.389a.419.419,0,0,1-.313,0c-.977-.53-.975-.533-1.084-1.666,0-.047-.006-.095-.014-.141a.7.7,0,0,0-.718-.632q-1.348-.012-2.7,0a.687.687,0,0,0-.729.692c-.044.34-.073.683-.127,1.022a.435.435,0,0,1-.151.241,1.423,1.423,0,0,1-1.946.127.366.366,0,0,0-.1-.039.672.672,0,0,0-.919.311q-.686,1.193-1.348,2.4a.715.715,0,0,0,.218,1c.246.2.51.368.746.575a.631.631,0,0,1,.172.342,1.432,1.432,0,0,1-.84,1.739.426.426,0,0,0-.084.062.72.72,0,0,0-.211,1q.653,1.191,1.33,2.369a.683.683,0,0,0,.972.322c.287-.121.566-.265.858-.374a.512.512,0,0,1,.345.006,1.439,1.439,0,0,1,1.064,1.6.449.449,0,0,0,.013.105.711.711,0,0,0,.808.723c.807,0,1.614,0,2.421,0,.674,0,.908-.191.932-.891a1.362,1.362,0,0,1,.85-1.427.8.8,0,0,1,.783-.037c.311.169.649.288,1.041.458a2.226,2.226,0,0,0,.54-.454c.472-.785.914-1.59,1.354-2.4a.709.709,0,0,0-.2-1m-6.453,1.11a2.41,2.41,0,0,1-2.411-2.516,2.42,2.42,0,1,1,2.411,2.516" transform="translate(-32.235 -30.998)" fill="#2c2c2c"/>
        <path id="패스_10630" data-name="패스 10630" d="M100.837,82.561l.028.009a13.948,13.948,0,0,1-4.9,7.332c.018-.174.032-.266.036-.359a.691.691,0,0,0-.565-.768.656.656,0,0,0-.782.529q-.217,1-.376,2.021a.664.664,0,0,0,.551.808c.64.143,1.285.269,1.931.386a.668.668,0,0,0,.77-.5.71.71,0,0,0-.426-.862c-.087-.035-.178-.06-.3-.1.072-.068.1-.1.139-.132a15.3,15.3,0,0,0,5.269-8.048.36.36,0,0,1,.182-.253,3.618,3.618,0,0,1-1.556-.061" transform="translate(-69.675 -60.789)" fill="#f6737a"/>
        <path id="패스_10631" data-name="패스 10631" d="M111.913,53a4.036,4.036,0,0,0-.925,7.932,3.618,3.618,0,0,0,1.556.061A4.032,4.032,0,0,0,111.913,53" transform="translate(-79.826 -39.16)" fill="#f6737a"/>
        <path id="패스_10632" data-name="패스 10632" d="M20.034,17.189c-.641-.143-1.285-.269-1.931-.386a.668.668,0,0,0-.77.5.711.711,0,0,0,.426.862c.087.035.178.06.3.1-.071.068-.1.1-.138.132a15.3,15.3,0,0,0-5.269,8.048.607.607,0,0,1-.044.116,3.653,3.653,0,0,1,1.438.033A13.927,13.927,0,0,1,18.9,19.42c-.018.174-.032.266-.036.359a.691.691,0,0,0,.565.768.655.655,0,0,0,.782-.529q.217-1,.377-2.021a.664.664,0,0,0-.551-.808" transform="translate(-9.318 -12.667)" fill="#50a0e2"/>
        <path id="패스_10633" data-name="패스 10633" d="M4.727,53.089a3.667,3.667,0,0,0-1.438-.033,3.969,3.969,0,0,0-3.244,3.39c-.015.063-.029.127-.045.189v.854c.016.045.034.09.048.135A3.947,3.947,0,0,0,3.913,61.05a4.037,4.037,0,0,0,.814-7.961" transform="translate(0 -39.16)" fill="#50a0e2"/>
        <path id="패스_10634" data-name="패스 10634" d="M20.806,94.816c.13,0,.185,0,.241,0,.481.025.788-.189.839-.588a.725.725,0,0,0-.671-.828q-.864-.173-1.729-.34a.67.67,0,0,0-.855.511c-.153.692-.284,1.39-.4,2.09a.684.684,0,0,0,1.322.314c.037-.093.061-.192.108-.34a15.12,15.12,0,0,0,8.416,5.713V99.874a13.731,13.731,0,0,1-7.276-5.058" transform="translate(-13.473 -68.457)" fill="#6aaa4d"/>
        <path id="패스_10635" data-name="패스 10635" d="M56,109v7.513h7.3V109Z" transform="translate(-41.391 -80.134)" fill="#6aaa4d"/>
        <path id="패스_10636" data-name="패스 10636" d="M93.061,17.811a.687.687,0,0,0-.753.433c-.04.1-.068.2-.115.346A15.035,15.035,0,0,0,84,12.94v1.488c2.275.487,6.14,3.217,7,4.99-.061,0-.116,0-.17,0-.5-.028-.806.189-.851.612s.207.711.7.808c.576.114,1.151.232,1.729.341a.645.645,0,0,0,.807-.436c.168-.736.305-1.481.414-2.229a.648.648,0,0,0-.56-.7" transform="translate(-62.087 -9.849)" fill="#f29e3b"/>
        <path id="패스_10637" data-name="패스 10637" d="M56,0V7.513h7.3V0Z" transform="translate(-41.391 -0.381)" fill="#f29e3b"/>
      </g>
    </g>
  </g>
</svg>
