<svg xmlns="http://www.w3.org/2000/svg" xmlns:xlink="http://www.w3.org/1999/xlink" width="16" height="19" viewBox="0 0 16 19">
  <defs>
    <linearGradient id="linear-gradient" x1="0.5" x2="0.5" y2="1" gradientUnits="objectBoundingBox">
      <stop offset="0" stop-color="#bbb3fd"/>
      <stop offset="1" stop-color="#5f4eee"/>
    </linearGradient>
    <filter id="패스_2082" x="0" y="0" width="16" height="19" filterUnits="userSpaceOnUse">
      <feOffset dy="-1" input="SourceAlpha"/>
      <feGaussianBlur stdDeviation="1" result="blur"/>
      <feFlood flood-color="#5e4de8" result="color"/>
      <feComposite operator="out" in="SourceGraphic" in2="blur"/>
      <feComposite operator="in" in="color"/>
      <feComposite operator="in" in2="SourceGraphic"/>
    </filter>
  </defs>
  <g id="img_all_pin" transform="translate(0)">
    <g data-type="innerShadowGroup">
      <path id="패스_2082-2" data-name="패스 2082" d="M50.655,196.513a7.78,7.78,0,0,1,0-11.13,8.094,8.094,0,0,1,11.314,0,7.78,7.78,0,0,1,0,11.13l-5.657,5.565Z" transform="translate(-48.312 -183.078)" fill="url(#linear-gradient)"/>
      <g transform="matrix(1, 0, 0, 1, 0, 0)" filter="url(#패스_2082)">
        <path id="패스_2082-3" data-name="패스 2082" d="M50.655,196.513a7.78,7.78,0,0,1,0-11.13,8.094,8.094,0,0,1,11.314,0,7.78,7.78,0,0,1,0,11.13l-5.657,5.565Z" transform="translate(-48.31 -183.08)" fill="#fff"/>
      </g>
    </g>
    <circle id="타원_233" data-name="타원 233" cx="4.5" cy="4.5" r="4.5" transform="translate(3.518 3.519)" fill="#fff"/>
  </g>
</svg>
