<svg xmlns="http://www.w3.org/2000/svg" xmlns:xlink="http://www.w3.org/1999/xlink" width="110" height="30" viewBox="0 0 110 30">
  <defs>
    <linearGradient id="linear-gradient" x1="-0.015" y1="0.016" x2="0.701" y2="1.015" gradientUnits="objectBoundingBox">
      <stop offset="0" stop-color="#333"/>
      <stop offset="1" stop-color="#444242"/>
    </linearGradient>
    <clipPath id="clip-path">
      <rect id="사각형_26422" data-name="사각형 26422" width="110" height="30" transform="translate(213 1275)" fill="#763434"/>
    </clipPath>
    <clipPath id="clip-path-2">
      <rect id="사각형_26416" data-name="사각형 26416" width="7.141" height="0.586" fill="url(#linear-gradient)"/>
    </clipPath>
    <clipPath id="clip-path-3">
      <rect id="사각형_26418" data-name="사각형 26418" width="7.141" height="0.585" fill="url(#linear-gradient)"/>
    </clipPath>
    <clipPath id="clip-path-4">
      <rect id="사각형_26419" data-name="사각형 26419" width="100" height="28" fill="none"/>
    </clipPath>
  </defs>
  <g id="img_tip" transform="translate(-213 -1275)" clip-path="url(#clip-path)">
    <g id="그룹_20355" data-name="그룹 20355" transform="translate(-60 62.438)">
      <path id="패스_9556" data-name="패스 9556" d="M8.193,4.177a.586.586,0,0,1-.586-.586V.585a.586.586,0,0,1,1.171,0V3.591a.585.585,0,0,1-.585.586" transform="translate(278 1213.562)" fill="#ffaa30"/>
      <path id="패스_9557" data-name="패스 9557" d="M3.031,5.56a.585.585,0,0,1-.507-.293l-1.5-2.6a.586.586,0,0,1,1.014-.586l1.5,2.6a.586.586,0,0,1-.507.878" transform="translate(278 1213.562)" fill="#ffaa30"/>
      <path id="패스_9558" data-name="패스 9558" d="M13.355,5.56a.586.586,0,0,1-.507-.878l1.5-2.6a.586.586,0,0,1,1.014.586l-1.5,2.6a.585.585,0,0,1-.507.293" transform="translate(278 1213.562)" fill="#ffaa30"/>
      <path id="패스_9559" data-name="패스 9559" d="M7.255,5.76A8.265,8.265,0,0,0,3.973,21.028a1.342,1.342,0,0,1,.649,1.145v.005a.065.065,0,0,0,.067.068H11.7a.068.068,0,0,0,.068-.068v-.008a1.337,1.337,0,0,1,.647-1.142A8.255,8.255,0,0,0,7.255,5.76" transform="translate(278 1213.562)" fill="#ffaa30"/>
      <path id="패스_9560" data-name="패스 9560" d="M13.707,10.779a.3.3,0,0,1-.249-.138,6.211,6.211,0,0,0-3.422-2.648.293.293,0,1,1,.174-.559,6.8,6.8,0,0,1,3.746,2.9.293.293,0,0,1-.249.448" transform="translate(278 1213.6)" fill="#fff"/>
      <path id="패스_9561" data-name="패스 9561" d="M9.277,27.876H7.027a1.09,1.09,0,0,1-1.089-1.089v-.081a.08.08,0,0,1,.081-.08h4.347a.08.08,0,0,1,.081.08,1.17,1.17,0,0,1-1.17,1.17" transform="translate(278 1213.686)" fill="#333"/>
      <path id="패스_9562" data-name="패스 9562" d="M4.622,22.687v2.289a1.316,1.316,0,0,0,1.315,1.316h4.511a1.316,1.316,0,0,0,1.315-1.316V22.687a.068.068,0,0,0-.068-.068h-7a.068.068,0,0,0-.068.068" transform="translate(278 1213.686)" fill="#333"/>
      <rect id="사각형_26414" data-name="사각형 26414" width="100" height="28" transform="translate(278 1213.562)" fill="none"/>
      <g id="그룹_20350" data-name="그룹 20350" transform="translate(282.622 1237.021)">
        <g id="그룹_20349" data-name="그룹 20349" clip-path="url(#clip-path-2)">
          <rect id="사각형_26415" data-name="사각형 26415" width="1.898" height="7.126" transform="matrix(0.185, -0.983, 0.983, 0.185, -0.107, 0.566)" fill="url(#linear-gradient)"/>
        </g>
      </g>
      <g id="그룹_20352" data-name="그룹 20352" transform="translate(282.622 1238.141)">
        <g id="그룹_20351" data-name="그룹 20351" clip-path="url(#clip-path-3)">
          <rect id="사각형_26417" data-name="사각형 26417" width="1.897" height="7.126" transform="translate(-0.106 0.565) rotate(-79.33)" fill="url(#linear-gradient)"/>
        </g>
      </g>
      <g id="그룹_20354" data-name="그룹 20354" transform="translate(278 1213.562)">
        <g id="그룹_20353" data-name="그룹 20353" clip-path="url(#clip-path-4)">
          <path id="패스_9563" data-name="패스 9563" d="M10.434,13.127a1.406,1.406,0,0,0-1.4,1.409v.823h-1.7v-.823a1.4,1.4,0,1,0-1.4,1.41h.816v6.215h.584V15.946H9.04v6.215h.583V15.946h.811a1.41,1.41,0,0,0,0-2.819M6.748,15.359H5.932a.822.822,0,1,1,.816-.823Zm3.686,0H9.618v-.823a.816.816,0,1,1,.816.823" transform="translate(-0.013 0.058)" fill="#fff"/>
          <path id="패스_9564" data-name="패스 9564" d="M89.708,27.477H15.441a.763.763,0,0,1,0-1.526H89.708a8.883,8.883,0,0,0,0-17.765H23.8a.763.763,0,0,1,0-1.526h65.9a10.408,10.408,0,0,1,0,20.816" transform="translate(-0.041 0.03)" fill="#ffaa30"/>
          <path id="패스_9565" data-name="패스 9565" d="M31.072,14.271l-2.8,6.628a.769.769,0,0,1-.279.384.674.674,0,0,1-.406.138.646.646,0,0,1-.52-.2.721.721,0,0,1-.169-.483.81.81,0,0,1,.041-.247l3.224-7.8a.833.833,0,0,1,.318-.4.676.676,0,0,1,.46-.118.757.757,0,0,1,.434.137.787.787,0,0,1,.291.386l3.187,7.647a.858.858,0,0,1,.065.311.742.742,0,0,1-.726.77.675.675,0,0,1-.42-.144.927.927,0,0,1-.292-.391L30.7,14.349Zm-2.4,5.036.713-1.5h3.5l.244,1.5Z" transform="translate(-0.074 0.054)" fill="#333"/>
          <path id="패스_9566" data-name="패스 9566" d="M34.193,21.518a.768.768,0,0,1-.478-.163,1.037,1.037,0,0,1-.323-.43l-.647-1.52H29.008l-.647,1.533a.869.869,0,0,1-.311.425.768.768,0,0,1-.463.155A.739.739,0,0,1,27,21.29a.817.817,0,0,1-.192-.546.915.915,0,0,1,.045-.277l3.227-7.811a.945.945,0,0,1,.354-.448.774.774,0,0,1,.518-.135.86.86,0,0,1,.483.154.879.879,0,0,1,.328.432L34.943,20.3a.993.993,0,0,1,.071.351.836.836,0,0,1-.822.866m-1.239-2.112.614,1.443a.831.831,0,0,0,.263.352.579.579,0,0,0,.361.125.644.644,0,0,0,.629-.673.8.8,0,0,0-.057-.278L31.578,12.73a.678.678,0,0,0-.256-.343.654.654,0,0,0-.38-.121h-.01a.583.583,0,0,0-.4.1.747.747,0,0,0-.282.36l-3.224,7.8a.722.722,0,0,0-.033.211.62.62,0,0,0,.146.42.553.553,0,0,0,.446.162.582.582,0,0,0,.35-.119.678.678,0,0,0,.244-.34l.618-1.461h-.277l.8-1.694h.187l1.249-2.955-.2-.478.673-.138-.26.615,1.26,2.956h.735l.276,1.694Zm-.083-.194h.146L32.8,17.9h-.49Zm-3.782,0h3.572L32.105,17.9H29.642Zm-.262,0h.054l.431-1.021Zm.9-1.5h2.3L30.869,15ZM30.83,14.42l.038.088.045-.105Z" transform="translate(-0.074 0.054)" fill="#333"/>
          <path id="패스_9567" data-name="패스 9567" d="M37.667,20.56a.743.743,0,0,1-.246.569.818.818,0,0,1-.571.228.766.766,0,0,1-.8-.8V13.019a.76.76,0,0,1,.232-.569.819.819,0,0,1,.6-.228.78.78,0,0,1,.55.228.753.753,0,0,1,.24.569Z" transform="translate(-0.1 0.054)" fill="#333"/>
          <path id="패스_9568" data-name="패스 9568" d="M36.849,21.453A.872.872,0,0,1,36.2,21.2a.881.881,0,0,1-.246-.636V13.018a.861.861,0,0,1,.26-.637.918.918,0,0,1,.664-.256.872.872,0,0,1,.616.255.849.849,0,0,1,.27.638V20.56a.835.835,0,0,1-.277.639.913.913,0,0,1-.636.254m.027-9.134a.719.719,0,0,0-.53.2.664.664,0,0,0-.2.5V20.56a.671.671,0,0,0,.706.7.716.716,0,0,0,.506-.2.64.64,0,0,0,.215-.5V13.018a.655.655,0,0,0-.209-.5.682.682,0,0,0-.485-.2" transform="translate(-0.099 0.054)" fill="#333"/>
          <path id="패스_9569" data-name="패스 9569" d="M45.9,16.079c0,.709-.234.934-.949.934H42.014c-.715,0-.95-.225-.95-.934V12.86c0-.709.235-.934.95-.934h2.939c.715,0,.949.225.949.934ZM43.4,21.64c-.716,0-.95-.226-.95-.935V18.577c0-.416.346-.607.726-.607s.715.191.715.607v1.576c0,.192.068.259.257.259h4.817c.345,0,.5.281.5.619s-.157.609-.5.609Zm1.106-8.25c0-.191-.067-.259-.256-.259H42.716c-.188,0-.256.068-.256.259V15.55c0,.192.068.259.256.259h1.533c.189,0,.256-.067.256-.259Zm4.715,4.963a.711.711,0,0,1-1.407,0V16.237h-.984c-.345,0-.491-.282-.491-.62s.146-.607.491-.607h.984V13.986h-.984c-.345,0-.491-.282-.491-.619s.146-.608.491-.608h.984v-.867a.711.711,0,0,1,1.407,0Z" transform="translate(-0.114 0.05)" fill="#333"/>
          <path id="패스_9570" data-name="패스 9570" d="M54.729,13.053v.36a1.606,1.606,0,0,0,.683,1.451c.5.406.925.709,1.217.923a.609.609,0,0,1,.113.867.616.616,0,0,1-.872.18c-.2-.146-.66-.484-1.073-.8-.558-.427-.7-.641-.759-.844h-.013c-.055.236-.234.5-.794.923-.413.315-.883.664-1.261.934a.612.612,0,0,1-.861-.191.621.621,0,0,1,.111-.9c.47-.337.894-.642,1.4-1.047a1.612,1.612,0,0,0,.68-1.451v-.4H51.657c-.347,0-.5-.282-.5-.608s.157-.608.5-.608h4.6c.345,0,.5.281.5.608s-.157.608-.5.608Zm4.693,7.731c0,.709-.234.934-.949.934H53.6c-.715,0-.95-.225-.95-.934V17.926a.71.71,0,0,1,1.4,0v.742h3.978v-.742a.619.619,0,0,1,.691-.586c.359,0,.7.191.7.586Zm-1.653-.224c.19,0,.258-.068.258-.259v-.5H54.048v.5c0,.191.067.259.256.259ZM58,14.909H56.7c-.346,0-.5-.281-.5-.608s.157-.619.5-.619H58v-1.79a.718.718,0,0,1,1.419,0v4.424a.718.718,0,0,1-1.419,0Z" transform="translate(-0.141 0.05)" fill="#333"/>
          <path id="패스_9571" data-name="패스 9571" d="M67.106,13.724a.8.8,0,0,1-.563-.209.711.711,0,0,1-.227-.548.688.688,0,0,1,.227-.541.811.811,0,0,1,.563-.2h5.752a.8.8,0,0,1,.562.209.711.711,0,0,1,.228.548.689.689,0,0,1-.228.541.817.817,0,0,1-.562.2Zm2.863,7.633a.819.819,0,0,1-.6-.228.759.759,0,0,1-.234-.569V12.991h1.684V20.56a.755.755,0,0,1-.238.569.861.861,0,0,1-.615.228" transform="translate(-0.183 0.054)" fill="#333"/>
          <path id="패스_9572" data-name="패스 9572" d="M69.969,21.453A.917.917,0,0,1,69.3,21.2a.858.858,0,0,1-.263-.638V13.82H67.1a.887.887,0,0,1-.627-.235.8.8,0,0,1-.259-.619.783.783,0,0,1,.26-.614.905.905,0,0,1,.626-.227h5.752a.9.9,0,0,1,.628.234.806.806,0,0,1,.259.62.783.783,0,0,1-.26.614.915.915,0,0,1-.627.227H70.919v6.74a.853.853,0,0,1-.268.638.957.957,0,0,1-.682.255m-.735-7.633v6.74a.659.659,0,0,0,.2.5.724.724,0,0,0,.531.2.768.768,0,0,0,.549-.2.655.655,0,0,0,.208-.5V13.82Zm1.685-.194h1.938a.719.719,0,0,0,.5-.178.591.591,0,0,0,.2-.469.61.61,0,0,0-.2-.476.7.7,0,0,0-.5-.185H67.1a.709.709,0,0,0-.5.179.59.59,0,0,0-.2.469.606.606,0,0,0,.2.476.694.694,0,0,0,.5.184h1.937V12.9h1.878Zm-1.685,0h1.493v-.538H69.234Z" transform="translate(-0.183 0.054)" fill="#333"/>
          <path id="패스_9573" data-name="패스 9573" d="M76.652,20.56a.743.743,0,0,1-.246.569.818.818,0,0,1-.571.228.766.766,0,0,1-.8-.8V13.019a.76.76,0,0,1,.232-.569.819.819,0,0,1,.6-.228.78.78,0,0,1,.55.228.753.753,0,0,1,.24.569Z" transform="translate(-0.207 0.054)" fill="#333"/>
          <path id="패스_9574" data-name="패스 9574" d="M75.834,21.453a.872.872,0,0,1-.651-.257.881.881,0,0,1-.246-.636V13.018a.861.861,0,0,1,.26-.637.918.918,0,0,1,.664-.256.872.872,0,0,1,.616.255.849.849,0,0,1,.27.638V20.56a.835.835,0,0,1-.277.639.913.913,0,0,1-.636.254m.027-9.134a.719.719,0,0,0-.53.2.663.663,0,0,0-.2.5V20.56a.669.669,0,0,0,.705.7.716.716,0,0,0,.506-.2.641.641,0,0,0,.216-.5V13.018a.656.656,0,0,0-.21-.5.682.682,0,0,0-.485-.2" transform="translate(-0.207 0.054)" fill="#333"/>
          <path id="패스_9575" data-name="패스 9575" d="M82.348,12.222a2.247,2.247,0,0,1,1.263.392,2.908,2.908,0,0,1,.95,1.057,3.2,3.2,0,0,1,0,2.962,2.963,2.963,0,0,1-.95,1.064,2.223,2.223,0,0,1-1.263.4H79.963l.131-.235v2.7a.81.81,0,0,1-.209.569.7.7,0,0,1-.543.228.688.688,0,0,1-.531-.228.821.821,0,0,1-.206-.569V13.019a.775.775,0,0,1,.226-.569.76.76,0,0,1,.563-.228Zm0,4.384a.724.724,0,0,0,.48-.208,1.684,1.684,0,0,0,.388-.541,1.646,1.646,0,0,0,.155-.7,1.661,1.661,0,0,0-.542-1.232.73.73,0,0,0-.48-.2h-2.41l.157-.236v3.328l-.144-.209Z" transform="translate(-0.217 0.054)" fill="#333"/>
          <path id="패스_9576" data-name="패스 9576" d="M79.342,21.453a.783.783,0,0,1-.6-.26.913.913,0,0,1-.232-.634V13.018a.875.875,0,0,1,.256-.637.855.855,0,0,1,.631-.256h2.954a2.343,2.343,0,0,1,1.315.408,3.02,3.02,0,0,1,.983,1.091,3.164,3.164,0,0,1,.374,1.534,3.126,3.126,0,0,1-.375,1.522,3.066,3.066,0,0,1-.981,1.1,2.325,2.325,0,0,1-1.316.415H80.19v2.368a.9.9,0,0,1-.234.634.79.79,0,0,1-.614.26m.053-9.134a.662.662,0,0,0-.5.2.676.676,0,0,0-.2.5v7.541a.72.72,0,0,0,.182.5.592.592,0,0,0,.461.2.6.6,0,0,0,.473-.2.709.709,0,0,0,.183-.5V18.191h-.2l.391-.7V18h2.158a2.109,2.109,0,0,0,1.21-.382,2.882,2.882,0,0,0,.919-1.029,3.108,3.108,0,0,0,0-2.87,2.822,2.822,0,0,0-.919-1.023,2.128,2.128,0,0,0-1.21-.376Zm.8,4.807-.423-.617H80V13.82h-.239l.432-.653v.459h2.158a.825.825,0,0,1,.542.225,1.7,1.7,0,0,1,.412.56,1.8,1.8,0,0,1-.411,2.058.814.814,0,0,1-.542.233H80.19Zm0-.617h2.158a.631.631,0,0,0,.415-.184,1.582,1.582,0,0,0,.365-1.83,1.511,1.511,0,0,0-.364-.5.639.639,0,0,0-.416-.178H80.19Z" transform="translate(-0.217 0.054)" fill="#333"/>
          <path id="패스_9577" data-name="패스 9577" d="M87.112,21.355a.776.776,0,0,1-.577-.2.794.794,0,0,1-.2-.581v-.222a.794.794,0,0,1,.2-.581.78.78,0,0,1,.577-.2h.167a.78.78,0,0,1,.577.2.79.79,0,0,1,.2.581v.222a.79.79,0,0,1-.2.581.776.776,0,0,1-.577.2Zm.091-2.884c-.3,0-.454-.165-.481-.5l-.375-4.8a.912.912,0,0,1,.212-.679.8.8,0,0,1,.628-.274.812.812,0,0,1,.635.274.853.853,0,0,1,.208.679l-.363,4.8c-.027.331-.181.5-.466.5" transform="translate(-0.239 0.054)" fill="#333"/>
          <path id="패스_9578" data-name="패스 9578" d="M87.278,21.453h-.167a.876.876,0,0,1-.645-.23.888.888,0,0,1-.229-.65v-.222a.889.889,0,0,1,.228-.649.88.88,0,0,1,.646-.23h.167a.876.876,0,0,1,.645.23.886.886,0,0,1,.229.649v.222a.89.89,0,0,1-.228.65.88.88,0,0,1-.646.23m-.167-1.787a.685.685,0,0,0-.511.174.7.7,0,0,0-.172.511v.222a.705.705,0,0,0,.173.513.685.685,0,0,0,.51.173h.167a.681.681,0,0,0,.51-.174.705.705,0,0,0,.173-.512v-.222a.707.707,0,0,0-.173-.512.685.685,0,0,0-.51-.173Zm.091-1.1c-.241,0-.537-.1-.576-.585l-.376-4.8a1.008,1.008,0,0,1,.236-.749.894.894,0,0,1,.7-.307.9.9,0,0,1,.706.306.947.947,0,0,1,.233.752l-.363,4.8c-.04.484-.327.586-.561.586m-.015-6.251a.7.7,0,0,0-.556.241.815.815,0,0,0-.188.609l.375,4.8c.023.281.142.407.385.407.157,0,.34-.046.37-.408l.363-4.8a.754.754,0,0,0-.184-.607.712.712,0,0,0-.563-.242" transform="translate(-0.238 0.054)" fill="#333"/>
        </g>
      </g>
    </g>
  </g>
</svg>
