<svg xmlns="http://www.w3.org/2000/svg" xmlns:xlink="http://www.w3.org/1999/xlink" width="215" height="110.916" viewBox="0 0 215 110.916">
  <defs>
    <filter id="패스_10471" x="15" y="13.566" width="178" height="97.349" filterUnits="userSpaceOnUse">
      <feOffset dy="3" input="SourceAlpha"/>
      <feGaussianBlur stdDeviation="3" result="blur"/>
      <feFlood flood-opacity="0.102"/>
      <feComposite operator="in" in2="blur"/>
      <feComposite in="SourceGraphic"/>
    </filter>
    <filter id="패스_10471-2" x="15" y="13.566" width="178" height="97.349" filterUnits="userSpaceOnUse">
      <feOffset dy="2" input="SourceAlpha"/>
      <feGaussianBlur stdDeviation="2" result="blur-2"/>
      <feFlood flood-opacity="0.102" result="color"/>
      <feComposite operator="out" in="SourceGraphic" in2="blur-2"/>
      <feComposite operator="in" in="color"/>
      <feComposite operator="in" in2="SourceGraphic"/>
    </filter>
    <filter id="패스_10473">
      <feOffset dx="3" dy="2" input="SourceAlpha"/>
      <feGaussianBlur stdDeviation="3" result="blur-3"/>
      <feFlood flood-opacity="0.161" result="color-2"/>
      <feComposite operator="out" in="SourceGraphic" in2="blur-3"/>
      <feComposite operator="in" in="color-2"/>
      <feComposite operator="in" in2="SourceGraphic"/>
    </filter>
  </defs>
  <g id="img_score02" transform="translate(-90 -1231)">
    <g id="img_score_graph02" transform="translate(19205 18748.701)">
      <text id="미흡" transform="translate(-19115 -17438.875)" fill="#fff" font-size="10" font-family="SpoqaHanSansNeo-Regular, Spoqa Han Sans Neo" letter-spacing="-0.02em" opacity="0.999"><tspan x="0" y="0">미흡</tspan></text>
      <text id="보통" transform="translate(-19045.646 -17507.701)" fill="#fff" font-size="10" font-family="SpoqaHanSansNeo-Regular, Spoqa Han Sans Neo" letter-spacing="-0.02em" opacity="0.999"><tspan x="0" y="0">보통</tspan></text>
      <text id="다소_미흡" data-name="다소
미흡" transform="translate(-19098.5 -17491.771)" fill="#fff" font-size="10" font-family="SpoqaHanSansNeo-Bold, Spoqa Han Sans Neo" font-weight="700" letter-spacing="-0.02em" opacity="0.999"><tspan x="0" y="0">다소</tspan><tspan x="0" y="14">미흡</tspan></text>
      <text id="양호" transform="translate(-18997.4 -17507.701)" fill="#fff" font-size="10" font-family="SpoqaHanSansNeo-Regular, Spoqa Han Sans Neo" letter-spacing="-0.02em" opacity="0.999"><tspan x="0" y="0">양호</tspan></text>
      <text id="우수" transform="translate(-18944.5 -17484.725)" fill="#fff" font-size="10" font-family="SpoqaHanSansNeo-Regular, Spoqa Han Sans Neo" letter-spacing="-0.02em" opacity="0.999"><tspan x="0" y="0">우수</tspan></text>
      <text id="최우수" transform="translate(-18928 -17438.875)" fill="#fff" font-size="10" font-family="SpoqaHanSansNeo-Regular, Spoqa Han Sans Neo" letter-spacing="-0.02em" opacity="0.999"><tspan x="0" y="0">최우수</tspan></text>
      <line id="선_229" data-name="선 229" y2="4.127" transform="translate(-19012.521 -17506.262)" fill="none" stroke="#fff" stroke-linecap="round" stroke-width="1"/>
      <line id="선_230" data-name="선 230" x2="2.064" y2="3.575" transform="translate(-19055.402 -17494.449)" fill="none" stroke="#fff" stroke-linecap="round" stroke-width="1"/>
      <line id="선_231" data-name="선 231" x2="3.575" y2="2.064" transform="translate(-19086.93 -17462.916)" fill="none" stroke="#fff" stroke-linecap="round" stroke-width="1"/>
      <line id="선_232" data-name="선 232" x2="4" transform="translate(-19101 -17417.701)" fill="none" stroke="#fff" stroke-linecap="round" stroke-width="1"/>
      <line id="선_233" data-name="선 233" x1="4" transform="translate(-18928 -17417.701)" fill="none" stroke="#fff" stroke-linecap="round" stroke-width="1"/>
      <line id="선_234" data-name="선 234" x1="3.575" y2="2.064" transform="translate(-18941.645 -17462.916)" fill="none" stroke="#fff" stroke-linecap="round" stroke-width="1"/>
      <line id="선_235" data-name="선 235" x1="2.064" y2="3.575" transform="translate(-18971.705 -17494.449)" fill="none" stroke="#fff" stroke-linecap="round" stroke-width="1"/>
    </g>
    <g id="img_score02-2" data-name="img_score02" transform="translate(114 1250.566)">
      <g data-type="innerShadowGroup">
        <g transform="matrix(1, 0, 0, 1, -24, -19.57)" filter="url(#패스_10471)">
          <path id="패스_10471-3" data-name="패스 10471" d="M128.525,79.349a48.526,48.526,0,0,0-97.049,0H0C0,35.526,35.818,0,80,0s80,35.526,80,79.349Z" transform="translate(24 19.57)" fill="#edebec"/>
        </g>
        <g transform="matrix(1, 0, 0, 1, -24, -19.57)" filter="url(#패스_10471-2)">
          <path id="패스_10471-4" data-name="패스 10471" d="M128.525,79.349a48.526,48.526,0,0,0-97.049,0H0C0,35.526,35.818,0,80,0s80,35.526,80,79.349Z" transform="translate(24 19.57)" fill="#fff"/>
        </g>
      </g>
      <g data-type="innerShadowGroup">
        <path id="패스_10473-2" data-name="패스 10473" d="M54,36.073,37.138,9.5l-.392.25q-1.68,1.082-3.3,2.244c-.24.172-.483.338-.721.513q-1.9,1.391-3.715,2.882c-.05.042-.1.087-.148.129-1.108.922-2.183,1.879-3.239,2.857-.34.315-.671.637-1,.957q-1.19,1.141-2.329,2.33c-.32.333-.643.664-.956,1-.981,1.057-1.941,2.135-2.863,3.246-.039.047-.081.092-.122.14-1,1.2-1.951,2.444-2.877,3.707-.176.24-.344.485-.517.726Q13.8,32.1,12.725,33.769c-.148.229-.3.459-.443.691-.831,1.322-1.633,2.663-2.388,4.036-.329.6-.644,1.2-.957,1.808q-.193.372-.382.745Q6.97,44.2,5.669,47.463l-.122.309Q4.223,51.14,3.209,54.611c-.035.121-.068.243-.1.365q-.574,2-1.04,4.03c-.062.266-.126.532-.185.8q-.222,1.007-.418,2.019c-.113.585-.215,1.174-.315,1.762q-.195,1.149-.358,2.3c-.1.708-.19,1.419-.27,2.132-.047.409-.1.818-.136,1.229Q.226,70.879.134,72.528c-.017.3-.029.6-.042.9-.054,1.2-.092,2.4-.092,3.61H31.473A48.471,48.471,0,0,1,54,36.073Z" transform="translate(0 2.966)" fill="#a8d70f"/>
        <g transform="matrix(1, 0, 0, 1, -24, -19.57)" filter="url(#패스_10473)">
          <path id="패스_10473-3" data-name="패스 10473" d="M54,36.073,37.138,9.5l-.392.25q-1.68,1.082-3.3,2.244c-.24.172-.483.338-.721.513q-1.9,1.391-3.715,2.882c-.05.042-.1.087-.148.129-1.108.922-2.183,1.879-3.239,2.857-.34.315-.671.637-1,.957q-1.19,1.141-2.329,2.33c-.32.333-.643.664-.956,1-.981,1.057-1.941,2.135-2.863,3.246-.039.047-.081.092-.122.14-1,1.2-1.951,2.444-2.877,3.707-.176.24-.344.485-.517.726Q13.8,32.1,12.725,33.769c-.148.229-.3.459-.443.691-.831,1.322-1.633,2.663-2.388,4.036-.329.6-.644,1.2-.957,1.808q-.193.372-.382.745Q6.97,44.2,5.669,47.463l-.122.309Q4.223,51.14,3.209,54.611c-.035.121-.068.243-.1.365q-.574,2-1.04,4.03c-.062.266-.126.532-.185.8q-.222,1.007-.418,2.019c-.113.585-.215,1.174-.315,1.762q-.195,1.149-.358,2.3c-.1.708-.19,1.419-.27,2.132-.047.409-.1.818-.136,1.229Q.226,70.879.134,72.528c-.017.3-.029.6-.042.9-.054,1.2-.092,2.4-.092,3.61H31.473A48.471,48.471,0,0,1,54,36.073Z" transform="translate(24 22.53)" fill="#fff"/>
        </g>
      </g>
    </g>
  </g>
</svg>
