<svg xmlns="http://www.w3.org/2000/svg" xmlns:xlink="http://www.w3.org/1999/xlink" width="120" height="120" viewBox="0 0 120 120">
  <defs>
    <clipPath id="clip-path">
      <rect id="사각형_26915" data-name="사각형 26915" width="120" height="120" transform="translate(1602 628)" fill="#fff" stroke="#707070" stroke-width="1"/>
    </clipPath>
  </defs>
  <g id="img_voice" transform="translate(-1602 -628)" clip-path="url(#clip-path)">
    <g id="icon_radio" transform="translate(1624.001 645)">
      <path id="패스_2687" data-name="패스 2687" d="M146.951,166.851a1.456,1.456,0,0,0-2.06,0l-1.03,1.03-1.03-1.03a1.457,1.457,0,0,0-2.06,2.06l1.03,1.03-1.03,1.03a1.457,1.457,0,1,0,2.06,2.06l1.03-1.03,1.03,1.03a1.457,1.457,0,1,0,2.06-2.06l-1.03-1.03,1.03-1.03A1.456,1.456,0,0,0,146.951,166.851Z" transform="translate(-105.986 -117.44)" fill="#3b61d5"/>
      <path id="패스_2688" data-name="패스 2688" d="M185.271,153.215h-1.42V150.5a10.9,10.9,0,0,0,5.827-9.664v-7.422a4.967,4.967,0,0,0-4.533-4.942,5.759,5.759,0,0,0-5.586-4.389h-4.825a6.915,6.915,0,0,0-6.907,6.907v9.846a10.9,10.9,0,0,0,5.827,9.664v2.719h-1.42A10.245,10.245,0,0,0,162,163.448v11.617a1.457,1.457,0,0,0,2.913,0V163.448a7.329,7.329,0,0,1,7.32-7.32h13.038a7.329,7.329,0,0,1,7.32,7.32v11.617a1.457,1.457,0,0,0,2.913,0V163.448A10.245,10.245,0,0,0,185.271,153.215ZM170.74,130.987a4,4,0,0,1,3.993-3.993h4.825a2.856,2.856,0,0,1,2.835,2.913,1.457,1.457,0,0,0,1.457,1.457h.866a2.049,2.049,0,0,1,2.047,2.047v1.595a8.012,8.012,0,1,1-16.024,0Zm4.931,17.242a7.975,7.975,0,0,1-4.7-5.564,10.9,10.9,0,0,0,15.559,0,7.975,7.975,0,0,1-4.7,5.564,1.456,1.456,0,0,0-.9,1.344v3.642h-4.37v-3.642A1.456,1.456,0,0,0,175.671,148.229Z" transform="translate(-119.755 -90.517)" fill="#3b61d5"/>
      <path id="패스_2689" data-name="패스 2689" d="M176.487,232.507a1.457,1.457,0,0,0-2.06,2.06l1.03,1.03v8.137a1.457,1.457,0,1,0,2.913,0v-8.74a1.457,1.457,0,0,0-.427-1.03Z" transform="translate(-127.385 -159.185)" fill="#3b61d5"/>
      <path id="패스_2690" data-name="패스 2690" d="M231.884,232.507l-1.457,1.457a1.457,1.457,0,0,0-.427,1.03v8.74a1.457,1.457,0,1,0,2.913,0V235.6l1.03-1.03a1.457,1.457,0,0,0-2.06-2.06Z" transform="translate(-162.99 -159.185)" fill="#3b61d5"/>
      <path id="패스_2691" data-name="패스 2691" d="M89.332,63.31V56.743h6.747l8.329,7.149a1.457,1.457,0,0,0,2.405-1.105V56.743h1.139a4.694,4.694,0,0,0,4.688-4.688V36.607a4.693,4.693,0,0,0-4.688-4.687H86.736a4.693,4.693,0,0,0-4.688,4.687v1.2h-25.5A6.551,6.551,0,0,0,50,44.349V63.31a6.551,6.551,0,0,0,6.543,6.543h.74V77.3a1.456,1.456,0,0,0,2.331,1.165l11.477-8.608h11.7a6.551,6.551,0,0,0,6.543-6.543Zm-4.37-26.7a1.776,1.776,0,0,1,1.775-1.774h21.215a1.776,1.776,0,0,1,1.775,1.774V52.055a1.776,1.776,0,0,1-1.775,1.775h-2.6a1.457,1.457,0,0,0-1.457,1.457v4.331l-6.333-5.436a1.456,1.456,0,0,0-.949-.351H86.736a1.776,1.776,0,0,1-1.775-1.775ZM82.789,66.94H70.606a1.456,1.456,0,0,0-.874.292L60.2,74.382V68.4A1.457,1.457,0,0,0,58.74,66.94h-2.2a3.634,3.634,0,0,1-3.63-3.63V44.349a3.634,3.634,0,0,1,3.63-3.63h25.5V52.055a4.681,4.681,0,0,0,4.37,4.656v6.6A3.634,3.634,0,0,1,82.789,66.94Z" transform="translate(-48.543 -31.92)" fill="#3b61d5"/>
      <circle id="타원_619" data-name="타원 619" cx="2.185" cy="2.185" r="2.185" transform="translate(10.197 20.453)" fill="#3b61d5"/>
      <circle id="타원_620" data-name="타원 620" cx="2.185" cy="2.185" r="2.185" transform="translate(18.938 20.453)" fill="#3b61d5"/>
      <circle id="타원_621" data-name="타원 621" cx="2.185" cy="2.185" r="2.185" transform="translate(27.678 20.453)" fill="#3b61d5"/>
      <circle id="타원_622" data-name="타원 622" cx="1.69" cy="1.69" r="1.69" transform="translate(40.352 11.594)" fill="#3b61d5"/>
      <circle id="타원_623" data-name="타원 623" cx="1.69" cy="1.69" r="1.69" transform="translate(47.111 11.594)" fill="#3b61d5"/>
      <circle id="타원_624" data-name="타원 624" cx="1.69" cy="1.69" r="1.69" transform="translate(53.87 11.594)" fill="#3b61d5"/>
      <path id="패스_2692" data-name="패스 2692" d="M65.284,191.388a7.292,7.292,0,0,0,7.284-7.284v-8.74a7.284,7.284,0,1,0-14.567,0v8.74A7.292,7.292,0,0,0,65.284,191.388Zm-4.37-16.024a4.37,4.37,0,0,1,8.74,0v8.74a4.37,4.37,0,0,1-8.74,0Z" transform="translate(-53.63 -118.493)" fill="#3b61d5"/>
      <path id="패스_2693" data-name="패스 2693" d="M67.851,196.08a1.457,1.457,0,0,0-1.457,1.457v4.37a8.74,8.74,0,1,1-17.481,0v-4.37a1.457,1.457,0,1,0-2.913,0v4.37A11.664,11.664,0,0,0,56.2,213.46v4.471H54.74a1.457,1.457,0,0,0,0,2.914h5.827a1.457,1.457,0,0,0,0-2.914H59.111V213.46a11.664,11.664,0,0,0,10.2-11.553v-4.37A1.457,1.457,0,0,0,67.851,196.08Z" transform="translate(-46 -136.295)" fill="#3b61d5"/>
    </g>
  </g>
</svg>
