<svg xmlns="http://www.w3.org/2000/svg" xmlns:xlink="http://www.w3.org/1999/xlink" width="180" height="180" viewBox="0 0 180 180">
  <defs>
    <clipPath id="clip-path">
      <rect id="사각형_27416" data-name="사각형 27416" width="180" height="180" transform="translate(79 -18705)" fill="#fff"/>
    </clipPath>
    <clipPath id="clip-path-2">
      <rect id="사각형_27389" data-name="사각형 27389" width="162.136" height="168.944" fill="none"/>
    </clipPath>
  </defs>
  <g id="img_mbti10_esfp" transform="translate(-79 18705)" clip-path="url(#clip-path)">
    <g id="그룹_21259" data-name="그룹 21259" transform="translate(87 -18699)">
      <g id="그룹_21258" data-name="그룹 21258" clip-path="url(#clip-path-2)">
        <path id="패스_11005" data-name="패스 11005" d="M64.219,118.986c1.759,1.41,3.155,2.669,4.688,3.732a7.749,7.749,0,0,0,12.1-4.871,5.142,5.142,0,0,0-.019-2.639c-.35-1.077.106-1.249,1.043-1.231,2.145.041,4.291,0,6.437.015a7.692,7.692,0,0,0,5.741-2.414Q104.98,100.805,115.8,90.086c.555-.552,1.128-1.089,1.717-1.6a2.985,2.985,0,0,1,4.232-.12,3.022,3.022,0,0,1,.182,4.238q-3,3.821-6.125,7.536a2.514,2.514,0,0,0-.618,2.862,2.624,2.624,0,0,0,2.734,1.413q13.032-.027,26.063,0A7.106,7.106,0,0,1,146,104.6a3.723,3.723,0,0,1,2.625,3.811A3.618,3.618,0,0,1,145,111.672c-4.239.042-8.478.03-12.717.007a2.6,2.6,0,0,0-2.645,1.3c-.853,1.679.291,3.381,2.307,3.392,4.815.026,9.63.007,14.445.01a5.821,5.821,0,0,1,1.861.192,3.7,3.7,0,0,1,2.7,4.065,3.5,3.5,0,0,1-3.58,3.042c-4.71.041-9.42.017-14.13.019-.471,0-.945-.027-1.413.012a2.445,2.445,0,0,0-2.468,2.35,2.4,2.4,0,0,0,2.587,2.347c3.506.037,7.013-.024,10.519.038a3.621,3.621,0,0,1,3.719,3.147,3.672,3.672,0,0,1-2.939,4.029,8.1,8.1,0,0,1-2.015.22c-4.553.019-9.106.009-13.659.01-2.016,0-3.057.8-3.021,2.316.036,1.482,1.145,2.326,3.107,2.332,3.245.01,6.49-.009,9.735.009a3.79,3.79,0,0,1,4.079,3.645,3.948,3.948,0,0,1-4.155,3.631c-11.671.012-23.342-.016-35.013.032-1.74.007-2.9-1.078-4.233-1.822-2.361-1.315-4.652-2.758-6.961-4.168a8.759,8.759,0,0,0-4.761-1.269c-6.856.04-13.712-.006-20.568.038-1.135.008-1.612-.16-1.6-1.488.079-6.58.036-13.163.036-20.122" fill="#fddfc5"/>
        <path id="패스_11006" data-name="패스 11006" d="M122.193,99.734c1.166-1.436,2.075-2.582,3.011-3.705,2.384-2.864,2.871-6.082,1.346-9.011s-4.391-4.347-8.172-3.935c-.955.105-1.16-.2-1.137-1.065.049-1.884-.052-3.771.029-5.651a8.809,8.809,0,0,0-2.839-7c-7.49-7.455-14.885-15-22.317-22.517A3.66,3.66,0,0,1,90.9,45.069a2.913,2.913,0,0,1,1.244-3.3,3.017,3.017,0,0,1,3.779.278c2.523,2.033,5.011,4.108,7.514,6.165a2.488,2.488,0,0,0,2.9.5,2.375,2.375,0,0,0,1.233-2.506c-.023-.312,0-.627,0-.94V20.151a6.233,6.233,0,0,1,.244-2.167,3.851,3.851,0,0,1,3.823-2.652,3.559,3.559,0,0,1,3.243,3.617c.05,4.03.019,8.059.025,12.087a8.043,8.043,0,0,0,.053,1.408,2.338,2.338,0,0,0,2.34,2.124,2.285,2.285,0,0,0,2.3-2.293c.074-1.461.032-2.93.034-4.4,0-3.663-.031-7.325.023-10.988a3.783,3.783,0,0,1,2.7-3.809,3.6,3.6,0,0,1,4.073,1.621,5.136,5.136,0,0,1,.609,2.864q0,7.063,0,14.127c0,1.844.864,2.914,2.31,2.888s2.335-1.109,2.347-2.938c.022-3.349-.009-6.7.033-10.047.03-2.383,1.469-3.868,3.618-3.845a3.791,3.791,0,0,1,3.628,3.938c.03,5.024.02,10.047.009,15.071a2.407,2.407,0,0,0,1.868,2.564,2.244,2.244,0,0,0,2.531-1.15,2.747,2.747,0,0,0,.3-1.668c0-3.244-.006-6.487,0-9.733.007-2.469,1.521-4.246,3.628-4.289a3.85,3.85,0,0,1,3.626,4.108c.038,11.72.03,23.441.044,35.161a4.369,4.369,0,0,1-.687,2.358c-1.741,2.851-3.4,5.752-5.16,8.593a9.027,9.027,0,0,0-1.367,4.9c.011,6.855-.021,13.709.027,20.564.009,1.179-.245,1.611-1.534,1.6-6.226-.071-12.453-.032-18.68-.032Z" fill="#fbae85"/>
        <path id="패스_11007" data-name="패스 11007" d="M44.911,61.075c-1.244,1.521-2.227,2.741-3.229,3.945a7.747,7.747,0,0,0-1.034,8.893,7.514,7.514,0,0,0,7.919,3.845c1.061-.148,1.469.01,1.412,1.2-.1,2.036,0,4.081-.033,6.121A7.976,7.976,0,0,0,52.47,91.1q11.373,11.382,22.686,22.824c1.79,1.806,1.636,4.01-.321,5.144a2.918,2.918,0,0,1-3.607-.462q-3.447-2.84-6.915-5.654c-.963-.778-1.87-1.724-3.335-1.02-1.411.677-1.436,1.89-1.435,3.181q.015,13.029,0,26.059c0,2.216-1.27,3.9-3.06,4.131a3.545,3.545,0,0,1-4.208-3.69c-.037-4.29-.017-8.581-.012-12.872a2.389,2.389,0,0,0-1.9-2.54,2.261,2.261,0,0,0-2.519,1.178,2.748,2.748,0,0,0-.271,1.674c0,4.866.03,9.733-.014,14.6-.029,3.244-2.993,5.137-5.568,3.616a3.634,3.634,0,0,1-1.749-3.448c.014-4.709.005-9.418,0-14.128a9.578,9.578,0,0,0-.048-1.409,2.307,2.307,0,0,0-2.467-2.131,2.192,2.192,0,0,0-2.174,2.245c-.069,1.462-.034,2.929-.037,4.394-.005,2.041.024,4.082-.01,6.122-.042,2.46-1.476,4.068-3.608,4.121a4.055,4.055,0,0,1-3.768-3.916c-.1-1.354-.031-2.72-.032-4.08,0-3.715.008-7.431,0-11.146-.006-1.617-.743-2.441-2.156-2.485a2.252,2.252,0,0,0-2.475,2.418c-.054,3.4-.012,6.8-.025,10.2-.01,2.519-1.35,4.07-3.511,4.1-2.188.031-3.765-1.647-3.767-4.1q-.02-17.5-.018-35.007A4.118,4.118,0,0,1,16.76,96.8c1.782-2.941,3.521-5.908,5.32-8.838a8.493,8.493,0,0,0,1.308-4.6c-.025-6.908.014-13.815-.033-20.722-.008-1.154.184-1.618,1.5-1.6,6.226.077,12.453.034,18.68.034Z" fill="#fccbaa"/>
        <path id="패스_11008" data-name="패스 11008" d="M102.876,41.669c-1.6-1.29-2.872-2.354-4.184-3.369a7.819,7.819,0,0,0-8.826-.661,7.388,7.388,0,0,0-3.65,7.847c.138.969-.026,1.269-1.048,1.231-2.091-.077-4.187,0-6.28-.027a7.876,7.876,0,0,0-5.9,2.436Q62.434,59.671,51.845,70.177c-.741.737-1.492,1.468-2.279,2.154a3.09,3.09,0,0,1-4.02.126,2.858,2.858,0,0,1-.472-4.074c2.036-2.651,4.176-5.222,6.306-7.8.717-.867,1.184-1.737.633-2.85a2.531,2.531,0,0,0-2.593-1.356q-13.189.041-26.379.011c-2.447,0-4.111-1.232-4.374-3.176a3.487,3.487,0,0,1,3.71-4.142c3.924-.048,7.85-.015,11.776-.019a11.236,11.236,0,0,0,1.411-.035,2.358,2.358,0,0,0,2.246-2.378A2.267,2.267,0,0,0,35.5,44.357c-1.776-.082-3.558-.036-5.338-.039-3.4-.008-6.805.038-10.205-.035a3.712,3.712,0,0,1-3.7-2.84,3.617,3.617,0,0,1,1.536-3.83,5.078,5.078,0,0,1,2.852-.7q7.145.021,14.289,0c1.758,0,2.8-.8,2.869-2.175.071-1.42-1.042-2.493-2.788-2.517-3.349-.046-6.7-.023-10.048-.012a3.766,3.766,0,0,1-4.071-3.625,3.916,3.916,0,0,1,4.02-3.6c4.972-.034,9.944-.027,14.917-.015a2.4,2.4,0,0,0,2.688-1.882c.367-1.618-.687-2.794-2.475-2.808-3.507-.028-7.014.022-10.52-.023a3.557,3.557,0,0,1-3.66-3.015,3.691,3.691,0,0,1,2.3-4.03,4.662,4.662,0,0,1,1.851-.249q17.428,0,34.858-.012a4.574,4.574,0,0,1,2.5.727c2.712,1.673,5.479,3.257,8.184,4.939a10.467,10.467,0,0,0,5.793,1.58c6.647-.049,13.3.006,19.941-.04,1.157-.008,1.629.2,1.615,1.519-.072,6.535-.033,13.071-.033,19.989" fill="#f9b29b"/>
        <path id="패스_11009" data-name="패스 11009" d="M9.482,53.707c-3.481-.7-4.045-1.26-4.741-4.741-.7,3.481-1.26,4.045-4.741,4.741,3.481.7,4.045,1.26,4.741,4.741.7-3.481,1.26-4.045,4.741-4.741" fill="#f2a74e"/>
        <path id="패스_11010" data-name="패스 11010" d="M79.978,165.707c-2.377-.475-2.762-.861-3.237-3.237-.476,2.376-.861,2.762-3.238,3.237,2.377.475,2.762.861,3.238,3.237.475-2.376.86-2.762,3.237-3.237" fill="#f2a74e"/>
        <path id="패스_11011" data-name="패스 11011" d="M162.136,80.953c-3.481-.7-4.045-1.26-4.741-4.741-.7,3.481-1.26,4.045-4.741,4.741,3.481.7,4.045,1.26,4.741,4.741.7-3.481,1.26-4.045,4.741-4.741" fill="#f2a74e"/>
        <path id="패스_11012" data-name="패스 11012" d="M20.478,6.476A1.476,1.476,0,1,0,19,7.952a1.476,1.476,0,0,0,1.476-1.476" fill="#f2a74e"/>
        <path id="패스_11013" data-name="패스 11013" d="M63.978,156.859a2.479,2.479,0,1,0-2.479,2.479,2.479,2.479,0,0,0,2.479-2.479" fill="#f2a74e"/>
        <path id="패스_11014" data-name="패스 11014" d="M101.384,9.356a3.356,3.356,0,1,0-3.356,3.356,3.356,3.356,0,0,0,3.356-3.356" fill="#f2a74e"/>
        <path id="패스_11015" data-name="패스 11015" d="M108.384,1.356a1.356,1.356,0,1,0-1.356,1.356,1.356,1.356,0,0,0,1.356-1.356" fill="#f2a74e"/>
      </g>
    </g>
  </g>
</svg>
