<svg width="16" height="16" viewBox="0 0 16 16" fill="none" xmlns="http://www.w3.org/2000/svg">
<path d="M10.6806 1.33594H5.3006C4.24937 1.33717 3.24156 1.75537 2.49829 2.49876C1.75502 3.24216 1.337 4.25004 1.33594 5.30127L1.33594 10.6813C1.33717 11.7325 1.75537 12.7403 2.49876 13.4836C3.24216 14.2269 4.25004 14.6449 5.30127 14.6459H10.6813C11.7325 14.6447 12.7403 14.2265 13.4836 13.4831C14.2269 12.7397 14.6449 11.7318 14.6459 10.6806V5.3006C14.6447 4.24937 14.2265 3.24156 13.4831 2.49829C12.7397 1.75502 11.7318 1.337 10.6806 1.33594V1.33594ZM13.3073 10.6806C13.3073 11.0255 13.2393 11.3671 13.1073 11.6858C12.9753 12.0045 12.7818 12.294 12.5379 12.5379C12.294 12.7818 12.0045 12.9753 11.6858 13.1073C11.3671 13.2393 11.0255 13.3073 10.6806 13.3073H5.3006C4.60408 13.3071 3.93615 13.0303 3.4437 12.5377C2.95125 12.0451 2.6746 11.3771 2.6746 10.6806V5.3006C2.67478 4.60408 2.9516 3.93615 3.44417 3.4437C3.93675 2.95125 4.60475 2.6746 5.30127 2.6746H10.6813C11.3778 2.67478 12.0457 2.9516 12.5382 3.44417C13.0306 3.93675 13.3073 4.60475 13.3073 5.30127V10.6813V10.6806Z" fill="#2D2D2D"/>
<path d="M7.98821 4.54688C7.07583 4.54829 6.20123 4.9114 5.55614 5.55661C4.91105 6.20183 4.54811 7.07649 4.54688 7.98888C4.54793 8.90149 4.91089 9.77643 5.55614 10.4218C6.20139 11.0672 7.07626 11.4303 7.98887 11.4315C8.9016 11.4305 9.77664 11.0674 10.422 10.422C11.0674 9.77664 11.4305 8.9016 11.4315 7.98888C11.4301 7.07626 11.0668 6.20146 10.4213 5.55634C9.77583 4.91121 8.90082 4.54842 7.98821 4.54754V4.54688ZM7.98821 10.0929C7.43037 10.0929 6.89538 9.87127 6.50093 9.47682C6.10648 9.08237 5.88488 8.54738 5.88488 7.98954C5.88488 7.4317 6.10648 6.89671 6.50093 6.50226C6.89538 6.10781 7.43037 5.88621 7.98821 5.88621C8.54605 5.88621 9.08104 6.10781 9.47549 6.50226C9.86994 6.89671 10.0915 7.4317 10.0915 7.98954C10.0915 8.54738 9.86994 9.08237 9.47549 9.47682C9.08104 9.87127 8.54605 10.0929 7.98821 10.0929Z" fill="#2D2D2D"/>
<path d="M11.434 5.39933C11.8895 5.39933 12.2587 5.03012 12.2587 4.57467C12.2587 4.11922 11.8895 3.75 11.434 3.75C10.9786 3.75 10.6094 4.11922 10.6094 4.57467C10.6094 5.03012 10.9786 5.39933 11.434 5.39933Z" fill="#2D2D2D"/>
</svg>
