<svg width="140" height="126" viewBox="0 0 140 126" fill="none" xmlns="http://www.w3.org/2000/svg">
<g clip-path="url(#clip0_74_571)">
<path d="M114.584 97.5401H25.0001C34.3438 82.6879 39.2834 65.5336 39.2555 48.0347V30.4585C39.2555 13.6352 52.192 1.62685e-07 68.1462 1.62685e-07H71.4728C77.0538 -0.000604045 82.5026 1.68181 87.0943 4.82345C91.241 7.70969 94.6165 11.5514 96.9303 16.0173C99.244 20.4832 100.427 25.4393 100.376 30.4585V47.9876C100.339 64.9754 104.98 81.6516 113.799 96.2223L114.584 97.5401Z" fill="#0D1719"/>
<g style="mix-blend-mode:multiply" opacity="0.3">
<g style="mix-blend-mode:multiply" opacity="0.3">
<path d="M67.1193 50.4817C70.4575 51.6582 72.1681 48.6464 73.6055 49.5523C75.0429 50.4581 72.4178 54.1169 68.7707 51.9052C67.1195 50.9993 66.169 50.117 67.1193 50.4817Z" fill="#F1B69A"/>
</g>
</g>
<path d="M96.1822 83.7994L87.8666 80.7053V54.0703H51.8713V80.7053L43.5557 83.7994C43.5557 83.7994 45.9314 99.0934 69.2033 99.9992H70.5815C79.5981 99.6345 85.4785 97.0934 89.2918 94.117L89.4583 93.9758C89.9216 93.6111 90.3609 93.2346 90.7529 92.7993L91.0975 92.4817C91.4539 92.1287 91.7985 91.7758 92.1074 91.4346L92.4995 90.964C92.6895 90.7405 92.8796 90.5052 93.0459 90.2817C93.2122 90.0582 93.4736 89.7053 93.6636 89.4229C93.7349 89.317 93.8061 89.2229 93.8655 89.117C93.9249 89.0111 94.1269 88.7522 94.2338 88.5757C95.1574 87.1072 95.8167 85.4912 96.1822 83.7994Z" fill="#FFE7DA"/>
<path d="M96.2177 83.7637C95.9381 85.0982 95.4658 86.3859 94.8157 87.5872C94.6417 87.9353 94.4476 88.2731 94.2339 88.5989C92.9558 90.7222 91.2831 92.5865 89.304 94.093C88.8645 94.4342 88.3891 94.7753 87.902 95.1047C84.0768 97.6106 78.5531 99.6223 70.5938 99.9635H69.2034C61.4342 99.6459 56.0292 97.6106 52.2159 95.1047C51.7051 94.7753 51.2062 94.4342 50.7548 94.093C48.7562 92.5726 47.0467 90.7122 45.706 88.5989C45.4803 88.2577 45.3021 87.9283 45.112 87.5872C44.431 86.3835 43.9079 85.0986 43.5557 83.7637L37.4617 86.7166V111.293H102.751V86.8578L96.2177 83.7637Z" fill="white"/>
<path d="M114.976 121.151V124.563H139.388C139.381 123.423 139.314 122.284 139.186 121.151C139.186 120.81 139.127 120.469 139.079 120.14C138.811 118.279 138.381 116.445 137.796 114.657C137.677 114.304 137.57 113.963 137.451 113.645C136.749 111.732 135.858 109.892 134.791 108.151C134.589 107.81 134.375 107.469 134.161 107.14C132.839 105.148 131.302 103.306 129.575 101.646C129.231 101.305 128.863 100.963 128.47 100.634C126.394 98.808 124.081 97.2651 121.592 96.0457L119.775 95.1516L117.696 94.1399L114.976 92.8223V115.998C114.965 116.243 114.938 116.487 114.893 116.728C114.937 116.961 114.965 117.197 114.976 117.434V121.198V121.151Z" fill="white"/>
<path d="M25.1663 115.999V92.7871L22.2678 94.187L20.4267 95.0929L18.3832 96.0929C15.8977 97.3179 13.5852 98.8605 11.5049 100.681L10.3999 101.693C8.67406 103.35 7.14053 105.193 5.82673 107.187L5.18519 108.199C4.12693 109.942 3.23986 111.782 2.53608 113.693C2.4054 114.01 2.31004 114.352 2.20313 114.705C1.59898 116.488 1.16144 118.324 0.896266 120.187C0.896266 120.516 0.837054 120.857 0.789536 121.199C0.66168 122.332 0.594362 123.47 0.587677 124.61H25.1663V117.434C25.1663 117.199 25.1664 116.975 25.2377 116.728C25.3089 116.481 25.1663 116.199 25.1663 115.999Z" fill="white"/>
<path d="M114.761 92.7051V115.834C114.751 116.079 114.724 116.323 114.678 116.564C114.723 116.797 114.751 117.033 114.761 117.27V124.446H24.9521V117.27C24.9521 117.034 24.9525 116.811 25.0119 116.564C25.0713 116.317 24.9521 116.081 24.9521 115.834V92.6228L33.3391 88.5288L35.4302 87.5171L37.2238 86.6465V111.199H102.49V86.7641L104.034 87.5171L106.125 88.5288L114.761 92.7051Z" fill="#045135"/>
<path d="M139.981 125.152H0.00517291V124.564C-0.41061 100.905 24.5246 92.1522 24.7741 92.0698L50.3388 80.7405C50.6172 80.6149 50.8535 80.4129 51.0198 80.1586C51.1861 79.9043 51.2754 79.6083 51.2773 79.3053V67.5407H52.4653V79.3053C52.4643 79.8349 52.3094 80.3529 52.0186 80.7974C51.7278 81.2419 51.3137 81.5937 50.826 81.811L25.2137 93.1638C24.9168 93.258 1.205 101.611 1.19312 123.975H138.782C138.568 120.364 136.406 101.081 114.572 93.2581L88.8996 81.811C88.4141 81.592 88.0026 81.2394 87.714 80.7951C87.4254 80.3508 87.2724 79.8336 87.2726 79.3053V66.3643H88.4605V79.3053C88.4614 79.607 88.5487 79.9021 88.7128 80.1563C88.8769 80.4105 89.1107 80.6132 89.3869 80.7405L115.011 92.1639C127.936 96.7991 134.018 105.352 136.905 111.717C138.762 115.761 139.811 120.124 139.994 124.564L139.981 125.152Z" fill="black"/>
<path d="M70.1973 75.2581C90.6182 74.411 95.6193 53.5054 95.6193 53.5054C95.6193 53.5054 100.193 54.3407 101.262 43.7056C102.331 33.0704 96.5816 36.0115 96.5816 36.0115C96.9143 5.42359 80.4376 12.6588 73.3574 12.6471H67.0372C59.9095 12.6471 43.4803 5.37653 43.813 36.0115C43.813 36.0115 38.0633 33.0586 39.1325 43.7056C40.2017 54.3525 44.7753 53.5054 44.7753 53.5054C44.7753 53.5054 49.7645 74.411 70.1973 75.2581Z" fill="#FFE7DA"/>
<g style="mix-blend-mode:multiply" opacity="0.3">
<g style="mix-blend-mode:multiply" opacity="0.3">
<path d="M67.667 52.6772C71.0051 53.8525 72.7157 50.8437 74.1531 51.7486C75.5906 52.6536 72.9648 56.3088 69.3178 54.0992C67.6784 53.1942 66.6929 52.3128 67.667 52.6772Z" fill="#F1B69A"/>
</g>
</g>
<path d="M69.8529 54.9221C69.7534 54.9226 69.6551 54.8984 69.5675 54.8516L69.2705 54.6988C68.7007 54.4876 68.1971 54.1323 67.8094 53.6683C67.4217 53.2043 67.1636 52.6478 67.0611 52.0544C66.9741 51.7221 66.9801 51.3726 67.0785 51.0434C67.1768 50.7142 67.364 50.4177 67.6197 50.1856C68.3946 49.3164 68.8176 48.1948 68.8076 47.0359C68.8256 46.8747 68.9063 46.7268 69.0327 46.6237C69.1591 46.5205 69.3212 46.4703 69.4846 46.4835C69.6496 46.4985 69.8018 46.5772 69.9086 46.7026C70.0153 46.828 70.0679 46.9899 70.0547 47.1534C70.0572 48.5636 69.5471 49.9277 68.6174 50.9966C68.3085 51.3492 68.2494 51.4198 68.3326 51.7959C68.3948 52.2114 68.5731 52.6013 68.8482 52.9213C69.1233 53.2412 69.4837 53.4783 69.8883 53.6057L70.1974 53.7585C70.3429 53.8359 70.4519 53.9667 70.5008 54.1228C70.5497 54.2789 70.5342 54.4477 70.4585 54.5929C70.4009 54.7003 70.3132 54.7887 70.2056 54.8472C70.0979 54.9056 69.9753 54.9316 69.8529 54.9221Z" fill="#262323"/>
<path d="M58.7076 40.2309C58.5474 40.19 58.4011 40.1073 58.2841 39.9916C58.1672 39.8759 58.0837 39.7313 58.0423 39.5728C58.0045 39.4525 57.9918 39.3257 58.0051 39.2004C58.0184 39.075 58.0577 38.9537 58.12 38.8437C58.1822 38.7338 58.266 38.6375 58.3671 38.5608C58.4681 38.4841 58.5841 38.4285 58.7076 38.3975C60.3307 38.0609 62.0148 38.1541 63.5899 38.6678C63.7091 38.7039 63.8201 38.7631 63.9159 38.842C64.0117 38.9209 64.0904 39.0179 64.1479 39.1274C64.2054 39.2368 64.2403 39.3564 64.2506 39.4793C64.2608 39.6022 64.2462 39.7259 64.2077 39.8431C64.1712 39.961 64.1116 40.0706 64.0319 40.1654C63.9522 40.2601 63.8542 40.3383 63.7436 40.3952C63.633 40.4521 63.5117 40.4866 63.3875 40.4968C63.2632 40.5069 63.1382 40.4925 63.0197 40.4543C61.7759 40.0655 60.4565 39.9767 59.171 40.1956C59.0234 40.252 58.8622 40.2643 58.7076 40.2309Z" fill="#262323"/>
<path d="M81.5584 40.2306C81.7169 40.1864 81.8613 40.1027 81.9777 39.9874C82.0942 39.8722 82.179 39.7294 82.2237 39.5725C82.2615 39.4522 82.2741 39.3254 82.2608 39.2001C82.2475 39.0748 82.2082 38.9534 82.146 38.8434C82.0837 38.7335 81.9993 38.6372 81.8983 38.5605C81.7972 38.4838 81.6818 38.4283 81.5584 38.3972C79.9311 38.0624 78.2434 38.1555 76.6639 38.6675C76.5447 38.7036 76.4337 38.7628 76.3379 38.8417C76.2421 38.9206 76.1634 39.0177 76.1059 39.1271C76.0483 39.2365 76.0134 39.3561 76.0032 39.479C75.9929 39.6019 76.0075 39.7256 76.0461 39.8428C76.0826 39.9608 76.1427 40.0703 76.2224 40.1651C76.3022 40.2598 76.4001 40.338 76.5107 40.3949C76.6213 40.4518 76.7421 40.4863 76.8663 40.4965C76.9905 40.5066 77.1155 40.4922 77.2341 40.454C78.4778 40.0652 79.7973 39.9764 81.0827 40.1953C81.2345 40.2514 81.3998 40.2636 81.5584 40.2306Z" fill="#262323"/>
<path d="M62 49C63.1046 49 64 47.8807 64 46.5C64 45.1193 63.1046 44 62 44C60.8954 44 60 45.1193 60 46.5C60 47.8807 60.8954 49 62 49Z" fill="#0D1719"/>
<path d="M78 49C79.1046 49 80 47.8807 80 46.5C80 45.1193 79.1046 44 78 44C76.8954 44 76 45.1193 76 46.5C76 47.8807 76.8954 49 78 49Z" fill="#0D1719"/>
<path d="M70.4502 59.8819C69.4712 59.8846 68.5015 59.6959 67.5963 59.3269C66.6912 58.9578 65.8686 58.4155 65.1758 57.7312C65.1201 57.6766 65.076 57.6116 65.0458 57.54C65.0157 57.4684 65 57.3916 65 57.314C65 57.2364 65.0157 57.1596 65.0458 57.088C65.076 57.0164 65.1201 56.9514 65.1758 56.8968C65.231 56.8417 65.2965 56.7979 65.3689 56.7681C65.4413 56.7383 65.519 56.7229 65.5975 56.7229C65.6759 56.7229 65.7536 56.7383 65.826 56.7681C65.8984 56.7979 65.9639 56.8417 66.0192 56.8968C66.599 57.4748 67.2897 57.9326 68.0505 58.2434C68.8114 58.5542 69.6271 58.7116 70.4502 58.7066C71.2731 58.7103 72.0886 58.5522 72.8493 58.2415C73.61 57.9308 74.3006 57.4738 74.8812 56.8968C74.9345 56.8406 74.9988 56.7957 75.0703 56.7651C75.1418 56.7345 75.2192 56.7188 75.2971 56.7188C75.375 56.7188 75.4518 56.7345 75.5233 56.7651C75.5948 56.7957 75.6597 56.8406 75.713 56.8968C75.7687 56.9514 75.8128 57.0164 75.8429 57.088C75.8731 57.1596 75.8882 57.2364 75.8882 57.314C75.8882 57.3916 75.8731 57.4684 75.8429 57.54C75.8128 57.6116 75.7687 57.6766 75.713 57.7312C75.0228 58.4157 74.2021 58.9583 73.2988 59.3274C72.3956 59.6966 71.4275 59.8849 70.4502 59.8819Z" fill="#F66D62"/>
<path d="M69.9941 75.8462C51.0701 75.058 45.0474 57.2229 44.1446 54.0935C43.3964 54.0268 42.6833 53.7491 42.0894 53.2935C40.1056 51.8112 38.8462 48.5877 38.3591 43.7642C37.9314 39.4466 38.5493 36.7055 40.2124 35.529C40.628 35.2674 41.095 35.0965 41.5825 35.0275C42.07 34.9586 42.5666 34.9932 43.0396 35.1291C43.0396 24.6586 44.9998 17.8116 49.0507 14.2234C53.3273 10.4587 59.1007 11.1763 63.3061 11.694C64.4867 11.8688 65.6767 11.9749 66.8699 12.0116H73.2134C74.4076 11.9919 75.5987 11.8857 76.7773 11.694C80.9945 11.1763 86.7679 10.447 91.0327 14.2234C95.0836 17.7528 97.0557 24.6586 97.0438 35.1291C97.5167 34.9932 98.0134 34.9586 98.5009 35.0275C98.9884 35.0965 99.4554 35.2674 99.871 35.529C101.534 36.6466 102.152 39.3996 101.724 43.7642C101.237 48.5995 99.9781 51.8112 97.9823 53.2935C97.3935 53.7499 96.6836 54.0278 95.9388 54.0935C95.0359 57.2229 89.0133 75.058 70.0892 75.8462H69.9941ZM45.0471 52.823L45.1777 53.3641C45.1777 53.5641 50.322 73.8345 70.0301 74.6698C89.7382 73.8345 94.8225 53.5641 94.8819 53.3641L95.0124 52.823L95.5588 52.9171C95.8717 52.9345 96.1849 52.8905 96.4806 52.7876C96.7762 52.6846 97.0486 52.5247 97.2816 52.3171C98.4696 51.423 99.9426 49.1877 100.501 43.6466C100.988 38.8466 100.049 37.1408 99.1703 36.5879C98.7855 36.3946 98.3603 36.2939 97.9289 36.2939C97.4976 36.2939 97.0723 36.3946 96.6876 36.5879L95.8083 37.0349V35.9996C95.9271 25.5644 94.0382 18.541 90.1893 15.1528C86.3403 11.7646 81.0777 12.3881 76.8724 12.9058C75.6569 13.0906 74.4311 13.2006 73.2018 13.2352H66.834C65.6047 13.2006 64.3789 13.0906 63.1634 12.9058C58.9462 12.3881 53.6598 11.7293 49.8465 15.1528C46.0332 18.5763 44.1087 25.5644 44.2275 35.9996V36.9878L43.3487 36.529C42.964 36.3357 42.5382 36.235 42.1068 36.235C41.6755 36.235 41.2502 36.3357 40.8655 36.529C39.9864 37.1172 39.0478 38.8819 39.5349 43.5877C40.0932 49.1877 41.6138 51.4112 42.8017 52.2935C43.2658 52.6803 43.8593 52.8816 44.4653 52.8582L45.0471 52.823Z" fill="#0D1719"/>
<path d="M61.9178 33.4492C72.4918 27.4034 78.2691 17.7079 74.8214 11.794C71.3736 5.88014 60.0064 5.9873 49.4324 12.0331C38.8584 18.079 33.0816 27.7741 36.5294 33.688C39.9771 39.6019 51.3438 39.495 61.9178 33.4492Z" fill="#0D1719"/>
<path d="M98.24 35.7942C101.928 32.5978 99.8113 24.2275 93.5117 17.0986C87.2121 9.96972 79.1153 6.78199 75.4271 9.97834C71.739 13.1747 73.8563 21.5447 80.1559 28.6735C86.4555 35.8024 94.5518 38.9905 98.24 35.7942Z" fill="#0D1719"/>
<path d="M79 49L101 71" stroke="#6967F9" stroke-width="3" stroke-linecap="round" stroke-linejoin="round"/>
<path d="M101 59V71H89" stroke="#6967F9" stroke-width="3" stroke-linecap="round" stroke-linejoin="round"/>
</g>
<defs>
<clipPath id="clip0_74_571">
<rect width="140" height="125.152" fill="white"/>
</clipPath>
</defs>
</svg>
