<svg width="234" height="71" viewBox="0 0 234 71" fill="none" xmlns="http://www.w3.org/2000/svg">
<g filter="url(#filter0_d_322_39)">
<path d="M18.852 5.568L19.944 5.748C19.944 4.764 20.676 4.02 21.684 4.02C22.608 4.02 23.256 4.512 23.256 5.52C23.256 6.432 22.704 7.068 21.156 7.104V7.896C23.04 7.896 23.436 8.592 23.436 9.54C23.436 10.32 22.824 11.208 21.564 11.208C20.652 11.208 20.112 10.74 19.74 9.972C19.644 9.744 19.584 9.564 19.56 9.432L18.576 9.84C18.996 11.136 19.68 12.156 21.576 12.156C23.22 12.156 24.552 11.124 24.552 9.516C24.552 8.412 23.952 7.68 22.8 7.392C23.76 7.068 24.348 6.492 24.348 5.34C24.348 3.996 23.268 3.06 21.744 3.06C20.244 3.06 19.08 3.972 18.852 5.568ZM26.7444 11.04H25.6524V12.168H26.7444V11.04ZM30.2061 6.48L30.6021 4.176H34.0461V3.168H29.8341L29.1141 7.332L29.8221 7.536C30.3381 7.356 30.7941 7.248 31.2621 7.248C32.5221 7.248 33.2661 7.92 33.2661 9.072C33.2661 10.368 32.3901 11.124 31.1781 11.124C30.4581 11.124 29.7621 10.8 29.2341 10.356L28.6461 11.16C29.1861 11.676 30.0741 12.108 31.1301 12.108C32.9181 12.108 34.3221 10.884 34.3221 9.012C34.3221 7.476 33.3261 6.324 31.4661 6.324C31.0341 6.324 30.6141 6.372 30.2061 6.48ZM47.1901 12.912V2.124H46.2061V12.912H47.1901ZM41.5141 2.952C39.9181 2.952 38.7781 4.416 38.7781 6.708C38.7781 9 39.9181 10.464 41.5141 10.464C43.1101 10.464 44.2501 9 44.2501 6.708C44.2501 4.416 43.1101 2.952 41.5141 2.952ZM41.5141 3.84C42.5581 3.84 43.3021 4.968 43.3021 6.708C43.3021 8.46 42.5581 9.588 41.5141 9.588C40.4581 9.588 39.7141 8.46 39.7141 6.708C39.7141 4.968 40.4581 3.84 41.5141 3.84ZM57.7132 7.38H59.4772V6.552H57.7132V2.136H56.7292V12.888H57.7132V7.38ZM55.7092 3.852H53.0572V2.256H52.0732V3.852H49.3612V4.644H55.7092V3.852ZM52.5772 5.532C51.0652 5.532 49.9732 6.576 49.9732 8.016C49.9732 9.492 51.0652 10.488 52.5772 10.488C54.1132 10.488 55.2052 9.492 55.2052 8.016C55.2052 6.576 54.1132 5.532 52.5772 5.532ZM52.5772 9.672C51.6052 9.672 50.8972 8.976 50.8972 8.016C50.8972 7.056 51.6052 6.348 52.5772 6.348C53.5732 6.348 54.2692 7.056 54.2692 8.016C54.2692 8.976 53.5732 9.672 52.5772 9.672ZM64.3318 7.8H71.7838V6.996H65.3158V3.072H64.3318V7.8ZM72.8998 11.412V10.596H63.1318V11.412H72.8998ZM83.0149 8.508V2.136H82.0309V8.508H83.0149ZM80.8309 7.644L80.7229 6.852C79.0189 7.14 77.6269 7.188 75.7069 7.188V5.7H79.6069V2.772H74.7109V3.576H78.6349V4.944H74.7469V7.992H75.6109C77.5909 7.992 79.0789 7.932 80.8309 7.644ZM83.0149 9.108H76.0549V12.744H83.0149V9.108ZM82.0549 11.952H77.0149V9.888H82.0549V11.952Z" fill="#C2C2C2"/>
<rect x="4" y="3" width="8" height="8" rx="4" fill="#FF6D3B"/>
<path d="M18.852 30.568L19.944 30.748C19.944 29.764 20.676 29.02 21.684 29.02C22.608 29.02 23.256 29.512 23.256 30.52C23.256 31.432 22.704 32.068 21.156 32.104V32.896C23.04 32.896 23.436 33.592 23.436 34.54C23.436 35.32 22.824 36.208 21.564 36.208C20.652 36.208 20.112 35.74 19.74 34.972C19.644 34.744 19.584 34.564 19.56 34.432L18.576 34.84C18.996 36.136 19.68 37.156 21.576 37.156C23.22 37.156 24.552 36.124 24.552 34.516C24.552 33.412 23.952 32.68 22.8 32.392C23.76 32.068 24.348 31.492 24.348 30.34C24.348 28.996 23.268 28.06 21.744 28.06C20.244 28.06 19.08 28.972 18.852 30.568ZM26.7444 36.04H25.6524V37.168H26.7444V36.04ZM30.2061 31.48L30.6021 29.176H34.0461V28.168H29.8341L29.1141 32.332L29.8221 32.536C30.3381 32.356 30.7941 32.248 31.2621 32.248C32.5221 32.248 33.2661 32.92 33.2661 34.072C33.2661 35.368 32.3901 36.124 31.1781 36.124C30.4581 36.124 29.7621 35.8 29.2341 35.356L28.6461 36.16C29.1861 36.676 30.0741 37.108 31.1301 37.108C32.9181 37.108 34.3221 35.884 34.3221 34.012C34.3221 32.476 33.3261 31.324 31.4661 31.324C31.0341 31.324 30.6141 31.372 30.2061 31.48ZM39.6225 32.164H35.6625V33.004H39.6225V32.164ZM47.1788 34.66V33.796H45.8468V28.108H44.8148L40.4828 33.844V34.66H44.8748V37H45.8468V34.66H47.1788ZM44.8748 30.124V33.796H41.6828L44.9228 29.38C44.8868 29.632 44.8748 29.92 44.8748 30.124ZM48.9632 36.04H47.8712V37.168H48.9632V36.04ZM52.4248 31.48L52.8208 29.176H56.2648V28.168H52.0528L51.3328 32.332L52.0408 32.536C52.5568 32.356 53.0128 32.248 53.4808 32.248C54.7408 32.248 55.4848 32.92 55.4848 34.072C55.4848 35.368 54.6088 36.124 53.3968 36.124C52.6768 36.124 51.9808 35.8 51.4528 35.356L50.8648 36.16C51.4048 36.676 52.2928 37.108 53.3488 37.108C55.1368 37.108 56.5408 35.884 56.5408 34.012C56.5408 32.476 55.5448 31.324 53.6848 31.324C53.2528 31.324 52.8328 31.372 52.4248 31.48ZM68.8808 32.188H70.6568V31.372H68.8808V27.124H67.8968V37.912H68.8808V32.188ZM62.0408 34.384V28.972H66.0608V28.156H61.0568V35.224H61.9088C63.9248 35.224 65.3648 35.164 66.9968 34.84L66.8888 34.024C65.3408 34.312 63.9608 34.384 62.0408 34.384ZM80.5079 33.196L80.9279 32.38C79.0439 32.056 76.9919 30.46 76.9919 28.672V27.844H75.9599V28.672C75.9599 30.46 73.9199 32.056 72.0359 32.38L72.4439 33.196C74.0999 32.848 75.7679 31.732 76.4759 30.196C77.1839 31.732 78.8639 32.836 80.5079 33.196ZM81.4079 36.484V35.68H76.9679V33.064H75.9839V35.68H71.6399V36.484H81.4079ZM86.5506 32.8H94.0026V31.996H87.5346V28.072H86.5506V32.8ZM95.1186 36.412V35.596H85.3506V36.412H95.1186ZM105.234 33.508V27.136H104.25V33.508H105.234ZM103.05 32.644L102.942 31.852C101.238 32.14 99.8456 32.188 97.9256 32.188V30.7H101.826V27.772H96.9296V28.576H100.854V29.944H96.9656V32.992H97.8296C99.8096 32.992 101.298 32.932 103.05 32.644ZM105.234 34.108H98.2736V37.744H105.234V34.108ZM104.274 36.952H99.2336V34.888H104.274V36.952Z" fill="#C2C2C2"/>
<rect x="4" y="28" width="8" height="8" rx="4" fill="#FABF48"/>
<path d="M24.96 59.66V58.796H23.628V53.108H22.596L18.264 58.844V59.66H22.656V62H23.628V59.66H24.96ZM22.656 55.124V58.796H19.464L22.704 54.38C22.668 54.632 22.656 54.92 22.656 55.124ZM26.7444 61.04H25.6524V62.168H26.7444V61.04ZM30.2061 56.48L30.6021 54.176H34.0461V53.168H29.8341L29.1141 57.332L29.8221 57.536C30.3381 57.356 30.7941 57.248 31.2621 57.248C32.5221 57.248 33.2661 57.92 33.2661 59.072C33.2661 60.368 32.3901 61.124 31.1781 61.124C30.4581 61.124 29.7621 60.8 29.2341 60.356L28.6461 61.16C29.1861 61.676 30.0741 62.108 31.1301 62.108C32.9181 62.108 34.3221 60.884 34.3221 59.012C34.3221 57.476 33.3261 56.324 31.4661 56.324C31.0341 56.324 30.6141 56.372 30.2061 56.48ZM39.6225 57.164H35.6625V58.004H39.6225V57.164ZM42.5108 56.48L42.9068 54.176H46.3508V53.168H42.1388L41.4188 57.332L42.1268 57.536C42.6428 57.356 43.0988 57.248 43.5668 57.248C44.8268 57.248 45.5708 57.92 45.5708 59.072C45.5708 60.368 44.6948 61.124 43.4828 61.124C42.7628 61.124 42.0668 60.8 41.5388 60.356L40.9508 61.16C41.4908 61.676 42.3788 62.108 43.4348 62.108C45.2228 62.108 46.6268 60.884 46.6268 59.012C46.6268 57.476 45.6308 56.324 43.7708 56.324C43.3388 56.324 42.9188 56.372 42.5108 56.48ZM48.9632 61.04H47.8712V62.168H48.9632V61.04ZM52.4248 56.48L52.8208 54.176H56.2648V53.168H52.0528L51.3328 57.332L52.0408 57.536C52.5568 57.356 53.0128 57.248 53.4808 57.248C54.7408 57.248 55.4848 57.92 55.4848 59.072C55.4848 60.368 54.6088 61.124 53.3968 61.124C52.6768 61.124 51.9808 60.8 51.4528 60.356L50.8648 61.16C51.4048 61.676 52.2928 62.108 53.3488 62.108C55.1368 62.108 56.5408 60.884 56.5408 59.012C56.5408 57.476 55.5448 56.324 53.6848 56.324C53.2528 56.324 52.8328 56.372 52.4248 56.48ZM70.3568 61.508V60.704H65.9648V58.388H69.1808V52.892H68.2208V54.812H62.7248V52.892H61.7528V58.388H64.9688V60.704H60.6008V61.508H70.3568ZM68.2208 57.596H62.7248V55.616H68.2208V57.596ZM81.3719 58.616V57.824H76.9919V56.768H80.2319V56H73.8959V54.944H79.8839V54.2H73.8959V53.204H80.1719V52.436H72.9119V56.768H76.0079V57.824H71.6279V58.616H81.3719ZM76.4999 59.432C74.1119 59.432 72.8159 60.032 72.8159 61.148C72.8159 62.3 74.1119 62.876 76.4999 62.876C78.8879 62.876 80.1839 62.3 80.1839 61.148C80.1839 60.032 78.8879 59.432 76.4999 59.432ZM76.4999 62.132C74.7599 62.132 73.7999 61.82 73.7999 61.148C73.7999 60.512 74.7599 60.164 76.4999 60.164C78.2399 60.164 79.1999 60.512 79.1999 61.148C79.1999 61.82 78.2399 62.132 76.4999 62.132Z" fill="#C2C2C2"/>
<rect x="4" y="53" width="8" height="8" rx="4" fill="#62B22F"/>
<path d="M143.292 6.48L143.688 4.176H147.132V3.168H142.92L142.2 7.332L142.908 7.536C143.424 7.356 143.88 7.248 144.348 7.248C145.608 7.248 146.352 7.92 146.352 9.072C146.352 10.368 145.476 11.124 144.264 11.124C143.544 11.124 142.848 10.8 142.32 10.356L141.732 11.16C142.272 11.676 143.16 12.108 144.216 12.108C146.004 12.108 147.408 10.884 147.408 9.012C147.408 7.476 146.412 6.324 144.552 6.324C144.12 6.324 143.7 6.372 143.292 6.48ZM149.744 11.04H148.652V12.168H149.744V11.04ZM153.206 6.48L153.602 4.176H157.046V3.168H152.834L152.114 7.332L152.822 7.536C153.338 7.356 153.794 7.248 154.262 7.248C155.522 7.248 156.266 7.92 156.266 9.072C156.266 10.368 155.39 11.124 154.178 11.124C153.458 11.124 152.762 10.8 152.234 10.356L151.646 11.16C152.186 11.676 153.074 12.108 154.13 12.108C155.918 12.108 157.322 10.884 157.322 9.012C157.322 7.476 156.326 6.324 154.466 6.324C154.034 6.324 153.614 6.372 153.206 6.48ZM162.623 7.164H158.663V8.004H162.623V7.164ZM166.111 6.48L168.763 3.156H167.383L164.935 6.456C164.167 7.464 163.843 8.352 163.843 9.132C163.843 10.956 165.007 12.156 166.795 12.156C168.595 12.156 169.843 10.884 169.843 9.252C169.843 7.56 168.643 6.6 167.203 6.6C166.615 6.6 166.123 6.768 165.691 7.056C165.775 6.96 165.907 6.768 166.111 6.48ZM166.771 11.232C165.571 11.232 164.911 10.464 164.911 9.312C164.911 8.316 165.667 7.452 166.843 7.452C167.935 7.452 168.739 8.172 168.739 9.336C168.739 10.428 167.935 11.232 166.771 11.232ZM171.963 11.04H170.871V12.168H171.963V11.04ZM175.425 6.48L175.821 4.176H179.265V3.168H175.053L174.333 7.332L175.041 7.536C175.557 7.356 176.013 7.248 176.481 7.248C177.741 7.248 178.485 7.92 178.485 9.072C178.485 10.368 177.609 11.124 176.397 11.124C175.677 11.124 174.981 10.8 174.453 10.356L173.865 11.16C174.405 11.676 175.293 12.108 176.349 12.108C178.137 12.108 179.541 10.884 179.541 9.012C179.541 7.476 178.545 6.324 176.685 6.324C176.253 6.324 175.833 6.372 175.425 6.48ZM191.881 7.188H193.657V6.372H191.881V2.124H190.897V12.912H191.881V7.188ZM185.041 9.384V3.972H189.061V3.156H184.057V10.224H184.909C186.925 10.224 188.365 10.164 189.997 9.84L189.889 9.024C188.341 9.312 186.961 9.384 185.041 9.384ZM203.508 8.196L203.928 7.38C202.044 7.056 199.992 5.46 199.992 3.672V2.844H198.96V3.672C198.96 5.46 196.92 7.056 195.036 7.38L195.444 8.196C197.1 7.848 198.768 6.732 199.476 5.196C200.184 6.732 201.864 7.836 203.508 8.196ZM204.408 11.484V10.68H199.968V8.064H198.984V10.68H194.64V11.484H204.408ZM216.931 7.152H218.371V6.324H216.931V2.124H215.959V12.888H216.931V7.152ZM211.543 3.132H210.727V5.892H209.407V3.132H208.567V10.284H211.543V3.132ZM215.047 3.132H214.219V5.892H212.947V3.132H212.119V10.284H215.047V3.132ZM209.407 6.684H210.727V9.48H209.407V6.684ZM212.947 6.684H214.219V9.48H212.947V6.684ZM220.626 3.156H226.938V4.2H220.65V6.756H228.138V5.988H221.622V4.932H227.91V2.4H220.626V3.156ZM229.158 8.472V7.68H219.402V8.472H229.158ZM227.922 9.468H220.71V12.744H227.922V9.468ZM226.95 11.952H221.67V10.248H226.95V11.952Z" fill="#C2C2C2"/>
<rect x="127" y="4" width="8" height="8" rx="4" fill="#1E76FC"/>
<path d="M143.892 31.48L146.544 28.156H145.164L142.716 31.456C141.948 32.464 141.624 33.352 141.624 34.132C141.624 35.956 142.788 37.156 144.576 37.156C146.376 37.156 147.624 35.884 147.624 34.252C147.624 32.56 146.424 31.6 144.984 31.6C144.396 31.6 143.904 31.768 143.472 32.056C143.556 31.96 143.688 31.768 143.892 31.48ZM144.552 36.232C143.352 36.232 142.692 35.464 142.692 34.312C142.692 33.316 143.448 32.452 144.624 32.452C145.716 32.452 146.52 33.172 146.52 34.336C146.52 35.428 145.716 36.232 144.552 36.232ZM149.744 36.04H148.652V37.168H149.744V36.04ZM153.206 31.48L153.602 29.176H157.046V28.168H152.834L152.114 32.332L152.822 32.536C153.338 32.356 153.794 32.248 154.262 32.248C155.522 32.248 156.266 32.92 156.266 34.072C156.266 35.368 155.39 36.124 154.178 36.124C153.458 36.124 152.762 35.8 152.234 35.356L151.646 36.16C152.186 36.676 153.074 37.108 154.13 37.108C155.918 37.108 157.322 35.884 157.322 34.012C157.322 32.476 156.326 31.324 154.466 31.324C154.034 31.324 153.614 31.372 153.206 31.48ZM170.19 37.912V27.124H169.206V37.912H170.19ZM164.514 27.952C162.918 27.952 161.778 29.416 161.778 31.708C161.778 34 162.918 35.464 164.514 35.464C166.11 35.464 167.25 34 167.25 31.708C167.25 29.416 166.11 27.952 164.514 27.952ZM164.514 28.84C165.558 28.84 166.302 29.968 166.302 31.708C166.302 33.46 165.558 34.588 164.514 34.588C163.458 34.588 162.714 33.46 162.714 31.708C162.714 29.968 163.458 28.84 164.514 28.84ZM182.369 30.724V29.908H180.773V27.136H179.789V33.652H180.773V30.724H182.369ZM178.121 32.956L178.637 32.188C177.101 31.672 176.033 30.304 176.033 28.864V27.676H175.049V28.78C175.049 30.4 174.005 31.9 172.373 32.476L172.889 33.256C174.149 32.776 175.109 31.792 175.553 30.532C176.033 31.636 176.957 32.524 178.121 32.956ZM177.353 33.952C175.157 33.952 173.801 34.672 173.801 35.92C173.801 37.168 175.157 37.876 177.353 37.876C179.525 37.876 180.893 37.168 180.893 35.92C180.893 34.672 179.525 33.952 177.353 33.952ZM177.353 37.108C175.757 37.108 174.785 36.688 174.785 35.92C174.785 35.152 175.757 34.72 177.353 34.72C178.949 34.72 179.909 35.152 179.909 35.92C179.909 36.688 178.949 37.108 177.353 37.108ZM194.712 32.152H196.152V31.324H194.712V27.124H193.74V37.888H194.712V32.152ZM189.324 28.132H188.508V30.892H187.188V28.132H186.348V35.284H189.324V28.132ZM192.828 28.132H192V30.892H190.728V28.132H189.9V35.284H192.828V28.132ZM187.188 31.684H188.508V34.48H187.188V31.684ZM190.728 31.684H192V34.48H190.728V31.684ZM198.407 28.156H204.719V29.2H198.431V31.756H205.919V30.988H199.403V29.932H205.691V27.4H198.407V28.156ZM206.939 33.472V32.68H197.183V33.472H206.939ZM205.703 34.468H198.491V37.744H205.703V34.468ZM204.731 36.952H199.451V35.248H204.731V36.952Z" fill="#C2C2C2"/>
<rect x="127" y="29" width="8" height="8" rx="4" fill="#6967F9"/>
</g>
<defs>
<filter id="filter0_d_322_39" x="0" y="2.12399" width="233.158" height="68.752" filterUnits="userSpaceOnUse" color-interpolation-filters="sRGB">
<feFlood flood-opacity="0" result="BackgroundImageFix"/>
<feColorMatrix in="SourceAlpha" type="matrix" values="0 0 0 0 0 0 0 0 0 0 0 0 0 0 0 0 0 0 127 0" result="hardAlpha"/>
<feOffset dy="4"/>
<feGaussianBlur stdDeviation="2"/>
<feComposite in2="hardAlpha" operator="out"/>
<feColorMatrix type="matrix" values="0 0 0 0 0 0 0 0 0 0 0 0 0 0 0 0 0 0 0.25 0"/>
<feBlend mode="normal" in2="BackgroundImageFix" result="effect1_dropShadow_322_39"/>
<feBlend mode="normal" in="SourceGraphic" in2="effect1_dropShadow_322_39" result="shape"/>
</filter>
</defs>
</svg>
