<svg width="20" height="20" viewBox="0 0 20 20" fill="none" xmlns="http://www.w3.org/2000/svg">
<path d="M17.963 4.46762L10.118 2.5145C10.0404 2.49517 9.95952 2.49517 9.88196 2.5145L2.03691 4.46762C1.81934 4.52179 1.66663 4.71723 1.66663 4.94141C1.66663 5.16571 1.81934 5.36115 2.03691 5.41532L9.88196 7.36844C9.92074 7.37798 9.96029 7.38281 9.99996 7.38281C10.0396 7.38281 10.0792 7.37798 10.118 7.36844L17.3567 5.56613V7.87109C17.3567 8.14079 17.5753 8.35938 17.845 8.35938C18.1147 8.35938 18.3333 8.14079 18.3333 7.87109V4.94141C18.3333 4.71723 18.1806 4.52179 17.963 4.46762Z" fill="#FF6262"/>
<path d="M10.3539 8.31203C10.2383 8.34076 10.1193 8.35539 10 8.35539C9.88073 8.35539 9.76171 8.34076 9.646 8.31203L4.14062 6.94141V11.6106H15.8594V6.94141L10.3539 8.31203Z" fill="#FF6262"/>
<path d="M18.3333 13.082C18.3333 12.8123 18.1147 12.5938 17.845 12.5938H4.10803C2.76183 12.5938 1.66663 13.6889 1.66663 15.0352C1.66663 16.3814 2.76183 17.4766 4.10803 17.4766H17.845C18.1147 17.4766 18.3333 17.258 18.3333 16.9883C18.3333 16.7186 18.1147 16.5 17.845 16.5H4.10803C3.30033 16.5 2.64319 15.8429 2.64319 15.0352C2.64319 14.2275 3.30033 13.5703 4.10803 13.5703H17.845C18.1147 13.5703 18.3333 13.3517 18.3333 13.082Z" fill="#FF6262"/>
<path d="M3.61975 15.0312C3.61975 15.3006 3.83884 15.5195 4.10803 15.5195H17.3567V14.543H4.10803C3.83884 14.543 3.61975 14.7621 3.61975 15.0312Z" fill="#FF6262"/>
</svg>
