<svg width="14" height="14" viewBox="0 0 14 14" fill="none" xmlns="http://www.w3.org/2000/svg">
<g clip-path="url(#clip0_1336_10715)">
<path d="M13.7649 6.25767L7.48353 0.534142C7.20783 0.282881 6.79207 0.282908 6.51647 0.534115L0.235102 6.2577C0.0142473 6.45895 -0.0587057 6.76902 0.0491925 7.04763C0.157118 7.32623 0.419891 7.50624 0.718676 7.50624H1.72192V13.2408C1.72192 13.4681 1.90627 13.6525 2.13363 13.6525H5.57658C5.80395 13.6525 5.9883 13.4682 5.9883 13.2408V9.75895H8.01179V13.2408C8.01179 13.4682 8.19614 13.6525 8.4235 13.6525H11.8663C12.0937 13.6525 12.278 13.4682 12.278 13.2408V7.50624H13.2814C13.5802 7.50624 13.843 7.32621 13.9509 7.04763C14.0587 6.769 13.9857 6.45895 13.7649 6.25767Z" fill="#DDDDDD"/>
<path d="M12.1702 1.16797H9.40527L12.582 4.05645V1.57966C12.582 1.35229 12.3976 1.16797 12.1702 1.16797Z" fill="#DDDDDD"/>
</g>
<defs>
<clipPath id="clip0_1336_10715">
<rect width="14" height="14" fill="white"/>
</clipPath>
</defs>
</svg>
