<svg width="36" height="40" viewBox="0 0 36 40" fill="none" xmlns="http://www.w3.org/2000/svg">
<path d="M0 6C0 2.68629 2.68629 0 6 0H36V40L18 33.5L0 40V6Z" fill="#F21F1F"/>
<path d="M14.4707 22.1367C16.8496 22.1367 18.2715 20.2979 18.2715 17.0508C18.2715 13.8242 16.8428 11.9648 14.4707 11.9648C12.0986 11.9648 10.6631 13.8242 10.6699 17.0508C10.6631 20.291 12.085 22.1367 14.4707 22.1367ZM12.4609 17.0508C12.4678 14.6924 13.2334 13.4482 14.4707 13.4414C15.708 13.4482 16.4736 14.6924 16.4805 17.0508C16.4805 19.4297 15.708 20.6396 14.4707 20.6465C13.2266 20.6396 12.4609 19.4297 12.4609 17.0508ZM23.5013 12.1016H21.7923L19.345 13.6875V15.3145L21.6555 13.8379H21.7102V22H23.5013V12.1016Z" fill="white"/>
</svg>
