<svg width="20" height="20" viewBox="0 0 20 20" fill="none" xmlns="http://www.w3.org/2000/svg">
<path d="M9.11543 11.6797V11.75H10.3107V11.6797C10.3283 10.7246 10.6037 10.3027 11.3068 9.875C12.051 9.41797 12.5021 8.79102 12.5021 7.84766C12.5021 6.51172 11.4826 5.59766 9.95918 5.59766C8.56465 5.59766 7.43965 6.41211 7.39277 7.90625H8.6584C8.71113 7.03906 9.32637 6.65234 9.95918 6.65234C10.6623 6.65234 11.2248 7.11523 11.2248 7.84766C11.2248 8.46289 10.8498 8.89648 10.3576 9.19531C9.58418 9.67578 9.13301 10.1445 9.11543 11.6797ZM8.92793 13.4492C8.92207 13.9062 9.30293 14.2754 9.75996 14.2812C10.2111 14.2754 10.5861 13.9062 10.592 13.4492C10.5861 12.9922 10.2111 12.6172 9.75996 12.6172C9.30293 12.6172 8.92207 12.9922 8.92793 13.4492Z" fill="#497BFE"/>
<circle cx="10" cy="10" r="10" fill="#497BFE" fill-opacity="0.08"/>
</svg>
