<svg width="26" height="26" viewBox="0 0 26 26" fill="none" xmlns="http://www.w3.org/2000/svg">
<path d="M2.45967 20.8H2.60022L9.38128 19.3243C9.51336 19.3023 9.63575 19.2411 9.73259 19.1486L21.2216 7.65952C22.0609 6.82205 22.5292 5.68296 22.5217 4.4974C22.5232 3.30263 22.0565 2.15487 21.2216 1.30012C20.3842 0.460834 19.2452 -0.00742982 18.0595 0.000169473C16.8664 -0.0103888 15.7219 0.472805 14.8974 1.33529L3.44341 12.8243C3.3424 12.9056 3.26876 13.016 3.23258 13.1406L1.75697 19.9216C1.71668 20.1651 1.79496 20.4131 1.9678 20.5892C2.09752 20.7216 2.27433 20.7973 2.45967 20.8ZM18.0595 1.40557C19.7477 1.40543 21.1163 2.77391 21.1165 4.4621C21.1165 4.47387 21.1164 4.48563 21.1163 4.4974C21.1278 5.30165 20.8105 6.07577 20.2379 6.6406L15.9163 2.28386C16.4857 1.71808 17.2568 1.402 18.0595 1.40557ZM14.9325 3.30283L19.2541 7.62441L9.24066 17.6027L4.91908 13.3162L14.9325 3.30283ZM4.35693 14.7217L7.83526 18.2L3.37313 19.1838L4.35693 14.7217Z" fill="white"/>
<path d="M24.7704 24.5938H1.23004C0.841941 24.5938 0.527344 24.9083 0.527344 25.2964C0.527344 25.6845 0.841941 25.9991 1.23004 25.9991H24.7704C25.1585 25.9991 25.4731 25.6845 25.4731 25.2964C25.4731 24.9083 25.1585 24.5938 24.7704 24.5938Z" fill="white"/>
</svg>
