<svg width="36" height="40" viewBox="0 0 36 40" fill="none" xmlns="http://www.w3.org/2000/svg">
<path d="M0 6C0 2.68629 2.68629 0 6 0H36V40L18 33.5L0 40V6Z" fill="#F21F1F"/>
<path d="M14.4707 22.1367C16.8496 22.1367 18.2715 20.2979 18.2715 17.0508C18.2715 13.8242 16.8428 11.9648 14.4707 11.9648C12.0986 11.9648 10.6631 13.8242 10.6699 17.0508C10.6631 20.291 12.085 22.1367 14.4707 22.1367ZM12.4609 17.0508C12.4678 14.6924 13.2334 13.4482 14.4707 13.4414C15.708 13.4482 16.4736 14.6924 16.4805 17.0508C16.4805 19.4297 15.708 20.6396 14.4707 20.6465C13.2266 20.6396 12.4609 19.4297 12.4609 17.0508ZM23.0774 22.1367C25.2171 22.1367 26.7825 20.9268 26.7688 19.252C26.7825 18.0078 25.9895 17.1123 24.595 16.9277V16.8457C25.6751 16.6201 26.4134 15.8203 26.3997 14.7129C26.4134 13.1953 25.1145 11.9648 23.1048 11.9648C21.1702 11.9648 19.6595 13.1064 19.6184 14.7676H21.3274C21.3616 13.9336 22.1614 13.4141 23.0911 13.4141C24.055 13.4141 24.6839 13.9746 24.677 14.8086C24.6839 15.6699 23.9524 16.2578 22.8997 16.2578H22.011V17.625H22.8997C24.1848 17.6318 24.9505 18.2676 24.9505 19.1562C24.9505 20.0381 24.1643 20.6396 23.0774 20.6328C22.0452 20.6396 21.2522 20.1133 21.2044 19.3203H19.4134C19.4544 20.9883 20.9651 22.1367 23.0774 22.1367Z" fill="white"/>
</svg>
