<svg width="48" height="48" viewBox="0 0 48 48" fill="none" xmlns="http://www.w3.org/2000/svg">
<path fill-rule="evenodd" clip-rule="evenodd" d="M24 48C10.7662 48 0 37.2337 0 24C0 10.7662 10.7662 0 24 0C37.2337 0 48 10.7662 48 24C48 37.2338 37.2337 48 24 48ZM33.3686 17.4562C33.1151 17.203 32.7714 17.0607 32.413 17.0607C32.0546 17.0607 31.7109 17.203 31.4573 17.4562L21.237 27.6759L16.5431 22.9808C16.4179 22.8536 16.2687 22.7524 16.1041 22.6832C15.9396 22.614 15.763 22.578 15.5845 22.5774C15.406 22.5767 15.2291 22.6115 15.0641 22.6795C14.8991 22.7476 14.7492 22.8477 14.623 22.974C14.4969 23.1003 14.397 23.2503 14.3291 23.4154C14.2612 23.5805 14.2267 23.7574 14.2276 23.9359C14.2284 24.1144 14.2646 24.291 14.334 24.4555C14.4035 24.6199 14.5048 24.769 14.6321 24.8941L20.2817 30.5437C20.5354 30.7972 20.8793 30.9395 21.2379 30.9395C21.5965 30.9395 21.9405 30.7972 22.1942 30.5437L33.3692 19.3688C33.4949 19.2432 33.5946 19.0941 33.6626 18.93C33.7306 18.7659 33.7656 18.59 33.7655 18.4124C33.7655 18.2347 33.7304 18.0589 33.6623 17.8948C33.5942 17.7307 33.4944 17.5817 33.3686 17.4562Z" fill="#24AC32"/>
</svg>
