<svg width="26" height="26" viewBox="0 0 26 26" fill="none" xmlns="http://www.w3.org/2000/svg">
<g clip-path="url(#clip0_925_263)">
<path d="M17.2391 13.848H0.847826C0.379824 13.848 0 13.4682 0 13.0002C0 12.5322 0.379824 12.1523 0.847826 12.1523H17.2391C17.7071 12.1523 18.0869 12.5322 18.0869 13.0002C18.0869 13.4682 17.7071 13.848 17.2391 13.848Z" fill="#CCCCCC"/>
<path d="M12.7172 18.37C12.5001 18.37 12.2832 18.2876 12.118 18.1214C11.7868 17.7902 11.7868 17.2533 12.118 16.9219L16.0407 12.9994L12.118 9.07679C11.7868 8.74561 11.7868 8.20847 12.118 7.87729C12.4494 7.54611 12.9863 7.54611 13.3175 7.87729L17.8392 12.3992C18.1704 12.7304 18.1704 13.2673 17.8392 13.5985L13.3175 18.1201C13.1513 18.2876 12.9344 18.37 12.7172 18.37Z" fill="#CCCCCC"/>
<path d="M13.5652 25.4361C8.42052 25.4361 3.87857 22.341 1.99186 17.55C1.82006 17.116 2.03471 16.6231 2.47001 16.4513C2.90406 16.2818 3.39815 16.4932 3.56995 16.9307C5.19895 21.067 9.12263 23.7405 13.5652 23.7405C19.4864 23.7405 24.3044 18.9224 24.3044 13.0013C24.3044 7.08014 19.4864 2.26206 13.5652 2.26206C9.12263 2.26206 5.19895 4.93553 3.56995 9.07178C3.3969 9.50936 2.90406 9.72069 2.47001 9.55117C2.03471 9.37937 1.82006 8.88653 1.99186 8.45247C3.87857 3.66151 8.42052 0.566406 13.5652 0.566406C20.4213 0.566406 26.0001 6.14517 26.0001 13.0013C26.0001 19.8573 20.4213 25.4361 13.5652 25.4361Z" fill="#CCCCCC"/>
</g>
<defs>
<clipPath id="clip0_925_263">
<rect width="26" height="26" fill="white"/>
</clipPath>
</defs>
</svg>
