<svg width="18" height="18" viewBox="0 0 18 18" fill="none" xmlns="http://www.w3.org/2000/svg">
<path d="M9 17C13.4183 17 17 13.4183 17 9C17 4.58172 13.4183 1 9 1C4.58172 1 1 4.58172 1 9C1 13.4183 4.58172 17 9 17Z" fill="white" stroke="#1E76FC" stroke-width="0.7" stroke-miterlimit="10"/>
<path d="M7.28269 10.7707C7.7039 10.7707 8.04535 10.4292 8.04535 10.008C8.04535 9.58682 7.7039 9.24536 7.28269 9.24536C6.86148 9.24536 6.52002 9.58682 6.52002 10.008C6.52002 10.4292 6.86148 10.7707 7.28269 10.7707Z" fill="#1E76FC"/>
<path d="M10.7173 10.7707C11.1385 10.7707 11.4799 10.4292 11.4799 10.008C11.4799 9.58682 11.1385 9.24536 10.7173 9.24536C10.296 9.24536 9.95459 9.58682 9.95459 10.008C9.95459 10.4292 10.296 10.7707 10.7173 10.7707Z" fill="#1E76FC"/>
<path d="M10.2053 11.384C10.2053 10.7174 9.66668 10.824 9.00001 10.824C8.33334 10.824 7.79468 10.7174 7.79468 11.384C7.79468 12.0507 8.33334 12.5894 9.00001 12.5894C9.66668 12.5894 10.2053 12.0507 10.2053 11.384Z" fill="#1E76FC"/>
</svg>
