<svg xmlns="http://www.w3.org/2000/svg" xmlns:xlink="http://www.w3.org/1999/xlink" width="40" height="40" viewBox="0 0 40 40">
  <defs>
    <clipPath id="clip-path">
      <rect id="사각형_27254" data-name="사각형 27254" width="40" height="40" transform="translate(215 224)" fill="#fff" stroke="#707070" stroke-width="1"/>
    </clipPath>
    <clipPath id="clip-path-2">
      <rect id="사각형_27253" data-name="사각형 27253" width="25.675" height="30.189" fill="none"/>
    </clipPath>
  </defs>
  <g id="icon_tendency23" transform="translate(-215 -224)" clip-path="url(#clip-path)">
    <g id="그룹_21175" data-name="그룹 21175" transform="translate(222 228.999)">
      <g id="그룹_21174" data-name="그룹 21174" transform="translate(0 0)" clip-path="url(#clip-path-2)">
        <path id="패스_10561" data-name="패스 10561" d="M22.454,7.082V4.48H4.514v2.6a8.95,8.95,0,0,0,3.147,6.823,2.385,2.385,0,0,1,0,3.635,8.95,8.95,0,0,0-3.147,6.823v2.6h17.94v-2.6a8.95,8.95,0,0,0-3.147-6.823,2.385,2.385,0,0,1,0-3.635,8.95,8.95,0,0,0,3.147-6.823" transform="translate(-0.619 -0.614)" fill="#d9e8ff"/>
        <path id="패스_10562" data-name="패스 10562" d="M23.612,4.2H2.552a.768.768,0,1,1,0-1.535h21.06a.768.768,0,1,1,0,1.535" transform="translate(-0.245 -0.366)" fill="#dea17f"/>
        <path id="패스_10563" data-name="패스 10563" d="M23.612,32.074H2.552a.768.768,0,1,1,0-1.535h21.06a.768.768,0,1,1,0,1.535" transform="translate(-0.245 -4.188)" fill="#dea17f"/>
        <path id="패스_10564" data-name="패스 10564" d="M24.524,2.3H1.152a1.151,1.151,0,1,1,0-2.3H24.524a1.151,1.151,0,0,1,0,2.3" transform="translate(0 0)" fill="#e4b393"/>
        <path id="패스_10565" data-name="패스 10565" d="M5.546,2.669a.768.768,0,1,0,0,1.535H2.553a.768.768,0,1,1,0-1.535H5.546Z" transform="translate(-0.245 -0.366)" fill="#d99062"/>
        <path id="패스_10566" data-name="패스 10566" d="M1.151,0H3.21a1.151,1.151,0,0,0,0,2.3H1.151a1.151,1.151,0,0,1,0-2.3" transform="translate(0 0)" fill="#dea17f"/>
        <path id="패스_10567" data-name="패스 10567" d="M24.524,34.621H1.152a1.151,1.151,0,1,1,0-2.3H24.524a1.151,1.151,0,0,1,0,2.3" transform="translate(0 -4.432)" fill="#e4b393"/>
        <path id="패스_10568" data-name="패스 10568" d="M5.582,29.961h16.1a10.72,10.72,0,0,0-16.1,0" transform="translate(-0.765 -3.609)" fill="#f8d08b"/>
        <path id="패스_10569" data-name="패스 10569" d="M21.116,7.1c-2-.182-6.206,1.106-6.206,1.106l6.639,2.07a7.013,7.013,0,0,0,.512-2.046,1.042,1.042,0,0,0-.945-1.13" transform="translate(-2.045 -0.972)" fill="#f8d08b"/>
        <path id="패스_10570" data-name="패스 10570" d="M7.424,7.1a1.042,1.042,0,0,0-.945,1.13,6.981,6.981,0,0,0,4.138,5.737l.015.008a2.171,2.171,0,0,1,1.192,1.957V22.2h.031a7.36,7.36,0,0,0-3.792,2.3l-2.481,2.82H20.324L17.843,24.5a7.386,7.386,0,0,0-1.983-1.594.809.809,0,0,1-.424-.707V15.936a2.171,2.171,0,0,1,1.192-1.957l.015-.008a7.126,7.126,0,0,0,3.626-3.691L13.63,8.21S9.422,6.922,7.424,7.1" transform="translate(-0.765 -0.972)" fill="#f7c56f"/>
        <path id="패스_10571" data-name="패스 10571" d="M5.546,32.074a.768.768,0,1,1,0-1.535H2.553a.768.768,0,1,0,0,1.535H5.546Z" transform="translate(-0.245 -4.188)" fill="#d99062"/>
        <path id="패스_10572" data-name="패스 10572" d="M1.151,34.621H3.21a1.151,1.151,0,0,1,0-2.3H1.151a1.151,1.151,0,0,0,0,2.3" transform="translate(0 -4.432)" fill="#dea17f"/>
      </g>
    </g>
  </g>
</svg>
