<svg xmlns="http://www.w3.org/2000/svg" xmlns:xlink="http://www.w3.org/1999/xlink" width="50" height="63.496" viewBox="0 0 50 63.496">
  <defs>
    <clipPath id="clip-path">
      <rect id="사각형_26315" data-name="사각형 26315" width="41.702" height="22.898" fill="none"/>
    </clipPath>
    <filter id="상">
      <feOffset dx="1" input="SourceAlpha"/>
      <feGaussianBlur stdDeviation="1" result="blur"/>
      <feFlood flood-opacity="0.161" result="color"/>
      <feComposite operator="out" in="SourceGraphic" in2="blur"/>
      <feComposite operator="in" in="color"/>
      <feComposite operator="in" in2="SourceGraphic"/>
    </filter>
  </defs>
  <g id="img_good" transform="translate(-1670 -976.752)">
    <g id="그룹_20458" data-name="그룹 20458" transform="translate(71 93.248)">
      <path id="패스_9479" data-name="패스 9479" d="M49.13,34.4A25,25,0,1,1,18.447,3.72l2.144,2.144A22.433,22.433,0,0,1,46.984,32.257Z" transform="translate(1599 894.149)" fill="#84ccf2"/>
      <path id="패스_9480" data-name="패스 9480" d="M110.463,25a24.927,24.927,0,0,1-.87,6.553l-2.146-2.146A22.433,22.433,0,0,0,81.054,3.013L78.91.87A25.014,25.014,0,0,1,110.463,25" transform="translate(1538.537 897)" fill="#aed2f0"/>
      <path id="패스_9481" data-name="패스 9481" d="M55.878,33.456A22.433,22.433,0,1,1,33.459,11.035,22.447,22.447,0,0,1,55.878,33.456" transform="translate(1590.541 888.545)" fill="#68c1f0"/>
      <path id="패스_9482" data-name="패스 9482" d="M69.4,37.078A22.459,22.459,0,0,1,37.7,68.9,22.39,22.39,0,0,0,75.872,57.752,22.591,22.591,0,0,0,69.4,37.078" transform="translate(1570.113 868.59)" fill="#fff"/>
      <g id="그룹_20191" data-name="그룹 20191" transform="translate(1604.688 899.478)" opacity="0.8" style="mix-blend-mode: overlay;isolation: isolate">
        <g id="그룹_20190" data-name="그룹 20190">
          <g id="그룹_20189" data-name="그룹 20189" clip-path="url(#clip-path)">
            <path id="패스_9483" data-name="패스 9483" d="M27.721,17.2a22.478,22.478,0,0,1,31.764-.058A22.315,22.315,0,0,1,66.027,33.5,22.39,22.39,0,0,0,31.154,15.344a22.615,22.615,0,0,0-3.435,2.82l-3.388,3.563Z" transform="translate(-24.331 -10.598)"/>
          </g>
        </g>
      </g>
      <rect id="사각형_26317" data-name="사각형 26317" width="50" height="50" transform="translate(1599 897)" fill="none"/>
      <rect id="사각형_26318" data-name="사각형 26318" width="50" height="50" transform="translate(1599 897)" fill="none"/>
    </g>
    <g data-type="innerShadowGroup">
      <text id="상-2" data-name="상" transform="translate(1687 1022.248)" fill="#158fe4" font-size="18" font-family="SpoqaHanSansNeo-Bold, Spoqa Han Sans Neo" font-weight="700"><tspan x="0" y="0">상</tspan></text>
      <g transform="matrix(1, 0, 0, 1, 1670, 976.75)" filter="url(#상)">
        <text id="상-3" data-name="상" transform="translate(17 45.5)" fill="#fff" font-size="18" font-family="SpoqaHanSansNeo-Bold, Spoqa Han Sans Neo" font-weight="700"><tspan x="0" y="0">상</tspan></text>
      </g>
    </g>
    <g id="그룹_20459" data-name="그룹 20459" transform="translate(1680.723 968.977)">
      <path id="패스_9485" data-name="패스 9485" d="M106.94,33.261v6.355l2.112-2.863Z" transform="translate(-92.619 -25.485)" fill="#bbe2f7"/>
      <path id="패스_9486" data-name="패스 9486" d="M84.059,33.261v6.355l-2.112-2.863Z" transform="translate(-69.737 -25.485)" fill="#2fa1d3"/>
      <path id="패스_9487" data-name="패스 9487" d="M35.407,75.163l6.044,1.964-2.07-2.893Z" transform="translate(-27.129 -62.997)" fill="#53bafb"/>
      <path id="패스_9488" data-name="패스 9488" d="M35.407,85.233,41.45,87.2,38.075,88.32Z" transform="translate(-27.129 -73.066)" fill="#079de0"/>
      <path id="패스_9489" data-name="패스 9489" d="M62.73,113.616l3.735-5.141-3.391,1.075Z" transform="translate(-52.144 -94.345)" fill="#30aae3"/>
      <path id="패스_9490" data-name="패스 9490" d="M62.73,113.616l3.735-5.141.025,3.557Z" transform="translate(-52.144 -94.345)" fill="#0e9de0"/>
      <path id="패스_9491" data-name="패스 9491" d="M110.4,113.616l-3.735-5.141-.025,3.557Z" transform="translate(-92.343 -94.345)" fill="#40b8ee"/>
      <path id="패스_9492" data-name="패스 9492" d="M110.675,113.616l-3.735-5.141,3.391,1.075Z" transform="translate(-92.619 -94.345)" fill="#bbe2f7"/>
      <path id="패스_9493" data-name="패스 9493" d="M112.984,85.233,106.94,87.2l3.375,1.123Z" transform="translate(-92.619 -73.066)" fill="#2fa1d3"/>
      <path id="패스_9494" data-name="패스 9494" d="M112.984,75.163l-6.044,1.964,2.07-2.893Z" transform="translate(-92.619 -62.997)" fill="#93d2ea"/>
    </g>
    <g id="그룹_20483" data-name="그룹 20483" transform="translate(1668.982 973.568)">
      <path id="패스_9485-2" data-name="패스 9485" d="M106.94,33.261v4.595l1.527-2.07Z" transform="translate(-94.292 -25.485)" fill="#bbe2f7"/>
      <path id="패스_9486-2" data-name="패스 9486" d="M83.474,33.261v4.595l-1.527-2.07Z" transform="translate(-70.826 -25.485)" fill="#2fa1d3"/>
      <path id="패스_9487-2" data-name="패스 9487" d="M35.407,74.906l4.37,1.42-1.5-2.092Z" transform="translate(-27.129 -63.955)" fill="#53bafb"/>
      <path id="패스_9488-2" data-name="패스 9488" d="M35.407,85.233l4.37,1.42-2.441.812Z" transform="translate(-27.129 -74.282)" fill="#079de0"/>
      <path id="패스_9489-2" data-name="패스 9489" d="M62.73,112.193l2.7-3.717-2.452.777Z" transform="translate(-52.783 -96.105)" fill="#30aae3"/>
      <path id="패스_9490-2" data-name="패스 9490" d="M62.73,112.193l2.7-3.717.018,2.572Z" transform="translate(-52.783 -96.105)" fill="#0e9de0"/>
      <path id="패스_9491-2" data-name="패스 9491" d="M109.358,112.193l-2.7-3.717-.018,2.572Z" transform="translate(-94.01 -96.105)" fill="#40b8ee"/>
      <path id="패스_9492-2" data-name="패스 9492" d="M109.641,112.193l-2.7-3.717,2.452.777Z" transform="translate(-94.292 -96.105)" fill="#bbe2f7"/>
      <path id="패스_9493-2" data-name="패스 9493" d="M111.31,85.233l-4.37,1.42,2.441.812Z" transform="translate(-94.293 -74.282)" fill="#2fa1d3"/>
      <path id="패스_9494-2" data-name="패스 9494" d="M111.31,74.906l-4.37,1.42,1.5-2.092Z" transform="translate(-94.293 -63.955)" fill="#93d2ea"/>
    </g>
    <g id="그룹_20484" data-name="그룹 20484" transform="translate(1695.81 973.568)">
      <path id="패스_9485-3" data-name="패스 9485" d="M106.94,33.261v4.595l1.527-2.07Z" transform="translate(-94.292 -25.485)" fill="#bbe2f7"/>
      <path id="패스_9486-3" data-name="패스 9486" d="M83.474,33.261v4.595l-1.527-2.07Z" transform="translate(-70.826 -25.485)" fill="#2fa1d3"/>
      <path id="패스_9487-3" data-name="패스 9487" d="M35.407,74.906l4.37,1.42-1.5-2.092Z" transform="translate(-27.129 -63.955)" fill="#53bafb"/>
      <path id="패스_9488-3" data-name="패스 9488" d="M35.407,85.233l4.37,1.42-2.441.812Z" transform="translate(-27.129 -74.282)" fill="#079de0"/>
      <path id="패스_9489-3" data-name="패스 9489" d="M62.73,112.193l2.7-3.717-2.452.777Z" transform="translate(-52.783 -96.105)" fill="#30aae3"/>
      <path id="패스_9490-3" data-name="패스 9490" d="M62.73,112.193l2.7-3.717.018,2.572Z" transform="translate(-52.783 -96.105)" fill="#0e9de0"/>
      <path id="패스_9491-3" data-name="패스 9491" d="M109.358,112.193l-2.7-3.717-.018,2.572Z" transform="translate(-94.01 -96.105)" fill="#40b8ee"/>
      <path id="패스_9492-3" data-name="패스 9492" d="M109.641,112.193l-2.7-3.717,2.452.777Z" transform="translate(-94.292 -96.105)" fill="#bbe2f7"/>
      <path id="패스_9493-3" data-name="패스 9493" d="M111.31,85.233l-4.37,1.42,2.441.812Z" transform="translate(-94.293 -74.282)" fill="#2fa1d3"/>
      <path id="패스_9494-3" data-name="패스 9494" d="M111.31,74.906l-4.37,1.42,1.5-2.092Z" transform="translate(-94.293 -63.955)" fill="#93d2ea"/>
    </g>
  </g>
</svg>
