<svg xmlns="http://www.w3.org/2000/svg" xmlns:xlink="http://www.w3.org/1999/xlink" width="120" height="120" viewBox="0 0 120 120">
  <defs>
    <clipPath id="clip-path">
      <rect id="사각형_26922" data-name="사각형 26922" width="120" height="120" transform="translate(1232 879)" fill="#fff" stroke="#707070" stroke-width="1"/>
    </clipPath>
  </defs>
  <g id="img_user" transform="translate(-1232 -879)" clip-path="url(#clip-path)">
    <g id="그룹_20294" data-name="그룹 20294" transform="translate(-4.847 -8.493)">
      <g id="icon_alone" transform="translate(1269.687 912.286)">
        <path id="패스_2718" data-name="패스 2718" d="M75.008,85.462a17.482,17.482,0,1,0-18.928,0A24.03,24.03,0,0,0,38.6,108.548v3.838a1.857,1.857,0,0,0,1.856,1.856H90.627a1.857,1.857,0,0,0,1.859-1.856v-3.838A24.03,24.03,0,0,0,75.008,85.462ZM51.777,70.785A13.77,13.77,0,1,1,65.546,84.556,13.77,13.77,0,0,1,51.777,70.785Zm37,39.745H42.313v-1.982A20.3,20.3,0,0,1,62.6,88.268H68.49a20.3,20.3,0,0,1,20.284,20.28Z" transform="translate(-38.385 -33.146)" fill="#3b61d5"/>
        <path id="패스_2721" data-name="패스 2721" d="M86.808,44.723l-2.8,2.8a1.856,1.856,0,0,0,2.625,2.625l2.8-2.8a1.856,1.856,0,1,0-2.625-2.626Z" transform="translate(-35.659 -33.699)" fill="#3b61d5"/>
        <path id="패스_2722" data-name="패스 2722" d="M64.106,41.978a1.857,1.857,0,0,0,1.856-1.856V36.155a1.856,1.856,0,1,0-3.713,0v3.966a1.857,1.857,0,0,0,1.856,1.856Z" transform="translate(-36.948 -34.299)" fill="#3b61d5"/>
        <path id="패스_2723" data-name="패스 2723" d="M41.745,50.152a1.856,1.856,0,0,0,2.625-2.625l-2.8-2.8a1.856,1.856,0,1,0-2.625,2.626Z" transform="translate(-38.397 -33.699)" fill="#3b61d5"/>
      </g>
      <path id="패스_2736" data-name="패스 2736" d="M61.591,73.6a11.04,11.04,0,1,0-11.953,0A15.174,15.174,0,0,0,38.6,88.18V90.6a1.173,1.173,0,0,0,1.172,1.172H71.454A1.173,1.173,0,0,0,72.628,90.6V88.18A15.174,15.174,0,0,0,61.591,73.6Zm-14.67-9.268a8.7,8.7,0,1,1,8.695,8.7,8.7,8.7,0,0,1-8.695-8.7Zm23.363,25.1H40.944V88.18A12.821,12.821,0,0,1,53.753,75.374h3.722A12.821,12.821,0,0,1,70.284,88.18Z" transform="translate(1282.274 853)" fill="rgba(59,97,213,0.3)"/>
      <path id="패스_2737" data-name="패스 2737" d="M61.591,73.6a11.04,11.04,0,1,0-11.953,0A15.174,15.174,0,0,0,38.6,88.18V90.6a1.173,1.173,0,0,0,1.172,1.172H71.454A1.173,1.173,0,0,0,72.628,90.6V88.18A15.174,15.174,0,0,0,61.591,73.6Zm-14.67-9.268a8.7,8.7,0,1,1,8.695,8.7,8.7,8.7,0,0,1-8.695-8.7Zm23.363,25.1H40.944V88.18A12.821,12.821,0,0,1,53.753,75.374h3.722A12.821,12.821,0,0,1,70.284,88.18Z" transform="translate(1200.193 853)" fill="rgba(59,97,213,0.3)"/>
    </g>
  </g>
</svg>
