<svg xmlns="http://www.w3.org/2000/svg" width="94.577" height="90.573" viewBox="0 0 94.577 90.573"><defs><style>.a{fill:#e9f4ff;}</style></defs><g transform="translate(-1341.5 -2345.71)"><g transform="translate(1436.077 2436.282) rotate(180)"><rect class="a" width="41.377" height="41.377" rx="2" transform="translate(0 49.195)"/><path class="a" d="M0,55.769C.5,55.6-4.174,15.864,32.058,0c.5-.167,8.682,12.189,8.682,12.189S18.2,20.339,18.2,54.768s-6.679,22.04-6.679,22.04Z" transform="translate(0 0)"/></g><g transform="translate(1382.877 2436.282) rotate(180)"><rect class="a" width="41.377" height="41.377" rx="2" transform="translate(0 49.195)"/><path class="a" d="M0,55.769C.5,55.6-4.174,15.864,32.058,0c.5-.167,8.682,12.189,8.682,12.189S18.2,20.339,18.2,54.768s-6.679,22.04-6.679,22.04Z" transform="translate(0 0)"/></g></g></svg>