<svg xmlns="http://www.w3.org/2000/svg" xmlns:xlink="http://www.w3.org/1999/xlink" width="168.963" height="169.663" viewBox="0 0 168.963 169.663"><defs><style>.a{fill:#e2e2e2;}.b{fill:url(#a);}</style><linearGradient id="a" x1="0.008" y1="-0.112" x2="0.962" y2="1.092" gradientUnits="objectBoundingBox"><stop offset="0" stop-color="#54adff"/><stop offset="1" stop-color="#2eeee3"/></linearGradient></defs><g transform="translate(-736 -684.5)"><path class="a" d="M86.27,0H42.711A11.822,11.822,0,0,0,34.29,3.532L3.491,34.758A12.148,12.148,0,0,0,0,43.288V87.442a12.152,12.152,0,0,0,3.491,8.536L34.29,127.2a11.826,11.826,0,0,0,8.422,3.538H86.27a11.822,11.822,0,0,0,8.415-3.538L125.49,95.978a12.15,12.15,0,0,0,3.484-8.536V43.288a12.146,12.146,0,0,0-3.484-8.53L94.685,3.532A11.818,11.818,0,0,0,86.27,0Z" transform="translate(756.079 704.12)"/><path class="b" d="M86.845,0,43.2.207a11.981,11.981,0,0,0-8.454,3.565l-31,31.313a12.216,12.216,0,0,0-3.538,8.53L0,87.686a11.992,11.992,0,0,0,3.458,8.5L34.169,127.2a11.759,11.759,0,0,0,8.421,3.492l43.642-.207a11.982,11.982,0,0,0,8.448-3.572l31.01-31.307a12.218,12.218,0,0,0,3.53-8.537L129.428,43a11.986,11.986,0,0,0-3.451-8.5L95.259,3.485A11.751,11.751,0,0,0,86.845,0Z" transform="translate(736 732.985) rotate(-22)"/></g></svg>