<svg width="327" height="133" viewBox="0 0 327 133" fill="none" xmlns="http://www.w3.org/2000/svg">
<path d="M1.672 112.803H8.503V112.066H2.574V108.469H1.672V112.803ZM9.526 116.114V115.366H0.572V116.114H9.526ZM18.7981 113.452V107.611H17.8961V113.452H18.7981ZM16.7961 112.66L16.6971 111.934C15.1351 112.198 13.8591 112.242 12.0991 112.242V110.878H15.6741V108.194H11.1861V108.931H14.7831V110.185H11.2191V112.979H12.0111C13.8261 112.979 15.1901 112.924 16.7961 112.66ZM18.7981 114.002H12.4181V117.335H18.7981V114.002ZM17.9181 116.609H13.2981V114.717H17.9181V116.609Z" fill="#C2C2C2"/>
<path d="M8.437 6.556H9.757V5.797H8.437V1.947H7.546V11.814H8.437V6.556ZM3.498 2.871H2.75V5.401H1.54V2.871H0.77V9.427H3.498V2.871ZM6.71 2.871H5.951V5.401H4.785V2.871H4.026V9.427H6.71V2.871ZM1.54 6.127H2.75V8.69H1.54V6.127ZM4.785 6.127H5.951V8.69H4.785V6.127ZM11.8241 2.893H17.6101V3.85H11.8461V6.193H18.7101V5.489H12.7371V4.521H18.5011V2.2H11.8241V2.893ZM19.6451 7.766V7.04H10.7021V7.766H19.6451ZM18.5121 8.679H11.9011V11.682H18.5121V8.679ZM17.6211 10.956H12.7811V9.394H17.6211V10.956Z" fill="#C2C2C2"/>
<path d="M30.6685 44H326" stroke="#DFE0EB" stroke-dasharray="2 3"/>
<path d="M30.6685 78.6667H326" stroke="#DFE0EB" stroke-dasharray="2 3"/>
<path d="M30.6685 9.3645H326" stroke="#DFE0EB" stroke-dasharray="2 3"/>
<path d="M30.6685 113.333H326" stroke="#DFE0EB"/>
<path d="M44.786 130V129.186H43.202V121.893H42.399L40.232 123.763L40.771 124.412L42.234 123.103C42.223 123.18 42.223 123.279 42.223 123.378V129.186H40.43V130H44.786ZM47.0157 129.12H46.0147V130.154H47.0157V129.12ZM54.3469 125.985C54.3469 123.114 53.0489 121.805 51.3879 121.805C49.7159 121.805 48.4289 123.114 48.4289 125.985C48.4289 128.845 49.7159 130.154 51.3879 130.154C53.0489 130.154 54.3469 128.845 54.3469 125.985ZM53.3349 125.985C53.3349 128.493 52.4109 129.34 51.3879 129.34C50.3649 129.34 49.4519 128.493 49.4519 125.985C49.4519 123.466 50.3649 122.63 51.3879 122.63C52.4109 122.63 53.3349 123.466 53.3349 125.985Z" fill="#C2C2C2"/>
<path d="M68.786 130V129.186H67.202V121.893H66.399L64.232 123.763L64.771 124.412L66.234 123.103C66.223 123.18 66.223 123.279 66.223 123.378V129.186H64.43V130H68.786ZM71.0157 129.12H70.0147V130.154H71.0157V129.12ZM74.1889 124.94L74.5519 122.828H77.7089V121.904H73.8479L73.1879 125.721L73.8369 125.908C74.3099 125.743 74.7279 125.644 75.1569 125.644C76.3119 125.644 76.9939 126.26 76.9939 127.316C76.9939 128.504 76.1909 129.197 75.0799 129.197C74.4199 129.197 73.7819 128.9 73.2979 128.493L72.7589 129.23C73.2539 129.703 74.0679 130.099 75.0359 130.099C76.6749 130.099 77.9619 128.977 77.9619 127.261C77.9619 125.853 77.0489 124.797 75.3439 124.797C74.9479 124.797 74.5629 124.841 74.1889 124.94Z" fill="#C2C2C2"/>
<path d="M92.995 130V129.109H89.816C89.541 129.109 89.211 129.153 88.903 129.241L91.158 127.008C92.071 126.095 92.841 125.259 92.841 124.06C92.841 122.63 91.774 121.794 90.399 121.794C89.024 121.794 87.957 122.597 87.748 124.082L88.738 124.247C88.738 123.323 89.42 122.663 90.344 122.663C91.18 122.663 91.796 123.114 91.829 124.082C91.829 125.028 91.213 125.721 90.366 126.623L87.583 129.296V130H92.995ZM95.0157 129.12H94.0147V130.154H95.0157V129.12ZM102.347 125.985C102.347 123.114 101.049 121.805 99.3879 121.805C97.7159 121.805 96.4289 123.114 96.4289 125.985C96.4289 128.845 97.7159 130.154 99.3879 130.154C101.049 130.154 102.347 128.845 102.347 125.985ZM101.335 125.985C101.335 128.493 100.411 129.34 99.3879 129.34C98.3649 129.34 97.4519 128.493 97.4519 125.985C97.4519 123.466 98.3649 122.63 99.3879 122.63C100.411 122.63 101.335 123.466 101.335 125.985Z" fill="#C2C2C2"/>
<path d="M116.995 130V129.109H113.816C113.541 129.109 113.211 129.153 112.903 129.241L115.158 127.008C116.071 126.095 116.841 125.259 116.841 124.06C116.841 122.63 115.774 121.794 114.399 121.794C113.024 121.794 111.957 122.597 111.748 124.082L112.738 124.247C112.738 123.323 113.42 122.663 114.344 122.663C115.18 122.663 115.796 123.114 115.829 124.082C115.829 125.028 115.213 125.721 114.366 126.623L111.583 129.296V130H116.995ZM119.016 129.12H118.015V130.154H119.016V129.12ZM122.189 124.94L122.552 122.828H125.709V121.904H121.848L121.188 125.721L121.837 125.908C122.31 125.743 122.728 125.644 123.157 125.644C124.312 125.644 124.994 126.26 124.994 127.316C124.994 128.504 124.191 129.197 123.08 129.197C122.42 129.197 121.782 128.9 121.298 128.493L120.759 129.23C121.254 129.703 122.068 130.099 123.036 130.099C124.675 130.099 125.962 128.977 125.962 127.261C125.962 125.853 125.049 124.797 123.344 124.797C122.948 124.797 122.563 124.841 122.189 124.94Z" fill="#C2C2C2"/>
<path d="M135.781 124.104L136.782 124.269C136.782 123.367 137.453 122.685 138.377 122.685C139.224 122.685 139.818 123.136 139.818 124.06C139.818 124.896 139.312 125.479 137.893 125.512V126.238C139.62 126.238 139.983 126.876 139.983 127.745C139.983 128.46 139.422 129.274 138.267 129.274C137.431 129.274 136.936 128.845 136.595 128.141C136.507 127.932 136.452 127.767 136.43 127.646L135.528 128.02C135.913 129.208 136.54 130.143 138.278 130.143C139.785 130.143 141.006 129.197 141.006 127.723C141.006 126.711 140.456 126.04 139.4 125.776C140.28 125.479 140.819 124.951 140.819 123.895C140.819 122.663 139.829 121.805 138.432 121.805C137.057 121.805 135.99 122.641 135.781 124.104ZM143.016 129.12H142.015V130.154H143.016V129.12ZM150.347 125.985C150.347 123.114 149.049 121.805 147.388 121.805C145.716 121.805 144.429 123.114 144.429 125.985C144.429 128.845 145.716 130.154 147.388 130.154C149.049 130.154 150.347 128.845 150.347 125.985ZM149.335 125.985C149.335 128.493 148.411 129.34 147.388 129.34C146.365 129.34 145.452 128.493 145.452 125.985C145.452 123.466 146.365 122.63 147.388 122.63C148.411 122.63 149.335 123.466 149.335 125.985Z" fill="#C2C2C2"/>
<path d="M159.781 124.104L160.782 124.269C160.782 123.367 161.453 122.685 162.377 122.685C163.224 122.685 163.818 123.136 163.818 124.06C163.818 124.896 163.312 125.479 161.893 125.512V126.238C163.62 126.238 163.983 126.876 163.983 127.745C163.983 128.46 163.422 129.274 162.267 129.274C161.431 129.274 160.936 128.845 160.595 128.141C160.507 127.932 160.452 127.767 160.43 127.646L159.528 128.02C159.913 129.208 160.54 130.143 162.278 130.143C163.785 130.143 165.006 129.197 165.006 127.723C165.006 126.711 164.456 126.04 163.4 125.776C164.28 125.479 164.819 124.951 164.819 123.895C164.819 122.663 163.829 121.805 162.432 121.805C161.057 121.805 159.99 122.641 159.781 124.104ZM167.016 129.12H166.015V130.154H167.016V129.12ZM170.189 124.94L170.552 122.828H173.709V121.904H169.848L169.188 125.721L169.837 125.908C170.31 125.743 170.728 125.644 171.157 125.644C172.312 125.644 172.994 126.26 172.994 127.316C172.994 128.504 172.191 129.197 171.08 129.197C170.42 129.197 169.782 128.9 169.298 128.493L168.759 129.23C169.254 129.703 170.068 130.099 171.036 130.099C172.675 130.099 173.962 128.977 173.962 127.261C173.962 125.853 173.049 124.797 171.344 124.797C170.948 124.797 170.563 124.841 170.189 124.94Z" fill="#C2C2C2"/>
<path d="M189.38 127.855V127.063H188.159V121.849H187.213L183.242 127.107V127.855H187.268V130H188.159V127.855H189.38ZM187.268 123.697V127.063H184.342L187.312 123.015C187.279 123.246 187.268 123.51 187.268 123.697ZM191.016 129.12H190.015V130.154H191.016V129.12ZM198.347 125.985C198.347 123.114 197.049 121.805 195.388 121.805C193.716 121.805 192.429 123.114 192.429 125.985C192.429 128.845 193.716 130.154 195.388 130.154C197.049 130.154 198.347 128.845 198.347 125.985ZM197.335 125.985C197.335 128.493 196.411 129.34 195.388 129.34C194.365 129.34 193.452 128.493 193.452 125.985C193.452 123.466 194.365 122.63 195.388 122.63C196.411 122.63 197.335 123.466 197.335 125.985Z" fill="#C2C2C2"/>
<path d="M213.38 127.855V127.063H212.159V121.849H211.213L207.242 127.107V127.855H211.268V130H212.159V127.855H213.38ZM211.268 123.697V127.063H208.342L211.312 123.015C211.279 123.246 211.268 123.51 211.268 123.697ZM215.016 129.12H214.015V130.154H215.016V129.12ZM218.189 124.94L218.552 122.828H221.709V121.904H217.848L217.188 125.721L217.837 125.908C218.31 125.743 218.728 125.644 219.157 125.644C220.312 125.644 220.994 126.26 220.994 127.316C220.994 128.504 220.191 129.197 219.08 129.197C218.42 129.197 217.782 128.9 217.298 128.493L216.759 129.23C217.254 129.703 218.068 130.099 219.036 130.099C220.675 130.099 221.962 128.977 221.962 127.261C221.962 125.853 221.049 124.797 219.344 124.797C218.948 124.797 218.563 124.841 218.189 124.94Z" fill="#C2C2C2"/>
<path d="M233.101 124.94L233.464 122.828H236.621V121.904H232.76L232.1 125.721L232.749 125.908C233.222 125.743 233.64 125.644 234.069 125.644C235.224 125.644 235.906 126.26 235.906 127.316C235.906 128.504 235.103 129.197 233.992 129.197C233.332 129.197 232.694 128.9 232.21 128.493L231.671 129.23C232.166 129.703 232.98 130.099 233.948 130.099C235.587 130.099 236.874 128.977 236.874 127.261C236.874 125.853 235.961 124.797 234.256 124.797C233.86 124.797 233.475 124.841 233.101 124.94ZM239.016 129.12H238.015V130.154H239.016V129.12ZM246.347 125.985C246.347 123.114 245.049 121.805 243.388 121.805C241.716 121.805 240.429 123.114 240.429 125.985C240.429 128.845 241.716 130.154 243.388 130.154C245.049 130.154 246.347 128.845 246.347 125.985ZM245.335 125.985C245.335 128.493 244.411 129.34 243.388 129.34C242.365 129.34 241.452 128.493 241.452 125.985C241.452 123.466 242.365 122.63 243.388 122.63C244.411 122.63 245.335 123.466 245.335 125.985Z" fill="#C2C2C2"/>
<path d="M257.101 124.94L257.464 122.828H260.621V121.904H256.76L256.1 125.721L256.749 125.908C257.222 125.743 257.64 125.644 258.069 125.644C259.224 125.644 259.906 126.26 259.906 127.316C259.906 128.504 259.103 129.197 257.992 129.197C257.332 129.197 256.694 128.9 256.21 128.493L255.671 129.23C256.166 129.703 256.98 130.099 257.948 130.099C259.587 130.099 260.874 128.977 260.874 127.261C260.874 125.853 259.961 124.797 258.256 124.797C257.86 124.797 257.475 124.841 257.101 124.94ZM263.016 129.12H262.015V130.154H263.016V129.12ZM266.189 124.94L266.552 122.828H269.709V121.904H265.848L265.188 125.721L265.837 125.908C266.31 125.743 266.728 125.644 267.157 125.644C268.312 125.644 268.994 126.26 268.994 127.316C268.994 128.504 268.191 129.197 267.08 129.197C266.42 129.197 265.782 128.9 265.298 128.493L264.759 129.23C265.254 129.703 266.068 130.099 267.036 130.099C268.675 130.099 269.962 128.977 269.962 127.261C269.962 125.853 269.049 124.797 267.344 124.797C266.948 124.797 266.563 124.841 266.189 124.94Z" fill="#C2C2C2"/>
<path d="M281.651 124.94L284.082 121.893H282.817L280.573 124.918C279.869 125.842 279.572 126.656 279.572 127.371C279.572 129.043 280.639 130.143 282.278 130.143C283.928 130.143 285.072 128.977 285.072 127.481C285.072 125.93 283.972 125.05 282.652 125.05C282.113 125.05 281.662 125.204 281.266 125.468C281.343 125.38 281.464 125.204 281.651 124.94ZM282.256 129.296C281.156 129.296 280.551 128.592 280.551 127.536C280.551 126.623 281.244 125.831 282.322 125.831C283.323 125.831 284.06 126.491 284.06 127.558C284.06 128.559 283.323 129.296 282.256 129.296ZM287.016 129.12H286.015V130.154H287.016V129.12ZM294.347 125.985C294.347 123.114 293.049 121.805 291.388 121.805C289.716 121.805 288.429 123.114 288.429 125.985C288.429 128.845 289.716 130.154 291.388 130.154C293.049 130.154 294.347 128.845 294.347 125.985ZM293.335 125.985C293.335 128.493 292.411 129.34 291.388 129.34C290.365 129.34 289.452 128.493 289.452 125.985C289.452 123.466 290.365 122.63 291.388 122.63C292.411 122.63 293.335 123.466 293.335 125.985Z" fill="#C2C2C2"/>
<path d="M305.651 124.94L308.082 121.893H306.817L304.573 124.918C303.869 125.842 303.572 126.656 303.572 127.371C303.572 129.043 304.639 130.143 306.278 130.143C307.928 130.143 309.072 128.977 309.072 127.481C309.072 125.93 307.972 125.05 306.652 125.05C306.113 125.05 305.662 125.204 305.266 125.468C305.343 125.38 305.464 125.204 305.651 124.94ZM306.256 129.296C305.156 129.296 304.551 128.592 304.551 127.536C304.551 126.623 305.244 125.831 306.322 125.831C307.323 125.831 308.06 126.491 308.06 127.558C308.06 128.559 307.323 129.296 306.256 129.296ZM311.016 129.12H310.015V130.154H311.016V129.12ZM314.189 124.94L314.552 122.828H317.709V121.904H313.848L313.188 125.721L313.837 125.908C314.31 125.743 314.728 125.644 315.157 125.644C316.312 125.644 316.994 126.26 316.994 127.316C316.994 128.504 316.191 129.197 315.08 129.197C314.42 129.197 313.782 128.9 313.298 128.493L312.759 129.23C313.254 129.703 314.068 130.099 315.036 130.099C316.675 130.099 317.962 128.977 317.962 127.261C317.962 125.853 317.049 124.797 315.344 124.797C314.948 124.797 314.563 124.841 314.189 124.94Z" fill="#C2C2C2"/>
<path d="M166.716 66.2744L47 107.818" stroke="#FF6D3B" stroke-width="3"/>
<path d="M215.415 49.375L166.717 66.2742" stroke="#FABF48" stroke-width="3"/>
<path d="M264.113 32.4761L215.414 49.3752" stroke="#62B22F" stroke-width="3"/>
<path d="M312.811 15.5769L264.113 32.476" stroke="#1E76FC" stroke-width="3"/>
<path d="M326 11L312.811 15.5768" stroke="#6967F9" stroke-width="3"/>
<mask id="mask0_317_2146" style="mask-type:alpha" maskUnits="userSpaceOnUse" x="229" y="31" width="48" height="83">
<path d="M276.5 113.5L229 113.5L229 48.0001L276.5 31.0001L276.5 113.5Z" fill="#D9D9D9"/>
</mask>
<g mask="url(#mask0_317_2146)">
<path d="M196.992 50.3102L281.145 20.8316" stroke="#F5F5F5"/>
<path d="M196 47.4788L280.153 18.0002" stroke="#F5F5F5"/>
<path d="M197.984 53.1414L282.137 23.6628" stroke="#F5F5F5"/>
<path d="M198.976 55.9728L283.129 26.4942" stroke="#F5F5F5"/>
<path d="M199.967 58.804L284.121 29.3254" stroke="#F5F5F5"/>
<path d="M200.959 61.6355L285.113 32.1568" stroke="#F5F5F5"/>
<path d="M201.951 64.4666L286.104 34.988" stroke="#F5F5F5"/>
<path d="M202.943 67.2981L287.096 37.8195" stroke="#F5F5F5"/>
<path d="M203.934 70.1293L288.088 40.6507" stroke="#F5F5F5"/>
<path d="M204.926 72.9607L289.08 43.4821" stroke="#F5F5F5"/>
<path d="M205.918 75.7919L290.072 46.3132" stroke="#F5F5F5"/>
<path d="M206.91 78.6233L291.063 49.1447" stroke="#F5F5F5"/>
<path d="M207.902 81.4545L292.055 51.9759" stroke="#F5F5F5"/>
<path d="M208.893 84.2859L293.047 54.8073" stroke="#F5F5F5"/>
<path d="M209.885 87.1171L294.039 57.6385" stroke="#F5F5F5"/>
<path d="M210.877 89.9485L295.03 60.4699" stroke="#F5F5F5"/>
<path d="M211.869 92.7797L296.022 63.3011" stroke="#F5F5F5"/>
<path d="M212.861 95.6111L297.014 66.1325" stroke="#F5F5F5"/>
<path d="M213.853 98.4423L298.006 68.9637" stroke="#F5F5F5"/>
<path d="M214.844 101.274L298.998 71.7951" stroke="#F5F5F5"/>
<path d="M215.836 104.105L299.989 74.6266" stroke="#F5F5F5"/>
<path d="M216.828 106.936L300.981 77.4578" stroke="#F5F5F5"/>
<path d="M217.82 109.768L301.973 80.2892" stroke="#F5F5F5"/>
<path d="M218.812 112.599L302.965 83.1204" stroke="#F5F5F5"/>
<path d="M219.803 115.43L303.957 85.9518" stroke="#F5F5F5"/>
<path d="M220.795 118.262L304.949 88.783" stroke="#F5F5F5"/>
<path d="M221.787 121.093L305.94 91.6144" stroke="#F5F5F5"/>
<path d="M222.779 123.924L306.932 94.4456" stroke="#F5F5F5"/>
<path d="M223.771 126.756L307.924 97.277" stroke="#F5F5F5"/>
<path d="M224.762 129.587L308.916 100.108" stroke="#F5F5F5"/>
<path d="M225.754 132.418L309.907 102.94" stroke="#F5F5F5"/>
<path d="M226.746 135.249L310.899 105.771" stroke="#F5F5F5"/>
</g>
<path d="M248.168 58.2201L250.508 58.2201L250.508 61.4961L251.504 61.4961L251.504 55.1361L250.508 55.1361L250.508 57.4161L248.168 57.4161L248.168 58.2201ZM248.42 60.9921L248.948 60.2241C247.364 59.6721 246.332 58.3281 246.332 56.8041L246.332 55.7361L245.348 55.7361L245.348 56.8401C245.348 58.4721 244.292 59.9361 242.624 60.5121L243.14 61.3161C244.436 60.8241 245.396 59.8761 245.864 58.5801C246.332 59.6961 247.22 60.5481 248.42 60.9921ZM247.952 61.8201C245.744 61.8201 244.364 62.5521 244.364 63.8481C244.364 65.1321 245.744 65.8761 247.952 65.8761C250.16 65.8761 251.528 65.1321 251.528 63.8481C251.528 62.5521 250.16 61.8201 247.952 61.8201ZM247.952 65.0961C246.308 65.0961 245.348 64.6281 245.348 63.8481C245.348 63.0321 246.308 62.5881 247.952 62.5881C249.596 62.5881 250.556 63.0321 250.556 63.8481C250.556 64.6281 249.596 65.0961 247.952 65.0961ZM261.283 62.9961L262.267 62.9961L262.267 55.1361L261.283 55.1361L261.283 62.9961ZM259.303 58.5201C259.303 56.9721 258.079 55.8801 256.483 55.8801C254.887 55.8801 253.687 56.9721 253.687 58.5201C253.687 60.0801 254.887 61.1841 256.483 61.1841C258.079 61.1841 259.303 60.0801 259.303 58.5201ZM254.647 58.5201C254.647 57.4761 255.427 56.7321 256.483 56.7321C257.551 56.7321 258.343 57.4761 258.343 58.5201C258.343 59.5881 257.551 60.3321 256.483 60.3321C255.427 60.3321 254.647 59.5881 254.647 58.5201ZM262.591 65.6481L262.591 64.8441L256.327 64.8441L256.327 62.1921L255.343 62.1921L255.343 65.6481L262.591 65.6481ZM250.988 74.4121L252.584 74.4121L252.584 73.5961L250.988 73.5961L250.988 71.1241L250.004 71.1241L250.004 77.2081L250.988 77.2081L250.988 74.4121ZM249.032 75.9121L248.912 75.1081C247.172 75.4441 245.684 75.5521 244.136 75.5641L244.136 71.6641L243.164 71.6641L243.164 76.3921L244.004 76.3921C245.636 76.3921 247.196 76.2841 249.032 75.9121ZM250.988 77.7961L244.208 77.7961L244.208 81.7321L250.988 81.7321L250.988 77.7961ZM250.028 80.9401L245.168 80.9401L245.168 78.5881L250.028 78.5881L250.028 80.9401ZM262.303 81.9001L262.303 71.1241L261.319 71.1241L261.319 73.6321L258.103 73.6321L258.103 74.4361L261.319 74.4361L261.319 76.0801L258.103 76.0801L258.103 76.8841L261.319 76.8841L261.319 81.9001L262.303 81.9001ZM255.007 78.5761L255.007 72.3121L254.023 72.3121L254.023 79.4041L254.839 79.4041C256.699 79.4041 258.067 79.3321 259.627 79.0081L259.519 78.1921C258.043 78.4801 256.723 78.5761 255.007 78.5761ZM248.732 91.7801L250.508 91.7801L250.508 93.7601L251.504 93.7601L251.504 87.1361L250.508 87.1361L250.508 89.0441L248.732 89.0441L248.732 89.8481L250.508 89.8481L250.508 90.9761L248.732 90.9761L248.732 91.7801ZM249.02 92.7641L248.96 92.0321C248.516 92.0921 248.036 92.1401 247.556 92.1761L247.556 88.7321L248.624 88.7321L248.624 87.9401L242.96 87.9401L242.96 88.7321L244.028 88.7321L244.028 92.2961C243.788 92.3081 243.56 92.3081 243.332 92.3081L242.672 92.3081L242.78 93.1241C244.52 93.1241 246.944 93.0881 249.02 92.7641ZM244.976 92.2841L244.976 88.7321L246.596 88.7321L246.596 92.2241C246.056 92.2601 245.504 92.2721 244.976 92.2841ZM247.952 93.9881C245.684 93.9881 244.364 94.6721 244.364 95.9201C244.364 97.1681 245.684 97.8761 247.952 97.8761C250.172 97.8761 251.528 97.1681 251.528 95.9201C251.528 94.6721 250.172 93.9881 247.952 93.9881ZM247.952 97.1081C246.308 97.1081 245.348 96.6881 245.348 95.9201C245.348 95.1881 246.308 94.7441 247.952 94.7441C249.596 94.7441 250.556 95.1881 250.556 95.9201C250.556 96.6881 249.596 97.1081 247.952 97.1081ZM263.203 92.5481L263.203 91.7441L261.691 91.7441C261.943 90.4001 261.943 89.3921 261.943 88.5161L261.943 87.7001L254.659 87.7001L254.659 88.5041L260.971 88.5041L260.971 88.5161C260.971 89.3921 260.983 90.3881 260.707 91.7441L253.435 91.7441L253.435 92.5481L256.675 92.5481L256.675 95.1401L257.635 95.1401L257.635 92.5481L259.531 92.5481L259.531 95.1401L260.491 95.1401L260.491 92.5481L263.203 92.5481ZM262.231 96.8441L255.595 96.8441L255.595 94.2761L254.623 94.2761L254.623 97.6481L262.231 97.6481L262.231 96.8441Z" fill="#C7C7CF"/>
<path fill-rule="evenodd" clip-rule="evenodd" d="M81 56C73.8203 56 68 61.8203 68 69C68 76.1797 73.8203 82 81 82H90.9585L95 89L99.0415 82H109C116.18 82 122 76.1797 122 69C122 61.8203 116.18 56 109 56H81Z" fill="black"/>
<path d="M80.644 66.008H87.244V66.392C87.244 68.024 87.172 69.44 86.872 71.06L87.844 71.18C88.228 69.164 88.228 67.76 88.228 66.392V65.204H80.644V66.008ZM89.368 73.376V72.572H85.66V69.008H84.688V72.572H82.996V69.008H82.024V72.572H79.636V73.376H89.368ZM95.2951 68.492C97.6231 68.492 99.0751 67.736 99.0751 66.44C99.0751 65.144 97.6231 64.376 95.2951 64.376C92.9791 64.376 91.5151 65.144 91.5151 66.44C91.5151 67.736 92.9791 68.492 95.2951 68.492ZM95.2951 65.156C97.0351 65.156 98.0671 65.624 98.0671 66.44C98.0671 67.256 97.0351 67.724 95.2951 67.724C93.5551 67.724 92.5231 67.256 92.5231 66.44C92.5231 65.624 93.5551 65.156 95.2951 65.156ZM97.5991 71.468V70.1H100.167V69.308H90.4351V70.1H93.0031V71.468H91.5151V72.26H97.9831V74.9H98.9671V71.468H97.5991ZM93.9871 70.1H96.6151V71.468H93.9871V70.1ZM107.066 70.424H108.002V67.82H109.37V70.772H110.318V64.136H109.37V67.016H108.002V64.34H107.066V70.424ZM106.094 69.932L106.622 69.176C105.242 68.66 104.438 67.424 104.438 66.248V64.796H103.49V66.248C103.49 67.436 102.638 68.864 101.246 69.464L101.774 70.232C102.83 69.764 103.586 68.852 103.97 67.844C104.354 68.756 105.086 69.512 106.094 69.932ZM106.766 71.012C104.558 71.012 103.178 71.732 103.178 72.944C103.178 74.156 104.558 74.876 106.766 74.876C108.974 74.876 110.366 74.156 110.366 72.944C110.366 71.732 108.974 71.012 106.766 71.012ZM106.766 74.12C105.122 74.12 104.15 73.712 104.15 72.944C104.15 72.176 105.122 71.78 106.766 71.78C108.41 71.78 109.394 72.176 109.394 72.944C109.394 73.712 108.41 74.12 106.766 74.12Z" fill="white"/>
<circle cx="95" cy="91" r="3" fill="black"/>
<circle cx="95" cy="91" r="5" fill="black" fill-opacity="0.1"/>
<circle cx="95" cy="91" r="2" fill="white"/>
</svg>
