<svg width="452" height="62" viewBox="0 0 452 62" fill="none" xmlns="http://www.w3.org/2000/svg">
<rect x="2" y="37" width="449" height="4" fill="url(#paint0_linear_322_38)"/>
<rect y="27" width="50" height="22" rx="11" fill="#8D79FE"/>
<rect x="402" y="27" width="50" height="22" rx="11" fill="#6967F9"/>
<path d="M23.216 38.248V33.508H21.98V34.876H17.024V33.508H15.788V38.248H23.216ZM21.98 35.872V37.252H17.024V35.872H21.98ZM24.428 40.42V39.424H14.6V40.42H18.86V43.936H20.096V40.42H24.428ZM33.1511 35.812H31.2311V36.82H33.1511V39.544H34.3871V33.088H33.1511V35.812ZM31.2431 39.196L31.8551 38.224C30.2231 37.648 29.3111 36.34 29.3111 34.96V34.816H31.5671V33.82H25.7711V34.816H28.0631V34.972C28.0631 36.46 27.0911 37.9 25.4111 38.5L26.0471 39.484C27.3431 39.016 28.2431 38.08 28.7231 36.88C29.1911 37.936 30.0431 38.776 31.2431 39.196ZM30.7871 39.832C28.5191 39.832 27.1271 40.588 27.1271 41.884C27.1271 43.18 28.5191 43.936 30.7871 43.936C33.0431 43.936 34.4351 43.18 34.4351 41.884C34.4351 40.588 33.0431 39.832 30.7871 39.832ZM30.7871 42.976C29.2391 42.976 28.3631 42.604 28.3631 41.884C28.3631 41.164 29.2391 40.792 30.7871 40.792C32.3351 40.792 33.1991 41.164 33.1991 41.884C33.1991 42.604 32.3351 42.976 30.7871 42.976Z" fill="white"/>
<path d="M426.428 37.636H424.928C425.204 36.328 425.204 35.332 425.204 34.468V33.628H417.848V34.636H423.992C423.992 35.464 423.968 36.388 423.68 37.636H416.6V38.644H426.428V37.636ZM421.496 39.76C419.168 39.76 417.716 40.528 417.716 41.836C417.716 43.132 419.168 43.924 421.496 43.924C423.836 43.924 425.276 43.132 425.276 41.836C425.276 40.528 423.836 39.76 421.496 39.76ZM421.496 42.916C419.9 42.916 418.964 42.556 418.964 41.836C418.964 41.116 419.9 40.768 421.496 40.768C423.14 40.768 424.028 41.116 424.028 41.836C424.028 42.556 423.14 42.916 421.496 42.916ZM435.151 35.812H433.231V36.82H435.151V39.544H436.387V33.088H435.151V35.812ZM433.243 39.196L433.855 38.224C432.223 37.648 431.311 36.34 431.311 34.96V34.816H433.567V33.82H427.771V34.816H430.063V34.972C430.063 36.46 429.091 37.9 427.411 38.5L428.047 39.484C429.343 39.016 430.243 38.08 430.723 36.88C431.191 37.936 432.043 38.776 433.243 39.196ZM432.787 39.832C430.519 39.832 429.127 40.588 429.127 41.884C429.127 43.18 430.519 43.936 432.787 43.936C435.043 43.936 436.435 43.18 436.435 41.884C436.435 40.588 435.043 39.832 432.787 39.832ZM432.787 42.976C431.239 42.976 430.363 42.604 430.363 41.884C430.363 41.164 431.239 40.792 432.787 40.792C434.335 40.792 435.199 41.164 435.199 41.884C435.199 42.604 434.335 42.976 432.787 42.976Z" fill="white"/>
<path d="M217.092 52.568L217.536 53.54C219.468 53.336 220.92 52.556 221.508 51.44C222.084 52.532 223.584 53.348 225.48 53.54L225.912 52.568C223.908 52.376 222.504 51.5 222.348 50.552H225.516V49.556H217.512V50.552H220.656C220.5 51.5 219.096 52.376 217.092 52.568ZM222.12 55.076H226.404V54.092H216.6V55.076H220.884V56.072C218.856 56.204 217.752 56.852 217.752 58.004C217.752 59.252 219.096 59.924 221.484 59.924C223.884 59.924 225.216 59.252 225.216 58.004C225.216 56.852 224.136 56.216 222.12 56.084V55.076ZM223.968 58.004C223.968 58.628 223.08 58.976 221.484 58.976C219.888 58.976 219.012 58.628 219.012 58.004C219.012 57.332 219.888 57.02 221.484 57.02C223.08 57.02 223.968 57.332 223.968 58.004ZM236.339 49.088H235.103V55.076H236.339V49.088ZM234.119 54.548L233.975 53.54C232.403 53.792 231.059 53.864 229.187 53.864V52.664H232.895V49.592H227.939V50.6H231.683V51.728H227.963V54.872H228.875C230.951 54.872 232.427 54.836 234.119 54.548ZM235.115 55.58V56.696H230.471V55.58H229.235V59.792H236.339V55.58H235.115ZM235.115 57.668V58.796H230.471V57.668H235.115Z" fill="#C2C2C2"/>
<path d="M427 21C432.523 21 437 16.523 437 11C437 5.477 432.523 1 427 1C421.477 1 417 5.477 417 11C417 16.523 421.477 21 427 21Z" stroke="#6967F9" stroke-width="2" stroke-linejoin="round"/>
<path d="M430.5 8V8.5" stroke="#6967F9" stroke-width="2" stroke-linecap="round" stroke-linejoin="round"/>
<path d="M423.5 8V8.5" stroke="#6967F9" stroke-width="2" stroke-linecap="round" stroke-linejoin="round"/>
<path d="M423.5 12.5C423.5 12.5 424.5 14.5 427 14.5C429.5 14.5 430.5 12.5 430.5 12.5" stroke="#6967F9" stroke-width="2" stroke-linecap="round" stroke-linejoin="round"/>
<path d="M25 21C30.523 21 35 16.523 35 11C35 5.477 30.523 1 25 1C19.477 1 15 5.477 15 11C15 16.523 19.477 21 25 21Z" stroke="#8D79FE" stroke-width="2" stroke-linejoin="round"/>
<path d="M28.5 8V8.5" stroke="#8D79FE" stroke-width="2" stroke-linecap="round" stroke-linejoin="round"/>
<path d="M21.5 8V8.5" stroke="#8D79FE" stroke-width="2" stroke-linecap="round" stroke-linejoin="round"/>
<path d="M28.5 14.5C28.5 14.5 27.5 12.5 25 12.5C22.5 12.5 21.5 14.5 21.5 14.5" stroke="#8D79FE" stroke-width="2" stroke-linecap="round" stroke-linejoin="round"/>
<defs>
<linearGradient id="paint0_linear_322_38" x1="500.852" y1="38.9999" x2="-38.2779" y2="38.9991" gradientUnits="userSpaceOnUse">
<stop stop-color="#6967F9"/>
<stop offset="1" stop-color="#8D79FE"/>
</linearGradient>
</defs>
</svg>
