<svg width="156" height="156" viewBox="0 0 156 156" fill="none" xmlns="http://www.w3.org/2000/svg">
<g clip-path="url(#clip0_1_2675)">
<path d="M23.5757 0V156.018" stroke="#DFE0EB"/>
<path d="M156 23.2459H-0.0175781" stroke="#DFE0EB"/>
<path d="M59.8584 0V156.018" stroke="#DFE0EB"/>
<path d="M156 59.5177H-0.0175781" stroke="#DFE0EB"/>
<path d="M96.1416 0V156.018" stroke="#DFE0EB"/>
<path d="M156 95.7985H-0.0175781" stroke="#DFE0EB"/>
<path d="M132.424 0V156.018" stroke="#DFE0EB"/>
<path d="M156 132.044H-0.0175781" stroke="#DFE0EB"/>
</g>
<path d="M136.06 132.594C136.061 127.9 134.617 123.319 131.924 119.465C129.953 116.649 127.373 114.308 124.374 112.613C121.375 110.918 118.033 109.912 114.593 109.67L106.736 109.107C104.122 108.926 101.591 108.113 99.3645 106.739C97.0095 105.296 95.0661 103.276 93.7189 100.873C92.3717 98.4702 91.6662 95.7636 91.6699 93.0119V79.9404H64.9224V93.0119C64.9248 95.7647 64.2175 98.472 62.8682 100.875C61.519 103.278 59.5724 105.297 57.2153 106.739C54.9892 108.115 52.4585 108.928 49.844 109.107L41.9988 109.67C38.5584 109.912 35.2162 110.918 32.2173 112.613C29.2184 114.308 26.6388 116.649 24.6677 119.465C21.9744 123.319 20.5309 127.9 20.5313 132.594V148.183H136.014L136.06 132.594Z" fill="white"/>
<path d="M136.638 148.759H20V132.595C19.9936 127.793 21.4699 123.106 24.229 119.167C26.2395 116.274 28.879 113.869 31.9512 112.129C35.0235 110.39 38.4494 109.361 41.9758 109.119L49.8211 108.567C52.3401 108.376 54.7765 107.588 56.9267 106.268C59.2041 104.882 61.0843 102.935 62.3855 100.615C63.6868 98.295 64.3655 95.6808 64.3561 93.0243V79.3779H92.259V93.0243C92.2497 95.6808 92.9284 98.295 94.2297 100.615C95.5309 102.935 97.4111 104.882 99.6885 106.268C101.839 107.588 104.275 108.376 106.794 108.567L114.639 109.119C118.166 109.361 121.592 110.39 124.665 112.129C127.737 113.869 130.376 116.274 132.386 119.167C135.154 123.111 136.634 127.807 136.626 132.618L136.638 148.759ZM21.1554 147.609H135.483V132.595C135.488 128.019 134.08 123.553 131.45 119.799C129.537 117.049 127.027 114.762 124.105 113.108C121.183 111.454 117.924 110.476 114.57 110.246L106.725 109.682C104.017 109.494 101.396 108.654 99.0877 107.234C96.6437 105.744 94.6263 103.653 93.23 101.162C91.8337 98.6711 91.1057 95.8647 91.1155 93.0127V80.5161H65.5234V93.0127C65.5332 95.8647 64.8046 98.6711 63.4084 101.162C62.0121 103.653 59.9946 105.744 57.5507 107.234C55.2413 108.652 52.6208 109.492 49.9136 109.682L42.0684 110.246C38.7146 110.476 35.4562 111.454 32.534 113.108C29.6119 114.762 27.1011 117.049 25.1881 119.799C22.5525 123.55 21.1441 128.018 21.1554 132.595V147.609Z" fill="#2C2C2C"/>
<path d="M42.034 132.595C40.6416 138.04 39.8665 143.624 39.7231 149.241L42.034 132.595Z" fill="white"/>
<path d="M42.1492 131.479C41.5236 134.204 41.0645 136.964 40.7744 139.745C40.4894 142.527 40.3318 145.317 40.301 148.114C40.2995 148.19 40.2829 148.264 40.2525 148.333C40.2221 148.402 40.178 148.465 40.1233 148.517C40.0686 148.57 40.0044 148.611 39.9338 148.638C39.8631 148.666 39.7874 148.679 39.7115 148.677C39.6362 148.677 39.5615 148.663 39.492 148.634C39.4226 148.605 39.3597 148.562 39.307 148.508C39.2543 148.455 39.2129 148.391 39.1851 148.322C39.1574 148.252 39.1441 148.177 39.1456 148.103C39.3228 145.29 39.6348 142.485 40.0816 139.687C40.5196 136.904 41.133 134.151 41.9185 131.444C41.9267 131.413 41.9469 131.385 41.9749 131.368C42.0029 131.351 42.0364 131.346 42.0686 131.353C42.0928 131.364 42.1134 131.381 42.1278 131.404C42.1421 131.426 42.1494 131.452 42.1492 131.479Z" fill="#2C2C2C"/>
<path d="M115.171 132.595C116.56 138.041 117.335 143.624 117.482 149.241L115.171 132.595Z" fill="white"/>
<path d="M115.39 131.376C116.161 134.094 116.756 136.859 117.17 139.653C117.609 142.435 117.898 145.251 118.071 148.068C118.076 148.144 118.066 148.219 118.041 148.291C118.016 148.362 117.977 148.429 117.927 148.485C117.876 148.542 117.815 148.588 117.747 148.621C117.678 148.654 117.604 148.673 117.528 148.677C117.452 148.684 117.375 148.674 117.302 148.65C117.23 148.626 117.163 148.588 117.106 148.538C117.049 148.487 117.002 148.425 116.969 148.357C116.937 148.288 116.919 148.213 116.916 148.137C116.87 145.347 116.688 142.561 116.373 139.779C116.073 137.001 115.599 134.244 114.951 131.525C114.945 131.496 114.944 131.466 114.949 131.437C114.954 131.408 114.965 131.381 114.981 131.356C114.998 131.331 115.019 131.31 115.043 131.294C115.068 131.277 115.096 131.266 115.125 131.26C115.175 131.244 115.23 131.247 115.279 131.268C115.328 131.289 115.368 131.328 115.39 131.376Z" fill="#2C2C2C"/>
<path d="M70.1792 94.3799C70.1792 94.3799 74.3386 112.199 77.3773 115.223L70.1792 94.3799Z" fill="white"/>
<path d="M70.584 94.2882C71.4044 97.8751 72.3055 101.462 73.3338 105.003C73.8653 106.762 74.397 108.532 75.0325 110.257C75.5853 111.996 76.4116 113.638 77.4815 115.119C77.4962 115.132 77.5084 115.148 77.5165 115.166C77.5246 115.184 77.5289 115.203 77.5289 115.223C77.5289 115.243 77.5246 115.262 77.5165 115.28C77.5084 115.298 77.4962 115.313 77.4815 115.326C77.4535 115.353 77.4164 115.368 77.3777 115.368C77.3389 115.368 77.3019 115.353 77.2739 115.326C76.1436 113.829 75.2545 112.165 74.6392 110.395C73.946 108.67 73.3685 106.946 72.8023 105.152C71.6469 101.623 70.6878 98.0589 69.775 94.4606C69.7505 94.3524 69.7698 94.239 69.8281 94.1445C69.8863 94.05 69.979 93.982 70.087 93.9548C70.1957 93.9304 70.3097 93.949 70.4046 94.007C70.4996 94.065 70.5679 94.1578 70.5953 94.2652L70.584 94.2882Z" fill="#2C2C2C"/>
<path d="M91.2423 84.4248C91.2423 84.4248 84.98 103.52 81.999 106.544L91.2423 84.4248Z" fill="white"/>
<path d="M91.7628 84.5967C90.4225 88.402 89.0243 92.1614 87.5107 95.8862C86.7481 97.7486 85.9858 99.6111 85.1192 101.428C84.3305 103.302 83.297 105.064 82.0457 106.67C82.0113 106.702 81.966 106.72 81.9187 106.72C81.8714 106.72 81.8256 106.702 81.7912 106.67C81.762 106.636 81.7461 106.593 81.7461 106.549C81.7461 106.505 81.762 106.462 81.7912 106.428C82.9511 104.815 83.8985 103.061 84.6103 101.209C85.4076 99.381 86.1128 97.5072 86.8061 95.6333C88.181 91.874 89.4633 88.0685 90.6649 84.2517C90.7102 84.1075 90.8107 83.9871 90.9448 83.9161C91.0788 83.8451 91.2359 83.8294 91.3814 83.8726C91.5272 83.9201 91.6487 84.0225 91.7199 84.1577C91.7911 84.293 91.8065 84.4503 91.7628 84.5967Z" fill="#2C2C2C"/>
<path d="M57.389 109.107L73.8304 114.384C73.8829 114.403 73.9259 114.44 73.9517 114.489C73.9774 114.538 73.9835 114.595 73.9686 114.649C73.9621 114.675 73.9502 114.7 73.9336 114.721C73.917 114.743 73.896 114.76 73.8721 114.773C73.8482 114.786 73.822 114.794 73.7948 114.796C73.7677 114.799 73.7405 114.795 73.7147 114.787L57.0539 110.188C56.9068 110.145 56.7829 110.046 56.7092 109.913C56.6355 109.779 56.6178 109.622 56.6607 109.475C56.7012 109.33 56.7984 109.205 56.9303 109.13C57.0623 109.055 57.2188 109.034 57.3659 109.073L57.389 109.107Z" fill="#2C2C2C"/>
<path d="M98.6367 110.211L81.9759 114.81C81.9524 114.818 81.9276 114.822 81.9026 114.82C81.8775 114.818 81.8529 114.811 81.8309 114.799C81.8089 114.787 81.7899 114.771 81.7751 114.751C81.7602 114.73 81.7497 114.708 81.7446 114.683C81.7338 114.638 81.7413 114.589 81.7649 114.549C81.7885 114.508 81.8269 114.478 81.8721 114.465L98.3016 109.153C98.3736 109.128 98.4501 109.118 98.5262 109.123C98.6022 109.128 98.6765 109.149 98.7445 109.183C98.8125 109.217 98.8726 109.265 98.9216 109.323C98.9706 109.381 99.0078 109.449 99.03 109.521C99.0773 109.666 99.0649 109.824 98.9955 109.959C98.9262 110.095 98.8054 110.198 98.6599 110.245L98.6367 110.211Z" fill="#2C2C2C"/>
<path d="M78.2905 90.2416C94.3622 89.5748 98.3019 70.2492 98.3019 70.2492C98.3019 70.2492 101.896 70.916 102.739 62.5007C103.583 54.0853 99.0528 56.419 99.0528 56.419C99.3186 32.1962 86.3436 29.5867 80.7745 29.5752C79.1223 29.5752 77.4588 29.5752 75.8065 29.5752C70.2259 29.5752 57.2619 32.1962 57.5277 56.419C57.5277 56.419 53.0101 54.1198 53.842 62.5007C54.6739 70.8815 58.2791 70.2492 58.2791 70.2492C58.2791 70.2492 62.2189 89.5748 78.2905 90.2416Z" fill="white"/>
<path d="M78.2903 90.8169C63.3625 90.1961 58.5904 73.7906 57.8394 70.8246C57.2674 70.7455 56.726 70.5196 56.2682 70.1692C54.6738 69.0196 53.6685 66.4215 53.2872 62.5588C52.9406 59.1099 53.4493 56.8911 54.7896 55.9829C55.1103 55.7794 55.4692 55.6428 55.8445 55.5815C56.2199 55.5203 56.6036 55.5355 56.9729 55.6264C56.9729 45.6936 59.2838 38.382 63.709 33.8869C65.3024 32.3163 67.1932 31.0757 69.2716 30.237C71.35 29.3983 73.5748 28.9783 75.8176 29.0009C77.4814 29.0009 79.1452 29.0009 80.7974 29.0009C83.042 28.9774 85.2692 29.3972 87.3496 30.2359C89.4301 31.0746 91.3227 32.3155 92.9179 33.8869C97.3778 38.382 99.6419 45.6936 99.6534 55.6264C100.021 55.5351 100.403 55.5197 100.777 55.581C101.15 55.6422 101.508 55.7791 101.826 55.9829C103.178 56.8911 103.675 59.0984 103.34 62.5588C102.947 66.4215 101.941 68.9736 100.347 70.1692C99.891 70.5229 99.3487 70.7492 98.7756 70.8246C98.0361 73.7906 93.2644 90.1961 78.3366 90.8169H78.2903ZM58.7291 69.5832L58.8448 70.135C58.8448 70.3189 62.8772 89.0005 78.2903 89.6788C93.6918 89.012 97.6896 70.3304 97.7358 70.135L97.8396 69.5832L98.4061 69.6865C98.874 69.693 99.327 69.5249 99.6766 69.2152C100.578 68.5139 101.734 66.7778 102.161 62.4437C102.554 58.5119 101.699 57.305 101.167 56.9372C100.88 56.7945 100.564 56.7202 100.243 56.7202C99.9221 56.7202 99.6059 56.7945 99.3189 56.9372L98.4636 57.3739V56.4196C98.5676 46.4063 96.4185 39.0947 92.0626 34.7031C90.5737 33.2413 88.8084 32.0875 86.8689 31.3081C84.9295 30.5287 82.8546 30.1392 80.763 30.1621C79.1108 30.1621 77.4467 30.1621 75.7944 30.1621C73.7029 30.1392 71.6274 30.5287 69.688 31.3081C67.7485 32.0875 65.9837 33.2413 64.4948 34.7031C60.139 39.0947 57.9783 46.4063 58.0939 56.4196V57.3854L57.2386 56.9372C56.9516 56.7945 56.6353 56.7202 56.3145 56.7202C55.9936 56.7202 55.6774 56.7945 55.3904 56.9372C54.8473 57.305 54.0035 58.5119 54.3963 62.4437C54.8354 66.8353 56.0025 68.5714 56.9153 69.2497C57.2599 69.5408 57.6995 69.6961 58.1514 69.6865L58.7291 69.5832Z" fill="#2C2C2C"/>
<path d="M57.944 57.0863L60.0698 50.4759C60.3911 49.7741 60.871 49.1556 61.4723 48.669C62.0736 48.1823 62.78 47.8409 63.536 47.6709C64.926 47.3245 66.2684 46.811 67.5337 46.1418C68.789 45.503 69.9199 44.6466 70.8729 43.6126C71.8032 42.5897 72.49 41.3716 72.883 40.0486C72.9378 39.9043 73.0466 39.7867 73.1866 39.7203C73.3265 39.6538 73.4867 39.644 73.6339 39.6925C73.7439 39.7346 73.8401 39.8061 73.9115 39.8993C75.4458 42.0306 77.2429 43.9618 79.2609 45.6475C81.2486 47.3583 83.5577 48.6593 86.0545 49.4756C87.3114 49.8523 88.6131 50.0611 89.9253 50.0965C91.2913 50.1797 92.6341 50.4866 93.8998 51.0047C95.183 51.5224 96.307 52.3671 97.1584 53.4536C98.0057 54.5384 98.5191 55.844 98.6371 57.2129C98.6404 57.2538 98.6278 57.2943 98.6021 57.3263C98.5763 57.3584 98.5391 57.3795 98.4983 57.3853C98.4591 57.3857 98.4214 57.3719 98.3916 57.3465C98.3619 57.3212 98.3425 57.2858 98.3369 57.2472C98.1793 55.9572 97.6583 54.7379 96.8346 53.7295C96.0038 52.7275 94.9245 51.9585 93.7035 51.499C92.4776 51.0443 91.1864 50.7882 89.879 50.7403C88.5174 50.7298 87.1628 50.5483 85.8469 50.2C83.2285 49.4154 80.7907 48.1264 78.6719 46.4062C76.5342 44.7363 74.6166 42.805 72.9643 40.658L73.9922 40.4972C73.4966 41.9573 72.6797 43.2887 71.6007 44.3943C70.5389 45.4765 69.2906 46.3604 67.915 47.004C66.5735 47.6551 65.1575 48.1415 63.6979 48.4526C63.0197 48.5703 62.3792 48.8464 61.8289 49.2581C61.2786 49.6698 60.8339 50.2053 60.5318 50.8209L58.221 57.3622C58.2161 57.3838 58.2066 57.404 58.1928 57.4215C58.1791 57.4389 58.162 57.4531 58.1421 57.463C58.1222 57.4729 58.1 57.4783 58.0777 57.4787C58.0555 57.4792 58.0337 57.4749 58.0134 57.4658C57.9884 57.4703 57.9627 57.4698 57.9378 57.4644C57.913 57.4591 57.8894 57.4491 57.8684 57.4347C57.8262 57.4056 57.797 57.3609 57.7878 57.3106C57.7786 57.2603 57.7901 57.2084 57.8194 57.1663C57.8486 57.1243 57.8935 57.0955 57.944 57.0863Z" fill="#2C2C2C"/>
<path d="M41 90.5V115" stroke="#62FFD0" stroke-linecap="round"/>
<path d="M43.0009 92.0004L41.0005 90L39.0001 92.0004" stroke="#62FFD0" stroke-linecap="round" stroke-linejoin="round"/>
<path d="M39.0001 113.001L41.0005 115.001L43.0009 113.001" stroke="#62FFD0" stroke-linecap="round" stroke-linejoin="round"/>
<path d="M115 90.5V115" stroke="#62FFD0" stroke-linecap="round"/>
<path d="M117.001 92.0004L115 90L113 92.0004" stroke="#62FFD0" stroke-linecap="round" stroke-linejoin="round"/>
<path d="M113 113.001L115 115.001L117.001 113.001" stroke="#62FFD0" stroke-linecap="round" stroke-linejoin="round"/>
<path d="M12.4004 133.503L10 135L11.497 137.4" stroke="#1EACFC" stroke-linecap="round" stroke-linejoin="round"/>
<path d="M142.27 133.992L144.798 135.262L143.528 137.79" stroke="#1EACFC" stroke-linecap="round" stroke-linejoin="round"/>
<path d="M145 135.361C128.04 138.837 104.455 140.992 78.3766 140.992C51.3868 140.992 27.0678 138.684 10 134.992" stroke="#1EACFC"/>
<defs>
<clipPath id="clip0_1_2675">
<rect width="156" height="156" fill="white"/>
</clipPath>
</defs>
</svg>
