<svg width="338" height="152" viewBox="0 0 338 152" fill="none" xmlns="http://www.w3.org/2000/svg">
<path d="M1.672 131.803H8.503V131.066H2.574V127.469H1.672V131.803ZM9.526 135.114V134.366H0.572V135.114H9.526ZM18.7981 132.452V126.611H17.8961V132.452H18.7981ZM16.7961 131.66L16.6971 130.934C15.1351 131.198 13.8591 131.242 12.0991 131.242V129.878H15.6741V127.194H11.1861V127.931H14.7831V129.185H11.2191V131.979H12.0111C13.8261 131.979 15.1901 131.924 16.7961 131.66ZM18.7981 133.002H12.4181V136.335H18.7981V133.002ZM17.9181 135.609H13.2981V133.717H17.9181V135.609Z" fill="#C2C2C2"/>
<path d="M8.437 25.556H9.757V24.797H8.437V20.947H7.546V30.814H8.437V25.556ZM3.498 21.871H2.75V24.401H1.54V21.871H0.77V28.427H3.498V21.871ZM6.71 21.871H5.951V24.401H4.785V21.871H4.026V28.427H6.71V21.871ZM1.54 25.127H2.75V27.69H1.54V25.127ZM4.785 25.127H5.951V27.69H4.785V25.127ZM11.8241 21.893H17.6101V22.85H11.8461V25.193H18.7101V24.489H12.7371V23.521H18.5011V21.2H11.8241V21.893ZM19.6451 26.766V26.04H10.7021V26.766H19.6451ZM18.5121 27.679H11.9011V30.682H18.5121V27.679ZM17.6211 29.956H12.7811V28.394H17.6211V29.956Z" fill="#C2C2C2"/>
<path d="M30.6685 63H326" stroke="#DFE0EB" stroke-dasharray="2 3"/>
<path d="M30.6685 97.6667H326" stroke="#DFE0EB" stroke-dasharray="2 3"/>
<path d="M30.6685 28.3645H326" stroke="#DFE0EB" stroke-dasharray="2 3"/>
<path d="M30.6685 132.333H326" stroke="#DFE0EB"/>
<path d="M44.786 149V148.186H43.202V140.893H42.399L40.232 142.763L40.771 143.412L42.234 142.103C42.223 142.18 42.223 142.279 42.223 142.378V148.186H40.43V149H44.786ZM47.0157 148.12H46.0147V149.154H47.0157V148.12ZM54.3469 144.985C54.3469 142.114 53.0489 140.805 51.3879 140.805C49.7159 140.805 48.4289 142.114 48.4289 144.985C48.4289 147.845 49.7159 149.154 51.3879 149.154C53.0489 149.154 54.3469 147.845 54.3469 144.985ZM53.3349 144.985C53.3349 147.493 52.4109 148.34 51.3879 148.34C50.3649 148.34 49.4519 147.493 49.4519 144.985C49.4519 142.466 50.3649 141.63 51.3879 141.63C52.4109 141.63 53.3349 142.466 53.3349 144.985Z" fill="#C2C2C2"/>
<path d="M68.786 149V148.186H67.202V140.893H66.399L64.232 142.763L64.771 143.412L66.234 142.103C66.223 142.18 66.223 142.279 66.223 142.378V148.186H64.43V149H68.786ZM71.0157 148.12H70.0147V149.154H71.0157V148.12ZM74.1889 143.94L74.5519 141.828H77.7089V140.904H73.8479L73.1879 144.721L73.8369 144.908C74.3099 144.743 74.7279 144.644 75.1569 144.644C76.3119 144.644 76.9939 145.26 76.9939 146.316C76.9939 147.504 76.1909 148.197 75.0799 148.197C74.4199 148.197 73.7819 147.9 73.2979 147.493L72.7589 148.23C73.2539 148.703 74.0679 149.099 75.0359 149.099C76.6749 149.099 77.9619 147.977 77.9619 146.261C77.9619 144.853 77.0489 143.797 75.3439 143.797C74.9479 143.797 74.5629 143.841 74.1889 143.94Z" fill="#C2C2C2"/>
<path d="M92.995 149V148.109H89.816C89.541 148.109 89.211 148.153 88.903 148.241L91.158 146.008C92.071 145.095 92.841 144.259 92.841 143.06C92.841 141.63 91.774 140.794 90.399 140.794C89.024 140.794 87.957 141.597 87.748 143.082L88.738 143.247C88.738 142.323 89.42 141.663 90.344 141.663C91.18 141.663 91.796 142.114 91.829 143.082C91.829 144.028 91.213 144.721 90.366 145.623L87.583 148.296V149H92.995ZM95.0157 148.12H94.0147V149.154H95.0157V148.12ZM102.347 144.985C102.347 142.114 101.049 140.805 99.3879 140.805C97.7159 140.805 96.4289 142.114 96.4289 144.985C96.4289 147.845 97.7159 149.154 99.3879 149.154C101.049 149.154 102.347 147.845 102.347 144.985ZM101.335 144.985C101.335 147.493 100.411 148.34 99.3879 148.34C98.3649 148.34 97.4519 147.493 97.4519 144.985C97.4519 142.466 98.3649 141.63 99.3879 141.63C100.411 141.63 101.335 142.466 101.335 144.985Z" fill="#C2C2C2"/>
<path d="M116.995 149V148.109H113.816C113.541 148.109 113.211 148.153 112.903 148.241L115.158 146.008C116.071 145.095 116.841 144.259 116.841 143.06C116.841 141.63 115.774 140.794 114.399 140.794C113.024 140.794 111.957 141.597 111.748 143.082L112.738 143.247C112.738 142.323 113.42 141.663 114.344 141.663C115.18 141.663 115.796 142.114 115.829 143.082C115.829 144.028 115.213 144.721 114.366 145.623L111.583 148.296V149H116.995ZM119.016 148.12H118.015V149.154H119.016V148.12ZM122.189 143.94L122.552 141.828H125.709V140.904H121.848L121.188 144.721L121.837 144.908C122.31 144.743 122.728 144.644 123.157 144.644C124.312 144.644 124.994 145.26 124.994 146.316C124.994 147.504 124.191 148.197 123.08 148.197C122.42 148.197 121.782 147.9 121.298 147.493L120.759 148.23C121.254 148.703 122.068 149.099 123.036 149.099C124.675 149.099 125.962 147.977 125.962 146.261C125.962 144.853 125.049 143.797 123.344 143.797C122.948 143.797 122.563 143.841 122.189 143.94Z" fill="#C2C2C2"/>
<path d="M135.781 143.104L136.782 143.269C136.782 142.367 137.453 141.685 138.377 141.685C139.224 141.685 139.818 142.136 139.818 143.06C139.818 143.896 139.312 144.479 137.893 144.512V145.238C139.62 145.238 139.983 145.876 139.983 146.745C139.983 147.46 139.422 148.274 138.267 148.274C137.431 148.274 136.936 147.845 136.595 147.141C136.507 146.932 136.452 146.767 136.43 146.646L135.528 147.02C135.913 148.208 136.54 149.143 138.278 149.143C139.785 149.143 141.006 148.197 141.006 146.723C141.006 145.711 140.456 145.04 139.4 144.776C140.28 144.479 140.819 143.951 140.819 142.895C140.819 141.663 139.829 140.805 138.432 140.805C137.057 140.805 135.99 141.641 135.781 143.104ZM143.016 148.12H142.015V149.154H143.016V148.12ZM150.347 144.985C150.347 142.114 149.049 140.805 147.388 140.805C145.716 140.805 144.429 142.114 144.429 144.985C144.429 147.845 145.716 149.154 147.388 149.154C149.049 149.154 150.347 147.845 150.347 144.985ZM149.335 144.985C149.335 147.493 148.411 148.34 147.388 148.34C146.365 148.34 145.452 147.493 145.452 144.985C145.452 142.466 146.365 141.63 147.388 141.63C148.411 141.63 149.335 142.466 149.335 144.985Z" fill="#C2C2C2"/>
<path d="M159.781 143.104L160.782 143.269C160.782 142.367 161.453 141.685 162.377 141.685C163.224 141.685 163.818 142.136 163.818 143.06C163.818 143.896 163.312 144.479 161.893 144.512V145.238C163.62 145.238 163.983 145.876 163.983 146.745C163.983 147.46 163.422 148.274 162.267 148.274C161.431 148.274 160.936 147.845 160.595 147.141C160.507 146.932 160.452 146.767 160.43 146.646L159.528 147.02C159.913 148.208 160.54 149.143 162.278 149.143C163.785 149.143 165.006 148.197 165.006 146.723C165.006 145.711 164.456 145.04 163.4 144.776C164.28 144.479 164.819 143.951 164.819 142.895C164.819 141.663 163.829 140.805 162.432 140.805C161.057 140.805 159.99 141.641 159.781 143.104ZM167.016 148.12H166.015V149.154H167.016V148.12ZM170.189 143.94L170.552 141.828H173.709V140.904H169.848L169.188 144.721L169.837 144.908C170.31 144.743 170.728 144.644 171.157 144.644C172.312 144.644 172.994 145.26 172.994 146.316C172.994 147.504 172.191 148.197 171.08 148.197C170.42 148.197 169.782 147.9 169.298 147.493L168.759 148.23C169.254 148.703 170.068 149.099 171.036 149.099C172.675 149.099 173.962 147.977 173.962 146.261C173.962 144.853 173.049 143.797 171.344 143.797C170.948 143.797 170.563 143.841 170.189 143.94Z" fill="#C2C2C2"/>
<path d="M189.38 146.855V146.063H188.159V140.849H187.213L183.242 146.107V146.855H187.268V149H188.159V146.855H189.38ZM187.268 142.697V146.063H184.342L187.312 142.015C187.279 142.246 187.268 142.51 187.268 142.697ZM191.016 148.12H190.015V149.154H191.016V148.12ZM198.347 144.985C198.347 142.114 197.049 140.805 195.388 140.805C193.716 140.805 192.429 142.114 192.429 144.985C192.429 147.845 193.716 149.154 195.388 149.154C197.049 149.154 198.347 147.845 198.347 144.985ZM197.335 144.985C197.335 147.493 196.411 148.34 195.388 148.34C194.365 148.34 193.452 147.493 193.452 144.985C193.452 142.466 194.365 141.63 195.388 141.63C196.411 141.63 197.335 142.466 197.335 144.985Z" fill="#C2C2C2"/>
<path d="M213.38 146.855V146.063H212.159V140.849H211.213L207.242 146.107V146.855H211.268V149H212.159V146.855H213.38ZM211.268 142.697V146.063H208.342L211.312 142.015C211.279 142.246 211.268 142.51 211.268 142.697ZM215.016 148.12H214.015V149.154H215.016V148.12ZM218.189 143.94L218.552 141.828H221.709V140.904H217.848L217.188 144.721L217.837 144.908C218.31 144.743 218.728 144.644 219.157 144.644C220.312 144.644 220.994 145.26 220.994 146.316C220.994 147.504 220.191 148.197 219.08 148.197C218.42 148.197 217.782 147.9 217.298 147.493L216.759 148.23C217.254 148.703 218.068 149.099 219.036 149.099C220.675 149.099 221.962 147.977 221.962 146.261C221.962 144.853 221.049 143.797 219.344 143.797C218.948 143.797 218.563 143.841 218.189 143.94Z" fill="#C2C2C2"/>
<path d="M233.101 143.94L233.464 141.828H236.621V140.904H232.76L232.1 144.721L232.749 144.908C233.222 144.743 233.64 144.644 234.069 144.644C235.224 144.644 235.906 145.26 235.906 146.316C235.906 147.504 235.103 148.197 233.992 148.197C233.332 148.197 232.694 147.9 232.21 147.493L231.671 148.23C232.166 148.703 232.98 149.099 233.948 149.099C235.587 149.099 236.874 147.977 236.874 146.261C236.874 144.853 235.961 143.797 234.256 143.797C233.86 143.797 233.475 143.841 233.101 143.94ZM239.016 148.12H238.015V149.154H239.016V148.12ZM246.347 144.985C246.347 142.114 245.049 140.805 243.388 140.805C241.716 140.805 240.429 142.114 240.429 144.985C240.429 147.845 241.716 149.154 243.388 149.154C245.049 149.154 246.347 147.845 246.347 144.985ZM245.335 144.985C245.335 147.493 244.411 148.34 243.388 148.34C242.365 148.34 241.452 147.493 241.452 144.985C241.452 142.466 242.365 141.63 243.388 141.63C244.411 141.63 245.335 142.466 245.335 144.985Z" fill="#C2C2C2"/>
<path d="M257.101 143.94L257.464 141.828H260.621V140.904H256.76L256.1 144.721L256.749 144.908C257.222 144.743 257.64 144.644 258.069 144.644C259.224 144.644 259.906 145.26 259.906 146.316C259.906 147.504 259.103 148.197 257.992 148.197C257.332 148.197 256.694 147.9 256.21 147.493L255.671 148.23C256.166 148.703 256.98 149.099 257.948 149.099C259.587 149.099 260.874 147.977 260.874 146.261C260.874 144.853 259.961 143.797 258.256 143.797C257.86 143.797 257.475 143.841 257.101 143.94ZM263.016 148.12H262.015V149.154H263.016V148.12ZM266.189 143.94L266.552 141.828H269.709V140.904H265.848L265.188 144.721L265.837 144.908C266.31 144.743 266.728 144.644 267.157 144.644C268.312 144.644 268.994 145.26 268.994 146.316C268.994 147.504 268.191 148.197 267.08 148.197C266.42 148.197 265.782 147.9 265.298 147.493L264.759 148.23C265.254 148.703 266.068 149.099 267.036 149.099C268.675 149.099 269.962 147.977 269.962 146.261C269.962 144.853 269.049 143.797 267.344 143.797C266.948 143.797 266.563 143.841 266.189 143.94Z" fill="#C2C2C2"/>
<path d="M281.651 143.94L284.082 140.893H282.817L280.573 143.918C279.869 144.842 279.572 145.656 279.572 146.371C279.572 148.043 280.639 149.143 282.278 149.143C283.928 149.143 285.072 147.977 285.072 146.481C285.072 144.93 283.972 144.05 282.652 144.05C282.113 144.05 281.662 144.204 281.266 144.468C281.343 144.38 281.464 144.204 281.651 143.94ZM282.256 148.296C281.156 148.296 280.551 147.592 280.551 146.536C280.551 145.623 281.244 144.831 282.322 144.831C283.323 144.831 284.06 145.491 284.06 146.558C284.06 147.559 283.323 148.296 282.256 148.296ZM287.016 148.12H286.015V149.154H287.016V148.12ZM294.347 144.985C294.347 142.114 293.049 140.805 291.388 140.805C289.716 140.805 288.429 142.114 288.429 144.985C288.429 147.845 289.716 149.154 291.388 149.154C293.049 149.154 294.347 147.845 294.347 144.985ZM293.335 144.985C293.335 147.493 292.411 148.34 291.388 148.34C290.365 148.34 289.452 147.493 289.452 144.985C289.452 142.466 290.365 141.63 291.388 141.63C292.411 141.63 293.335 142.466 293.335 144.985Z" fill="#C2C2C2"/>
<path d="M305.651 143.94L308.082 140.893H306.817L304.573 143.918C303.869 144.842 303.572 145.656 303.572 146.371C303.572 148.043 304.639 149.143 306.278 149.143C307.928 149.143 309.072 147.977 309.072 146.481C309.072 144.93 307.972 144.05 306.652 144.05C306.113 144.05 305.662 144.204 305.266 144.468C305.343 144.38 305.464 144.204 305.651 143.94ZM306.256 148.296C305.156 148.296 304.551 147.592 304.551 146.536C304.551 145.623 305.244 144.831 306.322 144.831C307.323 144.831 308.06 145.491 308.06 146.558C308.06 147.559 307.323 148.296 306.256 148.296ZM311.016 148.12H310.015V149.154H311.016V148.12ZM314.189 143.94L314.552 141.828H317.709V140.904H313.848L313.188 144.721L313.837 144.908C314.31 144.743 314.728 144.644 315.157 144.644C316.312 144.644 316.994 145.26 316.994 146.316C316.994 147.504 316.191 148.197 315.08 148.197C314.42 148.197 313.782 147.9 313.298 147.493L312.759 148.23C313.254 148.703 314.068 149.099 315.036 149.099C316.675 149.099 317.962 147.977 317.962 146.261C317.962 144.853 317.049 143.797 315.344 143.797C314.948 143.797 314.563 143.841 314.189 143.94Z" fill="#C2C2C2"/>
<path d="M166.716 85.2743L47 126.818" stroke="#FF6D3B" stroke-width="3"/>
<path d="M215.415 68.375L166.717 85.2742" stroke="#FABF48" stroke-width="3"/>
<path d="M264.113 51.4761L215.414 68.3752" stroke="#62B22F" stroke-width="3"/>
<path d="M312.811 34.5769L264.113 51.476" stroke="#1E76FC" stroke-width="3"/>
<path d="M326 30L312.811 34.5768" stroke="#6967F9" stroke-width="3"/>
<mask id="mask0_317_2866" style="mask-type:alpha" maskUnits="userSpaceOnUse" x="229" y="50" width="48" height="83">
<path d="M276.5 132.5L229 132.5L229 67.0001L276.5 50.0001L276.5 132.5Z" fill="#D9D9D9"/>
</mask>
<g mask="url(#mask0_317_2866)">
<path d="M196.992 69.3102L281.145 39.8316" stroke="#F5F5F5"/>
<path d="M196 66.4788L280.153 37.0002" stroke="#F5F5F5"/>
<path d="M197.984 72.1414L282.137 42.6628" stroke="#F5F5F5"/>
<path d="M198.976 74.9728L283.129 45.4942" stroke="#F5F5F5"/>
<path d="M199.967 77.804L284.121 48.3254" stroke="#F5F5F5"/>
<path d="M200.959 80.6354L285.113 51.1568" stroke="#F5F5F5"/>
<path d="M201.951 83.4666L286.104 53.988" stroke="#F5F5F5"/>
<path d="M202.943 86.2981L287.096 56.8195" stroke="#F5F5F5"/>
<path d="M203.934 89.1293L288.088 59.6507" stroke="#F5F5F5"/>
<path d="M204.926 91.9607L289.08 62.4821" stroke="#F5F5F5"/>
<path d="M205.918 94.7918L290.072 65.3132" stroke="#F5F5F5"/>
<path d="M206.91 97.6233L291.063 68.1447" stroke="#F5F5F5"/>
<path d="M207.902 100.454L292.055 70.9759" stroke="#F5F5F5"/>
<path d="M208.893 103.286L293.047 73.8073" stroke="#F5F5F5"/>
<path d="M209.885 106.117L294.039 76.6385" stroke="#F5F5F5"/>
<path d="M210.877 108.949L295.03 79.4699" stroke="#F5F5F5"/>
<path d="M211.869 111.78L296.022 82.3011" stroke="#F5F5F5"/>
<path d="M212.861 114.611L297.014 85.1325" stroke="#F5F5F5"/>
<path d="M213.853 117.442L298.006 87.9637" stroke="#F5F5F5"/>
<path d="M214.844 120.274L298.998 90.7951" stroke="#F5F5F5"/>
<path d="M215.836 123.105L299.989 93.6266" stroke="#F5F5F5"/>
<path d="M216.828 125.936L300.981 96.4578" stroke="#F5F5F5"/>
<path d="M217.82 128.768L301.973 99.2892" stroke="#F5F5F5"/>
<path d="M218.812 131.599L302.965 102.12" stroke="#F5F5F5"/>
<path d="M219.803 134.43L303.957 104.952" stroke="#F5F5F5"/>
<path d="M220.795 137.262L304.949 107.783" stroke="#F5F5F5"/>
<path d="M221.787 140.093L305.94 110.614" stroke="#F5F5F5"/>
<path d="M222.779 142.924L306.932 113.446" stroke="#F5F5F5"/>
<path d="M223.771 145.756L307.924 116.277" stroke="#F5F5F5"/>
<path d="M224.762 148.587L308.916 119.108" stroke="#F5F5F5"/>
<path d="M225.754 151.418L309.907 121.94" stroke="#F5F5F5"/>
<path d="M226.746 154.249L310.899 124.771" stroke="#F5F5F5"/>
</g>
<path d="M248.168 77.2201L250.508 77.2201L250.508 80.4961L251.504 80.4961L251.504 74.1361L250.508 74.1361L250.508 76.4161L248.168 76.4161L248.168 77.2201ZM248.42 79.9921L248.948 79.2241C247.364 78.6721 246.332 77.3281 246.332 75.8041L246.332 74.7361L245.348 74.7361L245.348 75.8401C245.348 77.4721 244.292 78.9361 242.624 79.5121L243.14 80.3161C244.436 79.8241 245.396 78.8761 245.864 77.5801C246.332 78.6961 247.22 79.5481 248.42 79.9921ZM247.952 80.8201C245.744 80.8201 244.364 81.5521 244.364 82.8481C244.364 84.1321 245.744 84.8761 247.952 84.8761C250.16 84.8761 251.528 84.1321 251.528 82.8481C251.528 81.5521 250.16 80.8201 247.952 80.8201ZM247.952 84.0961C246.308 84.0961 245.348 83.6281 245.348 82.8481C245.348 82.0321 246.308 81.5881 247.952 81.5881C249.596 81.5881 250.556 82.0321 250.556 82.8481C250.556 83.6281 249.596 84.0961 247.952 84.0961ZM261.283 81.9961L262.267 81.9961L262.267 74.1361L261.283 74.1361L261.283 81.9961ZM259.303 77.5201C259.303 75.9721 258.079 74.8801 256.483 74.8801C254.887 74.8801 253.687 75.9721 253.687 77.5201C253.687 79.0801 254.887 80.1841 256.483 80.1841C258.079 80.1841 259.303 79.0801 259.303 77.5201ZM254.647 77.5201C254.647 76.4761 255.427 75.7321 256.483 75.7321C257.551 75.7321 258.343 76.4761 258.343 77.5201C258.343 78.5881 257.551 79.3321 256.483 79.3321C255.427 79.3321 254.647 78.5881 254.647 77.5201ZM262.591 84.6481L262.591 83.8441L256.327 83.8441L256.327 81.1921L255.343 81.1921L255.343 84.6481L262.591 84.6481ZM250.988 93.4121L252.584 93.4121L252.584 92.5961L250.988 92.5961L250.988 90.1241L250.004 90.1241L250.004 96.2081L250.988 96.2081L250.988 93.4121ZM249.032 94.9121L248.912 94.1081C247.172 94.4441 245.684 94.5521 244.136 94.5641L244.136 90.6641L243.164 90.6641L243.164 95.3921L244.004 95.3921C245.636 95.3921 247.196 95.2841 249.032 94.9121ZM250.988 96.7961L244.208 96.7961L244.208 100.732L250.988 100.732L250.988 96.7961ZM250.028 99.9401L245.168 99.9401L245.168 97.5881L250.028 97.5881L250.028 99.9401ZM262.303 100.9L262.303 90.1241L261.319 90.1241L261.319 92.6321L258.103 92.6321L258.103 93.4361L261.319 93.4361L261.319 95.0801L258.103 95.0801L258.103 95.8841L261.319 95.8841L261.319 100.9L262.303 100.9ZM255.007 97.5761L255.007 91.3121L254.023 91.3121L254.023 98.4041L254.839 98.4041C256.699 98.4041 258.067 98.3321 259.627 98.0081L259.519 97.1921C258.043 97.4801 256.723 97.5761 255.007 97.5761ZM248.732 110.78L250.508 110.78L250.508 112.76L251.504 112.76L251.504 106.136L250.508 106.136L250.508 108.044L248.732 108.044L248.732 108.848L250.508 108.848L250.508 109.976L248.732 109.976L248.732 110.78ZM249.02 111.764L248.96 111.032C248.516 111.092 248.036 111.14 247.556 111.176L247.556 107.732L248.624 107.732L248.624 106.94L242.96 106.94L242.96 107.732L244.028 107.732L244.028 111.296C243.788 111.308 243.56 111.308 243.332 111.308L242.672 111.308L242.78 112.124C244.52 112.124 246.944 112.088 249.02 111.764ZM244.976 111.284L244.976 107.732L246.596 107.732L246.596 111.224C246.056 111.26 245.504 111.272 244.976 111.284ZM247.952 112.988C245.684 112.988 244.364 113.672 244.364 114.92C244.364 116.168 245.684 116.876 247.952 116.876C250.172 116.876 251.528 116.168 251.528 114.92C251.528 113.672 250.172 112.988 247.952 112.988ZM247.952 116.108C246.308 116.108 245.348 115.688 245.348 114.92C245.348 114.188 246.308 113.744 247.952 113.744C249.596 113.744 250.556 114.188 250.556 114.92C250.556 115.688 249.596 116.108 247.952 116.108ZM263.203 111.548L263.203 110.744L261.691 110.744C261.943 109.4 261.943 108.392 261.943 107.516L261.943 106.7L254.659 106.7L254.659 107.504L260.971 107.504L260.971 107.516C260.971 108.392 260.983 109.388 260.707 110.744L253.435 110.744L253.435 111.548L256.675 111.548L256.675 114.14L257.635 114.14L257.635 111.548L259.531 111.548L259.531 114.14L260.491 114.14L260.491 111.548L263.203 111.548ZM262.231 115.844L255.595 115.844L255.595 113.276L254.623 113.276L254.623 116.648L262.231 116.648L262.231 115.844Z" fill="#C7C7CF"/>
<path fill-rule="evenodd" clip-rule="evenodd" d="M297 0C289.82 0 284 5.8203 284 13C284 20.1797 289.82 26 297 26H306.959L311 33L315.041 26H325C332.18 26 338 20.1797 338 13C338 5.8203 332.18 0 325 0H297Z" fill="black"/>
<path d="M296.644 10.008H303.244V10.392C303.244 12.024 303.172 13.44 302.872 15.06L303.844 15.18C304.228 13.164 304.228 11.76 304.228 10.392V9.204H296.644V10.008ZM305.368 17.376V16.572H301.66V13.008H300.688V16.572H298.996V13.008H298.024V16.572H295.636V17.376H305.368ZM311.295 12.492C313.623 12.492 315.075 11.736 315.075 10.44C315.075 9.144 313.623 8.376 311.295 8.376C308.979 8.376 307.515 9.144 307.515 10.44C307.515 11.736 308.979 12.492 311.295 12.492ZM311.295 9.156C313.035 9.156 314.067 9.624 314.067 10.44C314.067 11.256 313.035 11.724 311.295 11.724C309.555 11.724 308.523 11.256 308.523 10.44C308.523 9.624 309.555 9.156 311.295 9.156ZM313.599 15.468V14.1H316.167V13.308H306.435V14.1H309.003V15.468H307.515V16.26H313.983V18.9H314.967V15.468H313.599ZM309.987 14.1H312.615V15.468H309.987V14.1ZM323.066 14.424H324.002V11.82H325.37V14.772H326.318V8.136H325.37V11.016H324.002V8.34H323.066V14.424ZM322.094 13.932L322.622 13.176C321.242 12.66 320.438 11.424 320.438 10.248V8.796H319.49V10.248C319.49 11.436 318.638 12.864 317.246 13.464L317.774 14.232C318.83 13.764 319.586 12.852 319.97 11.844C320.354 12.756 321.086 13.512 322.094 13.932ZM322.766 15.012C320.558 15.012 319.178 15.732 319.178 16.944C319.178 18.156 320.558 18.876 322.766 18.876C324.974 18.876 326.366 18.156 326.366 16.944C326.366 15.732 324.974 15.012 322.766 15.012ZM322.766 18.12C321.122 18.12 320.15 17.712 320.15 16.944C320.15 16.176 321.122 15.78 322.766 15.78C324.41 15.78 325.394 16.176 325.394 16.944C325.394 17.712 324.41 18.12 322.766 18.12Z" fill="white"/>
<circle cx="311" cy="35" r="3" fill="black"/>
<circle cx="311" cy="35" r="5" fill="black" fill-opacity="0.1"/>
<circle cx="311" cy="35" r="2" fill="white"/>
</svg>
