<svg width="140" height="127" viewBox="0 0 140 127" fill="none" xmlns="http://www.w3.org/2000/svg">
<g clip-path="url(#clip0_1_1058)">
<path d="M96.2291 85.7768L87.9134 82.6924V56.1407H51.9304V82.6924L43.6147 85.7768C43.6147 85.7768 46.0501 101.023 69.2508 101.926H70.6406C79.6571 101.562 85.5256 99.0292 89.3508 96.0621L89.5289 95.9214C89.9922 95.5578 90.4202 95.1825 90.8241 94.7486L91.1565 94.4319C91.5248 94.0801 91.8575 93.7282 92.1664 93.3881C92.3089 93.2357 92.4394 93.0715 92.5701 92.919C92.7008 92.7665 92.9383 92.4617 93.1165 92.2388C93.2947 92.016 93.5442 91.6642 93.7343 91.3827C93.8056 91.2772 93.8773 91.1834 93.9367 91.0778C93.9961 90.9723 94.186 90.7141 94.2929 90.5382C95.2062 89.0705 95.8607 87.4606 96.2291 85.7768Z" fill="#FCDAC8"/>
<path d="M96.2653 85.7413C95.9844 87.0729 95.5076 88.3569 94.8511 89.5528C94.6813 89.8998 94.4909 90.2366 94.2809 90.5614C92.9944 92.672 91.3229 94.529 89.351 96.0383C88.8996 96.3784 88.4364 96.7185 87.9374 97.0469C84.1122 99.5449 78.6 101.55 70.6408 101.89H69.251C61.4818 101.574 56.0765 99.5449 52.2513 97.0469C51.7405 96.7185 51.2538 96.3784 50.8023 96.0383C48.8038 94.5226 47.0942 92.6681 45.7536 90.5614C45.5379 90.2356 45.3397 89.899 45.1596 89.5528C44.4722 88.3559 43.9488 87.0742 43.6033 85.7413L37.5092 88.685V113.184H102.763V88.8257L96.2653 85.7413Z" fill="white"/>
<path d="M115.035 123.012V126.413H139.459C139.452 125.277 139.385 124.141 139.257 123.012C139.257 122.672 139.197 122.332 139.15 122.004C138.881 120.149 138.452 118.32 137.867 116.538C137.737 116.186 137.641 115.846 137.511 115.53C136.817 113.621 135.929 111.786 134.861 110.053C134.648 109.713 134.446 109.373 134.22 109.044C132.906 107.057 131.372 105.22 129.646 103.567C129.29 103.227 128.922 102.887 128.542 102.559C126.463 100.741 124.151 99.2034 121.663 97.9851L119.846 97.0937L117.755 96.0852L115.035 94.7717V117.875C115.03 118.12 115.003 118.363 114.952 118.602C115.002 118.834 115.03 119.069 115.035 119.306V123.059V123.012Z" fill="white"/>
<path d="M25.2139 117.875V94.7366L22.3153 96.1321L20.4737 97.0352L18.4185 98.032C15.9385 99.2562 13.6306 100.794 11.5524 102.606L10.4474 103.614C8.72123 105.27 7.18376 107.106 5.86209 109.091C5.66014 109.42 5.4341 109.76 5.23215 110.1C4.17006 111.837 3.27929 113.672 2.57144 115.577C2.45265 115.893 2.34571 116.234 2.25067 116.585C1.64652 118.364 1.20899 120.193 0.943812 122.051C0.943812 122.379 0.872721 122.719 0.837082 123.059C0.709226 124.189 0.641908 125.324 0.635223 126.46H25.2139V119.306C25.2139 119.072 25.2139 118.849 25.2139 118.603C25.2139 118.356 25.2139 118.075 25.2139 117.875Z" fill="white"/>
<path d="M114.797 94.6547V117.712C114.793 117.956 114.765 118.199 114.714 118.439C114.764 118.67 114.792 118.906 114.797 119.142V126.296H24.9997V119.142C24.9997 118.908 24.9995 118.685 25.0589 118.439C25.1183 118.192 24.9997 117.958 24.9997 117.712V94.5726L33.3867 90.4914L35.4656 89.4828L37.2713 88.615V113.091H102.526V88.7322L104.081 89.4828L106.172 90.4914L114.797 94.6547Z" fill="#045135"/>
<path d="M139.981 127H0.00511429V126.414C-0.410668 102.829 24.5127 94.1039 24.774 94.0218L50.3387 82.728C50.6171 82.6027 50.8534 82.4014 51.0197 82.1479C51.186 81.8944 51.2754 81.5992 51.2773 81.2972V69.5694H52.4652V81.2972C52.4643 81.8252 52.3088 82.3416 52.018 82.7847C51.7272 83.2277 51.3137 83.5785 50.826 83.7951L25.2015 95.1124C24.9164 95.2062 1.19334 103.533 1.18146 125.828H138.793C138.58 122.227 136.417 103.005 114.571 95.2063L88.9112 83.7951C88.4235 83.5785 88.0099 83.2277 87.7192 82.7847C87.4284 82.3416 87.2729 81.8252 87.2719 81.2972V68.3967H88.4599V81.2972C88.4603 81.5996 88.5492 81.8952 88.7157 82.149C88.8821 82.4028 89.1191 82.6039 89.3984 82.728L115.023 94.1156C127.948 98.7363 134.03 107.262 136.905 113.607C138.769 117.637 139.822 121.987 140.005 126.414L139.981 127Z" fill="#2C2C2C"/>
<path d="M70.1974 77.2625C90.6183 76.4181 95.6194 55.5779 95.6194 55.5779C95.6194 55.5779 100.193 56.4106 101.262 45.8087C102.331 35.2068 96.5818 38.1387 96.5818 38.1387C96.9144 7.64653 80.4377 14.8591 73.3576 14.8474H67.0373C59.9096 14.8474 43.4804 7.59962 43.8131 38.1387C43.8131 38.1387 38.0635 35.1951 39.1326 45.8087C40.2018 56.4224 44.7632 55.5779 44.7632 55.5779C44.7632 55.5779 49.7647 76.4181 70.1974 77.2625Z" fill="#FCDAC8"/>
<path d="M69.3699 77.8489C50.4459 77.0632 44.4229 59.2839 43.5082 56.1643C42.7642 56.0955 42.0552 55.8188 41.4647 55.3667C39.4808 53.889 38.222 50.6757 37.7349 45.8673C37.3073 41.5632 37.9251 38.8306 39.5882 37.6578C40.0017 37.3973 40.4664 37.227 40.9519 37.1582C41.4375 37.0894 41.9322 37.1239 42.4032 37.2591C42.4032 26.8214 44.3637 19.9958 48.4265 16.4189C52.6912 12.6543 58.4647 13.3696 62.6819 13.8974C63.8626 14.0717 65.0526 14.1774 66.2458 14.214H72.5892C73.7834 14.1944 74.9745 14.0885 76.1531 13.8974C80.3703 13.3814 86.1437 12.6543 90.4085 16.4189C94.4594 19.9372 96.4315 26.8214 96.4196 37.2591C96.8925 37.1237 97.3892 37.0892 97.8767 37.1579C98.3642 37.2267 98.8312 37.3971 99.2468 37.6578C100.898 38.772 101.528 41.5163 101.1 45.8673C100.613 50.6874 99.3539 53.889 97.3581 55.3667C96.7693 55.8217 96.0594 56.0988 95.3146 56.1643C94.4117 59.2839 88.3891 77.0632 69.4651 77.8489H69.3699ZM44.423 54.9095L44.5535 55.4372C44.5535 55.6366 49.6972 75.8435 69.4053 76.6761C89.1134 75.8435 94.198 55.6366 94.2455 55.4372L94.3761 54.8977L94.9347 54.9915C95.2475 55.0089 95.5607 54.965 95.8564 54.8624C96.152 54.7597 96.4239 54.6003 96.6568 54.3934C97.8448 53.5021 99.3184 51.2738 99.8767 45.75C100.352 40.9651 99.4133 39.2646 98.5461 38.7134C98.1614 38.5207 97.7361 38.4203 97.3048 38.4203C96.8734 38.4203 96.4476 38.5207 96.0629 38.7134L95.1841 39.159V38.127C95.291 27.7245 93.4022 20.723 89.5651 17.3454C85.728 13.9678 80.4536 14.5893 76.2482 15.1054C75.0288 15.2902 73.7987 15.3999 72.5654 15.4338H66.2336C64.9972 15.3872 63.7642 15.2775 62.5392 15.1054C58.322 14.5893 53.0353 13.9326 49.2101 17.3454C45.3849 20.7582 43.4845 27.7245 43.6033 38.127V39.1121L42.724 38.6547C42.3372 38.4619 41.9102 38.3615 41.4769 38.3615C41.0436 38.3615 40.616 38.4619 40.2292 38.6547C39.362 39.2411 38.4236 41.0002 38.9107 45.6913C39.4572 51.2151 40.9661 53.4434 42.1184 54.3347C42.5953 54.75 43.2177 54.9646 43.8528 54.9328L44.423 54.9095Z" fill="#0D1719"/>
<path d="M55.8424 23.4907C55.8424 23.4907 66.534 16.7707 75.4436 23.4907C83.391 29.4601 77.6294 33.1074 89.699 36.3912C90.7691 36.6798 91.7132 37.3082 92.3853 38.1794C93.0573 39.0507 93.4204 40.1162 93.4177 41.2113V41.5983C93.4082 41.9798 93.4929 42.3578 93.6648 42.6996C93.8368 43.0414 94.0907 43.3366 94.4044 43.5596C94.7181 43.7826 95.0819 43.9267 95.4648 43.9793C95.8476 44.032 96.2376 43.9917 96.6011 43.8618C96.9005 43.7641 97.1741 43.6018 97.4021 43.3868C97.6302 43.1718 97.8075 42.9094 97.9201 42.6186C100.07 37.0948 109.799 8.84271 86.1949 2.11097C65.4058 -3.82328 54.512 4.18667 50.9125 7.71673C49.8848 8.73237 48.7634 9.65122 47.5627 10.4611C43.298 13.3462 34.0795 21.1803 39.841 32.181C40.8148 34.1077 41.61 36.1174 42.217 38.1856L43.2384 41.4458C43.3694 41.8747 43.617 42.2601 43.9542 42.5599C44.2914 42.8597 44.7051 43.0626 45.1509 43.1464C45.4958 43.207 45.8504 43.1915 46.1886 43.101C46.5267 43.0106 46.84 42.8475 47.1068 42.6233C47.3736 42.3991 47.587 42.1195 47.7315 41.8044C47.876 41.4893 47.9481 41.1467 47.9427 40.8009C47.9308 36.3091 48.786 27.654 55.8424 23.4907Z" fill="#0D1719"/>
<g style="mix-blend-mode:multiply" opacity="0.3">
<g style="mix-blend-mode:multiply" opacity="0.3">
<path d="M67.6669 52.5638C71.0051 53.7366 72.7157 50.7343 74.1531 51.6373C75.5905 52.5403 72.9648 56.1877 69.3178 53.9829C67.6784 53.0798 66.6928 52.2003 67.6669 52.5638Z" fill="#F1B69A"/>
</g>
</g>
<path d="M69.8529 54.8039C69.7534 54.8044 69.655 54.7803 69.5675 54.7336L69.2705 54.5812C68.7007 54.3704 68.197 54.0159 67.8093 53.5529C67.4216 53.0899 67.1636 52.5346 67.0611 51.9424C66.974 51.6108 66.9801 51.2621 67.0785 50.9336C67.1768 50.6051 67.364 50.3092 67.6197 50.0776C68.3945 49.2103 68.8176 48.0911 68.8076 46.9347C68.8256 46.7738 68.9062 46.6263 69.0327 46.5233C69.1591 46.4204 69.3212 46.3703 69.4845 46.3835C69.6496 46.3984 69.8018 46.4769 69.9085 46.6021C70.0153 46.7272 70.0679 46.8888 70.0547 47.0519C70.0572 48.4591 69.5471 49.8203 68.6173 50.8869C68.3085 51.2387 68.2494 51.3092 68.3325 51.6845C68.3948 52.0991 68.5731 52.4881 68.8482 52.8074C69.1233 53.1267 69.4837 53.3633 69.8882 53.4904L70.1974 53.6429C70.3429 53.7201 70.4519 53.8506 70.5008 54.0064C70.5497 54.1622 70.5342 54.3306 70.4584 54.4755C70.4009 54.5826 70.3132 54.6709 70.2055 54.7292C70.0979 54.7876 69.9753 54.8135 69.8529 54.8039Z" fill="#262323"/>
<path d="M58.7075 40.1443C58.5474 40.1034 58.4011 40.021 58.2841 39.9055C58.1671 39.79 58.0836 39.6457 58.0422 39.4876C58.0044 39.3675 57.9918 39.241 58.0051 39.116C58.0184 38.9909 58.0577 38.8698 58.12 38.7601C58.1822 38.6503 58.266 38.5543 58.3671 38.4777C58.4681 38.4012 58.5841 38.3458 58.7075 38.3148C60.3307 37.9789 62.0148 38.0719 63.5899 38.5845C63.7091 38.6206 63.82 38.6796 63.9159 38.7583C64.0117 38.8371 64.0904 38.9339 64.1479 39.0431C64.2054 39.1523 64.2403 39.2716 64.2505 39.3943C64.2608 39.5169 64.2462 39.6403 64.2076 39.7573C64.1711 39.875 64.1116 39.9843 64.0319 40.0789C63.9521 40.1734 63.8542 40.2514 63.7436 40.3082C63.633 40.365 63.5116 40.3994 63.3874 40.4096C63.2632 40.4197 63.1382 40.4053 63.0197 40.3672C61.7759 39.9792 60.4565 39.8906 59.171 40.1091C59.0234 40.1653 58.8621 40.1776 58.7075 40.1443Z" fill="#262323"/>
<path d="M81.5583 40.144C81.7169 40.0999 81.8612 40.0163 81.9777 39.9013C82.0942 39.7863 82.179 39.6438 82.2237 39.4873C82.2614 39.3672 82.2741 39.2407 82.2608 39.1157C82.2475 38.9906 82.2082 38.8695 82.1459 38.7598C82.0837 38.65 81.9993 38.554 81.8982 38.4775C81.7972 38.4009 81.6818 38.3455 81.5583 38.3145C79.9311 37.9804 78.2433 38.0734 76.6638 38.5843C76.5446 38.6203 76.4336 38.6793 76.3378 38.7581C76.242 38.8368 76.1633 38.9336 76.1058 39.0428C76.0483 39.152 76.0134 39.2713 76.0032 39.394C75.9929 39.5166 76.0075 39.64 76.0461 39.757C76.0826 39.8747 76.1427 39.984 76.2224 40.0786C76.3022 40.1732 76.4001 40.2511 76.5107 40.3079C76.6213 40.3647 76.742 40.3992 76.8663 40.4093C76.9905 40.4194 77.1155 40.405 77.234 40.3669C78.4778 39.9789 79.7972 39.8903 81.0827 40.1088C81.2345 40.1647 81.3998 40.1769 81.5583 40.144Z" fill="#262323"/>
<path d="M62 48.8946C63.1045 48.8946 64 47.7777 64 46.3999C64 45.0222 63.1045 43.9053 62 43.9053C60.8954 43.9053 60 45.0222 60 46.3999C60 47.7777 60.8954 48.8946 62 48.8946Z" fill="#0D1719"/>
<path d="M78 48.8946C79.1045 48.8946 80 47.7777 80 46.3999C80 45.0222 79.1045 43.9053 78 43.9053C76.8954 43.9053 76 45.0222 76 46.3999C76 47.7777 76.8954 48.8946 78 48.8946Z" fill="#0D1719"/>
<path d="M70.4502 59.7532C69.4712 59.7558 68.5014 59.5676 67.5963 59.1993C66.6912 58.831 65.8685 58.29 65.1757 57.6071C65.1201 57.5526 65.0759 57.4877 65.0458 57.4163C65.0156 57.3448 65 57.2682 65 57.1908C65 57.1134 65.0156 57.0368 65.0458 56.9653C65.0759 56.8938 65.1201 56.829 65.1757 56.7745C65.2309 56.7195 65.2965 56.6758 65.3689 56.646C65.4413 56.6163 65.519 56.601 65.5974 56.601C65.6758 56.601 65.7536 56.6163 65.826 56.646C65.8983 56.6758 65.9639 56.7195 66.0191 56.7745C66.5989 57.3513 67.2896 57.8081 68.0505 58.1182C68.8113 58.4283 69.627 58.5854 70.4502 58.5804C71.2731 58.5841 72.0886 58.4264 72.8493 58.1163C73.6099 57.8063 74.3006 57.3502 74.8812 56.7745C74.9345 56.7184 74.9988 56.6736 75.0703 56.643C75.1418 56.6125 75.2192 56.5968 75.2971 56.5968C75.375 56.5968 75.4518 56.6125 75.5233 56.643C75.5948 56.6736 75.6597 56.7184 75.713 56.7745C75.7687 56.829 75.8128 56.8938 75.8429 56.9653C75.8731 57.0368 75.8882 57.1134 75.8882 57.1908C75.8882 57.2682 75.8731 57.3448 75.8429 57.4163C75.8128 57.4877 75.7687 57.5526 75.713 57.6071C75.0228 58.2901 74.2021 58.8315 73.2988 59.1999C72.3955 59.5683 71.4274 59.7562 70.4502 59.7532Z" fill="#F66D62"/>
</g>
<defs>
<clipPath id="clip0_1_1058">
<rect width="140" height="127" fill="white"/>
</clipPath>
</defs>
</svg>
