<svg width="50" height="62" viewBox="0 0 50 62" fill="none" xmlns="http://www.w3.org/2000/svg">
<path d="M25 56L25 33" stroke="#FABF48" stroke-width="0.8" stroke-dasharray="2 2"/>
<path fill-rule="evenodd" clip-rule="evenodd" d="M14 0C6.26801 0 0 6.26801 0 14C0 21.732 6.26801 28 14 28H22.1132L25 33L27.8868 28H36C43.732 28 50 21.732 50 14C50 6.26801 43.732 0 36 0H14Z" fill="#FABF48"/>
<path d="M20.732 12.78H22.508V14.76H23.504V8.136H22.508V10.044H20.732V10.848H22.508V11.976H20.732V12.78ZM21.02 13.764L20.96 13.032C20.516 13.092 20.036 13.14 19.556 13.176V9.732H20.624V8.94H14.96V9.732H16.028V13.296C15.788 13.308 15.56 13.308 15.332 13.308H14.672L14.78 14.124C16.52 14.124 18.944 14.088 21.02 13.764ZM16.976 13.284V9.732H18.596V13.224C18.056 13.26 17.504 13.272 16.976 13.284ZM19.952 14.988C17.684 14.988 16.364 15.672 16.364 16.92C16.364 18.168 17.684 18.876 19.952 18.876C22.172 18.876 23.528 18.168 23.528 16.92C23.528 15.672 22.172 14.988 19.952 14.988ZM19.952 18.108C18.308 18.108 17.348 17.688 17.348 16.92C17.348 16.188 18.308 15.744 19.952 15.744C21.596 15.744 22.556 16.188 22.556 16.92C22.556 17.688 21.596 18.108 19.952 18.108ZM35.2031 13.548V12.744H33.6911C33.9431 11.4 33.9431 10.392 33.9431 9.516V8.7H26.6591V9.504H32.9711V9.516C32.9711 10.392 32.9831 11.388 32.7071 12.744H25.4351V13.548H28.6751V16.14H29.6351V13.548H31.5311V16.14H32.4911V13.548H35.2031ZM34.2311 17.844H27.5951V15.276H26.6231V18.648H34.2311V17.844Z" fill="white"/>
<circle cx="25" cy="52" r="10" fill="#FABF48" fill-opacity="0.3"/>
<circle cx="25" cy="52" r="6" fill="#FABF48"/>
</svg>
