<svg width="20" height="20" viewBox="0 0 20 20" fill="none" xmlns="http://www.w3.org/2000/svg">
<path d="M14.1666 7.2619C15.4816 7.2619 16.5475 6.19592 16.5475 4.88095C16.5475 3.56599 15.4816 2.5 14.1666 2.5C12.8516 2.5 11.7856 3.56599 11.7856 4.88095C11.7856 6.19592 12.8516 7.2619 14.1666 7.2619Z" fill="#FF6262"/>
<path d="M6.42853 8.45071C6.4281 8.25107 6.44603 8.05182 6.4821 7.85547H4.64282C3.85348 7.85547 3.09648 8.16903 2.53833 8.72717C1.98019 9.28532 1.66663 10.0423 1.66663 10.8317V13.8078C1.66663 13.9657 1.72934 14.1171 1.84097 14.2287C1.9526 14.3404 2.104 14.4031 2.26186 14.4031H4.64282C4.64347 13.5929 4.88029 12.8005 5.32431 12.1229C5.76833 11.4452 6.40028 10.9117 7.14282 10.5876C6.68039 9.97104 6.42982 9.22142 6.42853 8.45071Z" fill="#FF6262"/>
<path d="M15.3584 7.85547H13.5191C13.5552 8.05182 13.5731 8.25107 13.5727 8.45071C13.5714 9.22142 13.3208 9.97104 12.8584 10.5876C13.6009 10.9117 14.2329 11.4452 14.6769 12.1229C15.1209 12.8005 15.3577 13.5929 15.3584 14.4031H17.7394C17.8972 14.4031 18.0486 14.3404 18.1602 14.2287C18.2719 14.1171 18.3346 13.9657 18.3346 13.8078V10.8317C18.3346 10.0423 18.021 9.28532 17.4629 8.72717C16.9047 8.16903 16.1477 7.85547 15.3584 7.85547Z" fill="#FF6262"/>
<path d="M5.83334 7.2619C7.14831 7.2619 8.2143 6.19592 8.2143 4.88095C8.2143 3.56599 7.14831 2.5 5.83334 2.5C4.51838 2.5 3.45239 3.56599 3.45239 4.88095C3.45239 6.19592 4.51838 7.2619 5.83334 7.2619Z" fill="#FF6262"/>
<path d="M9.99997 10.8322C11.3149 10.8322 12.3809 9.76623 12.3809 8.45126C12.3809 7.1363 11.3149 6.07031 9.99997 6.07031C8.68501 6.07031 7.61902 7.1363 7.61902 8.45126C7.61902 9.76623 8.68501 10.8322 9.99997 10.8322Z" fill="#FF6262"/>
<path d="M11.1904 11.4297H8.80944C8.02011 11.4297 7.2631 11.7432 6.70496 12.3014C6.14681 12.8595 5.83325 13.6165 5.83325 14.4059V17.3821C5.83325 17.5399 5.89596 17.6913 6.00759 17.803C6.11922 17.9146 6.27062 17.9773 6.42849 17.9773H13.5713C13.7292 17.9773 13.8806 17.9146 13.9922 17.803C14.1039 17.6913 14.1666 17.5399 14.1666 17.3821V14.4059C14.1666 14.015 14.0896 13.628 13.94 13.2669C13.7905 12.9059 13.5712 12.5778 13.2949 12.3014C13.0185 12.025 12.6904 11.8058 12.3293 11.6562C11.9682 11.5067 11.5812 11.4297 11.1904 11.4297Z" fill="#FF6262"/>
</svg>
