<svg width="20" height="20" viewBox="0 0 20 20" fill="none" xmlns="http://www.w3.org/2000/svg">
<path d="M10.0005 1.66797C5.40166 1.66797 1.66725 5.40246 1.66725 10.0018C1.67003 11.4736 2.06994 12.914 2.81091 14.1836L1.68136 17.5723C1.60896 17.7895 1.81575 17.9962 2.03292 17.9239L5.274 16.8437C6.66315 17.8054 8.30777 18.332 10 18.3346C14.5992 18.3344 18.3333 14.6003 18.3333 10.0013C18.3333 5.40212 14.5994 1.66807 10.0005 1.66797ZM7.21573 9.16793C7.67266 9.16793 8.04906 9.54436 8.04906 10.0013C8.04905 10.4583 7.67265 10.8346 7.21573 10.8346C6.7588 10.8346 6.38294 10.4583 6.38294 10.0013C6.38294 9.54436 6.75879 9.16793 7.21573 9.16793ZM10.0005 9.16793C10.4575 9.16793 10.8339 9.54436 10.8339 10.0013C10.8339 10.4583 10.4575 10.8346 10.0005 10.8346C9.54362 10.8346 9.16722 10.4583 9.16721 10.0013C9.16721 9.54436 9.54361 9.16793 10.0005 9.16793ZM12.7713 9.16793C13.2282 9.16793 13.6046 9.54436 13.6046 10.0013C13.6046 10.4583 13.2282 10.8346 12.7713 10.8346C12.3143 10.8346 11.9379 10.4583 11.9379 10.0013C11.9379 9.54436 12.3143 9.16793 12.7713 9.16793Z" fill="#FF6262"/>
</svg>
