<svg width="23" height="28" viewBox="0 0 23 28" fill="none" xmlns="http://www.w3.org/2000/svg">
<path d="M0.560312 17.6289H3.20875V25H4.49781V17.6289H7.13453V16.5156H0.560312V17.6289ZM15.2148 20.7578C15.2148 18.0449 13.5859 16.3984 11.3945 16.3984C9.18555 16.3984 7.5625 18.0449 7.5625 20.7578C7.5625 23.4648 9.18555 25.1172 11.3945 25.1172C13.5859 25.1172 15.2148 23.4707 15.2148 20.7578ZM8.83984 20.7578C8.8457 18.6953 9.92969 17.5762 11.3945 17.582C12.8477 17.5762 13.9316 18.6953 13.9375 20.7578C13.9316 22.8203 12.8477 23.9395 11.3945 23.9336C9.92969 23.9395 8.8457 22.8203 8.83984 20.7578ZM16.428 25H17.717V22.0234H19.4514C21.4202 22.0234 22.3928 20.834 22.3928 19.2695C22.3928 17.6992 21.426 16.5156 19.4514 16.5156H16.428V25ZM17.717 20.9219V17.6172H19.3225C20.5705 17.623 21.092 18.3086 21.092 19.2695C21.092 20.2246 20.5705 20.9277 19.3225 20.9219H17.717Z" fill="#333333"/>
<mask id="mask0_1262_1958" style="mask-type:alpha" maskUnits="userSpaceOnUse" x="6" y="0" width="10" height="10">
<rect x="6" y="10" width="10" height="10" transform="rotate(-90 6 10)" fill="#111111"/>
</mask>
<g mask="url(#mask0_1262_1958)">
<path d="M6.29443 6.89453L10.8698 2.31913L15.4452 6.89453" stroke="#333333" stroke-width="1.2"/>
</g>
</svg>
