<svg width="40" height="40" viewBox="0 0 40 40" fill="none" xmlns="http://www.w3.org/2000/svg">
<g clip-path="url(#clip0_1257_891)">
<path fill-rule="evenodd" clip-rule="evenodd" d="M20 40C8.97187 40 0 31.0281 0 20C0 8.97187 8.97187 0 20 0C31.0281 0 40 8.9718 40 20C40 31.0282 31.0281 40 20 40ZM27.8072 14.5469C27.5959 14.3358 27.3095 14.2172 27.0108 14.2172C26.7122 14.2172 26.4257 14.3358 26.2145 14.5469L17.6975 23.0633L13.7859 19.1506C13.6816 19.0446 13.5572 18.9604 13.4201 18.9027C13.283 18.845 13.1358 18.815 12.9871 18.8145C12.8383 18.8139 12.6909 18.8429 12.5534 18.8996C12.4159 18.9563 12.291 19.0397 12.1858 19.145C12.0807 19.2502 11.9975 19.3753 11.9409 19.5128C11.8844 19.6504 11.8556 19.7979 11.8563 19.9466C11.857 20.0954 11.8872 20.2425 11.945 20.3796C12.0029 20.5166 12.0873 20.6408 12.1934 20.7451L16.9014 25.4531C17.1128 25.6643 17.3994 25.7829 17.6983 25.7829C17.9971 25.7829 18.2837 25.6643 18.4952 25.4531L27.8077 16.1406C27.9124 16.036 27.9955 15.9118 28.0521 15.775C28.1088 15.6383 28.138 15.4917 28.1379 15.3437C28.1379 15.1956 28.1086 15.0491 28.0519 14.9123C27.9951 14.7756 27.912 14.6514 27.8072 14.5469Z" fill="#24AC32"/>
</g>
<defs>
<clipPath id="clip0_1257_891">
<rect width="40" height="40" fill="white"/>
</clipPath>
</defs>
</svg>
