<svg width="100" height="60" viewBox="0 0 100 60" fill="none" xmlns="http://www.w3.org/2000/svg">
<path fill-rule="evenodd" clip-rule="evenodd" d="M98.9981 23.3377C99.9732 23.3377 100.372 24.5909 99.5756 25.1541L50.5773 59.8164C50.2312 60.0612 49.7683 60.0612 49.4222 59.8164L0.423889 25.1541C-0.372218 24.5909 0.0262347 23.3377 1.00141 23.3377H24.7968C25.4909 23.3377 25.9739 22.6479 25.7364 21.9956L18.2172 1.34154C17.9798 0.689301 18.4628 -0.000549316 19.1569 -0.000549316H80.8456C81.5397 -0.000549316 82.0227 0.689297 81.7853 1.34154L74.2661 21.9956C74.0286 22.6479 74.5116 23.3377 75.2057 23.3377H98.9981Z" fill="url(#paint0_linear_1139_174)"/>
<defs>
<linearGradient id="paint0_linear_1139_174" x1="49.9997" y1="65" x2="49.9997" y2="-3.50058" gradientUnits="userSpaceOnUse">
<stop stop-color="#DDDDDD"/>
<stop offset="1" stop-color="#DDDDDD" stop-opacity="0"/>
</linearGradient>
</defs>
</svg>
