<svg width="260" height="129" viewBox="0 0 260 129" fill="none" xmlns="http://www.w3.org/2000/svg">
<path fill-rule="evenodd" clip-rule="evenodd" d="M4 0C1.79086 0 0 1.79086 0 4V116C0 118.209 1.79086 120 4 120H216.546L220.462 127.913C220.683 128.359 221.317 128.359 221.538 127.913L225.454 120H256C258.209 120 260 118.209 260 116V4C260 1.79086 258.209 0 256 0H4Z" fill="#497BFE"/>
<path d="M20.4409 29.667L22.4214 27.6738L24.4019 29.667L25.3032 28.7529L23.3228 26.7598L25.3032 24.7666L24.4019 23.8525L22.4214 25.8457L20.4409 23.8525L19.5396 24.7666L21.52 26.7598L19.5396 28.7529L20.4409 29.667ZM18.7778 26.7344C18.7778 27.1597 19.0762 27.4771 19.603 27.4834C20.1489 27.4771 20.4346 27.1597 20.4409 26.7344C20.4346 26.3091 20.1362 25.9727 19.603 25.9727C19.0762 25.9727 18.7778 26.3091 18.7778 26.7344ZM21.5708 29.5527C21.5645 29.9717 21.8628 30.3018 22.3833 30.3018C22.9038 30.3018 23.2212 29.9717 23.2212 29.5527C23.2212 29.1274 22.9038 28.7974 22.3833 28.8037C21.8628 28.7974 21.5645 29.1274 21.5708 29.5527ZM21.5708 23.9795C21.5645 24.3984 21.8628 24.7222 22.3833 24.7285C22.9038 24.7222 23.2212 24.3984 23.2212 23.9795C23.2212 23.5542 22.9038 23.2241 22.3833 23.2305C21.8628 23.2241 21.5645 23.5542 21.5708 23.9795ZM24.3257 26.7344C24.332 27.1597 24.6431 27.4771 25.1763 27.4834C25.6904 27.4771 26.0015 27.1597 26.0015 26.7344C26.0015 26.3091 25.6904 25.9727 25.1763 25.9727C24.6431 25.9727 24.332 26.3091 24.3257 26.7344ZM39.23 20.6914H38.0239V29.0576H39.23V25.1094H40.8804V24.0938H39.23V20.6914ZM30.4702 24.3096C30.4575 25.9663 31.7778 27.147 33.4917 27.1406C35.2119 27.147 36.5132 25.9663 36.5259 24.3096C36.5132 22.6528 35.2119 21.4849 33.4917 21.4785C31.7778 21.4849 30.4575 22.6528 30.4702 24.3096ZM31.6509 24.3096C31.6382 23.2495 32.4507 22.5322 33.4917 22.5322C34.5454 22.5322 35.3389 23.2495 35.3452 24.3096C35.3389 25.3696 34.5454 26.0869 33.4917 26.0869C32.4507 26.0869 31.6382 25.3696 31.6509 24.3096ZM32.019 31.8379H39.7124V30.8604H33.2251V28.1816H32.019V31.8379ZM51.0112 20.7168H49.8052V23.7891H47.6343V24.7666H49.8052V29.0449H51.0112V20.7168ZM41.5405 26.6709L42.1626 27.6484C43.5146 27.166 44.5112 26.1631 45.0063 24.9062C45.5015 26.0361 46.4473 26.9502 47.7231 27.3945L48.3452 26.4297C46.625 25.8584 45.5967 24.4302 45.603 23.0146V22.5703H48.0405V21.5801H41.9087V22.5703H44.3716V23.0146C44.3779 24.5825 43.2861 26.0806 41.5405 26.6709ZM43.6226 31.8379H51.3159V30.8604H44.8286V28.2959H43.6226V31.8379ZM61.7007 20.7168H60.4946V29.2227H61.7007V25.376H63.3511V24.373H61.7007V20.7168ZM52.7759 23.0146H59.5552V22.0371H56.7749V20.7041H55.5688V22.0371H52.7759V23.0146ZM53.3979 25.7061C53.3916 26.9946 54.5151 27.8325 56.1655 27.8389C57.7969 27.8325 58.9204 26.9946 58.9204 25.7061C58.9204 24.4048 57.7969 23.5542 56.1655 23.5605C54.5151 23.5542 53.3916 24.4048 53.3979 25.7061ZM54.4897 31.8379H62.1831V30.8604H55.6958V28.5498H54.4897V31.8379ZM54.5659 25.7061C54.5532 24.957 55.2007 24.4937 56.1655 24.4873C57.1304 24.4937 57.7778 24.957 57.7905 25.7061C57.7778 26.4487 57.1304 26.9058 56.1655 26.8994C55.2007 26.9058 54.5532 26.4487 54.5659 25.7061ZM76.5923 20.7041H75.3862V32.1045H76.5923V20.7041ZM67.8071 29.375H73.2661V21.6562H72.0728V24.5762H69.0132V21.6562H67.8071V29.375ZM69.0132 28.3848V25.5283H72.0728V28.3848H69.0132ZM84.4126 21.3135H79.0044V25.998H84.4126V21.3135ZM80.1851 25.0586V22.291H83.2192V25.0586H80.1851ZM80.3628 28.0166H86.647V29.0322H80.3882V31.9648H88.1958V31H81.5688V29.9082H87.8276V27.0771H80.3628V28.0166ZM86.6343 26.5312H87.8276V20.7041H86.6343V26.5312ZM99.1265 20.7168H97.9204V23.8525H95.4321V21.4658H94.2388V23.3955H91.395V21.4658H90.189V27.2295H95.4321V24.8301H97.9204V29.1211H99.1265V20.7168ZM91.395 26.252V24.3223H94.2388V26.252H91.395ZM91.6997 31.8379H99.3804V30.8604H92.9185V28.2959H91.6997V31.8379ZM110.73 22.3037H106.655V20.8691H105.461V22.3037H101.374V23.2812H110.73V22.3037ZM100.878 30.7969H111.289V29.8193H106.655V28.3149C108.623 28.188 109.848 27.4009 109.841 26.1377C109.848 24.7666 108.375 23.9604 106.058 23.9668C103.709 23.9604 102.256 24.7666 102.262 26.1377C102.256 27.4009 103.468 28.188 105.461 28.3149V29.8193H100.878V30.7969ZM103.494 26.1377C103.481 25.3506 104.433 24.9189 106.058 24.9189C107.658 24.9189 108.616 25.3506 108.61 26.1377C108.616 26.9312 107.658 27.3628 106.058 27.3691C104.433 27.3628 103.481 26.9312 103.494 26.1377ZM119.261 22.748V22.4307H121.711V21.4531H115.554V22.4307H118.055V22.7354C118.049 24.3032 116.976 25.7759 115.199 26.3789L115.846 27.3184C117.179 26.8486 118.169 25.8774 118.665 24.6523C119.16 25.7695 120.105 26.6582 121.394 27.1025L122.003 26.1631C120.264 25.5791 119.255 24.2017 119.261 22.748ZM116.709 29.0957H123.019V32.0791H124.225V28.1182H116.709V29.0957ZM123.019 27.5596H124.225V24.6396H125.875V23.624H124.225V20.7041H123.019V27.5596ZM130.56 22.4053V21.3389H129.367V22.4561C129.354 24.1636 128.3 25.6807 126.485 26.3027L127.132 27.2676C128.51 26.7725 129.5 25.7505 129.989 24.4492C130.484 25.5918 131.404 26.4678 132.655 26.9248L133.315 25.9854C131.588 25.4204 130.554 23.9985 130.56 22.4053ZM128.351 29.9082C128.345 31.2793 129.805 32.0601 132.198 32.0537C134.578 32.0601 136.038 31.2793 136.044 29.9082C136.038 28.5308 134.578 27.731 132.198 27.7373C129.805 27.731 128.345 28.5308 128.351 29.9082ZM129.544 29.9082C129.538 29.1274 130.528 28.6768 132.198 28.6768C133.854 28.6768 134.845 29.1274 134.851 29.9082C134.845 30.6636 133.854 31.1079 132.198 31.1016C130.528 31.1079 129.538 30.6636 129.544 29.9082ZM132.401 24.0049H134.8V27.4199H136.006V20.7041H134.8V23.0146H132.401V24.0049ZM139.51 21.2881H138.304V26.5312H143.547V24.4365H146.036V26.9121H147.242V20.7041H146.036V23.4336H143.547V21.2881H142.354V22.9512H139.51V21.2881ZM139.51 25.5537V23.8906H142.354V25.5537H139.51ZM139.828 31.9141H147.229V27.4453H146.036V28.7275H141.021V27.4453H139.828V31.9141ZM141.021 30.9365V29.667H146.036V30.9365H141.021Z" fill="white"/>
<path d="M33.0913 54.127C35.0591 54.127 36.4619 53.0479 36.4683 51.5498C36.4619 50.3691 35.6113 49.4043 34.5386 49.2393V49.1885C35.4653 48.9727 36.1064 48.1348 36.1128 47.1318C36.1064 45.7163 34.8242 44.6816 33.0913 44.6816C31.333 44.6816 30.0571 45.7163 30.0571 47.1318C30.0571 48.1348 30.6855 48.9727 31.6313 49.1885V49.2393C30.5459 49.4043 29.7017 50.3691 29.7144 51.5498C29.7017 53.0479 31.0918 54.127 33.0913 54.127ZM31.1362 51.4482C31.1172 50.5024 31.9487 49.8105 33.0913 49.8105C34.2212 49.8105 35.0464 50.5024 35.0464 51.4482C35.0464 52.3496 34.2847 52.9717 33.0913 52.9717C31.8789 52.9717 31.1172 52.3496 31.1362 51.4482ZM31.4155 47.2588C31.4219 46.4019 32.082 45.8179 33.0913 45.8242C34.0752 45.8179 34.748 46.4019 34.7417 47.2588C34.748 48.1221 34.0498 48.7124 33.0913 48.7061C32.1074 48.7124 31.4219 48.1157 31.4155 47.2588ZM38.0425 51.3594H39.1851C39.1597 50.585 39.5088 50.2803 39.9722 50.2803C40.2832 50.2803 40.4736 50.4199 40.8989 50.7754C41.54 51.3467 41.9907 51.5942 42.6001 51.5879C43.603 51.5942 44.4727 50.8896 44.4282 49.3281H43.2856C43.3047 50.0454 42.9746 50.4072 42.4985 50.4072C42.1812 50.4072 41.978 50.2549 41.5718 49.8994C40.9116 49.3345 40.4673 49.0996 39.8706 49.0996C38.8486 49.0996 38.0044 49.7915 38.0425 51.3594ZM49.6714 44.8086H48.3003L46.0151 46.3066V47.6396L48.2114 46.2051H48.2622V54H49.6714V44.8086ZM55.3335 54.127C57.3076 54.1396 58.6216 52.7749 58.6216 50.9912C58.6216 49.2329 57.3013 47.9761 55.6636 47.9697C54.667 47.9761 53.8037 48.4331 53.3022 49.2139H53.2007C53.2007 47.1382 54.0259 45.9067 55.4478 45.9004C56.3745 45.9067 56.9648 46.4463 57.1489 47.1953H58.5327C58.3169 45.7354 57.1426 44.6816 55.4478 44.6816C53.2451 44.6816 51.8613 46.5098 51.855 49.709C51.855 53.105 53.6323 54.1143 55.3335 54.127ZM53.3657 51.0293C53.3784 50.0073 54.2354 49.106 55.3589 49.1123C56.4634 49.106 57.2632 49.9629 57.2632 51.0166C57.2632 52.0894 56.4316 52.9526 55.3208 52.959C54.1909 52.9526 53.3721 52.0513 53.3657 51.0293ZM63.6743 47.0557V45.8496H66.1499V44.8467H59.9165V45.8496H62.481V47.0557C62.4746 48.979 61.2241 51.1245 59.4976 51.9561L60.2085 52.9082C61.5034 52.2607 62.5698 50.8579 63.0903 49.2393C63.6045 50.7246 64.6201 52.0068 65.896 52.6162L66.5815 51.6768C64.855 50.8579 63.668 48.8521 63.6743 47.0557ZM67.3687 55.0791H68.5747V49.2266H70.4028V48.2109H68.5747V43.7041H67.3687V55.0791ZM74.6558 44.5166C72.8657 44.5103 71.5518 45.6211 71.5581 47.2207C71.5518 48.8203 72.8657 49.9312 74.6558 49.9375C76.4521 49.9312 77.7471 48.8203 77.7534 47.2207C77.7471 45.6211 76.4521 44.5103 74.6558 44.5166ZM71.0122 51.6514L71.1646 52.6543C73.1958 52.6543 75.957 52.6416 78.5278 52.1465L78.439 51.2705C75.9507 51.6323 73.0815 51.6514 71.0122 51.6514ZM72.7515 47.2207C72.7388 46.2241 73.5513 45.5576 74.6558 45.5576C75.7603 45.5576 76.5728 46.2241 76.5728 47.2207C76.5728 48.23 75.7603 48.8838 74.6558 48.8838C73.5513 48.8838 72.7388 48.23 72.7515 47.2207ZM79.1499 55.1045H80.356V43.7041H79.1499V55.1045ZM88.5063 44.3643C86.7925 44.3579 85.5166 45.4878 85.5229 47.0938C85.5166 48.6807 86.7925 49.8169 88.5063 49.8105C89.4458 49.8169 90.252 49.4678 90.7852 48.8838H93.6353V50.4199H94.8413V43.7041H93.6353V45.3037H90.7915C90.2583 44.7134 89.4521 44.3579 88.5063 44.3643ZM86.6782 47.0938C86.6719 46.0718 87.4399 45.3926 88.5063 45.4053C89.541 45.3926 90.3091 46.0718 90.3091 47.0938C90.3091 48.0903 89.541 48.7949 88.5063 48.7822C87.4399 48.7949 86.6719 48.0903 86.6782 47.0938ZM87.186 52.8701C87.1797 54.2539 88.6523 55.0601 91.0327 55.0537C93.4004 55.0601 94.873 54.2539 94.8794 52.8701C94.873 51.48 93.4004 50.6675 91.0327 50.6738C88.6523 50.6675 87.1797 51.48 87.186 52.8701ZM88.3667 52.8701C88.3604 52.0576 89.3633 51.6069 91.0327 51.6006C92.7021 51.6069 93.6987 52.0576 93.6987 52.8701C93.6987 53.6509 92.7021 54.1079 91.0327 54.1016C89.3633 54.1079 88.3604 53.6509 88.3667 52.8701ZM91.3438 46.2686H93.6353V47.8936H91.3438C91.4199 47.646 91.4644 47.373 91.4644 47.0938C91.4644 46.8018 91.4199 46.5225 91.3438 46.2686ZM106.991 49.4551H96.5806V50.4326H101.278V52.6416H102.471V50.4326H106.991V49.4551ZM97.8755 54.8379H105.835V53.8604H99.0815V51.5625H97.8755V54.8379ZM97.9136 48.2744H105.645V44.2373H97.9136V48.2744ZM99.0942 47.3223V45.1895H104.452V47.3223H99.0942ZM120.765 43.7041H119.61V48.2109H118.137V43.9326H117.033V54.4951H118.137V49.2012H119.61V55.0791H120.765V43.7041ZM111.383 52.3496H112.145C113.802 52.3369 114.982 52.2925 116.347 52.0068L116.258 51.0166C115.04 51.2515 113.986 51.3149 112.589 51.3213V46.0527H115.649V45.0752H111.383V52.3496ZM132.648 52.6416H127.989V49.9375H126.795V52.6416H122.238V53.6318H132.648V52.6416ZM122.593 49.1504L123.126 50.1406C124.961 49.7788 126.637 48.6299 127.386 47.0811C128.135 48.6362 129.823 49.7788 131.67 50.1406L132.191 49.1504C129.995 48.7822 128.014 47.0938 128.014 45.291V44.4277H126.745V45.291C126.738 47.0938 124.783 48.7822 122.593 49.1504ZM143.871 49.4551H133.46V50.4326H138.158V52.6416H139.351V50.4326H143.871V49.4551ZM134.755 54.8379H142.715V53.8604H135.961V51.5625H134.755V54.8379ZM134.793 48.2744H142.525V44.2373H134.793V48.2744ZM135.974 47.3223V45.1895H141.332V47.3223H135.974ZM146.752 53.124H145.331L144.658 56.6279H145.737L146.752 53.124ZM161.606 48.8203H151.208V49.8105H155.779V51.0293H156.972V49.8105H161.606V48.8203ZM151.767 47.1318L152.211 48.0713C154.052 47.8174 155.665 46.9795 156.401 45.7734C157.131 46.9668 158.75 47.8237 160.59 48.0713L161.022 47.1318C158.826 46.8716 157.017 45.6401 157.01 44.3262V43.8311H155.779V44.3262C155.772 45.6592 153.976 46.8716 151.767 47.1318ZM151.932 54.1143L152.326 55.0283C154.173 54.8379 155.677 54.146 156.363 53.1367C157.048 54.1587 158.565 54.8315 160.425 55.0283L160.793 54.1143C158.591 53.9048 156.985 52.9844 156.985 51.8418V51.5244H155.741V51.8418C155.747 52.959 154.116 53.9048 151.932 54.1143ZM166.405 47.0557V45.8496H168.88V44.8467H162.647V45.8496H165.211V47.0557C165.205 48.979 163.955 51.1245 162.228 51.9561L162.939 52.9082C164.234 52.2607 165.3 50.8579 165.821 49.2393C166.335 50.7246 167.351 52.0068 168.626 52.6162L169.312 51.6768C167.585 50.8579 166.398 48.8521 166.405 47.0557ZM170.099 55.0791H171.305V49.2266H173.133V48.2109H171.305V43.7041H170.099V55.0791ZM175.723 53.124H174.301L173.628 56.6279H174.708L175.723 53.124ZM190.551 49.6836H180.154V50.6357H190.551V49.6836ZM181.334 52.5908H188V55.0791H189.231V51.626H181.334V52.5908ZM181.512 48.7188H189.358V47.792H182.731V46.7891H188.99V45.875H182.731V44.9482H189.282V43.9961H181.512V48.7188ZM197.242 44.707V44.085H195.985V44.707C195.979 46.2368 194.138 47.6333 191.91 47.9316L192.392 48.9219C194.239 48.6235 195.871 47.6587 196.613 46.3193C197.356 47.6587 198.987 48.6235 200.847 48.9219L201.317 47.9316C199.083 47.6333 197.235 46.2178 197.242 44.707ZM191.415 51.0293H195.985V55.0791H197.166V51.0293H201.787V50.0391H191.415V51.0293ZM212.108 43.7041H210.889V55.0791H212.108V43.7041ZM202.764 52.0322L203.399 53.0098C207.303 51.1372 208.718 48.2554 208.718 44.9229H203.31V45.8877H207.5C207.265 48.541 205.786 50.5913 202.764 52.0322ZM223.737 45.3037H219.662V43.8691H218.468V45.3037H214.38V46.2812H223.737V45.3037ZM213.885 53.7969H224.295V52.8193H219.662V51.3149C221.629 51.188 222.854 50.4009 222.848 49.1377C222.854 47.7666 221.382 46.9604 219.065 46.9668C216.716 46.9604 215.263 47.7666 215.269 49.1377C215.263 50.4009 216.475 51.188 218.468 51.3149V52.8193H213.885V53.7969ZM216.5 49.1377C216.488 48.3506 217.44 47.9189 219.065 47.9189C220.665 47.9189 221.623 48.3506 221.617 49.1377C221.623 49.9312 220.665 50.3628 219.065 50.3691C217.44 50.3628 216.488 49.9312 216.5 49.1377ZM230.884 44.707H225.565V50.0137H230.884V44.707ZM226.746 49.0615V45.6846H229.704V49.0615H226.746ZM226.847 54.8379H234.541V53.8604H228.053V51.2324H226.847V54.8379ZM232.852 52.0322H234.058V48.1094H235.708V47.0938H234.058V43.6914H232.852V52.0322ZM33.4341 68.5986V66.6562H32.228V68.5986C32.2217 70.6807 31.041 72.8643 29.2954 73.7021L30.0444 74.6797C31.3394 74.0068 32.3359 72.6421 32.8438 71.0298C33.3452 72.5469 34.3037 73.8164 35.5415 74.4639L36.2905 73.499C34.5957 72.6738 33.4214 70.6108 33.4341 68.5986ZM37.1411 77.0791H38.3472V71.2646H40.1753V70.2363H38.3472V65.7041H37.1411V77.0791ZM51.0933 71.252H48.5796V69.7285C49.4619 69.3667 49.957 68.7954 49.9634 68.04C49.957 66.688 48.3955 65.9009 45.9009 65.9072C43.3999 65.9009 41.832 66.688 41.8384 68.04C41.832 68.7954 42.3271 69.3667 43.2095 69.7222V71.252H40.7212V72.2295H51.0933V71.252ZM41.9526 75.0225C41.9526 76.3364 43.4253 77.0537 45.9009 77.0537C48.3447 77.0537 49.8174 76.3364 49.8237 75.0225C49.8174 73.7212 48.3447 73.0039 45.9009 73.0039C43.4253 73.0039 41.9526 73.7212 41.9526 75.0225ZM43.0825 68.04C43.0762 67.2783 44.1299 66.8403 45.9009 66.834C47.6592 66.8403 48.7256 67.2783 48.7192 68.04C48.7256 68.8018 47.6592 69.2271 45.9009 69.2334C44.1299 69.2271 43.0762 68.8018 43.0825 68.04ZM43.1714 75.0225C43.165 74.3242 44.1616 73.9307 45.9009 73.9307C47.6147 73.9307 48.6177 74.3242 48.6177 75.0225C48.6177 75.7334 47.6147 76.1396 45.9009 76.127C44.1616 76.1396 43.165 75.7334 43.1714 75.0225ZM44.4282 71.252V70.0459C44.8726 70.1094 45.3677 70.1475 45.9009 70.1475C46.4404 70.1475 46.9419 70.1094 47.3862 70.0396V71.252H44.4282ZM60.8179 65.7041H59.6118V77.0664H60.8179V71.2393H62.5825V70.2363H60.8179V65.7041ZM51.9692 74.0322L52.6421 74.9717C56.3872 73.1245 57.8345 70.1855 57.8472 66.8975H52.5405V67.9004H56.6157C56.3682 70.5537 54.8193 72.6104 51.9692 74.0322ZM72.3833 68.7764H65.769V65.9072H64.5757V69.7539H72.3833V68.7764ZM63.1919 71.9502H73.5767V70.96H63.1919V71.9502ZM64.4233 74.9463C64.4233 76.2793 65.9023 77.0283 68.3716 77.0283C70.8218 77.0283 72.2881 76.2793 72.2944 74.9463C72.2881 73.6196 70.8218 72.8706 68.3716 72.877C65.9023 72.8706 64.4233 73.6196 64.4233 74.9463ZM65.6421 74.9463C65.6357 74.21 66.6323 73.8228 68.3716 73.8164C70.0854 73.8228 71.0884 74.21 71.0884 74.9463C71.0884 75.6763 70.0854 76.0952 68.3716 76.1016C66.6323 76.0952 65.6357 75.6763 65.6421 74.9463ZM78.4009 72.1914C78.4009 74.4448 79.0039 76.3174 80.1401 77.917H81.3843C80.502 76.73 79.8037 74.3242 79.7974 72.1914C79.8037 70.0586 80.502 67.6465 81.3843 66.4658H80.1401C79.0039 68.0654 78.4009 69.938 78.4009 72.1914ZM87.3765 72.8516C84.939 72.8516 83.3774 73.6323 83.3774 74.959C83.3774 76.2793 84.939 77.0601 87.3765 77.0537C89.8394 77.0601 91.3945 76.2793 91.4009 74.959C91.3945 73.6323 89.8394 72.8516 87.3765 72.8516ZM82.2603 71.9121H92.6069V70.9346H87.5923V68.8018H86.4116V70.9346H82.2603V71.9121ZM83.4663 67.2275H90.1187C90.1187 68.1099 90.1187 68.9478 89.814 70.1094L90.9946 70.2363C91.3184 69.062 91.3184 68.1226 91.312 67.2148V66.2627H83.4663V67.2275ZM84.5835 74.959C84.5708 74.21 85.6562 73.772 87.3765 73.7656C89.1157 73.772 90.1948 74.21 90.2075 74.959C90.1948 75.6953 89.1157 76.1206 87.3765 76.127C85.6562 76.1206 84.5708 75.6953 84.5835 74.959ZM95.1079 66.4277H93.9653V71.7979H98.4214V66.4277H97.3042V68.167H95.1079V66.4277ZM95.1079 70.8203V69.1064H97.3042V70.8203H95.1079ZM95.4507 74.1592H101.989V77.0791H103.182V73.1816H95.4507V74.1592ZM99.5894 72.4707H100.707V69.6016H102.04V72.5469H103.182V65.7168H102.04V68.6113H100.707V65.9199H99.5894V72.4707ZM114.151 65.7041H112.945V71.8105H114.151V65.7041ZM104.947 68.8652C104.953 70.4204 106.235 71.5059 107.981 71.4932C109.72 71.5059 111.002 70.4204 111.002 68.8652C111.002 67.3037 109.72 66.2183 107.981 66.2246C106.235 66.2183 104.953 67.3037 104.947 68.8652ZM106.127 68.8652C106.121 67.894 106.902 67.2339 107.981 67.2402C109.047 67.2339 109.822 67.894 109.822 68.8652C109.822 69.8491 109.047 70.5029 107.981 70.5029C106.902 70.5029 106.121 69.8491 106.127 68.8652ZM106.711 76.9395H114.151V72.3564H112.958V73.6387H107.892V72.3564H106.711V76.9395ZM107.892 75.9492V74.5908H112.958V75.9492H107.892ZM121.375 66.3896H116.411V67.3545H120.168V68.7891H116.423V72.2549H117.249C119.515 72.2485 120.683 72.2104 122.073 71.9756L121.958 70.998C120.676 71.2329 119.597 71.2773 117.617 71.2773V69.7031H121.375V66.3896ZM117.718 74.2607H124.231V77.0918H125.437V73.2832H117.718V74.2607ZM122.098 70.7061H124.231V72.7119H125.437V65.7168H124.231V67.3672H122.098V68.332H124.231V69.7412H122.098V70.7061ZM132.915 65.8818H131.721V69.6523H139.389V65.8818H138.183V66.8721H132.915V65.8818ZM130.363 71.4551H134.933V72.4326H131.607V73.334H138.234V74.2227H131.62V76.9648H139.745V76.0381H132.8V75.0859H139.427V72.4326H136.139V71.4551H140.735V70.4775H130.363V71.4551ZM132.915 68.7383V67.7607H138.183V68.7383H132.915ZM150.459 65.7041H149.253V77.0664H150.459V71.2393H152.224V70.2363H150.459V65.7041ZM141.611 74.0322L142.284 74.9717C146.029 73.1245 147.476 70.1855 147.489 66.8975H142.182V67.9004H146.257C146.01 70.5537 144.461 72.6104 141.611 74.0322ZM155.842 72.1914C155.842 69.938 155.239 68.0654 154.103 66.4658H152.859C153.741 67.6528 154.439 70.0586 154.446 72.1914C154.439 74.3242 153.741 76.7363 152.859 77.917H154.103C155.239 76.3174 155.842 74.4448 155.842 72.1914ZM159.524 75.124H158.102L157.429 78.6279H158.508L159.524 75.124ZM173.4 65.7041H172.194V77.1045H173.4V65.7041ZM164.615 74.375H170.074V66.6562H168.88V69.5762H165.821V66.6562H164.615V74.375ZM165.821 73.3848V70.5283H168.88V73.3848H165.821ZM181.22 66.3135H175.812V70.998H181.22V66.3135ZM176.993 70.0586V67.291H180.027V70.0586H176.993ZM177.17 73.0166H183.455V74.0322H177.196V76.9648H185.003V76H178.376V74.9082H184.635V72.0771H177.17V73.0166ZM183.442 71.5312H184.635V65.7041H183.442V71.5312ZM195.934 65.7168H194.728V68.8525H192.24V66.4658H191.046V68.3955H188.203V66.4658H186.997V72.2295H192.24V69.8301H194.728V74.1211H195.934V65.7168ZM188.203 71.252V69.3223H191.046V71.252H188.203ZM188.507 76.8379H196.188V75.8604H189.726V73.2959H188.507V76.8379ZM207.538 67.3037H203.462V65.8691H202.269V67.3037H198.181V68.2812H207.538V67.3037ZM197.686 75.7969H208.096V74.8193H203.462V73.3149C205.43 73.188 206.655 72.4009 206.649 71.1377C206.655 69.7666 205.183 68.9604 202.866 68.9668C200.517 68.9604 199.063 69.7666 199.07 71.1377C199.063 72.4009 200.276 73.188 202.269 73.3149V74.8193H197.686V75.7969ZM200.301 71.1377C200.289 70.3506 201.241 69.9189 202.866 69.9189C204.465 69.9189 205.424 70.3506 205.417 71.1377C205.424 71.9312 204.465 72.3628 202.866 72.3691C201.241 72.3628 200.289 71.9312 200.301 71.1377ZM218.125 69.0303H211.486V66.1104H210.292V69.9951H218.125V69.0303ZM208.909 72.3945H219.319V71.4297H208.909V72.3945ZM210.204 76.8125H218.202V75.8223H211.41V73.4736H210.204V76.8125ZM39.8579 94.1152H29.4858V95.0928H34.0562V99.0664H35.2368V95.0928H39.8579V94.1152ZM30.0698 92.2998L30.5269 93.252C32.3677 92.96 33.9736 92.0396 34.6719 90.7446C35.3638 92.0396 36.9761 92.96 38.8423 93.252L39.2866 92.2998C37.1348 92.0078 35.3828 90.7446 35.3638 89.3418H38.8804V88.377H30.4507V89.3418H33.9927C33.9546 90.7446 32.1899 92.0078 30.0698 92.2998ZM50.1792 87.7041H48.9604V99.0791H50.1792V87.7041ZM40.8354 96.0322L41.4702 97.0098C45.374 95.1372 46.7896 92.2554 46.7896 88.9229H41.3813V89.8877H45.5708C45.3359 92.541 43.8569 94.5913 40.8354 96.0322ZM56.0317 89.7227V89.418H58.4692V88.4404H52.3374V89.418H54.8003V89.7354C54.8066 91.2778 53.7148 92.7949 51.9692 93.3916L52.5913 94.3438C53.9434 93.8677 54.9399 92.8647 55.4351 91.6143C55.9302 92.7378 56.876 93.6519 58.1519 94.0898L58.7739 93.1504C57.0537 92.5601 56.0254 91.1572 56.0317 89.7227ZM53.7339 96.0576H60.2339V99.0791H61.4399V95.0801H53.7339V96.0576ZM58.1265 91.5889H60.2339V94.5088H61.4399V87.7041H60.2339V90.5986H58.1265V91.5889ZM68.3716 88.3896C65.9912 88.3896 64.1758 89.6528 64.1821 91.5635C64.1758 93.4868 65.9912 94.7437 68.3716 94.7373C70.7583 94.7437 72.5737 93.4868 72.5737 91.5635C72.5737 89.6528 70.7583 88.3896 68.3716 88.3896ZM63.1919 97.6064H73.6021V96.6035H63.1919V97.6064ZM65.3374 91.5635C65.3311 90.2432 66.626 89.3608 68.3716 89.3672C70.1108 89.3608 71.3994 90.2432 71.4058 91.5635C71.3994 92.8901 70.1108 93.7471 68.3716 93.7471C66.626 93.7471 65.3311 92.8901 65.3374 91.5635ZM84.8374 96.7051H80.2036V94.7119H83.8345V93.7217H76.8901V92.0586H83.5679V88.5039H75.6714V89.4941H82.3745V91.0938H75.6968V94.7119H79.0103V96.7051H74.4272V97.7207H84.8374V96.7051ZM98.3198 87.7168H97.1138V89.7354H94.6255V88.4658H93.4321V90.3955H90.5884V88.4658H89.3823V94.2295H94.6255V93.1631H97.1138V96.1211H98.3198V87.7168ZM90.5884 93.252V91.3223H93.4321V93.252H90.5884ZM90.8931 98.8379H98.5737V97.8604H92.1118V95.2959H90.8931V98.8379ZM94.6255 92.1855V90.7256H97.1138V92.1855H94.6255ZM109.555 87.7168H108.349V89.7354H105.88C105.956 89.3545 106 88.9482 106 88.5293H100.795V89.5195H104.693C104.477 91.354 102.903 92.8013 100.211 93.5693L100.694 94.5088C103.157 93.8042 104.864 92.5156 105.601 90.6875H108.349V92.0713H105.48V93.0615H108.349V94.4453H109.555V87.7168ZM101.976 96.7939C101.976 98.1777 103.474 99.0283 105.81 99.0283C108.114 99.0283 109.625 98.1777 109.631 96.7939C109.625 95.4165 108.114 94.5786 105.81 94.5723C103.474 94.5786 101.976 95.4165 101.976 96.7939ZM103.169 96.7939C103.169 95.9814 104.185 95.5181 105.81 95.5244C107.403 95.5181 108.419 95.9814 108.425 96.7939C108.419 97.5938 107.403 98.0571 105.81 98.0635C104.185 98.0571 103.169 97.5938 103.169 96.7939ZM120.168 87.7041H118.975V99.0791H120.168V93.3154H121.997V92.3125H120.168V87.7041ZM111.244 90.4717H117.985V89.4814H115.255V87.8564H114.049V89.4814H111.244V90.4717ZM111.828 93.9502C111.828 95.5117 113.021 96.5972 114.659 96.6035C116.29 96.5972 117.483 95.5117 117.49 93.9502C117.483 92.4014 116.29 91.3096 114.659 91.3096C113.021 91.3096 111.828 92.4014 111.828 93.9502ZM112.983 93.9502C112.977 92.979 113.688 92.3062 114.659 92.2998C115.624 92.3062 116.328 92.979 116.334 93.9502C116.328 94.9404 115.624 95.6006 114.659 95.5879C113.688 95.6006 112.977 94.9404 112.983 93.9502ZM125.627 88.5547C123.933 88.561 122.733 90.1099 122.746 92.541C122.733 94.9976 123.933 96.5464 125.627 96.54C126.726 96.5464 127.614 95.8799 128.103 94.7373H130.833V99.1045H132.026V87.7041H130.833V90.1797H128.021C127.519 89.1514 126.668 88.561 125.627 88.5547ZM123.888 92.541C123.895 90.7573 124.599 89.6401 125.627 89.6338C126.656 89.6401 127.36 90.7573 127.367 92.541C127.36 94.3501 126.656 95.4609 125.627 95.4609C124.599 95.4609 123.895 94.3501 123.888 92.541ZM128.363 91.1699H130.833V93.7471H128.395C128.471 93.3726 128.509 92.9727 128.509 92.541C128.509 92.0459 128.452 91.5889 128.363 91.1699ZM145.889 87.6914H144.683V96.0576H145.889V92.1094H147.54V91.0938H145.889V87.6914ZM137.129 91.3096C137.117 92.9663 138.437 94.147 140.151 94.1406C141.871 94.147 143.172 92.9663 143.185 91.3096C143.172 89.6528 141.871 88.4849 140.151 88.4785C138.437 88.4849 137.117 89.6528 137.129 91.3096ZM138.31 91.3096C138.297 90.2495 139.11 89.5322 140.151 89.5322C141.205 89.5322 141.998 90.2495 142.004 91.3096C141.998 92.3696 141.205 93.0869 140.151 93.0869C139.11 93.0869 138.297 92.3696 138.31 91.3096ZM138.678 98.8379H146.372V97.8604H139.884V95.1816H138.678V98.8379ZM157.67 87.7168H156.464V90.7891H154.293V91.7666H156.464V96.0449H157.67V87.7168ZM148.2 93.6709L148.822 94.6484C150.174 94.166 151.17 93.1631 151.666 91.9062C152.161 93.0361 153.106 93.9502 154.382 94.3945L155.004 93.4297C153.284 92.8584 152.256 91.4302 152.262 90.0146V89.5703H154.7V88.5801H148.568V89.5703H151.031V90.0146C151.037 91.5825 149.945 93.0806 148.2 93.6709ZM150.282 98.8379H157.975V97.8604H151.488V95.2959H150.282V98.8379ZM168.284 87.7041H167.09V99.0791H168.284V93.3154H170.112V92.3125H168.284V87.7041ZM159.359 90.4717H166.1V89.4814H163.371V87.8564H162.165V89.4814H159.359V90.4717ZM159.943 93.9502C159.943 95.5117 161.136 96.5972 162.774 96.6035C164.405 96.5972 165.599 95.5117 165.605 93.9502C165.599 92.4014 164.405 91.3096 162.774 91.3096C161.136 91.3096 159.943 92.4014 159.943 93.9502ZM161.098 93.9502C161.092 92.979 161.803 92.3062 162.774 92.2998C163.739 92.3062 164.443 92.979 164.45 93.9502C164.443 94.9404 163.739 95.6006 162.774 95.5879C161.803 95.6006 161.092 94.9404 161.098 93.9502ZM180.433 87.7041H179.291V99.0791H180.433V87.7041ZM170.62 95.791L171.305 96.6543C172.911 95.7148 173.997 94.5596 174.669 93.2393H176.891V98.5205H178.034V87.9961H176.891V92.2744H175.088C175.438 91.2842 175.59 90.2241 175.596 89.1133H171.153V90.1035H174.396C174.187 92.4458 173.032 94.3564 170.62 95.791ZM191.402 88.5674H185.664V89.5576H190.215C190.202 90.2749 190.164 91.1953 189.917 92.4521L191.11 92.5664C191.389 91.0938 191.389 89.9639 191.402 89.2021V88.5674ZM184.978 93.5439L185.092 94.5215C187.098 94.5151 189.815 94.4707 192.189 94.0518L192.113 93.1758C190.97 93.3408 189.713 93.4297 188.495 93.4805V91.1191H187.301V93.5186C186.47 93.5376 185.676 93.5439 184.978 93.5439ZM186.705 98.8379H194.436V97.8604H187.911V95.4736H186.705V98.8379ZM192.836 96.248H194.068V92.3379H195.629V91.3223H194.068V87.7041H192.836V96.248ZM205.748 87.7041H204.542V99.1045H205.748V87.7041ZM196.937 89.71H201.038V91.9189H196.95V96.375H197.915C199.927 96.3687 201.641 96.2925 203.653 95.9561L203.539 94.9658C201.634 95.2769 200.028 95.3657 198.181 95.3721V92.8838H202.269V88.7324H196.937V89.71ZM216.399 87.7041H215.206V99.0791H216.399V93.3154H218.227V92.3125H216.399V87.7041ZM207.474 90.4717H214.215V89.4814H211.486V87.8564H210.28V89.4814H207.474V90.4717ZM208.058 93.9502C208.058 95.5117 209.251 96.5972 210.889 96.6035C212.521 96.5972 213.714 95.5117 213.72 93.9502C213.714 92.4014 212.521 91.3096 210.889 91.3096C209.251 91.3096 208.058 92.4014 208.058 93.9502ZM209.213 93.9502C209.207 92.979 209.918 92.3062 210.889 92.2998C211.854 92.3062 212.559 92.979 212.565 93.9502C212.559 94.9404 211.854 95.6006 210.889 95.5879C209.918 95.6006 209.207 94.9404 209.213 93.9502ZM228.231 87.7041H227.012V99.0791H228.231V87.7041ZM218.887 96.0322L219.522 97.0098C223.426 95.1372 224.841 92.2554 224.841 88.9229H219.433V89.8877H223.623C223.388 92.541 221.909 94.5913 218.887 96.0322Z" fill="white"/>
</svg>
