<svg width="26" height="26" viewBox="0 0 26 26" fill="none" xmlns="http://www.w3.org/2000/svg">
<path d="M23.1562 0.8125H2.84375C2.30522 0.813132 1.78893 1.02734 1.40814 1.40814C1.02734 1.78893 0.813132 2.30522 0.8125 2.84375V23.1562C0.813132 23.6948 1.02734 24.2111 1.40814 24.5919C1.78893 24.9727 2.30522 25.1869 2.84375 25.1875H23.1562C23.6948 25.1869 24.2111 24.9727 24.5919 24.5919C24.9727 24.2111 25.1869 23.6948 25.1875 23.1562V2.84375C25.1869 2.30522 24.9727 1.78893 24.5919 1.40814C24.2111 1.02734 23.6948 0.813132 23.1562 0.8125ZM2.84375 1.625H23.1562C23.4794 1.62535 23.7892 1.75387 24.0176 1.98235C24.2461 2.21084 24.3746 2.52063 24.375 2.84375V4.875H1.625V2.84375C1.62535 2.52063 1.75387 2.21084 1.98235 1.98235C2.21084 1.75387 2.52063 1.62535 2.84375 1.625ZM23.1562 24.375H2.84375C2.52063 24.3746 2.21084 24.2461 1.98235 24.0176C1.75387 23.7892 1.62535 23.4794 1.625 23.1562V5.6875H24.375V23.1562C24.3746 23.4794 24.2461 23.7892 24.0176 24.0176C23.7892 24.2461 23.4794 24.3746 23.1562 24.375ZM3.25 3.25C3.25 3.16965 3.27383 3.09111 3.31847 3.0243C3.3631 2.95749 3.42655 2.90542 3.50078 2.87467C3.57502 2.84393 3.6567 2.83588 3.73551 2.85156C3.81431 2.86723 3.8867 2.90592 3.94351 2.96274C4.00033 3.01955 4.03902 3.09194 4.05469 3.17074C4.07037 3.24955 4.06232 3.33123 4.03158 3.40547C4.00083 3.4797 3.94876 3.54315 3.88195 3.58778C3.81514 3.63242 3.7366 3.65625 3.65625 3.65625C3.54851 3.65625 3.44517 3.61345 3.36899 3.53726C3.2928 3.46108 3.25 3.35774 3.25 3.25ZM5.6875 3.25C5.6875 3.16965 5.71133 3.09111 5.75597 3.0243C5.8006 2.95749 5.86405 2.90542 5.93828 2.87467C6.01252 2.84393 6.0942 2.83588 6.17301 2.85156C6.25181 2.86723 6.3242 2.90592 6.38101 2.96274C6.43783 3.01955 6.47652 3.09194 6.49219 3.17074C6.50787 3.24955 6.49982 3.33123 6.46908 3.40547C6.43833 3.4797 6.38626 3.54315 6.31945 3.58778C6.25264 3.63242 6.1741 3.65625 6.09375 3.65625C5.98601 3.65625 5.88267 3.61345 5.80649 3.53726C5.7303 3.46108 5.6875 3.35774 5.6875 3.25ZM8.125 3.25C8.125 3.16965 8.14883 3.09111 8.19347 3.0243C8.2381 2.95749 8.30155 2.90542 8.37578 2.87467C8.45002 2.84393 8.5317 2.83588 8.61051 2.85156C8.68931 2.86723 8.7617 2.90592 8.81851 2.96274C8.87533 3.01955 8.91402 3.09194 8.92969 3.17074C8.94537 3.24955 8.93732 3.33123 8.90658 3.40547C8.87583 3.4797 8.82376 3.54315 8.75695 3.58778C8.69014 3.63242 8.6116 3.65625 8.53125 3.65625C8.42351 3.65625 8.32017 3.61345 8.24399 3.53726C8.1678 3.46108 8.125 3.35774 8.125 3.25ZM12.2272 20.4613L11.7813 20.7188L12.2272 20.9762C12.3204 21.0301 12.3885 21.1189 12.4164 21.2229C12.4442 21.327 12.4296 21.4378 12.3758 21.5311C12.3219 21.6244 12.2332 21.6925 12.1292 21.7205C12.0251 21.7484 11.9143 21.7338 11.8209 21.68L11.375 21.4225V21.9375C11.375 22.0452 11.3322 22.1486 11.256 22.2248C11.1798 22.3009 11.0765 22.3438 10.9688 22.3438C10.861 22.3438 10.7577 22.3009 10.6815 22.2248C10.6053 22.1486 10.5625 22.0452 10.5625 21.9375V21.4225L10.1166 21.68C10.0704 21.7067 10.0193 21.7241 9.96642 21.7311C9.91351 21.738 9.85973 21.7345 9.80817 21.7207C9.75661 21.7069 9.70828 21.6831 9.66593 21.6506C9.62359 21.6181 9.58806 21.5776 9.56137 21.5314C9.53469 21.4851 9.51737 21.4341 9.51042 21.3812C9.50346 21.3283 9.50701 21.2745 9.52084 21.2229C9.53467 21.1714 9.55853 21.1231 9.59104 21.0807C9.62355 21.0384 9.66408 21.0029 9.71033 20.9762L10.1562 20.7188L9.71033 20.4613C9.66408 20.4346 9.62355 20.3991 9.59104 20.3568C9.55853 20.3144 9.53467 20.2661 9.52084 20.2146C9.50701 20.163 9.50346 20.1092 9.51042 20.0563C9.51737 20.0034 9.53469 19.9524 9.56137 19.9061C9.58806 19.8599 9.62359 19.8194 9.66593 19.7869C9.70828 19.7544 9.75661 19.7306 9.80817 19.7168C9.85973 19.703 9.91351 19.6995 9.96642 19.7064C10.0193 19.7134 10.0704 19.7308 10.1166 19.7575L10.5625 20.015V19.5C10.5625 19.3923 10.6053 19.2889 10.6815 19.2127C10.7577 19.1366 10.861 19.0938 10.9688 19.0938C11.0765 19.0938 11.1798 19.1366 11.256 19.2127C11.3322 19.2889 11.375 19.3923 11.375 19.5V20.015L11.8209 19.7575C11.9143 19.7037 12.0251 19.6891 12.1292 19.717C12.2332 19.745 12.3219 19.8131 12.3758 19.9064C12.4296 19.9997 12.4442 20.1105 12.4164 20.2146C12.3885 20.3186 12.3204 20.4074 12.2272 20.4613ZM8.16467 20.4613L7.71877 20.7188L8.16467 20.9762C8.25794 21.0301 8.32599 21.1189 8.35386 21.2229C8.38172 21.327 8.36712 21.4378 8.31327 21.5311C8.25941 21.6244 8.17071 21.6925 8.06667 21.7205C7.96262 21.7484 7.85175 21.7338 7.75842 21.68L7.3125 21.4225V21.9375C7.3125 22.0452 7.2697 22.1486 7.19351 22.2248C7.11733 22.3009 7.01399 22.3438 6.90625 22.3438C6.79851 22.3438 6.69517 22.3009 6.61899 22.2248C6.5428 22.1486 6.5 22.0452 6.5 21.9375V21.4225L6.05408 21.68C5.96075 21.7338 5.84988 21.7484 5.74583 21.7205C5.64179 21.6925 5.55309 21.6244 5.49923 21.5311C5.44538 21.4378 5.43078 21.327 5.45864 21.2229C5.48651 21.1189 5.55456 21.0301 5.64783 20.9762L6.09373 20.7188L5.64783 20.4613C5.55456 20.4074 5.48651 20.3186 5.45864 20.2146C5.43078 20.1105 5.44538 19.9997 5.49923 19.9064C5.55309 19.8131 5.64179 19.745 5.74583 19.717C5.84988 19.6891 5.96075 19.7037 6.05408 19.7575L6.5 20.015V19.5C6.5 19.3923 6.5428 19.2889 6.61899 19.2127C6.69517 19.1366 6.79851 19.0938 6.90625 19.0938C7.01399 19.0938 7.11733 19.1366 7.19351 19.2127C7.2697 19.2889 7.3125 19.3923 7.3125 19.5V20.015L7.75842 19.7575C7.85175 19.7037 7.96262 19.6891 8.06667 19.717C8.17071 19.745 8.25941 19.8131 8.31327 19.9064C8.36712 19.9997 8.38172 20.1105 8.35386 20.2146C8.32599 20.3186 8.25794 20.4074 8.16467 20.4613ZM20.3522 20.4613L19.9063 20.7188L20.3522 20.9762C20.4454 21.0301 20.5135 21.1189 20.5414 21.2229C20.5692 21.327 20.5546 21.4378 20.5008 21.5311C20.4469 21.6244 20.3582 21.6925 20.2542 21.7205C20.1501 21.7484 20.0392 21.7338 19.9459 21.68L19.5 21.4225V21.9375C19.5 22.0452 19.4572 22.1486 19.381 22.2248C19.3048 22.3009 19.2015 22.3438 19.0938 22.3438C18.986 22.3438 18.8827 22.3009 18.8065 22.2248C18.7303 22.1486 18.6875 22.0452 18.6875 21.9375V21.4225L18.2416 21.68C18.1483 21.7338 18.0374 21.7484 17.9333 21.7205C17.8293 21.6925 17.7406 21.6244 17.6867 21.5311C17.6329 21.4378 17.6183 21.327 17.6461 21.2229C17.674 21.1189 17.7421 21.0301 17.8353 20.9762L18.2812 20.7188L17.8353 20.4613C17.7891 20.4346 17.7486 20.3991 17.716 20.3568C17.6835 20.3144 17.6597 20.2661 17.6458 20.2146C17.632 20.163 17.6285 20.1092 17.6354 20.0563C17.6424 20.0034 17.6597 19.9524 17.6864 19.9061C17.7131 19.8599 17.7486 19.8194 17.7909 19.7869C17.8333 19.7544 17.8816 19.7306 17.9332 19.7168C17.9847 19.703 18.0385 19.6995 18.0914 19.7064C18.1443 19.7134 18.1954 19.7308 18.2416 19.7575L18.6875 20.015V19.5C18.6875 19.3923 18.7303 19.2889 18.8065 19.2127C18.8827 19.1366 18.986 19.0938 19.0938 19.0938C19.2015 19.0938 19.3048 19.1366 19.381 19.2127C19.4572 19.2889 19.5 19.3923 19.5 19.5V20.015L19.9459 19.7575C19.9921 19.7308 20.0432 19.7134 20.0961 19.7064C20.149 19.6995 20.2028 19.703 20.2543 19.7168C20.3059 19.7306 20.3542 19.7544 20.3966 19.7869C20.4389 19.8194 20.4744 19.8599 20.5011 19.9061C20.5278 19.9524 20.5451 20.0034 20.5521 20.0563C20.559 20.1092 20.5555 20.163 20.5417 20.2146C20.5278 20.2661 20.504 20.3144 20.4715 20.3568C20.4389 20.3991 20.3984 20.4346 20.3522 20.4613ZM16.2897 20.4613L15.8438 20.7188L16.2897 20.9762C16.3829 21.0301 16.451 21.1189 16.4789 21.2229C16.5067 21.327 16.4921 21.4378 16.4383 21.5311C16.3844 21.6244 16.2957 21.6925 16.1917 21.7205C16.0876 21.7484 15.9768 21.7338 15.8834 21.68L15.4375 21.4225V21.9375C15.4375 22.0452 15.3947 22.1486 15.3185 22.2248C15.2423 22.3009 15.139 22.3438 15.0312 22.3438C14.9235 22.3438 14.8202 22.3009 14.744 22.2248C14.6678 22.1486 14.625 22.0452 14.625 21.9375V21.4225L14.1791 21.68C14.0857 21.7338 13.9749 21.7484 13.8708 21.7205C13.7668 21.6925 13.6781 21.6244 13.6242 21.5311C13.5704 21.4378 13.5558 21.327 13.5836 21.2229C13.6115 21.1189 13.6796 21.0301 13.7728 20.9762L14.2187 20.7188L13.7728 20.4613C13.7266 20.4346 13.6861 20.3991 13.6535 20.3568C13.621 20.3144 13.5972 20.2661 13.5833 20.2146C13.5695 20.163 13.566 20.1092 13.5729 20.0563C13.5799 20.0034 13.5972 19.9524 13.6239 19.9061C13.6506 19.8599 13.6861 19.8194 13.7284 19.7869C13.7708 19.7544 13.8191 19.7306 13.8707 19.7168C13.9222 19.703 13.976 19.6995 14.0289 19.7064C14.0818 19.7134 14.1329 19.7308 14.1791 19.7575L14.625 20.015V19.5C14.625 19.3923 14.6678 19.2889 14.744 19.2127C14.8202 19.1366 14.9235 19.0938 15.0312 19.0938C15.139 19.0938 15.2423 19.1366 15.3185 19.2127C15.3947 19.2889 15.4375 19.3923 15.4375 19.5V20.015L15.8834 19.7575C15.9296 19.7308 15.9807 19.7134 16.0336 19.7064C16.0865 19.6995 16.1403 19.703 16.1918 19.7168C16.2434 19.7306 16.2917 19.7544 16.3341 19.7869C16.3764 19.8194 16.4119 19.8599 16.4386 19.9061C16.4653 19.9524 16.4826 20.0034 16.4896 20.0563C16.4965 20.1092 16.493 20.163 16.4792 20.2146C16.4653 20.2661 16.4415 20.3144 16.409 20.3568C16.3764 20.3991 16.3359 20.4346 16.2897 20.4613ZM17.0625 9.34375C15.6645 9.30826 14.3253 8.77396 13.2868 7.83737C13.2106 7.76164 13.1075 7.71911 13 7.71908C12.8926 7.71904 12.7894 7.76149 12.7131 7.83718C11.6747 8.7739 10.3355 9.30828 8.9375 9.34375C8.88415 9.34374 8.83131 9.35423 8.78202 9.37465C8.73272 9.39506 8.68793 9.42498 8.65021 9.46271C8.61248 9.50043 8.58256 9.54522 8.56215 9.59452C8.54174 9.64381 8.53124 9.69665 8.53125 9.75V12.1875C8.53125 16.2571 12.8199 17.8357 12.8635 17.8512C12.9517 17.8829 13.0483 17.8829 13.1365 17.8512C13.1801 17.8357 17.4688 16.2571 17.4688 12.1875V9.75C17.4688 9.69665 17.4583 9.64381 17.4379 9.59452C17.4174 9.54522 17.3875 9.50043 17.3498 9.46271C17.3121 9.42498 17.2673 9.39506 17.218 9.37465C17.1687 9.35423 17.1159 9.34374 17.0625 9.34375ZM16.6562 12.1875C16.6562 15.3403 13.6899 16.7479 13 17.0327C12.3101 16.7479 9.34375 15.3403 9.34375 12.1875V10.1424C10.6838 10.0316 11.9587 9.51693 13 8.66634C14.0413 9.51693 15.3162 10.0316 16.6562 10.1424V12.1875ZM12.5938 13.6443L14.744 11.494C14.7817 11.4559 14.8265 11.4256 14.8758 11.4049C14.9252 11.3842 14.9782 11.3734 15.0318 11.3732C15.0853 11.3731 15.1384 11.3835 15.1879 11.4039C15.2374 11.4243 15.2824 11.4543 15.3203 11.4922C15.3582 11.5301 15.3882 11.5751 15.4086 11.6246C15.429 11.6741 15.4394 11.7272 15.4393 11.7807C15.4391 11.8343 15.4283 11.8873 15.4076 11.9367C15.3869 11.986 15.3566 12.0308 15.3185 12.0685L12.881 14.506C12.8433 14.5437 12.7985 14.5736 12.7492 14.5941C12.6999 14.6145 12.6471 14.625 12.5937 14.625C12.5404 14.625 12.4876 14.6145 12.4383 14.5941C12.389 14.5736 12.3442 14.5437 12.3065 14.506L11.0878 13.2872C11.0496 13.2496 11.0194 13.2048 10.9986 13.1554C10.9779 13.106 10.9671 13.053 10.967 12.9995C10.9668 12.9459 10.9772 12.8928 10.9977 12.8433C11.0181 12.7938 11.0481 12.7488 11.086 12.711C11.1238 12.6731 11.1688 12.6431 11.2183 12.6227C11.2678 12.6022 11.3209 12.5918 11.3745 12.592C11.428 12.5922 11.481 12.6029 11.5304 12.6236C11.5798 12.6444 11.6246 12.6747 11.6622 12.7128L12.5938 13.6443Z" fill="white"/>
</svg>
