<svg width="26" height="26" viewBox="0 0 26 26" fill="none" xmlns="http://www.w3.org/2000/svg">
<g clip-path="url(#clip0_904_387)">
<path d="M20.3125 26H5.6875C4.34417 26 3.25 24.9069 3.25 23.5625V12.1875C3.25 10.8431 4.34417 9.75 5.6875 9.75H20.3125C21.6558 9.75 22.75 10.8431 22.75 12.1875V23.5625C22.75 24.9069 21.6558 26 20.3125 26ZM5.6875 11.375C5.24008 11.375 4.875 11.739 4.875 12.1875V23.5625C4.875 24.011 5.24008 24.375 5.6875 24.375H20.3125C20.7599 24.375 21.125 24.011 21.125 23.5625V12.1875C21.125 11.739 20.7599 11.375 20.3125 11.375H5.6875Z" fill="white"/>
<path d="M18.6875 11.375C18.239 11.375 17.875 11.011 17.875 10.5625V6.5C17.875 3.81225 15.6877 1.625 13 1.625C10.3123 1.625 8.125 3.81225 8.125 6.5V10.5625C8.125 11.011 7.761 11.375 7.3125 11.375C6.864 11.375 6.5 11.011 6.5 10.5625V6.5C6.5 2.91525 9.41525 0 13 0C16.5848 0 19.5 2.91525 19.5 6.5V10.5625C19.5 11.011 19.136 11.375 18.6875 11.375Z" fill="white"/>
<path d="M12.9997 18.4154C11.8048 18.4154 10.833 17.4436 10.833 16.2487C10.833 15.0538 11.8048 14.082 12.9997 14.082C14.1946 14.082 15.1663 15.0538 15.1663 16.2487C15.1663 17.4436 14.1946 18.4154 12.9997 18.4154ZM12.9997 15.707C12.7018 15.707 12.458 15.9497 12.458 16.2487C12.458 16.5477 12.7018 16.7904 12.9997 16.7904C13.2976 16.7904 13.5413 16.5477 13.5413 16.2487C13.5413 15.9497 13.2976 15.707 12.9997 15.707Z" fill="white"/>
<path d="M13 21.6667C12.5515 21.6667 12.1875 21.3027 12.1875 20.8542V17.875C12.1875 17.4265 12.5515 17.0625 13 17.0625C13.4485 17.0625 13.8125 17.4265 13.8125 17.875V20.8542C13.8125 21.3027 13.4485 21.6667 13 21.6667Z" fill="white"/>
</g>
<defs>
<clipPath id="clip0_904_387">
<rect width="26" height="26" fill="white"/>
</clipPath>
</defs>
</svg>
