<svg width="36" height="40" viewBox="0 0 36 40" fill="none" xmlns="http://www.w3.org/2000/svg">
<path d="M0 6C0 2.68629 2.68629 0 6 0H36V40L18 33.5L0 40V6Z" fill="#F21F1F"/>
<path d="M14.4707 22.1367C16.8496 22.1367 18.2715 20.2979 18.2715 17.0508C18.2715 13.8242 16.8428 11.9648 14.4707 11.9648C12.0986 11.9648 10.6631 13.8242 10.6699 17.0508C10.6631 20.291 12.085 22.1367 14.4707 22.1367ZM12.4609 17.0508C12.4678 14.6924 13.2334 13.4482 14.4707 13.4414C15.708 13.4482 16.4736 14.6924 16.4805 17.0508C16.4805 19.4297 15.708 20.6396 14.4707 20.6465C13.2266 20.6396 12.4609 19.4297 12.4609 17.0508ZM19.4817 22H26.3587V20.5098H21.9563V20.4414L23.72 18.6914C25.6682 16.8525 26.2014 15.9502 26.2083 14.8359C26.2014 13.1748 24.8411 11.9648 22.8177 11.9648C20.8421 11.9648 19.4339 13.1816 19.4407 15.0547H21.136C21.1292 14.0498 21.7854 13.4141 22.804 13.4141C23.7679 13.4141 24.4993 13.9951 24.4993 14.918C24.4993 15.752 23.9798 16.3398 22.9817 17.3379L19.4817 20.7148V22Z" fill="white"/>
</svg>
