<svg width="47" height="27" viewBox="0 0 47 27" fill="none" xmlns="http://www.w3.org/2000/svg">
<rect y="5" width="47" height="22" rx="11" fill="#DD3D3D"/>
<path d="M8.86719 20H14.2344V18.8867H10.1562V16.2969H13.9062V15.1953H10.1562V12.6289H14.1875V11.5156H8.86719V20ZM21.125 13.6367H19.7773L18.1719 18.5234H18.1133L16.5078 13.6367H15.1602L17.4688 20H18.8164L21.125 13.6367ZM24.6641 20.1289C26.0645 20.1289 27.043 19.4375 27.3242 18.4062H26.0586C25.8477 18.793 25.3848 19.0977 24.6758 19.0977C23.6328 19.0977 22.918 18.4121 22.8828 17.1992H27.4062V16.7539C27.4062 14.4512 26.0293 13.5547 24.582 13.5547C22.8066 13.5547 21.6348 14.9023 21.6406 16.8594C21.6348 18.834 22.7891 20.1289 24.6641 20.1289ZM22.8887 16.2617C22.9414 15.3652 23.5918 14.5801 24.5938 14.5859C25.5488 14.5801 26.1758 15.2949 26.1758 16.2617H22.8887ZM29.9023 16.2266C29.9023 15.2129 30.5176 14.6328 31.3789 14.6328C32.2227 14.6328 32.7207 15.1836 32.7266 16.1094V20H33.9688V15.957C33.9746 14.3809 33.1074 13.5547 31.8008 13.5547C30.8516 13.5547 30.2246 13.9941 29.9258 14.6797H29.8555V13.6367H28.6484V20H29.9023V16.2266ZM38.4688 13.6367H37.168V12.1133H35.9258V13.6367H34.9883V14.6328H35.9258V18.3828C35.9141 19.543 36.7988 20.082 37.7773 20.082C38.123 20.082 38.3926 20.0586 38.5625 20.0352V18.9453C38.3867 18.9629 38.1113 18.9805 37.9297 18.9805C37.5254 18.9746 37.1738 18.8457 37.168 18.125V14.6328H38.4688V13.6367Z" fill="white"/>
<path d="M23.5 0L26.5311 5.25H20.4689L23.5 0Z" fill="#DD3D3D"/>
</svg>
