<svg width="26" height="26" viewBox="0 0 26 26" fill="none" xmlns="http://www.w3.org/2000/svg">
<g clip-path="url(#clip0_896_236)">
<path d="M2.46016 20.8H2.60071L9.38176 19.3243C9.51384 19.3023 9.63624 19.2411 9.73308 19.1486L21.2221 7.65952C22.0614 6.82205 22.5297 5.68296 22.5221 4.4974C22.5237 3.30263 22.057 2.15487 21.2221 1.30012C20.3847 0.460834 19.2456 -0.00742982 18.06 0.000169473C16.8669 -0.0103888 15.7224 0.472805 14.8979 1.33529L3.44389 12.8243C3.34288 12.9056 3.26924 13.016 3.23306 13.1406L1.75746 19.9216C1.71717 20.1651 1.79545 20.4131 1.96829 20.5892C2.09801 20.7216 2.27481 20.7973 2.46016 20.8ZM18.06 1.40557C19.7482 1.40543 21.1168 2.77391 21.117 4.4621C21.117 4.47387 21.1169 4.48563 21.1168 4.4974C21.1283 5.30165 20.811 6.07577 20.2384 6.6406L15.9168 2.28386C16.4862 1.71808 17.2573 1.402 18.06 1.40557ZM14.933 3.30283L19.2546 7.62441L9.24114 17.6027L4.91957 13.3162L14.933 3.30283ZM4.35742 14.7217L7.83575 18.2L3.37362 19.1838L4.35742 14.7217Z" fill="#CCCCCC"/>
<path d="M24.7704 24.5938H1.23004C0.841941 24.5938 0.527344 24.9083 0.527344 25.2964C0.527344 25.6845 0.841941 25.9991 1.23004 25.9991H24.7704C25.1585 25.9991 25.4731 25.6845 25.4731 25.2964C25.4731 24.9083 25.1585 24.5938 24.7704 24.5938Z" fill="#CCCCCC"/>
</g>
<defs>
<clipPath id="clip0_896_236">
<rect width="26" height="26" fill="white"/>
</clipPath>
</defs>
</svg>
