<svg width="268" height="120" viewBox="0 0 268 120" fill="none" xmlns="http://www.w3.org/2000/svg">
<path fill-rule="evenodd" clip-rule="evenodd" d="M11.121 0C8.91183 0 7.12097 1.79086 7.12097 4V56.1035L0.33388 59.4622C-0.111294 59.6825 -0.111293 60.3175 0.333881 60.5378L7.12097 63.8965V116C7.12097 118.209 8.91183 120 11.121 120H263.121C265.33 120 267.121 118.209 267.121 116V4C267.121 1.79086 265.33 0 263.121 0H11.121Z" fill="#497BFE"/>
<path d="M27.4395 29.667L29.4199 27.6738L31.4004 29.667L32.3018 28.7529L30.3213 26.7598L32.3018 24.7666L31.4004 23.8525L29.4199 25.8457L27.4395 23.8525L26.5381 24.7666L28.5186 26.7598L26.5381 28.7529L27.4395 29.667ZM25.7764 26.7344C25.7764 27.1597 26.0747 27.4771 26.6016 27.4834C27.1475 27.4771 27.4331 27.1597 27.4395 26.7344C27.4331 26.3091 27.1348 25.9727 26.6016 25.9727C26.0747 25.9727 25.7764 26.3091 25.7764 26.7344ZM28.5693 29.5527C28.563 29.9717 28.8613 30.3018 29.3818 30.3018C29.9023 30.3018 30.2197 29.9717 30.2197 29.5527C30.2197 29.1274 29.9023 28.7974 29.3818 28.8037C28.8613 28.7974 28.563 29.1274 28.5693 29.5527ZM28.5693 23.9795C28.563 24.3984 28.8613 24.7222 29.3818 24.7285C29.9023 24.7222 30.2197 24.3984 30.2197 23.9795C30.2197 23.5542 29.9023 23.2241 29.3818 23.2305C28.8613 23.2241 28.563 23.5542 28.5693 23.9795ZM31.3242 26.7344C31.3306 27.1597 31.6416 27.4771 32.1748 27.4834C32.689 27.4771 33 27.1597 33 26.7344C33 26.3091 32.689 25.9727 32.1748 25.9727C31.6416 25.9727 31.3306 26.3091 31.3242 26.7344ZM46.2285 20.6914H45.0225V29.0576H46.2285V25.1094H47.8789V24.0938H46.2285V20.6914ZM37.4688 24.3096C37.4561 25.9663 38.7764 27.147 40.4902 27.1406C42.2104 27.147 43.5117 25.9663 43.5244 24.3096C43.5117 22.6528 42.2104 21.4849 40.4902 21.4785C38.7764 21.4849 37.4561 22.6528 37.4688 24.3096ZM38.6494 24.3096C38.6367 23.2495 39.4492 22.5322 40.4902 22.5322C41.5439 22.5322 42.3374 23.2495 42.3438 24.3096C42.3374 25.3696 41.5439 26.0869 40.4902 26.0869C39.4492 26.0869 38.6367 25.3696 38.6494 24.3096ZM39.0176 31.8379H46.7109V30.8604H40.2236V28.1816H39.0176V31.8379ZM58.0098 20.7168H56.8037V23.7891H54.6328V24.7666H56.8037V29.0449H58.0098V20.7168ZM48.5391 26.6709L49.1611 27.6484C50.5132 27.166 51.5098 26.1631 52.0049 24.9062C52.5 26.0361 53.4458 26.9502 54.7217 27.3945L55.3438 26.4297C53.6235 25.8584 52.5952 24.4302 52.6016 23.0146V22.5703H55.0391V21.5801H48.9072V22.5703H51.3701V23.0146C51.3765 24.5825 50.2847 26.0806 48.5391 26.6709ZM50.6211 31.8379H58.3145V30.8604H51.8271V28.2959H50.6211V31.8379ZM68.6992 20.7168H67.4932V29.2227H68.6992V25.376H70.3496V24.373H68.6992V20.7168ZM59.7744 23.0146H66.5537V22.0371H63.7734V20.7041H62.5674V22.0371H59.7744V23.0146ZM60.3965 25.7061C60.3901 26.9946 61.5137 27.8325 63.1641 27.8389C64.7954 27.8325 65.9189 26.9946 65.9189 25.7061C65.9189 24.4048 64.7954 23.5542 63.1641 23.5605C61.5137 23.5542 60.3901 24.4048 60.3965 25.7061ZM61.4883 31.8379H69.1816V30.8604H62.6943V28.5498H61.4883V31.8379ZM61.5645 25.7061C61.5518 24.957 62.1992 24.4937 63.1641 24.4873C64.1289 24.4937 64.7764 24.957 64.7891 25.7061C64.7764 26.4487 64.1289 26.9058 63.1641 26.8994C62.1992 26.9058 61.5518 26.4487 61.5645 25.7061ZM83.5908 20.7041H82.3848V32.1045H83.5908V20.7041ZM74.8057 29.375H80.2646V21.6562H79.0713V24.5762H76.0117V21.6562H74.8057V29.375ZM76.0117 28.3848V25.5283H79.0713V28.3848H76.0117ZM91.4111 21.3135H86.0029V25.998H91.4111V21.3135ZM87.1836 25.0586V22.291H90.2178V25.0586H87.1836ZM87.3613 28.0166H93.6455V29.0322H87.3867V31.9648H95.1943V31H88.5674V29.9082H94.8262V27.0771H87.3613V28.0166ZM93.6328 26.5312H94.8262V20.7041H93.6328V26.5312ZM106.125 20.7168H104.919V23.8525H102.431V21.4658H101.237V23.3955H98.3936V21.4658H97.1875V27.2295H102.431V24.8301H104.919V29.1211H106.125V20.7168ZM98.3936 26.252V24.3223H101.237V26.252H98.3936ZM98.6982 31.8379H106.379V30.8604H99.917V28.2959H98.6982V31.8379ZM117.729 22.3037H113.653V20.8691H112.46V22.3037H108.372V23.2812H117.729V22.3037ZM107.877 30.7969H118.287V29.8193H113.653V28.3149C115.621 28.188 116.846 27.4009 116.84 26.1377C116.846 24.7666 115.374 23.9604 113.057 23.9668C110.708 23.9604 109.254 24.7666 109.261 26.1377C109.254 27.4009 110.467 28.188 112.46 28.3149V29.8193H107.877V30.7969ZM110.492 26.1377C110.479 25.3506 111.432 24.9189 113.057 24.9189C114.656 24.9189 115.615 25.3506 115.608 26.1377C115.615 26.9312 114.656 27.3628 113.057 27.3691C111.432 27.3628 110.479 26.9312 110.492 26.1377ZM126.26 22.748V22.4307H128.71V21.4531H122.553V22.4307H125.054V22.7354C125.047 24.3032 123.975 25.7759 122.197 26.3789L122.845 27.3184C124.178 26.8486 125.168 25.8774 125.663 24.6523C126.158 25.7695 127.104 26.6582 128.393 27.1025L129.002 26.1631C127.263 25.5791 126.253 24.2017 126.26 22.748ZM123.708 29.0957H130.018V32.0791H131.224V28.1182H123.708V29.0957ZM130.018 27.5596H131.224V24.6396H132.874V23.624H131.224V20.7041H130.018V27.5596ZM137.559 22.4053V21.3389H136.365V22.4561C136.353 24.1636 135.299 25.6807 133.483 26.3027L134.131 27.2676C135.508 26.7725 136.499 25.7505 136.987 24.4492C137.482 25.5918 138.403 26.4678 139.653 26.9248L140.313 25.9854C138.587 25.4204 137.552 23.9985 137.559 22.4053ZM135.35 29.9082C135.343 31.2793 136.803 32.0601 139.196 32.0537C141.577 32.0601 143.037 31.2793 143.043 29.9082C143.037 28.5308 141.577 27.731 139.196 27.7373C136.803 27.731 135.343 28.5308 135.35 29.9082ZM136.543 29.9082C136.537 29.1274 137.527 28.6768 139.196 28.6768C140.853 28.6768 141.843 29.1274 141.85 29.9082C141.843 30.6636 140.853 31.1079 139.196 31.1016C137.527 31.1079 136.537 30.6636 136.543 29.9082ZM139.399 24.0049H141.799V27.4199H143.005V20.7041H141.799V23.0146H139.399V24.0049ZM146.509 21.2881H145.303V26.5312H150.546V24.4365H153.034V26.9121H154.24V20.7041H153.034V23.4336H150.546V21.2881H149.353V22.9512H146.509V21.2881ZM146.509 25.5537V23.8906H149.353V25.5537H146.509ZM146.826 31.9141H154.228V27.4453H153.034V28.7275H148.02V27.4453H146.826V31.9141ZM148.02 30.9365V29.667H153.034V30.9365H148.02Z" fill="white"/>
<path d="M40.0898 54.127C42.0576 54.127 43.4604 53.0479 43.4668 51.5498C43.4604 50.3691 42.6099 49.4043 41.5371 49.2393V49.1885C42.4639 48.9727 43.105 48.1348 43.1113 47.1318C43.105 45.7163 41.8228 44.6816 40.0898 44.6816C38.3315 44.6816 37.0557 45.7163 37.0557 47.1318C37.0557 48.1348 37.6841 48.9727 38.6299 49.1885V49.2393C37.5444 49.4043 36.7002 50.3691 36.7129 51.5498C36.7002 53.0479 38.0903 54.127 40.0898 54.127ZM38.1348 51.4482C38.1157 50.5024 38.9473 49.8105 40.0898 49.8105C41.2197 49.8105 42.0449 50.5024 42.0449 51.4482C42.0449 52.3496 41.2832 52.9717 40.0898 52.9717C38.8774 52.9717 38.1157 52.3496 38.1348 51.4482ZM38.4141 47.2588C38.4204 46.4019 39.0806 45.8179 40.0898 45.8242C41.0737 45.8179 41.7466 46.4019 41.7402 47.2588C41.7466 48.1221 41.0483 48.7124 40.0898 48.7061C39.106 48.7124 38.4204 48.1157 38.4141 47.2588ZM45.041 51.3594H46.1836C46.1582 50.585 46.5073 50.2803 46.9707 50.2803C47.2817 50.2803 47.4722 50.4199 47.8975 50.7754C48.5386 51.3467 48.9893 51.5942 49.5986 51.5879C50.6016 51.5942 51.4712 50.8896 51.4268 49.3281H50.2842C50.3032 50.0454 49.9731 50.4072 49.4971 50.4072C49.1797 50.4072 48.9766 50.2549 48.5703 49.8994C47.9102 49.3345 47.4658 49.0996 46.8691 49.0996C45.8472 49.0996 45.0029 49.7915 45.041 51.3594ZM56.6699 44.8086H55.2988L53.0137 46.3066V47.6396L55.21 46.2051H55.2607V54H56.6699V44.8086ZM62.332 54.127C64.3062 54.1396 65.6201 52.7749 65.6201 50.9912C65.6201 49.2329 64.2998 47.9761 62.6621 47.9697C61.6655 47.9761 60.8022 48.4331 60.3008 49.2139H60.1992C60.1992 47.1382 61.0244 45.9067 62.4463 45.9004C63.373 45.9067 63.9634 46.4463 64.1475 47.1953H65.5312C65.3154 45.7354 64.1411 44.6816 62.4463 44.6816C60.2437 44.6816 58.8599 46.5098 58.8535 49.709C58.8535 53.105 60.6309 54.1143 62.332 54.127ZM60.3643 51.0293C60.377 50.0073 61.2339 49.106 62.3574 49.1123C63.4619 49.106 64.2617 49.9629 64.2617 51.0166C64.2617 52.0894 63.4302 52.9526 62.3193 52.959C61.1895 52.9526 60.3706 52.0513 60.3643 51.0293ZM70.6729 47.0557V45.8496H73.1484V44.8467H66.915V45.8496H69.4795V47.0557C69.4731 48.979 68.2227 51.1245 66.4961 51.9561L67.207 52.9082C68.502 52.2607 69.5684 50.8579 70.0889 49.2393C70.603 50.7246 71.6187 52.0068 72.8945 52.6162L73.5801 51.6768C71.8535 50.8579 70.6665 48.8521 70.6729 47.0557ZM74.3672 55.0791H75.5732V49.2266H77.4014V48.2109H75.5732V43.7041H74.3672V55.0791ZM81.6543 44.5166C79.8643 44.5103 78.5503 45.6211 78.5566 47.2207C78.5503 48.8203 79.8643 49.9312 81.6543 49.9375C83.4507 49.9312 84.7456 48.8203 84.752 47.2207C84.7456 45.6211 83.4507 44.5103 81.6543 44.5166ZM78.0107 51.6514L78.1631 52.6543C80.1943 52.6543 82.9556 52.6416 85.5264 52.1465L85.4375 51.2705C82.9492 51.6323 80.0801 51.6514 78.0107 51.6514ZM79.75 47.2207C79.7373 46.2241 80.5498 45.5576 81.6543 45.5576C82.7588 45.5576 83.5713 46.2241 83.5713 47.2207C83.5713 48.23 82.7588 48.8838 81.6543 48.8838C80.5498 48.8838 79.7373 48.23 79.75 47.2207ZM86.1484 55.1045H87.3545V43.7041H86.1484V55.1045ZM95.5049 44.3643C93.791 44.3579 92.5151 45.4878 92.5215 47.0938C92.5151 48.6807 93.791 49.8169 95.5049 49.8105C96.4443 49.8169 97.2505 49.4678 97.7837 48.8838H100.634V50.4199H101.84V43.7041H100.634V45.3037H97.79C97.2568 44.7134 96.4507 44.3579 95.5049 44.3643ZM93.6768 47.0938C93.6704 46.0718 94.4385 45.3926 95.5049 45.4053C96.5396 45.3926 97.3076 46.0718 97.3076 47.0938C97.3076 48.0903 96.5396 48.7949 95.5049 48.7822C94.4385 48.7949 93.6704 48.0903 93.6768 47.0938ZM94.1846 52.8701C94.1782 54.2539 95.6509 55.0601 98.0312 55.0537C100.399 55.0601 101.872 54.2539 101.878 52.8701C101.872 51.48 100.399 50.6675 98.0312 50.6738C95.6509 50.6675 94.1782 51.48 94.1846 52.8701ZM95.3652 52.8701C95.3589 52.0576 96.3618 51.6069 98.0312 51.6006C99.7007 51.6069 100.697 52.0576 100.697 52.8701C100.697 53.6509 99.7007 54.1079 98.0312 54.1016C96.3618 54.1079 95.3589 53.6509 95.3652 52.8701ZM98.3423 46.2686H100.634V47.8936H98.3423C98.4185 47.646 98.4629 47.373 98.4629 47.0938C98.4629 46.8018 98.4185 46.5225 98.3423 46.2686ZM113.989 49.4551H103.579V50.4326H108.276V52.6416H109.47V50.4326H113.989V49.4551ZM104.874 54.8379H112.834V53.8604H106.08V51.5625H104.874V54.8379ZM104.912 48.2744H112.644V44.2373H104.912V48.2744ZM106.093 47.3223V45.1895H111.45V47.3223H106.093ZM127.764 43.7041H126.608V48.2109H125.136V43.9326H124.031V54.4951H125.136V49.2012H126.608V55.0791H127.764V43.7041ZM118.382 52.3496H119.144C120.8 52.3369 121.981 52.2925 123.346 52.0068L123.257 51.0166C122.038 51.2515 120.984 51.3149 119.588 51.3213V46.0527H122.647V45.0752H118.382V52.3496ZM139.646 52.6416H134.987V49.9375H133.794V52.6416H129.236V53.6318H139.646V52.6416ZM129.592 49.1504L130.125 50.1406C131.959 49.7788 133.635 48.6299 134.384 47.0811C135.133 48.6362 136.822 49.7788 138.669 50.1406L139.189 49.1504C136.993 48.7822 135.013 47.0938 135.013 45.291V44.4277H133.743V45.291C133.737 47.0938 131.782 48.7822 129.592 49.1504ZM150.869 49.4551H140.459V50.4326H145.156V52.6416H146.35V50.4326H150.869V49.4551ZM141.754 54.8379H149.714V53.8604H142.96V51.5625H141.754V54.8379ZM141.792 48.2744H149.523V44.2373H141.792V48.2744ZM142.973 47.3223V45.1895H148.33V47.3223H142.973ZM153.751 53.124H152.329L151.656 56.6279H152.735L153.751 53.124ZM168.604 48.8203H158.207V49.8105H162.777V51.0293H163.971V49.8105H168.604V48.8203ZM158.766 47.1318L159.21 48.0713C161.051 47.8174 162.663 46.9795 163.399 45.7734C164.129 46.9668 165.748 47.8237 167.589 48.0713L168.021 47.1318C165.824 46.8716 164.015 45.6401 164.009 44.3262V43.8311H162.777V44.3262C162.771 45.6592 160.975 46.8716 158.766 47.1318ZM158.931 54.1143L159.324 55.0283C161.171 54.8379 162.676 54.146 163.361 53.1367C164.047 54.1587 165.564 54.8315 167.424 55.0283L167.792 54.1143C165.589 53.9048 163.983 52.9844 163.983 51.8418V51.5244H162.739V51.8418C162.746 52.959 161.114 53.9048 158.931 54.1143ZM173.403 47.0557V45.8496H175.879V44.8467H169.646V45.8496H172.21V47.0557C172.204 48.979 170.953 51.1245 169.227 51.9561L169.938 52.9082C171.232 52.2607 172.299 50.8579 172.819 49.2393C173.333 50.7246 174.349 52.0068 175.625 52.6162L176.311 51.6768C174.584 50.8579 173.397 48.8521 173.403 47.0557ZM177.098 55.0791H178.304V49.2266H180.132V48.2109H178.304V43.7041H177.098V55.0791ZM182.722 53.124H181.3L180.627 56.6279H181.706L182.722 53.124ZM197.55 49.6836H187.152V50.6357H197.55V49.6836ZM188.333 52.5908H194.998V55.0791H196.229V51.626H188.333V52.5908ZM188.511 48.7188H196.356V47.792H189.729V46.7891H195.988V45.875H189.729V44.9482H196.28V43.9961H188.511V48.7188ZM204.24 44.707V44.085H202.983V44.707C202.977 46.2368 201.136 47.6333 198.908 47.9316L199.391 48.9219C201.238 48.6235 202.869 47.6587 203.612 46.3193C204.354 47.6587 205.986 48.6235 207.846 48.9219L208.315 47.9316C206.081 47.6333 204.234 46.2178 204.24 44.707ZM198.413 51.0293H202.983V55.0791H204.164V51.0293H208.785V50.0391H198.413V51.0293ZM219.106 43.7041H217.888V55.0791H219.106V43.7041ZM209.763 52.0322L210.397 53.0098C214.301 51.1372 215.717 48.2554 215.717 44.9229H210.309V45.8877H214.498C214.263 48.541 212.784 50.5913 209.763 52.0322ZM230.735 45.3037H226.66V43.8691H225.467V45.3037H221.379V46.2812H230.735V45.3037ZM220.884 53.7969H231.294V52.8193H226.66V51.3149C228.628 51.188 229.853 50.4009 229.847 49.1377C229.853 47.7666 228.38 46.9604 226.063 46.9668C223.715 46.9604 222.261 47.7666 222.268 49.1377C222.261 50.4009 223.474 51.188 225.467 51.3149V52.8193H220.884V53.7969ZM223.499 49.1377C223.486 48.3506 224.438 47.9189 226.063 47.9189C227.663 47.9189 228.622 48.3506 228.615 49.1377C228.622 49.9312 227.663 50.3628 226.063 50.3691C224.438 50.3628 223.486 49.9312 223.499 49.1377ZM237.883 44.707H232.563V50.0137H237.883V44.707ZM233.744 49.0615V45.6846H236.702V49.0615H233.744ZM233.846 54.8379H241.539V53.8604H235.052V51.2324H233.846V54.8379ZM239.851 52.0322H241.057V48.1094H242.707V47.0938H241.057V43.6914H239.851V52.0322ZM40.4326 68.5986V66.6562H39.2266V68.5986C39.2202 70.6807 38.0396 72.8643 36.2939 73.7021L37.043 74.6797C38.3379 74.0068 39.3345 72.6421 39.8423 71.0298C40.3438 72.5469 41.3022 73.8164 42.54 74.4639L43.2891 73.499C41.5942 72.6738 40.4199 70.6108 40.4326 68.5986ZM44.1396 77.0791H45.3457V71.2646H47.1738V70.2363H45.3457V65.7041H44.1396V77.0791ZM58.0918 71.252H55.5781V69.7285C56.4604 69.3667 56.9556 68.7954 56.9619 68.04C56.9556 66.688 55.394 65.9009 52.8994 65.9072C50.3984 65.9009 48.8306 66.688 48.8369 68.04C48.8306 68.7954 49.3257 69.3667 50.208 69.7222V71.252H47.7197V72.2295H58.0918V71.252ZM48.9512 75.0225C48.9512 76.3364 50.4238 77.0537 52.8994 77.0537C55.3433 77.0537 56.8159 76.3364 56.8223 75.0225C56.8159 73.7212 55.3433 73.0039 52.8994 73.0039C50.4238 73.0039 48.9512 73.7212 48.9512 75.0225ZM50.0811 68.04C50.0747 67.2783 51.1284 66.8403 52.8994 66.834C54.6577 66.8403 55.7241 67.2783 55.7178 68.04C55.7241 68.8018 54.6577 69.2271 52.8994 69.2334C51.1284 69.2271 50.0747 68.8018 50.0811 68.04ZM50.1699 75.0225C50.1636 74.3242 51.1602 73.9307 52.8994 73.9307C54.6133 73.9307 55.6162 74.3242 55.6162 75.0225C55.6162 75.7334 54.6133 76.1396 52.8994 76.127C51.1602 76.1396 50.1636 75.7334 50.1699 75.0225ZM51.4268 71.252V70.0459C51.8711 70.1094 52.3662 70.1475 52.8994 70.1475C53.439 70.1475 53.9404 70.1094 54.3848 70.0396V71.252H51.4268ZM67.8164 65.7041H66.6104V77.0664H67.8164V71.2393H69.5811V70.2363H67.8164V65.7041ZM58.9678 74.0322L59.6406 74.9717C63.3857 73.1245 64.833 70.1855 64.8457 66.8975H59.5391V67.9004H63.6143C63.3667 70.5537 61.8179 72.6104 58.9678 74.0322ZM79.3818 68.7764H72.7676V65.9072H71.5742V69.7539H79.3818V68.7764ZM70.1904 71.9502H80.5752V70.96H70.1904V71.9502ZM71.4219 74.9463C71.4219 76.2793 72.9009 77.0283 75.3701 77.0283C77.8203 77.0283 79.2866 76.2793 79.293 74.9463C79.2866 73.6196 77.8203 72.8706 75.3701 72.877C72.9009 72.8706 71.4219 73.6196 71.4219 74.9463ZM72.6406 74.9463C72.6343 74.21 73.6309 73.8228 75.3701 73.8164C77.084 73.8228 78.0869 74.21 78.0869 74.9463C78.0869 75.6763 77.084 76.0952 75.3701 76.1016C73.6309 76.0952 72.6343 75.6763 72.6406 74.9463ZM85.3994 72.1914C85.3994 74.4448 86.0024 76.3174 87.1387 77.917H88.3828C87.5005 76.73 86.8022 74.3242 86.7959 72.1914C86.8022 70.0586 87.5005 67.6465 88.3828 66.4658H87.1387C86.0024 68.0654 85.3994 69.938 85.3994 72.1914ZM94.375 72.8516C91.9375 72.8516 90.376 73.6323 90.376 74.959C90.376 76.2793 91.9375 77.0601 94.375 77.0537C96.8379 77.0601 98.3931 76.2793 98.3994 74.959C98.3931 73.6323 96.8379 72.8516 94.375 72.8516ZM89.2588 71.9121H99.6055V70.9346H94.5908V68.8018H93.4102V70.9346H89.2588V71.9121ZM90.4648 67.2275H97.1172C97.1172 68.1099 97.1172 68.9478 96.8125 70.1094L97.9932 70.2363C98.3169 69.062 98.3169 68.1226 98.3105 67.2148V66.2627H90.4648V67.2275ZM91.582 74.959C91.5693 74.21 92.6548 73.772 94.375 73.7656C96.1143 73.772 97.1934 74.21 97.2061 74.959C97.1934 75.6953 96.1143 76.1206 94.375 76.127C92.6548 76.1206 91.5693 75.6953 91.582 74.959ZM102.106 66.4277H100.964V71.7979H105.42V66.4277H104.303V68.167H102.106V66.4277ZM102.106 70.8203V69.1064H104.303V70.8203H102.106ZM102.449 74.1592H108.987V77.0791H110.181V73.1816H102.449V74.1592ZM106.588 72.4707H107.705V69.6016H109.038V72.5469H110.181V65.7168H109.038V68.6113H107.705V65.9199H106.588V72.4707ZM121.149 65.7041H119.943V71.8105H121.149V65.7041ZM111.945 68.8652C111.952 70.4204 113.234 71.5059 114.979 71.4932C116.719 71.5059 118.001 70.4204 118.001 68.8652C118.001 67.3037 116.719 66.2183 114.979 66.2246C113.234 66.2183 111.952 67.3037 111.945 68.8652ZM113.126 68.8652C113.12 67.894 113.9 67.2339 114.979 67.2402C116.046 67.2339 116.82 67.894 116.82 68.8652C116.82 69.8491 116.046 70.5029 114.979 70.5029C113.9 70.5029 113.12 69.8491 113.126 68.8652ZM113.71 76.9395H121.149V72.3564H119.956V73.6387H114.891V72.3564H113.71V76.9395ZM114.891 75.9492V74.5908H119.956V75.9492H114.891ZM128.373 66.3896H123.409V67.3545H127.167V68.7891H123.422V72.2549H124.247C126.513 72.2485 127.681 72.2104 129.071 71.9756L128.957 70.998C127.675 71.2329 126.596 71.2773 124.615 71.2773V69.7031H128.373V66.3896ZM124.717 74.2607H131.229V77.0918H132.436V73.2832H124.717V74.2607ZM129.097 70.7061H131.229V72.7119H132.436V65.7168H131.229V67.3672H129.097V68.332H131.229V69.7412H129.097V70.7061ZM139.913 65.8818H138.72V69.6523H146.388V65.8818H145.182V66.8721H139.913V65.8818ZM137.361 71.4551H141.932V72.4326H138.605V73.334H145.232V74.2227H138.618V76.9648H146.743V76.0381H139.799V75.0859H146.426V72.4326H143.138V71.4551H147.733V70.4775H137.361V71.4551ZM139.913 68.7383V67.7607H145.182V68.7383H139.913ZM157.458 65.7041H156.252V77.0664H157.458V71.2393H159.223V70.2363H157.458V65.7041ZM148.609 74.0322L149.282 74.9717C153.027 73.1245 154.475 70.1855 154.487 66.8975H149.181V67.9004H153.256C153.008 70.5537 151.459 72.6104 148.609 74.0322ZM162.841 72.1914C162.841 69.938 162.238 68.0654 161.102 66.4658H159.857C160.74 67.6528 161.438 70.0586 161.444 72.1914C161.438 74.3242 160.74 76.7363 159.857 77.917H161.102C162.238 76.3174 162.841 74.4448 162.841 72.1914ZM166.522 75.124H165.101L164.428 78.6279H165.507L166.522 75.124ZM180.398 65.7041H179.192V77.1045H180.398V65.7041ZM171.613 74.375H177.072V66.6562H175.879V69.5762H172.819V66.6562H171.613V74.375ZM172.819 73.3848V70.5283H175.879V73.3848H172.819ZM188.219 66.3135H182.811V70.998H188.219V66.3135ZM183.991 70.0586V67.291H187.025V70.0586H183.991ZM184.169 73.0166H190.453V74.0322H184.194V76.9648H192.002V76H185.375V74.9082H191.634V72.0771H184.169V73.0166ZM190.44 71.5312H191.634V65.7041H190.44V71.5312ZM202.933 65.7168H201.727V68.8525H199.238V66.4658H198.045V68.3955H195.201V66.4658H193.995V72.2295H199.238V69.8301H201.727V74.1211H202.933V65.7168ZM195.201 71.252V69.3223H198.045V71.252H195.201ZM195.506 76.8379H203.187V75.8604H196.725V73.2959H195.506V76.8379ZM214.536 67.3037H210.461V65.8691H209.268V67.3037H205.18V68.2812H214.536V67.3037ZM204.685 75.7969H215.095V74.8193H210.461V73.3149C212.429 73.188 213.654 72.4009 213.647 71.1377C213.654 69.7666 212.181 68.9604 209.864 68.9668C207.516 68.9604 206.062 69.7666 206.068 71.1377C206.062 72.4009 207.274 73.188 209.268 73.3149V74.8193H204.685V75.7969ZM207.3 71.1377C207.287 70.3506 208.239 69.9189 209.864 69.9189C211.464 69.9189 212.422 70.3506 212.416 71.1377C212.422 71.9312 211.464 72.3628 209.864 72.3691C208.239 72.3628 207.287 71.9312 207.3 71.1377ZM225.124 69.0303H218.484V66.1104H217.291V69.9951H225.124V69.0303ZM215.907 72.3945H226.317V71.4297H215.907V72.3945ZM217.202 76.8125H225.2V75.8223H218.408V73.4736H217.202V76.8125ZM46.8564 94.1152H36.4844V95.0928H41.0547V99.0664H42.2354V95.0928H46.8564V94.1152ZM37.0684 92.2998L37.5254 93.252C39.3662 92.96 40.9722 92.0396 41.6704 90.7446C42.3623 92.0396 43.9746 92.96 45.8408 93.252L46.2852 92.2998C44.1333 92.0078 42.3813 90.7446 42.3623 89.3418H45.8789V88.377H37.4492V89.3418H40.9912C40.9531 90.7446 39.1885 92.0078 37.0684 92.2998ZM57.1777 87.7041H55.959V99.0791H57.1777V87.7041ZM47.834 96.0322L48.4688 97.0098C52.3726 95.1372 53.7881 92.2554 53.7881 88.9229H48.3799V89.8877H52.5693C52.3345 92.541 50.8555 94.5913 47.834 96.0322ZM63.0303 89.7227V89.418H65.4678V88.4404H59.3359V89.418H61.7988V89.7354C61.8052 91.2778 60.7134 92.7949 58.9678 93.3916L59.5898 94.3438C60.9419 93.8677 61.9385 92.8647 62.4336 91.6143C62.9287 92.7378 63.8745 93.6519 65.1504 94.0898L65.7725 93.1504C64.0522 92.5601 63.0239 91.1572 63.0303 89.7227ZM60.7324 96.0576H67.2324V99.0791H68.4385V95.0801H60.7324V96.0576ZM65.125 91.5889H67.2324V94.5088H68.4385V87.7041H67.2324V90.5986H65.125V91.5889ZM75.3701 88.3896C72.9897 88.3896 71.1743 89.6528 71.1807 91.5635C71.1743 93.4868 72.9897 94.7437 75.3701 94.7373C77.7568 94.7437 79.5723 93.4868 79.5723 91.5635C79.5723 89.6528 77.7568 88.3896 75.3701 88.3896ZM70.1904 97.6064H80.6006V96.6035H70.1904V97.6064ZM72.3359 91.5635C72.3296 90.2432 73.6245 89.3608 75.3701 89.3672C77.1094 89.3608 78.3979 90.2432 78.4043 91.5635C78.3979 92.8901 77.1094 93.7471 75.3701 93.7471C73.6245 93.7471 72.3296 92.8901 72.3359 91.5635ZM91.8359 96.7051H87.2021V94.7119H90.833V93.7217H83.8887V92.0586H90.5664V88.5039H82.6699V89.4941H89.373V91.0938H82.6953V94.7119H86.0088V96.7051H81.4258V97.7207H91.8359V96.7051ZM105.318 87.7168H104.112V89.7354H101.624V88.4658H100.431V90.3955H97.5869V88.4658H96.3809V94.2295H101.624V93.1631H104.112V96.1211H105.318V87.7168ZM97.5869 93.252V91.3223H100.431V93.252H97.5869ZM97.8916 98.8379H105.572V97.8604H99.1104V95.2959H97.8916V98.8379ZM101.624 92.1855V90.7256H104.112V92.1855H101.624ZM116.554 87.7168H115.348V89.7354H112.878C112.955 89.3545 112.999 88.9482 112.999 88.5293H107.794V89.5195H111.691C111.476 91.354 109.901 92.8013 107.21 93.5693L107.692 94.5088C110.155 93.8042 111.863 92.5156 112.599 90.6875H115.348V92.0713H112.479V93.0615H115.348V94.4453H116.554V87.7168ZM108.975 96.7939C108.975 98.1777 110.473 99.0283 112.809 99.0283C115.113 99.0283 116.624 98.1777 116.63 96.7939C116.624 95.4165 115.113 94.5786 112.809 94.5723C110.473 94.5786 108.975 95.4165 108.975 96.7939ZM110.168 96.7939C110.168 95.9814 111.184 95.5181 112.809 95.5244C114.402 95.5181 115.417 95.9814 115.424 96.7939C115.417 97.5938 114.402 98.0571 112.809 98.0635C111.184 98.0571 110.168 97.5938 110.168 96.7939ZM127.167 87.7041H125.974V99.0791H127.167V93.3154H128.995V92.3125H127.167V87.7041ZM118.242 90.4717H124.983V89.4814H122.254V87.8564H121.048V89.4814H118.242V90.4717ZM118.826 93.9502C118.826 95.5117 120.02 96.5972 121.657 96.6035C123.289 96.5972 124.482 95.5117 124.488 93.9502C124.482 92.4014 123.289 91.3096 121.657 91.3096C120.02 91.3096 118.826 92.4014 118.826 93.9502ZM119.981 93.9502C119.975 92.979 120.686 92.3062 121.657 92.2998C122.622 92.3062 123.327 92.979 123.333 93.9502C123.327 94.9404 122.622 95.6006 121.657 95.5879C120.686 95.6006 119.975 94.9404 119.981 93.9502ZM132.626 88.5547C130.931 88.561 129.731 90.1099 129.744 92.541C129.731 94.9976 130.931 96.5464 132.626 96.54C133.724 96.5464 134.613 95.8799 135.102 94.7373H137.831V99.1045H139.024V87.7041H137.831V90.1797H135.019C134.518 89.1514 133.667 88.561 132.626 88.5547ZM130.887 92.541C130.893 90.7573 131.598 89.6401 132.626 89.6338C133.654 89.6401 134.359 90.7573 134.365 92.541C134.359 94.3501 133.654 95.4609 132.626 95.4609C131.598 95.4609 130.893 94.3501 130.887 92.541ZM135.362 91.1699H137.831V93.7471H135.394C135.47 93.3726 135.508 92.9727 135.508 92.541C135.508 92.0459 135.451 91.5889 135.362 91.1699ZM152.888 87.6914H151.682V96.0576H152.888V92.1094H154.538V91.0938H152.888V87.6914ZM144.128 91.3096C144.115 92.9663 145.436 94.147 147.149 94.1406C148.87 94.147 150.171 92.9663 150.184 91.3096C150.171 89.6528 148.87 88.4849 147.149 88.4785C145.436 88.4849 144.115 89.6528 144.128 91.3096ZM145.309 91.3096C145.296 90.2495 146.108 89.5322 147.149 89.5322C148.203 89.5322 148.997 90.2495 149.003 91.3096C148.997 92.3696 148.203 93.0869 147.149 93.0869C146.108 93.0869 145.296 92.3696 145.309 91.3096ZM145.677 98.8379H153.37V97.8604H146.883V95.1816H145.677V98.8379ZM164.669 87.7168H163.463V90.7891H161.292V91.7666H163.463V96.0449H164.669V87.7168ZM155.198 93.6709L155.82 94.6484C157.172 94.166 158.169 93.1631 158.664 91.9062C159.159 93.0361 160.105 93.9502 161.381 94.3945L162.003 93.4297C160.283 92.8584 159.254 91.4302 159.261 90.0146V89.5703H161.698V88.5801H155.566V89.5703H158.029V90.0146C158.036 91.5825 156.944 93.0806 155.198 93.6709ZM157.28 98.8379H164.974V97.8604H158.486V95.2959H157.28V98.8379ZM175.282 87.7041H174.089V99.0791H175.282V93.3154H177.11V92.3125H175.282V87.7041ZM166.357 90.4717H173.099V89.4814H170.369V87.8564H169.163V89.4814H166.357V90.4717ZM166.941 93.9502C166.941 95.5117 168.135 96.5972 169.772 96.6035C171.404 96.5972 172.597 95.5117 172.604 93.9502C172.597 92.4014 171.404 91.3096 169.772 91.3096C168.135 91.3096 166.941 92.4014 166.941 93.9502ZM168.097 93.9502C168.09 92.979 168.801 92.3062 169.772 92.2998C170.737 92.3062 171.442 92.979 171.448 93.9502C171.442 94.9404 170.737 95.6006 169.772 95.5879C168.801 95.6006 168.09 94.9404 168.097 93.9502ZM187.432 87.7041H186.289V99.0791H187.432V87.7041ZM177.618 95.791L178.304 96.6543C179.91 95.7148 180.995 94.5596 181.668 93.2393H183.89V98.5205H185.032V87.9961H183.89V92.2744H182.087C182.436 91.2842 182.588 90.2241 182.595 89.1133H178.151V90.1035H181.395C181.186 92.4458 180.03 94.3564 177.618 95.791ZM198.4 88.5674H192.662V89.5576H197.213C197.201 90.2749 197.163 91.1953 196.915 92.4521L198.108 92.5664C198.388 91.0938 198.388 89.9639 198.4 89.2021V88.5674ZM191.977 93.5439L192.091 94.5215C194.097 94.5151 196.813 94.4707 199.188 94.0518L199.111 93.1758C197.969 93.3408 196.712 93.4297 195.493 93.4805V91.1191H194.3V93.5186C193.468 93.5376 192.675 93.5439 191.977 93.5439ZM193.703 98.8379H201.435V97.8604H194.909V95.4736H193.703V98.8379ZM199.835 96.248H201.066V92.3379H202.628V91.3223H201.066V87.7041H199.835V96.248ZM212.746 87.7041H211.54V99.1045H212.746V87.7041ZM203.936 89.71H208.036V91.9189H203.948V96.375H204.913C206.925 96.3687 208.639 96.2925 210.651 95.9561L210.537 94.9658C208.633 95.2769 207.027 95.3657 205.18 95.3721V92.8838H209.268V88.7324H203.936V89.71ZM223.397 87.7041H222.204V99.0791H223.397V93.3154H225.226V92.3125H223.397V87.7041ZM214.473 90.4717H221.214V89.4814H218.484V87.8564H217.278V89.4814H214.473V90.4717ZM215.057 93.9502C215.057 95.5117 216.25 96.5972 217.888 96.6035C219.519 96.5972 220.712 95.5117 220.719 93.9502C220.712 92.4014 219.519 91.3096 217.888 91.3096C216.25 91.3096 215.057 92.4014 215.057 93.9502ZM216.212 93.9502C216.206 92.979 216.917 92.3062 217.888 92.2998C218.853 92.3062 219.557 92.979 219.563 93.9502C219.557 94.9404 218.853 95.6006 217.888 95.5879C216.917 95.6006 216.206 94.9404 216.212 93.9502ZM235.229 87.7041H234.011V99.0791H235.229V87.7041ZM225.886 96.0322L226.521 97.0098C230.424 95.1372 231.84 92.2554 231.84 88.9229H226.432V89.8877H230.621C230.386 92.541 228.907 94.5913 225.886 96.0322Z" fill="white"/>
</svg>
