<svg width="36" height="40" viewBox="0 0 36 40" fill="none" xmlns="http://www.w3.org/2000/svg">
<path d="M0 0H36V40L18 32.2222L0 40V0Z" fill="#F21F1F"/>
<path d="M13.4707 22.1367C15.8496 22.1367 17.2715 20.2979 17.2715 17.0508C17.2715 13.8242 15.8428 11.9648 13.4707 11.9648C11.0986 11.9648 9.66309 13.8242 9.66992 17.0508C9.66309 20.291 11.085 22.1367 13.4707 22.1367ZM11.4609 17.0508C11.4678 14.6924 12.2334 13.4482 13.4707 13.4414C14.708 13.4482 15.4736 14.6924 15.4805 17.0508C15.4805 19.4297 14.708 20.6396 13.4707 20.6465C12.2266 20.6396 11.4609 19.4297 11.4609 17.0508ZM18.4817 22H25.3587V20.5098H20.9563V20.4414L22.72 18.6914C24.6682 16.8525 25.2014 15.9502 25.2083 14.8359C25.2014 13.1748 23.8411 11.9648 21.8177 11.9648C19.8421 11.9648 18.4339 13.1816 18.4407 15.0547H20.136C20.1292 14.0498 20.7854 13.4141 21.804 13.4141C22.7679 13.4141 23.4993 13.9951 23.4993 14.918C23.4993 15.752 22.9798 16.3398 21.9817 17.3379L18.4817 20.7148V22Z" fill="white"/>
</svg>
