<svg width="36" height="40" viewBox="0 0 36 40" fill="none" xmlns="http://www.w3.org/2000/svg">
<path d="M0 0H36V40L18 32.2222L0 40V0Z" fill="#F21F1F"/>
<path d="M13.4707 22.1367C15.8496 22.1367 17.2715 20.2979 17.2715 17.0508C17.2715 13.8242 15.8428 11.9648 13.4707 11.9648C11.0986 11.9648 9.66309 13.8242 9.66992 17.0508C9.66309 20.291 11.085 22.1367 13.4707 22.1367ZM11.4609 17.0508C11.4678 14.6924 12.2334 13.4482 13.4707 13.4414C14.708 13.4482 15.4736 14.6924 15.4805 17.0508C15.4805 19.4297 14.708 20.6396 13.4707 20.6465C12.2266 20.6396 11.4609 19.4297 11.4609 17.0508ZM22.0774 22.1367C24.2171 22.1367 25.7825 20.9268 25.7688 19.252C25.7825 18.0078 24.9895 17.1123 23.595 16.9277V16.8457C24.6751 16.6201 25.4134 15.8203 25.3997 14.7129C25.4134 13.1953 24.1145 11.9648 22.1048 11.9648C20.1702 11.9648 18.6595 13.1064 18.6184 14.7676H20.3274C20.3616 13.9336 21.1614 13.4141 22.0911 13.4141C23.055 13.4141 23.6839 13.9746 23.677 14.8086C23.6839 15.6699 22.9524 16.2578 21.8997 16.2578H21.011V17.625H21.8997C23.1848 17.6318 23.9505 18.2676 23.9505 19.1562C23.9505 20.0381 23.1643 20.6396 22.0774 20.6328C21.0452 20.6396 20.2522 20.1133 20.2044 19.3203H18.4134C18.4544 20.9883 19.9651 22.1367 22.0774 22.1367Z" fill="white"/>
</svg>
