<svg width="47" height="45" viewBox="0 0 47 45" fill="none" xmlns="http://www.w3.org/2000/svg">
<path d="M9.447 29.489H4.651V28.213H9.447V29.489ZM10.338 26.255H9.447V27.52H4.651V26.255H3.76V30.204H10.338V26.255ZM4.596 32.91H3.705V35.594H10.525V34.857H4.596V32.91ZM2.561 31.161V31.887H6.664V33.801H7.566V31.887H11.526V31.161H2.561ZM18.4661 30.644C17.0361 30.138 16.0571 28.873 16.0571 27.52V26.442H15.1551V27.487C15.1551 28.983 14.2091 30.314 12.7131 30.853L13.1861 31.579C14.3411 31.117 15.2101 30.237 15.6281 29.082C16.0571 30.116 16.9041 30.941 17.9821 31.359L18.4661 30.644ZM14.2201 33.053H19.9181V35.825H20.8311V32.327H14.2201V33.053ZM19.9181 25.958V28.015H17.7731V28.752H19.9181V31.777H20.8311V25.958H19.9181ZM32.1452 28.664H27.3492V27.718H32.1452V28.664ZM33.0362 26.101H32.1452V27.036H27.3492V26.101H26.4582V29.357H33.0362V26.101ZM34.2022 30.886V30.16H25.2702V30.886H29.2852V31.854H26.3482V32.536H32.1672V33.394H26.3812V35.704H33.3552V35.011H27.2612V34.054H33.0582V31.854H30.1872V30.886H34.2022ZM35.9284 27.003V27.751H39.5474C39.3384 30.083 37.9854 31.975 35.4664 33.24L35.9614 33.944C39.1514 32.349 40.4384 29.808 40.4384 27.003H35.9284ZM44.5744 29.951H42.9904V25.947H42.0884V35.814H42.9904V30.699H44.5744V29.951Z" fill="#999999"/>
<path d="M17 7V19" stroke="#333333" stroke-linecap="round" stroke-linejoin="round"/>
<path d="M29 19H17" stroke="#333333" stroke-linecap="round" stroke-linejoin="round"/>
<path d="M19.6667 15.6667L23.1667 12.1667L25.5 14.5L29 11" stroke="#333333" stroke-linecap="round" stroke-linejoin="round"/>
</svg>
