<svg width="252" height="93" viewBox="0 0 252 93" fill="none" xmlns="http://www.w3.org/2000/svg">
<path d="M0 2H252" stroke="#EBEBEB"/>
<path d="M7 0L7 72" stroke="#EBEBEB"/>
<path d="M246 0L246 72" stroke="#EBEBEB" stroke-width="0.5"/>
<path d="M0 70H252" stroke="#EBEBEB"/>
<path d="M246.852 85.188C245.304 84.66 244.248 83.316 244.248 81.864V80.676H243.264V81.78C243.264 83.424 242.22 84.888 240.588 85.476L241.104 86.256C242.364 85.776 243.324 84.792 243.768 83.532C244.248 84.636 245.172 85.524 246.336 85.956L246.852 85.188ZM245.568 90.108C243.972 90.108 243 89.664 243 88.92C243 88.164 243.972 87.72 245.568 87.72C247.152 87.72 248.124 88.164 248.124 88.92C248.124 89.664 247.152 90.108 245.568 90.108ZM245.568 86.952C243.372 86.952 242.016 87.66 242.016 88.92C242.016 90.168 243.372 90.876 245.568 90.876C247.752 90.876 249.108 90.168 249.108 88.92C249.108 87.66 247.752 86.952 245.568 86.952ZM248.988 82.908V80.136H248.004V86.652H248.988V83.724H250.584V82.908H248.988Z" fill="#999999"/>
<path d="M122.536 84.516C124.3 84.3 125.92 83.508 126.508 82.32C127.108 83.508 128.716 84.3 130.48 84.516L130.828 83.736C128.944 83.52 127.228 82.596 127.144 81.408H130.492V80.616H122.536V81.408H125.872C125.788 82.596 124.072 83.52 122.188 83.736L122.536 84.516ZM129.184 88.98C129.184 89.7 128.176 90.12 126.496 90.12C124.804 90.12 123.808 89.7 123.808 88.98C123.808 88.26 124.804 87.852 126.496 87.852C128.176 87.852 129.184 88.26 129.184 88.98ZM131.368 85.956V85.164H121.636V85.956H126.004V87.108C124 87.204 122.812 87.864 122.812 88.98C122.812 90.204 124.204 90.876 126.508 90.876C128.8 90.876 130.18 90.204 130.18 88.98C130.18 87.864 129.004 87.204 127 87.108V85.956H131.368Z" fill="#999999"/>
<path d="M4.792 87.672C3.82 87.672 3.112 86.976 3.112 86.016C3.112 85.044 3.82 84.348 4.792 84.348C5.776 84.348 6.484 85.044 6.484 86.016C6.484 86.976 5.776 87.672 4.792 87.672ZM4.792 83.532C3.28 83.532 2.188 84.564 2.188 86.016C2.188 87.48 3.28 88.488 4.792 88.488C6.328 88.488 7.42 87.48 7.42 86.016C7.42 84.564 6.328 83.532 4.792 83.532ZM5.272 80.256H4.288V81.852H1.576V82.644H7.924V81.852H5.272V80.256ZM11.692 84.552H9.928V80.136H8.944V90.888H9.928V85.38H11.692V84.552Z" fill="#999999"/>
</svg>
