<svg width="10" height="12" viewBox="0 0 10 12" fill="none" xmlns="http://www.w3.org/2000/svg">
<path d="M9.40636 5.09091L1.5362 0.113904C1.37485 0.0331973 1.19453 -0.00581759 1.01294 0.000701399C0.83135 0.00722039 0.654644 0.0590489 0.499958 0.151101C0.345272 0.243153 0.217931 0.372301 0.130313 0.525983C0.0426963 0.679666 -0.00212482 0.852609 7.74063e-05 1.02802V10.972C-0.00212482 11.1474 0.0426963 11.3203 0.130313 11.474C0.217931 11.6277 0.345272 11.7568 0.499958 11.8489C0.654644 11.941 0.83135 11.9928 1.01294 11.9993C1.19453 12.0058 1.37485 11.9668 1.5362 11.8861L9.40636 6.91926C9.58425 6.83609 9.73422 6.70618 9.8392 6.5445C9.94417 6.38282 10 6.19589 10 6.00508C10 5.81427 9.94417 5.62734 9.8392 5.46567C9.73422 5.30399 9.58425 5.17408 9.40636 5.09091Z" fill="#6967F9"/>
</svg>
