<svg width="18" height="18" viewBox="0 0 18 18" fill="none" xmlns="http://www.w3.org/2000/svg">
<path d="M9.33026 10.882C9.33026 11.0603 9.26169 11.2111 9.12454 11.3346C9.00112 11.458 8.8434 11.5197 8.6514 11.5197C8.4594 11.5197 8.29483 11.458 8.15769 11.3346C8.03426 11.2111 7.97254 11.0603 7.97254 10.882V10.3883C7.97254 9.99058 8.08912 9.66829 8.32226 9.42144C8.56912 9.17458 8.81597 8.95515 9.06283 8.76315C9.29597 8.58486 9.50854 8.38601 9.70054 8.16658C9.90626 7.93344 10.0091 7.65915 10.0091 7.34372C10.0091 7.04201 9.8994 6.80201 9.67997 6.62372C9.47426 6.43172 9.19312 6.33572 8.83654 6.33572C8.53483 6.33572 8.29483 6.41115 8.11654 6.56201C7.93826 6.71286 7.8354 6.92543 7.80797 7.19972C7.79426 7.35058 7.71883 7.48772 7.58169 7.61115C7.45826 7.72086 7.3074 7.77572 7.12912 7.77572C6.95083 7.77572 6.78626 7.70715 6.6354 7.57001C6.49826 7.43286 6.42969 7.27515 6.42969 7.09686C6.42969 6.74029 6.5394 6.41801 6.75883 6.13001C6.97826 5.82829 7.26626 5.58829 7.62283 5.41001C7.99312 5.23172 8.39769 5.14258 8.83654 5.14258C9.5634 5.14258 10.1668 5.34144 10.6468 5.73915C11.1268 6.12315 11.3668 6.62372 11.3668 7.24086C11.3668 7.81686 11.2365 8.26258 10.976 8.57801C10.7291 8.89344 10.448 9.16772 10.1325 9.40086C9.91312 9.56544 9.72112 9.73001 9.55654 9.89458C9.40569 10.0454 9.33026 10.21 9.33026 10.3883V10.882ZM8.81597 14.0911C8.5554 14.0911 8.32912 14.002 8.13712 13.8237C7.95883 13.6591 7.86969 13.4603 7.86969 13.2271C7.86969 12.9803 7.95883 12.7746 8.13712 12.61C8.32912 12.4317 8.5554 12.3426 8.81597 12.3426C9.06283 12.3426 9.2754 12.4317 9.45369 12.61C9.63197 12.7746 9.72112 12.9803 9.72112 13.2271C9.72112 13.4603 9.63197 13.6591 9.45369 13.8237C9.2754 14.002 9.06283 14.0911 8.81597 14.0911Z" fill="#DDDDDD"/>
<circle cx="9" cy="9" r="8.5" stroke="#DDDDDD"/>
</svg>
