<svg width="80" height="84" viewBox="0 0 80 84" fill="none" xmlns="http://www.w3.org/2000/svg">
<g clip-path="url(#clip0_1_3881)">
<path d="M39.995 67.01C58.472 67.01 73.4505 52.0093 73.4505 33.505C73.4505 15.0007 58.472 0 39.995 0C21.5181 0 6.53957 15.0007 6.53957 33.505C6.53957 52.0093 21.5181 67.01 39.995 67.01Z" fill="#8D79FE"/>
<path d="M33.5 27.1335C34.8807 27.1335 36 26.0143 36 24.6335C36 23.2528 34.8807 22.1335 33.5 22.1335C32.1193 22.1335 31 23.2528 31 24.6335C31 26.0143 32.1193 27.1335 33.5 27.1335Z" fill="#333333"/>
<path d="M33.5 26.5C34.3284 26.5 35 26.0523 35 25.5C35 24.9477 34.3284 24.5 33.5 24.5C32.6716 24.5 32 24.9477 32 25.5C32 26.0523 32.6716 26.5 33.5 26.5Z" fill="white"/>
<path d="M46.5 27.1335C47.8807 27.1335 49 26.0143 49 24.6335C49 23.2528 47.8807 22.1335 46.5 22.1335C45.1193 22.1335 44 23.2528 44 24.6335C44 26.0143 45.1193 27.1335 46.5 27.1335Z" fill="#333333"/>
<path d="M46.5 26.5C47.3284 26.5 48 26.0523 48 25.5C48 24.9477 47.3284 24.5 46.5 24.5C45.6716 24.5 45 24.9477 45 25.5C45 26.0523 45.6716 26.5 46.5 26.5Z" fill="white"/>
<path d="M34.8611 28.9124C33.605 28.9124 32.638 30.1403 33.0567 31.3284C34.0536 34.2037 36.7851 36.2703 40.005 36.2703C43.2249 36.2703 45.9464 34.2037 46.9533 31.3284C47.362 30.1403 46.405 28.9124 45.1489 28.9124H34.871H34.8611Z" fill="#333333"/>
<path d="M64.6978 43.4987C71.4966 43.4987 77.0093 37.9778 77.0093 31.1689" stroke="#8D79FE" stroke-width="6" stroke-linecap="round" stroke-linejoin="round"/>
<path d="M15.3022 44.2472C8.50343 44.2472 2.99066 38.7263 2.99066 31.9175" stroke="#8D79FE" stroke-width="6" stroke-linecap="round" stroke-linejoin="round"/>
<circle cx="32.5" cy="23.5" r="0.5" fill="white"/>
<circle cx="45.5" cy="23.5" r="0.5" fill="white"/>
</g>
<path d="M25.5488 51.1296L40 84L54.4512 51.1296H25.5488Z" fill="#FFCA28"/>
<path d="M54.4512 51.1297L40 40L25.5488 51.1297H54.4512Z" fill="#FFE082"/>
<path d="M40 84L54.4526 51.1296H69L40 84Z" fill="#FFB300"/>
<path d="M40 84L25.5488 51.1296H11L40 84Z" fill="#FFB300"/>
<path d="M59.1821 40L69 51.1297H54.4512L59.1821 40Z" fill="#FFCA28"/>
<path d="M20.8179 40L11 51.1297H25.5488L20.8179 40Z" fill="#FFCA28"/>
<path d="M40 40H59.1821L54.4511 51.1297L40 40Z" fill="#FFD54F"/>
<path d="M40 40H20.8179L25.5488 51.1297L40 40Z" fill="#FFD54F"/>
<defs>
<clipPath id="clip0_1_3881">
<rect width="80" height="67" fill="white"/>
</clipPath>
</defs>
</svg>
