<svg width="332" height="152" viewBox="0 0 332 152" fill="none" xmlns="http://www.w3.org/2000/svg">
<path d="M1.672 131.803H8.503V131.066H2.574V127.469H1.672V131.803ZM9.526 135.114V134.366H0.572V135.114H9.526ZM18.7981 132.452V126.611H17.8961V132.452H18.7981ZM16.7961 131.66L16.6971 130.934C15.1351 131.198 13.8591 131.242 12.0991 131.242V129.878H15.6741V127.194H11.1861V127.931H14.7831V129.185H11.2191V131.979H12.0111C13.8261 131.979 15.1901 131.924 16.7961 131.66ZM18.7981 133.002H12.4181V136.335H18.7981V133.002ZM17.9181 135.609H13.2981V133.717H17.9181V135.609Z" fill="#999999"/>
<path d="M8.437 25.556H9.757V24.797H8.437V20.947H7.546V30.814H8.437V25.556ZM3.498 21.871H2.75V24.401H1.54V21.871H0.77V28.427H3.498V21.871ZM6.71 21.871H5.951V24.401H4.785V21.871H4.026V28.427H6.71V21.871ZM1.54 25.127H2.75V27.69H1.54V25.127ZM4.785 25.127H5.951V27.69H4.785V25.127ZM11.8241 21.893H17.6101V22.85H11.8461V25.193H18.7101V24.489H12.7371V23.521H18.5011V21.2H11.8241V21.893ZM19.6451 26.766V26.04H10.7021V26.766H19.6451ZM18.5121 27.679H11.9011V30.682H18.5121V27.679ZM17.6211 29.956H12.7811V28.394H17.6211V29.956Z" fill="#999999"/>
<path d="M24.6685 63H320" stroke="#EBEBEB" stroke-dasharray="2 3"/>
<path d="M24.6685 97.667H320" stroke="#EBEBEB" stroke-dasharray="2 3"/>
<path d="M24.6685 28.3643H320" stroke="#EBEBEB" stroke-dasharray="2 3"/>
<path d="M24.6685 132.333H320" stroke="#EBEBEB"/>
<path d="M38.786 149V148.186H37.202V140.893H36.399L34.232 142.763L34.771 143.412L36.234 142.103C36.223 142.18 36.223 142.279 36.223 142.378V148.186H34.43V149H38.786ZM41.0157 148.12H40.0147V149.154H41.0157V148.12ZM48.3469 144.985C48.3469 142.114 47.0489 140.805 45.3879 140.805C43.7159 140.805 42.4289 142.114 42.4289 144.985C42.4289 147.845 43.7159 149.154 45.3879 149.154C47.0489 149.154 48.3469 147.845 48.3469 144.985ZM47.3349 144.985C47.3349 147.493 46.4109 148.34 45.3879 148.34C44.3649 148.34 43.4519 147.493 43.4519 144.985C43.4519 142.466 44.3649 141.63 45.3879 141.63C46.4109 141.63 47.3349 142.466 47.3349 144.985Z" fill="#999999"/>
<path d="M62.786 149V148.186H61.202V140.893H60.399L58.232 142.763L58.771 143.412L60.234 142.103C60.223 142.18 60.223 142.279 60.223 142.378V148.186H58.43V149H62.786ZM65.0157 148.12H64.0147V149.154H65.0157V148.12ZM68.1889 143.94L68.5519 141.828H71.7089V140.904H67.8479L67.1879 144.721L67.8369 144.908C68.3099 144.743 68.7279 144.644 69.1569 144.644C70.3119 144.644 70.9939 145.26 70.9939 146.316C70.9939 147.504 70.1909 148.197 69.0799 148.197C68.4199 148.197 67.7819 147.9 67.2979 147.493L66.7589 148.23C67.2539 148.703 68.0679 149.099 69.0359 149.099C70.6749 149.099 71.9619 147.977 71.9619 146.261C71.9619 144.853 71.0489 143.797 69.3439 143.797C68.9479 143.797 68.5629 143.841 68.1889 143.94Z" fill="#999999"/>
<path d="M86.995 149V148.109H83.816C83.541 148.109 83.211 148.153 82.903 148.241L85.158 146.008C86.071 145.095 86.841 144.259 86.841 143.06C86.841 141.63 85.774 140.794 84.399 140.794C83.024 140.794 81.957 141.597 81.748 143.082L82.738 143.247C82.738 142.323 83.42 141.663 84.344 141.663C85.18 141.663 85.796 142.114 85.829 143.082C85.829 144.028 85.213 144.721 84.366 145.623L81.583 148.296V149H86.995ZM89.0157 148.12H88.0147V149.154H89.0157V148.12ZM96.3469 144.985C96.3469 142.114 95.0489 140.805 93.3879 140.805C91.7159 140.805 90.4289 142.114 90.4289 144.985C90.4289 147.845 91.7159 149.154 93.3879 149.154C95.0489 149.154 96.3469 147.845 96.3469 144.985ZM95.3349 144.985C95.3349 147.493 94.4109 148.34 93.3879 148.34C92.3649 148.34 91.4519 147.493 91.4519 144.985C91.4519 142.466 92.3649 141.63 93.3879 141.63C94.4109 141.63 95.3349 142.466 95.3349 144.985Z" fill="#999999"/>
<path d="M110.995 149V148.109H107.816C107.541 148.109 107.211 148.153 106.903 148.241L109.158 146.008C110.071 145.095 110.841 144.259 110.841 143.06C110.841 141.63 109.774 140.794 108.399 140.794C107.024 140.794 105.957 141.597 105.748 143.082L106.738 143.247C106.738 142.323 107.42 141.663 108.344 141.663C109.18 141.663 109.796 142.114 109.829 143.082C109.829 144.028 109.213 144.721 108.366 145.623L105.583 148.296V149H110.995ZM113.016 148.12H112.015V149.154H113.016V148.12ZM116.189 143.94L116.552 141.828H119.709V140.904H115.848L115.188 144.721L115.837 144.908C116.31 144.743 116.728 144.644 117.157 144.644C118.312 144.644 118.994 145.26 118.994 146.316C118.994 147.504 118.191 148.197 117.08 148.197C116.42 148.197 115.782 147.9 115.298 147.493L114.759 148.23C115.254 148.703 116.068 149.099 117.036 149.099C118.675 149.099 119.962 147.977 119.962 146.261C119.962 144.853 119.049 143.797 117.344 143.797C116.948 143.797 116.563 143.841 116.189 143.94Z" fill="#999999"/>
<path d="M129.781 143.104L130.782 143.269C130.782 142.367 131.453 141.685 132.377 141.685C133.224 141.685 133.818 142.136 133.818 143.06C133.818 143.896 133.312 144.479 131.893 144.512V145.238C133.62 145.238 133.983 145.876 133.983 146.745C133.983 147.46 133.422 148.274 132.267 148.274C131.431 148.274 130.936 147.845 130.595 147.141C130.507 146.932 130.452 146.767 130.43 146.646L129.528 147.02C129.913 148.208 130.54 149.143 132.278 149.143C133.785 149.143 135.006 148.197 135.006 146.723C135.006 145.711 134.456 145.04 133.4 144.776C134.28 144.479 134.819 143.951 134.819 142.895C134.819 141.663 133.829 140.805 132.432 140.805C131.057 140.805 129.99 141.641 129.781 143.104ZM137.016 148.12H136.015V149.154H137.016V148.12ZM144.347 144.985C144.347 142.114 143.049 140.805 141.388 140.805C139.716 140.805 138.429 142.114 138.429 144.985C138.429 147.845 139.716 149.154 141.388 149.154C143.049 149.154 144.347 147.845 144.347 144.985ZM143.335 144.985C143.335 147.493 142.411 148.34 141.388 148.34C140.365 148.34 139.452 147.493 139.452 144.985C139.452 142.466 140.365 141.63 141.388 141.63C142.411 141.63 143.335 142.466 143.335 144.985Z" fill="#999999"/>
<path d="M153.781 143.104L154.782 143.269C154.782 142.367 155.453 141.685 156.377 141.685C157.224 141.685 157.818 142.136 157.818 143.06C157.818 143.896 157.312 144.479 155.893 144.512V145.238C157.62 145.238 157.983 145.876 157.983 146.745C157.983 147.46 157.422 148.274 156.267 148.274C155.431 148.274 154.936 147.845 154.595 147.141C154.507 146.932 154.452 146.767 154.43 146.646L153.528 147.02C153.913 148.208 154.54 149.143 156.278 149.143C157.785 149.143 159.006 148.197 159.006 146.723C159.006 145.711 158.456 145.04 157.4 144.776C158.28 144.479 158.819 143.951 158.819 142.895C158.819 141.663 157.829 140.805 156.432 140.805C155.057 140.805 153.99 141.641 153.781 143.104ZM161.016 148.12H160.015V149.154H161.016V148.12ZM164.189 143.94L164.552 141.828H167.709V140.904H163.848L163.188 144.721L163.837 144.908C164.31 144.743 164.728 144.644 165.157 144.644C166.312 144.644 166.994 145.26 166.994 146.316C166.994 147.504 166.191 148.197 165.08 148.197C164.42 148.197 163.782 147.9 163.298 147.493L162.759 148.23C163.254 148.703 164.068 149.099 165.036 149.099C166.675 149.099 167.962 147.977 167.962 146.261C167.962 144.853 167.049 143.797 165.344 143.797C164.948 143.797 164.563 143.841 164.189 143.94Z" fill="#999999"/>
<path d="M183.38 146.855V146.063H182.159V140.849H181.213L177.242 146.107V146.855H181.268V149H182.159V146.855H183.38ZM181.268 142.697V146.063H178.342L181.312 142.015C181.279 142.246 181.268 142.51 181.268 142.697ZM185.016 148.12H184.015V149.154H185.016V148.12ZM192.347 144.985C192.347 142.114 191.049 140.805 189.388 140.805C187.716 140.805 186.429 142.114 186.429 144.985C186.429 147.845 187.716 149.154 189.388 149.154C191.049 149.154 192.347 147.845 192.347 144.985ZM191.335 144.985C191.335 147.493 190.411 148.34 189.388 148.34C188.365 148.34 187.452 147.493 187.452 144.985C187.452 142.466 188.365 141.63 189.388 141.63C190.411 141.63 191.335 142.466 191.335 144.985Z" fill="#999999"/>
<path d="M207.38 146.855V146.063H206.159V140.849H205.213L201.242 146.107V146.855H205.268V149H206.159V146.855H207.38ZM205.268 142.697V146.063H202.342L205.312 142.015C205.279 142.246 205.268 142.51 205.268 142.697ZM209.016 148.12H208.015V149.154H209.016V148.12ZM212.189 143.94L212.552 141.828H215.709V140.904H211.848L211.188 144.721L211.837 144.908C212.31 144.743 212.728 144.644 213.157 144.644C214.312 144.644 214.994 145.26 214.994 146.316C214.994 147.504 214.191 148.197 213.08 148.197C212.42 148.197 211.782 147.9 211.298 147.493L210.759 148.23C211.254 148.703 212.068 149.099 213.036 149.099C214.675 149.099 215.962 147.977 215.962 146.261C215.962 144.853 215.049 143.797 213.344 143.797C212.948 143.797 212.563 143.841 212.189 143.94Z" fill="#999999"/>
<path d="M227.101 143.94L227.464 141.828H230.621V140.904H226.76L226.1 144.721L226.749 144.908C227.222 144.743 227.64 144.644 228.069 144.644C229.224 144.644 229.906 145.26 229.906 146.316C229.906 147.504 229.103 148.197 227.992 148.197C227.332 148.197 226.694 147.9 226.21 147.493L225.671 148.23C226.166 148.703 226.98 149.099 227.948 149.099C229.587 149.099 230.874 147.977 230.874 146.261C230.874 144.853 229.961 143.797 228.256 143.797C227.86 143.797 227.475 143.841 227.101 143.94ZM233.016 148.12H232.015V149.154H233.016V148.12ZM240.347 144.985C240.347 142.114 239.049 140.805 237.388 140.805C235.716 140.805 234.429 142.114 234.429 144.985C234.429 147.845 235.716 149.154 237.388 149.154C239.049 149.154 240.347 147.845 240.347 144.985ZM239.335 144.985C239.335 147.493 238.411 148.34 237.388 148.34C236.365 148.34 235.452 147.493 235.452 144.985C235.452 142.466 236.365 141.63 237.388 141.63C238.411 141.63 239.335 142.466 239.335 144.985Z" fill="#999999"/>
<path d="M251.101 143.94L251.464 141.828H254.621V140.904H250.76L250.1 144.721L250.749 144.908C251.222 144.743 251.64 144.644 252.069 144.644C253.224 144.644 253.906 145.26 253.906 146.316C253.906 147.504 253.103 148.197 251.992 148.197C251.332 148.197 250.694 147.9 250.21 147.493L249.671 148.23C250.166 148.703 250.98 149.099 251.948 149.099C253.587 149.099 254.874 147.977 254.874 146.261C254.874 144.853 253.961 143.797 252.256 143.797C251.86 143.797 251.475 143.841 251.101 143.94ZM257.016 148.12H256.015V149.154H257.016V148.12ZM260.189 143.94L260.552 141.828H263.709V140.904H259.848L259.188 144.721L259.837 144.908C260.31 144.743 260.728 144.644 261.157 144.644C262.312 144.644 262.994 145.26 262.994 146.316C262.994 147.504 262.191 148.197 261.08 148.197C260.42 148.197 259.782 147.9 259.298 147.493L258.759 148.23C259.254 148.703 260.068 149.099 261.036 149.099C262.675 149.099 263.962 147.977 263.962 146.261C263.962 144.853 263.049 143.797 261.344 143.797C260.948 143.797 260.563 143.841 260.189 143.94Z" fill="#999999"/>
<path d="M275.651 143.94L278.082 140.893H276.817L274.573 143.918C273.869 144.842 273.572 145.656 273.572 146.371C273.572 148.043 274.639 149.143 276.278 149.143C277.928 149.143 279.072 147.977 279.072 146.481C279.072 144.93 277.972 144.05 276.652 144.05C276.113 144.05 275.662 144.204 275.266 144.468C275.343 144.38 275.464 144.204 275.651 143.94ZM276.256 148.296C275.156 148.296 274.551 147.592 274.551 146.536C274.551 145.623 275.244 144.831 276.322 144.831C277.323 144.831 278.06 145.491 278.06 146.558C278.06 147.559 277.323 148.296 276.256 148.296ZM281.016 148.12H280.015V149.154H281.016V148.12ZM288.347 144.985C288.347 142.114 287.049 140.805 285.388 140.805C283.716 140.805 282.429 142.114 282.429 144.985C282.429 147.845 283.716 149.154 285.388 149.154C287.049 149.154 288.347 147.845 288.347 144.985ZM287.335 144.985C287.335 147.493 286.411 148.34 285.388 148.34C284.365 148.34 283.452 147.493 283.452 144.985C283.452 142.466 284.365 141.63 285.388 141.63C286.411 141.63 287.335 142.466 287.335 144.985Z" fill="#999999"/>
<path d="M299.651 143.94L302.082 140.893H300.817L298.573 143.918C297.869 144.842 297.572 145.656 297.572 146.371C297.572 148.043 298.639 149.143 300.278 149.143C301.928 149.143 303.072 147.977 303.072 146.481C303.072 144.93 301.972 144.05 300.652 144.05C300.113 144.05 299.662 144.204 299.266 144.468C299.343 144.38 299.464 144.204 299.651 143.94ZM300.256 148.296C299.156 148.296 298.551 147.592 298.551 146.536C298.551 145.623 299.244 144.831 300.322 144.831C301.323 144.831 302.06 145.491 302.06 146.558C302.06 147.559 301.323 148.296 300.256 148.296ZM305.016 148.12H304.015V149.154H305.016V148.12ZM308.189 143.94L308.552 141.828H311.709V140.904H307.848L307.188 144.721L307.837 144.908C308.31 144.743 308.728 144.644 309.157 144.644C310.312 144.644 310.994 145.26 310.994 146.316C310.994 147.504 310.191 148.197 309.08 148.197C308.42 148.197 307.782 147.9 307.298 147.493L306.759 148.23C307.254 148.703 308.068 149.099 309.036 149.099C310.675 149.099 311.962 147.977 311.962 146.261C311.962 144.853 311.049 143.797 309.344 143.797C308.948 143.797 308.563 143.841 308.189 143.94Z" fill="#999999"/>
<path d="M160.716 85.2741L41 126.818" stroke="#FF6D3B" stroke-width="3"/>
<path d="M209.415 68.3748L160.717 85.2739" stroke="#FABF48" stroke-width="3"/>
<path d="M258.112 51.4758L209.414 68.375" stroke="#62B22F" stroke-width="3"/>
<path d="M306.811 34.5769L258.113 51.4761" stroke="#1E76FC" stroke-width="3"/>
<path d="M320 29.9998L306.811 34.5767" stroke="#6967F9" stroke-width="3"/>
<mask id="mask0_317_4141" style="mask-type:alpha" maskUnits="userSpaceOnUse" x="223" y="50" width="48" height="83">
<path d="M270.5 132.5L223 132.5L223 67L270.5 50L270.5 132.5Z" fill="#D9D9D9"/>
</mask>
<g mask="url(#mask0_317_4141)">
<path d="M190.992 69.3101L275.146 39.8315" stroke="#F5F5F5"/>
<path d="M190 66.4785L274.154 36.9999" stroke="#F5F5F5"/>
<path d="M191.984 72.1411L276.137 42.6625" stroke="#F5F5F5"/>
<path d="M192.976 74.9727L277.129 45.494" stroke="#F5F5F5"/>
<path d="M193.967 77.8037L278.121 48.3251" stroke="#F5F5F5"/>
<path d="M194.959 80.6353L279.113 51.1566" stroke="#F5F5F5"/>
<path d="M195.951 83.4663L280.104 53.9877" stroke="#F5F5F5"/>
<path d="M196.943 86.2979L281.096 56.8192" stroke="#F5F5F5"/>
<path d="M197.934 89.1289L282.088 59.6503" stroke="#F5F5F5"/>
<path d="M198.926 91.9604L283.08 62.4818" stroke="#F5F5F5"/>
<path d="M199.918 94.7915L284.072 65.3129" stroke="#F5F5F5"/>
<path d="M200.91 97.623L285.063 68.1444" stroke="#F5F5F5"/>
<path d="M201.902 100.454L286.055 70.9755" stroke="#F5F5F5"/>
<path d="M202.894 103.286L287.047 73.807" stroke="#F5F5F5"/>
<path d="M203.885 106.117L288.039 76.6381" stroke="#F5F5F5"/>
<path d="M204.877 108.948L289.03 79.4696" stroke="#F5F5F5"/>
<path d="M205.869 111.779L290.022 82.3007" stroke="#F5F5F5"/>
<path d="M206.861 114.611L291.014 85.1322" stroke="#F5F5F5"/>
<path d="M207.853 117.442L292.006 87.9633" stroke="#F5F5F5"/>
<path d="M208.844 120.273L292.998 90.7948" stroke="#F5F5F5"/>
<path d="M209.836 123.105L293.99 93.6264" stroke="#F5F5F5"/>
<path d="M210.828 125.936L294.981 96.4574" stroke="#F5F5F5"/>
<path d="M211.82 128.768L295.973 99.289" stroke="#F5F5F5"/>
<path d="M212.812 131.599L296.965 102.12" stroke="#F5F5F5"/>
<path d="M213.803 134.43L297.957 104.952" stroke="#F5F5F5"/>
<path d="M214.795 137.261L298.949 107.783" stroke="#F5F5F5"/>
<path d="M215.787 140.093L299.94 110.614" stroke="#F5F5F5"/>
<path d="M216.779 142.924L300.932 113.445" stroke="#F5F5F5"/>
<path d="M217.771 145.755L301.924 116.277" stroke="#F5F5F5"/>
<path d="M218.762 148.586L302.916 119.108" stroke="#F5F5F5"/>
<path d="M219.754 151.418L303.907 121.939" stroke="#F5F5F5"/>
<path d="M220.746 154.249L304.899 124.77" stroke="#F5F5F5"/>
</g>
<path d="M242.168 77.22L244.508 77.22L244.508 80.496L245.504 80.496L245.504 74.136L244.508 74.136L244.508 76.416L242.168 76.416L242.168 77.22ZM242.42 79.992L242.948 79.224C241.364 78.672 240.332 77.328 240.332 75.804L240.332 74.736L239.348 74.736L239.348 75.84C239.348 77.472 238.292 78.936 236.624 79.512L237.14 80.316C238.436 79.824 239.396 78.876 239.864 77.58C240.332 78.696 241.22 79.548 242.42 79.992ZM241.952 80.82C239.744 80.82 238.364 81.552 238.364 82.848C238.364 84.132 239.744 84.876 241.952 84.876C244.16 84.876 245.528 84.132 245.528 82.848C245.528 81.552 244.16 80.82 241.952 80.82ZM241.952 84.096C240.308 84.096 239.348 83.628 239.348 82.848C239.348 82.032 240.308 81.588 241.952 81.588C243.596 81.588 244.556 82.032 244.556 82.848C244.556 83.628 243.596 84.096 241.952 84.096ZM255.283 81.996L256.267 81.996L256.267 74.136L255.283 74.136L255.283 81.996ZM253.303 77.52C253.303 75.972 252.079 74.88 250.483 74.88C248.887 74.88 247.687 75.972 247.687 77.52C247.687 79.08 248.887 80.184 250.483 80.184C252.079 80.184 253.303 79.08 253.303 77.52ZM248.647 77.52C248.647 76.476 249.427 75.732 250.483 75.732C251.551 75.732 252.343 76.476 252.343 77.52C252.343 78.588 251.551 79.332 250.483 79.332C249.427 79.332 248.647 78.588 248.647 77.52ZM256.591 84.648L256.591 83.844L250.327 83.844L250.327 81.192L249.343 81.192L249.343 84.648L256.591 84.648ZM244.988 93.412L246.584 93.412L246.584 92.596L244.988 92.596L244.988 90.124L244.004 90.124L244.004 96.208L244.988 96.208L244.988 93.412ZM243.032 94.912L242.912 94.108C241.172 94.444 239.684 94.552 238.136 94.564L238.136 90.664L237.164 90.664L237.164 95.392L238.004 95.392C239.636 95.392 241.196 95.284 243.032 94.912ZM244.988 96.796L238.208 96.796L238.208 100.732L244.988 100.732L244.988 96.796ZM244.028 99.94L239.168 99.94L239.168 97.588L244.028 97.588L244.028 99.94ZM256.303 100.9L256.303 90.124L255.319 90.124L255.319 92.632L252.103 92.632L252.103 93.436L255.319 93.436L255.319 95.08L252.103 95.08L252.103 95.884L255.319 95.884L255.319 100.9L256.303 100.9ZM249.007 97.576L249.007 91.312L248.023 91.312L248.023 98.404L248.839 98.404C250.699 98.404 252.067 98.332 253.627 98.008L253.519 97.192C252.043 97.48 250.723 97.576 249.007 97.576ZM242.732 110.78L244.508 110.78L244.508 112.76L245.504 112.76L245.504 106.136L244.508 106.136L244.508 108.044L242.732 108.044L242.732 108.848L244.508 108.848L244.508 109.976L242.732 109.976L242.732 110.78ZM243.02 111.764L242.96 111.032C242.516 111.092 242.036 111.14 241.556 111.176L241.556 107.732L242.624 107.732L242.624 106.94L236.96 106.94L236.96 107.732L238.028 107.732L238.028 111.296C237.788 111.308 237.56 111.308 237.332 111.308L236.672 111.308L236.78 112.124C238.52 112.124 240.944 112.088 243.02 111.764ZM238.976 111.284L238.976 107.732L240.596 107.732L240.596 111.224C240.056 111.26 239.504 111.272 238.976 111.284ZM241.952 112.988C239.684 112.988 238.364 113.672 238.364 114.92C238.364 116.168 239.684 116.876 241.952 116.876C244.172 116.876 245.528 116.168 245.528 114.92C245.528 113.672 244.172 112.988 241.952 112.988ZM241.952 116.108C240.308 116.108 239.348 115.688 239.348 114.92C239.348 114.188 240.308 113.744 241.952 113.744C243.596 113.744 244.556 114.188 244.556 114.92C244.556 115.688 243.596 116.108 241.952 116.108ZM257.203 111.548L257.203 110.744L255.691 110.744C255.943 109.4 255.943 108.392 255.943 107.516L255.943 106.7L248.659 106.7L248.659 107.504L254.971 107.504L254.971 107.516C254.971 108.392 254.983 109.388 254.707 110.744L247.435 110.744L247.435 111.548L250.675 111.548L250.675 114.14L251.635 114.14L251.635 111.548L253.531 111.548L253.531 114.14L254.491 114.14L254.491 111.548L257.203 111.548ZM256.231 115.844L249.595 115.844L249.595 113.276L248.623 113.276L248.623 116.648L256.231 116.648L256.231 115.844Z" fill="#C7C7CF"/>
<path fill-rule="evenodd" clip-rule="evenodd" d="M291 0C283.82 0 278 5.8203 278 13C278 20.1797 283.82 26 291 26H300.959L305 33L309.041 26H319C326.18 26 332 20.1797 332 13C332 5.8203 326.18 0 319 0H291Z" fill="black"/>
<path d="M290.644 10.008H297.244V10.392C297.244 12.024 297.172 13.44 296.872 15.06L297.844 15.18C298.228 13.164 298.228 11.76 298.228 10.392V9.204H290.644V10.008ZM299.368 17.376V16.572H295.66V13.008H294.688V16.572H292.996V13.008H292.024V16.572H289.636V17.376H299.368ZM305.295 12.492C307.623 12.492 309.075 11.736 309.075 10.44C309.075 9.144 307.623 8.376 305.295 8.376C302.979 8.376 301.515 9.144 301.515 10.44C301.515 11.736 302.979 12.492 305.295 12.492ZM305.295 9.156C307.035 9.156 308.067 9.624 308.067 10.44C308.067 11.256 307.035 11.724 305.295 11.724C303.555 11.724 302.523 11.256 302.523 10.44C302.523 9.624 303.555 9.156 305.295 9.156ZM307.599 15.468V14.1H310.167V13.308H300.435V14.1H303.003V15.468H301.515V16.26H307.983V18.9H308.967V15.468H307.599ZM303.987 14.1H306.615V15.468H303.987V14.1ZM317.066 14.424H318.002V11.82H319.37V14.772H320.318V8.136H319.37V11.016H318.002V8.34H317.066V14.424ZM316.094 13.932L316.622 13.176C315.242 12.66 314.438 11.424 314.438 10.248V8.796H313.49V10.248C313.49 11.436 312.638 12.864 311.246 13.464L311.774 14.232C312.83 13.764 313.586 12.852 313.97 11.844C314.354 12.756 315.086 13.512 316.094 13.932ZM316.766 15.012C314.558 15.012 313.178 15.732 313.178 16.944C313.178 18.156 314.558 18.876 316.766 18.876C318.974 18.876 320.366 18.156 320.366 16.944C320.366 15.732 318.974 15.012 316.766 15.012ZM316.766 18.12C315.122 18.12 314.15 17.712 314.15 16.944C314.15 16.176 315.122 15.78 316.766 15.78C318.41 15.78 319.394 16.176 319.394 16.944C319.394 17.712 318.41 18.12 316.766 18.12Z" fill="white"/>
<circle cx="305" cy="35" r="3" fill="black"/>
<circle cx="305" cy="35" r="5" fill="black" fill-opacity="0.1"/>
<circle cx="305" cy="35" r="2" fill="white"/>
</svg>
