<svg width="81" height="38" viewBox="0 0 81 38" fill="none" xmlns="http://www.w3.org/2000/svg">
<g clip-path="url(#clip0_1_3695)">
<path d="M20.0245 35.7308C29.7604 35.7308 37.6528 27.7321 37.6528 17.8654C37.6528 7.9986 29.7604 0 20.0245 0C10.2887 0 2.39627 7.9986 2.39627 17.8654C2.39627 27.7321 10.2887 35.7308 20.0245 35.7308Z" fill="#55D5D8"/>
<path d="M38.4461 27.1875L36.085 24.7947C35.5903 24.2933 34.7881 24.2933 34.2934 24.7947L34.2864 24.8018C33.7917 25.3032 33.7917 26.1161 34.2864 26.6175L36.6475 29.0103C37.1423 29.5117 37.9444 29.5118 38.4391 29.0104L38.4461 29.0033C38.9408 28.5019 38.9409 27.6889 38.4461 27.1875Z" fill="#55D5D8"/>
<path d="M0.312315 14.7894L2.55609 17.2955C3.02626 17.8206 3.82749 17.86 4.34565 17.3835L4.35293 17.3769C4.8711 16.9004 4.90998 16.0884 4.43981 15.5633L2.19603 13.0572C1.72587 12.5321 0.924676 12.4926 0.406515 12.9691L0.399235 12.9758C-0.118926 13.4523 -0.157853 14.2643 0.312315 14.7894Z" fill="#55D5D8"/>
<path d="M12.9045 33.3421V36.7261C12.9045 37.4352 13.4717 38.01 14.1714 38.01H14.1812C14.8809 38.01 15.448 37.4352 15.448 36.7261V33.3421C15.448 32.633 14.8809 32.0582 14.1812 32.0582H14.1714C13.4717 32.0582 12.9045 32.633 12.9045 33.3421Z" fill="#55D5D8"/>
<path d="M23.8547 33.3321V36.7161C23.8547 37.4252 24.4218 38 25.1215 38H25.1313C25.831 38 26.3982 37.4252 26.3982 36.7161V33.3321C26.3982 32.623 25.831 32.0482 25.1313 32.0482H25.1215C24.4218 32.0482 23.8547 32.623 23.8547 33.3321Z" fill="#55D5D8"/>
<path d="M17.0685 17.5867C17.7085 17.5867 18.2273 17.0609 18.2273 16.4122C18.2273 15.7636 17.7085 15.2378 17.0685 15.2378C16.4285 15.2378 15.9096 15.7636 15.9096 16.4122C15.9096 17.0609 16.4285 17.5867 17.0685 17.5867Z" fill="#333333"/>
<path d="M21.9494 18.4824C21.9494 17.3677 21.0656 18.0047 19.9853 18.0047C18.905 18.0047 18.0211 17.3677 18.0211 18.4824C18.0211 19.0103 18.2281 19.5167 18.5964 19.89C18.9648 20.2633 19.4643 20.473 19.9853 20.473C20.5062 20.473 21.0058 20.2633 21.3741 19.89C21.7425 19.5167 21.9494 19.0103 21.9494 18.4824Z" fill="#333333"/>
<path d="M24.4341 16.9398C24.3075 16.8049 24.1551 16.6975 23.9863 16.6241C23.8175 16.5507 23.6357 16.5128 23.452 16.5128C23.2683 16.5128 23.0865 16.5507 22.9177 16.6241C22.7489 16.6975 22.5965 16.8049 22.4699 16.9398" fill="#333333"/>
<path d="M24.4341 16.9398C24.3075 16.8049 24.1551 16.6975 23.9863 16.6241C23.8175 16.5507 23.6357 16.5128 23.452 16.5128C23.2683 16.5128 23.0865 16.5507 22.9177 16.6241C22.7489 16.6975 22.5965 16.8049 22.4699 16.9398" stroke="#333333" stroke-linecap="round" stroke-linejoin="round"/>
</g>
<g clip-path="url(#clip1_1_3695)">
<path d="M60.2396 35.7308C70.358 35.7308 78.5606 27.7321 78.5606 17.8654C78.5606 7.9986 70.358 0 60.2396 0C50.1212 0 41.9186 7.9986 41.9186 17.8654C41.9186 27.7321 50.1212 35.7308 60.2396 35.7308Z" fill="#FABF48"/>
<path d="M78.6806 13.1278L76.3487 15.6339C75.86 16.159 75.9005 16.971 76.439 17.4475L76.4466 17.4542C76.9851 17.9307 77.8178 17.8913 78.3064 17.3661L80.6384 14.8601C81.127 14.3349 81.0866 13.523 80.5481 13.0465L80.5405 13.0398C80.002 12.5633 79.1693 12.6027 78.6806 13.1278Z" fill="#FABF48"/>
<path d="M43.6455 24.8378L41.3135 27.3438C40.8249 27.869 40.8653 28.6809 41.4038 29.1574L41.4114 29.1641C41.9499 29.6406 42.7826 29.6012 43.2713 29.0761L45.6032 26.57C46.0919 26.0449 46.0514 25.2329 45.5129 24.7564L45.5053 24.7497C44.9668 24.2732 44.1341 24.3126 43.6455 24.8378Z" fill="#FABF48"/>
<path d="M52.8398 33.3321V36.7161C52.8398 37.4252 53.4292 38 54.1564 38H54.1666C54.8938 38 55.4833 37.4252 55.4833 36.7161V33.3321C55.4833 32.623 54.8938 32.0482 54.1666 32.0482H54.1564C53.4292 32.0482 52.8398 32.623 52.8398 33.3321Z" fill="#FABF48"/>
<path d="M64.2202 33.3321V36.7161C64.2202 37.4252 64.8097 38 65.5369 38H65.5471C66.2742 38 66.8637 37.4252 66.8637 36.7161V33.3321C66.8637 32.623 66.2742 32.0482 65.5471 32.0482H65.5369C64.8097 32.0482 64.2202 32.623 64.2202 33.3321Z" fill="#FABF48"/>
<path d="M63.3016 17.7858C63.9668 17.7858 64.506 17.26 64.506 16.6113C64.506 15.9627 63.9668 15.4369 63.3016 15.4369C62.6364 15.4369 62.0972 15.9627 62.0972 16.6113C62.0972 17.26 62.6364 17.7858 63.3016 17.7858Z" fill="#333333"/>
<path d="M57.1674 17.5867C57.8326 17.5867 58.3718 17.0609 58.3718 16.4122C58.3718 15.7636 57.8326 15.2378 57.1674 15.2378C56.5022 15.2378 55.963 15.7636 55.963 16.4122C55.963 17.0609 56.5022 17.5867 57.1674 17.5867Z" fill="#333333"/>
<path d="M62.2503 18.4824C62.2503 17.3677 61.3215 18.0047 60.209 18.0047C59.0965 18.0047 58.1676 17.3677 58.1676 18.4824C58.1676 19.0103 58.3827 19.5167 58.7655 19.89C59.1484 20.2633 59.6676 20.473 60.209 20.473C60.7504 20.473 61.2696 20.2633 61.6524 19.89C62.0353 19.5167 62.2503 19.0103 62.2503 18.4824Z" fill="#333333"/>
</g>
<defs>
<clipPath id="clip0_1_3695">
<rect width="40" height="38" fill="white"/>
</clipPath>
<clipPath id="clip1_1_3695">
<rect width="40" height="38" fill="white" transform="translate(41)"/>
</clipPath>
</defs>
</svg>
