<svg width="212" height="80" viewBox="0 0 212 80" fill="none" xmlns="http://www.w3.org/2000/svg">
<mask id="path-1-inside-1_31_2473" fill="white">
<path d="M185.5 0H212V80H185.5V0Z"/>
</mask>
<path d="M185.5 0H212V80H185.5V0Z" fill="white"/>
<path d="M212 0H213V-1H212V0ZM212 80V81H213V80H212ZM185.5 1H212V-1H185.5V1ZM211 0V80H213V0H211ZM212 79H185.5V81H212V79Z" fill="#333333" mask="url(#path-1-inside-1_31_2473)"/>
<mask id="path-3-inside-2_31_2473" fill="white">
<path d="M159 0H185.5V80H159V0Z"/>
</mask>
<path d="M159 0H185.5V80H159V0Z" fill="#6967F9"/>
<path d="M185.5 0H186.5V-1H185.5V0ZM185.5 80V81H186.5V80H185.5ZM159 1H185.5V-1H159V1ZM184.5 0V80H186.5V0H184.5ZM185.5 79H159V81H185.5V79Z" fill="#333333" mask="url(#path-3-inside-2_31_2473)"/>
<mask id="path-5-inside-3_31_2473" fill="white">
<path d="M132.5 0H159V80H132.5V0Z"/>
</mask>
<path d="M132.5 0H159V80H132.5V0Z" fill="white"/>
<path d="M159 0H160V-1H159V0ZM159 80V81H160V80H159ZM132.5 1H159V-1H132.5V1ZM158 0V80H160V0H158ZM159 79H132.5V81H159V79Z" fill="#333333" mask="url(#path-5-inside-3_31_2473)"/>
<mask id="path-7-inside-4_31_2473" fill="white">
<path d="M79.5 0H106V80H79.5V0Z"/>
</mask>
<path d="M79.5 0H106V80H79.5V0Z" fill="white"/>
<path d="M106 0H107V-1H106V0ZM106 80V81H107V80H106ZM79.5 1H106V-1H79.5V1ZM105 0V80H107V0H105ZM106 79H79.5V81H106V79Z" fill="#333333" mask="url(#path-7-inside-4_31_2473)"/>
<mask id="path-9-inside-5_31_2473" fill="white">
<path d="M53 0H79.5V80H53V0Z"/>
</mask>
<path d="M53 0H79.5V80H53V0Z" fill="white"/>
<path d="M79.5 0H80.5V-1H79.5V0ZM79.5 80V81H80.5V80H79.5ZM53 1H79.5V-1H53V1ZM78.5 0V80H80.5V0H78.5ZM79.5 79H53V81H79.5V79Z" fill="#333333" mask="url(#path-9-inside-5_31_2473)"/>
<mask id="path-11-inside-6_31_2473" fill="white">
<path d="M26.5 0H53V80H26.5V0Z"/>
</mask>
<path d="M26.5 0H53V80H26.5V0Z" fill="white"/>
<path d="M53 0H54V-1H53V0ZM53 80V81H54V80H53ZM26.5 1H53V-1H26.5V1ZM52 0V80H54V0H52ZM53 79H26.5V81H53V79Z" fill="#333333" mask="url(#path-11-inside-6_31_2473)"/>
<mask id="path-13-inside-7_31_2473" fill="white">
<path d="M106 0H132.5V80H106V0Z"/>
</mask>
<path d="M106 0H132.5V80H106V0Z" fill="white"/>
<path d="M132.5 0H133.5V-1H132.5V0ZM132.5 80V81H133.5V80H132.5ZM106 1H132.5V-1H106V1ZM131.5 0V80H133.5V0H131.5ZM132.5 79H106V81H132.5V79Z" fill="#333333" mask="url(#path-13-inside-7_31_2473)"/>
<rect x="0.5" y="0.5" width="211" height="79" stroke="#333333"/>
<rect x="0.5" y="0.5" width="25.5" height="79" fill="white" stroke="#333333"/>
<rect x="19.875" width="13.25" height="40" fill="#333333"/>
<rect x="46.375" width="13.25" height="40" fill="#333333"/>
<rect x="99.375" width="13.25" height="40" fill="#333333"/>
<rect x="125.875" width="13.25" height="40" fill="#333333"/>
<rect x="152.375" width="13.25" height="40" fill="#333333"/>
<rect x="205.375" width="6.625" height="40" fill="#333333"/>
<mask id="path-23-inside-8_31_2473" fill="white">
<path d="M132.5 0H159V80H132.5V0Z"/>
</mask>
<path d="M159 0H160V-1H159V0ZM159 80V81H160V80H159ZM132.5 1H159V-1H132.5V1ZM158 0V80H160V0H158ZM159 79H132.5V81H159V79Z" fill="#333333" mask="url(#path-23-inside-8_31_2473)"/>
</svg>
