<svg width="156" height="156" viewBox="0 0 156 156" fill="none" xmlns="http://www.w3.org/2000/svg">
<g clip-path="url(#clip0_6_1922)">
<path d="M23.5742 0V156.018" stroke="#DDDDDD"/>
<path d="M155.998 23.2461H-0.0195312" stroke="#DDDDDD"/>
<path d="M59.8594 0V156.018" stroke="#DDDDDD"/>
<path d="M155.998 59.5176H-0.0195312" stroke="#DDDDDD"/>
<path d="M96.1406 0V156.018" stroke="#DDDDDD"/>
<path d="M155.998 95.7988H-0.0195312" stroke="#DDDDDD"/>
<path d="M132.426 0V156.018" stroke="#DDDDDD"/>
<path d="M155.998 132.043H-0.0195312" stroke="#DDDDDD"/>
</g>
<path d="M81.4677 91.6675C88.6911 91.4188 95.6982 89.1519 101.687 85.1261C102.58 84.494 103.334 83.688 103.904 82.7572C104.474 81.8264 104.848 80.7901 105.003 79.7111C110.954 38.1977 92.8947 27.8624 84.9802 25.3562C83.267 24.827 81.4821 24.5634 79.6884 24.5746H78.8562C76.8923 24.5687 74.9408 24.8834 73.0792 25.5058C64.9914 28.2765 47.6604 39.0025 53.5299 79.7111C53.6852 80.7901 54.0594 81.8264 54.6294 82.7572C55.1994 83.688 55.9535 84.494 56.846 85.1261C62.8351 89.1519 69.8422 91.4188 77.0656 91.6675H81.4677Z" fill="white"/>
<path d="M81.4661 92.2431H77.0409C69.6969 91.9993 62.5717 89.6958 56.4862 85.5982C55.5315 84.919 54.7252 84.0545 54.1156 83.0567C53.5059 82.0589 53.1058 80.9484 52.9393 79.7925C47.012 38.4055 64.9093 27.6795 72.87 24.9663C74.7943 24.3201 76.8124 23.9938 78.8433 24.0005H79.6749C81.5275 23.9861 83.371 24.2575 85.14 24.8052C93.2278 27.3919 111.565 37.9227 105.556 79.7925C105.39 80.9484 104.99 82.0589 104.38 83.0567C103.771 84.0545 102.964 84.919 102.009 85.5982C95.9339 89.6908 88.8215 91.9941 81.4893 92.2431H81.4661ZM78.8546 25.1502C76.9527 25.1403 75.0627 25.4473 73.2627 26.0584C50.1546 33.922 52.1536 66.1349 54.0947 79.6316C54.2381 80.6325 54.5847 81.5938 55.113 82.4574C55.6413 83.3211 56.34 84.0689 57.1677 84.6554C63.0622 88.6319 69.9692 90.8643 77.0871 91.0935H81.4543C88.5643 90.86 95.4627 88.6278 101.351 84.6554C102.178 84.0689 102.878 83.3211 103.406 82.4574C103.934 81.5938 104.281 80.6325 104.424 79.6316C110.305 38.6356 92.6621 28.4038 84.7823 25.9091C83.1261 25.3934 81.399 25.1372 79.6636 25.1502H78.8546Z" fill="#333333"/>
<path d="M136.06 131.755C136.061 127.061 134.617 122.48 131.924 118.626C129.953 115.81 127.373 113.469 124.374 111.774C121.375 110.079 118.033 109.074 114.593 108.831L106.736 108.268C104.122 108.087 101.591 107.274 99.3645 105.9C97.0095 104.457 95.0661 102.438 93.7189 100.034C92.3717 97.6313 91.6662 94.9248 91.6699 92.1731V79.1016H64.9218V92.1731C64.9242 94.9259 64.2175 97.6332 62.8683 100.036C61.519 102.44 59.5724 104.458 57.2153 105.9C54.9884 107.274 52.4582 108.087 49.844 108.268L41.9988 108.831C38.5584 109.074 35.2162 110.079 32.2173 111.774C29.2184 113.469 26.6388 115.81 24.6677 118.626C21.9704 122.478 20.5265 127.061 20.5313 131.755V147.344H136.014L136.06 131.755Z" fill="white"/>
<path d="M136.638 147.919H20.0001V131.755C19.9881 126.946 21.4648 122.25 24.229 118.304C26.2413 115.413 28.8811 113.009 31.953 111.27C35.0248 109.531 38.4501 108.501 41.9759 108.257L49.833 107.705C52.352 107.514 54.7884 106.725 56.9386 105.406C59.2145 104.017 61.093 102.07 62.394 99.7505C63.6951 97.4312 64.3746 94.8178 64.3675 92.1617V78.5156H92.2709V92.1617C92.2616 94.8183 92.9403 97.4325 94.2416 99.7522C95.5428 102.072 97.4224 104.019 99.6998 105.406C101.85 106.725 104.286 107.514 106.805 107.705L114.651 108.257C118.177 108.499 121.604 109.527 124.676 111.267C127.748 113.006 130.388 115.412 132.398 118.304C135.166 122.249 136.646 126.945 136.638 131.755V147.919ZM21.1555 146.769H135.483V131.755C135.488 127.18 134.08 122.713 131.45 118.96C129.537 116.21 127.026 113.923 124.104 112.27C121.182 110.616 117.924 109.637 114.57 109.406L106.725 108.843C104.017 108.655 101.396 107.814 99.0877 106.394C96.6438 104.904 94.6263 102.813 93.23 100.322C91.8337 97.8315 91.1058 95.0251 91.1155 92.1732V79.6765H65.4885V92.1732C65.4982 95.0251 64.7697 97.8315 63.3734 100.322C61.9771 102.813 59.9602 104.904 57.5163 106.394C55.2069 107.813 52.5865 108.653 49.8792 108.843L42.034 109.406C38.6802 109.636 35.4212 110.615 32.4991 112.269C29.5769 113.922 27.0662 116.209 25.1531 118.96C22.5176 122.71 21.1097 127.179 21.1211 131.755L21.1555 146.769Z" fill="#333333"/>
<path d="M42.0335 131.758C40.644 137.204 39.869 142.787 39.7227 148.405L42.0335 131.758Z" fill="white"/>
<path d="M42.1483 130.641C41.5227 133.366 41.0636 136.127 40.7734 138.907C40.4884 141.689 40.3267 144.479 40.2882 147.276C40.2882 147.351 40.2734 147.426 40.2442 147.495C40.215 147.564 40.1722 147.627 40.1184 147.679C40.0646 147.731 40.0006 147.773 39.9305 147.8C39.8605 147.828 39.7858 147.841 39.7105 147.84C39.5573 147.84 39.4104 147.779 39.3021 147.671C39.1937 147.564 39.1328 147.417 39.1328 147.265C39.31 144.452 39.622 141.647 40.0688 138.85C40.5084 136.068 41.1182 133.315 41.8944 130.607C41.905 130.574 41.9277 130.547 41.9576 130.53C41.9875 130.513 42.0227 130.508 42.0563 130.515C42.0819 130.526 42.1037 130.543 42.12 130.565C42.1364 130.588 42.1461 130.614 42.1483 130.641Z" fill="#333333"/>
<path d="M115.172 131.758C116.564 137.204 117.339 142.787 117.483 148.405L115.172 131.758Z" fill="white"/>
<path d="M115.391 130.537C116.162 133.256 116.756 136.02 117.17 138.815C117.609 141.597 117.898 144.413 118.06 147.23C118.066 147.306 118.057 147.382 118.033 147.454C118.008 147.526 117.97 147.593 117.919 147.65C117.869 147.707 117.807 147.753 117.738 147.785C117.668 147.818 117.593 147.836 117.516 147.839C117.441 147.844 117.366 147.833 117.295 147.809C117.224 147.784 117.158 147.745 117.102 147.695C117.046 147.644 117.001 147.583 116.969 147.515C116.937 147.447 116.919 147.374 116.916 147.299C116.869 144.509 116.689 141.723 116.373 138.941C116.074 136.162 115.599 133.406 114.952 130.687C114.945 130.659 114.943 130.63 114.948 130.601C114.952 130.573 114.962 130.546 114.977 130.521C114.992 130.496 115.012 130.475 115.035 130.458C115.059 130.441 115.086 130.429 115.114 130.422C115.166 130.403 115.224 130.404 115.275 130.425C115.327 130.446 115.368 130.487 115.391 130.537Z" fill="#333333"/>
<path d="M70.1797 93.543C70.1797 93.543 74.3391 111.362 77.3778 114.386L70.1797 93.543Z" fill="white"/>
<path d="M70.5851 93.4494C71.3939 97.0362 72.3066 100.623 73.3349 104.164C73.8548 105.923 74.3975 107.693 75.033 109.418C75.5858 111.157 76.4127 112.799 77.4826 114.281C77.4973 114.294 77.5095 114.309 77.5176 114.327C77.5257 114.345 77.5294 114.365 77.5294 114.384C77.5294 114.404 77.5257 114.423 77.5176 114.441C77.5095 114.459 77.4973 114.475 77.4826 114.487C77.4546 114.514 77.4175 114.529 77.3788 114.529C77.34 114.529 77.303 114.514 77.275 114.487C76.1403 112.992 75.2508 111.328 74.6403 109.556C73.9471 107.831 73.3696 106.107 72.8034 104.313C71.648 100.784 70.6889 97.2201 69.7761 93.6217C69.7516 93.5136 69.7703 93.4001 69.8286 93.3057C69.8869 93.2112 69.9801 93.1432 70.0881 93.1159C70.1968 93.0915 70.3108 93.1101 70.4057 93.1681C70.5007 93.2261 70.569 93.3189 70.5964 93.4263L70.5851 93.4494Z" fill="#333333"/>
<path d="M91.2081 83.5859C91.2081 83.5859 84.9458 102.681 81.9648 105.705L91.2081 83.5859Z" fill="white"/>
<path d="M91.7628 83.7598C90.4225 87.5651 89.0243 91.3245 87.5107 95.0493C86.7481 96.9117 85.9742 98.7742 85.1192 100.591C84.3305 102.465 83.297 104.227 82.0457 105.833C82.0113 105.865 81.966 105.883 81.9187 105.883C81.8714 105.883 81.8256 105.865 81.7912 105.833C81.762 105.799 81.7461 105.756 81.7461 105.712C81.7461 105.668 81.762 105.625 81.7912 105.591C82.9511 103.979 83.8985 102.224 84.6103 100.372C85.396 98.5441 86.1128 96.6703 86.8061 94.7964C88.181 91.0371 89.4633 87.2316 90.6649 83.4148C90.7102 83.2706 90.8107 83.1501 90.9448 83.0791C91.0788 83.0081 91.2359 82.9925 91.3814 83.0356C91.5272 83.0832 91.6487 83.1855 91.7199 83.3208C91.7911 83.4561 91.8065 83.6134 91.7628 83.7598Z" fill="#333333"/>
<path d="M57.4014 108.27L73.8428 113.547C73.8953 113.566 73.9389 113.603 73.9646 113.652C73.9904 113.701 73.9964 113.758 73.9816 113.812C73.975 113.838 73.9632 113.863 73.9466 113.884C73.9299 113.906 73.909 113.923 73.8851 113.936C73.8612 113.949 73.8344 113.957 73.8072 113.959C73.7801 113.962 73.7529 113.958 73.7271 113.95L57.0663 109.351C56.9204 109.306 56.7973 109.207 56.7221 109.074C56.647 108.942 56.6254 108.786 56.6618 108.638C56.7073 108.493 56.8068 108.371 56.9399 108.296C57.073 108.221 57.2298 108.2 57.3783 108.236L57.4014 108.27Z" fill="#333333"/>
<path d="M98.6385 109.373L81.9776 113.972C81.9542 113.98 81.9293 113.984 81.9043 113.982C81.8793 113.98 81.8546 113.973 81.8326 113.961C81.8107 113.949 81.7917 113.933 81.7768 113.913C81.7619 113.892 81.7514 113.87 81.7463 113.845C81.7392 113.823 81.737 113.8 81.739 113.777C81.741 113.754 81.7474 113.732 81.7582 113.712C81.7689 113.691 81.7837 113.673 81.8016 113.659C81.8195 113.644 81.8398 113.633 81.862 113.627L98.3033 108.315C98.4489 108.268 98.6075 108.28 98.744 108.349C98.8804 108.418 98.9835 108.539 99.0311 108.683C99.0785 108.828 99.0666 108.986 98.9973 109.121C98.9279 109.257 98.8071 109.36 98.6616 109.407L98.6385 109.373Z" fill="#333333"/>
<path d="M93.8179 84.3352C101.906 36.9012 77.2378 37.0508 77.2378 37.0508C77.2378 37.0508 75.1579 45.0983 67.5206 47.4666C65.8353 47.9546 64.2967 48.8473 63.0395 50.0662C61.7823 51.285 60.8453 52.7924 60.3112 54.4562C59.1558 58.1695 58.5668 62.6647 60.8545 65.5158C59.6444 64.3967 58.7148 63.0108 58.1409 61.4693C57.567 59.9279 57.3644 58.2741 57.5496 56.6406C57.5496 56.6406 53.0321 54.3411 53.864 62.722C54.6959 71.1028 58.3005 70.4708 58.3005 70.4708C58.3005 70.4708 62.2408 89.7961 78.3125 90.4629C85.9035 90.1525 90.7792 85.6804 93.8179 81.0474" fill="white"/>
<path d="M93.7257 84.3218C94.4809 79.7139 94.9554 75.0649 95.1468 70.3999C95.37 65.7513 95.0637 61.0923 94.234 56.5122C93.4729 51.9506 91.6225 47.6375 88.8383 43.9353C87.415 42.1486 85.6572 40.6533 83.6621 39.5321C81.7008 38.4133 79.5065 37.7603 77.2499 37.6238L77.8157 37.1868C76.8726 40.2291 75.1103 42.9566 72.7202 45.0734C71.5125 46.1026 70.1376 46.9189 68.6537 47.4874L67.4983 47.8784C67.1402 47.9819 66.7933 48.1084 66.4467 48.2464C65.7628 48.5348 65.1089 48.889 64.4942 49.304C63.2524 50.1366 62.2107 51.2319 61.4437 52.5115C60.716 53.8336 60.2016 55.2611 59.9188 56.7421C59.5617 58.2127 59.4099 59.7255 59.468 61.2373C59.5181 62.7463 60.0164 64.2064 60.9004 65.4334C60.9201 65.4579 60.9309 65.4882 60.9309 65.5196C60.9309 65.5509 60.9201 65.5813 60.9004 65.6057C60.8781 65.6201 60.8521 65.6279 60.8254 65.6279C60.7988 65.6279 60.7728 65.6201 60.7504 65.6057C60.0967 65.084 59.521 64.4726 59.0404 63.7895C58.5691 63.1058 58.1812 62.3685 57.885 61.5935C57.5615 60.81 57.3289 59.9924 57.1916 59.1564C57.055 58.3166 56.9936 57.4664 57.0072 56.6158L57.3191 57.1676C57.0564 57.0319 56.7665 56.9564 56.4706 56.9464C56.1748 56.9365 55.8805 56.9923 55.6092 57.11C55.3511 57.284 55.1309 57.508 54.9621 57.7688C54.7933 58.0296 54.6793 58.3219 54.627 58.6276C54.3427 60.0829 54.3072 61.5752 54.5226 63.0421C54.6471 64.5407 54.9938 66.0129 55.5511 67.4107C55.8196 68.0686 56.2118 68.6695 56.7065 69.1812C56.9266 69.4158 57.1892 69.6069 57.4805 69.7445C57.7249 69.8634 57.9944 69.9224 58.2664 69.9169C58.4076 69.9023 58.549 69.94 58.6641 70.0227C58.7792 70.1054 58.8599 70.2274 58.8903 70.3654C59.4702 72.7816 60.3188 75.1261 61.4206 77.3553C62.4953 79.5949 63.8589 81.6855 65.4764 83.5747C67.0974 85.4278 69.0579 86.9571 71.2534 88.0812L72.9402 88.8286C73.5179 89.0356 74.0954 89.1734 74.7078 89.3344L75.5974 89.5758L76.5103 89.6908L78.3472 89.8977C81.4134 89.7893 84.3958 88.8728 86.9896 87.242C89.5634 85.5509 91.7491 83.3375 93.4024 80.7466C93.4853 80.6187 93.6157 80.5286 93.7652 80.4963C93.9146 80.464 94.0708 80.4919 94.1996 80.574C94.327 80.6604 94.4153 80.7932 94.4455 80.9437C94.4758 81.0941 94.4457 81.2505 94.3615 81.379C92.6244 84.1056 90.3239 86.4333 87.6135 88.2078C84.8404 89.9539 81.6501 90.9339 78.3703 91.0473L76.4177 90.829L75.4474 90.7139L74.4996 90.4495C73.8641 90.2771 73.229 90.1276 72.6051 89.9092L70.8026 89.116C68.4741 87.9189 66.3928 86.2964 64.6674 84.3334C62.9776 82.3705 61.5556 80.1943 60.4384 77.861C59.2948 75.5439 58.415 73.1068 57.8156 70.5953L58.4977 71.0438C58.0127 71.0798 57.5257 71.004 57.0749 70.8226C56.624 70.6412 56.2215 70.3588 55.898 69.9974C55.3079 69.3798 54.8446 68.6536 54.5344 67.8593C53.92 66.3647 53.5306 64.7879 53.379 63.1802C53.1449 61.5675 53.1877 59.927 53.506 58.3287C53.5993 57.8722 53.7849 57.4392 54.051 57.0559C54.3171 56.6726 54.6585 56.3469 55.0546 56.0985C55.4937 55.864 55.9897 55.7564 56.487 55.7881C56.9606 55.8167 57.424 55.9376 57.8506 56.1442C57.9514 56.1892 58.0356 56.2645 58.0915 56.3592C58.1474 56.454 58.1722 56.5638 58.1626 56.6733C58.0904 57.4381 58.0904 58.2078 58.1626 58.9726C58.214 59.753 58.3571 60.5248 58.5896 61.2719C59.0361 62.8096 59.8673 64.2096 61.0048 65.3413L60.8316 65.514C59.8798 64.263 59.3242 62.7579 59.2367 61.1913C59.1305 59.6504 59.2433 58.1023 59.5718 56.5928C59.8312 55.0537 60.3305 53.5642 61.0511 52.1781C61.8353 50.8119 62.9122 49.6344 64.2053 48.7291C64.8504 48.2783 65.5391 47.8931 66.2617 47.5795C66.6314 47.4186 67.0011 47.2808 67.4171 47.1543L68.4687 46.7633C69.8433 46.1909 71.1124 45.3943 72.2237 44.4065C74.4157 42.3732 76.0129 39.7868 76.8454 36.9224C76.8789 36.8061 76.9506 36.7044 77.049 36.6335C77.1475 36.5627 77.2667 36.527 77.3881 36.5317C79.8129 36.7559 82.1633 37.4858 84.2855 38.6743C86.4077 39.8628 88.2542 41.4832 89.7049 43.4295C92.5099 47.2828 94.3443 51.7495 95.0543 56.4547C95.8153 61.0928 96.048 65.8016 95.7476 70.4917C95.4729 75.1657 94.9137 79.8189 94.0726 84.4254C94.0671 84.4508 94.0517 84.4731 94.0303 84.488C94.0089 84.5029 93.9829 84.5095 93.957 84.506C93.9325 84.5365 93.8967 84.5558 93.8577 84.5601C93.8187 84.5645 93.7794 84.5534 93.7488 84.529C93.7182 84.5046 93.6984 84.469 93.6941 84.4302C93.6897 84.3914 93.7011 84.3523 93.7257 84.3218Z" fill="#333333"/>
<path d="M41 90.5V115" stroke="#62FFD0" stroke-linecap="round"/>
<path d="M43.0004 92.0004L41 90L38.9996 92.0004" stroke="#62FFD0" stroke-linecap="round" stroke-linejoin="round"/>
<path d="M38.9996 113L41 115L43.0004 113" stroke="#62FFD0" stroke-linecap="round" stroke-linejoin="round"/>
<path d="M115 90.5V115" stroke="#62FFD0" stroke-linecap="round"/>
<path d="M117 92.0004L115 90L113 92.0004" stroke="#62FFD0" stroke-linecap="round" stroke-linejoin="round"/>
<path d="M113 113L115 115L117 113" stroke="#62FFD0" stroke-linecap="round" stroke-linejoin="round"/>
<path d="M12.4004 133.503L10 135L11.497 137.4" stroke="#1EACFC" stroke-linecap="round" stroke-linejoin="round"/>
<path d="M142.269 133.992L144.797 135.262L143.527 137.79" stroke="#1EACFC" stroke-linecap="round" stroke-linejoin="round"/>
<path d="M145 135.361C128.04 138.837 104.455 140.992 78.3766 140.992C51.3868 140.992 27.0678 138.684 10 134.992" stroke="#1EACFC"/>
<defs>
<clipPath id="clip0_6_1922">
<rect width="156" height="156" fill="white"/>
</clipPath>
</defs>
</svg>
