<svg width="156" height="156" viewBox="0 0 156 156" fill="none" xmlns="http://www.w3.org/2000/svg">
<g clip-path="url(#clip0_6_2327)">
<path d="M23.5742 0V156.018" stroke="#DDDDDD"/>
<path d="M155.998 23.2461H-0.0195312" stroke="#DDDDDD"/>
<path d="M59.8594 0V156.018" stroke="#DDDDDD"/>
<path d="M155.998 59.5176H-0.0195312" stroke="#DDDDDD"/>
<path d="M96.1406 0V156.018" stroke="#DDDDDD"/>
<path d="M155.998 95.7988H-0.0195312" stroke="#DDDDDD"/>
<path d="M132.426 0V156.018" stroke="#DDDDDD"/>
<path d="M155.998 132.043H-0.0195312" stroke="#DDDDDD"/>
</g>
<path d="M136.06 131.593C136.061 126.899 134.617 122.318 131.924 118.464C129.953 115.648 127.373 113.307 124.374 111.612C121.375 109.917 118.033 108.911 114.593 108.669L106.736 108.106C104.122 107.925 101.591 107.112 99.3645 105.738C97.0095 104.295 95.0661 102.275 93.7189 99.8723C92.3717 97.4692 91.6662 94.7627 91.6699 92.011V78.9395H64.9224V92.011C64.9248 94.7637 64.2175 97.4711 62.8682 99.8743C61.519 102.278 59.5724 104.296 57.2153 105.738C54.9892 107.114 52.4585 107.927 49.844 108.106L41.9988 108.669C38.5584 108.911 35.2162 109.917 32.2173 111.612C29.2184 113.307 26.6388 115.648 24.6677 118.464C21.9744 122.318 20.5309 126.899 20.5313 131.593V147.182H136.014L136.06 131.593Z" fill="white"/>
<path d="M136.638 147.76H20V131.596C19.9936 126.794 21.4699 122.107 24.229 118.168C26.2395 115.275 28.879 112.87 31.9512 111.13C35.0235 109.391 38.4494 108.362 41.9758 108.12L49.8211 107.568C52.3401 107.377 54.7765 106.589 56.9267 105.269C59.2041 103.883 61.0843 101.935 62.3855 99.6158C63.6868 97.296 64.3655 94.6818 64.3561 92.0252V78.3789H92.259V92.0252C92.2497 94.6818 92.9284 97.296 94.2297 99.6158C95.5309 101.935 97.4111 103.883 99.6885 105.269C101.839 106.589 104.275 107.377 106.794 107.568L114.639 108.12C118.166 108.362 121.592 109.391 124.665 111.13C127.737 112.87 130.376 115.275 132.386 118.168C135.154 122.112 136.634 126.808 136.626 131.619L136.638 147.76ZM21.1554 146.61H135.483V131.596C135.488 127.02 134.08 122.554 131.45 118.8C129.537 116.05 127.027 113.763 124.105 112.109C121.183 110.455 117.924 109.477 114.57 109.247L106.725 108.683C104.017 108.495 101.396 107.655 99.0877 106.235C96.6437 104.745 94.6263 102.653 93.23 100.163C91.8337 97.6721 91.1057 94.8657 91.1155 92.0137V79.517H65.5234V92.0137C65.5332 94.8657 64.8046 97.6721 63.4084 100.163C62.0121 102.653 59.9946 104.745 57.5507 106.235C55.2413 107.653 52.6208 108.493 49.9136 108.683L42.0684 109.247C38.7146 109.477 35.4562 110.455 32.534 112.109C29.6119 113.763 27.1011 116.05 25.1881 118.8C22.5525 122.551 21.1441 127.019 21.1554 131.596V146.61Z" fill="#333333"/>
<path d="M42.0335 131.594C40.6411 137.039 39.866 142.623 39.7227 148.24L42.0335 131.594Z" fill="white"/>
<path d="M42.1483 130.479C41.5226 133.204 41.0636 135.964 40.7734 138.745C40.4884 141.527 40.3309 144.317 40.3001 147.114C40.2986 147.19 40.282 147.264 40.2515 147.333C40.2211 147.402 40.1771 147.465 40.1223 147.517C40.0676 147.57 40.0035 147.611 39.9328 147.638C39.8621 147.666 39.7864 147.679 39.7105 147.677C39.6352 147.677 39.5605 147.663 39.491 147.634C39.4216 147.605 39.3587 147.562 39.306 147.508C39.2533 147.455 39.2119 147.391 39.1841 147.322C39.1564 147.252 39.1431 147.177 39.1447 147.103C39.3218 144.29 39.6338 141.485 40.0806 138.687C40.5186 135.904 41.132 133.151 41.9175 130.444C41.9257 130.413 41.9459 130.385 41.9739 130.368C42.0019 130.351 42.0354 130.346 42.0676 130.353C42.0919 130.364 42.1125 130.381 42.1268 130.404C42.1412 130.426 42.1485 130.452 42.1483 130.479Z" fill="#333333"/>
<path d="M115.172 131.594C116.561 137.04 117.336 142.623 117.483 148.24L115.172 131.594Z" fill="white"/>
<path d="M115.39 130.376C116.161 133.094 116.755 135.859 117.169 138.653C117.608 141.435 117.897 144.251 118.071 147.068C118.075 147.144 118.065 147.219 118.04 147.291C118.016 147.362 117.977 147.429 117.926 147.485C117.876 147.542 117.815 147.588 117.746 147.621C117.678 147.654 117.603 147.673 117.527 147.677C117.451 147.684 117.374 147.674 117.302 147.65C117.229 147.626 117.163 147.588 117.105 147.538C117.048 147.487 117.002 147.425 116.969 147.357C116.936 147.288 116.918 147.213 116.915 147.137C116.869 144.347 116.688 141.561 116.372 138.779C116.073 136.001 115.598 133.244 114.951 130.525C114.944 130.496 114.944 130.466 114.949 130.437C114.954 130.408 114.965 130.381 114.981 130.356C114.997 130.331 115.018 130.31 115.043 130.294C115.068 130.277 115.095 130.266 115.124 130.26C115.175 130.244 115.23 130.247 115.279 130.268C115.328 130.289 115.367 130.328 115.39 130.376Z" fill="#333333"/>
<path d="M70.1797 93.3789C70.1797 93.3789 74.3391 111.198 77.3778 114.222L70.1797 93.3789Z" fill="white"/>
<path d="M70.585 93.2892C71.4054 96.8761 72.3064 100.463 73.3348 104.004C73.8662 105.763 74.398 107.533 75.0334 109.258C75.5862 110.997 76.4126 112.639 77.4825 114.12C77.4972 114.133 77.5094 114.149 77.5175 114.167C77.5255 114.185 77.5299 114.204 77.5299 114.224C77.5299 114.244 77.5255 114.263 77.5175 114.281C77.5094 114.299 77.4972 114.314 77.4825 114.327C77.4545 114.354 77.4174 114.369 77.3787 114.369C77.3399 114.369 77.3028 114.354 77.2749 114.327C76.1446 112.83 75.2555 111.166 74.6402 109.396C73.947 107.671 73.3695 105.947 72.8033 104.153C71.6479 100.624 70.6888 97.0599 69.776 93.4615C69.7515 93.3534 69.7708 93.24 69.829 93.1455C69.8873 93.051 69.98 92.983 70.088 92.9558C70.1967 92.9314 70.3107 92.95 70.4056 93.008C70.5006 93.0659 70.5689 93.1587 70.5963 93.2662L70.585 93.2892Z" fill="#333333"/>
<path d="M91.2432 83.4258C91.2432 83.4258 84.9809 102.521 82 105.545L91.2432 83.4258Z" fill="white"/>
<path d="M91.7628 83.5957C90.4225 87.401 89.0243 91.1604 87.5107 94.8852C86.7481 96.7476 85.9858 98.6101 85.1192 100.427C84.3305 102.301 83.297 104.063 82.0457 105.669C82.0113 105.701 81.966 105.719 81.9187 105.719C81.8714 105.719 81.8256 105.701 81.7912 105.669C81.762 105.635 81.7461 105.592 81.7461 105.548C81.7461 105.504 81.762 105.461 81.7912 105.427C82.9511 103.814 83.8985 102.06 84.6103 100.208C85.4076 98.38 86.1128 96.5062 86.8061 94.6323C88.181 90.873 89.4633 87.0676 90.6649 83.2508C90.7102 83.1065 90.8107 82.9861 90.9448 82.9151C91.0788 82.8441 91.2359 82.8284 91.3814 82.8716C91.5272 82.9191 91.6487 83.0215 91.7199 83.1567C91.7911 83.292 91.8065 83.4494 91.7628 83.5957Z" fill="#333333"/>
<path d="M57.388 108.108L73.8294 113.385C73.8819 113.404 73.925 113.441 73.9507 113.49C73.9764 113.539 73.9825 113.596 73.9676 113.65C73.9611 113.676 73.9493 113.701 73.9326 113.722C73.916 113.744 73.8951 113.761 73.8711 113.774C73.8472 113.787 73.821 113.795 73.7939 113.797C73.7667 113.8 73.7395 113.796 73.7137 113.788L57.0529 109.189C56.9058 109.146 56.7819 109.047 56.7082 108.914C56.6345 108.78 56.6168 108.623 56.6597 108.476C56.7003 108.33 56.7974 108.206 56.9294 108.131C57.0613 108.056 57.2178 108.035 57.3649 108.074L57.388 108.108Z" fill="#333333"/>
<path d="M98.6353 109.21L81.9744 113.809C81.951 113.817 81.9261 113.821 81.9011 113.819C81.8761 113.817 81.8514 113.81 81.8294 113.798C81.8075 113.786 81.7885 113.77 81.7736 113.75C81.7587 113.73 81.7482 113.707 81.7431 113.682C81.7323 113.637 81.7398 113.588 81.7634 113.548C81.7871 113.507 81.8254 113.477 81.8706 113.464L98.3002 108.152C98.3722 108.127 98.4486 108.117 98.5247 108.122C98.6008 108.127 98.6751 108.148 98.743 108.182C98.811 108.217 98.8712 108.264 98.9202 108.322C98.9692 108.38 99.0063 108.448 99.0285 108.52C99.0759 108.665 99.0634 108.823 98.9941 108.959C98.9248 109.094 98.8039 109.197 98.6584 109.245L98.6353 109.21Z" fill="#333333"/>
<path d="M78.2891 89.2406C94.3607 88.5738 98.3005 69.2482 98.3005 69.2482C98.3005 69.2482 101.894 69.915 102.738 61.4997C103.581 53.0844 99.0514 55.4181 99.0514 55.4181C99.3171 31.1952 86.3421 28.5857 80.7731 28.5742C79.1208 28.5742 77.4573 28.5742 75.8051 28.5742C70.2245 28.5742 57.2605 31.1952 57.5262 55.4181C57.5262 55.4181 53.0086 53.1188 53.8405 61.4997C54.6724 69.8805 58.2777 69.2482 58.2777 69.2482C58.2777 69.2482 62.2174 88.5738 78.2891 89.2406Z" fill="white"/>
<path d="M78.2922 89.8169C63.3644 89.1961 58.5924 72.7906 57.8414 69.8246C57.2693 69.7455 56.7279 69.5196 56.2702 69.1692C54.6757 68.0196 53.6704 65.4215 53.2891 61.5588C52.9425 58.1099 53.4512 55.8911 54.7915 54.9829C55.1122 54.7794 55.4711 54.6428 55.8465 54.5815C56.2219 54.5203 56.6055 54.5355 56.9748 54.6264C56.9748 44.6936 59.2857 37.382 63.7109 32.8869C65.3043 31.3163 67.1951 30.0757 69.2736 29.237C71.352 28.3983 73.5768 27.9783 75.8195 28.0009C77.4833 28.0009 79.1472 28.0009 80.7994 28.0009C83.044 27.9774 85.2711 28.3972 87.3516 29.2359C89.432 30.0746 91.3247 31.3155 92.9198 32.8869C97.3797 37.382 99.6438 44.6936 99.6554 54.6264C100.023 54.5351 100.405 54.5197 100.779 54.581C101.152 54.6422 101.51 54.7791 101.828 54.9829C103.18 55.8911 103.677 58.0984 103.342 61.5588C102.949 65.4215 101.943 67.9736 100.349 69.1692C99.8929 69.5229 99.3506 69.7492 98.7775 69.8246C98.0381 72.7906 93.2663 89.1961 78.3385 89.8169H78.2922ZM58.7311 68.5832L58.8467 69.135C58.8467 69.3189 62.8792 88.0005 78.2922 88.6788C93.6938 88.012 97.6916 69.3304 97.7378 69.135L97.8416 68.5832L98.408 68.6865C98.876 68.693 99.329 68.5249 99.6785 68.2152C100.58 67.5139 101.736 65.7778 102.163 61.4437C102.556 57.5119 101.701 56.305 101.169 55.9372C100.882 55.7945 100.566 55.7202 100.245 55.7202C99.9241 55.7202 99.6079 55.7945 99.3208 55.9372L98.4656 56.3739V55.4196C98.5695 45.4063 96.4205 38.0947 92.0646 33.7031C90.5757 32.2413 88.8104 31.0875 86.8709 30.3081C84.9314 29.5287 82.8565 29.1392 80.765 29.1621C79.1127 29.1621 77.4486 29.1621 75.7964 29.1621C73.7049 29.1392 71.6294 29.5287 69.6899 30.3081C67.7505 31.0875 65.9857 32.2413 64.4968 33.7031C60.1409 38.0947 57.9803 45.4063 58.0958 55.4196V56.3854L57.2405 55.9372C56.9535 55.7945 56.6373 55.7202 56.3164 55.7202C55.9956 55.7202 55.6794 55.7945 55.3923 55.9372C54.8493 56.305 54.0054 57.5119 54.3983 61.4437C54.8373 65.8353 56.0045 67.5714 56.9173 68.2497C57.2618 68.5408 57.7014 68.6961 58.1533 68.6865L58.7311 68.5832Z" fill="#333333"/>
<path d="M57.9445 56.0863L60.0703 49.4759C60.3915 48.7741 60.8715 48.1556 61.4728 47.669C62.0741 47.1823 62.7805 46.8409 63.5365 46.6709C64.9265 46.3245 66.2689 45.811 67.5342 45.1418C68.7895 44.503 69.9204 43.6466 70.8734 42.6126C71.8037 41.5897 72.4905 40.3716 72.8835 39.0486C72.9383 38.9043 73.0471 38.7867 73.1871 38.7203C73.327 38.6538 73.4872 38.644 73.6344 38.6925C73.7444 38.7346 73.8406 38.8061 73.912 38.8993C75.4463 41.0306 77.2434 42.9618 79.2614 44.6475C81.2491 46.3583 83.5582 47.6593 86.055 48.4756C87.3119 48.8523 88.6136 49.0611 89.9258 49.0965C91.2918 49.1797 92.6346 49.4866 93.9003 50.0047C95.1835 50.5224 96.3075 51.3671 97.1589 52.4536C98.0062 53.5384 98.5196 54.844 98.6375 56.2129C98.6409 56.2538 98.6283 56.2943 98.6026 56.3263C98.5768 56.3584 98.5396 56.3795 98.4988 56.3853C98.4596 56.3857 98.4219 56.3719 98.3921 56.3465C98.3624 56.3212 98.343 56.2858 98.3374 56.2472C98.1798 54.9572 97.6588 53.7379 96.835 52.7295C96.0042 51.7275 94.925 50.9585 93.7039 50.499C92.4781 50.0443 91.1869 49.7882 89.8795 49.7403C88.5179 49.7298 87.1633 49.5483 85.8474 49.2C83.229 48.4154 80.7912 47.1264 78.6724 45.4062C76.5347 43.7363 74.6171 41.805 72.9648 39.658L73.9927 39.4972C73.4971 40.9573 72.6802 42.2887 71.6012 43.3943C70.5393 44.4765 69.2911 45.3604 67.9155 46.004C66.574 46.6551 65.158 47.1415 63.6984 47.4526C63.0202 47.5703 62.3796 47.8464 61.8293 48.2581C61.279 48.6698 60.8344 49.2053 60.5323 49.8209L58.2215 56.3622C58.2166 56.3838 58.207 56.404 58.1933 56.4215C58.1796 56.4389 58.1624 56.4531 58.1425 56.463C58.1226 56.4729 58.1005 56.4783 58.0782 56.4787C58.056 56.4792 58.0342 56.4749 58.0139 56.4658C57.9889 56.4703 57.9632 56.4698 57.9383 56.4644C57.9134 56.4591 57.8898 56.4491 57.8689 56.4347C57.8267 56.4056 57.7974 56.3609 57.7882 56.3106C57.7791 56.2603 57.7906 56.2084 57.8198 56.1663C57.8491 56.1243 57.894 56.0955 57.9445 56.0863Z" fill="#333333"/>
<path d="M41 90.5V115" stroke="#62FFD0" stroke-linecap="round"/>
<path d="M43.0004 92.0004L41 90L38.9996 92.0004" stroke="#62FFD0" stroke-linecap="round" stroke-linejoin="round"/>
<path d="M38.9996 113L41 115L43.0004 113" stroke="#62FFD0" stroke-linecap="round" stroke-linejoin="round"/>
<path d="M115 90.5V115" stroke="#62FFD0" stroke-linecap="round"/>
<path d="M117 92.0004L115 90L113 92.0004" stroke="#62FFD0" stroke-linecap="round" stroke-linejoin="round"/>
<path d="M113 113L115 115L117 113" stroke="#62FFD0" stroke-linecap="round" stroke-linejoin="round"/>
<path d="M12.4004 133.503L10 135L11.497 137.4" stroke="#1EACFC" stroke-linecap="round" stroke-linejoin="round"/>
<path d="M142.269 133.992L144.797 135.262L143.527 137.79" stroke="#1EACFC" stroke-linecap="round" stroke-linejoin="round"/>
<path d="M145 135.361C128.04 138.837 104.455 140.992 78.3766 140.992C51.3868 140.992 27.0678 138.684 10 134.992" stroke="#1EACFC"/>
<defs>
<clipPath id="clip0_6_2327">
<rect width="156" height="156" fill="white"/>
</clipPath>
</defs>
</svg>
