<svg width="24" height="24" viewBox="0 0 24 24" fill="none" xmlns="http://www.w3.org/2000/svg">
<path d="M18.905 6.44299L11.25 14.098C11.477 14.423 11.67 14.774 11.825 15.146L13.735 19.745L18.905 6.44199V6.44299ZM9.90295 12.751L17.559 5.09499L4.25595 10.265L8.85495 12.176C9.2241 12.3291 9.57551 12.5219 9.90295 12.751ZM21.521 4.88899L15.494 20.395C15.114 21.375 14.017 21.878 13.045 21.519C12.8082 21.4315 12.5921 21.296 12.4102 21.121C12.2283 20.9459 12.0845 20.7352 11.988 20.502L10.078 15.903C9.70631 15.0067 8.99419 14.2946 8.09795 13.923L3.49795 12.013C2.54395 11.616 2.10795 10.513 2.52595 9.54699C2.62845 9.31095 2.77664 9.09753 2.962 8.91904C3.14736 8.74054 3.36622 8.6005 3.60595 8.50699L19.112 2.47799C19.4489 2.34221 19.8183 2.30851 20.1742 2.3811C20.5302 2.45368 20.8569 2.62933 21.1138 2.88619C21.3706 3.14305 21.5463 3.46978 21.6188 3.82571C21.6914 4.18164 21.6577 4.55106 21.522 4.88799L21.521 4.88899Z" fill="white"/>
</svg>
