<svg xmlns="http://www.w3.org/2000/svg" xmlns:xlink="http://www.w3.org/1999/xlink" width="568" height="421.049" viewBox="0 0 568 421.049"><defs><style>.a{fill:#fff;}.b{fill:#ff4848;}.c{fill:#edbe00;}.d{fill:#00c500;}.e{filter:url(#c);}.f{filter:url(#a);}</style><filter id="a" x="0.297" y="0.049" width="567" height="421" filterUnits="userSpaceOnUse"><feOffset dy="3" input="SourceAlpha"/><feGaussianBlur stdDeviation="8" result="b"/><feFlood flood-opacity="0.161"/><feComposite operator="in" in2="b"/><feComposite in="SourceGraphic"/></filter><filter id="c" x="0" y="0" width="568" height="86.159" filterUnits="userSpaceOnUse"><feOffset dy="3" input="SourceAlpha"/><feGaussianBlur stdDeviation="8" result="d"/><feFlood flood-opacity="0.161"/><feComposite operator="in" in2="d"/><feComposite in="SourceGraphic"/></filter></defs><g transform="translate(-394.703 -1408.951)"><g class="f" transform="matrix(1, 0, 0, 1, 394.7, 1408.95)"><rect class="a" width="519" height="373" rx="10" transform="translate(24.3 21.05)"/></g><g class="e" transform="matrix(1, 0, 0, 1, 394.7, 1408.95)"><path class="a" d="M0,0H520a0,0,0,0,1,0,0V28.159a10,10,0,0,1-10,10H10a10,10,0,0,1-10-10V0A0,0,0,0,1,0,0Z" transform="translate(544 59.16) rotate(180)"/></g><circle class="b" cx="6.559" cy="6.559" r="6.559" transform="translate(434.205 1443.068)"/><ellipse class="c" cx="5.962" cy="6.559" rx="5.962" ry="6.559" transform="translate(455.67 1443.068)"/><circle class="d" cx="6.559" cy="6.559" r="6.559" transform="translate(475.941 1443.068)"/></g></svg>