<svg xmlns="http://www.w3.org/2000/svg" xmlns:xlink="http://www.w3.org/1999/xlink" width="202.5" height="43" viewBox="0 0 202.5 43"><defs><style>.a{fill:#fff;stroke:#707070;}.b{fill:#7b84ff;}.c{clip-path:url(#a);}.d{fill:#56597b;}</style><clipPath id="a"><rect class="a" width="9" height="43" transform="translate(1367 2042)"/></clipPath></defs><g transform="translate(-1173.5 -2042)"><path class="b" d="M19.471,5.111a2,2,0,0,1,3.755,0l3.215,8.752a2,2,0,0,0,1.787,1.308l9.227.419a2,2,0,0,1,1.171,3.55l-7.287,5.926a2,2,0,0,0-.669,2.075l2.469,9.118a2,2,0,0,1-3.049,2.181L22.467,33.3a2,2,0,0,0-2.236,0l-7.624,5.14a2,2,0,0,1-3.049-2.181l2.469-9.118a2,2,0,0,0-.669-2.075L4.072,19.141a2,2,0,0,1,1.171-3.55l9.227-.419a2,2,0,0,0,1.787-1.308Z" transform="translate(1173.5 2042)"/><path class="b" d="M19.471,5.111a2,2,0,0,1,3.755,0l3.215,8.752a2,2,0,0,0,1.787,1.308l9.227.419a2,2,0,0,1,1.171,3.55l-7.287,5.926a2,2,0,0,0-.669,2.075l2.469,9.118a2,2,0,0,1-3.049,2.181L22.467,33.3a2,2,0,0,0-2.236,0l-7.624,5.14a2,2,0,0,1-3.049-2.181l2.469-9.118a2,2,0,0,0-.669-2.075L4.072,19.141a2,2,0,0,1,1.171-3.55l9.227-.419a2,2,0,0,0,1.787-1.308Z" transform="translate(1253.401 2042)"/><path class="b" d="M19.471,5.111a2,2,0,0,1,3.755,0l3.215,8.752a2,2,0,0,0,1.787,1.308l9.227.419a2,2,0,0,1,1.171,3.55l-7.287,5.926a2,2,0,0,0-.669,2.075l2.469,9.118a2,2,0,0,1-3.049,2.181L22.467,33.3a2,2,0,0,0-2.236,0l-7.624,5.14a2,2,0,0,1-3.049-2.181l2.469-9.118a2,2,0,0,0-.669-2.075L4.072,19.141a2,2,0,0,1,1.171-3.55l9.227-.419a2,2,0,0,0,1.787-1.308Z" transform="translate(1213.451 2042)"/><path class="b" d="M19.471,5.111a2,2,0,0,1,3.755,0l3.215,8.752a2,2,0,0,0,1.787,1.308l9.227.419a2,2,0,0,1,1.171,3.55l-7.287,5.926a2,2,0,0,0-.669,2.075l2.469,9.118a2,2,0,0,1-3.049,2.181L22.467,33.3a2,2,0,0,0-2.236,0l-7.624,5.14a2,2,0,0,1-3.049-2.181l2.469-9.118a2,2,0,0,0-.669-2.075L4.072,19.141a2,2,0,0,1,1.171-3.55l9.227-.419a2,2,0,0,0,1.787-1.308Z" transform="translate(1293.352 2042)"/><path class="b" d="M19.471,5.111a2,2,0,0,1,3.755,0l3.215,8.752a2,2,0,0,0,1.787,1.308l9.227.419a2,2,0,0,1,1.171,3.55l-7.287,5.926a2,2,0,0,0-.669,2.075l2.469,9.118a2,2,0,0,1-3.049,2.181L22.467,33.3a2,2,0,0,0-2.236,0l-7.624,5.14a2,2,0,0,1-3.049-2.181l2.469-9.118a2,2,0,0,0-.669-2.075L4.072,19.141a2,2,0,0,1,1.171-3.55l9.227-.419a2,2,0,0,0,1.787-1.308Z" transform="translate(1333.303 2042)"/><g class="c"><path class="d" d="M19.471,5.111a2,2,0,0,1,3.755,0l3.215,8.752a2,2,0,0,0,1.787,1.308l9.227.419a2,2,0,0,1,1.171,3.55l-7.287,5.926a2,2,0,0,0-.669,2.075l2.469,9.118a2,2,0,0,1-3.049,2.181L22.467,33.3a2,2,0,0,0-2.236,0l-7.624,5.14a2,2,0,0,1-3.049-2.181l2.469-9.118a2,2,0,0,0-.669-2.075L4.072,19.141a2,2,0,0,1,1.171-3.55l9.227-.419a2,2,0,0,0,1.787-1.308Z" transform="translate(1333.303 2042)"/></g></g></svg>